<svg width="23" height="53" viewBox="0 0 23 53" fill="none" xmlns="http://www.w3.org/2000/svg">
<path d="M22.8746 38.6698L22.5616 39.1573L22.214 39.6988L21.8348 40.288L21.4294 40.9149L20.998 41.5778L20.5428 42.2709L19.5831 43.7104L18.5644 45.1965L17.5154 46.67L16.9819 47.3957L16.4502 48.0993L15.9212 48.7765L15.3966 49.4253L14.8784 50.0379L14.3702 50.6066L13.8715 51.1321L13.3832 51.6055L12.9175 52.0111L12.6728 52.2052L12.4378 52.3759L12.2045 52.5288L11.9696 52.6656L11.7286 52.7845L11.4597 52.8888L11.0846 52.9807L10.6706 53L10.2783 52.9395L9.91445 52.8155L9.58108 52.6362L9.25647 52.3949L8.77438 51.915L8.33022 51.3181L7.9375 50.6658L7.57825 49.9804L7.24724 49.2785L6.9415 48.5913L6.79548 48.2578L6.65578 47.9397L6.52132 47.6391L6.39223 47.3582L6.26964 47.104L6.14679 46.8666L5.49276 45.5951L4.91354 44.351L4.39457 43.128L4.14562 42.5077L3.90482 41.8869L3.66713 41.258L3.4298 40.6184L3.18968 39.9635L2.94371 39.2899C2.87066 39.0858 2.88259 38.8615 2.97691 38.6661C3.07122 38.4707 3.24022 38.3201 3.4469 38.2472C3.65358 38.1744 3.8811 38.1854 4.07963 38.2776C4.27816 38.3699 4.43153 38.5359 4.50615 38.7395L4.75169 39.4123L4.99035 40.0629L5.22488 40.6953L5.45837 41.313L5.6932 41.9185L5.93077 42.5105L6.43446 43.6981L6.98806 44.8876L7.62791 46.1307L7.76019 46.3866L7.8989 46.6742L8.03768 46.976L8.17762 47.2893L8.31981 47.6127L8.46363 47.9413L8.7608 48.6095L9.06977 49.2651L9.3911 49.8788L9.71888 50.425L10.0426 50.8632L10.1861 51.0041C10.1779 50.9521 10.1752 50.8994 10.178 50.8468L10.3323 49.841L10.4864 48.8359L10.7347 47.1998L10.9476 45.7413L11.048 45.0258L11.1477 44.2888L11.25 43.5055L11.3027 43.0934L11.357 42.6613L11.4133 42.2063L11.4719 41.7288L11.5331 41.2232L11.5966 40.6941L11.7745 39.0308L11.9098 37.3375L12.001 35.6113L12.0499 33.8608L12.0503 32.0896L11.9997 30.3015L11.9007 28.504L11.7464 26.7022L11.5342 24.8999L11.2678 23.1028L10.9397 21.3178L10.5469 19.5483L10.0941 17.7988L9.57329 16.0779L8.97872 14.3804L8.6611 13.5559L8.32261 12.7348L7.96519 11.9236L7.59061 11.1229L7.1974 10.335L6.78434 9.55901L6.35339 8.7952L5.90314 8.04626L5.43221 7.31114L4.94276 6.58994L4.43347 5.8853L3.90239 5.1965L3.3522 4.52308L2.78138 3.86813L2.1879 3.23085L1.57459 2.61059L0.939725 2.01053L0.27145 1.42125C0.109218 1.27599 0.0119829 1.07325 0.00103524 0.857441C-0.0099124 0.641632 0.0663192 0.430344 0.213041 0.269852C0.359763 0.10936 0.565009 0.0127449 0.783826 0.00117111C1.00264 -0.0104027 1.2172 0.0640182 1.38049 0.208115L2.06983 0.816479L2.74541 1.45486L3.39579 2.11268L4.02425 2.78777L4.6299 3.48234L5.21144 4.19394L5.7718 4.92113L6.31013 5.66563L6.82532 6.42476L7.32036 7.19757L7.79409 7.98552L8.24575 8.78593L8.67804 9.59826L9.09006 10.4235L9.48109 11.2594L9.85366 12.1051L10.2067 12.9617L10.5427 13.8346L11.154 15.5805L11.6942 17.3657L12.1623 19.1737L12.5674 20.9993L12.906 22.8403L13.1801 24.6888L13.398 26.5403L13.5565 28.3916L13.6581 30.2347L13.71 32.067L13.7096 33.8832L13.6594 35.6759L13.5661 37.4435L13.4274 39.1795L13.2468 40.8692L13.1815 41.4148L13.12 41.9224L13.0612 42.4025L13.0045 42.8596L12.9498 43.2949L12.8965 43.7114L12.7936 44.4998L12.6928 45.2443L12.5912 45.9698L12.377 47.436L12.128 49.0773L11.9735 50.0839L11.8724 50.7426L12.2478 50.4164L12.6802 49.9967L13.1388 49.5135L13.6158 48.9796L14.1081 48.3975L14.6129 47.7733L15.1253 47.1173L15.6427 46.4327L16.1599 45.729L17.1959 44.2739L18.2006 42.8082L19.1522 41.3807L19.6015 40.6967L20.0297 40.0388L20.4328 39.4152L20.8106 38.8284L21.1576 38.2877L21.4706 37.8001C21.5879 37.6174 21.7739 37.488 21.9879 37.4402C22.2018 37.3925 22.4262 37.4302 22.612 37.5453C22.7977 37.6603 22.9296 37.8433 22.9789 38.0541C23.0281 38.2648 22.9906 38.4863 22.8746 38.6698Z" fill="#3865DC"/>
</svg>
