<svg width="59" height="68" viewBox="0 0 59 68" fill="none" xmlns="http://www.w3.org/2000/svg">
<path d="M0.102452 37.3963L0.236955 38.4917L0.419846 39.5795L0.654373 40.6596L0.938071 41.729L1.26518 42.7892L1.63861 43.8397L2.0557 44.8781L2.5113 45.9055L3.00785 46.9218L3.54269 47.9244L4.1112 48.9147L4.71547 49.892L5.35272 50.8544L6.01887 51.8032L6.71562 52.7374L7.44023 53.6552L8.18908 54.5581L8.96335 55.4447L9.76042 56.3136L10.5771 57.1662L11.4141 58.0008L12.2689 58.8163L13.1387 59.6141L14.0237 60.3924L14.9215 61.1498L15.8298 61.8883L16.7483 62.6057L17.6744 63.3005L18.6065 63.975L19.5438 64.6267L20.4838 65.2546L21.4252 65.8605L22.3669 66.4419L23.1171 66.8859L22.6737 66.8816L21.9971 66.8392L21.2545 66.7683L20.4764 66.6786L19.6853 66.5761L18.9083 66.4697L18.5321 66.4175L18.1678 66.3673L17.8193 66.3203L17.4875 66.277L17.1766 66.2387L16.9004 66.2079L15.7915 66.0676L14.6692 65.8797L13.5005 65.6508L12.9001 65.5257L12.2806 65.3931L11.6423 65.2544L10.9851 65.1112L10.3053 64.9644L9.60234 64.8153C9.45766 64.785 9.3068 64.8129 9.18279 64.8931C9.05878 64.9732 8.97172 65.099 8.94067 65.2429C8.90963 65.3868 8.93713 65.5371 9.01715 65.6609C9.09718 65.7847 9.22321 65.8718 9.36764 65.9033L10.0686 66.0521L10.7454 66.1983L11.402 66.3413L12.0421 66.4802L12.6661 66.6139L13.2787 66.7416L14.4669 66.9741L15.6268 67.1683L16.7616 67.3121L17.0445 67.3437L17.3451 67.3806L17.6703 67.4232L18.0149 67.4696L18.3772 67.5195L18.7543 67.5718L19.5359 67.6788L20.3388 67.7829L21.1357 67.8747L21.9074 67.9483L22.6307 67.9935L23.2713 68L23.5796 67.9867L23.8591 67.9583L24.1178 67.9111L24.3653 67.838L24.6104 67.7157L24.821 67.5292L24.9611 67.3194L25.048 67.1047L25.0927 66.8892L25.1051 66.6762L25.0898 66.4638L25.0528 66.2573L24.9996 66.0523L24.9305 65.845L24.8486 65.6364L24.7559 65.4249L24.6522 65.2084L24.5373 64.9836L24.2919 64.5323L24.0182 64.0543L23.7281 63.5555L23.4307 63.0394L23.1336 62.506L22.8425 61.9509L22.6927 61.6591L22.5291 61.3496L22.3557 61.0286L22.1736 60.6978L21.9825 60.3563L21.7828 60.0041L21.3645 59.2776L20.9194 58.5166L20.4538 57.7275L19.9737 56.9169L19.4824 56.0874L18.9854 55.2439L18.4877 54.3922L17.994 53.536L17.5084 52.6787C17.4355 52.5502 17.3144 52.4558 17.1717 52.416C17.029 52.3762 16.8762 52.3943 16.7469 52.4663C16.6175 52.5384 16.5221 52.6585 16.4815 52.8004C16.4409 52.9423 16.4584 53.0945 16.5302 53.2236L17.018 54.0848L17.5154 54.9473L18.0157 55.8035L18.5143 56.6497L19.0062 57.4804L19.4859 58.2903L19.95 59.0767L20.392 59.8326L20.8072 60.5538L21.0031 60.8991L21.1907 61.2344L21.3689 61.5581L21.5379 61.8706L21.6959 62.17L21.8456 62.4614L22.1447 63.0317L22.4526 63.5843L22.7551 64.1095L23.0446 64.6071L23.3106 65.0716L23.5454 65.5037L23.6452 65.6989L23.7347 65.8859L23.776 65.9801L22.951 65.4919L22.0272 64.9215L21.1027 64.3264L20.1793 63.7097L19.2592 63.07L18.3436 62.4074L17.4338 61.7248L16.5325 61.0209L15.6407 60.2959L14.7594 59.5523L13.8918 58.7894L13.0387 58.0069L12.2008 57.2076L11.3816 56.3906L10.5821 55.5559L9.80239 54.7061L9.04642 53.8403L8.31523 52.9587L7.6084 52.0635L6.93032 51.1543L6.28208 50.231L5.66268 49.2957L5.0771 48.3486L4.52621 47.3888L4.00868 46.4188L3.52983 45.4389L3.09056 44.4481L2.68907 43.4486L2.33094 42.4413L2.01724 41.4246L1.74556 40.4009L1.5219 39.3708L1.34744 38.3329L1.21923 37.2893L1.14356 36.2412L1.122 35.1862L1.15093 34.1265L1.23701 33.0635L1.38221 31.9948L1.58242 30.9224L1.84464 29.8477L2.17348 28.7617L2.35707 28.2273L2.55922 27.6864L2.77856 27.1442L3.01344 26.6014L3.26546 26.0587L3.53533 25.5149L3.82146 24.9706L4.12536 24.4264L4.44785 23.8815L4.78722 23.3362L5.14498 22.7912L5.521 22.2471L5.86083 21.7858L6.21011 21.3529L6.57095 20.9442L6.9411 20.5581L7.32037 20.1972L7.70994 19.8594L8.10769 19.5429L8.51314 19.2503L8.9278 18.9796L9.34954 18.7289L9.77774 18.5008L10.2141 18.2935L10.6564 18.1054L11.1041 17.9386L11.5587 17.7917L12.0183 17.663L12.482 17.5544L12.9514 17.4651L13.4247 17.3932L13.9008 17.3404L14.3812 17.3062L14.8643 17.2885L15.3488 17.289L15.8362 17.3072L16.3249 17.3414L16.8138 17.3927L17.3039 17.4608L17.794 17.5443L18.2826 17.6439L18.771 17.7595L19.2579 17.8896L19.742 18.0347L20.2241 18.1951L20.7033 18.369L21.1782 18.557L21.6431 18.7564L22.5791 19.2013L23.4843 19.6953L24.3095 20.206L24.2194 20.5385L24.1054 21.0617L24.0214 21.5905L23.9684 22.1203L23.9443 22.6517L23.9526 23.1846L23.994 23.7148L24.0666 24.2425L24.1741 24.7678L24.3168 25.2858L24.4927 25.7976L24.7059 26.3022L24.9559 26.7951L25.2406 27.2771L25.5646 27.7474L25.9253 28.2L26.2939 28.6104L26.7586 29.0776L27.2961 29.5646L27.5957 29.816L27.9051 30.0589L28.2259 30.2927L28.5564 30.5154L28.8972 30.7226L29.2444 30.9086L29.5983 31.0722L29.9604 31.2074L30.3262 31.3067L30.6982 31.3682L31.0783 31.3803L31.4323 31.3376L31.641 31.2869L31.8268 31.2216L32.0056 31.1389L32.1783 31.0389L32.3451 30.9193L32.5007 30.7835L32.6469 30.632L32.7841 30.4625L32.9092 30.2788L33.0246 30.0808L33.1305 29.8655L33.2337 29.6135L33.3375 29.2361L33.3719 28.8221L33.3381 28.4121L33.2512 28.0062L33.1143 27.601L32.9279 27.1854L32.4842 26.4104L31.9175 25.626L31.2789 24.8664L30.9351 24.4879L30.5876 24.1228L30.2368 23.7683L29.8861 23.4247L29.5392 23.0943L29.2009 22.7798L28.8737 22.4808L28.5628 22.2009L28.2726 21.9423L28.0052 21.7049L27.7672 21.4929L27.5542 21.3008L26.7425 20.5978L25.8795 19.9301L25.6334 19.7603L25.7631 19.4288L25.9625 18.9828L26.1855 18.5463L26.4327 18.1181L26.7008 17.6999L26.9904 17.2947L27.3028 16.9016L27.5468 16.6253L27.8022 16.371L28.0707 16.1356L28.3498 15.918L28.6391 15.7199L28.9408 15.5394L29.2525 15.3747L29.5734 15.228L29.9058 15.0976L30.2472 14.982L30.5967 14.8828L30.9562 14.7993L31.3232 14.7296L31.697 14.6752L32.0789 14.6353L32.4668 14.6086L32.8597 14.5958L33.2504 14.5963L34.0687 14.6335L34.8903 14.7198L35.7204 14.8519L36.5528 15.022L37.3811 15.23L38.2018 15.4724L39.0101 15.7422L39.1914 15.8102L39.3182 16.1769L39.4931 16.5928L39.7045 17.0383L39.9538 17.5141L40.2371 18.0132L40.5492 18.5296L40.8903 19.0599L41.2566 19.5965L41.6434 20.1342L42.0504 20.6681L42.4737 21.1899L42.9096 21.6965L43.3574 22.1809L43.813 22.6351L44.2747 23.0575L44.7424 23.44L45.2033 23.768L45.448 23.9225L45.6861 24.0578L45.9242 24.177L46.1637 24.2812L46.4067 24.3683L46.6497 24.4353L46.8951 24.4828L47.1447 24.507L47.3927 24.5047L47.6402 24.4759L47.8872 24.4157L48.1179 24.3272L48.3404 24.2167L48.5405 24.0966L48.7203 23.9656L48.8828 23.8224L49.027 23.6638L49.1636 23.4679L49.3208 23.1307L49.3964 22.7392L49.3813 22.3567L49.3 21.9885L49.1616 21.6313L48.9801 21.2889L48.7656 20.9557L48.5195 20.6289L48.25 20.3112L47.9631 20.001L47.661 19.6996L47.351 19.4094L47.0379 19.1308L46.7259 18.8661L46.4218 18.6182L46.1293 18.3871L45.8545 18.1765L45.604 17.989L45.3805 17.8248L45.1921 17.6881L45.0383 17.5769L44.4896 17.1961L43.8794 16.8093L43.2218 16.427L42.5241 16.0513L41.786 15.6862L41.0138 15.3367L40.2141 15.0043L40.1654 14.9861L40.117 14.6694L40.0629 14.098L40.0417 13.5307L40.0496 12.9691L40.0888 12.4151L40.1584 11.8668L40.2548 11.325L40.3796 10.7923L40.5324 10.2667L40.7098 9.74909L40.9128 9.24198L41.1416 8.74371L41.3926 8.25495L41.6667 7.77831L41.964 7.31248L42.2812 6.8578L42.6187 6.41704L42.977 5.98906L43.3526 5.57403L43.7458 5.17457L44.157 4.79001L44.5831 4.42004L45.0238 4.0676L45.4798 3.73187L45.948 3.41252L46.4279 3.11251L46.9203 2.83118L47.4223 2.56788L47.9331 2.32545L48.4535 2.10376L48.9808 1.90165L49.5138 1.72216L50.0536 1.5651L50.5977 1.42927L51.1446 1.31752L51.6954 1.23011L52.2478 1.16531L52.8001 1.12598L53.3536 1.11271L53.9063 1.12336L54.456 1.16105L55.0043 1.22642L55.5495 1.31735L56.0891 1.43648L56.6248 1.58509L57.1552 1.76073L57.6776 1.96612L58.2068 2.20919C58.3412 2.27086 58.4947 2.27694 58.6337 2.22612C58.7726 2.17531 58.8856 2.07172 58.948 1.93808C59.0103 1.80444 59.0169 1.65164 58.9663 1.51317C58.9157 1.3747 58.812 1.26186 58.6779 1.19938L58.1202 0.943774L57.5399 0.715531L56.9538 0.521372L56.3623 0.357271L55.7646 0.225293L55.1644 0.125179L54.5617 0.0533326L53.9561 0.0117977L53.3511 0L52.7464 0.0145796L52.1417 0.0575114L51.5406 0.128049L50.9426 0.223081L50.3475 0.344575L49.7586 0.49155L49.1754 0.661299L48.5981 0.855787L48.0297 1.07346L47.4694 1.31227L46.9179 1.57394L46.378 1.85708L45.8486 2.15963L45.3309 2.48331L44.8274 2.82658L44.3371 3.18754L43.8612 3.56816L43.4025 3.96648L42.9593 4.38103L42.5336 4.81351L42.1277 5.26188L41.7402 5.72509L41.3729 6.20459L41.0286 6.69819L40.7051 7.20498L40.4051 7.72668L40.1309 8.26051L39.8806 8.80596L39.6568 9.36469L39.4619 9.93349L39.2937 10.5123L39.1555 11.1025L39.0491 11.7007L38.9722 12.3069L38.9286 12.9224L38.9198 13.5437L38.9434 14.1709L38.98 14.5583L38.5408 14.4117L37.679 14.1571L36.8038 13.9374L35.9225 13.7573L35.0383 13.6169L34.154 13.524L33.2856 13.4841L32.8423 13.4831L32.4094 13.4973L31.9812 13.5269L31.5569 13.5712L31.1364 13.6325L30.7225 13.711L30.3143 13.806L29.9118 13.9202L29.5181 14.0534L29.132 14.2051L28.7538 14.378L28.387 14.5717L28.0302 14.7853L27.684 15.0224L27.3519 15.2812L27.0325 15.5613L26.7266 15.866L26.4374 16.1936L26.0919 16.6283L25.7694 17.0794L25.4722 17.5431L25.1979 18.0181L24.9488 18.5056L24.7269 19.002L24.6794 19.1236L24.0519 18.7354L23.0922 18.2119L22.1152 17.747L21.6092 17.5297L21.1041 17.3297L20.5953 17.1451L20.0829 16.9745L19.5662 16.8196L19.0472 16.6811L18.5259 16.5576L18.0017 16.4509L17.4769 16.3616L16.9509 16.2883L16.4235 16.233L15.8969 16.1962L15.3706 16.1765L14.8443 16.1759L14.3203 16.1951L13.7982 16.2324L13.2774 16.2901L12.7608 16.3686L12.2474 16.4663L11.737 16.5858L11.2324 16.727L10.7327 16.8885L10.2378 17.0732L9.75051 17.2803L9.26968 17.5087L8.79551 17.7614L8.33078 18.0374L7.87419 18.3357L7.4262 18.6591L6.98936 19.0066L6.56235 19.3768L6.14584 19.7733L5.74204 20.1943L5.34959 20.6389L4.96945 21.1101L4.60461 21.6052L4.21213 22.173L3.83968 22.7403L3.48661 23.3076L3.15074 23.8753L2.83327 24.4437L2.53455 25.0119L2.2525 25.5803L1.98835 26.1492L1.74234 26.7176L1.51246 27.2858L1.29994 27.8545L1.10286 28.4287L0.761722 29.5566L0.485186 30.69L0.274317 31.819L0.121419 32.9445L0.0305715 34.0668L0 35.1823L0.0227935 36.2921L0.102452 37.3963ZM41.3028 16.6905L42.0064 17.0384L42.6707 17.3962L43.294 17.7586L43.8663 18.1213L44.3909 18.4857L44.5304 18.5867L44.7151 18.7206L44.9319 18.88L45.1733 19.0606L45.4365 19.2624L45.716 19.483L46.0049 19.7185L46.2985 19.9676L46.5914 20.2281L46.878 20.4963L47.1518 20.7696L47.4075 21.0459L47.641 21.3209L47.8435 21.5895L48.0109 21.8494L48.1412 22.0938L48.2266 22.312L48.2691 22.503L48.2772 22.6609L48.2545 22.7846L48.18 22.9323L48.1521 22.9672L48.0944 23.0305L48.0161 23.0993L47.9186 23.1705L47.7998 23.2418L47.6602 23.3112L47.549 23.3548L47.4417 23.3808L47.3232 23.3942L47.1952 23.3953L47.0588 23.3821L46.9088 23.3527L46.7489 23.3086L46.5811 23.2484L46.4033 23.1709L46.2184 23.0783L46.0285 22.9703L45.8406 22.8521L45.4275 22.5588L45.013 22.2196L44.5916 21.834L44.169 21.4126L43.7501 20.9594L43.3377 20.4801L42.9352 19.9837L42.5476 19.4754L42.1778 18.9614L41.8278 18.4485L41.5032 17.9439L41.2071 17.454L40.9403 16.9841L40.7096 16.5438L40.636 16.3887L41.3028 16.6905ZM26.028 21.4558L26.8125 22.1357L27.015 22.3185L27.2563 22.5333L27.5234 22.7706L27.8106 23.0266L28.1165 23.3019L28.437 23.5947L28.7669 23.9015L29.1033 24.2217L29.4421 24.5538L29.7792 24.8944L30.1104 25.2423L30.4267 25.5901L31.0309 26.3079L31.5403 27.012L31.935 27.7034L32.069 28.0053L32.1695 28.3013L32.2284 28.5761L32.25 28.8251L32.2327 29.0419L32.1686 29.2639L32.1064 29.4111L32.0336 29.5591L31.9575 29.6896L31.88 29.8037L31.8027 29.8992L31.7235 29.981L31.6441 30.0506L31.566 30.1065L31.4846 30.1533L31.4013 30.1922L31.317 30.2217L31.248 30.24L31.0283 30.2688L30.8116 30.2612L30.5688 30.2204L30.3079 30.1494L30.0344 30.047L29.7489 29.9148L29.4577 29.7587L29.1654 29.5808L28.8734 29.3841L28.5857 29.1743L28.3061 28.9547L28.0418 28.7332L27.5354 28.2746L27.1106 27.8475L26.7852 27.4852L26.4681 27.0877L26.1883 26.6815L25.9416 26.2634L25.725 25.8366L25.5417 25.4028L25.3895 24.9596L25.2656 24.5102L25.1728 24.0565L25.1097 23.5965L25.0733 23.133L25.0661 22.6682L25.0875 22.2004L25.1342 21.7321L25.2083 21.266L25.2912 20.8856L26.028 21.4558Z" fill="#34363C"/>
</svg>
