<svg width="177" height="88" viewBox="0 0 177 88" fill="none" xmlns="http://www.w3.org/2000/svg">
<path d="M117.95 64.4104H164.167C164.167 64.4104 159.104 42.8835 141.056 42.8835C123.009 42.8835 118.741 59.6016 117.946 64.4104H117.95Z" fill="#3865DC"/>
<path opacity="0.2" d="M117.95 64.4104H164.167C164.167 64.4104 159.104 42.8835 141.056 42.8835C123.009 42.8835 118.741 59.6016 117.946 64.4104H117.95Z" fill="#333333"/>
<path d="M3.95147 62.0898H50.1686C50.1686 62.0898 45.1061 40.563 27.0584 40.563C9.01065 40.563 4.74247 57.2811 3.94824 62.0898H3.95147Z" fill="#3865DC"/>
<path opacity="0.2" d="M3.95147 62.0898H50.1686C50.1686 62.0898 45.1061 40.563 27.0584 40.563C9.01065 40.563 4.74247 57.2811 3.94824 62.0898H3.95147Z" fill="#333333"/>
<path d="M7.1222 22.6732C6.13103 24.2407 1.90805 41.6798 1.80796 42.2849C1.70788 42.89 0.264701 45.5358 0.238873 46.0412C0.213044 46.5465 -0.13887 54.3358 0.0613013 54.8379C0.264702 55.3433 1.40116 57.1812 1.65299 57.4837C1.90482 57.7863 2.69259 63.4094 3.42548 63.4834C4.15837 63.5575 5.44334 63.609 5.56925 63.4834C5.69517 63.3579 6.47972 42.5585 27.0361 42.5585C47.5924 42.5585 47.3664 64.6422 47.7442 64.7162C48.1219 64.7935 120 66.8856 120 66.8856C120 63.5092 120.264 43.3922 140.43 43.3922C153.567 43.3922 160.205 54.1878 160.431 62.1477C160.525 65.463 159.97 69.1066 160.154 69.1066C160.761 69.1066 162.833 69.2578 163.188 69.1066C163.544 68.9553 167.841 66.1324 168.196 66.0294C168.551 65.9297 169.587 65.8782 170.194 65.7269C170.801 65.5756 175.05 61.8708 175.124 61.7196C175.199 61.5683 175.328 60.107 175.35 59.9815C175.376 59.8559 176.794 54.6126 176.994 54.0333C177.197 53.4539 172.341 36.1532 170.521 34.7917C168.7 33.4302 157.17 27.8167 153.377 27.1344C149.583 26.4552 138.054 23.3524 137.295 22.8245C136.536 22.2966 100.932 1.93496 94.7393 0.438247C89.7318 -0.771994 39.2853 0.892089 36.2504 1.04337C33.2156 1.19465 15.3163 3.92735 14.7578 4.17841C14.2025 4.42947 14.7578 6.65039 15.4648 7.05273C15.4648 7.05273 8.83335 19.9502 7.11251 22.6732H7.1222Z" fill="#3865DC"/>
<path opacity="0.5" d="M7.1222 22.6732C6.13103 24.2407 1.90805 41.6798 1.80796 42.2849C1.70788 42.89 0.264701 45.5358 0.238873 46.0412C0.213044 46.5465 -0.13887 54.3358 0.0613013 54.8379C0.264702 55.3433 1.40116 57.1812 1.65299 57.4837C1.90482 57.7863 2.69259 63.4094 3.42548 63.4834C4.15837 63.5575 5.44334 63.609 5.56925 63.4834C5.69517 63.3579 6.47972 42.5585 27.0361 42.5585C47.5924 42.5585 47.3664 64.6422 47.7442 64.7162C48.1219 64.7935 120 66.8856 120 66.8856C120 63.5092 120.264 43.3922 140.43 43.3922C153.567 43.3922 160.205 54.1878 160.431 62.1477C160.525 65.463 159.97 69.1066 160.154 69.1066C160.761 69.1066 162.833 69.2578 163.188 69.1066C163.544 68.9553 167.841 66.1324 168.196 66.0294C168.551 65.9297 169.587 65.8782 170.194 65.7269C170.801 65.5756 175.05 61.8708 175.124 61.7196C175.199 61.5683 175.328 60.107 175.35 59.9815C175.376 59.8559 176.794 54.6126 176.994 54.0333C177.197 53.4539 172.341 36.1532 170.521 34.7917C168.7 33.4302 157.17 27.8167 153.377 27.1344C149.583 26.4552 138.054 23.3524 137.295 22.8245C136.536 22.2966 100.932 1.93496 94.7393 0.438247C89.7318 -0.771994 39.2853 0.892089 36.2504 1.04337C33.2156 1.19465 15.3163 3.92735 14.7578 4.17841C14.2025 4.42947 14.7578 6.65039 15.4648 7.05273C15.4648 7.05273 8.83335 19.9502 7.11251 22.6732H7.1222Z" fill="white"/>
<path opacity="0.1" d="M134.865 43.9843C120.22 47.3221 120.007 63.8567 120.007 66.8887C120.007 66.8887 48.1288 64.7966 47.7478 64.7193C47.4411 64.6549 47.5348 50.1771 36.6738 44.6602C41.5522 47.0678 47.8027 52.8873 50.1693 61.3944C50.4243 62.2988 53.0169 63.7247 75.9269 64.4522C98.8401 65.1764 109.414 64.7193 113.191 64.1914C116.969 63.6603 121.405 43.9231 134.868 43.9843H134.865Z" fill="#333333"/>
<path opacity="0.1" d="M175.677 58.7808C175.496 59.46 175.364 59.9428 175.357 59.9814C175.332 60.107 175.206 61.5683 175.128 61.7195C175.054 61.8708 170.808 65.5788 170.201 65.7301C169.643 65.8653 168.713 65.92 168.297 66.0101C168.29 66.0101 168.284 66.0101 168.277 66.0133C168.248 66.0165 168.226 66.0198 168.206 66.0262C168 66.0906 166.553 67.0079 165.268 67.8222C165.126 67.9124 164.987 67.9993 164.848 68.0862C164.777 68.1312 164.71 68.1763 164.642 68.2181C164.509 68.2986 164.384 68.3791 164.261 68.4563C164.261 68.4563 164.26 68.4563 164.258 68.4563C164.135 68.5304 164.022 68.6012 163.915 68.6656C163.86 68.701 163.809 68.7331 163.76 68.7653C163.47 68.9424 163.266 69.0647 163.199 69.0936C162.847 69.2481 160.771 69.0936 160.164 69.0936H160.157C160.157 69.0936 160.151 69.0872 160.148 69.0808C160.138 69.0615 160.131 69.026 160.131 68.9745C160.119 68.7718 160.154 68.3115 160.202 67.6903C160.212 67.5873 160.222 67.4811 160.232 67.3684C160.241 67.2461 160.251 67.1206 160.261 66.9854C160.27 66.8663 160.28 66.7408 160.29 66.612C160.296 66.5412 160.303 66.4672 160.306 66.3931C160.328 66.126 160.348 65.8427 160.364 65.553C160.364 65.5498 160.364 65.5434 160.364 65.5369C160.432 64.4748 160.474 63.2903 160.441 62.1412C160.435 61.9545 160.429 61.7614 160.412 61.5683C160.403 61.3944 160.39 61.2174 160.37 61.0404C160.357 60.8923 160.341 60.7378 160.322 60.5898C160.306 60.4707 160.29 60.3548 160.27 60.2325C160.212 59.8076 160.131 59.3827 160.035 58.9514C160.015 58.8517 159.993 58.7519 159.967 58.6489C159.925 58.4718 159.88 58.2916 159.834 58.1146C159.796 57.9794 159.76 57.8474 159.718 57.709C159.644 57.4451 159.56 57.1811 159.473 56.9204C159.424 56.782 159.376 56.6436 159.324 56.502C159.169 56.0675 158.992 55.6361 158.801 55.2048C158.75 55.0857 158.695 54.9667 158.64 54.8443C158.549 54.648 158.456 54.4517 158.356 54.2585C158.32 54.1877 158.285 54.1169 158.246 54.0429C158.165 53.8852 158.078 53.7242 157.991 53.5665C157.888 53.3798 157.781 53.1899 157.668 53.0032C157.555 52.8165 157.445 52.6299 157.323 52.4464C157.216 52.279 157.106 52.1084 156.993 51.9443C156.98 51.9282 156.971 51.9121 156.961 51.8992C156.848 51.7351 156.732 51.5677 156.612 51.4067C156.59 51.3746 156.57 51.3456 156.548 51.3198C156.448 51.1814 156.344 51.0462 156.238 50.9111C156.202 50.8628 156.167 50.8177 156.131 50.7759C156.009 50.6181 155.883 50.4604 155.75 50.3059C155.473 49.9744 155.182 49.6525 154.882 49.3371C154.856 49.3049 154.827 49.2759 154.801 49.2502C154.685 49.1311 154.569 49.0152 154.446 48.8961C154.401 48.8478 154.356 48.8028 154.307 48.7609C154.165 48.6258 154.023 48.4906 153.874 48.3554C153.865 48.3457 153.852 48.3361 153.842 48.3296C153.678 48.1784 153.51 48.0303 153.339 47.8887C153.187 47.7599 153.025 47.6344 152.867 47.5056C152.841 47.4831 152.816 47.4638 152.79 47.4445C152.644 47.3318 152.493 47.2192 152.341 47.1065C152.276 47.0582 152.209 47.01 152.141 46.9617C152.125 46.9488 152.108 46.9391 152.092 46.9263C151.95 46.8265 151.805 46.7235 151.653 46.6237C151.469 46.5014 151.282 46.3823 151.091 46.2632C151.066 46.2471 151.037 46.2278 151.008 46.2117C150.82 46.0958 150.623 45.9832 150.43 45.8705C150.223 45.7579 150.013 45.6452 149.803 45.5358C149.797 45.5326 149.794 45.5293 149.787 45.5261C153.561 46.3244 159.851 51.4582 162.395 56.753C164.936 62.0478 164.283 62.4405 164.877 63.0778C165.465 63.7119 167.438 62.4277 168.348 62.1959C169.262 61.9738 172.219 61.8966 173.359 61.668C174.495 61.4427 174.683 59.3988 175.464 58.945C175.535 58.9031 175.609 58.8388 175.687 58.7551L175.677 58.7808Z" fill="#333333"/>
<path d="M20.1334 21.273C20.9567 23.6967 96.6087 28.7018 122.379 28.3961C122.951 28.3896 127.868 24.0572 127.187 23.4489C124.62 21.1539 117.594 16.902 115.609 15.7915C110.601 12.9945 96.2665 4.90259 89.2088 4.06894C82.1544 3.23851 67.8421 3.30932 55.3765 3.54107C43.0111 3.76638 39.253 4.06894 34.0938 6.26411C29.5705 8.18891 19.3456 18.9588 20.1334 21.2762V21.273Z" fill="#4F4747"/>
<path d="M23.4749 19.5736C23.7784 20.6679 39.4467 22.9693 70.4733 24.4049C101.5 25.8404 116.823 26.6065 117.201 26.4552C117.578 26.3039 116.138 18.0608 115.609 17.3816C115.079 16.7025 92.8506 5.35644 89.3605 5.05388C85.8704 4.75132 67.022 4.92513 57.5009 4.86398C45.7069 4.78995 38.9495 6.14825 35.5756 7.50977C32.6053 8.70714 23.1714 18.476 23.4749 19.5736Z" fill="#37474F"/>
<g opacity="0.1">
<path d="M52.497 4.92212L35.5018 21.8655C31.6663 21.431 28.7444 21.0029 26.7427 20.6199L41.4553 5.95212C44.29 5.45321 47.9221 5.07018 52.4938 4.92534L52.497 4.92212Z" fill="white"/>
<path d="M117.2 26.4552C117.039 26.5195 114.088 26.4165 108.296 26.1558L115.99 18.4856C116.619 20.9061 117.507 26.3328 117.2 26.4552Z" fill="white"/>
<path d="M66.2504 4.87382L48.0283 23.0403L43.9603 22.7023L43.4082 22.6541L61.2461 4.87061C62.812 4.87382 64.5037 4.87382 66.2504 4.87061V4.87382Z" fill="white"/>
<path d="M108.632 13.5902L96.5601 25.625C95.0524 25.5542 93.4543 25.4769 91.7754 25.4029L105.303 11.9229C106.456 12.4926 107.576 13.0526 108.629 13.5934L108.632 13.5902Z" fill="white"/>
<path d="M37.4098 6.87598L24.2372 20.0116C23.7659 19.8507 23.5108 19.7026 23.4721 19.5739C23.4527 19.5159 23.4688 19.429 23.5076 19.3228L35.1531 7.70963C35.3048 7.62594 35.4436 7.55835 35.5696 7.51007C36.0958 7.29763 36.7092 7.08519 37.4066 6.87919L37.4098 6.87598Z" fill="white"/>
<path d="M111.506 15.0708L100.735 25.8149C100.293 25.7924 99.8377 25.773 99.376 25.7505L110.576 14.5815C110.896 14.7489 111.205 14.9131 111.506 15.0708Z" fill="white"/>
<path d="M92.9998 6.23218L74.584 24.595C75.0424 24.6175 75.4912 24.6369 75.9432 24.6594L94.0103 6.64739L93.003 6.23218H92.9998Z" fill="white"/>
</g>
<path d="M59.1859 5.34033C59.3763 5.93902 59.6895 23.5036 59.6895 24.0701C59.6895 24.6366 59.0438 24.7718 59.0438 24.7718L69.0621 25.2353C69.0621 25.2353 68.4131 25.055 68.3001 24.7525C68.1871 24.4499 65.0393 5.50449 65.0586 5.25987C65.078 5.01524 65.572 4.78027 65.572 4.78027H58.5918C58.5918 4.78027 59.0664 4.95731 59.1891 5.34033H59.1859Z" fill="#4F4747"/>
<path d="M159.131 66.2061C160.854 55.8217 153.806 46.0113 143.39 44.294C132.974 42.5767 123.133 49.6029 121.411 59.9873C119.688 70.3718 126.736 80.1822 137.152 81.8994C147.568 83.6167 157.409 76.5906 159.131 66.2061Z" fill="#4F4747"/>
<path d="M140.275 77.0151C147.984 77.0151 154.233 70.7854 154.233 63.1006C154.233 55.4158 147.984 49.186 140.275 49.186C132.567 49.186 126.318 55.4158 126.318 63.1006C126.318 70.7854 132.567 77.0151 140.275 77.0151Z" fill="#DBDBDB"/>
<path d="M149.374 72.1719C154.399 67.1616 154.399 59.0381 149.374 54.0278C144.348 49.0174 136.2 49.0174 131.174 54.0278C126.148 59.0382 126.148 67.1616 131.174 72.1719C136.2 77.1823 144.348 77.1823 149.374 72.1719Z" fill="#A6A6A6"/>
<path d="M137.57 63.8601C138.271 64.4202 138.929 65.1283 139.736 65.7913C138.968 65.9491 138.542 67.8352 140.208 70.1881C141.57 72.4573 145.022 75.1997 144.973 75.1289C144.499 75.4153 144.069 75.763 143.646 76.1846C139.307 71.9713 139.091 71.0894 137.99 70.7482C137.147 70.6581 136.579 70.8898 136.899 76.1846C135.988 75.6439 135.155 75.1128 134.387 74.6235C134.458 74.6718 134.671 70.7385 135.449 68.421C136.14 65.8042 137.399 64.8032 137.573 63.8601H137.57Z" fill="#DBDBDB"/>
<path d="M140.039 65.8204C140.807 65.3247 141.721 64.9288 142.635 64.3784C142.599 65.0414 144.091 66.2356 146.964 65.286C149.618 64.6455 153.657 61.8581 153.677 61.739C153.689 62.4954 153.702 63.2518 153.715 64.0114C148.014 66.9855 147.248 66.7634 146.409 67.7419C145.825 68.5273 147.129 69.6796 150.729 71.363C150.012 71.9166 149.425 72.3994 148.982 72.8855C149.121 72.8468 145.137 70.7579 143.439 69.2612C141.505 67.7452 140.82 66.2484 140.042 65.8204H140.039Z" fill="#DBDBDB"/>
<path d="M142.765 64.1079C142.549 63.2453 142.468 62.2829 142.223 61.269C142.849 61.475 144.508 60.4676 144.463 57.4709C144.657 54.7801 143.146 50.1033 143.014 50.0164C143.934 50.5249 144.783 51.0303 145.571 51.5034C146.455 57.1909 146.039 57.9248 146.665 58.9644C147.198 59.7208 148.583 58.752 151.224 55.971C151.54 56.5182 151.879 56.9302 152.306 57.236C152.267 57.2134 149.1 60.7798 147.143 61.9675C145.086 63.4063 143.472 63.4352 142.772 64.1015L142.765 64.1079Z" fill="#DBDBDB"/>
<path d="M141.999 61.0695C141.089 61.0276 140.123 60.8281 139.058 60.7605C139.6 60.1908 138.893 58.4559 136.427 57.4645C134.218 56.3798 128.778 55.794 128.801 55.8326C129.572 55.2275 130.231 54.7093 130.754 54.2104C135.058 55.3723 137.386 56.1641 138.293 55.8873C138.91 55.5204 139.358 55.0665 136.162 51.056C136.643 50.7728 137.089 50.4284 137.537 50.0164C137.628 50.1451 140.285 53.8048 141.089 56.1867C142.206 58.8035 141.467 60.1425 141.999 61.0662V61.0695Z" fill="#DBDBDB"/>
<path d="M138.79 60.9085C138.438 61.7454 137.922 62.5854 137.512 63.5639C137.137 62.8204 135.216 63.1713 133.521 65.1121C131.807 66.8245 129.766 71.3211 129.808 71.1859C129.482 70.555 129.159 70.0722 128.765 69.7085C131.161 65.9297 132.523 64.0178 132.514 63.094C132.301 62.4213 132.091 61.8097 126.838 64.0017C126.851 63.2292 126.867 62.4599 126.883 61.6906C127.006 61.6745 131.293 60.3549 133.812 60.3227C136.65 60.0781 137.721 61.1177 138.787 60.9021L138.79 60.9085Z" fill="#DBDBDB"/>
<path d="M138.238 61.356C139.291 60.252 141.021 60.178 142.119 61.1629C143.223 62.1607 143.262 63.857 142.225 64.9417C141.183 66.0328 139.468 66.1262 138.364 65.1509C137.247 64.166 137.195 62.4504 138.241 61.3528L138.238 61.356Z" fill="#DBDBDB"/>
<g opacity="0.2">
<path d="M63.8256 26.3233L63.1411 31.1578L62.8441 33.5815C62.7989 33.9871 62.7537 34.3926 62.7246 34.8014C62.6924 35.2134 62.7182 35.6157 62.7117 36.0245L62.7989 45.7934L62.8796 50.6794L62.9184 53.1224L62.9377 54.3423L63.0314 55.559L63.4091 60.4289L63.8224 65.2956L63.577 60.4193L63.2961 55.5461L63.2251 54.3294L63.2122 53.1095L63.1896 50.6697L63.1411 45.7901L62.9732 36.031C62.9732 35.6254 62.9377 35.2134 62.9636 34.8143C62.9862 34.4119 63.0217 34.0064 63.0604 33.6008L63.309 31.1739L63.8288 26.3201L63.8256 26.3233Z" fill="#333333"/>
<path d="M20.6469 22.1838C20.6469 22.1838 19.5782 31.795 19.5459 31.9784C19.5136 32.1619 19.5395 32.3389 19.533 32.5192L20.6469 39.4491L19.7945 32.5224C19.7945 32.3421 19.759 32.1619 19.7848 31.9849C19.8074 31.8078 20.6469 22.1838 20.6469 22.1838Z" fill="#333333"/>
<path d="M118.796 38.4705C118.773 41.7601 118.712 45.0464 118.628 48.3327C118.608 49.1535 118.583 49.9743 118.55 50.795C118.55 51.6287 118.344 52.443 118.176 53.2252C117.817 54.8088 117.411 56.3699 116.965 57.9181C116.513 59.4598 116.035 60.9952 115.412 62.45L115.173 62.9908C115.089 63.1678 114.992 63.3384 114.905 63.5122C114.821 63.6925 114.715 63.8534 114.611 64.0143L114.453 64.2557C114.327 64.3619 114.253 64.3394 114.169 64.3684C113.514 64.4553 112.865 64.465 112.216 64.4939C107.021 64.6259 101.829 64.5647 96.6379 64.5229C91.4431 64.4682 92.2503 64.378 87.062 64.2622C81.8736 64.1206 76.6788 63.9596 71.4937 63.715C68.9109 63.583 66.412 63.5959 63.8291 63.2998V63.0455C66.4023 63.3287 68.9109 63.3062 71.5002 63.4317C76.6853 63.657 81.8769 63.7987 87.0684 63.921C92.26 64.0626 91.4496 64.1688 96.6379 64.2396C101.826 64.304 107.021 64.3845 112.213 64.2686C112.858 64.2429 113.514 64.2332 114.146 64.1495C114.218 64.1399 114.318 64.1141 114.331 64.1109L114.482 63.8759C114.586 63.7214 114.686 63.5669 114.77 63.3899C114.854 63.2225 114.947 63.0551 115.031 62.8813L115.267 62.3503C115.887 60.9147 116.368 59.3826 116.823 57.8505C117.269 56.3087 117.679 54.7508 118.037 53.1737C118.211 52.3786 118.411 51.6094 118.411 50.7821L118.499 48.323C118.605 45.0399 118.689 41.7536 118.731 38.4705C118.734 38.0617 118.738 37.6497 118.734 37.2377C118.734 37.0382 118.705 36.8322 118.679 36.6294L118.605 36.0179L118.295 33.5877L117.679 28.7178L118.327 33.5813L118.654 36.0114L118.731 36.623C118.76 36.8225 118.789 37.0253 118.789 37.2377C118.799 37.6465 118.796 38.0585 118.796 38.4705Z" fill="#333333"/>
<path d="M168.128 36.6777C167.295 37.4374 166.324 38.0135 165.394 38.6315C164.451 39.2366 163.489 39.8128 162.533 40.3954C161.561 40.9554 160.599 41.5251 159.618 42.0659C158.636 42.6066 157.652 43.1409 156.647 43.6398C157.581 43.0186 158.533 42.4264 159.485 41.8406L162.359 40.1057L165.258 38.4126L166.708 37.5693C167.189 37.2861 167.683 37.0189 168.128 36.681V36.6777Z" fill="#333333"/>
<path d="M64.2422 47.8694L71.0222 48.0883L77.8054 48.3393L91.3655 48.8479L104.929 49.4305L111.709 49.7234L118.486 50.0485L111.706 49.8296L104.922 49.5785L91.3622 49.07L77.799 48.4874L71.019 48.1945L64.2422 47.8694Z" fill="#333333"/>
</g>
<path d="M33.9749 80.7067C43.729 76.6787 48.3609 65.5304 44.3207 55.8061C40.2804 46.0818 29.0979 41.464 19.3439 45.4919C9.58983 49.5199 4.95789 60.6682 8.99815 70.3925C13.0384 80.1168 24.2209 84.7346 33.9749 80.7067Z" fill="#4F4747"/>
<path d="M40.3644 65.7324C41.822 58.1862 36.8675 50.8909 29.2982 49.4377C21.729 47.9845 14.4113 52.9239 12.9537 60.47C11.4961 68.0162 16.4505 75.3116 24.0198 76.7647C31.589 78.2179 38.9067 73.2785 40.3644 65.7324Z" fill="#DBDBDB"/>
<path d="M29.6092 75.5899C36.5265 73.9622 40.8106 67.0522 39.178 60.1559C37.5453 53.2597 30.6142 48.9887 23.6969 50.6163C16.7795 52.244 12.4954 59.154 14.128 66.0502C15.7607 72.9465 22.6918 77.2175 29.6092 75.5899Z" fill="#A6A6A6"/>
<path d="M29.3636 62.344C28.663 61.784 28.0044 61.0758 27.1972 60.4128C27.9656 60.2551 28.3918 58.3689 26.7258 56.016C25.3634 53.7468 21.912 51.0045 21.9605 51.0753C22.4351 50.7888 22.8645 50.4412 23.2874 50.0195C27.6266 54.2328 27.8429 55.1148 28.9439 55.456C29.7865 55.5461 30.3548 55.3143 30.0351 50.0195C30.9456 50.5603 31.7786 51.0914 32.547 51.5806C32.4759 51.5323 32.2629 55.4656 31.4848 57.7863C30.7939 60.4031 29.5347 61.4042 29.3604 62.3472L29.3636 62.344Z" fill="#DBDBDB"/>
<path d="M26.897 60.3805C26.1286 60.8762 25.2149 61.2721 24.3012 61.8225C24.3367 61.1595 22.8451 59.9653 19.9717 60.9148C17.3178 61.5554 13.2788 64.3428 13.2594 64.4619C13.2465 63.7055 13.2336 62.9491 13.2207 62.1895C18.9224 59.2154 19.6875 59.4375 20.527 58.459C21.1113 57.6736 19.807 56.5213 16.2071 54.8379C16.9239 54.2843 17.5115 53.8015 17.9538 53.3154C17.815 53.3541 21.799 55.443 23.4973 56.9397C25.4312 58.4557 26.1156 59.9524 26.8937 60.3805H26.897Z" fill="#DBDBDB"/>
<path d="M24.1684 62.0962C24.3847 62.9588 24.4654 63.9212 24.7108 64.9351C24.0844 64.7291 22.4249 65.7366 22.4701 68.7332C22.2764 71.4241 23.7874 76.1009 23.9198 76.1878C22.9996 75.6792 22.1505 75.1739 21.3627 74.7007C20.4781 69.0132 20.8946 68.2794 20.2683 67.2397C19.7355 66.4833 18.3505 67.4522 15.7095 70.2331C15.3931 69.6859 15.0541 69.274 14.6279 68.9682C14.6667 68.9907 17.8339 65.4244 19.7904 64.2366C21.847 62.7979 23.4613 62.7689 24.1619 62.1026L24.1684 62.0962Z" fill="#DBDBDB"/>
<path d="M24.9336 65.1345C25.8441 65.1764 26.8094 65.3759 27.8748 65.4435C27.3324 66.0132 28.0395 67.7481 30.5061 68.7395C32.7145 69.8242 38.1546 70.41 38.132 70.3714C37.3604 70.9765 36.7018 71.4947 36.1787 71.9936C31.875 70.8317 29.5472 70.0399 28.64 70.3167C28.0233 70.6836 27.5746 71.1374 30.7709 75.148C30.2898 75.4312 29.8443 75.7756 29.3955 76.1876C29.3051 76.0589 26.648 72.3992 25.8441 70.0173C24.727 67.4005 25.4663 66.0615 24.9336 65.1377V65.1345Z" fill="#DBDBDB"/>
<path d="M28.1431 65.2958C28.495 64.4589 29.0116 63.6188 29.4216 62.6403C29.7961 63.3838 31.7171 63.033 33.4121 61.0921C35.1265 59.3797 37.1669 54.8832 37.125 55.0184C37.4511 55.6492 37.7739 56.132 38.1678 56.4958C35.7722 60.2745 34.4097 62.1865 34.4194 63.1102C34.6325 63.783 34.8424 64.3945 40.0953 62.2026C40.0823 62.975 40.0662 63.7443 40.0501 64.5136C39.9274 64.5297 35.6398 65.8494 33.1215 65.8816C30.2836 66.1262 29.2117 65.0865 28.1463 65.3022L28.1431 65.2958Z" fill="#DBDBDB"/>
<path d="M28.6986 64.8482C27.6461 65.9523 25.9156 66.0263 24.8178 65.0414C23.7137 64.0435 23.6749 62.3473 24.7113 61.2626C25.7541 60.1714 27.4685 60.0781 28.5727 61.0534C29.6898 62.0383 29.7414 63.7539 28.6954 64.8514L28.6986 64.8482Z" fill="#DBDBDB"/>
<path d="M112.81 19.3451C112.112 20.0403 112.177 26.2524 112.684 26.7578C113.191 27.2631 120.119 27.717 120.675 23.8577C121.23 20.0017 113.898 18.2604 112.81 19.3451Z" fill="#3865DC"/>
<path opacity="0.4" d="M112.81 19.3451C112.112 20.0403 112.177 26.2524 112.684 26.7578C113.191 27.2631 120.119 27.717 120.675 23.8577C121.23 20.0017 113.898 18.2604 112.81 19.3451Z" fill="white"/>
<path d="M138.093 23.0562H132.459C117.791 13.4097 97.6611 3.8662 97.6611 3.8662L100.999 3.06152C113.184 8.94214 136.682 22.3932 137.298 22.8245C137.376 22.8792 137.65 22.9565 138.093 23.0562Z" fill="#37474F"/>
<g opacity="0.5">
<path d="M4.54913 50.6536C5.69527 48.7031 7.19656 46.9714 8.83345 45.4071C10.4897 43.8557 12.3397 42.5038 14.3382 41.4095C18.3319 39.2046 22.9262 38.1425 27.4849 38.1843L29.1929 38.2648L30.0484 38.3066C30.3325 38.3388 30.6134 38.3839 30.8975 38.4225L32.5925 38.6639C33.1511 38.7798 33.7032 38.9278 34.2585 39.0566C36.4539 39.6456 38.6235 40.4696 40.5284 41.7378C42.4494 42.9705 44.1605 44.5091 45.6037 46.2633C47.0566 48.0143 48.1704 50.0035 49.1874 52.0152C48.0768 50.0485 46.9274 48.0915 45.4294 46.4049C43.9668 44.6958 42.2492 43.2087 40.3379 42.0339C36.5088 39.652 31.9597 38.6832 27.4785 38.6414C25.2314 38.5931 22.9811 38.857 20.7953 39.3591C18.6096 39.8741 16.4916 40.6756 14.5028 41.7217C12.5108 42.7645 10.6576 44.0681 8.98196 45.5745C7.3031 47.0744 5.77921 48.7642 4.5459 50.6569L4.54913 50.6536Z" fill="white"/>
<path d="M117.746 50.6536C118.892 48.7031 120.394 46.9714 122.03 45.4071C123.687 43.8557 125.537 42.5038 127.535 41.4095C131.529 39.2046 136.123 38.1425 140.682 38.1843L142.39 38.2648L143.245 38.3066C143.53 38.3388 143.81 38.3839 144.095 38.4225L145.79 38.6639C146.348 38.7798 146.9 38.9278 147.455 39.0566C149.651 39.6456 151.82 40.4696 153.725 41.7378C155.646 42.9705 157.358 44.5091 158.801 46.2633C160.254 48.0143 161.367 50.0035 162.384 52.0152C161.274 50.0485 160.124 48.0915 158.626 46.4049C157.164 44.6958 155.446 43.2087 153.535 42.0339C149.706 39.652 145.157 38.6832 140.679 38.6414C138.432 38.5931 136.181 38.857 133.996 39.3591C131.81 39.8741 129.692 40.6756 127.703 41.7217C125.711 42.7645 123.858 44.0681 122.182 45.5745C120.503 47.0744 118.979 48.7642 117.746 50.6569V50.6536Z" fill="white"/>
</g>
<g opacity="0.3">
<path d="M17.7504 29.5934C17.8149 33.2885 13.2981 35.239 10.6087 32.6866C8.91697 31.0997 8.88468 28.264 10.5506 26.645C13.1851 24.0346 17.7439 25.9015 17.7504 29.5934ZM17.7504 29.5934C17.7052 25.9659 13.2497 24.231 10.7476 26.8381C9.2366 28.3606 9.26565 31 10.8025 32.4902C13.3563 35.0459 17.7762 33.2241 17.7504 29.5934Z" fill="#333333"/>
</g>
<path opacity="0.3" d="M9.38818 28.7791C9.41078 28.9304 9.43661 29.0818 9.44307 29.2364C9.43015 29.0818 9.41078 28.9304 9.38818 28.7791Z" fill="#333333"/>
<path d="M3.89028 33.9324C3.89028 33.9324 4.7846 35.722 4.72002 36.2338C4.65545 36.7455 4.01297 42.182 3.62877 42.4363C3.24457 42.6905 2.37285 43.154 1.62382 43.0188C0.871561 42.8837 3.89028 33.9324 3.89028 33.9324Z" fill="#EBEBEB"/>
<path d="M17.3308 7.05273L8.26176 22.4447L7.12207 22.6732L15.4712 7.05273H17.3308Z" fill="#37474F"/>
<path opacity="0.1" d="M74.0268 29.4726L71.776 29.3625C70.5168 29.3009 69.4463 30.2686 69.3849 31.5239L69.3332 32.5816C69.2718 33.8369 70.2428 34.9045 71.5019 34.9661L73.7527 35.0761C75.0119 35.1377 76.0824 34.17 76.1438 32.9147L76.1955 31.857C76.2569 30.6017 75.2859 29.5341 74.0268 29.4726Z" fill="#333333"/>
<path d="M77.9442 31.7086L67.6799 31.2081C67.5018 31.1994 67.3504 31.3363 67.3417 31.5139L67.2794 32.7838C67.2706 32.9613 67.408 33.1123 67.5861 33.121L77.8503 33.6214C78.0284 33.6301 78.1799 33.4932 78.1886 33.3157L78.2509 32.0458C78.2596 31.8682 78.1223 31.7173 77.9442 31.7086Z" fill="#3865DC"/>
<g opacity="0.2">
<path d="M77.9451 31.7102L67.6809 31.2082C67.5028 31.1994 67.3514 31.3363 67.3427 31.5139L67.2806 32.7838C67.2719 32.9613 67.4092 33.1123 67.5873 33.121L77.8515 33.623C78.0296 33.6317 78.181 33.4949 78.1897 33.3173L78.2518 32.0474C78.2605 31.8699 78.1232 31.7189 77.9451 31.7102Z" fill="white"/>
</g>
<path opacity="0.1" d="M27.6882 25.9235L29.9357 26.1277C31.1896 26.2416 32.1166 27.3503 32.003 28.6005L31.9069 29.6584C31.7934 30.9085 30.6818 31.8321 29.4279 31.7182L27.1804 31.5141C25.9265 31.4002 24.9995 30.2914 25.1131 29.0413L25.2092 27.9834C25.3227 26.7332 26.4343 25.8096 27.6882 25.9235Z" fill="#333333"/>
<path d="M33.847 28.4862L23.6125 27.5594C23.435 27.5433 23.2779 27.6738 23.2618 27.8508L23.1464 29.117C23.1303 29.294 23.2612 29.4506 23.4388 29.4667L33.6732 30.3934C33.8508 30.4095 34.0078 30.279 34.0239 30.102L34.1393 28.8358C34.1554 28.6588 34.0246 28.5022 33.847 28.4862Z" fill="#3865DC"/>
<g opacity="0.2">
<path d="M33.8467 28.4891L23.6125 27.5595C23.435 27.5433 23.278 27.6738 23.2619 27.8508L23.1469 29.117C23.1308 29.2941 23.2617 29.4507 23.4393 29.4668L33.6735 30.3964C33.851 30.4125 34.008 30.2821 34.0241 30.105L34.1391 28.8388C34.1552 28.6618 34.0243 28.5052 33.8467 28.4891Z" fill="white"/>
</g>
<path d="M153.279 32.2072C154.109 34.2768 161.8 38.8764 164.789 39.8678C166.668 40.4922 173.29 41.9374 173.736 41.6284C174.178 41.3194 172.448 35.6705 170.953 34.2768C169.455 32.8831 160.773 29.1526 158.229 28.8983C155.688 28.6441 152.447 30.1215 153.283 32.2104L153.279 32.2072Z" fill="white"/>
<path d="M153.28 32.207C153.767 33.1791 154.687 33.8518 155.511 34.5277C156.366 35.1908 157.264 35.7991 158.177 36.3817C160.014 37.5276 161.913 38.5865 163.902 39.4363C165.903 40.2345 168.076 40.5757 170.181 41.0328C171.292 41.2356 172.587 41.5252 173.633 41.5124C173.633 41.5188 173.652 41.4544 173.649 41.3997C173.649 41.3418 173.649 41.2774 173.642 41.2162C173.558 40.4277 173.313 39.6519 173.077 38.8923C172.567 37.3892 172.018 35.8217 171.03 34.5664C170.698 34.1833 170.223 33.9065 169.768 33.6297C167.905 32.5482 165.923 31.6502 163.931 30.8101C161.929 30.044 159.914 29.0655 157.758 28.8917C156.679 28.8756 155.585 29.1042 154.629 29.6063C153.683 30.0666 152.799 31.1191 153.28 32.207ZM153.28 32.207C152.792 31.1223 153.67 30.0537 154.616 29.587C156.059 28.8209 157.8 28.6439 159.369 29.0881C160.948 29.4969 162.475 30.0698 163.992 30.662C166.007 31.4732 168.005 32.3261 169.907 33.3947C170.372 33.678 170.859 33.9484 171.247 34.3829C172.58 36.1307 173.281 38.2711 173.817 40.3762C173.862 40.7302 174.178 41.6797 173.7 41.8021C172.486 41.8568 171.305 41.5091 170.123 41.3064C168.005 40.8268 165.849 40.4309 163.837 39.5908C161.852 38.6992 159.976 37.5984 158.152 36.4268C157.241 35.8377 156.347 35.223 155.498 34.5503C154.678 33.8679 153.764 33.1887 153.28 32.2102V32.207Z" fill="#DBDBDB"/>
<path d="M173.732 41.6283C173.287 41.9373 166.668 40.4921 164.786 39.8676C161.799 38.8763 154.106 34.2767 153.276 32.2071C152.44 30.1213 155.681 28.6439 158.222 28.895C158.393 28.9111 158.593 28.9465 158.81 28.9948C156.324 29.5548 155.549 31.4152 156.814 32.7349C158.086 34.0643 162.277 37.3248 164.027 38.1392C165.712 38.9278 172.137 40.9942 172.776 40.6079C173.022 40.4599 173.135 40.0704 173.177 39.6487C173.639 40.6948 173.897 41.5124 173.729 41.6283H173.732Z" fill="#EBEBEB"/>
</svg>
