<svg width="20" height="20" viewBox="0 0 20 20" fill="none" xmlns="http://www.w3.org/2000/svg">
<path d="M13.3333 1.66675H6.66667C4.36667 1.66675 2.5 3.53341 2.5 5.83342V14.1667C2.5 16.4667 4.36667 18.3334 6.66667 18.3334H13.3333C15.6333 18.3334 17.5 16.4667 17.5 14.1667V5.83342C17.5 3.53341 15.6333 1.66675 13.3333 1.66675ZM7.38333 15.5251C7.225 15.6834 7.01667 15.7667 6.8 15.7667C6.575 15.7667 6.36667 15.6834 6.20833 15.5251C6.05 15.3667 5.95833 15.1584 5.95833 14.9334C5.95833 14.7167 6.05 14.5001 6.20833 14.3417C6.28333 14.2667 6.375 14.2084 6.475 14.1667C6.68333 14.0834 6.90833 14.0834 7.11667 14.1667C7.16667 14.1834 7.21667 14.2084 7.25833 14.2417C7.30833 14.2667 7.35 14.3084 7.38333 14.3417C7.54167 14.5001 7.63333 14.7167 7.63333 14.9334C7.63333 15.1584 7.54167 15.3667 7.38333 15.5251ZM5.95833 11.6001C5.95833 11.4917 5.98333 11.3834 6.025 11.2834C6.06667 11.1751 6.125 11.0917 6.20833 11.0084C6.4 10.8167 6.69167 10.7251 6.95833 10.7834C7.00833 10.7917 7.06667 10.8084 7.11667 10.8334C7.16667 10.8501 7.21667 10.8751 7.25833 10.9084C7.30833 10.9334 7.35 10.9751 7.38333 11.0084C7.45833 11.0917 7.525 11.1751 7.56667 11.2834C7.60833 11.3834 7.625 11.4917 7.625 11.6001C7.625 11.8251 7.54167 12.0334 7.38333 12.1917C7.225 12.3501 7.01667 12.4334 6.8 12.4334C6.68333 12.4334 6.575 12.4084 6.475 12.3667C6.375 12.3251 6.28333 12.2667 6.20833 12.1917C6.05 12.0334 5.95833 11.8251 5.95833 11.6001ZM10.7167 15.5251C10.6417 15.6001 10.55 15.6584 10.45 15.7001C10.35 15.7417 10.2417 15.7667 10.125 15.7667C9.90833 15.7667 9.7 15.6834 9.54167 15.5251C9.38333 15.3667 9.29167 15.1584 9.29167 14.9334C9.29167 14.8751 9.3 14.8251 9.30833 14.7667C9.325 14.7167 9.34167 14.6667 9.35833 14.6167C9.38333 14.5667 9.40833 14.5167 9.43333 14.4667C9.46667 14.4251 9.5 14.3834 9.54167 14.3417C9.61667 14.2667 9.70833 14.2084 9.80833 14.1667C10.1167 14.0417 10.4833 14.1084 10.7167 14.3417C10.875 14.5001 10.9583 14.7167 10.9583 14.9334C10.9583 15.1584 10.875 15.3667 10.7167 15.5251ZM10.7167 12.1917C10.5583 12.3501 10.35 12.4334 10.125 12.4334C9.90833 12.4334 9.7 12.3501 9.54167 12.1917C9.38333 12.0334 9.29167 11.8251 9.29167 11.6001C9.29167 11.3834 9.38333 11.1667 9.54167 11.0084C9.85 10.7001 10.4083 10.7001 10.7167 11.0084C10.7917 11.0917 10.8583 11.1751 10.9 11.2834C10.9417 11.3834 10.9583 11.4917 10.9583 11.6001C10.9583 11.8251 10.875 12.0334 10.7167 12.1917ZM7.5 8.71675C6.64167 8.71675 5.93333 8.01675 5.93333 7.15008V6.31675C5.93333 5.45841 6.63333 4.75008 7.5 4.75008H12.5C13.3583 4.75008 14.0667 5.45008 14.0667 6.31675V7.15008C14.0667 8.00841 13.3667 8.71675 12.5 8.71675H7.5ZM14.05 15.5251C13.8917 15.6834 13.6833 15.7667 13.4583 15.7667C13.35 15.7667 13.2417 15.7417 13.1417 15.7001C13.0417 15.6584 12.95 15.6001 12.875 15.5251C12.7167 15.3667 12.6333 15.1584 12.6333 14.9334C12.6333 14.7167 12.7167 14.5001 12.875 14.3417C13.1 14.1084 13.475 14.0417 13.7833 14.1667C13.8833 14.2084 13.975 14.2667 14.05 14.3417C14.2083 14.5001 14.2917 14.7167 14.2917 14.9334C14.2917 15.1584 14.2083 15.3667 14.05 15.5251ZM14.2333 11.9167C14.1917 12.0167 14.1333 12.1084 14.05 12.1917C13.8917 12.3501 13.6833 12.4334 13.4583 12.4334C13.2417 12.4334 13.0333 12.3501 12.875 12.1917C12.7167 12.0334 12.625 11.8251 12.625 11.6001C12.625 11.3834 12.7167 11.1667 12.875 11.0084C13.1833 10.7001 13.7417 10.7001 14.05 11.0084C14.2083 11.1667 14.3 11.3834 14.3 11.6001C14.3 11.7084 14.275 11.8167 14.2333 11.9167Z" fill="#4F4747"/>
</svg>
