<svg width="162" height="170" viewBox="0 0 162 170" fill="none" xmlns="http://www.w3.org/2000/svg">
<g opacity="0.8">
<path d="M84.6574 28.1013C80.192 28.1013 5.07826 28.6289 0.361893 28.4548C0.282423 28.4544 0.205264 28.4272 0.14222 28.3774C0.0791768 28.3275 0.0337223 28.2577 0.0128122 28.1787C-0.00809799 28.0997 -0.00331395 28.0159 0.0264357 27.9399C0.0561854 27.864 0.109261 27.8002 0.177539 27.7583C3.1528 26.244 6.52749 26.5448 9.62052 25.4737C11.4385 24.8406 12.5548 23.6165 13.8197 22.2077C14.8645 20.978 16.2156 20.0658 17.7269 19.5696C19.1087 19.1388 20.5757 19.0879 21.9824 19.4219C23.5187 19.7965 24.8297 20.6935 26.284 21.2633C29.8943 22.6668 33.397 21.3319 35.9728 18.583C38.098 16.3142 40.1873 14.172 43.0755 12.9532C45.4977 11.9296 48.1964 11.7186 50.6033 12.8477C53.3583 14.1298 55.248 16.7205 57.834 18.2717C60.9066 20.1236 64.5732 19.6857 67.9581 20.2397C71.343 20.7937 73.9496 23.7378 76.9197 25.4315C77.8869 26.0805 79.0077 26.4453 80.1613 26.4867C80.8227 26.4262 81.4807 26.3311 82.1328 26.2018C83.157 26.0699 84.13 26.1016 84.8162 26.9774C84.9852 27.1938 84.9493 28.1013 84.6574 28.1013Z" fill="#EBEBEB"/>
<path d="M161.2 46.072C157.943 46.072 103.103 46.4413 99.6564 46.3305C99.4106 46.3305 99.2775 45.9454 99.5233 45.8029C101.695 44.6949 104.132 44.9218 106.416 44.1356C107.747 43.6766 108.562 42.7796 109.489 41.7508C110.253 40.8569 111.239 40.1947 112.341 39.8355C113.35 39.5205 114.423 39.4859 115.449 39.7352C116.561 40.0043 117.528 40.6639 118.588 41.0754C121.226 42.099 123.786 41.1282 125.666 39.1179C127.202 37.4665 128.738 35.8994 130.853 35.0077C131.714 34.6074 132.646 34.3942 133.59 34.3815C134.535 34.3688 135.472 34.5568 136.343 34.9339C138.355 35.873 139.738 37.7567 141.628 38.8963C143.865 40.2418 146.544 39.9252 149.017 40.3315C151.49 40.7377 153.39 42.8851 155.562 44.1198C156.269 44.5875 157.087 44.8483 157.927 44.8743C158.409 44.8743 158.885 44.7266 159.366 44.6685C160.114 44.5735 160.821 44.5946 161.323 45.2331C161.44 45.4072 161.415 46.072 161.2 46.072Z" fill="#EBEBEB"/>
<path d="M72.1726 3.31885H37.6934V170H72.1726V3.31885Z" fill="#EBEBEB"/>
<path d="M72.173 0H36.8643V3.31875H72.173V0Z" fill="#C7C7C7"/>
<path d="M44.305 8.20996H40.8125V170H44.305V8.20996Z" fill="white"/>
<path d="M50.4905 8.20996H46.998V170H50.4905V8.20996Z" fill="white"/>
<path d="M56.677 8.20996H53.1846V170H56.677V8.20996Z" fill="white"/>
<path d="M62.8675 8.20996H59.375V170H62.8675V8.20996Z" fill="white"/>
<path d="M69.054 8.20996H65.5615V170H69.054V8.20996Z" fill="white"/>
<path d="M44.305 12.4043H40.8125V18.9574H44.305V12.4043Z" fill="#EBEBEB"/>
<path d="M50.4905 12.4043H46.998V18.9574H50.4905V12.4043Z" fill="#EBEBEB"/>
<path d="M56.677 12.4043H53.1846V18.9574H56.677V12.4043Z" fill="#EBEBEB"/>
<path d="M62.8675 12.4043H59.375V18.9574H62.8675V12.4043Z" fill="#EBEBEB"/>
<path d="M69.054 12.4043H65.5615V18.9574H69.054V12.4043Z" fill="#EBEBEB"/>
<path d="M44.305 23.0518H40.8125V29.6048H44.305V23.0518Z" fill="#EBEBEB"/>
<path d="M50.4905 23.0518H46.998V29.6048H50.4905V23.0518Z" fill="#EBEBEB"/>
<path d="M56.677 23.0518H53.1846V29.6048H56.677V23.0518Z" fill="#EBEBEB"/>
<path d="M62.8675 23.0518H59.375V29.6048H62.8675V23.0518Z" fill="#EBEBEB"/>
<path d="M69.054 23.0518H65.5615V29.6048H69.054V23.0518Z" fill="#EBEBEB"/>
<path d="M44.305 33.6992H40.8125V40.2523H44.305V33.6992Z" fill="#EBEBEB"/>
<path d="M50.4905 33.6992H46.998V40.2523H50.4905V33.6992Z" fill="#EBEBEB"/>
<path d="M56.677 33.6992H53.1846V40.2523H56.677V33.6992Z" fill="#EBEBEB"/>
<path d="M62.8675 33.6992H59.375V40.2523H62.8675V33.6992Z" fill="#EBEBEB"/>
<path d="M69.054 33.6992H65.5615V40.2523H69.054V33.6992Z" fill="#EBEBEB"/>
<path d="M44.305 44.3521H40.8125V50.9051H44.305V44.3521Z" fill="#EBEBEB"/>
<path d="M50.4905 44.3521H46.998V50.9051H50.4905V44.3521Z" fill="#EBEBEB"/>
<path d="M56.677 44.3521H53.1846V50.9051H56.677V44.3521Z" fill="#EBEBEB"/>
<path d="M62.8675 44.3521H59.375V50.9051H62.8675V44.3521Z" fill="#EBEBEB"/>
<path d="M69.054 44.3521H65.5615V50.9051H69.054V44.3521Z" fill="#EBEBEB"/>
<path d="M44.305 54.9995H40.8125V61.5526H44.305V54.9995Z" fill="#EBEBEB"/>
<path d="M50.4905 54.9995H46.998V61.5526H50.4905V54.9995Z" fill="#EBEBEB"/>
<path d="M56.677 54.9995H53.1846V61.5526H56.677V54.9995Z" fill="#EBEBEB"/>
<path d="M62.8675 54.9995H59.375V61.5526H62.8675V54.9995Z" fill="#EBEBEB"/>
<path d="M69.054 54.9995H65.5615V61.5526H69.054V54.9995Z" fill="#EBEBEB"/>
<path d="M44.305 65.647H40.8125V72.2H44.305V65.647Z" fill="#EBEBEB"/>
<path d="M50.4905 65.647H46.998V72.2H50.4905V65.647Z" fill="#EBEBEB"/>
<path d="M56.677 65.647H53.1846V72.2H56.677V65.647Z" fill="#EBEBEB"/>
<path d="M62.8675 65.647H59.375V72.2H62.8675V65.647Z" fill="#EBEBEB"/>
<path d="M69.054 65.647H65.5615V72.2H69.054V65.647Z" fill="#EBEBEB"/>
<path d="M44.305 76.2944H40.8125V82.8475H44.305V76.2944Z" fill="#EBEBEB"/>
<path d="M50.4905 76.2944H46.998V82.8475H50.4905V76.2944Z" fill="#EBEBEB"/>
<path d="M56.677 76.2944H53.1846V82.8475H56.677V76.2944Z" fill="#EBEBEB"/>
<path d="M62.8675 76.2944H59.375V82.8475H62.8675V76.2944Z" fill="#EBEBEB"/>
<path d="M69.054 76.2944H65.5615V82.8475H69.054V76.2944Z" fill="#EBEBEB"/>
<path d="M44.305 86.9468H40.8125V93.4998H44.305V86.9468Z" fill="#EBEBEB"/>
<path d="M50.4905 86.9468H46.998V93.4998H50.4905V86.9468Z" fill="#EBEBEB"/>
<path d="M56.677 86.9468H53.1846V93.4998H56.677V86.9468Z" fill="#EBEBEB"/>
<path d="M62.8675 86.9468H59.375V93.4998H62.8675V86.9468Z" fill="#EBEBEB"/>
<path d="M69.054 86.9468H65.5615V93.4998H69.054V86.9468Z" fill="#EBEBEB"/>
<path d="M44.305 97.5942H40.8125V104.147H44.305V97.5942Z" fill="#EBEBEB"/>
<path d="M50.4905 97.5942H46.998V104.147H50.4905V97.5942Z" fill="#EBEBEB"/>
<path d="M56.677 97.5942H53.1846V104.147H56.677V97.5942Z" fill="#EBEBEB"/>
<path d="M62.8675 97.5942H59.375V104.147H62.8675V97.5942Z" fill="#EBEBEB"/>
<path d="M69.054 97.5942H65.5615V104.147H69.054V97.5942Z" fill="#EBEBEB"/>
<path d="M44.305 108.242H40.8125V114.795H44.305V108.242Z" fill="#EBEBEB"/>
<path d="M50.4905 108.242H46.998V114.795H50.4905V108.242Z" fill="#EBEBEB"/>
<path d="M56.677 108.242H53.1846V114.795H56.677V108.242Z" fill="#EBEBEB"/>
<path d="M62.8675 108.242H59.375V114.795H62.8675V108.242Z" fill="#EBEBEB"/>
<path d="M69.054 108.242H65.5615V114.795H69.054V108.242Z" fill="#EBEBEB"/>
<path d="M44.305 118.889H40.8125V125.442H44.305V118.889Z" fill="#EBEBEB"/>
<path d="M50.4905 118.889H46.998V125.442H50.4905V118.889Z" fill="#EBEBEB"/>
<path d="M56.677 118.889H53.1846V125.442H56.677V118.889Z" fill="#EBEBEB"/>
<path d="M62.8675 118.889H59.375V125.442H62.8675V118.889Z" fill="#EBEBEB"/>
<path d="M69.054 118.889H65.5615V125.442H69.054V118.889Z" fill="#EBEBEB"/>
<path d="M44.305 129.537H40.8125V136.09H44.305V129.537Z" fill="#EBEBEB"/>
<path d="M50.4905 129.537H46.998V136.09H50.4905V129.537Z" fill="#EBEBEB"/>
<path d="M56.677 129.537H53.1846V136.09H56.677V129.537Z" fill="#EBEBEB"/>
<path d="M62.8675 129.537H59.375V136.09H62.8675V129.537Z" fill="#EBEBEB"/>
<path d="M69.054 129.537H65.5615V136.09H69.054V129.537Z" fill="#EBEBEB"/>
<path d="M44.305 140.189H40.8125V146.743H44.305V140.189Z" fill="#EBEBEB"/>
<path d="M50.4905 140.189H46.998V146.743H50.4905V140.189Z" fill="#EBEBEB"/>
<path d="M56.677 140.189H53.1846V146.743H56.677V140.189Z" fill="#EBEBEB"/>
<path d="M62.8675 140.189H59.375V146.743H62.8675V140.189Z" fill="#EBEBEB"/>
<path d="M69.054 140.189H65.5615V146.743H69.054V140.189Z" fill="#EBEBEB"/>
<path d="M44.305 150.837H40.8125V170H44.305V150.837Z" fill="#EBEBEB"/>
<path d="M50.4905 150.837H46.998V170H50.4905V150.837Z" fill="#EBEBEB"/>
<path d="M56.677 150.837H53.1846V170H56.677V150.837Z" fill="#EBEBEB"/>
<path d="M62.8675 150.837H59.375V170H62.8675V150.837Z" fill="#EBEBEB"/>
<path d="M69.054 150.837H65.5615V170H69.054V150.837Z" fill="#EBEBEB"/>
<path d="M94.3055 3.31885H72.1729V170H94.3055V3.31885Z" fill="#DBDBDB"/>
<path d="M95.2682 0H72.1729V3.31875H95.2682V0Z" fill="#C7C7C7"/>
<path d="M78.7786 8.20996H75.2861V170H78.7786V8.20996Z" fill="#C7C7C7"/>
<path d="M84.97 8.20996H81.4775V170H84.97V8.20996Z" fill="#C7C7C7"/>
<path d="M91.1556 8.20996H87.6631V170H91.1556V8.20996Z" fill="#C7C7C7"/>
<path d="M78.7786 12.4043H75.2861V18.9574H78.7786V12.4043Z" fill="#DBDBDB"/>
<path d="M84.97 12.4043H81.4775V18.9574H84.97V12.4043Z" fill="#DBDBDB"/>
<path d="M91.1556 12.4043H87.6631V18.9574H91.1556V12.4043Z" fill="#DBDBDB"/>
<path d="M78.7786 23.0518H75.2861V29.6048H78.7786V23.0518Z" fill="#DBDBDB"/>
<path d="M84.97 23.0518H81.4775V29.6048H84.97V23.0518Z" fill="#DBDBDB"/>
<path d="M91.1556 23.0518H87.6631V29.6048H91.1556V23.0518Z" fill="#DBDBDB"/>
<path d="M78.7786 33.6992H75.2861V40.2523H78.7786V33.6992Z" fill="#DBDBDB"/>
<path d="M84.97 33.6992H81.4775V40.2523H84.97V33.6992Z" fill="#DBDBDB"/>
<path d="M91.1556 33.6992H87.6631V40.2523H91.1556V33.6992Z" fill="#DBDBDB"/>
<path d="M78.7786 44.3521H75.2861V50.9051H78.7786V44.3521Z" fill="#DBDBDB"/>
<path d="M84.97 44.3521H81.4775V50.9051H84.97V44.3521Z" fill="#DBDBDB"/>
<path d="M91.1556 44.3521H87.6631V50.9051H91.1556V44.3521Z" fill="#DBDBDB"/>
<path d="M78.7786 54.9995H75.2861V61.5526H78.7786V54.9995Z" fill="#DBDBDB"/>
<path d="M84.97 54.9995H81.4775V61.5526H84.97V54.9995Z" fill="#DBDBDB"/>
<path d="M91.1556 54.9995H87.6631V61.5526H91.1556V54.9995Z" fill="#DBDBDB"/>
<path d="M78.7786 65.647H75.2861V72.2H78.7786V65.647Z" fill="#DBDBDB"/>
<path d="M84.97 65.647H81.4775V72.2H84.97V65.647Z" fill="#DBDBDB"/>
<path d="M91.1556 65.647H87.6631V72.2H91.1556V65.647Z" fill="#DBDBDB"/>
<path d="M78.7786 76.2944H75.2861V82.8475H78.7786V76.2944Z" fill="#DBDBDB"/>
<path d="M84.97 76.2944H81.4775V82.8475H84.97V76.2944Z" fill="#DBDBDB"/>
<path d="M91.1556 76.2944H87.6631V82.8475H91.1556V76.2944Z" fill="#DBDBDB"/>
<path d="M78.7786 86.9468H75.2861V93.4998H78.7786V86.9468Z" fill="#DBDBDB"/>
<path d="M84.97 86.9468H81.4775V93.4998H84.97V86.9468Z" fill="#DBDBDB"/>
<path d="M91.1556 86.9468H87.6631V93.4998H91.1556V86.9468Z" fill="#DBDBDB"/>
<path d="M78.7786 97.5942H75.2861V104.147H78.7786V97.5942Z" fill="#DBDBDB"/>
<path d="M84.97 97.5942H81.4775V104.147H84.97V97.5942Z" fill="#DBDBDB"/>
<path d="M91.1556 97.5942H87.6631V104.147H91.1556V97.5942Z" fill="#DBDBDB"/>
<path d="M78.7786 108.242H75.2861V114.795H78.7786V108.242Z" fill="#DBDBDB"/>
<path d="M84.97 108.242H81.4775V114.795H84.97V108.242Z" fill="#DBDBDB"/>
<path d="M91.1556 108.242H87.6631V114.795H91.1556V108.242Z" fill="#DBDBDB"/>
<path d="M78.7786 118.889H75.2861V125.442H78.7786V118.889Z" fill="#DBDBDB"/>
<path d="M84.97 118.889H81.4775V125.442H84.97V118.889Z" fill="#DBDBDB"/>
<path d="M91.1556 118.889H87.6631V125.442H91.1556V118.889Z" fill="#DBDBDB"/>
<path d="M78.7786 129.537H75.2861V136.09H78.7786V129.537Z" fill="#DBDBDB"/>
<path d="M84.97 129.537H81.4775V136.09H84.97V129.537Z" fill="#DBDBDB"/>
<path d="M91.1556 129.537H87.6631V136.09H91.1556V129.537Z" fill="#DBDBDB"/>
<path d="M78.7786 140.189H75.2861V146.743H78.7786V140.189Z" fill="#DBDBDB"/>
<path d="M84.97 140.189H81.4775V146.743H84.97V140.189Z" fill="#DBDBDB"/>
<path d="M91.1556 140.189H87.6631V146.743H91.1556V140.189Z" fill="#DBDBDB"/>
<path d="M78.7786 150.837H75.2861V170H78.7786V150.837Z" fill="#DBDBDB"/>
<path d="M84.97 150.837H81.4775V170H84.97V150.837Z" fill="#DBDBDB"/>
<path d="M91.1556 150.837H87.6631V170H91.1556V150.837Z" fill="#DBDBDB"/>
<path d="M30.6778 59.2783H2.34375V170H30.6778V59.2783Z" fill="#EBEBEB"/>
<path d="M30.6779 51.939H6.37402V59.2835H30.6779V51.939Z" fill="#C7C7C7"/>
<path d="M27.5697 63.1143H5.44727V145.882H27.5697V63.1143Z" fill="#DBDBDB"/>
<path d="M27.5697 71.0127H5.44727V72.9702H27.5697V71.0127Z" fill="white"/>
<path d="M27.5697 79.1118H5.44727V81.0693H27.5697V79.1118Z" fill="white"/>
<path d="M27.5697 87.2158H5.44727V89.1733H27.5697V87.2158Z" fill="white"/>
<path d="M27.5697 95.3149H5.44727V97.2724H27.5697V95.3149Z" fill="white"/>
<path d="M27.5697 103.419H5.44727V105.377H27.5697V103.419Z" fill="white"/>
<path d="M27.5697 111.518H5.44727V113.476H27.5697V111.518Z" fill="white"/>
<path d="M27.5697 119.623H5.44727V121.58H27.5697V119.623Z" fill="white"/>
<path d="M27.5697 127.722H5.44727V129.679H27.5697V127.722Z" fill="white"/>
<path d="M27.5697 135.826H5.44727V137.783H27.5697V135.826Z" fill="white"/>
<path d="M27.5697 143.925H5.44727V145.882H27.5697V143.925Z" fill="white"/>
<path d="M48.4269 59.2783H30.6777V170H48.4269V59.2783Z" fill="#DBDBDB"/>
<path d="M45.764 51.939H30.6777V59.2835H45.764V51.939Z" fill="#A6A6A6"/>
<path d="M46.7723 63.1143H33.125V145.882H46.7723V63.1143Z" fill="#C7C7C7"/>
<path d="M46.7723 71.0127H33.125V72.9702H46.7723V71.0127Z" fill="white"/>
<path d="M46.7723 79.1118H33.125V81.0693H46.7723V79.1118Z" fill="white"/>
<path d="M46.7723 87.2158H33.125V89.1733H46.7723V87.2158Z" fill="white"/>
<path d="M46.7723 95.3149H33.125V97.2724H46.7723V95.3149Z" fill="white"/>
<path d="M46.7723 103.419H33.125V105.377H46.7723V103.419Z" fill="white"/>
<path d="M46.7723 111.518H33.125V113.476H46.7723V111.518Z" fill="white"/>
<path d="M46.7723 119.623H33.125V121.58H46.7723V119.623Z" fill="white"/>
<path d="M46.7723 127.722H33.125V129.679H46.7723V127.722Z" fill="white"/>
<path d="M46.7723 135.826H33.125V137.783H46.7723V135.826Z" fill="white"/>
<path d="M46.7723 143.925H33.125V145.882H46.7723V143.925Z" fill="white"/>
<path d="M117.523 97.1089H88.6055V170H117.523V97.1089Z" fill="#C7C7C7"/>
<path d="M98.2691 103.419H93.1533V107.883H98.2691V103.419Z" fill="#DBDBDB"/>
<path d="M98.2691 112.958H93.1533V117.422H98.2691V112.958Z" fill="#DBDBDB"/>
<path d="M98.2691 122.498H93.1533V126.962H98.2691V122.498Z" fill="#DBDBDB"/>
<path d="M98.2691 132.032H93.1533V136.496H98.2691V132.032Z" fill="#DBDBDB"/>
<path d="M98.2691 141.572H93.1533V146.035H98.2691V141.572Z" fill="#DBDBDB"/>
<path d="M98.2691 151.111H93.1533V155.575H98.2691V151.111Z" fill="#DBDBDB"/>
<path d="M98.2691 160.65H93.1533V165.114H98.2691V160.65Z" fill="#DBDBDB"/>
<path d="M105.628 103.419H100.512V107.883H105.628V103.419Z" fill="#DBDBDB"/>
<path d="M105.628 112.958H100.512V117.422H105.628V112.958Z" fill="#DBDBDB"/>
<path d="M105.628 122.498H100.512V126.962H105.628V122.498Z" fill="#DBDBDB"/>
<path d="M105.628 132.032H100.512V136.496H105.628V132.032Z" fill="#DBDBDB"/>
<path d="M105.628 141.572H100.512V146.035H105.628V141.572Z" fill="#DBDBDB"/>
<path d="M105.628 151.111H100.512V155.575H105.628V151.111Z" fill="#DBDBDB"/>
<path d="M105.628 160.65H100.512V165.114H105.628V160.65Z" fill="#DBDBDB"/>
<path d="M112.971 103.419H107.855V107.883H112.971V103.419Z" fill="#DBDBDB"/>
<path d="M112.971 112.958H107.855V117.422H112.971V112.958Z" fill="#DBDBDB"/>
<path d="M112.971 122.498H107.855V126.962H112.971V122.498Z" fill="#DBDBDB"/>
<path d="M112.971 132.032H107.855V136.496H112.971V132.032Z" fill="#DBDBDB"/>
<path d="M112.971 141.572H107.855V146.035H112.971V141.572Z" fill="#DBDBDB"/>
<path d="M112.971 151.111H107.855V155.575H112.971V151.111Z" fill="#DBDBDB"/>
<path d="M112.971 160.65H107.855V165.114H112.971V160.65Z" fill="#DBDBDB"/>
<path d="M117.518 89.5166H98.2686V97.1091H117.518V89.5166Z" fill="#DBDBDB"/>
<path d="M117.519 84.8154H105.315V89.5165H117.519V84.8154Z" fill="#EBEBEB"/>
<path d="M137.808 97.1089H117.519V170H137.808V97.1089Z" fill="#A6A6A6"/>
<path d="M131.565 164.402H135.729V159.938H131.565V164.402Z" fill="#C7C7C7"/>
<path d="M131.565 154.868H135.729V150.404H131.565V154.868Z" fill="#C7C7C7"/>
<path d="M131.565 145.328H135.729V140.864H131.565V145.328Z" fill="#C7C7C7"/>
<path d="M131.565 135.789H135.729V131.325H131.565V135.789Z" fill="#C7C7C7"/>
<path d="M131.565 126.25H135.729V121.786H131.565V126.25Z" fill="#C7C7C7"/>
<path d="M131.565 116.71H135.729V112.246H131.565V116.71Z" fill="#C7C7C7"/>
<path d="M131.565 107.176H135.729V102.712H131.565V107.176Z" fill="#C7C7C7"/>
<path d="M125.574 164.402H129.737V159.938H125.574V164.402Z" fill="#C7C7C7"/>
<path d="M125.574 154.868H129.737V150.404H125.574V154.868Z" fill="#C7C7C7"/>
<path d="M125.574 145.328H129.737V140.864H125.574V145.328Z" fill="#C7C7C7"/>
<path d="M125.574 135.789H129.737V131.325H125.574V135.789Z" fill="#C7C7C7"/>
<path d="M125.574 126.25H129.737V121.786H125.574V126.25Z" fill="#C7C7C7"/>
<path d="M125.574 116.71H129.737V112.246H125.574V116.71Z" fill="#C7C7C7"/>
<path d="M125.574 107.176H129.737V102.712H125.574V107.176Z" fill="#C7C7C7"/>
<path d="M119.597 164.402H123.761V159.938H119.597V164.402Z" fill="#C7C7C7"/>
<path d="M119.597 154.868H123.761V150.404H119.597V154.868Z" fill="#C7C7C7"/>
<path d="M119.597 145.328H123.761V140.864H119.597V145.328Z" fill="#C7C7C7"/>
<path d="M119.597 135.789H123.761V131.325H119.597V135.789Z" fill="#C7C7C7"/>
<path d="M119.597 126.25H123.761V121.786H119.597V126.25Z" fill="#C7C7C7"/>
<path d="M119.597 116.71H123.761V112.246H119.597V116.71Z" fill="#C7C7C7"/>
<path d="M119.597 107.176H123.761V102.712H119.597V107.176Z" fill="#C7C7C7"/>
<path d="M134.735 89.5166H117.519V97.1091H134.735V89.5166Z" fill="#C7C7C7"/>
<path d="M126.849 84.8154H117.519V89.5165H126.849V84.8154Z" fill="#DBDBDB"/>
<path d="M14.1989 146.225C14.1989 146.225 20.4413 160.508 10.2506 160.524C0.0600066 160.54 6.666 145.751 6.666 145.751C6.666 145.751 4.30525 144.695 7.02958 136.707C9.75391 128.719 10.9829 128.729 12.1198 128.729C13.5536 128.729 14.8953 132.18 13.9223 137.477C13.9121 137.477 17.5019 144.083 14.1989 146.225Z" fill="#37474F"/>
<path d="M9.35938 170L10.3221 148.473L11.3258 170H9.35938Z" fill="#263238"/>
<path d="M9.92773 157.496L13.6302 153.037L10.7266 158.086L9.92773 157.496Z" fill="#263238"/>
<path d="M138.923 147.761C138.923 147.761 136.02 146.579 133.715 150.715C131.355 154.936 134.325 157.748 136.675 156.081C136.675 156.081 138.524 160.07 142.211 159.115C145.898 158.16 146.497 155.121 146.497 155.121C146.497 155.121 149.775 155.353 149.862 152.836C149.949 150.32 147.552 148.088 147.552 148.088C147.552 148.088 147.409 141.814 143.455 141.867C139.502 141.92 138.923 147.761 138.923 147.761Z" fill="#455A64"/>
<path d="M141.648 169.99L142.458 151.322L143.308 169.99H141.648Z" fill="#263238"/>
<path d="M142.221 158.339L139.666 153.105L142.636 157.522L142.221 158.339Z" fill="#263238"/>
<path d="M90.0904 147.761C90.0904 147.761 87.1818 146.579 84.8773 150.715C82.5217 154.936 85.4867 157.748 87.8372 156.081C87.8372 156.081 89.6859 160.07 93.3781 159.115C97.0703 158.16 97.6643 155.121 97.6643 155.121C97.6643 155.121 100.937 155.353 101.029 152.836C101.121 150.32 98.7141 148.088 98.7141 148.088C98.7141 148.088 98.5707 141.814 94.6173 141.867C90.664 141.92 90.0904 147.761 90.0904 147.761Z" fill="#455A64"/>
<path d="M92.8096 169.99L93.6238 151.322L94.4739 169.99H92.8096Z" fill="#263238"/>
<path d="M93.3832 158.339L90.833 153.105L93.798 157.522L93.3832 158.339Z" fill="#263238"/>
<path d="M124.908 149.164C124.908 149.164 119.47 161.69 128.396 161.679C137.321 161.669 131.525 148.732 131.525 148.732C131.525 148.732 133.573 147.792 131.181 140.817C128.79 133.842 127.709 133.837 126.711 133.842C125.456 133.842 124.289 136.865 125.175 141.503C125.149 141.498 122.015 147.296 124.908 149.164Z" fill="#37474F"/>
<path d="M129.194 169.979L128.313 151.122L127.474 169.979H129.194Z" fill="#263238"/>
<path d="M128.671 159.031L125.425 155.126L127.975 159.548L128.671 159.031Z" fill="#263238"/>
<path d="M114.461 24.1177C114.105 23.8447 113.73 23.5979 113.34 23.3791C112.941 23.1454 112.514 22.968 112.07 22.8515C111.931 22.8262 111.789 22.8262 111.65 22.8515C111.604 22.8622 111.56 22.8763 111.517 22.8937L111.424 22.9411C111.37 22.9697 111.317 23.0014 111.266 23.0361C111.072 23.164 110.886 23.3031 110.708 23.4529C110.354 23.7484 110.032 24.0597 109.709 24.3816L110.052 24.3182C109.631 24.116 109.198 23.9398 108.756 23.7906C108.531 23.7273 108.301 23.664 108.06 23.6218C107.935 23.5985 107.808 23.5862 107.681 23.5848C107.611 23.5799 107.541 23.5799 107.471 23.5848C107.398 23.6004 107.326 23.6215 107.256 23.6482C107.029 23.7604 106.82 23.9081 106.636 24.0861C106.465 24.2525 106.302 24.4287 106.15 24.6137C105.846 24.9679 105.569 25.3453 105.32 25.7428C105.669 25.4368 106.007 25.1255 106.344 24.8353C106.519 24.6929 106.698 24.5504 106.857 24.429C107.014 24.3066 107.186 24.2055 107.369 24.1283C107.548 24.1005 107.732 24.1131 107.906 24.1652C108.115 24.2182 108.32 24.2834 108.521 24.3605C108.931 24.5135 109.345 24.6929 109.74 24.8881L109.939 24.9778L110.088 24.8248C110.385 24.5082 110.708 24.1969 111.025 23.9014C111.178 23.7552 111.339 23.6178 111.506 23.4899C111.547 23.4899 111.588 23.4266 111.629 23.4055L111.68 23.3738C111.68 23.3738 111.68 23.3738 111.706 23.3738C111.784 23.3594 111.864 23.3594 111.942 23.3738C112.359 23.4469 112.769 23.5599 113.166 23.7115C113.632 23.8012 114.057 23.9647 114.461 24.1177Z" fill="#263238"/>
<path d="M129.168 22.2763C128.791 21.7096 128.377 21.1702 127.929 20.6618C127.48 20.1249 126.964 19.6528 126.393 19.2583C126.216 19.1418 126.02 19.0595 125.814 19.0156C125.744 19.0047 125.674 19.0047 125.604 19.0156C125.553 19.0125 125.502 19.0125 125.45 19.0156L125.179 19.0736C124.842 19.155 124.51 19.2572 124.186 19.3796C123.551 19.6171 122.946 19.9073 122.332 20.1922L122.844 20.2766C122.344 19.7758 121.812 19.3104 121.251 18.8837C120.964 18.6654 120.663 18.4679 120.35 18.2927C120.185 18.1988 120.014 18.116 119.838 18.0448C119.737 18.0116 119.635 17.9851 119.531 17.9656C119.418 17.9574 119.305 17.9574 119.193 17.9656C118.821 18.0092 118.458 18.1124 118.117 18.2716C117.789 18.4141 117.482 18.5777 117.175 18.7465C116.578 19.0962 116.007 19.4931 115.47 19.9337C116.105 19.6698 116.735 19.406 117.364 19.1739C117.674 19.051 117.99 18.9471 118.312 18.8626C118.603 18.7667 118.907 18.7152 119.213 18.7096C119.48 18.7567 119.732 18.8669 119.951 19.0314C120.222 19.2089 120.482 19.4045 120.729 19.6171C121.241 20.0392 121.753 20.5035 122.209 20.9678L122.444 21.1999L122.731 21.0522C123.305 20.7567 123.904 20.4824 124.493 20.2238C124.78 20.0937 125.074 19.9809 125.374 19.8862C125.442 19.8626 125.513 19.8432 125.584 19.8281H125.676H125.712C125.831 19.8455 125.947 19.883 126.055 19.9389C126.611 20.2413 127.137 20.5982 127.627 21.0047C128.144 21.4057 128.646 21.8436 129.168 22.2763Z" fill="#263238"/>
</g>
</svg>
