<svg width="125" height="200" viewBox="0 0 125 200" fill="none" xmlns="http://www.w3.org/2000/svg">
<path d="M124.743 23.5218C120.399 23.5218 47.2525 23.9994 42.6556 23.8561C42.3278 23.8561 42.1502 23.3581 42.478 23.1739C45.3741 21.7413 48.6596 22.0278 51.6717 21.0182C53.4476 20.4178 54.5337 19.2649 55.77 17.9346C56.7879 16.7776 58.1037 15.9212 59.5745 15.4583C60.9209 15.051 62.3512 15.0063 63.7205 15.3287C65.2027 15.6766 66.4937 16.5293 67.9076 17.0614C71.4184 18.3849 74.8335 17.1297 77.3471 14.5305C79.3962 12.3884 81.4454 10.3691 84.2595 9.21616C85.409 8.69882 86.6526 8.4228 87.9133 8.4052C89.174 8.38759 90.4249 8.62879 91.5885 9.11383C94.2728 10.3281 96.1102 12.7704 98.6306 14.244C101.622 15.9836 105.195 15.6084 108.494 16.0995C111.793 16.5907 114.327 19.4014 117.216 20.9977C118.16 21.6015 119.251 21.9386 120.372 21.9733C121.018 21.9162 121.661 21.8251 122.298 21.7004C123.288 21.5776 124.238 21.6117 124.907 22.4372C125.064 22.6623 125.03 23.5218 124.743 23.5218Z" fill="#EBEBEB"/>
<path d="M38.2023 0H0V200H38.2023V0Z" fill="#DBDBDB"/>
<path d="M13.3534 6.49463H5.92871V14.1284H13.3534V6.49463Z" fill="#EBEBEB"/>
<path d="M22.8543 6.49463H15.4297V14.1284H22.8543V6.49463Z" fill="#EBEBEB"/>
<path d="M13.3534 19.4629H5.92871V27.0967H13.3534V19.4629Z" fill="#EBEBEB"/>
<path d="M22.8543 19.4629H15.4297V27.0967H22.8543V19.4629Z" fill="#EBEBEB"/>
<path d="M13.3534 32.4248H5.92871V40.0586H13.3534V32.4248Z" fill="#EBEBEB"/>
<path d="M22.8543 32.4248H15.4297V40.0586H22.8543V32.4248Z" fill="#EBEBEB"/>
<path d="M13.3534 45.3936H5.92871V53.0274H13.3534V45.3936Z" fill="#EBEBEB"/>
<path d="M22.8543 45.3936H15.4297V53.0274H22.8543V45.3936Z" fill="#EBEBEB"/>
<path d="M13.3534 58.355H5.92871V65.9888H13.3534V58.355Z" fill="#EBEBEB"/>
<path d="M22.8543 58.355H15.4297V65.9888H22.8543V58.355Z" fill="#EBEBEB"/>
<path d="M13.3534 71.3237H5.92871V78.9575H13.3534V71.3237Z" fill="#EBEBEB"/>
<path d="M22.8543 71.3237H15.4297V78.9575H22.8543V71.3237Z" fill="#EBEBEB"/>
<path d="M13.3534 84.2856H5.92871V91.9194H13.3534V84.2856Z" fill="#EBEBEB"/>
<path d="M22.8543 84.2856H15.4297V91.9194H22.8543V84.2856Z" fill="#EBEBEB"/>
<path d="M13.3534 97.2539H5.92871V104.888H13.3534V97.2539Z" fill="#EBEBEB"/>
<path d="M22.8543 97.2539H15.4297V104.888H22.8543V97.2539Z" fill="#EBEBEB"/>
<path d="M13.3534 110.216H5.92871V117.85H13.3534V110.216Z" fill="#EBEBEB"/>
<path d="M22.8543 110.216H15.4297V117.85H22.8543V110.216Z" fill="#EBEBEB"/>
<path d="M13.3534 123.185H5.92871V130.818H13.3534V123.185Z" fill="#EBEBEB"/>
<path d="M22.8543 123.185H15.4297V130.818H22.8543V123.185Z" fill="#EBEBEB"/>
<path d="M13.3534 136.146H5.92871V143.78H13.3534V136.146Z" fill="#EBEBEB"/>
<path d="M22.8543 136.146H15.4297V143.78H22.8543V136.146Z" fill="#EBEBEB"/>
<path d="M13.3534 149.115H5.92871V156.749H13.3534V149.115Z" fill="#EBEBEB"/>
<path d="M22.8543 149.115H15.4297V156.749H22.8543V149.115Z" fill="#EBEBEB"/>
<path d="M13.3534 162.077H5.92871V169.71H13.3534V162.077Z" fill="#EBEBEB"/>
<path d="M22.8543 162.077H15.4297V169.71H22.8543V162.077Z" fill="#EBEBEB"/>
<path d="M13.3534 175.045H5.92871V182.679H13.3534V175.045Z" fill="#EBEBEB"/>
<path d="M24.8488 182.679H32.2734V175.045H24.8488V182.679Z" fill="#EBEBEB"/>
<path d="M24.8488 169.717H32.2734V162.083H24.8488V169.717Z" fill="#EBEBEB"/>
<path d="M24.8488 156.749H32.2734V149.115H24.8488V156.749Z" fill="#EBEBEB"/>
<path d="M24.8488 143.787H32.2734V136.153H24.8488V143.787Z" fill="#EBEBEB"/>
<path d="M24.8488 130.818H32.2734V123.185H24.8488V130.818Z" fill="#EBEBEB"/>
<path d="M24.8488 117.856H32.2734V110.223H24.8488V117.856Z" fill="#EBEBEB"/>
<path d="M24.8488 104.888H32.2734V97.2539H24.8488V104.888Z" fill="#EBEBEB"/>
<path d="M24.8488 91.9263H32.2734V84.2925H24.8488V91.9263Z" fill="#EBEBEB"/>
<path d="M24.8488 78.9575H32.2734V71.3237H24.8488V78.9575Z" fill="#EBEBEB"/>
<path d="M24.8488 65.9961H32.2734V58.3623H24.8488V65.9961Z" fill="#EBEBEB"/>
<path d="M24.8488 53.0273H32.2734V45.3935H24.8488V53.0273Z" fill="#EBEBEB"/>
<path d="M24.8488 40.0654H32.2734V32.4316H24.8488V40.0654Z" fill="#EBEBEB"/>
<path d="M24.8488 27.0972H32.2734V19.4634H24.8488V27.0972Z" fill="#EBEBEB"/>
<path d="M24.8488 14.1353L32.2734 14.1353V6.50146L24.8488 6.50146V14.1353Z" fill="#EBEBEB"/>
<path d="M22.8543 175.045H15.4297V182.679H22.8543V175.045Z" fill="#EBEBEB"/>
<path d="M68.3241 0H38.2021V200H68.3241V0Z" fill="#A6A6A6"/>
<path d="M59.0899 182.679H65.2236V175.045H59.0899V182.679Z" fill="#C7C7C7"/>
<path d="M51.2413 182.679H57.375V175.045H51.2413V182.679Z" fill="#C7C7C7"/>
<path d="M59.0899 169.717H65.2236V162.083H59.0899V169.717Z" fill="#C7C7C7"/>
<path d="M51.2413 169.717H57.375V162.083H51.2413V169.717Z" fill="#C7C7C7"/>
<path d="M59.0899 156.749H65.2236V149.115H59.0899V156.749Z" fill="#C7C7C7"/>
<path d="M51.2413 156.749H57.375V149.115H51.2413V156.749Z" fill="#C7C7C7"/>
<path d="M59.0899 143.787H65.2236V136.153H59.0899V143.787Z" fill="#C7C7C7"/>
<path d="M51.2413 143.787H57.375V136.153H51.2413V143.787Z" fill="#C7C7C7"/>
<path d="M59.0899 130.818H65.2236V123.185H59.0899V130.818Z" fill="#C7C7C7"/>
<path d="M51.2413 130.818H57.375V123.185H51.2413V130.818Z" fill="#C7C7C7"/>
<path d="M59.0899 117.856H65.2236V110.223H59.0899V117.856Z" fill="#C7C7C7"/>
<path d="M51.2413 117.856H57.375V110.223H51.2413V117.856Z" fill="#C7C7C7"/>
<path d="M59.0899 104.888H65.2236V97.2539H59.0899V104.888Z" fill="#C7C7C7"/>
<path d="M51.2413 104.888H57.375V97.2539H51.2413V104.888Z" fill="#C7C7C7"/>
<path d="M59.0899 91.9263H65.2236V84.2925H59.0899V91.9263Z" fill="#C7C7C7"/>
<path d="M51.2413 91.9263H57.375V84.2925H51.2413V91.9263Z" fill="#C7C7C7"/>
<path d="M59.0899 78.9575H65.2236V71.3237H59.0899V78.9575Z" fill="#C7C7C7"/>
<path d="M51.2413 78.9575H57.375V71.3237H51.2413V78.9575Z" fill="#C7C7C7"/>
<path d="M59.0899 65.9961H65.2236V58.3623H59.0899V65.9961Z" fill="#C7C7C7"/>
<path d="M51.2413 65.9961H57.375V58.3623H51.2413V65.9961Z" fill="#C7C7C7"/>
<path d="M59.0899 53.0273H65.2236V45.3935H59.0899V53.0273Z" fill="#C7C7C7"/>
<path d="M51.2413 53.0273H57.375V45.3935H51.2413V53.0273Z" fill="#C7C7C7"/>
<path d="M59.0899 40.0654H65.2236V32.4316H59.0899V40.0654Z" fill="#C7C7C7"/>
<path d="M51.2413 40.0654H57.375V32.4316H51.2413V40.0654Z" fill="#C7C7C7"/>
<path d="M59.0899 27.0972H65.2236V19.4634H59.0899V27.0972Z" fill="#C7C7C7"/>
<path d="M51.2413 27.0972H57.375V19.4634H51.2413V27.0972Z" fill="#C7C7C7"/>
<path d="M59.0899 14.1353H65.2236V6.50146L59.0899 6.50146V14.1353Z" fill="#C7C7C7"/>
<path d="M49.5956 6.49463H43.4619V14.1284H49.5956V6.49463Z" fill="#C7C7C7"/>
<path d="M49.5956 19.4629H43.4619V27.0967H49.5956V19.4629Z" fill="#C7C7C7"/>
<path d="M49.5956 32.4248H43.4619V40.0586H49.5956V32.4248Z" fill="#C7C7C7"/>
<path d="M49.5956 45.3936H43.4619V53.0274H49.5956V45.3936Z" fill="#C7C7C7"/>
<path d="M49.5956 58.355H43.4619V65.9888H49.5956V58.355Z" fill="#C7C7C7"/>
<path d="M49.5956 71.3237H43.4619V78.9575H49.5956V71.3237Z" fill="#C7C7C7"/>
<path d="M49.5956 84.2856H43.4619V91.9194H49.5956V84.2856Z" fill="#C7C7C7"/>
<path d="M49.5956 97.2539H43.4619V104.888H49.5956V97.2539Z" fill="#C7C7C7"/>
<path d="M49.5956 110.216H43.4619V117.85H49.5956V110.216Z" fill="#C7C7C7"/>
<path d="M49.5956 123.185H43.4619V130.818H49.5956V123.185Z" fill="#C7C7C7"/>
<path d="M49.5956 136.146H43.4619V143.78H49.5956V136.146Z" fill="#C7C7C7"/>
<path d="M49.5956 149.115H43.4619V156.749H49.5956V149.115Z" fill="#C7C7C7"/>
<path d="M49.5956 162.077H43.4619V169.71H49.5956V162.077Z" fill="#C7C7C7"/>
<path d="M49.5956 175.045H43.4619V182.679H49.5956V175.045Z" fill="#C7C7C7"/>
<path d="M51.2413 14.1353H57.375V6.50146L51.2413 6.50146V14.1353Z" fill="#C7C7C7"/>
<path d="M90.7072 59.2559H70.5234V83.0714H90.7072V59.2559Z" fill="#DBDBDB"/>
<path d="M103.507 59.2559H90.707V83.9446H103.507V59.2559Z" fill="#C7C7C7"/>
<path d="M104.362 69.7754H91.6572V83.9446H104.362V69.7754Z" fill="#DBDBDB"/>
<path d="M112.285 69.7754H104.361V83.9446H112.285V69.7754Z" fill="#C7C7C7"/>
<path d="M95.4207 81.5225H62.7783V200H95.4207V81.5225Z" fill="#EBEBEB"/>
<path d="M76.7807 86.6187H66.5146V90.8073H76.7807V86.6187Z" fill="white"/>
<path d="M89.9086 86.6187H79.6426V90.8073H89.9086V86.6187Z" fill="white"/>
<path d="M76.7807 93.7271H66.5146V97.9157H76.7807V93.7271Z" fill="white"/>
<path d="M89.9086 93.7271H79.6426V97.9157H89.9086V93.7271Z" fill="white"/>
<path d="M76.7807 100.835H66.5146V105.024H76.7807V100.835Z" fill="white"/>
<path d="M89.9086 100.835H79.6426V105.024H89.9086V100.835Z" fill="white"/>
<path d="M76.7807 107.951H66.5146V112.14H76.7807V107.951Z" fill="white"/>
<path d="M89.9086 107.951H79.6426V112.14H89.9086V107.951Z" fill="white"/>
<path d="M76.7807 115.06H66.5146V119.248H76.7807V115.06Z" fill="white"/>
<path d="M89.9086 115.06H79.6426V119.248H89.9086V115.06Z" fill="white"/>
<path d="M76.7807 122.175H66.5146V126.364H76.7807V122.175Z" fill="white"/>
<path d="M89.9086 122.175H79.6426V126.364H89.9086V122.175Z" fill="white"/>
<path d="M76.7807 129.283H66.5146V133.472H76.7807V129.283Z" fill="white"/>
<path d="M89.9086 129.283H79.6426V133.472H89.9086V129.283Z" fill="white"/>
<path d="M76.7807 136.399H66.5146V140.588H76.7807V136.399Z" fill="white"/>
<path d="M89.9086 136.399H79.6426V140.588H89.9086V136.399Z" fill="white"/>
<path d="M76.7807 143.507H66.5146V147.696H76.7807V143.507Z" fill="white"/>
<path d="M89.9086 143.507H79.6426V147.696H89.9086V143.507Z" fill="white"/>
<path d="M76.7807 150.616H66.5146V154.804H76.7807V150.616Z" fill="white"/>
<path d="M89.9086 150.616H79.6426V154.804H89.9086V150.616Z" fill="white"/>
<path d="M76.7807 157.731H66.5146V161.92H76.7807V157.731Z" fill="white"/>
<path d="M89.9086 157.731H79.6426V161.92H89.9086V157.731Z" fill="white"/>
<path d="M76.7807 164.839H66.5146V169.028H76.7807V164.839Z" fill="white"/>
<path d="M89.9086 164.839H79.6426V169.028H89.9086V164.839Z" fill="white"/>
<path d="M76.7807 171.955H66.5146V176.144H76.7807V171.955Z" fill="white"/>
<path d="M89.9086 171.955H79.6426V176.144H89.9086V171.955Z" fill="white"/>
<path d="M76.7807 179.063H66.5146V183.252H76.7807V179.063Z" fill="white"/>
<path d="M89.9086 179.063H79.6426V183.252H89.9086V179.063Z" fill="white"/>
<path d="M121.867 81.5225H95.4199V200H121.867V81.5225Z" fill="#C7C7C7"/>
<path d="M110.789 183.252H119.218V179.063H110.789V183.252Z" fill="#EBEBEB"/>
<path d="M100.004 183.252H108.433V179.063H100.004V183.252Z" fill="#EBEBEB"/>
<path d="M110.789 176.137H119.218V171.948H110.789V176.137Z" fill="#EBEBEB"/>
<path d="M100.004 176.137H108.433V171.948H100.004V176.137Z" fill="#EBEBEB"/>
<path d="M110.789 169.028H119.218V164.84H110.789V169.028Z" fill="#EBEBEB"/>
<path d="M100.004 169.028H108.433V164.84H100.004V169.028Z" fill="#EBEBEB"/>
<path d="M110.789 161.919H119.218V157.731H110.789V161.919Z" fill="#EBEBEB"/>
<path d="M100.004 161.919H108.433V157.731H100.004V161.919Z" fill="#EBEBEB"/>
<path d="M110.789 154.811H119.218V150.622H110.789V154.811Z" fill="#EBEBEB"/>
<path d="M100.004 154.811H108.433V150.622H100.004V154.811Z" fill="#EBEBEB"/>
<path d="M110.789 147.696H119.218V143.507H110.789V147.696Z" fill="#EBEBEB"/>
<path d="M100.004 147.696H108.433V143.507H100.004V147.696Z" fill="#EBEBEB"/>
<path d="M110.789 140.581H119.218V136.392H110.789V140.581Z" fill="#EBEBEB"/>
<path d="M100.004 140.581H108.433V136.392H100.004V140.581Z" fill="#EBEBEB"/>
<path d="M110.789 133.472H119.218V129.283H110.789V133.472Z" fill="#EBEBEB"/>
<path d="M100.004 133.472H108.433V129.283H100.004V133.472Z" fill="#EBEBEB"/>
<path d="M110.789 126.357H119.218V122.168H110.789V126.357Z" fill="#EBEBEB"/>
<path d="M100.004 126.357H108.433V122.168H100.004V126.357Z" fill="#EBEBEB"/>
<path d="M110.789 119.255H119.218V115.066H110.789V119.255Z" fill="#EBEBEB"/>
<path d="M100.004 119.255H108.433V115.066H100.004V119.255Z" fill="#EBEBEB"/>
<path d="M110.789 112.14H119.218V107.951H110.789V112.14Z" fill="#EBEBEB"/>
<path d="M100.004 112.14H108.433V107.951H100.004V112.14Z" fill="#EBEBEB"/>
<path d="M110.789 105.031H119.218V100.843H110.789V105.031Z" fill="#EBEBEB"/>
<path d="M100.004 105.031H108.433V100.843H100.004V105.031Z" fill="#EBEBEB"/>
<path d="M110.789 97.9155H119.218V93.7268H110.789V97.9155Z" fill="#EBEBEB"/>
<path d="M100.004 97.9155H108.433V93.7268H100.004V97.9155Z" fill="#EBEBEB"/>
<path d="M110.789 90.8008H119.218V86.6121H110.789V90.8008Z" fill="#EBEBEB"/>
<path d="M100.004 90.8008H108.433V86.6121H100.004V90.8008Z" fill="#EBEBEB"/>
<path d="M116.39 169.137C116.39 169.137 124.716 187.604 111.124 187.618C97.5313 187.632 106.342 168.517 106.342 168.517C106.342 168.517 103.194 167.152 106.834 156.824C110.475 146.495 112.08 146.522 113.569 146.522C115.488 146.522 117.271 150.977 115.973 157.833C116.001 157.826 120.796 166.368 116.39 169.137Z" fill="#37474F"/>
<path d="M109.935 199.877L111.212 172.037L112.551 199.87L109.935 199.877Z" fill="#263238"/>
<path d="M110.693 183.709L115.625 177.944L111.759 184.473L110.693 183.709Z" fill="#263238"/>
<path d="M64.2053 169.137C64.2053 169.137 72.5316 187.604 58.9392 187.618C45.3467 187.632 54.1579 168.517 54.1579 168.517C54.1579 168.517 51.0091 167.152 54.6497 156.824C58.2903 146.495 59.9022 146.522 61.4117 146.522C63.3311 146.522 65.1206 150.977 63.816 157.833C63.816 157.826 68.6109 166.368 64.2053 169.137Z" fill="#37474F"/>
<path d="M57.751 199.877L59.0283 172.037L60.3738 199.87L57.751 199.877Z" fill="#263238"/>
<path d="M58.5088 183.709L63.4403 177.944L59.5743 184.473L58.5088 183.709Z" fill="#263238"/>
<path d="M71.6646 171.15C71.6646 171.15 67.7849 169.615 64.7112 174.963C61.5624 180.455 65.524 184.057 68.6592 181.908C68.6592 181.908 71.125 187.066 76.0497 185.831C80.9744 184.596 81.7598 180.66 81.7598 180.66C81.7598 180.66 86.1313 180.967 86.2474 177.706C86.3635 174.445 83.1669 171.566 83.1669 171.566C83.1669 171.566 82.9756 163.455 77.7026 163.523C72.4295 163.591 71.6646 171.15 71.6646 171.15Z" fill="#455A64"/>
<path d="M75.291 199.891L76.3702 175.754L77.5041 199.884L75.291 199.891Z" fill="#263238"/>
<path d="M76.0421 184.794L72.6475 178.054L76.7115 183.757L76.0421 184.794Z" fill="#263238"/>
</svg>
