<svg width="363" height="130" viewBox="0 0 363 130" fill="none" xmlns="http://www.w3.org/2000/svg">
<circle cx="177" cy="65" r="65" fill="#1F3366"/>
<path d="M143.949 31.1355C143.949 32.318 144.857 33.2714 145.984 33.2714H148.285C149.266 33.2714 150.063 32.4372 150.063 31.4105C150.063 30.2922 149.578 29.898 148.853 29.6414L145.159 28.358C144.435 28.1014 143.949 27.7072 143.949 26.5889C143.949 25.5622 144.747 24.728 145.728 24.728H148.028C149.156 24.728 150.063 25.6814 150.063 26.8639" stroke="white" stroke-width="1.5" stroke-linecap="round" stroke-linejoin="round"/>
<path d="M147 23.5V34.5" stroke="white" stroke-width="1.5" stroke-linecap="round" stroke-linejoin="round"/>
<path d="M147 38.1668C152.062 38.1668 156.166 34.0628 156.166 29.0002C156.166 23.9376 152.062 19.8335 147 19.8335C141.937 19.8335 137.833 23.9376 137.833 29.0002C137.833 34.0628 141.937 38.1668 147 38.1668Z" stroke="white" stroke-width="1.5" stroke-linecap="round" stroke-linejoin="round"/>
<path d="M210.227 40.9417C210.227 42.0167 211.052 42.8834 212.077 42.8834H214.168C215.06 42.8834 215.785 42.125 215.785 41.1917C215.785 40.175 215.343 39.8167 214.685 39.5834L211.327 38.4167C210.668 38.1834 210.227 37.825 210.227 36.8084C210.227 35.875 210.952 35.1167 211.843 35.1167H213.935C214.96 35.1167 215.785 35.9834 215.785 37.0584" stroke="white" stroke-width="1.5" stroke-linecap="round" stroke-linejoin="round"/>
<path d="M213 34V44" stroke="white" stroke-width="1.5" stroke-linecap="round" stroke-linejoin="round"/>
<path d="M213 47.3332C217.603 47.3332 221.334 43.6022 221.334 38.9998C221.334 34.3975 217.603 30.6665 213 30.6665C208.398 30.6665 204.667 34.3975 204.667 38.9998C204.667 43.6022 208.398 47.3332 213 47.3332Z" stroke="white" stroke-width="1.5" stroke-linecap="round" stroke-linejoin="round"/>
<path d="M172.333 88.3332H181.667C193.333 88.3332 198 83.6665 198 71.9998V57.9998C198 46.3332 193.333 41.6665 181.667 41.6665H172.333C160.667 41.6665 156 46.3332 156 57.9998V71.9998C156 83.6665 160.667 88.3332 172.333 88.3332Z" stroke="white" stroke-width="2.5" stroke-linecap="round" stroke-linejoin="round"/>
<path d="M187.5 54.6865V57.0199C187.5 58.9332 185.937 60.5199 184 60.5199H170C168.087 60.5199 166.5 58.9565 166.5 57.0199V54.6865C166.5 52.7732 168.063 51.1865 170 51.1865H184C185.937 51.1865 187.5 52.7499 187.5 54.6865Z" stroke="white" stroke-width="2.5" stroke-linecap="round" stroke-linejoin="round"/>
<path d="M167.984 69.6667H168.011" stroke="white" stroke-width="3" stroke-linecap="round" stroke-linejoin="round"/>
<path d="M176.989 69.6667H177.016" stroke="white" stroke-width="3" stroke-linecap="round" stroke-linejoin="round"/>
<path d="M185.993 69.6667H186.02" stroke="white" stroke-width="3" stroke-linecap="round" stroke-linejoin="round"/>
<path d="M167.984 77.8332H168.011" stroke="white" stroke-width="3" stroke-linecap="round" stroke-linejoin="round"/>
<path d="M176.989 77.8332H177.016" stroke="white" stroke-width="3" stroke-linecap="round" stroke-linejoin="round"/>
<path d="M185.993 77.8332H186.02" stroke="white" stroke-width="3" stroke-linecap="round" stroke-linejoin="round"/>
<path d="M329.516 64.7055L329.339 64.094C329.339 64.094 331.602 61.666 332.252 61.368C332.902 61.0699 336.877 61.8176 337.1 62.1696C337.324 62.5216 337.232 64.0529 337.178 64.3227C337.124 64.5925 333.581 65.1988 332.984 65.2245C332.388 65.2502 329.516 64.7055 329.516 64.7055Z" fill="#FFC727"/>
<path d="M329.338 64.0942L329.516 64.7057C329.516 64.7057 328.01 65.844 327.953 65.9108C327.897 65.9776 327.989 66.3013 327.989 66.3013H326.463V64.0942C326.69 64.2218 326.929 64.3243 327.178 64.4C327.396 64.4385 329.338 64.0942 329.338 64.0942Z" fill="#FFC727"/>
<g opacity="0.1">
<path d="M329.516 64.7055L329.339 64.094C329.339 64.094 331.602 61.666 332.252 61.368C332.902 61.0699 336.877 61.8176 337.1 62.1696C337.324 62.5216 337.232 64.0529 337.178 64.3227C337.124 64.5925 333.581 65.1988 332.984 65.2245C332.388 65.2502 329.516 64.7055 329.516 64.7055Z" fill="black"/>
<path d="M329.338 64.0942L329.516 64.7057C329.516 64.7057 328.01 65.844 327.953 65.9108C327.897 65.9776 327.989 66.3013 327.989 66.3013H326.463V64.0942C326.69 64.2218 326.929 64.3243 327.178 64.4C327.396 64.4385 329.338 64.0942 329.338 64.0942Z" fill="black"/>
</g>
<path d="M301.358 88.0483C301.196 93.9577 298.853 101.183 293.627 101.183C293.113 101.183 286.119 101.316 285.662 101.165C281.451 99.767 278.956 92.0872 279.429 85.3171C279.799 80.0448 281.484 74.1379 285.878 73.4288C286.171 73.3825 293.529 73.4288 293.843 73.4288C299.123 73.4288 301.535 81.702 301.358 88.0483Z" fill="#263238"/>
<path d="M292.975 88.0482C292.81 93.9577 290.467 101.183 285.243 101.183C280.02 101.183 277.628 92.822 278.155 85.317C278.548 79.6927 280.362 73.4287 285.464 73.4287C290.737 73.4287 293.149 81.702 292.975 88.0482Z" fill="#37474F"/>
<path d="M290.798 87.8681C290.665 92.4106 288.917 97.9835 285.056 97.9835C281.194 97.9835 279.447 91.5448 279.85 85.7663C280.154 81.4345 281.508 76.6118 285.279 76.6118C289.177 76.6195 290.945 82.9863 290.798 87.8681Z" fill="#C7C7C7"/>
<path d="M284.044 77.5909C284.123 79.4382 284.401 85.3194 284.802 85.3194C285.141 85.3194 286.13 79.7671 286.479 77.7604C286.059 77.5395 285.59 77.424 285.115 77.4239C284.751 77.4224 284.39 77.4787 284.044 77.5909Z" fill="#263238"/>
<path d="M285.526 85.6791C285.739 85.8384 287.63 83.1868 289.005 81.1981C288.716 80.3671 288.298 79.5867 287.766 78.8857C286.875 81.1596 285.236 85.4632 285.526 85.6791Z" fill="#263238"/>
<path d="M285.884 86.3626C285.981 86.6041 288.014 85.674 289.846 84.7799C289.754 84.0389 289.615 83.3044 289.432 82.5806C287.754 84.135 285.766 86.0697 285.884 86.3626Z" fill="#263238"/>
<path d="M286.064 87.1923C286.046 87.4698 288.104 87.8603 289.972 88.1583L289.987 87.832C290.005 87.2411 289.987 86.6296 289.954 86.0078C288.093 86.3932 286.097 86.8814 286.064 87.1923Z" fill="#263238"/>
<path d="M289.403 92.0077C289.619 91.1821 289.777 90.3425 289.876 89.4948C288.077 88.6624 285.991 87.7657 285.834 88.0535C285.678 88.3412 287.836 90.4969 289.403 92.0077Z" fill="#263238"/>
<path d="M287.178 96.234C287.907 95.5191 288.471 94.6548 288.833 93.7006C287.682 91.7351 285.711 88.4772 285.406 88.6853C285.1 88.8934 286.677 94.5048 287.178 96.234Z" fill="#263238"/>
<path d="M283.147 96.6041C283.642 96.9766 284.244 97.1785 284.863 97.1797C285.102 97.181 285.34 97.1543 285.572 97.1C285.511 95.5584 285.228 89.1582 284.801 89.1582C284.475 89.1531 283.512 94.5101 283.147 96.6041Z" fill="#263238"/>
<path d="M280.924 92.8683C281.16 93.7209 281.512 94.537 281.97 95.2937C282.864 93.0045 284.303 89.1916 284.026 88.986C283.83 88.8396 282.232 91.0132 280.924 92.8683Z" fill="#263238"/>
<path d="M280.303 89.4948C280.362 90.1701 280.458 90.8416 280.59 91.5066C282.055 90.1243 283.56 88.6135 283.453 88.3463C283.37 88.1254 281.86 88.7703 280.303 89.4948Z" fill="#263238"/>
<path d="M280.231 86.5171C280.205 87.1389 280.202 87.7658 280.231 88.3876C281.772 88.0613 283.229 87.6836 283.247 87.4138C283.265 87.144 281.788 86.8228 280.231 86.5171Z" fill="#263238"/>
<path d="M280.311 85.3323C281.814 86.0466 283.319 86.6812 283.45 86.432C283.581 86.1827 282.022 84.4639 280.642 83.0225C280.489 83.7856 280.378 84.5568 280.311 85.3323Z" fill="#263238"/>
<path d="M281.074 81.3474C282.186 83.2692 283.748 85.854 284.021 85.6664C284.293 85.4789 283.067 80.6485 282.525 78.6265C281.858 79.4232 281.364 80.3497 281.074 81.3474Z" fill="#263238"/>
<path d="M360.518 88.0483C360.356 93.9577 358.012 101.183 352.786 101.183C352.273 101.183 345.279 101.316 344.821 101.165C340.61 99.767 338.116 92.0872 338.588 85.3171C338.958 80.0448 340.644 74.1379 345.037 73.4288C345.33 73.3825 352.689 73.4288 353.002 73.4288C358.282 73.4288 360.692 81.702 360.518 88.0483Z" fill="#263238"/>
<path d="M352.131 88.0482C351.969 93.9577 349.625 101.183 344.402 101.183C339.179 101.183 336.787 92.822 337.311 85.317C337.706 79.6927 339.52 73.4287 344.62 73.4287C349.895 73.4287 352.308 81.702 352.131 88.0482Z" fill="#37474F"/>
<path d="M349.958 87.8681C349.824 92.4106 348.077 97.9835 344.215 97.9835C340.354 97.9835 338.606 91.5448 339.01 85.7663C339.313 81.4345 340.667 76.6118 344.439 76.6118C348.336 76.6195 350.102 82.9863 349.958 87.8681Z" fill="#C7C7C7"/>
<path d="M343.203 77.591C343.282 79.4383 343.56 85.3195 343.974 85.3195C344.313 85.3195 345.302 79.7672 345.651 77.7605C345.231 77.5396 344.762 77.4241 344.287 77.4239C343.919 77.4209 343.553 77.4773 343.203 77.591Z" fill="#263238"/>
<path d="M344.685 85.6791C344.898 85.8384 346.789 83.1868 348.164 81.1981C347.874 80.3675 347.456 79.5873 346.926 78.8857C346.034 81.1596 344.387 85.4632 344.685 85.6791Z" fill="#263238"/>
<path d="M345.042 86.3626C345.14 86.6041 347.172 85.674 349.004 84.7799C348.912 84.0389 348.774 83.3044 348.59 82.5806C346.912 84.135 344.924 86.0697 345.042 86.3626Z" fill="#263238"/>
<path d="M345.232 87.1923C345.214 87.4698 347.272 87.8603 349.14 88.1583C349.14 88.0479 349.14 87.9425 349.153 87.832C349.173 87.2411 349.153 86.6296 349.122 86.0078C347.252 86.3932 345.255 86.8814 345.232 87.1923Z" fill="#263238"/>
<path d="M348.559 92.0077C348.775 91.1821 348.933 90.3425 349.032 89.4948C347.234 88.6624 345.147 87.7657 344.991 88.0535C344.834 88.3412 346.995 90.4969 348.559 92.0077Z" fill="#263238"/>
<path d="M346.337 96.234C347.063 95.5183 347.625 94.6541 347.984 93.7006C346.833 91.7351 344.863 88.4772 344.557 88.6853C344.251 88.8934 345.836 94.5048 346.337 96.234Z" fill="#263238"/>
<path d="M342.306 96.6041C342.801 96.9766 343.403 97.1785 344.022 97.1797C344.261 97.181 344.499 97.1543 344.731 97.1C344.67 95.5584 344.387 89.1582 343.961 89.1582C343.634 89.1531 342.671 94.5101 342.306 96.6041Z" fill="#263238"/>
<path d="M340.081 92.8683C340.316 93.7209 340.668 94.537 341.126 95.2937C342.021 93.0045 343.459 89.1916 343.182 88.986C342.989 88.8396 341.391 91.0132 340.081 92.8683Z" fill="#263238"/>
<path d="M339.462 89.4948C339.522 90.1701 339.618 90.8416 339.75 91.5066C341.214 90.1243 342.717 88.6135 342.612 88.3463C342.53 88.1254 341.019 88.7703 339.462 89.4948Z" fill="#263238"/>
<path d="M339.39 86.5171C339.364 87.1389 339.361 87.7658 339.39 88.3876C340.931 88.0613 342.388 87.6836 342.406 87.4138C342.424 87.144 340.947 86.8228 339.39 86.5171Z" fill="#263238"/>
<path d="M339.47 85.3323C340.973 86.0466 342.478 86.6812 342.609 86.432C342.74 86.1827 341.181 84.4639 339.801 83.0225C339.648 83.7856 339.537 84.5568 339.47 85.3323Z" fill="#263238"/>
<path d="M340.233 81.3474C341.345 83.2692 342.907 85.854 343.18 85.6664C343.452 85.4789 342.227 80.6485 341.684 78.6265C341.017 79.4232 340.523 80.3497 340.233 81.3474Z" fill="#263238"/>
<path d="M247.541 88.0483C247.379 93.9577 245.036 101.183 239.81 101.183C239.296 101.183 232.302 101.316 231.845 101.165C227.634 99.767 225.139 92.0872 225.612 85.3171C225.982 80.0448 227.667 74.1379 232.061 73.4288C232.354 73.3825 239.712 73.4288 240.026 73.4288C245.306 73.4288 247.716 81.702 247.541 88.0483Z" fill="#263238"/>
<path d="M239.155 88.0482C238.993 93.9577 236.65 101.183 231.426 101.183C226.203 101.183 223.811 92.822 224.335 85.317C224.731 79.6927 226.545 73.4287 231.645 73.4287C236.92 73.4287 239.332 81.702 239.155 88.0482Z" fill="#37474F"/>
<path d="M236.989 87.8681C236.855 92.4106 235.108 97.9835 231.246 97.9835C227.385 97.9835 225.637 91.5448 226.041 85.7663C226.344 81.4345 227.698 76.6118 231.47 76.6118C235.36 76.6195 237.125 82.9863 236.989 87.8681Z" fill="#C7C7C7"/>
<path d="M230.226 77.5909C230.306 79.4383 230.583 85.3195 230.997 85.3195C231.336 85.3195 232.325 79.7672 232.675 77.7605C232.253 77.5393 231.784 77.4238 231.308 77.4239C230.941 77.421 230.575 77.4774 230.226 77.5909Z" fill="#263238"/>
<path d="M231.709 85.6791C231.922 85.8384 233.813 83.1868 235.188 81.1981C234.897 80.368 234.479 79.5879 233.949 78.8857C233.058 81.1596 231.418 85.4632 231.709 85.6791Z" fill="#263238"/>
<path d="M232.066 86.3626C232.161 86.6041 234.196 85.674 236.028 84.7799C235.936 84.0389 235.798 83.3044 235.615 82.5806C233.937 84.135 231.948 86.0697 232.066 86.3626Z" fill="#263238"/>
<path d="M232.256 87.1923C232.238 87.4698 234.297 87.8603 236.164 88.1583C236.164 88.0479 236.164 87.9425 236.177 87.832C236.198 87.2411 236.177 86.6296 236.146 86.0078C234.276 86.3932 232.28 86.8814 232.256 87.1923Z" fill="#263238"/>
<path d="M235.584 92.0077C235.8 91.1821 235.958 90.3425 236.057 89.4948C234.258 88.6624 232.172 87.7657 232.015 88.0535C231.858 88.3412 234.019 90.4969 235.584 92.0077Z" fill="#263238"/>
<path d="M233.361 96.234C234.089 95.5191 234.654 94.6548 235.016 93.7006C233.865 91.7351 231.894 88.4772 231.588 88.6853C231.282 88.8934 232.86 94.5048 233.361 96.234Z" fill="#263238"/>
<path d="M229.329 96.6041C229.824 96.9766 230.426 97.1785 231.046 97.1797C231.284 97.181 231.522 97.1543 231.755 97.1C231.693 95.5584 231.411 89.1582 230.984 89.1582C230.658 89.1531 229.694 94.5101 229.329 96.6041Z" fill="#263238"/>
<path d="M227.105 92.8683C227.341 93.7209 227.693 94.537 228.151 95.2937C229.045 93.0045 230.484 89.1916 230.206 88.986C230.011 88.8396 228.415 91.0132 227.105 92.8683Z" fill="#263238"/>
<path d="M226.485 89.4948C226.544 90.1702 226.64 90.8419 226.773 91.5066C228.238 90.1243 229.741 88.6135 229.635 88.3463C229.553 88.1254 228.042 88.7703 226.485 89.4948Z" fill="#263238"/>
<path d="M226.414 86.5171C226.388 87.1389 226.386 87.7658 226.414 88.3876C227.956 88.0613 229.413 87.6836 229.431 87.4138C229.448 87.144 227.971 86.8228 226.414 86.5171Z" fill="#263238"/>
<path d="M226.493 85.3323C227.996 86.0466 229.502 86.6812 229.633 86.432C229.764 86.1827 228.204 84.4639 226.825 83.0225C226.671 83.7856 226.561 84.5568 226.493 85.3323Z" fill="#263238"/>
<path d="M227.256 81.3474C228.369 83.2692 229.931 85.854 230.203 85.6664C230.476 85.4789 229.25 80.6485 228.708 78.6265C228.041 79.4232 227.547 80.3497 227.256 81.3474Z" fill="#263238"/>
<path d="M278.083 96.8378H242.855C242.855 96.8378 239.635 91.5964 239.453 90.7665C239.271 89.9366 240.067 73.2462 231.444 73.2462C223.932 73.2462 224.266 90.0034 224.266 90.0034L223.346 88.5954L223.138 86.1468L223.724 84.6978C223.724 84.6978 222.621 74.4204 223.138 73.0047C223.654 71.589 228.243 65.659 228.554 65.3481C228.865 65.0372 233.934 64.1739 234.278 63.8656C234.623 63.5573 248.808 51.8617 255.11 50.482C261.413 49.1022 275.197 48 284.044 48C292.89 48 313.126 50.3895 314.781 50.9419C316.435 51.4943 331.612 65.7489 331.612 65.7489C331.612 65.7489 347.799 67.8301 349.962 68.3183C352.126 68.8064 360.378 74.2868 360.723 74.9754C361.067 75.664 362.138 83.3566 362.138 83.3566C362.138 83.3566 362.966 85.2553 362.999 85.7024C363.033 86.1494 362 93.4643 361.861 93.842C361.722 94.2197 360.206 95.9463 359.862 96.085C359.518 96.2238 302.073 96.9817 301.369 96.8558C300.665 96.7299 297.353 95.7536 296.8 95.3836C296.248 95.0136 295.184 73.4287 285.292 73.4287C276.703 73.4287 277.392 89.9058 278.083 96.8378Z" fill="#FFC727"/>
<path opacity="0.1" d="M326.145 96.6192C342.008 96.4188 359.67 96.1541 359.862 96.0796C360.207 95.9409 361.725 94.2168 361.861 93.8392C361.998 93.4615 363.036 86.1466 362.997 85.6995C362.958 85.2525 362.139 83.3512 362.139 83.3512C362.139 83.3512 361.07 75.6586 360.726 74.97C360.381 74.2814 352.136 68.8036 349.963 68.3154C347.789 67.8273 331.613 65.7461 331.613 65.7461C331.613 65.7461 346.258 69.022 347.029 69.6772C347.799 70.3324 353.452 76.5116 354.11 77.4288C354.767 78.3461 354.865 85.291 355.073 85.864C355.281 86.4369 356.661 90.0288 356.8 90.648C356.939 91.2673 356.317 93.7544 356.111 93.9573C355.906 94.1603 327.476 96.5113 326.145 96.6192Z" fill="black"/>
<path opacity="0.1" d="M278.085 96.8378C277.453 90.5455 276.831 76.3885 283.149 73.832C279.922 74.4178 275.416 79.7081 275.231 93.5285L242.857 96.8378H278.085Z" fill="black"/>
<g opacity="0.6">
<path d="M243.685 87.9042C243.396 84.5617 242.679 81.27 241.552 78.1099C241.265 77.3212 240.934 76.5492 240.56 75.7976C240.188 75.0406 239.758 74.3131 239.276 73.6213C238.799 72.92 238.243 72.2759 237.618 71.702C237.306 71.4133 236.975 71.1464 236.627 70.903C236.271 70.6671 235.896 70.4608 235.506 70.2863C234.727 69.9287 233.884 69.7295 233.027 69.7005C232.17 69.6462 231.312 69.7759 230.509 70.0808C228.896 70.7051 227.667 72.0181 226.799 73.4492C225.947 74.902 225.296 76.4639 224.864 78.092C224.422 79.7083 224.119 81.3596 223.96 83.0277C224.17 81.3692 224.522 79.7317 225.011 78.1331C225.467 76.5312 226.136 74.9981 227.002 73.5751C227.888 72.1954 229.075 70.9107 230.617 70.3403C231.382 70.0528 232.201 69.9336 233.017 69.9909C233.836 70.0243 234.641 70.219 235.386 70.5638C235.76 70.7301 236.12 70.9259 236.462 71.1496C236.8 71.3853 237.122 71.6428 237.426 71.9204C238.036 72.4773 238.58 73.1023 239.047 73.7832C239.983 75.1576 240.75 76.6396 241.331 78.1973C241.925 79.7585 242.411 81.3587 242.785 82.9865C243.178 84.6073 243.479 86.2492 243.685 87.9042Z" fill="white"/>
<path d="M297.111 87.9039C296.828 84.637 296.138 81.4184 295.056 78.3229C294.515 76.7683 293.793 75.2832 292.903 73.8985C292.444 73.2089 291.923 72.563 291.346 71.9689C290.754 71.3831 290.085 70.8808 289.357 70.4762C288.611 70.0961 287.807 69.8434 286.978 69.7285C286.148 69.6347 285.307 69.6834 284.493 69.8724C282.857 70.2578 281.449 71.3086 280.418 72.5907C279.403 73.8885 278.597 75.3371 278.029 76.8841C277.454 78.4178 277.033 80.0049 276.773 81.6219C277.082 80.0188 277.551 78.4506 278.173 76.9406C278.759 75.4231 279.58 74.0066 280.603 72.7423C281.631 71.5142 282.99 70.5044 284.56 70.1473C285.341 69.9716 286.147 69.9299 286.942 70.024C287.733 70.1404 288.501 70.3851 289.213 70.7485C289.916 71.1377 290.563 71.619 291.138 72.1796C291.704 72.7564 292.216 73.3842 292.666 74.0552C293.548 75.4203 294.274 76.8793 294.832 78.4051C295.401 79.9333 295.87 81.4971 296.235 83.0864C296.618 84.6744 296.911 86.2828 297.111 87.9039Z" fill="white"/>
<path d="M277.6 75.7204C275.351 75.0703 273.108 74.3998 270.855 73.7677L258.265 72.5678L245.676 71.4502H245.691L241.58 70.0268L237.449 68.6265L241.56 70.109L245.671 71.5709H245.686L258.276 72.7631L270.865 73.8782C273.078 74.5077 275.341 75.1038 277.6 75.7204Z" fill="white"/>
<path d="M329.816 65.7563L336.651 68.6725L343.496 71.5682L343.462 71.5399L346.186 76.6554L346.252 76.545C339.654 76.6041 333.054 76.6298 326.469 76.7171H326.515L318.653 72.0923L308.853 69.1761L299.046 66.2933L308.802 69.2892L318.588 72.2413H318.57L326.402 76.8918L326.425 76.9047H326.451C333.049 76.8661 339.647 76.7659 346.234 76.6966H346.36L346.301 76.5886L343.552 71.4834V71.4628H343.532L336.679 68.598L329.816 65.7563Z" fill="white"/>
</g>
<g opacity="0.3">
<path d="M330.325 65.749L344.117 69.0275L345.839 69.4489C346.124 69.5182 346.407 69.5979 346.692 69.6724L346.89 69.7392C346.923 69.748 346.954 69.7601 346.985 69.7752L347.059 69.8394C347.165 69.9334 347.264 70.0348 347.355 70.1426C348.126 71.0264 348.827 71.9797 349.549 72.9123C350.978 74.7956 352.375 76.6944 353.791 78.5931C352.447 76.6481 351.083 74.7186 349.68 72.8173C348.976 71.8666 348.272 70.9211 347.496 70.0167C347.399 69.8968 347.292 69.7859 347.175 69.6852L347.08 69.6082C347.044 69.5903 347.008 69.5757 346.969 69.5645L346.748 69.4874C346.463 69.4103 346.176 69.3255 345.89 69.2562L344.169 68.8245C341.87 68.2815 339.567 67.7531 337.26 67.2392C334.953 66.7254 332.641 66.2286 330.325 65.749Z" fill="black"/>
<path d="M285.825 66.3013L290.02 67.6245L294.224 68.9246L302.615 71.5633C304.016 72.0026 305.416 72.4394 306.801 72.9122C307.488 73.1574 308.153 73.46 308.789 73.8166L310.752 74.8109L314.673 76.8021L318.609 78.7651L314.719 76.7096L310.811 74.685L308.859 73.6753C308.22 73.3088 307.55 72.9985 306.857 72.7477C305.47 72.2621 304.075 71.8125 302.677 71.3654L294.265 68.7961L290.051 67.532L285.825 66.3013Z" fill="black"/>
<path d="M275.231 92.4495L271.182 92.3621L267.13 92.3056L259.032 92.1822L250.931 92.1052L246.881 92.0435L245.869 92.0255L245.355 92.0075C245.276 92.0075 245.181 92.0075 245.114 91.9895C245.047 91.9716 244.985 91.9022 244.924 91.8508C244.477 91.3498 244.078 90.7999 243.678 90.2578C244.065 90.8102 244.448 91.3678 244.888 91.8842C244.949 91.9382 244.993 92.0281 245.091 92.0435C245.176 92.0577 245.261 92.0663 245.348 92.0692L245.861 92.1L246.874 92.1437L250.923 92.2439L259.024 92.3878L267.125 92.4417L271.174 92.4649L275.231 92.4495Z" fill="black"/>
<path d="M246.835 65.3174C246.409 67.3728 245.993 69.4283 245.587 71.4838V71.512L246.396 76.3938L247.226 81.2755C247.781 84.53 248.364 87.7845 248.976 91.0389C248.477 87.7708 247.963 84.5051 247.413 81.2447L246.589 76.3629L245.741 71.4812V71.5069C246.116 69.4531 246.481 67.39 246.835 65.3174Z" fill="black"/>
<path d="M269.183 65.7256C269.697 68.4337 270.22 71.1383 270.753 73.8395V73.8241C270.786 76.772 270.831 79.719 270.889 82.6652L270.984 87.0973L271.115 91.5165V87.0947L271.077 82.6729C271.046 79.725 271 76.778 270.938 73.8318V73.8138C270.368 71.1109 269.783 68.4148 269.183 65.7256Z" fill="black"/>
<path d="M238.894 63.29C238.603 64.1662 238.341 65.05 238.077 65.9339C237.812 66.8177 237.563 67.7067 237.337 68.6008V68.624V68.6445C237.48 69.2971 237.619 69.9472 237.776 70.5946C237.933 71.2421 238.084 71.8793 238.256 72.5345C238.154 71.8742 238.038 71.219 237.915 70.5638C237.791 69.9086 237.658 69.2586 237.529 68.606V68.6522C237.786 67.7658 238.012 66.8717 238.251 65.9827C238.49 65.0937 238.698 64.1919 238.894 63.29Z" fill="black"/>
<path d="M275.969 81.6223L271.786 81.3037L267.603 81.0185L259.235 80.4481L250.864 79.9471L246.676 79.6953L242.488 79.4795L246.671 79.7981L250.854 80.0833L259.222 80.6537L267.593 81.1573L271.778 81.4065L275.969 81.6223Z" fill="black"/>
<path d="M252.112 66.5431C252.03 66.8823 251.963 67.2266 251.886 67.5709L251.943 67.5272C251.29 67.4527 250.635 67.373 249.98 67.3139C249.325 67.2548 248.672 67.188 248.014 67.1392L248.099 67.2548L248.297 66.3093L248.207 66.3735C248.931 66.4172 249.659 66.4609 250.386 66.4763C249.666 66.3684 248.944 66.2862 248.22 66.2065H248.148L248.132 66.2811L247.914 67.2214L247.888 67.3268H247.999C248.654 67.3961 249.309 67.4501 249.964 67.4989C250.62 67.5477 251.277 67.5888 251.935 67.63H251.984V67.5837C252.03 67.2394 252.076 66.8926 252.112 66.5431Z" fill="black"/>
<path d="M358.519 80.5508C358.776 81.91 359.1 83.2511 359.416 84.5923L359.544 85.1062L359.575 85.2295L359.59 85.2912C359.59 85.322 359.59 85.2912 359.616 85.2912C359.616 85.3657 359.603 85.4633 359.598 85.5481C359.572 85.8976 359.536 86.2444 359.518 86.5964C359.472 87.2978 359.431 87.9993 359.416 88.6904C359.518 88.007 359.596 87.3312 359.673 86.6581C359.711 86.3241 359.737 85.9823 359.768 85.6458L359.791 85.3888C359.8 85.3448 359.8 85.2993 359.791 85.2552L359.775 85.1936L359.747 85.0651L359.629 84.5512C359.274 83.2075 358.933 81.8688 358.519 80.5508Z" fill="black"/>
<path d="M307.055 80.5508C306.777 81.2368 306.541 81.9305 306.284 82.6242C306.027 83.318 305.801 84.0194 305.585 84.7234V84.7414V84.7542C305.585 85.2809 305.585 85.8051 305.613 86.3292C305.642 86.8534 305.649 87.3801 305.683 87.9042C305.719 87.3903 305.739 86.8559 305.755 86.3292C305.77 85.8025 305.775 85.2809 305.78 84.7542V84.785C306.024 84.0888 306.235 83.3822 306.461 82.6808C306.687 81.9793 306.875 81.2676 307.055 80.5508Z" fill="black"/>
<path d="M362.981 86.0078L359.084 89.8824H359.104L345.158 90.3371C342.846 90.4116 340.513 90.5093 338.19 90.5658L331.217 90.5504L303.322 90.6172L297.656 89.2452L303.309 90.6866L331.207 90.7534L338.18 90.7405C340.505 90.6737 342.828 90.5684 345.15 90.4836L359.086 89.9363H359.102L362.981 86.0078Z" fill="black"/>
</g>
<path d="M265.619 65.1989C265.159 65.669 246.994 64.6002 246.581 64.554C246.167 64.5077 239.222 63.1742 238.901 62.8531C238.58 62.5319 249.949 54.346 250.905 53.9298C251.861 53.5135 262.39 52.8275 263.839 53.4159C264.972 53.8733 266.149 64.6567 265.619 65.1989Z" fill="#263238"/>
<path d="M264.44 64.7009C264.018 65.13 247.423 64.1536 247.045 64.1125C246.668 64.0714 240.321 62.851 240.028 62.5709C239.735 62.2909 250.11 54.7961 250.994 54.4184C251.878 54.0407 261.487 53.4087 262.813 53.9457C263.846 54.3516 264.923 64.205 264.44 64.7009Z" fill="#37474F"/>
<g opacity="0.1">
<path d="M252.919 54.1099L264.419 61.1806C264.221 59.1046 263.851 56.6098 263.432 55.1504L261.135 53.7399C258.392 53.7133 255.649 53.8368 252.919 54.1099Z" fill="white"/>
<path d="M243.911 59.3693L252.094 64.4026C253.589 64.4823 255.259 64.5645 256.878 64.6339L245.92 57.8945C245.244 58.3827 244.561 58.8837 243.911 59.3693Z" fill="white"/>
<path d="M240.547 61.9898L242.557 63.2256C243.037 63.331 243.543 63.4363 244.039 63.5391L240.956 61.6455C240.804 61.7714 240.666 61.887 240.547 61.9898Z" fill="white"/>
</g>
<path d="M251.778 54.2435C251.455 54.2949 247.698 63.989 247.77 64.1791C247.842 64.3692 247.028 64.2125 247.097 64.1637C247.166 64.1149 251.208 54.7651 251.09 54.372C251.028 54.1638 251.778 54.2435 251.778 54.2435Z" fill="#263238"/>
<path d="M330.325 65.749C329.865 65.749 286.947 66.3015 285.824 66.3015C284.701 66.3015 269.219 65.5538 269.028 65.451C268.838 65.3482 267.322 54.1048 267.782 53.1876C267.908 52.9307 288.707 51.8618 291.258 51.8618C293.81 51.8618 314.734 52.7739 315.839 52.9666C316.944 53.1593 331.085 65.7388 330.325 65.749Z" fill="#263238"/>
<path d="M328.989 65.2069C328.557 65.2069 288.227 65.7208 287.173 65.7208C286.12 65.7208 271.138 65.0194 270.961 64.9217C270.783 64.8241 269.771 54.8808 270.205 54.02C270.323 53.7837 290.297 52.7739 292.695 52.7739C295.092 52.7739 314.755 53.6295 315.793 53.8017C316.831 53.9738 329.703 65.1992 328.989 65.2069Z" fill="#37474F"/>
<path opacity="0.1" d="M298.48 52.9639L318.601 65.3378C322.311 65.2941 325.42 65.253 327.244 65.2299L307.974 53.375C304.868 53.2311 301.371 53.0795 298.48 52.9639ZM285.498 53.0641L305.723 65.515L301.402 65.569L281.423 53.2825L285.498 53.0641ZM277.533 65.3044C275.678 65.2144 273.936 65.1245 272.713 65.0474L270.775 63.8553C270.683 63.1256 270.567 62.085 270.462 60.9519L277.533 65.3044ZM275.328 53.6113L294.881 65.6358H293.928L274.444 53.655L275.328 53.6113ZM312.085 53.5754L325.808 62.013C326.561 62.6914 327.234 63.2977 327.766 63.8116L311.021 53.5163L312.085 53.5754Z" fill="white"/>
<path d="M313.355 76.9718C313.956 77.5704 312.895 81.2934 311.975 81.5709C311.055 81.8484 304.755 80.9722 304.066 80.7872C303.378 80.6022 296.294 78.4877 295.696 77.8453C295.097 77.203 294.547 71.9128 295.182 71.5454C295.816 71.1779 306.451 73.9348 307.599 74.2586C308.748 74.5823 312.848 76.4656 313.355 76.9718Z" fill="white"/>
<path d="M361.242 78.8759C360.985 79.3538 359.274 81.1292 358.929 81.3733C358.585 81.6174 356.514 81.9643 356.273 81.8281C356.031 81.6919 354.731 78.8271 354.757 78.3441C354.782 77.861 357.514 72.6247 358.004 72.7301C358.495 72.8354 361.108 74.4541 361.247 74.9705C361.385 75.487 361.506 78.3621 361.242 78.8759Z" fill="white"/>
<path d="M361.088 78.7137C361.114 79.058 360.199 80.1243 360.089 80.2553C360.515 79.833 360.901 79.3719 361.242 78.8782C361.499 78.3643 361.383 75.4841 361.242 74.9702C361.101 74.4563 358.483 72.83 358.002 72.7246C358.516 72.9584 360.615 74.667 360.728 75.091C360.841 75.5149 361.06 78.3463 361.088 78.7137Z" fill="#DBDBDB"/>
<path d="M353.791 78.5931C353.184 78.3824 340.718 78.0073 338.269 78.0073C335.821 78.0073 319.714 78.385 318.609 78.7653C317.504 79.1455 319.989 85.7025 320.955 86.1804C321.921 86.6583 337.442 87.9044 338.511 87.9044C339.58 87.9044 351.697 86.1932 352.421 85.7102C353.146 85.2271 354.79 78.9374 353.791 78.5931Z" fill="#263238"/>
<path d="M319.135 82.8015C319.187 82.9351 319.236 83.0584 319.29 83.1997L353.636 82.578C353.672 82.4444 353.701 82.3082 353.731 82.1694L319.135 82.8015Z" fill="#FFC727"/>
<path d="M352.136 93.5209H319.678C318.989 93.5209 322.504 91.4191 323.061 91.3832C323.619 91.3472 349.066 91.3832 349.582 91.3832C350.098 91.3832 352.722 93.5209 352.136 93.5209Z" fill="#263238"/>
<path d="M360.355 92.1361C360.006 92.1952 356.401 92.2646 355.803 92.1361C355.204 92.0077 353.824 88.8577 353.917 88.3875C354.009 87.9173 356.689 86.332 357.033 86.2138C357.378 86.0957 359.808 85.9723 360.068 86.2138C360.327 86.4554 360.679 92.0848 360.355 92.1361Z" fill="#455A64"/>
<path d="M313.679 87.904C314.108 88.4616 311.148 91.8248 310.022 92.2385C308.897 92.6522 301.993 92.665 301.736 92.5956C301.479 92.5263 301.479 89.0654 301.61 88.5361C301.741 88.0068 303.036 86.0772 303.322 85.9051C303.607 85.7329 309.796 86.2597 310.634 86.478C311.471 86.6964 313.483 87.6522 313.679 87.904Z" fill="#455A64"/>
<path d="M262.865 64.1303L263.045 63.5188C263.045 63.5188 260.779 61.0908 260.131 60.7928C259.484 60.4947 255.507 61.2424 255.28 61.5944C255.054 61.9464 255.149 63.4777 255.203 63.7475C255.257 64.0173 258.8 64.6236 259.399 64.6493C259.998 64.675 262.865 64.1303 262.865 64.1303Z" fill="#FFC727"/>
<path d="M263.045 63.5186L262.865 64.1301C262.865 64.1301 264.373 65.2683 264.427 65.3351C264.481 65.4019 264.391 65.7256 264.391 65.7256H265.933V63.5186C265.706 63.6456 265.467 63.7481 265.218 63.8243C264.995 63.8628 263.045 63.5186 263.045 63.5186Z" fill="#FFC727"/>
<path d="M150 113.781C101.949 113.923 48.049 113.923 0 113.781C48.049 113.636 101.951 113.636 150 113.781Z" fill="#263238"/>
<path d="M10.4006 107.337L23.1643 109.266C23.1643 109.266 17.6408 91.4506 12.7969 91.2941C7.95297 91.1376 10.4006 107.337 10.4006 107.337Z" fill="#D3766A"/>
<path opacity="0.5" d="M10.4006 107.337L23.1643 109.266C23.1643 109.266 17.6408 91.4506 12.7969 91.2941C7.95297 91.1376 10.4006 107.337 10.4006 107.337Z" fill="black"/>
<path d="M53.0666 116.037L72.5356 114.402C72.5356 114.402 63.8568 88.459 56.5932 90.1312C46.3496 92.4878 53.0666 116.037 53.0666 116.037Z" fill="#D3766A"/>
<g opacity="0.5">
<path d="M53.0666 116.037L72.5356 114.402C72.5356 114.402 63.8568 88.459 56.5932 90.1312C46.3496 92.4878 53.0666 116.037 53.0666 116.037Z" fill="black"/>
</g>
<path d="M101.272 78.1266L101.984 77.8697C101.984 77.8697 101.984 75.1955 101.984 75.1324C101.984 75.0694 103.341 74.294 103.703 74.2309C104.065 74.1678 107.508 74.5882 108.017 75.0787C108.526 75.5692 107.753 78.3274 107.524 78.5937C107.295 78.8599 103.955 79.0117 103.787 79.0117C103.619 79.0117 101.27 78.7175 101.27 78.7175L101.272 78.1266Z" fill="#D3766A"/>
<path opacity="0.2" d="M107.9 76.2324C106.103 76.6423 104.237 76.6423 102.439 76.2324C104.252 76 106.087 76 107.9 76.2324Z" fill="black"/>
<path opacity="0.1" d="M101.271 78.1263V78.7242C101.271 78.7242 103.626 79.0208 103.792 79.0208C103.957 79.0208 107.295 78.8643 107.528 78.5981C107.704 78.3995 108.189 76.7553 108.189 75.7627V75.7417C108.082 76.1457 106.267 77.5097 104.857 77.7596C103.446 78.0095 101.993 76.6245 101.993 76.6245C101.993 77.2645 101.993 77.8694 101.993 77.8694L101.271 78.1263Z" fill="black"/>
<path opacity="0.4" d="M101.984 75.1325C102.652 75.1325 106.735 75.3147 107.854 74.9737C107.008 74.5276 104.037 74.1749 103.703 74.231C103.093 74.4532 102.514 74.7564 101.984 75.1325Z" fill="white"/>
<path d="M49.6025 80.1327C49.6025 80.1327 50.107 79.3643 50.4363 79.3059C50.7656 79.2475 51.9124 79.1518 51.9124 79.1518C51.9124 79.1518 51.6601 78.7033 51.7185 77.7131C51.7769 76.7228 52.4753 72.9579 53.0381 72.6263C53.601 72.2946 56.7072 71.8719 57.6204 72.4044C58.5336 72.9369 59.5239 77.6757 59.5239 78.1405C59.5013 78.4611 59.3788 78.7666 59.1736 79.014C59.1736 79.014 60.3577 79.1704 60.6683 79.3643C60.979 79.5581 61.8921 81.0926 61.8921 81.0926L49.6025 80.1327Z" fill="#C7C7C7"/>
<path d="M54.1642 79.2288C54.1642 79.2288 52.9404 79.6749 52.8633 79.8711C52.7863 80.0673 52.7045 80.2985 52.6765 80.3732L49.6006 80.1397C49.6006 80.1397 50.1051 79.3713 50.4367 79.3152C50.7684 79.2592 51.9128 79.1587 51.9128 79.1587C51.9128 79.1587 51.6605 78.7126 51.7166 77.7224C51.7726 76.7321 52.4756 72.9649 53.0385 72.6356C53.441 72.4666 53.8658 72.3565 54.2997 72.3086C53.4449 72.6192 53.1926 74.7796 53.0969 75.7418C53.0128 76.5663 52.8633 78.1591 53.2907 78.7313C53.4589 78.9485 54.1642 79.2288 54.1642 79.2288Z" fill="#A6A6A6"/>
<path d="M30.6006 80.1327C30.6006 80.1327 31.1051 79.3643 31.4344 79.3059C31.7637 79.2475 32.9104 79.1518 32.9104 79.1518C32.9104 79.1518 32.6582 78.7033 32.7166 77.7131C32.775 76.7228 33.4733 72.9579 34.0362 72.6263C34.599 72.2946 37.7076 71.8719 38.6185 72.4044C39.5293 72.9369 40.522 77.6757 40.522 78.1405C40.4998 78.4608 40.3781 78.7661 40.174 79.014C40.174 79.014 41.3581 79.1704 41.6687 79.3643C41.9793 79.5581 42.8902 81.0926 42.8902 81.0926L30.6006 80.1327Z" fill="#C7C7C7"/>
<path d="M35.1642 79.2288C35.1642 79.2288 33.9404 79.6749 33.8633 79.8711C33.7863 80.0673 33.7045 80.2985 33.6765 80.3732L30.6006 80.1397C30.6006 80.1397 31.1051 79.3713 31.4367 79.3152C31.7684 79.2592 32.9128 79.1587 32.9128 79.1587C32.9128 79.1587 32.6605 78.7126 32.7166 77.7224C32.7726 76.7321 33.4756 72.9649 34.0385 72.6356C34.441 72.4666 34.8658 72.3565 35.2997 72.3086C34.4449 72.6192 34.1926 74.7796 34.0969 75.7418C34.0128 76.5663 33.8633 78.1591 34.2907 78.7313C34.4589 78.9485 35.1642 79.2288 35.1642 79.2288Z" fill="#A6A6A6"/>
<path d="M39.2705 81.3451C39.2705 81.3451 39.8521 80.4599 40.2327 80.3945C40.6134 80.3291 41.9307 80.2147 41.9307 80.2147C41.9307 80.2147 41.6411 79.7008 41.7088 78.5588C41.7765 77.4167 42.58 73.0796 43.2292 72.6989C43.8785 72.3182 47.4566 71.8301 48.5076 72.442C49.5586 73.0539 50.7006 78.5144 50.7006 79.0516C50.6743 79.421 50.533 79.773 50.2966 80.0582C50.2966 80.0582 51.6605 80.2357 52.0202 80.4599C52.3799 80.6841 53.4215 82.4521 53.4215 82.4521L39.2705 81.3451Z" fill="#DBDBDB"/>
<path d="M44.5249 80.3033C44.5249 80.3033 43.1236 80.8171 43.0278 81.0437C42.9507 81.2305 42.8433 81.5365 42.8129 81.6205L39.2676 81.3449C39.2676 81.3449 39.8491 80.4598 40.2322 80.3944C40.6152 80.329 41.9324 80.2145 41.9324 80.2145C41.9324 80.2145 41.6405 79.7007 41.6989 78.5586C41.7573 77.4166 42.5724 73.0795 43.2216 72.6988C43.6877 72.5041 44.1793 72.3775 44.6814 72.3228C43.6981 72.6801 43.4062 75.1698 43.2964 76.2792C43.1983 77.2274 43.0278 79.0631 43.5299 79.7217C43.7121 79.9833 44.5249 80.3033 44.5249 80.3033Z" fill="#C7C7C7"/>
<path d="M65.1016 81.3451C65.1016 81.3451 65.6831 80.4599 66.0638 80.3945C66.4445 80.3291 67.7641 80.2147 67.7641 80.2147C67.7641 80.2147 67.4745 79.7008 67.5305 78.5588C67.5866 77.4167 68.404 73.0796 69.0533 72.6989C69.7026 72.3182 73.2806 71.8301 74.3316 72.442C75.3826 73.0539 76.5223 78.5144 76.5223 79.0516C76.4964 79.4207 76.3559 79.7726 76.1206 80.0582C76.1206 80.0582 77.4846 80.2357 77.8419 80.4599C78.1993 80.6841 79.2433 82.4521 79.2433 82.4521L65.1016 81.3451Z" fill="#DBDBDB"/>
<path d="M70.3589 80.3033C70.3589 80.3033 68.9575 80.8171 68.8594 81.0437C68.7847 81.2305 68.6773 81.5365 68.6446 81.6205L65.1016 81.3449C65.1016 81.3449 65.6831 80.4598 66.0638 80.3944C66.4445 80.329 67.7664 80.2145 67.7664 80.2145C67.7664 80.2145 67.4745 79.7007 67.5329 78.5586C67.5912 77.4166 68.4063 73.0795 69.0556 72.6988C69.5193 72.5044 70.0086 72.3778 70.5083 72.3228C69.5227 72.6801 69.2331 75.1698 69.1234 76.2792C69.0253 77.2274 68.8524 79.0631 69.3452 79.7217C69.5461 79.9833 70.3589 80.3033 70.3589 80.3033Z" fill="#C7C7C7"/>
<path d="M25.3504 106.338C25.3972 112.758 23.6081 118.069 21.3567 118.197C21.3022 118.201 21.2476 118.201 21.1932 118.197H14.5322V94.9308H21.1932C23.4446 94.8116 25.2967 99.9148 25.3504 106.338Z" fill="#263238"/>
<path d="M25.3504 106.338C25.3972 112.758 23.6081 118.069 21.3567 118.197C21.3022 118.201 21.2476 118.201 21.1932 118.197H14.5322V94.9308H21.1932C23.4446 94.8116 25.2967 99.9148 25.3504 106.338Z" fill="black"/>
<path d="M14.4499 118.198C16.7021 118.198 18.5278 112.99 18.5278 106.567C18.5278 100.143 16.7021 94.9355 14.4499 94.9355C12.1978 94.9355 10.3721 100.143 10.3721 106.567C10.3721 112.99 12.1978 118.198 14.4499 118.198Z" fill="#263238"/>
<path d="M11.0494 106.807C11.0867 112.155 12.6305 116.315 14.506 116.208C16.3814 116.1 17.8808 111.77 17.8434 106.419C17.8061 101.069 16.2553 96.8179 14.3775 96.9253C12.4997 97.0328 11.0167 101.456 11.0494 106.807Z" fill="#37474F"/>
<path d="M14.4505 115.058C16.0951 115.058 17.4283 111.256 17.4283 106.566C17.4283 101.876 16.0951 98.0742 14.4505 98.0742C12.8059 98.0742 11.4727 101.876 11.4727 106.566C11.4727 111.256 12.8059 115.058 14.4505 115.058Z" fill="#DBDBDB"/>
<path d="M14.4503 114.397C15.9659 114.397 17.1946 110.891 17.1946 106.566C17.1946 102.241 15.9659 98.7354 14.4503 98.7354C12.9347 98.7354 11.7061 102.241 11.7061 106.566C11.7061 110.891 12.9347 114.397 14.4503 114.397Z" fill="#A6A6A6"/>
<path d="M14.0061 104.628L14.8679 104.579C14.5689 103.397 15.5545 99.1577 15.5545 99.1577L15.0874 98.749C14.7955 100.244 14.6484 100.685 14.4008 100.699C14.1532 100.713 13.9991 100.288 13.6861 98.8308L13.2354 99.2979C13.2354 99.2979 14.2887 103.413 14.0061 104.628Z" fill="#DBDBDB"/>
<path d="M14.9404 104.723L15.223 107.047C15.5266 105.88 17.2433 107.232 17.2433 107.232V105.868C16.6547 105.539 16.4632 105.275 16.3815 104.604C16.2997 103.934 16.3815 103.388 16.7832 102.089L16.4866 101.003C16.4866 101.003 15.4332 105.116 14.9404 104.723Z" fill="#DBDBDB"/>
<path d="M15.1974 107.291L14.5107 108.776C14.9965 109.243 15.0736 114.311 15.0736 114.311L15.5267 113.877C15.4543 112.179 15.4847 111.574 15.6808 111.146C15.877 110.719 16.0919 110.806 16.6454 111.462L16.914 110.336C16.914 110.336 15.2207 108.748 15.1974 107.291Z" fill="#DBDBDB"/>
<path d="M14.4227 108.78L13.7221 107.379C13.7221 108.839 12.0498 110.618 12.0498 110.618L12.3347 111.711C12.8789 110.992 13.0891 110.882 13.2923 111.289C13.4955 111.695 13.5259 112.293 13.4862 113.998L13.9533 114.381C13.9533 114.381 13.9439 109.292 14.4227 108.78Z" fill="#DBDBDB"/>
<path d="M13.6868 107.136L13.9367 104.782C13.4486 105.228 12.3392 101.246 12.3392 101.246L12.0636 102.36C12.47 103.612 12.5728 104.149 12.5004 104.826C12.428 105.504 12.2388 105.789 11.6572 106.188L11.6712 107.547C11.6712 107.547 13.3668 105.994 13.6868 107.136Z" fill="#DBDBDB"/>
<path d="M13.6535 106.557C13.6535 107.814 14.0272 108.811 14.4663 108.785C14.9054 108.76 15.2557 107.723 15.2463 106.466C15.237 105.209 14.875 104.215 14.4336 104.24C13.9922 104.266 13.6442 105.303 13.6535 106.557Z" fill="#DBDBDB"/>
<path d="M76.5147 108.96C76.5918 117.492 73.5953 124.548 69.8258 124.72C69.734 124.725 69.642 124.725 69.5502 124.72H60.2617V93.8142H69.5502C73.3221 93.6437 76.4447 100.424 76.5147 108.96Z" fill="#263238"/>
<path d="M76.5147 108.96C76.5918 117.492 73.5953 124.548 69.8258 124.72C69.734 124.725 69.642 124.725 69.5502 124.72H60.2617V93.8142H69.5502C73.3221 93.6437 76.4447 100.424 76.5147 108.96Z" fill="black"/>
<path d="M60.1289 124.721C63.9005 124.721 66.958 117.801 66.958 109.266C66.958 100.731 63.9005 93.812 60.1289 93.812C56.3573 93.812 53.2998 100.731 53.2998 109.266C53.2998 117.801 56.3573 124.721 60.1289 124.721Z" fill="#263238"/>
<path d="M54.4396 109.584C54.5004 116.693 57.0881 122.219 60.2294 122.079C63.3707 121.939 65.8791 116.179 65.8161 109.07C65.753 101.96 63.1559 96.3107 60.0146 96.4579C56.8733 96.605 54.3766 102.474 54.4396 109.584Z" fill="#37474F"/>
<path d="M60.129 120.552C62.8829 120.552 65.1153 115.499 65.1153 109.266C65.1153 103.034 62.8829 97.981 60.129 97.981C57.3751 97.981 55.1426 103.034 55.1426 109.266C55.1426 115.499 57.3751 120.552 60.129 120.552Z" fill="#DBDBDB"/>
<path d="M55.5303 109.472C55.5816 115.217 57.6813 119.783 60.22 119.669C62.7587 119.554 64.7767 114.804 64.7253 109.058C64.6739 103.313 62.5742 98.747 60.0355 98.8615C57.4968 98.9759 55.4789 103.726 55.5303 109.472Z" fill="#A6A6A6"/>
<path d="M59.3953 106.69L60.8386 106.625C60.3295 105.053 61.9644 99.4198 61.9644 99.4198L61.2007 98.8779C60.7125 100.863 60.465 101.447 60.0492 101.468C59.6335 101.489 59.3766 100.924 58.8534 98.983L58.1084 99.6019C58.1084 99.6019 59.8624 105.074 59.3953 106.69Z" fill="#DBDBDB"/>
<path d="M60.9482 106.816L61.4154 109.904C61.9222 108.342 64.7996 110.149 64.7996 110.149V108.337C63.814 107.9 63.4916 107.547 63.3562 106.66C63.2207 105.772 63.3772 105.041 64.0288 103.315L63.5407 101.884C63.5407 101.884 61.775 107.337 60.9482 106.816Z" fill="#DBDBDB"/>
<path d="M61.3809 110.229L60.2295 112.214C61.0423 112.819 61.1637 119.568 61.1637 119.568L61.9228 118.989C61.8036 116.735 61.8504 115.932 62.182 115.364C62.5136 114.797 62.8686 114.909 63.7959 115.78L64.2466 114.288C64.2466 114.288 61.4159 112.165 61.3809 110.229Z" fill="#DBDBDB"/>
<path d="M60.0799 112.214L58.8935 110.345C58.8935 112.284 56.0908 114.647 56.0908 114.647L56.5696 116.102C57.4805 115.145 57.8331 115 58.1741 115.537C58.5151 116.074 58.5758 116.873 58.4964 119.141L59.2648 119.648C59.2648 119.648 59.2765 112.886 60.0799 112.214Z" fill="#DBDBDB"/>
<path d="M58.8445 110.02L59.2649 106.893C58.4615 107.486 56.593 102.196 56.593 102.196L56.1259 103.675C56.8102 105.338 56.9807 106.052 56.8593 106.944C56.7378 107.837 56.4225 108.224 55.4463 108.754L55.4696 110.562C55.4696 110.562 58.312 108.502 58.8445 110.02Z" fill="#DBDBDB"/>
<path d="M58.7932 109.252C58.8072 110.92 59.4168 112.246 60.1548 112.214C60.8929 112.181 61.4768 110.801 61.4627 109.133C61.4487 107.465 60.8368 106.141 60.0964 106.174C59.3561 106.207 58.7792 107.585 58.7932 109.252Z" fill="#DBDBDB"/>
<path d="M139.245 105.924C139.322 114.456 136.326 121.511 132.554 121.684C132.463 121.689 132.372 121.689 132.281 121.684H122.992V90.778H132.281C136.053 90.6076 139.17 97.3876 139.245 105.924Z" fill="#263238"/>
<path d="M139.245 105.924C139.322 114.456 136.326 121.511 132.554 121.684C132.463 121.689 132.372 121.689 132.281 121.684H122.992V90.778H132.281C136.053 90.6076 139.17 97.3876 139.245 105.924Z" fill="black"/>
<path d="M122.856 121.684C126.628 121.684 129.686 114.765 129.686 106.23C129.686 97.695 126.628 90.7759 122.856 90.7759C119.085 90.7759 116.027 97.695 116.027 106.23C116.027 114.765 119.085 121.684 122.856 121.684Z" fill="#263238"/>
<path d="M117.167 106.547C117.23 113.657 119.816 119.183 122.959 119.043C126.103 118.902 128.609 113.143 128.546 106.034C128.483 98.9243 125.886 93.2746 122.744 93.4218C119.603 93.5689 117.104 99.4381 117.167 106.547Z" fill="#37474F"/>
<path d="M122.856 117.515C125.61 117.515 127.843 112.463 127.843 106.23C127.843 99.9974 125.61 94.9448 122.856 94.9448C120.103 94.9448 117.87 99.9974 117.87 106.23C117.87 112.463 120.103 117.515 122.856 117.515Z" fill="#DBDBDB"/>
<path d="M122.856 116.635C125.396 116.635 127.455 111.976 127.455 106.23C127.455 100.484 125.396 95.8252 122.856 95.8252C120.317 95.8252 118.258 100.484 118.258 106.23C118.258 111.976 120.317 116.635 122.856 116.635Z" fill="#A6A6A6"/>
<path d="M122.112 103.654L123.557 103.588C123.055 102.016 124.704 96.3832 124.704 96.3832L123.94 95.8413C123.452 97.8265 123.205 98.4104 122.789 98.4314C122.373 98.4524 122.116 97.8872 121.591 95.9464L120.839 96.5653C120.839 96.5653 122.586 102.037 122.112 103.654Z" fill="#DBDBDB"/>
<path d="M123.679 103.78L124.146 106.867C124.65 105.305 127.528 107.113 127.528 107.113V105.3C126.542 104.864 126.217 104.511 126.082 103.623C125.947 102.736 126.103 102.005 126.757 100.279L126.266 98.8472C126.266 98.8472 124.503 104.301 123.679 103.78Z" fill="#DBDBDB"/>
<path d="M124.108 107.192L122.957 109.178C123.772 109.782 123.891 116.532 123.891 116.532L124.65 115.953C124.529 113.699 124.578 112.896 124.91 112.328C125.241 111.761 125.596 111.873 126.523 112.744L126.974 111.252C126.974 111.252 124.146 109.129 124.108 107.192Z" fill="#DBDBDB"/>
<path d="M122.808 109.178L121.624 107.309C121.624 109.248 118.821 111.611 118.821 111.611L119.288 113.066C120.197 112.109 120.55 111.964 120.891 112.501C121.232 113.038 121.295 113.837 121.215 116.105L121.981 116.612C121.981 116.612 122.007 109.85 122.808 109.178Z" fill="#DBDBDB"/>
<path d="M121.575 106.984L121.988 103.857C121.173 104.45 119.316 99.1602 119.316 99.1602L118.849 100.639C119.533 102.301 119.701 103.016 119.582 103.908C119.463 104.8 119.146 105.188 118.167 105.718L118.19 107.526C118.19 107.526 121.054 105.466 121.575 106.984Z" fill="#DBDBDB"/>
<path d="M121.521 106.216C121.537 107.884 122.147 109.21 122.882 109.178C123.618 109.145 124.207 107.765 124.19 106.097C124.174 104.429 123.567 103.103 122.829 103.138C122.091 103.173 121.507 104.549 121.521 106.216Z" fill="#DBDBDB"/>
<path d="M142.265 95.9092C142.111 95.0147 139.159 91.1844 139.159 91.1844C138.755 89.5991 137.984 88.131 136.907 86.8987C135.16 84.9579 130.228 83.0941 130.228 83.0941C130.228 83.0941 128.481 81.3845 124.868 80.4923C121.255 79.6002 105.181 77.9233 105.181 77.9233C99.0436 72.5655 87.7045 66.5468 87.123 66.4791C86.5414 66.4114 81.5317 65.0778 68.483 65.0031C55.4344 64.9283 45.9591 66.2479 45.7279 66.3623C45.4967 66.4768 43.1588 68.3055 43.2032 68.4643C43.2475 68.6231 47.1245 81.3845 47.1245 81.3845L21.8049 79.5605C21.8049 79.5605 20.0183 79.6749 19.787 79.7146C19.5558 79.7543 19.2032 80.3102 19.2032 80.3102C14.9571 81.0342 10.195 85.021 9.57373 85.9015C8.95248 86.782 7.86412 91.5978 7.76135 91.8571C7.65859 92.1163 6.98362 95.1268 6.88086 95.8439C6.77809 96.5609 8.33122 105.674 8.4807 105.94C8.63017 106.207 10.3958 107.342 10.3958 107.342C9.98245 105.116 9.25843 93.1556 12.4161 93.0949C17.594 93.0108 19.1471 111.838 19.1471 111.838L53.0615 116.042C51.5597 111.382 50.0066 91.3012 57.7722 91.3012C65.5379 91.3012 69.1136 116.506 69.4756 116.56C69.8376 116.614 79.6236 117.697 81.2281 117.595C82.8326 117.492 139.892 112.223 140.28 112.106C140.668 111.989 141.329 110.513 141.408 110.238C141.487 109.962 141.251 108.491 141.251 108.491C141.251 108.491 142.422 96.7991 142.265 95.9092ZM104.275 77.9256C103.965 77.977 52.3935 79.4787 51.6671 79.5184C50.9408 79.5581 46.3701 66.757 46.6574 66.6379C47.0334 66.4838 55.0046 65.4001 66.4768 65.2927C76.2861 65.2016 86.8777 66.4604 87.2257 66.6519C95.5099 71.2553 104.586 77.8812 104.275 77.9279V77.9256Z" fill="#D3766A"/>
<path d="M142.265 95.9095C142.11 95.0149 139.158 91.1847 139.158 91.1847C138.754 89.5993 137.983 88.1312 136.907 86.8989C135.16 84.9581 130.227 83.0944 130.227 83.0944C130.227 83.0944 128.48 81.3847 124.867 80.4926C122.221 79.8363 112.884 78.7643 108.082 78.2388C106.339 78.0473 105.172 77.9281 105.172 77.9281C99.0338 72.5704 87.6947 66.5517 87.1132 66.484C86.5316 66.4163 81.5219 65.0827 68.4732 65.0079C55.4246 64.9332 45.9493 66.2528 45.7181 66.3672C45.5756 66.4396 44.6577 67.1426 43.9688 67.7195C43.525 68.0885 43.177 68.4038 43.1934 68.4645C43.2307 68.621 47.1147 81.3964 47.1147 81.3964L21.7952 79.5724C21.7952 79.5724 20.0085 79.6868 19.7772 79.7265C19.546 79.7662 19.1934 80.3221 19.1934 80.3221C14.9474 81.0461 10.1852 85.0329 9.56394 85.9134C8.94268 86.7939 7.85432 91.6097 7.75156 91.869C7.6488 92.1282 6.97383 95.1387 6.87106 95.8557C6.7683 96.5728 8.33077 105.674 8.48025 105.941C8.62972 106.207 10.3954 107.342 10.3954 107.342C9.982 105.116 9.25798 93.1559 12.4156 93.0951C17.5935 93.0111 19.1467 111.838 19.1467 111.838L53.061 116.042C51.5593 111.382 50.0061 91.3014 57.7718 91.3014C65.5375 91.3014 69.1132 116.507 69.4752 116.56C69.8372 116.614 79.6231 117.698 81.2276 117.595C82.8321 117.492 139.892 112.223 140.279 112.106C140.667 111.99 141.328 110.514 141.407 110.238C141.487 109.962 141.251 108.491 141.251 108.491C141.251 108.491 142.421 96.7993 142.265 95.9095ZM51.6667 79.5163C51.1646 79.5443 48.8173 73.4089 47.5164 69.5973C46.9396 67.9063 46.5682 66.6732 46.657 66.6358C47.033 66.4817 55.0042 65.398 66.4764 65.2905C76.2856 65.1995 86.8773 66.4583 87.2253 66.6498C95.5094 71.2508 104.585 77.8721 104.275 77.9235C104.214 77.9235 102.173 78.0005 98.903 78.0986C85.6324 78.5144 52.2506 79.4883 51.6667 79.5163Z" fill="#D3766A"/>
<path d="M142.263 95.9095C142.189 95.6427 142.075 95.3884 141.926 95.1551C141.118 93.7304 139.156 91.1847 139.156 91.1847C138.752 89.5993 137.981 88.1312 136.905 86.8989C135.158 84.9581 130.225 83.0944 130.225 83.0944C130.225 83.0944 128.478 81.3847 124.865 80.4926C122.219 79.8363 112.882 78.7643 108.08 78.2388C106.34 78.0473 105.172 77.9281 105.172 77.9281C99.0341 72.5704 87.6951 66.5517 87.1136 66.484C86.532 66.4163 81.5223 65.0827 68.4736 65.0079C55.425 64.9332 45.9497 66.2528 45.7185 66.3672C45.576 66.4396 44.6581 67.1426 43.9691 67.7195C43.5254 68.0885 43.1774 68.4038 43.1937 68.4645C43.2311 68.621 47.1151 81.3964 47.1151 81.3964L21.7932 79.5607C21.7932 79.5607 20.0065 79.6751 19.7753 79.7148C19.5441 79.7545 19.1914 80.3104 19.1914 80.3104C14.9454 81.0344 10.1832 85.0212 9.56198 85.9017C9.34945 86.2053 9.08086 86.9713 8.81461 87.8565C8.31014 89.5521 7.81734 91.6868 7.74961 91.8573C7.64684 92.1165 6.97187 95.1271 6.86911 95.8441C6.76634 96.5611 8.32882 105.674 8.48063 105.941C8.63244 106.207 10.3958 107.342 10.3958 107.342C10.0711 105.595 9.55498 97.855 10.8746 94.5782C11.2366 93.679 11.7364 93.1161 12.416 93.1045C14.518 93.0694 16.0151 96.1407 17.0591 99.7981C18.5958 105.17 19.147 111.847 19.147 111.847L53.0614 116.051C52.0595 112.94 51.0342 102.953 52.7718 96.6662C53.6383 93.5342 55.1914 91.3178 57.7722 91.3178C60.5281 91.3178 62.7562 94.4918 64.5009 98.5907C67.6725 106.039 69.242 116.542 69.4756 116.574C69.8376 116.626 79.6235 117.712 81.228 117.609C82.8325 117.506 139.892 112.237 140.28 112.12C140.667 112.004 141.328 110.528 141.408 110.252C141.487 109.976 141.251 108.505 141.251 108.505C141.251 108.505 142.419 96.7993 142.263 95.9095ZM104.273 77.9258C104.212 77.9258 102.171 78.0029 98.901 78.101C85.6211 78.512 52.2393 79.4859 51.6554 79.5186C51.1533 79.5467 48.806 73.4112 47.5052 69.5996C46.9283 67.9087 46.5569 66.6755 46.6457 66.6381C47.0217 66.484 54.9929 65.4003 66.4651 65.2929C76.2743 65.2018 86.866 66.4606 87.214 66.6522C95.5075 71.2555 104.583 77.8814 104.273 77.9281V77.9258Z" fill="#D3766A"/>
<path d="M97.7239 92.3731C97.6421 91.7635 80.2867 88.8698 76.7531 88.6829C73.2194 88.4961 68.7141 88.4494 68.0929 88.5288C67.4716 88.6082 64.8932 89.7713 65.1151 89.8881C65.3369 90.0048 70.8908 93.7324 73.182 94.3536C75.4732 94.9749 92.247 95.2878 93.2676 95.2084C94.2883 95.129 97.8009 92.9546 97.7239 92.3731Z" fill="white"/>
<path d="M68.1251 90.2458C68.326 90.3555 73.3661 93.8332 75.4471 94.4124C77.2711 94.9215 89.2267 95.2065 92.73 95.2205C89.6798 95.2345 75.2836 94.9262 73.1722 94.354C70.8811 93.7327 65.3272 90.0052 65.1053 89.8884C64.8834 89.7717 67.4619 88.6062 68.0831 88.5292C68.7044 88.4521 73.2096 88.4895 76.7433 88.6833C80.277 88.8772 97.6323 91.7639 97.7141 92.3735C97.717 92.4241 97.7048 92.4745 97.6791 92.5183C96.8546 91.8643 81.7974 89.2999 78.6794 89.1224C75.4728 88.9425 71.3832 88.9052 70.8204 88.9776C70.2575 89.05 67.9243 90.136 68.1251 90.2458Z" fill="#EBEBEB"/>
<g opacity="0.1">
<path d="M10.8793 94.5735C9.55969 97.8432 10.0758 105.59 10.4122 107.337C10.4122 107.337 8.6535 106.2 8.49702 105.936C8.34054 105.672 6.77806 96.5657 6.88083 95.844C6.98359 95.1223 7.65856 92.1071 7.76132 91.8572C7.82906 91.6867 8.32186 89.552 8.82633 87.8564C9.32407 90.1483 10.0107 92.395 10.8793 94.5735Z" fill="black"/>
<path d="M53.0658 116.037L19.1514 111.833C19.1514 111.833 18.6003 105.165 17.0635 99.7841C17.2045 99.6738 17.3274 99.5422 17.4278 99.3941C17.4278 99.3941 19.7867 91.1216 20.2141 90.7339C20.6415 90.3462 48.0187 93.338 48.3293 93.317C48.64 93.296 52.6501 96.5354 52.7669 96.6358C51.0386 102.939 52.0639 112.926 53.0658 116.037Z" fill="black"/>
<path d="M141.256 108.491C141.256 108.491 141.49 109.967 141.413 110.238C141.336 110.509 140.675 111.985 140.285 112.106C139.895 112.228 82.8305 117.492 81.233 117.595C79.6355 117.698 69.8426 116.612 69.4806 116.56C69.247 116.525 67.6775 106.022 64.5059 98.5766C65.7087 98.7611 66.5518 98.8779 66.6966 98.8685C67.3178 98.8288 73.9998 101.08 73.9998 101.08C73.9998 101.08 74.3945 99.3707 75.5156 99.06C76.6366 98.7494 98.1119 99.9545 99.6277 99.7607C101.143 99.5668 104.282 93.1208 104.282 93.1208L129.462 92.0254C129.462 92.0254 132.103 96.568 132.998 97.1122C133.892 97.6564 137.256 96.3742 138.991 95.7926C140.493 95.2858 141.49 95.0639 141.941 95.155C142.09 95.3884 142.203 95.6426 142.277 95.9094C142.422 96.7992 141.256 108.491 141.256 108.491Z" fill="black"/>
</g>
<path d="M130.305 90.5865C130.401 90.9415 132.363 93.0715 132.75 93.1112C133.138 93.1509 137.917 92.0625 138.188 91.85C138.597 91.5079 138.872 91.0323 138.965 90.5071C139.082 89.8484 138.421 87.3261 137.798 86.7819C137.174 86.2377 135.665 85.8477 135.665 85.8477C135.665 85.8477 134.07 87.5596 133.021 88.2976C131.973 89.0357 130.247 90.3739 130.305 90.5865Z" fill="white"/>
<path d="M138.965 90.5069C138.872 91.0322 138.596 91.5078 138.187 91.8499C137.916 92.0624 133.14 93.1508 132.75 93.1111C132.723 93.1062 132.696 93.0975 132.671 93.0854C133.647 92.9382 136.91 92.1769 137.108 92.011C137.461 91.7123 137.699 91.299 137.778 90.8433C137.879 90.2687 137.311 88.071 136.772 87.5969C136.232 87.1228 134.929 86.7818 134.929 86.7818C134.929 86.7818 133.551 88.2742 132.645 88.9164C131.886 89.4536 130.711 90.3621 130.384 90.7522C130.347 90.7011 130.317 90.6454 130.295 90.5864C130.237 90.3738 131.965 89.0332 133.014 88.2952C134.063 87.5572 135.658 85.8452 135.658 85.8452C135.658 85.8452 137.169 86.2376 137.79 86.7794C138.411 87.3213 139.082 89.8483 138.965 90.5069Z" fill="#EBEBEB"/>
<path d="M100.667 92.4924C101.293 91.9552 128.385 90.6637 129.282 90.8715C129.432 90.9066 131.288 93.8727 131.12 94.3398C129.852 97.8618 128.042 103.147 127.689 103.437C127.337 103.726 108.65 104.81 107.837 104.81C106.88 104.81 101.064 98.7774 98.4763 95.9981C98.1376 95.6314 99.95 93.1113 100.667 92.4924Z" fill="#263238"/>
<path opacity="0.2" d="M131.12 94.3422C129.852 97.8618 128.042 103.147 127.689 103.437C127.307 103.534 126.916 103.591 126.522 103.607C127.182 102.098 128.598 98.002 129.644 95.0849C129.815 94.6178 127.958 91.6516 127.806 91.6166C127 91.4274 105.035 92.4527 100.142 93.0529C100.304 92.8545 100.48 92.668 100.669 92.4948C101.293 91.9552 128.388 90.6637 129.284 90.8715C129.432 90.9066 131.288 93.8727 131.12 94.3422Z" fill="black"/>
<path d="M130.048 91.9831L128.434 92.0766L128.201 92.0906L124.356 92.3241L124.123 92.3381L108.068 93.2724L107.821 93.2864L102.701 93.583L102.451 93.597L99.5996 93.7628C99.658 93.6834 99.7164 93.604 99.7771 93.5293L102.556 93.3681L102.804 93.3541L107.923 93.0575L108.171 93.0435L124.022 92.1256L124.256 92.1116L128.1 91.878L128.334 91.864L129.917 91.7729L130.048 91.9831Z" fill="#37474F"/>
<path d="M131.117 94.1435L129.436 94.2416L129.202 94.2556L125.356 94.4775L125.122 94.4915L107.04 95.5401L106.79 95.5541L101.669 95.8508L101.419 95.8648L98.511 96.0353L98.476 95.9979C98.4576 95.9717 98.4448 95.942 98.4384 95.9107C98.4319 95.8793 98.432 95.847 98.4386 95.8157L101.521 95.6382L101.771 95.6242L106.889 95.3299L107.138 95.3136L125.024 94.2766L125.258 94.2626L129.102 94.0407L129.335 94.0267L131.052 93.9263C131.079 93.9971 131.101 94.0697 131.117 94.1435Z" fill="#37474F"/>
<path d="M130.395 96.332L130.428 96.3997H130.37L130.192 96.4114L126.346 96.6333L126.112 96.6473L105.998 97.8151L105.751 97.8291L100.631 98.1257H100.493H100.384L100.421 98.044C100.379 97.9996 100.335 97.9552 100.295 97.9108L100.484 97.8992L100.734 97.8851L105.854 97.5885L106.101 97.5745L126.014 96.4208L126.247 96.4067L130.094 96.1732L130.328 96.1592H130.451L130.395 96.332Z" fill="#37474F"/>
<path d="M129.653 98.4551L129.574 98.6886L127.357 98.8171L127.124 98.8311L104.98 100.116L104.733 100.13L102.558 100.256C102.488 100.188 102.421 100.118 102.351 100.048L104.833 99.9031L105.081 99.8891L127.035 98.6186L127.268 98.6046L129.653 98.4551Z" fill="#37474F"/>
<path d="M128.831 100.725L128.747 100.959L128.36 100.982L128.126 100.996L104.705 102.346L104.483 102.136L128.021 100.769L128.255 100.755L128.831 100.725Z" fill="#37474F"/>
<path d="M108.741 91.752L108.164 93.0295L108.061 93.263L107.127 95.316L107.024 95.5495L106.09 97.6048L105.987 97.8384L105.053 99.896L104.953 100.13L104.163 101.881L103.995 101.72L104.696 100.144L104.796 99.91L105.73 97.8524L105.833 97.6188L106.767 95.5635L106.87 95.33L107.804 93.2747L107.907 93.0412L108.482 91.7636L108.741 91.752Z" fill="#37474F"/>
<path d="M103.338 92.1279L102.796 93.3307L102.694 93.5643L101.759 95.6172L101.657 95.8508L100.722 97.9061L100.62 98.1396L100.573 98.2424L100.482 98.1466H100.372L100.409 98.0649L100.472 97.9201L101.407 95.8648L101.509 95.6312L102.444 93.576L102.549 93.3424L103.086 92.1489L103.338 92.1279Z" fill="#37474F"/>
<path d="M128.569 101.431C128.529 101.529 128.494 101.624 128.457 101.718L128.121 100.989L128.02 100.772L127.126 98.8217L127.027 98.6092L126.124 96.6567L126.026 96.4418L125.124 94.4916L125.024 94.2768L124.122 92.3266L124.022 92.1117L123.508 91H123.741L124.253 92.107L124.353 92.3219L125.255 94.2721L125.353 94.487L126.254 96.4371L126.355 96.652L127.256 98.6045L127.357 98.817L128.258 100.767L128.359 100.984L128.569 101.431Z" fill="#37474F"/>
<path d="M130.438 96.4066H130.38C130.354 96.4813 130.328 96.5584 130.3 96.6402L130.202 96.4253L130.102 96.2104L129.2 94.2602L129.1 94.0454L128.198 92.0952L128.098 91.878L127.631 90.8667H127.864L128.332 91.8686L128.432 92.0859L129.333 94.036L129.434 94.2509L130.335 96.2011L130.403 96.3482L130.438 96.4066Z" fill="#37474F"/>
<path d="M127.934 103C127.894 103.089 127.857 103.166 127.824 103.234L107.099 104.434C107.012 104.373 106.921 104.303 106.823 104.228L127.934 103Z" fill="#37474F"/>
<path d="M75.8982 100.01C75.0224 100.031 74.4969 103.376 74.191 107.545C73.885 111.714 73.9014 113.732 74.5763 114.042C75.2513 114.353 77.8157 114.404 78.2291 114.404C78.6425 114.404 92.9851 111.602 93.3494 111.17C93.7137 110.738 91.9481 104.074 91.4062 103.504C90.8644 102.935 76.9866 99.9847 75.8982 100.01Z" fill="#263238"/>
<path d="M93.3497 111.17C93.2446 111.298 91.9484 111.637 90.164 112.027C85.8152 113.001 78.5237 114.407 78.2294 114.407C77.816 114.407 75.2539 114.353 74.579 114.042C73.904 113.732 73.8783 111.707 74.1913 107.545C74.5042 103.383 75.0251 100.032 75.9009 100.013C76.6786 99.9942 83.8043 101.47 88.1228 102.521C89.9211 102.965 91.2337 103.339 91.3925 103.504C91.9507 104.077 93.7117 110.731 93.3497 111.17Z" fill="#263238"/>
<path opacity="0.2" d="M93.3493 111.17C93.2442 111.298 91.9479 111.637 90.1636 112.027C92.1558 110.67 91.7447 109.189 91.3173 107.195C90.8899 105.2 89.1453 102.79 88.1387 102.523C89.937 102.967 91.2496 103.341 91.4084 103.507C91.9503 104.077 93.7113 110.731 93.3493 111.17Z" fill="black"/>
<path d="M90.1639 103.054H78.8506V102.586H88.3889C89.0732 102.757 89.6781 102.916 90.1639 103.054Z" fill="#37474F"/>
<path d="M92.3427 106.017H79.2637V105.55H92.2049C92.2493 105.702 92.296 105.859 92.3427 106.017Z" fill="#37474F"/>
<path d="M93.0788 108.878H79.2617V108.411H92.9713C93.0087 108.57 93.0437 108.726 93.0788 108.878Z" fill="#37474F"/>
<path d="M92.978 111.326C92.6067 111.445 91.9807 111.604 91.1913 111.793H78.4463V111.326H92.978Z" fill="#37474F"/>
<path d="M79.4532 108.743C79.4369 108.862 77.6245 113.351 77.2088 114.379C76.2746 114.339 75.0227 114.245 74.579 114.042C73.904 113.732 73.8783 111.707 74.1913 107.545C74.5042 103.383 75.0251 100.031 75.9009 100.013C76.7353 100.096 77.5642 100.227 78.3836 100.405C78.6358 101.395 79.6307 105.324 79.6471 105.543C79.6634 105.763 79.4813 108.607 79.4532 108.743Z" fill="#C7C7C7"/>
<path d="M78.9604 108.507C78.9604 108.608 77.6151 112.379 77.3115 113.241C76.6389 113.206 75.728 113.122 75.4081 112.949C74.9199 112.685 74.9129 110.985 75.1558 107.477C75.3987 103.969 75.7958 101.157 76.4287 101.146C77.0341 101.219 77.6341 101.332 78.2247 101.484C78.4022 102.32 79.1052 105.63 79.1169 105.821C79.1286 106.013 78.9744 108.393 78.9604 108.507Z" fill="#A6A6A6"/>
<path opacity="0.1" d="M77.2599 113.241C76.5967 113.202 75.7208 113.117 75.4079 112.949C74.9221 112.685 74.9127 110.987 75.158 107.479C75.4032 103.972 75.7956 101.157 76.4285 101.146C76.7007 101.168 76.9709 101.211 77.2366 101.274C76.6784 101.645 76.3234 104.31 76.0969 107.559C75.8633 111.062 75.8633 112.767 76.3491 113.031C76.6403 113.147 76.9474 113.218 77.2599 113.241Z" fill="black"/>
<path d="M134.188 107.867C134.506 108.25 140.401 109.189 140.828 108.839C141.256 108.488 142.265 96.8784 142.071 96.3739C141.877 95.8695 136.596 100.024 136.286 100.536C135.975 101.047 133.798 107.402 134.188 107.867Z" fill="#263238"/>
<path opacity="0.2" d="M142.027 98.3405C142.027 98.49 142.008 98.6465 141.996 98.8076C141.947 99.5503 141.88 100.407 141.805 101.304L141.763 101.771C141.693 102.568 141.616 103.385 141.529 104.165C141.511 104.322 141.497 104.478 141.48 104.632C141.382 105.543 141.282 106.389 141.186 107.08C141.165 107.244 141.142 107.4 141.121 107.547C141.008 108.29 140.903 108.773 140.822 108.841C140.642 108.988 139.486 108.907 138.189 108.736C138.189 108.736 139.43 108.502 139.609 108.456C139.789 108.409 140.362 104.637 140.621 101.958C140.88 99.2794 140.439 97.376 140.154 97.404C141.167 96.6893 142.001 96.1895 142.076 96.3833C142.118 96.4955 142.094 97.2522 142.027 98.3405Z" fill="black"/>
<path d="M142.027 98.3403C142.027 98.4898 142.008 98.6463 141.997 98.8074H138.26C138.456 98.6533 138.659 98.4945 138.865 98.3403H142.027Z" fill="#37474F"/>
<path d="M141.805 101.304L141.763 101.771H135.791C135.852 101.603 135.91 101.447 135.964 101.304H141.805Z" fill="#37474F"/>
<path d="M141.537 104.166C141.518 104.322 141.504 104.478 141.488 104.633H134.848C134.894 104.478 134.941 104.322 134.99 104.166H141.537Z" fill="#37474F"/>
<path d="M141.193 107.076C141.172 107.239 141.148 107.396 141.127 107.543H134.146C134.157 107.386 134.178 107.23 134.21 107.076H141.193Z" fill="#37474F"/>
<g opacity="0.1">
<path d="M19.5537 80.4899C27.9313 81.0948 39.6393 82.1247 47.9048 82.4447L47.7997 82.5218L48.073 81.4941C48.1244 81.7744 45.992 74.5739 46.0037 74.6393L43.9624 67.7168L46.1321 74.6113C46.1321 74.6463 48.2762 81.4965 48.2785 81.5292V81.5572L48.0099 82.5872L47.9889 82.6666H47.9048C38.4319 82.3069 28.987 81.4171 19.5607 80.5039L19.5537 80.4899Z" fill="black"/>
<path d="M51.6667 79.5161L51.4611 80.9945C51.4168 80.9058 52.5869 82.8466 52.5729 82.8256C54.2918 83.0077 56.5433 83.3931 58.4351 83.6687C61.3848 84.1358 64.3346 84.5819 67.2681 85.1494C70.1898 85.8221 72.8874 87.2234 75.5102 88.6247C72.8407 87.3332 70.1384 85.9996 67.2237 85.355C66.2498 85.1681 65.2665 85.0046 64.2879 84.8411C64.2202 84.8061 52.4934 82.9587 52.4654 82.8886C52.4654 82.8886 51.4027 81.0085 51.4004 80.9992C51.3981 80.9898 51.662 79.5278 51.662 79.5208L51.6667 79.5161Z" fill="black"/>
<path d="M65.1147 89.8882C64.414 90.4113 63.6947 90.8714 62.973 91.3362C62.7949 91.4333 62.632 91.5561 62.4895 91.7006C62.1159 92.212 61.8122 92.7889 61.4619 93.3354C61.7305 92.6675 61.9641 91.9762 62.4312 91.4273C63.2756 90.8354 64.1714 90.3203 65.1077 89.8882H65.1147Z" fill="black"/>
<path d="M87.9307 90.271C92.0576 89.5143 97.9291 88.4376 102.042 87.7533C102.515 87.6703 102.994 87.625 103.474 87.6178L104.908 87.5571C110.074 87.3235 119.759 86.9568 124.961 86.777C125.895 86.6929 126.887 86.8844 127.819 87.0106C129.706 87.3025 131.591 87.6178 133.476 87.9448C131.587 87.6622 129.695 87.3819 127.803 87.1273C126.869 87.0082 125.9 86.8261 124.961 86.9218C119.066 87.1951 109.35 87.6038 103.49 87.8233C103.015 87.827 102.541 87.8691 102.072 87.9494C100.176 88.2554 90.0326 89.923 87.9307 90.2686V90.271Z" fill="black"/>
<path d="M47.9001 82.5522L47.0523 84.1614C46.8608 84.5678 46.5969 84.9485 46.5292 85.3993C46.1718 87.59 45.8846 89.9419 45.595 92.149C45.559 92.3676 45.5387 92.5885 45.5342 92.8099C45.637 94.0875 45.8028 95.365 45.9453 96.6426L46.7581 103.883C46.7581 104.511 46.6857 105.102 46.6436 105.711C46.5595 106.755 46.4101 108.299 46.354 109.334C46.3237 109.887 46.4451 110.59 46.4731 111.144L46.361 110.24C46.2139 109.341 46.3493 108.421 46.382 107.514C46.4381 106.44 46.5689 104.945 46.5782 103.897C46.2816 101.094 45.4525 95.323 45.3311 92.5834C45.6253 90.3319 45.971 88.0735 46.354 85.836C46.4453 85.2298 46.6686 84.651 47.008 84.1404C47.2999 83.6102 47.6035 83.0848 47.9095 82.5616L47.9001 82.5522Z" fill="black"/>
<path d="M52.2556 111.842C44.957 111.057 37.4903 110.254 30.2291 109.175C29.9364 109.141 29.6496 109.067 29.3767 108.955C28.1225 108.236 27.1626 107.124 26.205 106.071C26.4549 106.171 22.1388 105.235 22.1879 105.258L18.124 104.396L22.2089 105.153L26.2867 105.931H26.3148L26.3358 105.952C27.291 106.968 28.2486 108.054 29.4677 108.755C29.5902 108.812 29.7198 108.853 29.8531 108.876C36.6892 109.901 45.3961 110.885 52.2556 111.828V111.842Z" fill="black"/>
<path d="M26.2699 106.015C26.02 104.969 25.7888 103.913 25.5693 102.862C25.3497 101.811 25.233 100.746 24.9714 99.6926C24.5767 97.7985 23.3365 92.6183 23.0609 90.7919C23.0507 90.7139 23.0554 90.6346 23.0749 90.5583C23.4762 89.1257 23.9533 87.7154 24.5043 86.3334C25.4642 84.6985 26.6296 83.2107 27.711 81.6623C27.8463 81.3519 28.018 81.0587 28.2224 80.7888C28.7263 80.5399 29.2432 80.3185 29.7709 80.1255C29.2641 80.359 28.7386 80.5622 28.2575 80.8378C28.07 81.1117 27.9133 81.4054 27.7904 81.7137C26.9496 83.0075 25.4198 85.0908 24.6911 86.4128C24.2007 87.6576 23.7873 88.9445 23.4019 90.222C23.3368 90.4012 23.3005 90.5897 23.2945 90.7802C23.8293 93.737 24.565 96.7032 25.1419 99.6553C25.3754 100.699 25.4735 101.778 25.6767 102.841C25.8799 103.904 26.0761 104.957 26.2793 106.013L26.2699 106.015Z" fill="black"/>
<path d="M11.5957 84.0725C13.338 83.7596 15.099 83.5073 16.8437 83.2644C17.257 83.1294 17.6618 82.9695 18.0558 82.7856C18.7098 82.496 19.3614 82.1924 19.999 81.8701C20.6284 81.3145 21.2097 80.7067 21.7366 80.053C21.8859 79.8571 22.0775 79.6974 22.2971 79.5859C22.0937 79.715 21.9189 79.8843 21.7833 80.0834C21.3191 80.7345 20.8028 81.3468 20.2395 81.9145C19.9606 82.1101 19.6624 82.2767 19.3497 82.4119C18.5299 82.7926 17.7615 83.2294 16.8834 83.4793C15.1247 83.7128 13.3801 83.9114 11.6027 84.0655L11.5957 84.0725Z" fill="black"/>
<path d="M7.64198 92.289C8.16125 92.8145 8.64868 93.3706 9.1017 93.9542C9.55479 94.5357 9.94015 95.15 10.5567 95.5891C9.85607 95.3135 9.38897 94.6829 8.92186 94.1013C8.45858 93.5226 8.03041 92.9166 7.63965 92.2866L7.64198 92.289Z" fill="black"/>
<path d="M107.603 113.898C105.968 113.898 104.735 113.785 104.223 113.489C102.731 112.625 95.6285 100.354 95.5515 99.7091C95.4744 99.0645 96.2218 96.8598 96.2521 96.7664L96.4717 96.8434C96.2078 97.6118 95.7243 99.1953 95.771 99.6835C95.8481 100.288 102.969 112.506 104.328 113.29C105.594 114.021 111.924 113.536 117.508 113.106L118.909 112.998C124.956 112.531 129.954 111.77 130.421 111.644C130.837 111.375 133.175 105.093 134.022 102.131C134.882 99.1276 135.113 97.3269 135.113 97.1938C135.113 96.8598 134.298 95.8578 133.784 95.3043L133.955 95.1455C134.097 95.2973 135.356 96.6589 135.356 97.1938C135.356 97.4273 135.069 99.3588 134.256 102.196C133.555 104.679 131.035 111.721 130.493 111.868C130.026 111.996 124.998 112.772 118.937 113.232L117.536 113.339C113.918 113.615 110.223 113.898 107.603 113.898Z" fill="black"/>
</g>
<path d="M45.2252 75.1323C45.0454 75.2094 43.7655 79.7917 43.7655 79.7917C43.7655 79.7917 40.2622 80.4714 40.017 80.4924C39.7431 80.5614 39.4809 80.6708 39.2393 80.817L47.124 81.3846L45.2252 75.1323Z" fill="#263238"/>
<path d="M44.2892 80.1327L43.028 79.8104C43.028 79.8104 43.007 76.4706 43.028 76.3935C43.049 76.3165 40.62 75.3449 39.9778 75.2678C39.3355 75.1907 33.221 75.7139 32.3289 76.3352C31.4367 76.9564 32.796 80.3943 33.2024 80.7236C33.6087 81.0529 39.5317 81.2468 39.8236 81.2468C40.1156 81.2468 44.2892 80.8778 44.2892 80.8778V80.1327Z" fill="#D3766A"/>
<path opacity="0.2" d="M32.5371 77.7693C35.7605 77.5567 38.9945 77.5567 42.2179 77.7693C39.0053 78.199 35.7497 78.199 32.5371 77.7693Z" fill="black"/>
<path opacity="0.1" d="M44.2888 80.1326V80.88C44.2888 80.88 40.1151 81.249 39.8232 81.249C39.5313 81.249 33.6107 81.0551 33.2019 80.7235C32.8937 80.4736 32.0342 78.4206 32.0342 77.1828V77.1548C32.2234 77.6616 35.4417 79.3642 37.9431 79.6748C40.4445 79.9855 43.0229 78.2595 43.0229 78.2595C43.0229 79.0582 43.0229 79.8126 43.0229 79.8126L44.2888 80.1326Z" fill="black"/>
<path opacity="0.4" d="M43.0277 76.3937C41.8435 76.3937 34.601 76.6272 32.6182 76.1975C34.1176 75.6393 39.3912 75.1979 39.9798 75.2633C40.6174 75.3474 43.0277 76.3096 43.0277 76.3937Z" fill="white"/>
<path d="M104.275 77.9277C104.214 77.9277 102.173 78.0048 98.9032 78.1028C97.0698 76.9117 85.1235 69.1741 84.7452 69.125C84.3668 69.076 76.1504 68.1418 69.3656 68.3496C63.6459 68.5248 51.3469 69.3236 47.5073 69.6015C46.9304 67.9106 46.5591 66.6774 46.6478 66.64C47.0239 66.4859 54.9951 65.4022 66.4672 65.2947C76.2765 65.2037 86.8682 66.4625 87.2162 66.654C95.5097 71.255 104.586 77.881 104.275 77.9277Z" fill="#D3766A"/>
<path opacity="0.4" d="M104.275 77.9277C104.214 77.9277 102.173 78.0048 98.9032 78.1028C97.0698 76.9117 85.1235 69.1741 84.7452 69.125C84.3668 69.076 76.1504 68.1418 69.3656 68.3496C63.6459 68.5248 51.3469 69.3236 47.5073 69.6015C46.9304 67.9106 46.5591 66.6774 46.6478 66.64C47.0239 66.4859 54.9951 65.4022 66.4672 65.2947C76.2765 65.2037 86.8682 66.4625 87.2162 66.654C95.5097 71.255 104.586 77.881 104.275 77.9277Z" fill="black"/>
<path d="M98.5791 105.008C98.5791 105.008 103.122 112.916 104.521 113.538C105.92 114.159 129.254 111.945 130.303 111.557C131.351 111.169 133.477 102.315 133.477 102.315C133.477 102.315 130.457 103.595 130.303 103.752C130.149 103.908 129.369 104.945 129.217 105.008C129.065 105.071 106.539 106.818 106.228 106.781C105.917 106.744 105.025 105.459 104.869 105.422C104.712 105.384 99.0439 104.945 98.5791 105.008Z" fill="#263238"/>
<g opacity="0.2">
<path d="M128.791 105.053C128.56 105.374 128.299 105.672 128.011 105.942C127.854 106.008 105.331 107.755 105.02 107.715C104.709 107.675 103.817 106.395 103.661 106.356C103.558 106.33 100.993 106.122 99.1647 106.012C98.8004 105.398 98.5762 105.008 98.5762 105.008C99.0433 104.945 104.712 105.382 104.868 105.422C105.025 105.461 105.917 106.741 106.227 106.781C106.538 106.821 125.678 105.333 128.791 105.053Z" fill="black"/>
<path d="M133.477 102.315C133.477 102.315 131.354 111.169 130.303 111.557C130.103 111.612 129.9 111.651 129.695 111.676C130.793 109.406 132.264 103.25 132.264 103.25C132.264 103.25 130.784 103.878 129.842 104.308C130.046 104.058 130.23 103.822 130.31 103.752C130.457 103.598 133.477 102.315 133.477 102.315Z" fill="black"/>
</g>
<path d="M131.017 110.49C130.938 110.672 130.858 110.836 130.784 110.976L104.004 113.132C103.881 113.01 103.748 112.863 103.607 112.697L131.017 110.49Z" fill="#37474F"/>
<path d="M131.627 108.888C131.571 109.051 131.515 109.212 131.459 109.366L102.802 111.674C102.699 111.532 102.591 111.384 102.486 111.233L131.627 108.888Z" fill="#37474F"/>
<path d="M132.134 107.292C132.087 107.451 132.038 107.61 131.989 107.76L101.781 110.203C101.683 110.058 101.587 109.908 101.489 109.761L132.134 107.292Z" fill="#37474F"/>
<path d="M132.594 105.702C132.549 105.859 132.505 106.017 132.458 106.169L100.826 108.727C100.73 108.577 100.639 108.43 100.548 108.283L132.594 105.702Z" fill="#37474F"/>
<path d="M106.137 106.746L99.9076 107.246C99.8119 107.092 99.7231 106.945 99.6367 106.802L105.679 106.316C105.812 106.479 105.966 106.623 106.137 106.746Z" fill="#37474F"/>
<path d="M133.023 104.114L132.897 104.581L129.368 104.866C129.483 104.745 129.639 104.556 129.793 104.366L133.023 104.114Z" fill="#37474F"/>
<path d="M27.726 85.3161L27.8528 85.3364C28.2125 85.3942 28.5344 85.5925 28.7478 85.8877C28.9612 86.1828 29.0486 86.5506 28.9908 86.9102L28.7811 88.2154C28.7232 88.5756 28.5246 88.8981 28.2289 89.1119C27.9333 89.3257 27.5648 89.4132 27.2046 89.3553L27.0801 89.3353C26.7205 89.2775 26.3985 89.0793 26.1851 88.7841C25.9717 88.489 25.8843 88.1211 25.9421 87.7615L26.1518 86.4564C26.1802 86.2781 26.2434 86.1071 26.3379 85.9532C26.4324 85.7994 26.5563 85.6657 26.7025 85.5598C26.8487 85.4539 27.0144 85.3778 27.19 85.336C27.3656 85.2942 27.5478 85.2874 27.726 85.3161Z" fill="#D3766A"/>
<path opacity="0.1" d="M27.726 85.3161L27.8528 85.3364C28.2125 85.3942 28.5344 85.5925 28.7478 85.8877C28.9612 86.1828 29.0486 86.5506 28.9908 86.9102L28.7811 88.2154C28.7232 88.5756 28.5246 88.8981 28.2289 89.1119C27.9333 89.3257 27.5648 89.4132 27.2046 89.3553L27.0801 89.3353C26.7205 89.2775 26.3985 89.0793 26.1851 88.7841C25.9717 88.489 25.8843 88.1211 25.9421 87.7615L26.1518 86.4564C26.1802 86.2781 26.2434 86.1071 26.3379 85.9532C26.4324 85.7994 26.5563 85.6657 26.7025 85.5598C26.8487 85.4539 27.0144 85.3778 27.19 85.336C27.3656 85.2942 27.5478 85.2874 27.726 85.3161Z" fill="black"/>
<path d="M28.8231 86.8575L25.797 86.5827C25.6686 86.571 25.555 86.6657 25.5433 86.7941L25.4599 87.7129C25.4482 87.8413 25.5429 87.9549 25.6713 87.9666L28.6974 88.2415C28.8259 88.2531 28.9395 88.1585 28.9511 88.03L29.0346 87.1112C29.0463 86.9828 28.9516 86.8692 28.8231 86.8575Z" fill="#D3766A"/>
<g opacity="0.2">
<path d="M28.8241 86.8575L25.798 86.5827C25.6696 86.571 25.556 86.6657 25.5443 86.7941L25.4609 87.7129C25.4492 87.8413 25.5439 87.9549 25.6723 87.9666L28.6984 88.2415C28.8269 88.2531 28.9405 88.1585 28.9521 88.03L29.0356 87.1112C29.0472 86.9828 28.9526 86.8692 28.8241 86.8575Z" fill="white"/>
</g>
<path opacity="0.3" d="M104.273 77.9277C104.212 77.9277 102.171 78.0048 98.9012 78.1028C85.6214 78.5139 52.2395 79.4878 51.6556 79.5205C51.1535 79.5485 48.8063 73.4131 47.5054 69.6015C46.9285 67.9106 46.5571 66.6774 46.6459 66.64C47.0219 66.4859 54.9931 65.4022 66.4653 65.2947C76.2745 65.2037 86.8662 66.4625 87.2142 66.654C95.5077 71.255 104.584 77.881 104.273 77.9277Z" fill="#EBEBEB"/>
<path opacity="0.1" d="M104.273 77.9281C104.212 77.9281 102.171 78.0052 98.9012 78.1033C85.6214 78.5143 52.2395 79.4882 51.6556 79.5209C51.1535 79.549 48.8063 73.4135 47.5054 69.6019C46.9285 67.911 46.5571 66.6778 46.6459 66.6404C46.7884 66.5821 48.0122 66.3905 50.0978 66.1733C65.3466 72.6661 83.2298 75.5155 89.5684 74.7074C92.962 74.2777 93.2726 72.0776 92.6607 69.8798C99.0297 73.8386 104.516 77.8814 104.273 77.9281Z" fill="white"/>
</svg>
