<svg width="36" height="40" viewBox="0 0 36 40" fill="none" xmlns="http://www.w3.org/2000/svg">
<path d="M26 0H10C3 0 0 4 0 10V30C0 36 3 40 10 40H26C33 40 36 36 36 30V10C36 4 33 0 26 0ZM10 20.5H18C18.82 20.5 19.5 21.18 19.5 22C19.5 22.82 18.82 23.5 18 23.5H10C9.18 23.5 8.5 22.82 8.5 22C8.5 21.18 9.18 20.5 10 20.5ZM26 31.5H10C9.18 31.5 8.5 30.82 8.5 30C8.5 29.18 9.18 28.5 10 28.5H26C26.82 28.5 27.5 29.18 27.5 30C27.5 30.82 26.82 31.5 26 31.5ZM31 14.5H27C23.96 14.5 21.5 12.04 21.5 9V5C21.5 4.18 22.18 3.5 23 3.5C23.82 3.5 24.5 4.18 24.5 5V9C24.5 10.38 25.62 11.5 27 11.5H31C31.82 11.5 32.5 12.18 32.5 13C32.5 13.82 31.82 14.5 31 14.5Z" fill="#4D78BC"/>
</svg>
