<svg width="106" height="110" viewBox="0 0 106 110" fill="none" xmlns="http://www.w3.org/2000/svg">
<path d="M95.4902 0C66.9407 13.1181 48.0196 3.79791 45.4242 2.38008C45.4242 2.38008 45.3289 2.20125 45.2699 2.29492C45.1701 2.23957 45.1792 2.43969 45.1792 2.43969C43.641 4.83254 31.8845 21.3568 0 22.434C0 22.434 9.23367 73.5567 32.5107 89.8298C57.3713 107.21 75.0763 110.071 75.1398 109.999C75.2351 110.037 89.4554 99.8099 102.051 73.4971C113.835 48.8788 95.4902 0.0042619 95.4902 0.0042619V0Z" fill="#3B455A"/>
<path d="M92.495 6.18652C66.5591 17.9847 49.453 9.75451 47.1071 8.49422C47.1071 8.49422 47.0209 8.33243 46.9665 8.41758C46.8757 8.36649 46.8848 8.54531 46.8848 8.54531C45.4782 10.6827 34.7517 25.4571 5.84375 26.5385C5.84375 26.5385 13.9839 72.0708 35.0103 86.4875C57.4661 101.888 73.8144 105.566 73.8734 105.498C73.9596 105.532 86.5782 95.1648 98.1169 71.6663C108.907 49.6793 92.4996 6.18652 92.4996 6.18652H92.495Z" fill="#7DB5DB"/>
<g opacity="0.06">
<path d="M48.0922 12.9392C48.0922 12.9392 48.0831 12.7519 48.1784 12.8072C48.2328 12.7178 48.3236 12.8881 48.3236 12.8881C50.7329 14.1782 68.0115 22.4936 94.2877 11.1638C92.8947 6.65481 91.8466 3.87451 91.8466 3.87451C65.9107 15.6727 48.8045 7.4425 46.4587 6.18221C46.4587 6.18221 46.3725 6.02041 46.318 6.10557C46.2273 6.05448 46.2364 6.2333 46.2364 6.2333C44.8298 8.37068 34.1033 23.145 5.19531 24.2265C5.19531 24.2265 5.71258 27.1303 6.82879 31.7031C35.8093 30.0596 46.6447 15.1362 48.0922 12.9392Z" fill="black"/>
</g>
<path opacity="0.34" d="M87.7991 20.4713C68.2247 29.4636 52.6613 23.2005 50.8826 22.2255C50.8826 22.2255 50.8191 22.102 50.7783 22.1659C50.7102 22.1276 50.7147 22.2638 50.7147 22.2638C49.662 23.903 39.3848 36.2122 17.5234 36.953C17.5234 36.953 26.072 71.0234 42.0256 82.1787C59.0681 94.0961 71.2058 96.0589 71.2511 96.0036C71.3147 96.0291 81.0656 89.0166 89.7049 70.9766C97.786 54.0989 87.8037 20.467 87.8037 20.467L87.7991 20.4713Z" fill="white"/>
</svg>
