<svg width="73" height="40" viewBox="0 0 73 40" fill="none" xmlns="http://www.w3.org/2000/svg">
<path d="M63.0635 16.0624L50.5305 2.06516C50.0369 1.51407 49.4325 1.07201 48.7565 0.767496C48.0804 0.462986 47.3476 0.302802 46.6053 0.297284L5.34444 0.000146161C4.64336 -0.00504258 3.9482 0.127968 3.29915 0.391493C2.6501 0.655019 2.06003 1.04383 1.56305 1.53545C1.06608 2.02707 0.672062 2.61174 0.403777 3.25566C0.135491 3.89959 -0.00174182 4.58999 1.66885e-05 5.28696L0.0695703 34.3318C0.0710472 35.0253 0.210103 35.7117 0.478775 36.3517C0.747446 36.9917 1.14046 37.5727 1.63531 38.0616C2.13017 38.5504 2.71715 38.9374 3.36264 39.2004C4.00814 39.4634 4.69948 39.5972 5.39708 39.5943L46.5151 39.4224C47.2745 39.4205 48.0247 39.2566 48.7148 38.9416C49.405 38.6266 50.019 38.1679 50.5154 37.5965L63.1236 23.02C63.964 22.0502 64.4213 20.8099 64.4102 19.5299C64.3991 18.25 63.9205 17.0177 63.0635 16.0624ZM56.0892 21.1082C55.7633 21.9054 55.207 22.5886 54.4905 23.0714C53.7741 23.5543 52.9297 23.8151 52.0641 23.8208C51.1986 23.8266 50.3507 23.577 49.6278 23.1038C48.9049 22.6305 48.3395 21.9547 48.0029 21.1619C47.6663 20.3692 47.5738 19.495 47.7371 18.6499C47.9003 17.8049 48.312 17.0269 48.92 16.4145C49.528 15.802 50.305 15.3825 51.1528 15.2091C52.0006 15.0357 52.8811 15.1161 53.683 15.4401C54.7562 15.8747 55.6123 16.7147 56.0634 17.7758C56.5145 18.837 56.5238 20.0327 56.0892 21.1007V21.1082Z" fill="#1F3366"/>
<path d="M65.2351 16.0624L52.6965 2.06518C52.2028 1.51427 51.5984 1.07233 50.9223 0.767833C50.2463 0.463338 49.5135 0.303048 48.7714 0.297298L7.51046 0.0001605C6.80931 -0.00527837 6.11404 0.127563 5.46487 0.391C4.81571 0.654437 4.22553 1.04324 3.72851 1.5349C3.23149 2.02657 2.83748 2.61134 2.56928 3.25538C2.30108 3.89942 2.16403 4.58993 2.16604 5.28698L2.23371 34.3318C2.23542 35.0268 2.37526 35.7146 2.6452 36.3558C2.91513 36.9969 3.30984 37.5787 3.80663 38.0677C4.30343 38.5567 4.89254 38.9433 5.54009 39.2053C6.18765 39.4673 6.8809 39.5995 7.58001 39.5943L48.6962 39.4224C49.4555 39.4203 50.2056 39.2562 50.8957 38.9412C51.5858 38.6263 52.1999 38.1677 52.6965 37.5966L65.3028 23.02C66.1425 22.0495 66.5987 20.8086 66.5862 19.5285C66.5738 18.2485 66.0936 17.0166 65.2351 16.0624ZM58.2627 21.1082C57.9369 21.9054 57.3805 22.5886 56.6641 23.0714C55.9476 23.5543 55.1032 23.8151 54.2376 23.8208C53.3721 23.8266 52.5243 23.5771 51.8014 23.1038C51.0785 22.6305 50.513 21.9547 50.1764 21.162C49.8399 20.3692 49.7474 19.495 49.9106 18.6499C50.0738 17.8049 50.4855 17.0269 51.0935 16.4145C51.7015 15.802 52.4785 15.3825 53.3263 15.2091C54.1742 15.0357 55.0547 15.1161 55.8565 15.4401C56.9298 15.8747 57.7858 16.7147 58.2369 17.7759C58.688 18.837 58.6973 20.0328 58.2627 21.1007V21.1082Z" fill="#3865DC"/>
<path d="M15.8959 15.0889C15.9279 11.568 18.1104 9.34979 21.1708 9.37969C24.2312 9.40959 26.3423 11.6353 26.3103 15.1842C26.2783 18.733 24.1221 20.9232 21.0636 20.8952C18.0051 20.8672 15.8621 18.6097 15.8959 15.0889ZM23.3082 15.158C23.3288 12.9154 22.4697 11.8372 21.1482 11.8259C19.8586 11.8129 18.9469 12.908 18.9262 15.1169C18.9055 17.3258 19.7966 18.4359 21.0862 18.449C22.4077 18.4602 23.2875 17.3949 23.3082 15.158ZM33.6831 9.7385L37.2548 9.77214L22.7141 30.5158L19.1424 30.4821L33.6831 9.7385ZM30.0888 25.0757C30.1226 21.5549 32.3033 19.3366 35.3355 19.3647C38.3959 19.3946 40.5351 21.6521 40.5032 25.171C40.4712 28.6899 38.2887 30.9007 35.2264 30.869C32.2055 30.8447 30.0568 28.5872 30.0888 25.0757ZM37.471 25.143C37.4917 22.9359 36.6326 21.824 35.311 21.8128C34.0214 21.7997 33.1116 22.8649 33.0909 25.1037C33.0702 27.3425 33.9594 28.4227 35.249 28.4358C36.5705 28.4395 37.4503 27.3425 37.4691 25.1336L37.471 25.143Z" fill="white"/>
<path d="M63.8619 24.7018C64.0116 24.7811 64.15 24.8797 64.2736 24.9952C64.5311 25.1989 64.9071 25.5054 65.3827 25.9109C65.8583 26.3165 66.4373 26.8173 67.0877 27.4209C67.7381 28.0245 68.4675 28.7291 69.2213 29.5644C70.05 30.4698 70.8003 31.4432 71.464 32.4741L71.731 32.8984L71.9828 33.3413C72.1588 33.644 72.3182 33.9559 72.4603 34.2757C72.7765 34.9538 72.959 35.6858 72.998 36.4322C73.0101 36.8311 72.9515 37.229 72.825 37.6077C72.6931 37.9993 72.4819 38.3598 72.2047 38.6673C71.636 39.2907 70.883 39.7186 70.0541 39.8895C69.2134 40.0548 68.3464 40.0343 67.5144 39.8297C66.6788 39.6288 65.8694 39.3322 65.1026 38.9458C63.5955 38.1817 62.2285 37.1709 61.059 35.9557C60.5015 35.3864 59.9798 34.7835 59.4969 34.1504C59.0256 33.5362 58.577 32.9251 58.1509 32.3172C56.459 29.8877 55.1431 27.5517 54.316 25.4624C54.1092 24.941 53.9306 24.4402 53.7765 23.958C53.7013 23.717 53.6298 23.4815 53.5716 23.2479C53.5074 23.022 53.4616 22.7914 53.4343 22.5583C53.3689 22.1161 53.4802 21.666 53.7445 21.3044C53.9722 21.0141 54.2828 20.7991 54.6356 20.6876C54.7812 20.6398 54.931 20.6054 55.083 20.5849C55.2166 20.5708 55.3511 20.5676 55.4853 20.5755C55.6955 20.5855 55.9027 20.6304 56.0981 20.7082C56.2169 20.7576 56.3272 20.8251 56.4252 20.9082C56.4891 20.9661 56.5173 20.9979 56.5117 21.0053C56.506 21.0128 56.4665 20.9923 56.3951 20.9493C56.2915 20.8865 56.1803 20.8369 56.0643 20.8016C55.8754 20.7449 55.6788 20.7171 55.4815 20.7194C55.3556 20.7207 55.23 20.7307 55.1055 20.7493C54.9664 20.7761 54.8299 20.8149 54.6976 20.8652C54.3903 20.9775 54.1234 21.1778 53.9306 21.4408C53.7156 21.7588 53.6346 22.148 53.705 22.5247C53.7361 22.7444 53.7852 22.9613 53.8517 23.1731C53.9137 23.3974 53.9908 23.6254 54.0697 23.8609C54.2339 24.3318 54.4219 24.8227 54.6337 25.3335C55.4853 27.3705 56.8162 29.6709 58.5156 32.0611C58.9417 32.6591 59.391 33.2615 59.8634 33.8683C60.339 34.4843 60.8519 35.071 61.3993 35.6249C62.535 36.7982 63.8589 37.7758 65.3169 38.5178C66.0524 38.8877 66.8282 39.1724 67.6291 39.3663C68.3921 39.5563 69.1876 39.5786 69.9601 39.4317C70.6909 39.2835 71.3564 38.9109 71.8625 38.3664C72.3318 37.8391 72.5794 37.1527 72.5543 36.4491C72.5186 35.7566 72.3502 35.0772 72.058 34.4476C71.9246 34.1383 71.7746 33.8364 71.6088 33.5431L71.3738 33.1114L71.1181 32.689C70.4789 31.6671 69.7565 30.6989 68.9582 29.7943C68.2325 28.9571 67.5276 28.2394 66.8903 27.619C66.2531 26.9986 65.7023 26.479 65.2455 26.0548L64.2078 25.0756C64.0774 24.9657 63.9612 24.8401 63.8619 24.7018Z" fill="#0F1B3B"/>
</svg>
