<svg width="187" height="160" viewBox="0 0 187 160" fill="none" xmlns="http://www.w3.org/2000/svg">
<path d="M149.448 65.3879L152.34 63.0587L151.379 61.8037L149.037 62.9683L148.864 62.1678L146.636 64.4557L147.457 65.894L149.448 65.3879Z" fill="#EAC1A4"/>
<path d="M118.907 63.6991L131.872 70.351L147.126 63.4331L148.603 66.3692L132.441 78.4517L114.711 73.8087L118.907 63.6991Z" fill="#4F4747"/>
<path d="M60.1346 3.24758C60.1398 2.71821 60.1475 2.18885 60.1527 1.65948L59.4193 0.154006C59.236 -0.055159 58.8409 -0.0499948 58.6679 0.161752L58.0223 1.63624L58.0042 3.22434C57.4129 3.21659 56.4445 3.65817 56.4368 4.21594C56.429 4.77371 56.9042 5.23078 57.4955 5.23852L57.9784 5.24369L57.3277 59.0998C57.2915 62.1392 55.613 64.6466 53.2477 64.5639C51.4142 64.4994 49.8339 62.9629 49.5937 60.4787C49.5395 59.9287 49.0643 59.5001 48.4782 59.4923H48.4369C47.7603 59.4846 47.2206 60.0372 47.2981 60.6698C47.7242 64.205 50.5647 66.7614 53.2915 66.795C55.4219 66.8208 57.1805 65.8783 58.2186 64.1533C59.5045 62.0204 59.4529 59.655 59.4813 57.2974C59.5071 55.0637 59.5355 52.83 59.5613 50.5963C59.6001 47.4769 59.6362 44.3601 59.675 41.2407C59.7189 37.6849 59.7602 34.1291 59.8041 30.5733C59.848 27.0278 59.8893 23.4824 59.9332 19.9395C59.9693 16.8536 60.0081 13.7652 60.0442 10.6794C60.0649 8.87438 60.0881 7.06936 60.1088 5.26435H60.4393C61.0307 5.27467 61.5161 4.82794 61.5239 4.27017C61.5316 3.71239 60.7259 3.25016 60.132 3.245L60.1346 3.24758Z" fill="#333333"/>
<path opacity="0.26" d="M59.7706 33.4372L57.6428 31.2294L57.6867 27.6245L59.8403 27.6503L59.7706 33.4372Z" fill="#333333"/>
<path opacity="0.6" d="M44.8629 32.6703L45.2167 30.6897C46.4433 23.8312 49.2321 17.329 53.3741 11.6583L58.6084 4.49243C46.0714 4.86428 35.2387 11.9862 29.8547 22.2895C28.2123 25.4348 27.0787 28.8744 26.5571 32.5102C29.2788 31.751 32.424 31.3327 35.7836 31.374C39.0708 31.4127 42.167 31.8827 44.8629 32.6729V32.6703Z" fill="#4D78BC"/>
<path opacity="0.6" d="M71.8322 28.9931L72.6637 33.2616H72.9942C75.8734 32.3733 79.2769 31.8749 82.9334 31.9188C86.5796 31.9601 89.9908 32.5334 92.8804 33.4863C92.3587 28.8304 90.8275 24.4638 88.506 20.6033C82.7707 11.0695 72.2066 4.61633 60.0492 4.47431C59.6903 4.46914 59.3339 4.47431 58.9801 4.47947L63.0214 10.3903C67.9897 16.4948 70.2286 22.6458 71.8347 28.9905L71.8322 28.9931Z" fill="#4D78BC"/>
<path d="M45.2191 30.6898L44.8653 32.6704C44.8937 32.6781 44.9247 32.6885 44.9531 32.6962C48.4418 31.2321 53.2061 30.4238 58.4584 30.4858C63.9897 30.5503 68.9683 31.5652 72.4673 33.2591H72.6636L71.8321 28.9932C70.2259 22.6485 67.9871 16.4975 63.0188 10.393L58.9775 4.48218C58.8535 4.48218 58.7322 4.48734 58.6082 4.49251L53.3739 11.6583C49.2319 17.329 46.4457 23.8312 45.2165 30.6898H45.2191Z" fill="#4D78BC"/>
<path d="M48.0981 67.4432L49.6656 65.992L49.6914 64.1276L50.0968 63.9313L50.3628 64.4116L50.8354 62.87L51.9432 62.147L53.601 62.7641L54.5513 64.3006L53.7508 65.8474L51.9871 66.9758L49.9316 69.052L48.0981 67.4432Z" fill="#EAC1A4"/>
<path d="M48.2505 65.6922L51.0703 68.9691L43.5068 80.2356L40.6921 81.1265L28.7 71.7503L31.9072 65.3281L40.8496 72.7806L48.2505 65.6922Z" fill="#333333"/>
<path d="M10.2004 154.164L9.78204 156.047L13.1003 158.73L15.3882 157.245L13.9369 154.962L10.6187 152.279L10.2004 154.164Z" fill="#333333"/>
<path d="M21.8052 96.2383L18.1023 104.613L17.7536 128.173L10.1411 153.516L13.6788 155.055L29.2164 125.627L30.9827 116.308L31.6851 96.6799L21.8052 96.2383Z" fill="#8C9295"/>
<path d="M39.7316 98.1154L40.0234 122.807L35.2772 154.642H31.631L29.3276 125.266L24.3361 95.8921L39.7316 98.1154Z" fill="#8C9295"/>
<path d="M31.6519 154.215V156.149L35.595 158.084L37.5679 156.149L35.595 154.215H31.6519Z" fill="#333333"/>
<path d="M32.5475 64.6803L22.8587 64.3291C22.8587 64.3291 17.0615 69.3181 14.066 82.2811C11.0164 95.4818 14.629 114.482 14.629 114.482C14.629 114.482 40.6248 111.084 44.8882 110.56L38.386 84.4993L32.55 64.6829L32.5475 64.6803Z" fill="#333333"/>
<path d="M29.0741 65.6512C27.9431 65.5427 26.812 65.4343 25.6784 65.3258C25.6655 64.4375 25.7275 63.5466 25.8592 62.6661C24.9166 62.3433 23.8243 61.8552 23.6591 60.8895C23.6074 60.5848 23.6591 60.2749 23.7133 59.9702C23.9328 58.7126 24.1523 57.4524 24.3718 56.1949C24.4467 55.7585 24.5293 55.3117 24.7694 54.9399C25.1929 54.284 26.0141 53.9973 26.7914 53.8656C28.7771 53.5248 30.9411 53.9431 32.4827 55.2188C32.8933 55.557 33.2652 55.965 33.4459 56.4608C33.7248 57.2252 33.5182 58.067 33.3091 58.852C33.1154 59.5777 32.9243 60.3007 32.7306 61.0263C32.5086 61.8604 32.1883 62.8081 31.3698 63.1206C30.9359 63.2858 30.4221 63.2393 30.0296 63.4847C29.3375 63.9185 29.4305 64.9307 29.0715 65.6538L29.0741 65.6512Z" fill="#EAC1A4"/>
<path d="M40.129 53.0753C40.1523 52.2128 40.0283 51.34 39.8527 50.5524C39.5506 49.2018 37.9238 48.5924 36.5164 48.4969C33.4771 48.2903 30.5436 46.9397 27.574 47.9804C25.8774 48.5769 23.5998 48.7189 22.0634 49.5608C21.423 49.912 20.9117 50.4594 20.5114 51.0637C19.1325 53.1605 19.1273 56.0475 20.5037 58.1469C20.811 58.6168 21.1802 59.0481 21.5676 59.4587C22.3707 60.3082 23.3287 61.3592 24.4313 61.6743C24.4571 60.7085 23.5534 57.6614 24.31 56.8686C25.5081 55.6111 28.2247 56.0449 29.7173 56.3522C31.3441 56.6879 32.7928 57.8137 34.4041 58.0539C35.5635 58.2269 37.0432 57.6666 38.0271 57.0778C39.5713 56.1559 40.0851 54.6298 40.1265 53.0701L40.129 53.0753Z" fill="#333333"/>
<path d="M29.8748 65.8549L40.0619 105.818L40.896 111.06L28.2041 112.698C28.2041 112.698 28.705 93.5602 28.5372 91.0089C28.3693 88.4576 26.4869 82.9393 26.2002 76.9923C26.0324 73.5527 24.9194 67.3759 25.6993 65.3643L29.8748 65.8549Z" fill="white"/>
<path d="M95.5374 78.5599L92.8131 76.7368L93.5568 75.5593L95.7052 76.4037L95.7956 75.6884L97.9312 77.527L97.3269 78.8543L95.5374 78.5599Z" fill="#EBCEB1"/>
<path d="M97.4198 76.6671L96.3559 79.3553C96.2087 79.7969 106.53 85.5089 107.447 85.9195C109.469 86.8233 113.138 88.9536 113.138 88.9536C115.95 88.9872 121.249 87.5747 123.018 86.8284C123.731 86.5289 124.239 84.9795 124.671 84.3623C125.218 83.5825 124.521 82.2061 124.051 81.5683C123.088 80.2617 121.605 79.332 119.994 79.0196C119.416 78.906 118.809 78.8724 118.238 79.0273C117.652 79.1874 116.901 76.538 116.405 76.8815C115.522 77.4935 115.031 81.5244 113.98 81.8756C112.658 82.3172 97.7322 76.0293 97.4198 76.662V76.6671Z" fill="#4F4747"/>
<path d="M118.644 64.3393C118.706 64.3393 118.765 64.3445 118.827 64.3471C121.722 64.4865 125.226 68.2127 127.258 70.4128C132.5 76.0913 136.162 82.5986 138.902 89.8729C140.376 93.7903 141.68 97.7721 142.902 101.775C143.24 102.88 145.608 112.997 146.184 113.067C140.291 112.328 134.359 111.753 128.492 112.15C122.623 112.551 116.787 113.96 111.757 116.997C109.179 104.016 107.276 90.5727 106.651 77.4186C106.577 75.846 106.331 74.2217 106.484 72.6594C106.657 70.8596 107.563 70.0462 108.591 68.6801C108.942 68.2127 109.298 67.7402 109.727 67.3528C111.994 65.3128 115.617 64.2438 118.649 64.3419L118.644 64.3393Z" fill="#4F4747"/>
<path d="M139.201 108.44L133.068 132.847L132.931 150.838L129.954 151.471L128.792 134.738L125.869 104.096L139.201 108.44Z" fill="#EBCEB1"/>
<path d="M129.918 151.974L129.435 153.8L129.859 157.379L132.271 157.384L133.174 152.209L132.893 151.344L129.918 151.974Z" fill="#333333"/>
<path d="M115.79 105.744L115.248 126.836L118.12 156.622L121.058 156.834L122.114 129.524L128.1 104.768L115.79 105.744Z" fill="#EBCEB1"/>
<path d="M118.212 156.124L114.251 158.187L114.566 160L121.559 159.161L121.223 156.55L118.212 156.124Z" fill="#333333"/>
<path d="M114.927 108.465L112.937 132.832L114.964 149.544L122.925 149.1L124.342 130.102L127.785 109.387L127.25 106.165L115.777 106.327L114.927 108.465Z" fill="#333333"/>
<path d="M126.997 131.06L127.932 148.537L134.853 148.189L134.711 131.613L139.075 110.797L138.081 104.979L126.442 105.689L126.997 131.06Z" fill="#333333"/>
<path d="M113.484 110.474C120.586 109.274 132.09 106.363 139.191 105.163C135.475 93.0621 129.562 79.6213 122.667 68.9926C121.417 67.0637 119.855 65.0547 117.616 64.595C115.217 64.1044 111.013 65.6563 110.548 68.2851C109.866 72.1327 111.282 77.4419 111.718 81.3334C112.704 90.139 111.77 101.775 113.487 110.474H113.484Z" fill="white"/>
<path d="M114.716 56.1069C112.046 51.5492 106.13 54.5085 105.745 59.0688C105.492 62.072 108.469 65.3773 111.545 65.6097C111.607 66.3327 111.7 67.0506 111.826 67.7659C112.604 67.5567 113.381 67.3502 114.161 67.141C114.401 67.0764 114.677 66.9809 114.755 66.7485C114.801 66.6065 114.76 66.4541 114.718 66.3121C114.579 65.8318 114.437 65.3515 114.298 64.8712C114.349 64.835 114.401 64.7989 114.453 64.7601C115.733 63.8021 116.314 62.1339 116.242 60.5562C116.167 58.9784 115.519 57.4781 114.716 56.1069Z" fill="#EAC1A4"/>
<path d="M114.545 57.6484C115.834 58.862 115.955 60.8039 116.04 62.4747C116.115 63.9543 116.34 64.84 117.941 64.4217C118.842 64.1867 120.454 63.7865 120.836 62.8155C121.125 62.0822 120.064 60.822 119.503 60.3933C119.075 60.068 118.432 60.1196 118.011 59.7839C117.838 59.6445 117.719 59.4508 117.613 59.2597C117.177 58.4721 116.862 57.62 116.683 56.7394C116.562 56.1429 116.503 55.5257 116.26 54.9654C115.911 54.152 114.863 53.5348 114.184 52.9719C112.921 51.9234 110.052 51.1255 109.014 52.9951C108.776 53.4212 108.782 53.9325 108.815 54.4154C108.836 54.7046 108.867 55.0015 109.001 55.2598C109.538 56.2875 110.581 55.9699 111.498 56.1171C112.629 56.2978 113.724 56.8763 114.548 57.651L114.545 57.6484Z" fill="#333333"/>
<path d="M107.111 61.7931C107.439 62.5472 108.257 63.1514 108.18 63.9674C108.144 64.3315 107.929 64.6491 107.782 64.9848C107.382 65.9015 107.521 67.0248 108.136 67.8202L103.614 69.9402C103.387 70.0461 103.147 70.1571 102.896 70.1416C102.359 70.1107 102.037 69.5606 101.812 69.0803C101.37 68.1352 100.918 67.1126 101.115 66.09C101.205 65.6175 101.432 65.1759 101.523 64.7008C101.954 62.4206 99.1677 60.2463 100.02 58.085C100.399 57.1192 101.396 56.5485 102.073 55.7532C103.248 54.3665 103.416 52.3265 104.681 51.0173C107.069 48.5434 111.759 50.5679 111.4 54.0024C111.106 56.8042 105.786 58.7538 107.111 61.7905V61.7931Z" fill="#333333"/>
<path d="M119.029 65.0546C119.029 65.0546 131.307 94.0975 128.596 101.506C125.884 108.915 124.622 111.784 124.622 111.784L143.423 112.553C143.423 112.553 131.421 70.1236 119.026 65.052L119.029 65.0546Z" fill="#4F4747"/>
<path d="M4.81129 116.096L13.1418 107.414L13.4052 107.402C13.8493 106.363 14.2935 105.323 14.7402 104.285C17.0875 98.8 19.4348 93.3152 21.7821 87.8279C23.8479 83.0041 25.4902 74.8519 31.9511 74.4878L93.3733 71.0482C100.196 70.666 106.644 74.3767 109.941 80.5845L121.419 102.196L122.442 102.147L143.39 107.36C150.814 110.425 155.81 117.374 156.27 125.268L156.959 137.131L1.01019 145.867L0.0289001 128.989C-0.247391 124.23 1.48015 119.567 4.81129 116.099V116.096Z" fill="#4D78BC"/>
<path d="M64.2118 102.841L23.2335 105.137L31.2308 82.1052C31.6285 80.9587 32.6511 80.1711 33.8312 80.1065L62.7967 78.4849L64.2144 102.844L64.2118 102.841Z" fill="#D7E8F4"/>
<path d="M69.8048 78.0899L93.2777 76.7755C98.2512 76.4966 102.954 79.2029 105.358 83.7296L114.026 100.052L71.2224 102.451L69.8048 78.0925V78.0899Z" fill="#D7E8F4"/>
<g opacity="0.2">
<path d="M30.4198 87.616C29.8904 87.9336 29.3636 88.2512 28.8369 88.5688L31.0241 82.2655C31.4217 81.119 32.4443 80.3314 33.6244 80.2668L43.6592 79.7039C39.2641 82.3688 34.8303 84.9717 30.4198 87.616Z" fill="#FFFDF1"/>
<path d="M29.9397 93.0311C37.2295 88.6128 44.8756 83.6342 52.0802 79.0842L61.5029 78.7046C55.3674 84.4992 47.4966 89.7852 40.5477 94.5392C36.3696 97.3952 32.0933 100.114 27.6983 102.635C26.2573 103.461 24.7441 104.223 23.2257 104.99L26.6886 95.0195C27.7706 94.3532 28.8551 93.6896 29.9423 93.0311H29.9397Z" fill="#FFFDF1"/>
<path d="M78.0397 92.254C81.0868 90.0694 84.2552 88.032 87.4495 86.0643C90.6851 84.0682 93.9646 82.0643 97.3784 80.3729C98.5043 79.8152 99.6431 79.2909 100.782 78.7642C102.662 79.9623 104.255 81.6512 105.358 83.7299L105.443 83.8874C102.042 86.5162 98.6153 89.1165 95.2403 91.7634C90.2487 95.6781 84.6658 98.7459 79.2172 102.002L71.2199 102.449L70.9642 98.0357C73.3218 96.1042 75.5581 94.0332 78.0397 92.254Z" fill="#FFFDF1"/>
</g>
<path opacity="0.1" d="M97.9235 140.437C97.7453 139.758 97.6343 139.055 97.593 138.335C97.1798 131.246 103.747 125.113 112.26 124.636C115.584 124.45 118.711 125.157 121.316 126.505C116.129 127.884 111.653 130.72 108.077 134.306C106.254 136.135 104.865 138.056 103.824 140.067L97.9261 140.434L97.9235 140.437Z" fill="#000100"/>
<path opacity="0.1" d="M17.17 144.961C16.9969 144.282 16.8859 143.579 16.8446 142.859C16.4314 135.77 22.8355 129.648 31.1479 129.18C34.3938 129 37.4486 129.71 39.9922 131.063C34.9309 132.434 30.5643 135.264 27.0756 138.846C25.299 140.672 23.9433 142.59 22.931 144.602L17.1725 144.961H17.17Z" fill="#000100"/>
<path d="M116.185 151.409C108.601 151.383 102.473 145.325 102.498 137.876C102.522 130.427 108.691 124.409 116.275 124.434C123.859 124.459 129.987 130.518 129.963 137.967C129.938 145.416 123.77 151.434 116.185 151.409Z" fill="#333333"/>
<path d="M119.457 144.891C123.374 143.14 125.107 138.603 123.325 134.756C121.543 130.908 116.921 129.206 113.004 130.954C109.086 132.705 107.354 137.242 109.135 141.09C110.917 144.937 115.539 146.639 119.457 144.891Z" fill="#FFFDF1"/>
<path opacity="0.1" d="M115.175 143.321C113.683 143.292 112.154 142.861 111.044 141.883C111.583 143.192 112.81 144.204 114.215 144.501C114.693 144.602 115.183 144.625 115.671 144.628C116.188 144.633 116.709 144.617 117.215 144.516C118.579 144.245 119.793 143.316 120.392 142.081C120.195 142.482 118.685 142.841 118.31 142.928C117.285 143.171 116.234 143.336 115.178 143.316L115.175 143.321Z" fill="#000100"/>
<path d="M35.1722 155.948C27.5879 155.923 21.4597 149.864 21.4844 142.415C21.5091 134.967 27.6774 128.949 35.2616 128.974C42.8459 128.999 48.9741 135.058 48.9494 142.506C48.9247 149.955 42.7564 155.973 35.1722 155.948Z" fill="#333333"/>
<path d="M38.4455 149.428C42.3628 147.677 44.0955 143.14 42.3138 139.293C40.532 135.445 35.9097 133.743 31.9924 135.492C28.0751 137.242 26.3424 141.779 28.1241 145.627C29.9059 149.475 34.5282 151.176 38.4455 149.428Z" fill="#FFFDF1"/>
<path opacity="0.1" d="M34.1617 147.861C32.6692 147.832 31.1405 147.401 30.0301 146.422C30.5698 147.732 31.7963 148.744 33.2011 149.041C33.6788 149.142 34.1695 149.165 34.6575 149.167C35.174 149.172 35.6956 149.157 36.2017 149.056C37.5652 148.785 38.7788 147.856 39.3779 146.621C39.1817 147.021 37.671 147.38 37.2966 147.468C36.2714 147.711 35.2205 147.876 34.1643 147.858L34.1617 147.861Z" fill="#000100"/>
<path opacity="0.5" d="M76.914 112.194L81.1619 111.957C82.0476 111.907 82.7242 111.164 82.6725 110.294C82.6209 109.423 81.8643 108.76 80.9785 108.809L76.7307 109.046C75.845 109.095 75.1684 109.839 75.22 110.709C75.2717 111.579 76.0283 112.243 76.914 112.194Z" fill="#4F4747"/>
<path d="M30.6008 90.6501L32.3619 92.2202L34.4587 92.0911L34.7118 92.5146L34.1953 92.8399L35.9668 93.2221L36.8706 94.3583L36.318 96.1995L34.6731 97.3563L32.8655 96.623L31.453 94.8128L28.9456 92.765L30.6008 90.6501Z" fill="#EAC1A4"/>
<path d="M32.287 91.5824C29.431 89.3978 26.575 87.2132 23.719 85.0286C22.9494 84.4398 22.0766 83.9931 21.3097 83.3992C20.189 82.5289 19.8946 82.2707 20.2716 81.0105C21.3639 77.3618 23.6828 74.1107 24.7389 70.5084C23.533 69.8138 22.4485 68.9668 21.1496 68.4013C19.0295 67.4742 18.5415 68.9797 17.679 70.511C16.6538 72.3263 15.6855 74.1752 14.7868 76.0526C14.0405 77.6097 10.3324 84.1454 12.4395 85.7C13.9476 86.8181 30.4251 95.3371 30.2599 95.6753C30.327 95.5411 32.2896 91.5824 32.2896 91.5824H32.287Z" fill="#333333"/>
<path d="M132.464 36.3396C148.712 44.2956 159.48 38.643 160.957 37.7831C160.957 37.7831 161.011 37.6746 161.045 37.7315C161.101 37.6979 161.096 37.8193 161.096 37.8193C161.972 39.2705 168.662 49.2923 186.808 49.9457C186.808 49.9457 181.553 80.9511 168.306 90.8206C154.158 101.362 144.082 103.097 144.045 103.053C143.991 103.076 135.898 96.8735 128.73 80.915C122.024 65.9842 132.464 36.3422 132.464 36.3422V36.3396Z" fill="#333333"/>
<path d="M134.168 40.0918C148.928 47.2473 158.664 42.2558 159.999 41.4914C159.999 41.4914 160.048 41.3933 160.079 41.4449C160.13 41.4139 160.125 41.5224 160.125 41.5224C160.926 42.8187 167.03 51.7792 183.482 52.4351C183.482 52.4351 178.849 80.0501 166.883 88.7937C154.103 98.1338 144.799 100.365 144.766 100.324C144.717 100.344 137.535 94.0564 130.969 79.8047C124.828 66.4698 134.165 40.0918 134.165 40.0918H134.168Z" fill="#4D78BC"/>
<g opacity="0.06">
<path d="M159.439 44.1871C159.439 44.1871 159.444 44.0735 159.39 44.1071C159.359 44.0529 159.307 44.1561 159.307 44.1561C157.936 44.9386 148.102 49.9818 133.148 43.1103C133.941 40.3757 134.538 38.6895 134.538 38.6895C149.298 45.845 159.033 40.8534 160.368 40.0891C160.368 40.0891 160.417 39.9909 160.448 40.0426C160.5 40.0116 160.495 40.12 160.495 40.12C161.295 41.4163 167.4 50.3769 183.852 51.0328C183.852 51.0328 183.557 52.7939 182.922 55.5673C166.429 54.5705 160.262 45.5196 159.439 44.1871Z" fill="#333333"/>
</g>
<path opacity="0.34" d="M136.841 48.7553C147.981 54.2091 156.838 50.4105 157.85 49.8192C157.85 49.8192 157.887 49.7443 157.91 49.783C157.949 49.7598 157.946 49.8424 157.946 49.8424C158.545 50.8366 164.394 58.302 176.835 58.7513C176.835 58.7513 171.97 79.4147 162.891 86.1803C153.192 93.4081 146.284 94.5986 146.259 94.565C146.222 94.5805 140.673 90.3275 135.756 79.3863C131.157 69.1501 136.838 48.7527 136.838 48.7527L136.841 48.7553Z" fill="white"/>
</svg>
