<svg width="34" height="42" viewBox="0 0 34 42" fill="none" xmlns="http://www.w3.org/2000/svg">
<path d="M30.0801 5.23993L19.0801 1.11993C17.9401 0.699932 16.0801 0.699932 14.9401 1.11993L3.9401 5.23993C1.8201 6.03993 0.100098 8.51993 0.100098 10.7799V26.9799C0.100098 28.5999 1.1601 30.7399 2.4601 31.6999L13.4601 39.9199C15.4001 41.3799 18.5801 41.3799 20.5201 39.9199L31.5201 31.6999C32.8201 30.7199 33.8801 28.5999 33.8801 26.9799V10.7799C33.9001 8.51993 32.1801 6.03993 30.0801 5.23993ZM23.9601 16.4399L15.3601 25.0399C15.0601 25.3399 14.6801 25.4799 14.3001 25.4799C13.9201 25.4799 13.5401 25.3399 13.2401 25.0399L10.0401 21.7999C9.4601 21.2199 9.4601 20.2599 10.0401 19.6799C10.6201 19.0999 11.5801 19.0999 12.1601 19.6799L14.3201 21.8399L21.8601 14.2999C22.4401 13.7199 23.4001 13.7199 23.9801 14.2999C24.5601 14.8799 24.5601 15.8599 23.9601 16.4399Z" fill="#4D78BC"/>
</svg>
