<svg width="172" height="49" viewBox="0 0 172 49" fill="none" xmlns="http://www.w3.org/2000/svg">
<path d="M162.249 32.4109V19.8544H170.706V21.6533H164.457V25.1263H170.296V26.943H164.457V30.5942H170.706V32.4109H162.249Z" fill="#3865DC" stroke="#3865DC"/>
<path d="M155.901 32.5889C154.595 32.5889 153.474 32.3277 152.536 31.8052C151.61 31.2709 150.898 30.5229 150.4 29.5611C149.901 28.5874 149.652 27.4416 149.652 26.1236C149.652 24.8056 149.901 23.6657 150.4 22.704C150.898 21.7422 151.61 21.0001 152.536 20.4776C153.474 19.9433 154.595 19.6761 155.901 19.6761C156.779 19.6761 157.569 19.8008 158.269 20.0502C158.981 20.2995 159.592 20.6676 160.103 21.1544L159.355 22.9711C158.797 22.5199 158.257 22.1993 157.735 22.0093C157.224 21.8075 156.637 21.7066 155.972 21.7066C154.702 21.7066 153.729 22.0925 153.052 22.8643C152.388 23.6242 152.055 24.7106 152.055 26.1236C152.055 27.5366 152.388 28.629 153.052 29.4008C153.729 30.1726 154.702 30.5585 155.972 30.5585C156.637 30.5585 157.224 30.4635 157.735 30.2735C158.257 30.0717 158.797 29.7392 159.355 29.2761L160.103 31.0928C159.592 31.5678 158.981 31.9358 158.269 32.1971C157.569 32.4583 156.779 32.5889 155.901 32.5889Z" fill="#3865DC" stroke="#3865DC"/>
<path d="M136.622 32.4109V19.8544H138.349L145.631 29.2762H145.168V19.8544H147.304V32.4109H145.577L138.313 22.9891H138.758V32.4109H136.622Z" fill="#3865DC" stroke="#3865DC"/>
<path d="M121.881 32.4109L127.56 19.8544H129.483L135.233 32.4109H132.901L131.37 28.8844L132.296 29.5078H124.765L125.726 28.8844L124.195 32.4109H121.881ZM128.504 22.3122L125.993 28.261L125.53 27.7089H131.512L131.138 28.261L128.575 22.3122H128.504Z" fill="#3865DC" stroke="#3865DC"/>
<path d="M110.995 32.4109V19.8544H116.478C117.855 19.8544 118.917 20.1809 119.665 20.834C120.425 21.487 120.804 22.3954 120.804 23.559C120.804 24.3308 120.632 24.9898 120.288 25.536C119.956 26.0822 119.475 26.5037 118.846 26.8005C118.217 27.0855 117.475 27.228 116.621 27.228L116.87 26.8896H117.475C117.974 26.8896 118.419 27.0202 118.81 27.2814C119.202 27.5427 119.523 27.9404 119.772 28.4747L121.606 32.4109H119.077L117.226 28.3323C117.06 27.9167 116.805 27.6436 116.46 27.513C116.128 27.3824 115.724 27.3171 115.25 27.3171H113.291V32.4109H110.995ZM113.291 25.625H116.104C116.911 25.625 117.523 25.4588 117.938 25.1263C118.365 24.782 118.579 24.2833 118.579 23.6302C118.579 22.9772 118.365 22.4844 117.938 22.152C117.523 21.8195 116.911 21.6533 116.104 21.6533H113.291V25.625Z" fill="#3865DC" stroke="#3865DC"/>
<path d="M103.05 32.589C101.258 32.589 99.9227 32.1438 99.0444 31.2532C98.178 30.3508 97.7448 29.0209 97.7448 27.2636V19.8544H100.041V27.2458C100.041 28.3619 100.279 29.205 100.754 29.7749C101.24 30.3449 102.006 30.6298 103.05 30.6298C104.047 30.6298 104.795 30.3449 105.293 29.7749C105.804 29.205 106.059 28.3619 106.059 27.2458V19.8544H108.32V27.2636C108.32 29.0209 107.875 30.3508 106.985 31.2532C106.106 32.1438 104.795 32.589 103.05 32.589Z" fill="#3865DC" stroke="#3865DC"/>
<path d="M90.7208 32.5889C89.7119 32.5889 88.7802 32.4642 87.9256 32.2149C87.0829 31.9537 86.3589 31.5974 85.7536 31.1462L86.4657 29.3474C86.8693 29.6323 87.2906 29.8757 87.7298 30.0776C88.1689 30.2676 88.6378 30.416 89.1363 30.5229C89.6348 30.6179 90.1629 30.6653 90.7208 30.6653C91.6584 30.6653 92.3349 30.511 92.7504 30.2023C93.1658 29.8936 93.3735 29.4898 93.3735 28.9911C93.3735 28.5518 93.2311 28.2193 92.9462 27.9937C92.6613 27.7563 92.151 27.5604 91.4151 27.406L89.4033 26.9963C88.252 26.7589 87.3915 26.3611 86.8218 25.803C86.2521 25.245 85.9672 24.4969 85.9672 23.5589C85.9672 22.7752 86.1749 22.0925 86.5904 21.5106C87.0058 20.9288 87.5874 20.4776 88.3351 20.157C89.0828 19.8364 89.9552 19.6761 90.9522 19.6761C91.8424 19.6761 92.6673 19.8068 93.4269 20.068C94.1865 20.3173 94.8215 20.6795 95.3319 21.1544L94.6197 22.8643C94.1094 22.4368 93.5515 22.1221 92.9462 21.9203C92.3409 21.7066 91.6644 21.5997 90.9166 21.5997C90.0739 21.5997 89.4152 21.7659 88.9404 22.0984C88.4775 22.419 88.2461 22.8643 88.2461 23.4342C88.2461 23.8735 88.3885 24.2238 88.6734 24.485C88.9701 24.7463 89.4686 24.9481 90.1689 25.0906L92.1628 25.4824C93.3497 25.7199 94.2281 26.1117 94.7978 26.6579C95.3675 27.1923 95.6523 27.9166 95.6523 28.8308C95.6523 29.5789 95.4506 30.2379 95.047 30.8078C94.6435 31.3659 94.0738 31.8052 93.3379 32.1258C92.602 32.4345 91.7296 32.5889 90.7208 32.5889Z" fill="#3865DC" stroke="#3865DC"/>
<path d="M72.9016 32.4109V19.8544H74.6285L81.9101 29.2762H81.4472V19.8544H83.5836V32.4109H81.8567L74.5929 22.9891H75.038V32.4109H72.9016Z" fill="#3865DC" stroke="#3865DC"/>
<path d="M67.8422 32.4109V19.8544H70.1388V32.4109H67.8422Z" fill="#3865DC" stroke="#3865DC"/>
<path d="M51.0992 32.4109V19.8544H56.6717C58.0485 19.8544 59.0989 20.1868 59.8229 20.8518C60.547 21.5167 60.909 22.431 60.909 23.5946C60.909 24.7464 60.547 25.6607 59.8229 26.3375C59.0989 27.0143 58.0485 27.3527 56.6717 27.3527H53.3959V32.4109H51.0992ZM53.3959 25.536H56.4047C57.1643 25.536 57.734 25.3698 58.1138 25.0373C58.4936 24.6929 58.6835 24.2121 58.6835 23.5946C58.6835 22.9772 58.4936 22.5022 58.1138 22.1698C57.734 21.8254 57.1643 21.6533 56.4047 21.6533H53.3959V25.536Z" fill="#4D78BC" stroke="#4D78BC"/>
<path d="M36.358 32.4109L42.0373 19.8544H43.9601L49.7106 32.4109H47.3783L45.8472 28.8844L46.773 29.5078H39.2421L40.2035 28.8844L38.6724 32.4109H36.358ZM42.9809 22.3122L40.4706 28.261L40.0077 27.7089H45.9896L45.6158 28.261L43.0521 22.3122H42.9809Z" fill="#4D78BC" stroke="#4D78BC"/>
<path d="M27.3845 32.4109V19.8544H35.8411V21.6533H29.5921V25.1263H35.4316V26.943H29.5921V30.5942H35.8411V32.4109H27.3845Z" fill="#4D78BC" stroke="#4D78BC"/>
<path d="M13.5972 32.4109V19.8544H15.8939V25.0907H22.3209V19.8544H24.6176V32.4109H22.3209V26.9965H15.8939V32.4109H13.5972Z" fill="#4D78BC" stroke="#4D78BC"/>
<path d="M7.24902 32.5889C5.94343 32.5889 4.82181 32.3277 3.88416 31.8052C2.95838 31.2709 2.24624 30.5229 1.74775 29.5611C1.24925 28.5874 1 27.4416 1 26.1236C1 24.8056 1.24925 23.6657 1.74775 22.704C2.24624 21.7422 2.95838 21.0001 3.88416 20.4776C4.82181 19.9433 5.94343 19.6761 7.24902 19.6761C8.12732 19.6761 8.91661 19.8008 9.61688 20.0502C10.329 20.2995 10.9403 20.6676 11.4506 21.1544L10.7029 22.9711C10.145 22.5199 9.60501 22.1993 9.08277 22.0093C8.57241 21.8075 7.98489 21.7066 7.32023 21.7066C6.05025 21.7066 5.07699 22.0925 4.40046 22.8643C3.7358 23.6242 3.40347 24.7106 3.40347 26.1236C3.40347 27.5366 3.7358 28.629 4.40046 29.4008C5.07699 30.1726 6.05025 30.5585 7.32023 30.5585C7.98489 30.5585 8.57241 30.4635 9.08277 30.2735C9.60501 30.0717 10.145 29.7392 10.7029 29.2761L11.4506 31.0928C10.9403 31.5678 10.329 31.9358 9.61688 32.1971C8.91661 32.4583 8.12732 32.5889 7.24902 32.5889Z" fill="#4D78BC" stroke="#4D78BC"/>
<path d="M143.931 46.1906V37.754H150.187V39.7166H146.395V40.9252H149.9V42.8877H146.395V44.228H150.187V46.1906H143.931Z" fill="#333333" stroke="white" stroke-width="0.5"/>
<path d="M133.28 46.1906V39.8362H130.84V37.754H138.304V39.8362H135.864V46.1906H133.28Z" fill="#333333" stroke="white" stroke-width="0.5"/>
<path d="M117.139 41.9662C117.139 41.0967 117.314 40.3348 117.665 39.6806C118.024 39.0264 118.53 38.5198 119.184 38.1608C119.838 37.7938 120.611 37.6104 121.505 37.6104C122.406 37.6104 123.183 37.7938 123.837 38.1608C124.491 38.5198 124.997 39.0264 125.356 39.6806C125.715 40.3348 125.895 41.0967 125.895 41.9662C125.895 42.8358 125.715 43.5977 125.356 44.2519C124.997 44.9061 124.491 45.4166 123.837 45.7836C123.183 46.1506 122.406 46.3341 121.505 46.3341C120.611 46.3341 119.838 46.1506 119.184 45.7836C118.53 45.4166 118.024 44.9061 117.665 44.2519C117.314 43.5897 117.139 42.8278 117.139 41.9662ZM119.842 41.9662C119.842 42.6683 119.974 43.2148 120.237 43.6057C120.508 43.9966 120.93 44.192 121.505 44.192C122.079 44.192 122.501 43.9966 122.773 43.6057C123.052 43.2068 123.191 42.6603 123.191 41.9662C123.191 41.2722 123.052 40.7297 122.773 40.3388C122.501 39.9478 122.079 39.7524 121.505 39.7524C120.93 39.7524 120.508 39.9478 120.237 40.3388C119.974 40.7217 119.842 41.2642 119.842 41.9662Z" fill="#333333" stroke="white" stroke-width="0.5"/>
<path d="M107.368 46.3342C106.068 46.3342 105.091 46.019 104.437 45.3888C103.783 44.7506 103.456 43.7932 103.456 42.5168V37.754H106.04V42.5527C106.04 43.0872 106.144 43.4941 106.351 43.7733C106.567 44.0525 106.905 44.1921 107.368 44.1921C107.831 44.1921 108.165 44.0525 108.373 43.7733C108.588 43.4941 108.696 43.0872 108.696 42.5527V37.754H111.232V42.5168C111.232 43.7932 110.913 44.7506 110.275 45.3888C109.645 46.019 108.676 46.3342 107.368 46.3342Z" fill="#333333" stroke="white" stroke-width="0.5"/>
<path d="M95.3648 48.5001C95.0698 48.3644 94.7787 48.1809 94.4916 47.9496C94.2125 47.7262 93.9533 47.4669 93.7141 47.1718C93.4828 46.8846 93.2875 46.6532 93.128 46.3341L94.1905 46.2384L95.2484 45.8941C95.4318 46.293 95.5164 46.1187 95.8912 46.4537C96.266 46.7968 96.6607 47.068 97.0754 47.2675L95.3648 48.5001ZM88.7619 41.9662C88.7619 41.0967 88.9373 40.3348 89.2882 39.6806C89.6471 39.0264 90.1535 38.5198 90.8074 38.1608C91.4613 37.7938 92.2348 37.6104 93.128 37.6104C94.0291 37.6104 94.8066 37.7938 95.4605 38.1608C96.1145 38.5198 96.6208 39.0264 96.9797 39.6806C97.3385 40.3348 97.518 41.0967 97.518 41.9662C97.518 42.8358 97.3385 43.5977 96.9797 44.2519C96.6208 44.9061 96.1145 45.4166 95.4605 45.7836C94.8066 46.1506 94.0291 46.3341 93.128 46.3341C92.2348 46.3341 91.4613 46.1506 90.8074 45.7836C90.1535 45.4166 89.6471 44.9061 89.2882 44.2519C88.9373 43.5897 88.7619 42.8278 88.7619 41.9662ZM91.4653 41.9662C91.4653 42.6683 91.5969 43.2148 91.86 43.6057C92.1312 43.9966 92.5538 44.192 93.128 44.192C93.7021 44.192 94.1248 43.9966 94.3959 43.6057C94.675 43.2068 94.8146 42.6603 94.8146 41.9662C94.8146 41.2722 94.675 40.7297 94.3959 40.3388C94.1248 39.9478 93.7021 39.7524 93.128 39.7524C92.5538 39.7524 92.1312 39.9478 91.86 40.3388C91.5969 40.7217 91.4653 41.2642 91.4653 41.9662Z" fill="#333333"/>
<path d="M93.128 46.3341C93.2875 46.6532 93.4828 46.8846 93.7141 47.1718C93.9533 47.4669 94.2125 47.7262 94.4916 47.9496C94.7787 48.1809 95.0698 48.3644 95.3648 48.5001L97.0754 47.2675C96.6607 47.068 96.266 46.7968 95.8912 46.4537C95.5164 46.1187 95.4318 46.293 95.2484 45.8941L94.1905 46.2384L93.128 46.3341ZM93.128 46.3341C94.0291 46.3341 94.8066 46.1506 95.4605 45.7836C96.1145 45.4166 96.6208 44.9061 96.9797 44.2519C97.3385 43.5977 97.518 42.8358 97.518 41.9662C97.518 41.0967 97.3385 40.3348 96.9797 39.6806C96.6208 39.0264 96.1145 38.5198 95.4605 38.1608C94.8066 37.7938 94.0291 37.6104 93.128 37.6104C92.2348 37.6104 91.4613 37.7938 90.8074 38.1608C90.1535 38.5198 89.6471 39.0264 89.2882 39.6806C88.9373 40.3348 88.7619 41.0967 88.7619 41.9662C88.7619 42.8278 88.9373 43.5897 89.2882 44.2519C89.6471 44.9061 90.1535 45.4166 90.8074 45.7836C91.4613 46.1506 92.2348 46.3341 93.128 46.3341ZM91.4653 41.9662C91.4653 42.6683 91.5969 43.2148 91.86 43.6057C92.1312 43.9966 92.5538 44.192 93.128 44.192C93.7021 44.192 94.1248 43.9966 94.3959 43.6057C94.675 43.2068 94.8146 42.6603 94.8146 41.9662C94.8146 41.2722 94.675 40.7297 94.3959 40.3388C94.1248 39.9478 93.7021 39.7524 93.128 39.7524C92.5538 39.7524 92.1312 39.9478 91.86 40.3388C91.5969 40.7217 91.4653 41.2642 91.4653 41.9662Z" stroke="white" stroke-width="0.5"/>
<path d="M85.1428 42.5888C85.1428 42.3387 85.0031 42.136 84.8308 42.136H67.3596C67.1873 42.136 67.0476 42.3387 67.0476 42.5888V42.5888C67.0476 42.8389 67.1873 43.0416 67.3596 43.0416H84.8308C85.0031 43.0416 85.1428 42.8389 85.1428 42.5888V42.5888Z" fill="url(#paint0_linear_56_160)"/>
<path d="M153.905 42.5888C153.905 42.3387 154.044 42.136 154.217 42.136H171.688C171.86 42.136 172 42.3387 172 42.5888V42.5888C172 42.8389 171.86 43.0416 171.688 43.0416H154.217C154.044 43.0416 153.905 42.8389 153.905 42.5888V42.5888Z" fill="url(#paint1_linear_56_160)"/>
<path d="M161.787 11.0815C159.388 10.1757 157.049 9.10031 154.646 8.19806C151.14 6.9031 147.475 5.75772 143.771 5.17012L143.072 5.04973C142.839 5.00961 142.606 4.96678 142.371 4.93675C141.902 4.87199 141.434 4.80252 140.964 4.74247L139.543 4.60181C139.069 4.57081 138.593 4.5479 138.118 4.52092C136.214 4.44695 134.304 4.53578 132.413 4.76252C130.522 4.99057 128.651 5.3663 126.815 5.84759C124.98 6.33373 123.179 6.92819 121.411 7.5947C120.97 7.76401 120.527 7.92901 120.092 8.11046C119.656 8.29052 119.216 8.46115 118.785 8.65006C118.352 8.8367 117.917 9.01812 117.487 9.20941L116.204 9.7825C115.355 10.1632 114.512 10.532 113.657 10.8423C113.231 10.9999 112.801 11.1383 112.369 11.2607C111.936 11.3844 111.501 11.4835 111.063 11.5626L110.734 11.6183L110.398 11.6631C110.175 11.6962 109.947 11.7136 109.721 11.7397C109.267 11.7791 108.811 11.8125 108.351 11.8294C107.432 11.868 106.502 11.8724 105.563 11.8794C104.625 11.8864 103.677 11.8972 102.724 11.9552L99.915 12.1719C98.9801 12.2429 98.0426 12.3156 97.1048 12.404C96.1671 12.4924 95.2287 12.593 94.2936 12.7287C93.3583 12.8616 92.4251 13.0186 91.4985 13.2151C90.5721 13.411 89.6512 13.6423 88.7475 13.9335C87.8443 14.2252 86.9568 14.5715 86.1054 14.9945C85.2551 15.4167 84.4375 15.9127 83.7006 16.5105C82.963 17.1059 82.3048 17.798 81.7729 18.573C81.7283 18.6381 81.6846 18.7041 81.6419 18.7706C81.579 18.8683 81.7235 18.9629 81.793 18.8698C81.839 18.8084 81.8857 18.7476 81.9333 18.6873C82.4995 17.9619 83.1757 17.3281 83.9226 16.7943C85.4207 15.7258 87.1529 15.0226 88.9328 14.5416C90.7144 14.0518 92.5521 13.7636 94.3992 13.5703C95.3235 13.4754 96.251 13.3993 97.1808 13.3366C98.1108 13.2738 99.0433 13.2266 99.9784 13.181L102.779 13.0404C103.698 13.0081 104.624 13.0106 105.56 13.0229C106.495 13.0329 107.439 13.0502 108.393 13.0209C108.869 13.0098 109.348 12.9821 109.828 12.9463C110.068 12.9226 110.308 12.907 110.549 12.8752L110.909 12.8317L111.274 12.7754C112.246 12.6185 113.187 12.348 114.093 12.0253C115.001 11.704 115.876 11.3293 116.736 10.9521L118.017 10.3861C118.442 10.199 118.871 10.0217 119.298 9.83873C119.724 9.65346 120.156 9.48722 120.586 9.31169C121.014 9.13433 121.449 8.97412 121.881 8.80874C123.614 8.15167 125.371 7.56683 127.154 7.08755C128.936 6.60301 130.745 6.23036 132.571 5.9866C134.396 5.74013 136.24 5.63559 138.082 5.66752C138.542 5.6852 139.003 5.69813 139.464 5.71926C142.212 5.84493 144.941 6.44853 147.607 7.14796C149.665 7.68851 151.897 8.2103 153.759 9.30932C154.059 9.48663 154.88 9.93225 154.745 10.349C154.656 10.6265 154.145 10.6591 153.912 10.6855C150.145 11.1113 146.293 11.0644 142.505 11.1906C141.147 11.2359 139.758 11.2821 138.418 11.3287C138.418 11.3287 160.321 11.4559 171.147 14.0123C168.473 13.3087 165.328 12.3609 162.523 11.3529C162.277 11.2641 162.032 11.1739 161.787 11.0815Z" fill="#4D78BC"/>
<path fill-rule="evenodd" clip-rule="evenodd" d="M81.8125 18.5157C81.801 18.5322 81.7896 18.5487 81.7782 18.5653L81.7776 18.5661C81.776 18.5684 81.7745 18.5707 81.7729 18.573C81.7407 18.62 81.709 18.6675 81.6778 18.7153M116.204 9.78255L117.487 9.20946C117.768 9.08451 118.051 8.96376 118.334 8.84303C118.484 8.77893 118.635 8.71483 118.785 8.65011" fill="#333333"/>
<defs>
<linearGradient id="paint0_linear_56_160" x1="85.1428" y1="42.5888" x2="67.0476" y2="42.5888" gradientUnits="userSpaceOnUse">
<stop stop-color="#4F4747"/>
<stop offset="1" stop-color="#4F4747" stop-opacity="0"/>
</linearGradient>
<linearGradient id="paint1_linear_56_160" x1="153.905" y1="42.5888" x2="172" y2="42.5888" gradientUnits="userSpaceOnUse">
<stop stop-color="#4F4747"/>
<stop offset="1" stop-color="#4F4747" stop-opacity="0"/>
</linearGradient>
</defs>
</svg>
