<svg width="172" height="49" viewBox="0 0 172 49" fill="none" xmlns="http://www.w3.org/2000/svg">
<path d="M162.249 31.951V19.3944H170.706V21.1933H164.457V24.6664H170.296V26.4831H164.457V30.1343H170.706V31.951H162.249Z" fill="white" stroke="white"/>
<path d="M155.901 32.1289C154.595 32.1289 153.474 31.8677 152.536 31.3453C151.61 30.811 150.898 30.0629 150.4 29.1011C149.901 28.1275 149.652 26.9817 149.652 25.6637C149.652 24.3457 149.901 23.2058 150.4 22.244C150.898 21.2822 151.61 20.5401 152.536 20.0177C153.474 19.4833 154.595 19.2162 155.901 19.2162C156.779 19.2162 157.569 19.3409 158.269 19.5902C158.981 19.8396 159.592 20.2076 160.103 20.6945L159.355 22.5112C158.797 22.06 158.257 21.7394 157.735 21.5494C157.224 21.3475 156.637 21.2466 155.972 21.2466C154.702 21.2466 153.729 21.6325 153.052 22.4043C152.388 23.1642 152.055 24.2507 152.055 25.6637C152.055 27.0766 152.388 28.169 153.052 28.9408C153.729 29.7126 154.702 30.0985 155.972 30.0985C156.637 30.0985 157.224 30.0035 157.735 29.8136C158.257 29.6117 158.797 29.2792 159.355 28.8162L160.103 30.6328C159.592 31.1078 158.981 31.4759 158.269 31.7371C157.569 31.9983 156.779 32.1289 155.901 32.1289Z" fill="white" stroke="white"/>
<path d="M136.622 31.951V19.3944H138.349L145.631 28.8163H145.168V19.3944H147.304V31.951H145.577L138.313 22.5291H138.758V31.951H136.622Z" fill="white" stroke="white"/>
<path d="M121.881 31.951L127.56 19.3944H129.483L135.233 31.951H132.901L131.37 28.4244L132.296 29.0478H124.765L125.726 28.4244L124.195 31.951H121.881ZM128.504 21.8523L125.993 27.8011L125.53 27.2489H131.512L131.138 27.8011L128.575 21.8523H128.504Z" fill="white" stroke="white"/>
<path d="M110.995 31.951V19.3944H116.478C117.855 19.3944 118.917 19.7209 119.665 20.374C120.425 21.0271 120.804 21.9354 120.804 23.099C120.804 23.8708 120.632 24.5298 120.288 25.076C119.956 25.6222 119.475 26.0437 118.846 26.3406C118.217 26.6256 117.475 26.768 116.621 26.768L116.87 26.4296H117.475C117.974 26.4296 118.419 26.5602 118.81 26.8215C119.202 27.0827 119.523 27.4805 119.772 28.0148L121.606 31.951H119.077L117.226 27.8723C117.06 27.4567 116.805 27.1836 116.46 27.053C116.128 26.9224 115.724 26.8571 115.25 26.8571H113.291V31.951H110.995ZM113.291 25.1651H116.104C116.911 25.1651 117.523 24.9988 117.938 24.6664C118.365 24.322 118.579 23.8233 118.579 23.1703C118.579 22.5172 118.365 22.0245 117.938 21.692C117.523 21.3595 116.911 21.1933 116.104 21.1933H113.291V25.1651Z" fill="white" stroke="white"/>
<path d="M103.05 32.1291C101.258 32.1291 99.9227 31.6838 99.0444 30.7933C98.178 29.8908 97.7448 28.561 97.7448 26.8037V19.3944H100.041V26.7858C100.041 27.902 100.279 28.745 100.754 29.315C101.24 29.8849 102.006 30.1699 103.05 30.1699C104.047 30.1699 104.795 29.8849 105.293 29.315C105.804 28.745 106.059 27.902 106.059 26.7858V19.3944H108.32V26.8037C108.32 28.561 107.875 29.8908 106.985 30.7933C106.106 31.6838 104.795 32.1291 103.05 32.1291Z" fill="white" stroke="white"/>
<path d="M90.7208 32.1289C89.7119 32.1289 88.7802 32.0043 87.9256 31.7549C87.0829 31.4937 86.3589 31.1375 85.7536 30.6863L86.4657 28.8874C86.8693 29.1724 87.2906 29.4158 87.7298 29.6176C88.1689 29.8076 88.6378 29.956 89.1363 30.0629C89.6348 30.1579 90.1629 30.2054 90.7208 30.2054C91.6584 30.2054 92.3349 30.051 92.7504 29.7423C93.1658 29.4336 93.3735 29.0299 93.3735 28.5312C93.3735 28.0919 93.2311 27.7594 92.9462 27.5338C92.6613 27.2963 92.151 27.1004 91.4151 26.946L89.4033 26.5364C88.252 26.2989 87.3915 25.9011 86.8218 25.3431C86.2521 24.785 85.9672 24.0369 85.9672 23.0989C85.9672 22.3152 86.1749 21.6325 86.5904 21.0507C87.0058 20.4689 87.5874 20.0177 88.3351 19.6971C89.0828 19.3765 89.9552 19.2162 90.9522 19.2162C91.8424 19.2162 92.6673 19.3468 93.4269 19.608C94.1865 19.8574 94.8215 20.2195 95.3319 20.6945L94.6197 22.4043C94.1094 21.9768 93.5515 21.6622 92.9462 21.4603C92.3409 21.2466 91.6644 21.1397 90.9166 21.1397C90.0739 21.1397 89.4152 21.306 88.9404 21.6384C88.4775 21.959 88.2461 22.4043 88.2461 22.9742C88.2461 23.4136 88.3885 23.7639 88.6734 24.0251C88.9701 24.2863 89.4686 24.4882 90.1689 24.6306L92.1628 25.0225C93.3497 25.26 94.2281 25.6518 94.7978 26.198C95.3675 26.7323 95.6523 27.4566 95.6523 28.3709C95.6523 29.1189 95.4506 29.7779 95.047 30.3479C94.6435 30.9059 94.0738 31.3453 93.3379 31.6659C92.602 31.9746 91.7296 32.1289 90.7208 32.1289Z" fill="white" stroke="white"/>
<path d="M72.9016 31.951V19.3944H74.6285L81.9101 28.8163H81.4472V19.3944H83.5836V31.951H81.8567L74.5929 22.5291H75.038V31.951H72.9016Z" fill="white" stroke="white"/>
<path d="M67.8422 31.951V19.3944H70.1388V31.951H67.8422Z" fill="white" stroke="white"/>
<path d="M51.0992 31.951V19.3944H56.6717C58.0485 19.3944 59.0989 19.7269 59.8229 20.3918C60.547 21.0567 60.909 21.971 60.909 23.1347C60.909 24.2864 60.547 25.2007 59.8229 25.8775C59.0989 26.5543 58.0485 26.8927 56.6717 26.8927H53.3959V31.951H51.0992ZM53.3959 25.076H56.4047C57.1643 25.076 57.734 24.9098 58.1138 24.5773C58.4936 24.233 58.6835 23.7521 58.6835 23.1347C58.6835 22.5172 58.4936 22.0423 58.1138 21.7098C57.734 21.3655 57.1643 21.1933 56.4047 21.1933H53.3959V25.076Z" fill="white" stroke="white"/>
<path d="M36.358 31.951L42.0373 19.3944H43.9601L49.7106 31.951H47.3783L45.8472 28.4244L46.773 29.0478H39.2421L40.2035 28.4244L38.6724 31.951H36.358ZM42.9809 21.8523L40.4706 27.8011L40.0077 27.2489H45.9896L45.6158 27.8011L43.0521 21.8523H42.9809Z" fill="white" stroke="white"/>
<path d="M27.3845 31.951V19.3944H35.8411V21.1933H29.5921V24.6664H35.4316V26.4831H29.5921V30.1343H35.8411V31.951H27.3845Z" fill="white" stroke="white"/>
<path d="M13.5972 31.951V19.3944H15.8939V24.6308H22.3209V19.3944H24.6176V31.951H22.3209V26.5365H15.8939V31.951H13.5972Z" fill="white" stroke="white"/>
<path d="M7.24902 32.1289C5.94343 32.1289 4.82181 31.8677 3.88416 31.3453C2.95838 30.811 2.24624 30.0629 1.74775 29.1011C1.24925 28.1275 1 26.9817 1 25.6637C1 24.3457 1.24925 23.2058 1.74775 22.244C2.24624 21.2822 2.95838 20.5401 3.88416 20.0177C4.82181 19.4833 5.94343 19.2162 7.24902 19.2162C8.12732 19.2162 8.91661 19.3409 9.61688 19.5902C10.329 19.8396 10.9403 20.2076 11.4506 20.6945L10.7029 22.5112C10.145 22.06 9.60501 21.7394 9.08277 21.5494C8.57241 21.3475 7.98489 21.2466 7.32023 21.2466C6.05025 21.2466 5.07699 21.6325 4.40046 22.4043C3.7358 23.1642 3.40347 24.2507 3.40347 25.6637C3.40347 27.0766 3.7358 28.169 4.40046 28.9408C5.07699 29.7126 6.05025 30.0985 7.32023 30.0985C7.98489 30.0985 8.57241 30.0035 9.08277 29.8136C9.60501 29.6117 10.145 29.2792 10.7029 28.8162L11.4506 30.6328C10.9403 31.1078 10.329 31.4759 9.61688 31.7371C8.91661 31.9983 8.12732 32.1289 7.24902 32.1289Z" fill="white" stroke="white"/>
<path d="M143.931 45.7306V37.2941H150.187V39.2566H146.395V40.4652H149.9V42.4278H146.395V43.7681H150.187V45.7306H143.931Z" fill="white" stroke="#4D78BC" stroke-width="0.5"/>
<path d="M133.28 45.7306V39.3763H130.84V37.2941H138.304V39.3763H135.864V45.7306H133.28Z" fill="white" stroke="#4D78BC" stroke-width="0.5"/>
<path d="M117.139 41.5063C117.139 40.6367 117.314 39.8748 117.665 39.2206C118.024 38.5665 118.53 38.0599 119.184 37.7009C119.838 37.3339 120.611 37.1504 121.505 37.1504C122.406 37.1504 123.183 37.3339 123.837 37.7009C124.491 38.0599 124.997 38.5665 125.356 39.2206C125.715 39.8748 125.895 40.6367 125.895 41.5063C125.895 42.3759 125.715 43.1377 125.356 43.7919C124.997 44.4461 124.491 44.9567 123.837 45.3237C123.183 45.6906 122.406 45.8741 121.505 45.8741C120.611 45.8741 119.838 45.6906 119.184 45.3237C118.53 44.9567 118.024 44.4461 117.665 43.7919C117.314 43.1298 117.139 42.3679 117.139 41.5063ZM119.842 41.5063C119.842 42.2083 119.974 42.7548 120.237 43.1457C120.508 43.5366 120.93 43.7321 121.505 43.7321C122.079 43.7321 122.501 43.5366 122.773 43.1457C123.052 42.7468 123.191 42.2003 123.191 41.5063C123.191 40.8122 123.052 40.2697 122.773 39.8788C122.501 39.4879 122.079 39.2924 121.505 39.2924C120.93 39.2924 120.508 39.4879 120.237 39.8788C119.974 40.2617 119.842 40.8042 119.842 41.5063Z" fill="white" stroke="#4D78BC" stroke-width="0.5"/>
<path d="M107.368 45.8742C106.068 45.8742 105.091 45.5591 104.437 44.9288C103.783 44.2906 103.456 43.3333 103.456 42.0568V37.2941H106.04V42.0927C106.04 42.6272 106.144 43.0341 106.351 43.3133C106.567 43.5925 106.905 43.7322 107.368 43.7322C107.831 43.7322 108.165 43.5925 108.373 43.3133C108.588 43.0341 108.696 42.6272 108.696 42.0927V37.2941H111.232V42.0568C111.232 43.3333 110.913 44.2906 110.275 44.9288C109.645 45.5591 108.676 45.8742 107.368 45.8742Z" fill="white" stroke="#4D78BC" stroke-width="0.5"/>
<path d="M95.3648 48.0401C95.0698 47.9045 94.7787 47.721 94.4916 47.4896C94.2125 47.2662 93.9533 47.007 93.7141 46.7118C93.4828 46.4246 93.2875 46.1932 93.128 45.8741L94.1905 45.7785L95.2484 45.4342C95.4318 45.8331 95.5164 45.6587 95.8912 45.9938C96.266 46.3368 96.6607 46.6081 97.0754 46.8075L95.3648 48.0401ZM88.7619 41.5063C88.7619 40.6367 88.9373 39.8748 89.2882 39.2206C89.6471 38.5665 90.1535 38.0599 90.8074 37.7009C91.4613 37.3339 92.2348 37.1504 93.128 37.1504C94.0291 37.1504 94.8066 37.3339 95.4605 37.7009C96.1145 38.0599 96.6208 38.5665 96.9797 39.2206C97.3385 39.8748 97.518 40.6367 97.518 41.5063C97.518 42.3759 97.3385 43.1377 96.9797 43.7919C96.6208 44.4461 96.1145 44.9567 95.4605 45.3237C94.8066 45.6906 94.0291 45.8741 93.128 45.8741C92.2348 45.8741 91.4613 45.6906 90.8074 45.3237C90.1535 44.9567 89.6471 44.4461 89.2882 43.7919C88.9373 43.1298 88.7619 42.3679 88.7619 41.5063ZM91.4653 41.5063C91.4653 42.2083 91.5969 42.7548 91.86 43.1457C92.1312 43.5366 92.5538 43.7321 93.128 43.7321C93.7021 43.7321 94.1248 43.5366 94.3959 43.1457C94.675 42.7468 94.8146 42.2003 94.8146 41.5063C94.8146 40.8122 94.675 40.2697 94.3959 39.8788C94.1248 39.4879 93.7021 39.2924 93.128 39.2924C92.5538 39.2924 92.1312 39.4879 91.86 39.8788C91.5969 40.2617 91.4653 40.8042 91.4653 41.5063Z" fill="white"/>
<path d="M93.128 45.8741C93.2875 46.1932 93.4828 46.4246 93.7141 46.7118C93.9533 47.007 94.2125 47.2662 94.4916 47.4896C94.7787 47.721 95.0698 47.9045 95.3648 48.0401L97.0754 46.8075C96.6607 46.6081 96.266 46.3368 95.8912 45.9938C95.5164 45.6587 95.4318 45.8331 95.2484 45.4342L94.1905 45.7785L93.128 45.8741ZM93.128 45.8741C94.0291 45.8741 94.8066 45.6906 95.4605 45.3237C96.1145 44.9567 96.6208 44.4461 96.9797 43.7919C97.3385 43.1377 97.518 42.3759 97.518 41.5063C97.518 40.6367 97.3385 39.8748 96.9797 39.2206C96.6208 38.5665 96.1145 38.0599 95.4605 37.7009C94.8066 37.3339 94.0291 37.1504 93.128 37.1504C92.2348 37.1504 91.4613 37.3339 90.8074 37.7009C90.1535 38.0599 89.6471 38.5665 89.2882 39.2206C88.9373 39.8748 88.7619 40.6367 88.7619 41.5063C88.7619 42.3679 88.9373 43.1298 89.2882 43.7919C89.6471 44.4461 90.1535 44.9567 90.8074 45.3237C91.4613 45.6906 92.2348 45.8741 93.128 45.8741ZM91.4653 41.5063C91.4653 42.2083 91.5969 42.7548 91.86 43.1457C92.1312 43.5366 92.5538 43.7321 93.128 43.7321C93.7021 43.7321 94.1248 43.5366 94.3959 43.1457C94.675 42.7468 94.8146 42.2003 94.8146 41.5063C94.8146 40.8122 94.675 40.2697 94.3959 39.8788C94.1248 39.4879 93.7021 39.2924 93.128 39.2924C92.5538 39.2924 92.1312 39.4879 91.86 39.8788C91.5969 40.2617 91.4653 40.8042 91.4653 41.5063Z" stroke="#4D78BC" stroke-width="0.5"/>
<path d="M85.1428 42.1289C85.1428 41.8788 85.0031 41.676 84.8308 41.676H67.3596C67.1873 41.676 67.0476 41.8788 67.0476 42.1289V42.1289C67.0476 42.3789 67.1873 42.5817 67.3596 42.5817H84.8308C85.0031 42.5817 85.1428 42.3789 85.1428 42.1289V42.1289Z" fill="url(#paint0_linear_56_214)"/>
<path d="M153.905 42.1289C153.905 41.8788 154.044 41.676 154.217 41.676H171.688C171.86 41.676 172 41.8788 172 42.1289V42.1289C172 42.3789 171.86 42.5817 171.688 42.5817H154.217C154.044 42.5817 153.905 42.3789 153.905 42.1289V42.1289Z" fill="url(#paint1_linear_56_214)"/>
<path d="M161.787 10.6215C159.388 9.71574 157.049 8.64035 154.646 7.7381C151.14 6.44314 147.475 5.29776 143.771 4.71016L143.072 4.58977C142.839 4.54965 142.606 4.50682 142.371 4.47679C141.902 4.41203 141.434 4.34256 140.964 4.28251L139.543 4.14185C139.069 4.11085 138.593 4.08794 138.118 4.06096C136.214 3.98699 134.304 4.07581 132.413 4.30256C130.522 4.53061 128.651 4.90633 126.815 5.38763C124.98 5.87377 123.179 6.46823 121.411 7.13474C120.97 7.30405 120.527 7.46905 120.092 7.6505C119.656 7.83056 119.216 8.00119 118.785 8.1901C118.352 8.37674 117.917 8.55816 117.487 8.74945L116.204 9.32254C115.355 9.70319 114.512 10.0721 113.657 10.3823C113.231 10.5399 112.801 10.6783 112.369 10.8007C111.936 10.9245 111.501 11.0236 111.063 11.1026L110.734 11.1584L110.398 11.2031C110.175 11.2362 109.947 11.2536 109.721 11.2797C109.267 11.3192 108.811 11.3526 108.351 11.3694C107.432 11.408 106.502 11.4124 105.563 11.4194C104.625 11.4265 103.677 11.4373 102.724 11.4952L99.915 11.7119C98.9801 11.783 98.0426 11.8556 97.1048 11.944C96.1671 12.0325 95.2287 12.133 94.2936 12.2687C93.3583 12.4016 92.4251 12.5587 91.4985 12.7551C90.5721 12.9511 89.6512 13.1823 88.7475 13.4735C87.8443 13.7653 86.9568 14.1115 86.1054 14.5346C85.2551 14.9568 84.4375 15.4528 83.7006 16.0505C82.963 16.646 82.3048 17.338 81.7729 18.113C81.7283 18.1781 81.6846 18.2441 81.6419 18.3107C81.579 18.4083 81.7235 18.5029 81.793 18.4099C81.839 18.3485 81.8857 18.2877 81.9333 18.2274C82.4995 17.5019 83.1757 16.8681 83.9226 16.3343C85.4207 15.2659 87.1529 14.5626 88.9328 14.0817C90.7144 13.5918 92.5521 13.3037 94.3992 13.1103C95.3235 13.0155 96.251 12.9394 97.1808 12.8766C98.1108 12.8138 99.0433 12.7666 99.9784 12.721L102.779 12.5805C103.698 12.5482 104.624 12.5506 105.56 12.5629C106.495 12.5729 107.439 12.5902 108.393 12.5609C108.869 12.5498 109.348 12.5222 109.828 12.4864C110.068 12.4627 110.308 12.447 110.549 12.4152L110.909 12.3717L111.274 12.3154C112.246 12.1585 113.187 11.8881 114.093 11.5653C115.001 11.2441 115.876 10.8693 116.736 10.4922L118.017 9.92619C118.442 9.73906 118.871 9.56173 119.298 9.37876C119.724 9.1935 120.156 9.02726 120.586 8.85173C121.014 8.67436 121.449 8.51416 121.881 8.34878C123.614 7.69171 125.371 7.10686 127.154 6.62759C128.936 6.14305 130.745 5.7704 132.571 5.52664C134.396 5.28017 136.24 5.17563 138.082 5.20756C138.542 5.22524 139.003 5.23817 139.464 5.2593C142.212 5.38497 144.941 5.98857 147.607 6.68799C149.665 7.22855 151.897 7.75034 153.759 8.84936C154.059 9.02667 154.88 9.47229 154.745 9.88901C154.656 10.1665 154.145 10.1991 153.912 10.2256C150.145 10.6514 146.293 10.6044 142.505 10.7307C141.147 10.7759 139.758 10.8221 138.418 10.8687C138.418 10.8687 160.321 10.9959 171.147 13.5523C168.473 12.8487 165.328 11.901 162.523 10.8929C162.277 10.8041 162.032 10.7139 161.787 10.6215Z" fill="white"/>
<path fill-rule="evenodd" clip-rule="evenodd" d="M81.8125 18.0558C81.801 18.0722 81.7896 18.0887 81.7782 18.1053L81.7776 18.1062C81.776 18.1085 81.7745 18.1108 81.7729 18.1131C81.7407 18.1601 81.709 18.2075 81.6778 18.2553M116.204 9.32259L117.487 8.7495C117.768 8.62455 118.051 8.5038 118.334 8.38307C118.484 8.31897 118.635 8.25487 118.785 8.19015" fill="#333333"/>
<defs>
<linearGradient id="paint0_linear_56_214" x1="85.1428" y1="42.1289" x2="67.0476" y2="42.1289" gradientUnits="userSpaceOnUse">
<stop stop-color="white"/>
<stop offset="1" stop-color="white" stop-opacity="0"/>
</linearGradient>
<linearGradient id="paint1_linear_56_214" x1="153.905" y1="42.1289" x2="172" y2="42.1289" gradientUnits="userSpaceOnUse">
<stop stop-color="white"/>
<stop offset="1" stop-color="white" stop-opacity="0"/>
</linearGradient>
</defs>
</svg>
