<svg width="172" height="49" viewBox="0 0 172 49" fill="none" xmlns="http://www.w3.org/2000/svg">
<path d="M162.25 31.9109V19.3544H170.706V21.1533H164.457V24.6263H170.297V26.443H164.457V30.0942H170.706V31.9109H162.25Z" fill="white" stroke="white"/>
<path d="M155.901 32.0889C154.596 32.0889 153.474 31.8277 152.537 31.3052C151.611 30.7709 150.899 30.0229 150.4 29.0611C149.902 28.0874 149.652 26.9416 149.652 25.6236C149.652 24.3056 149.902 23.1657 150.4 22.204C150.899 21.2422 151.611 20.5001 152.537 19.9776C153.474 19.4433 154.596 19.1761 155.901 19.1761C156.78 19.1761 157.569 19.3008 158.269 19.5502C158.981 19.7995 159.593 20.1676 160.103 20.6544L159.355 22.4711C158.797 22.0199 158.257 21.6993 157.735 21.5093C157.225 21.3075 156.637 21.2066 155.973 21.2066C154.703 21.2066 153.729 21.5925 153.053 22.3643C152.388 23.1242 152.056 24.2106 152.056 25.6236C152.056 27.0366 152.388 28.129 153.053 28.9008C153.729 29.6726 154.703 30.0585 155.973 30.0585C156.637 30.0585 157.225 29.9635 157.735 29.7735C158.257 29.5717 158.797 29.2392 159.355 28.7761L160.103 30.5928C159.593 31.0678 158.981 31.4358 158.269 31.6971C157.569 31.9583 156.78 32.0889 155.901 32.0889Z" fill="white" stroke="white"/>
<path d="M136.622 31.9109V19.3544H138.349L145.631 28.7762H145.168V19.3544H147.304V31.9109H145.577L138.313 22.4891H138.758V31.9109H136.622Z" fill="white" stroke="white"/>
<path d="M121.881 31.9109L127.56 19.3544H129.483L135.233 31.9109H132.901L131.37 28.3844L132.296 29.0078H124.765L125.726 28.3844L124.195 31.9109H121.881ZM128.504 21.8122L125.993 27.761L125.531 27.2089H131.513L131.139 27.761L128.575 21.8122H128.504Z" fill="white" stroke="white"/>
<path d="M110.995 31.9109V19.3544H116.478C117.855 19.3544 118.917 19.6809 119.665 20.334C120.425 20.987 120.804 21.8954 120.804 23.059C120.804 23.8308 120.632 24.4898 120.288 25.036C119.956 25.5822 119.475 26.0037 118.846 26.3005C118.217 26.5855 117.475 26.728 116.621 26.728L116.87 26.3896H117.475C117.974 26.3896 118.419 26.5202 118.81 26.7814C119.202 27.0427 119.522 27.4404 119.772 27.9747L121.605 31.9109H119.077L117.226 27.8323C117.06 27.4167 116.805 27.1436 116.46 27.013C116.128 26.8824 115.724 26.8171 115.25 26.8171H113.291V31.9109H110.995ZM113.291 25.125H116.104C116.911 25.125 117.523 24.9588 117.938 24.6263C118.365 24.282 118.579 23.7833 118.579 23.1302C118.579 22.4772 118.365 21.9844 117.938 21.652C117.523 21.3195 116.911 21.1533 116.104 21.1533H113.291V25.125Z" fill="white" stroke="white"/>
<path d="M103.05 32.089C101.258 32.089 99.9226 31.6438 99.0443 30.7532C98.1778 29.8508 97.7446 28.5209 97.7446 26.7636V19.3544H100.041V26.7458C100.041 27.8619 100.279 28.705 100.753 29.2749C101.24 29.8449 102.006 30.1298 103.05 30.1298C104.047 30.1298 104.795 29.8449 105.293 29.2749C105.804 28.705 106.059 27.8619 106.059 26.7458V19.3544H108.32V26.7636C108.32 28.5209 107.875 29.8508 106.985 30.7532C106.106 31.6438 104.795 32.089 103.05 32.089Z" fill="white" stroke="white"/>
<path d="M90.7211 32.0889C89.7122 32.0889 88.7805 31.9642 87.9259 31.7149C87.0832 31.4537 86.3592 31.0974 85.7539 30.6462L86.466 28.8474C86.8696 29.1323 87.2909 29.3757 87.7301 29.5776C88.1692 29.7676 88.6381 29.916 89.1366 30.0229C89.6351 30.1179 90.1632 30.1653 90.7211 30.1653C91.6587 30.1653 92.3353 30.011 92.7507 29.7023C93.1661 29.3936 93.3738 28.9898 93.3738 28.4911C93.3738 28.0518 93.2314 27.7193 92.9465 27.4937C92.6617 27.2563 92.1513 27.0604 91.4154 26.906L89.4036 26.4963C88.2523 26.2589 87.3918 25.8611 86.8221 25.303C86.2524 24.745 85.9675 23.9969 85.9675 23.0589C85.9675 22.2752 86.1753 21.5925 86.5907 21.0106C87.0061 20.4288 87.5877 19.9776 88.3354 19.657C89.0832 19.3364 89.9555 19.1761 90.9525 19.1761C91.8427 19.1761 92.6676 19.3068 93.4272 19.568C94.1868 19.8173 94.8218 20.1795 95.3322 20.6544L94.62 22.3643C94.1097 21.9368 93.5518 21.6221 92.9465 21.4203C92.3412 21.2066 91.6647 21.0997 90.9169 21.0997C90.0742 21.0997 89.4155 21.2659 88.9407 21.5984C88.4778 21.919 88.2464 22.3643 88.2464 22.9342C88.2464 23.3735 88.3888 23.7238 88.6737 23.985C88.9704 24.2463 89.4689 24.4481 90.1692 24.5906L92.1632 24.9824C93.3501 25.2199 94.2284 25.6117 94.7981 26.1579C95.3678 26.6923 95.6526 27.4166 95.6526 28.3308C95.6526 29.0789 95.4509 29.7379 95.0473 30.3078C94.6438 30.8659 94.0741 31.3052 93.3382 31.6258C92.6023 31.9345 91.7299 32.0889 90.7211 32.0889Z" fill="white" stroke="white"/>
<path d="M72.9019 31.9109V19.3544H74.6288L81.9104 28.7762H81.4475V19.3544H83.5839V31.9109H81.857L74.5932 22.4891H75.0383V31.9109H72.9019Z" fill="white" stroke="white"/>
<path d="M67.8423 31.9109V19.3544H70.1389V31.9109H67.8423Z" fill="white" stroke="white"/>
<path d="M51.0991 31.9109V19.3544H56.6716C58.0484 19.3544 59.0988 19.6868 59.8228 20.3518C60.5468 21.0167 60.9088 21.931 60.9088 23.0946C60.9088 24.2464 60.5468 25.1607 59.8228 25.8375C59.0988 26.5143 58.0484 26.8527 56.6716 26.8527H53.3958V31.9109H51.0991ZM53.3958 25.036H56.4046C57.1642 25.036 57.7339 24.8698 58.1137 24.5373C58.4935 24.1929 58.6834 23.7121 58.6834 23.0946C58.6834 22.4772 58.4935 22.0022 58.1137 21.6698C57.7339 21.3254 57.1642 21.1533 56.4046 21.1533H53.3958V25.036Z" fill="#E7EEFC" stroke="#E7EEFC"/>
<path d="M36.3579 31.9109L42.0372 19.3544H43.96L49.7105 31.9109H47.3783L45.8472 28.3844L46.7729 29.0078H39.2421L40.2035 28.3844L38.6724 31.9109H36.3579ZM42.9808 21.8122L40.4705 27.761L40.0076 27.2089H45.9896L45.6157 27.761L43.052 21.8122H42.9808Z" fill="#E7EEFC" stroke="#E7EEFC"/>
<path d="M27.3843 31.9109V19.3544H35.8409V21.1533H29.5919V24.6263H35.4314V26.443H29.5919V30.0942H35.8409V31.9109H27.3843Z" fill="#E7EEFC" stroke="#E7EEFC"/>
<path d="M13.5972 31.9109V19.3544H15.8938V24.5907H22.3209V19.3544H24.6175V31.9109H22.3209V26.4965H15.8938V31.9109H13.5972Z" fill="#E7EEFC" stroke="#E7EEFC"/>
<path d="M7.24902 32.0889C5.94343 32.0889 4.82181 31.8277 3.88416 31.3052C2.95838 30.7709 2.24624 30.0229 1.74775 29.0611C1.24925 28.0874 1 26.9416 1 25.6236C1 24.3056 1.24925 23.1657 1.74775 22.204C2.24624 21.2422 2.95838 20.5001 3.88416 19.9776C4.82181 19.4433 5.94343 19.1761 7.24902 19.1761C8.12732 19.1761 8.91661 19.3008 9.61688 19.5502C10.329 19.7995 10.9403 20.1676 11.4506 20.6544L10.7029 22.4711C10.145 22.0199 9.60501 21.6993 9.08277 21.5093C8.57241 21.3075 7.98489 21.2066 7.32023 21.2066C6.05025 21.2066 5.07699 21.5925 4.40046 22.3643C3.7358 23.1242 3.40347 24.2106 3.40347 25.6236C3.40347 27.0366 3.7358 28.129 4.40046 28.9008C5.07699 29.6726 6.05025 30.0585 7.32023 30.0585C7.98489 30.0585 8.57241 29.9635 9.08277 29.7735C9.60501 29.5717 10.145 29.2392 10.7029 28.7761L11.4506 30.5928C10.9403 31.0678 10.329 31.4358 9.61688 31.6971C8.91661 31.9583 8.12732 32.0889 7.24902 32.0889Z" fill="#E7EEFC" stroke="#E7EEFC"/>
<path d="M143.932 45.6906V37.254H150.188V39.2166H146.396V40.4252H149.901V42.3877H146.396V43.728H150.188V45.6906H143.932Z" fill="#E7EEFC" stroke="#E7EEFC" stroke-width="0.5"/>
<path d="M133.281 45.6906V39.3362H130.84V37.254H138.305V39.3362H135.864V45.6906H133.281Z" fill="#E7EEFC" stroke="#E7EEFC" stroke-width="0.5"/>
<path d="M117.139 41.4662C117.139 40.5967 117.314 39.8348 117.665 39.1806C118.024 38.5264 118.53 38.0198 119.184 37.6608C119.838 37.2938 120.612 37.1104 121.505 37.1104C122.406 37.1104 123.183 37.2938 123.837 37.6608C124.491 38.0198 124.998 38.5264 125.356 39.1806C125.715 39.8348 125.895 40.5967 125.895 41.4662C125.895 42.3358 125.715 43.0977 125.356 43.7519C124.998 44.4061 124.491 44.9166 123.837 45.2836C123.183 45.6506 122.406 45.8341 121.505 45.8341C120.612 45.8341 119.838 45.6506 119.184 45.2836C118.53 44.9166 118.024 44.4061 117.665 43.7519C117.314 43.0897 117.139 42.3278 117.139 41.4662ZM119.842 41.4662C119.842 42.1683 119.974 42.7148 120.237 43.1057C120.508 43.4966 120.931 43.692 121.505 43.692C122.079 43.692 122.502 43.4966 122.773 43.1057C123.052 42.7068 123.191 42.1603 123.191 41.4662C123.191 40.7722 123.052 40.2297 122.773 39.8388C122.502 39.4478 122.079 39.2524 121.505 39.2524C120.931 39.2524 120.508 39.4478 120.237 39.8388C119.974 40.2217 119.842 40.7642 119.842 41.4662Z" fill="#E7EEFC" stroke="#E7EEFC" stroke-width="0.5"/>
<path d="M107.368 45.8342C106.068 45.8342 105.091 45.519 104.437 44.8888C103.784 44.2506 103.457 43.2932 103.457 42.0168V37.254H106.04V42.0527C106.04 42.5872 106.144 42.9941 106.351 43.2733C106.567 43.5525 106.906 43.6921 107.368 43.6921C107.831 43.6921 108.166 43.5525 108.373 43.2733C108.588 42.9941 108.696 42.5872 108.696 42.0527V37.254H111.232V42.0168C111.232 43.2932 110.913 44.2506 110.275 44.8888C109.645 45.519 108.676 45.8342 107.368 45.8342Z" fill="#E7EEFC" stroke="#E7EEFC" stroke-width="0.5"/>
<path d="M95.3651 48.0001C95.0701 47.8644 94.779 47.6809 94.4919 47.4496C94.2128 47.2262 93.9537 46.9669 93.7144 46.6718C93.4832 46.3846 93.2878 46.1532 93.1283 45.8341L94.1908 45.7384L95.2487 45.3941C95.4321 45.793 95.5167 45.6187 95.8915 45.9537C96.2663 46.2968 96.661 46.568 97.0757 46.7675L95.3651 48.0001ZM88.7622 41.4662C88.7622 40.5967 88.9376 39.8348 89.2885 39.1806C89.6474 38.5264 90.1538 38.0198 90.8077 37.6608C91.4616 37.2938 92.2351 37.1104 93.1283 37.1104C94.0294 37.1104 94.8069 37.2938 95.4608 37.6608C96.1148 38.0198 96.6211 38.5264 96.98 39.1806C97.3389 39.8348 97.5183 40.5967 97.5183 41.4662C97.5183 42.3358 97.3389 43.0977 96.98 43.7519C96.6211 44.4061 96.1148 44.9166 95.4608 45.2836C94.8069 45.6506 94.0294 45.8341 93.1283 45.8341C92.2351 45.8341 91.4616 45.6506 90.8077 45.2836C90.1538 44.9166 89.6474 44.4061 89.2885 43.7519C88.9376 43.0897 88.7622 42.3278 88.7622 41.4662ZM91.4656 41.4662C91.4656 42.1683 91.5972 42.7148 91.8603 43.1057C92.1315 43.4966 92.5541 43.692 93.1283 43.692C93.7025 43.692 94.1251 43.4966 94.3962 43.1057C94.6753 42.7068 94.8149 42.1603 94.8149 41.4662C94.8149 40.7722 94.6753 40.2297 94.3962 39.8388C94.1251 39.4478 93.7025 39.2524 93.1283 39.2524C92.5541 39.2524 92.1315 39.4478 91.8603 39.8388C91.5972 40.2217 91.4656 40.7642 91.4656 41.4662Z" fill="#E7EEFC"/>
<path d="M93.1283 45.8341C93.2878 46.1532 93.4832 46.3846 93.7144 46.6718C93.9537 46.9669 94.2128 47.2262 94.4919 47.4496C94.779 47.6809 95.0701 47.8644 95.3651 48.0001L97.0757 46.7675C96.661 46.568 96.2663 46.2968 95.8915 45.9537C95.5167 45.6187 95.4321 45.793 95.2487 45.3941L94.1908 45.7384L93.1283 45.8341ZM93.1283 45.8341C94.0294 45.8341 94.8069 45.6506 95.4608 45.2836C96.1148 44.9166 96.6211 44.4061 96.98 43.7519C97.3389 43.0977 97.5183 42.3358 97.5183 41.4662C97.5183 40.5967 97.3389 39.8348 96.98 39.1806C96.6211 38.5264 96.1148 38.0198 95.4608 37.6608C94.8069 37.2938 94.0294 37.1104 93.1283 37.1104C92.2351 37.1104 91.4616 37.2938 90.8077 37.6608C90.1538 38.0198 89.6474 38.5264 89.2885 39.1806C88.9376 39.8348 88.7622 40.5967 88.7622 41.4662C88.7622 42.3278 88.9376 43.0897 89.2885 43.7519C89.6474 44.4061 90.1538 44.9166 90.8077 45.2836C91.4616 45.6506 92.2351 45.8341 93.1283 45.8341ZM91.4656 41.4662C91.4656 42.1683 91.5972 42.7148 91.8603 43.1057C92.1315 43.4966 92.5541 43.692 93.1283 43.692C93.7025 43.692 94.1251 43.4966 94.3962 43.1057C94.6753 42.7068 94.8149 42.1603 94.8149 41.4662C94.8149 40.7722 94.6753 40.2297 94.3962 39.8388C94.1251 39.4478 93.7025 39.2524 93.1283 39.2524C92.5541 39.2524 92.1315 39.4478 91.8603 39.8388C91.5972 40.2217 91.4656 40.7642 91.4656 41.4662Z" stroke="#E7EEFC" stroke-width="0.5"/>
<path d="M85.1431 42.0888C85.1431 41.8387 85.0034 41.636 84.8311 41.636H67.3598C67.1875 41.636 67.0478 41.8387 67.0478 42.0888V42.0888C67.0478 42.3389 67.1875 42.5416 67.3598 42.5416H84.8311C85.0034 42.5416 85.1431 42.3389 85.1431 42.0888V42.0888Z" fill="url(#paint0_linear_57_219)"/>
<path d="M153.905 42.0888C153.905 41.8387 154.044 41.636 154.217 41.636H171.688C171.86 41.636 172 41.8387 172 42.0888V42.0888C172 42.3389 171.86 42.5416 171.688 42.5416H154.217C154.044 42.5416 153.905 42.3389 153.905 42.0888V42.0888Z" fill="url(#paint1_linear_57_219)"/>
<path d="M161.787 10.5815C159.388 9.6757 157.049 8.60031 154.646 7.69806C151.14 6.4031 147.475 5.25772 143.771 4.67012L143.072 4.54973C142.839 4.50961 142.606 4.46678 142.371 4.43675C141.902 4.37199 141.434 4.30252 140.964 4.24247L139.543 4.10181C139.069 4.07081 138.593 4.0479 138.118 4.02092C136.214 3.94695 134.304 4.03578 132.413 4.26252C130.522 4.49057 128.652 4.8663 126.815 5.34759C124.98 5.83373 123.179 6.42819 121.411 7.0947C120.97 7.26401 120.527 7.42901 120.092 7.61046C119.656 7.79052 119.216 7.96115 118.785 8.15006C118.352 8.3367 117.917 8.51812 117.487 8.70941L116.204 9.2825C115.355 9.66315 114.512 10.032 113.657 10.3423C113.231 10.4999 112.801 10.6383 112.369 10.7607C111.936 10.8844 111.501 10.9835 111.063 11.0626L110.735 11.1183L110.398 11.1631C110.175 11.1962 109.947 11.2136 109.721 11.2397C109.267 11.2791 108.811 11.3125 108.351 11.3294C107.432 11.368 106.502 11.3724 105.563 11.3794C104.625 11.3864 103.677 11.3972 102.724 11.4552L99.9151 11.6719C98.9801 11.7429 98.0427 11.8156 97.1049 11.904C96.1672 11.9924 95.2288 12.093 94.2937 12.2287C93.3584 12.3616 92.4251 12.5186 91.4986 12.7151C90.5722 12.911 89.6513 13.1423 88.7475 13.4335C87.8444 13.7252 86.9568 14.0715 86.1055 14.4945C85.2552 14.9167 84.4375 15.4127 83.7007 16.0105C82.9631 16.6059 82.3048 17.298 81.7729 18.073C81.7284 18.1381 81.6847 18.2041 81.6419 18.2706C81.5791 18.3683 81.7236 18.4629 81.7931 18.3698C81.8391 18.3084 81.8858 18.2476 81.9334 18.1873C82.4995 17.4619 83.1758 16.8281 83.9227 16.2943C85.4208 15.2258 87.1529 14.5226 88.9329 14.0416C90.7145 13.5518 92.5522 13.2636 94.3993 13.0703C95.3236 12.9754 96.251 12.8993 97.1809 12.8366C98.1109 12.7738 99.0434 12.7266 99.9785 12.681L102.779 12.5404C103.698 12.5081 104.624 12.5106 105.56 12.5229C106.495 12.5329 107.439 12.5502 108.393 12.5209C108.869 12.5098 109.348 12.4821 109.828 12.4463C110.068 12.4226 110.308 12.407 110.549 12.3752L110.909 12.3317L111.274 12.2754C112.246 12.1185 113.187 11.848 114.093 11.5253C115.001 11.204 115.876 10.8293 116.736 10.4521L118.017 9.88615C118.442 9.69902 118.871 9.52169 119.298 9.33873C119.724 9.15346 120.156 8.98722 120.586 8.81169C121.014 8.63433 121.449 8.47412 121.882 8.30874C123.614 7.65167 125.371 7.06683 127.154 6.58755C128.936 6.10301 130.745 5.73036 132.571 5.4866C134.397 5.24013 136.24 5.13559 138.082 5.16752C138.542 5.1852 139.003 5.19813 139.464 5.21926C142.212 5.34493 144.941 5.94853 147.607 6.64796C149.665 7.18851 151.897 7.7103 153.759 8.80932C154.059 8.98663 154.88 9.43225 154.745 9.84897C154.656 10.1265 154.145 10.1591 153.912 10.1855C150.145 10.6113 146.293 10.5644 142.505 10.6906C141.147 10.7359 139.758 10.7821 138.418 10.8287C138.418 10.8287 160.321 10.9559 171.147 13.5123C168.473 12.8087 165.328 11.8609 162.523 10.8529C162.277 10.7641 162.032 10.6739 161.787 10.5815Z" fill="#E7EEFC"/>
<defs>
<linearGradient id="paint0_linear_57_219" x1="85.1431" y1="42.0888" x2="67.0478" y2="42.0888" gradientUnits="userSpaceOnUse">
<stop stop-color="white"/>
<stop offset="1" stop-color="white" stop-opacity="0"/>
</linearGradient>
<linearGradient id="paint1_linear_57_219" x1="153.905" y1="42.0888" x2="172" y2="42.0888" gradientUnits="userSpaceOnUse">
<stop stop-color="white"/>
<stop offset="1" stop-color="white" stop-opacity="0"/>
</linearGradient>
</defs>
</svg>
