<svg width="351" height="352" viewBox="0 0 351 352" fill="none" xmlns="http://www.w3.org/2000/svg">
<g opacity="0.1">
<path d="M99.2448 -3.33444C99.1828 -3.10251 99.1288 -2.93057 99.0888 -2.79858C99.0009 -2.51669 98.9268 -2.27277 98.9328 -1.97086L99.0408 11.2893C99.1488 24.2075 99.2568 37.1218 99.3228 50.046C99.3348 52.2374 100.613 53.1711 101.807 53.8749C109.155 58.2156 116.494 62.5663 123.836 66.9191C130.964 71.1438 138.094 75.3706 145.231 79.5894C145.707 79.8713 146.215 80.0332 146.755 80.2052C147.015 80.2872 147.301 80.3792 147.617 80.4951L147.843 80.5771V80.761L147.369 80.985C147.041 81.1409 146.767 81.2629 146.531 81.3669C146.079 81.5688 145.749 81.7188 145.441 81.9027L132.494 89.5285C122.238 95.5727 111.984 101.615 101.709 107.615C99.4688 108.927 99.1468 110.694 99.1348 112.408C99.0488 122.755 98.9289 133.106 98.8089 143.459C98.7369 149.693 98.6649 155.929 98.5989 162.163C98.5889 162.779 98.6729 163.365 98.7629 163.987C98.8029 164.257 98.8428 164.541 98.8788 164.845L98.9008 165.036L98.0889 165.506L98.4208 165.726L98.4329 167.086L98.7429 200.314L98.9449 221.914L98.9509 222.536L99.4868 222.854C113.334 231.065 127.06 239.197 141.019 247.466L146.863 250.929L147.021 251.023C146.791 251.091 146.619 251.137 146.487 251.173C146.217 251.245 146.003 251.301 145.771 251.433L135.724 257.348C124.13 264.172 112.54 270.996 100.933 277.796C99.4048 278.693 98.7129 279.931 98.6929 281.81C98.6089 290.52 98.5128 299.227 98.4168 307.935C98.3249 316.234 98.2329 324.532 98.1529 332.832C98.1469 333.373 98.2949 333.849 98.4369 334.309C98.4929 334.489 98.5509 334.675 98.6009 334.875L98.7449 335.463L98.1069 335.871L99.5268 336.806C99.8968 337.05 100.227 337.278 100.535 337.492C101.071 337.864 101.577 338.216 102.117 338.522L113.71 345.068C123.938 350.84 134.514 356.807 144.875 362.735C145.971 363.361 146.927 363.653 147.883 363.653C148.839 363.653 149.775 363.367 150.859 362.755C161.751 356.571 172.858 350.346 183.598 344.324L193.436 338.808C193.98 338.504 194.522 338.19 195.15 337.826L196.442 337.082L197.374 336.547L197.844 336.84C198.188 337.056 198.504 337.258 198.798 337.446C199.424 337.846 199.965 338.194 200.525 338.51C204.461 340.735 208.399 342.959 212.337 345.18C222.325 350.814 232.65 356.643 242.766 362.443C244.032 363.175 245.134 363.517 246.23 363.517C247.326 363.517 248.38 363.191 249.612 362.491C260.033 356.531 270.681 350.554 280.979 344.774C284.627 342.727 288.273 340.679 291.918 338.628C292.712 338.18 293.496 337.726 294.696 337.032L295.386 336.632L296.058 337.03V336.764C296.468 337.036 296.814 337.272 297.122 337.482C297.69 337.87 298.136 338.17 298.598 338.436C302.616 340.707 306.632 342.975 310.65 345.244C320.829 350.99 331.353 356.931 341.671 362.829C342.719 363.433 343.651 363.715 344.605 363.715C345.559 363.715 346.545 363.415 347.673 362.773C357.364 357.276 367.078 351.822 376.792 346.368C381.561 343.69 386.329 341.011 391.095 338.328C391.579 338.058 391.969 337.72 392.421 337.33C392.635 337.144 392.871 336.942 393.145 336.722L393.583 336.373L393.595 336.523L393.759 336.445L394.203 336.676L394.207 336.589L394.479 336.776C394.747 336.962 394.979 337.128 395.189 337.278C395.603 337.576 395.961 337.832 396.359 338.058C400.845 340.597 405.333 343.131 409.821 345.664C419.794 351.296 430.108 357.119 440.221 362.891C441.093 363.389 441.919 363.631 442.749 363.631C443.901 363.631 444.905 363.149 445.651 362.727C455.647 357.081 465.663 351.462 475.678 345.846L488.786 338.49C489.358 338.174 489.926 337.842 490.724 337.378L491.43 336.968L492.016 336.628L492.446 336.884L492.468 336.367L492.936 336.095L492.494 335.791L492.526 335.041C492.552 334.451 492.58 333.945 492.604 333.491C492.65 332.648 492.686 331.978 492.682 331.306L492.564 318.698C492.452 306.915 492.336 294.731 492.294 282.746C492.29 280.219 491.37 278.657 489.12 277.36C480.34 272.237 471.44 266.955 462.835 261.846L455.459 257.47L449.207 253.763L444.201 250.794L444.353 250.708L447.407 248.956C450.117 247.404 452.647 245.955 455.161 244.477C460.029 241.626 464.897 238.769 469.765 235.91C476.322 232.061 482.882 228.21 489.446 224.371C490.968 223.483 492.456 222.402 492.47 219.843C492.55 209.298 492.668 198.751 492.788 188.204C492.862 181.728 492.934 175.252 492.998 168.773C493.006 168.226 492.852 167.74 492.704 167.268C492.644 167.082 492.582 166.884 492.53 166.674L492.194 165.336L490.962 165.954C490.684 166.094 490.428 166.218 490.186 166.334C489.648 166.594 489.184 166.818 488.722 167.096L476.722 174.182C466.597 180.164 456.125 186.35 445.799 192.389C444.379 193.22 443.571 194.224 443.237 195.658L443.229 194.822L443.223 194.2L442.687 193.882C426.898 184.525 411.314 175.293 395.169 165.732L393.483 164.735V164.949L393.275 164.811C392.985 164.619 392.737 164.449 392.513 164.295C392.085 164.001 391.737 163.763 391.375 163.559L379.394 156.793C369.022 150.939 358.298 144.886 347.785 138.886C346.821 138.336 345.921 138.07 345.031 138.07C344.637 138.07 344.241 138.122 343.831 138.228C344.641 137.409 345.211 136.303 345.223 134.629C345.303 123.513 345.431 112.396 345.559 101.279C345.625 95.5847 345.691 89.8924 345.749 84.1981C345.757 83.6382 345.635 83.1084 345.519 82.5945C345.463 82.3506 345.405 82.0927 345.357 81.8167L345.223 81.029L345.713 80.6691L345.425 80.4851L345.791 80.5571L345.779 79.2055L345.637 63.786L345.275 24.7414L345.269 24.1195L344.733 23.8017C334.325 17.6375 324.003 11.5172 313.504 5.29303L297.222 -4.36017L295.536 -5.35986V-5.12195L295.376 -5.22391C295.008 -5.45786 294.678 -5.6738 294.372 -5.87372C293.752 -6.2796 293.224 -6.62146 292.68 -6.93338C288.627 -9.22672 284.573 -11.5141 280.519 -13.7994C270.565 -19.4158 260.271 -25.2221 250.19 -30.9984C249.052 -31.6502 248.054 -31.9541 247.052 -31.9541C246.05 -31.9541 245.066 -31.6542 243.928 -31.0104C233.378 -25.0141 222.615 -18.9779 212.207 -13.1416L201.359 -7.05536C200.845 -6.77145 200.327 -6.47354 199.694 -6.10764L198.45 -5.39185L197.71 -4.97L197.578 -5.04395L197.562 -4.88599L197.512 -4.858L197.096 -5.13589C196.8 -5.33386 196.55 -5.50983 196.322 -5.66977C195.906 -5.9617 195.562 -6.20163 195.198 -6.40756C191.176 -8.68289 187.152 -10.9543 183.128 -13.2256C172.686 -19.1219 161.889 -25.2181 151.303 -31.2723C150.445 -31.7622 149.625 -32.0001 148.793 -32.0001C147.599 -32.0001 146.549 -31.4942 145.591 -30.9484C135.794 -25.412 125.976 -19.8996 116.158 -14.3892L103.257 -7.14532C102.691 -6.83344 102.123 -6.50351 101.431 -6.10165L100.105 -5.33383L98.5589 -4.44611L99.3928 -3.89026L99.2428 -3.33844L99.2448 -3.33444ZM100.241 112.41C100.253 110.67 100.639 109.517 102.267 108.563C116.868 100.037 131.424 91.4259 146.007 82.8464C146.447 82.5865 146.943 82.4026 147.843 81.9767C147.895 83.2503 147.975 84.0661 147.961 84.8798C147.777 101.361 147.567 117.846 147.423 134.333C147.405 136.063 147.005 137.199 145.379 138.152C130.87 146.628 116.412 155.203 101.937 163.741C101.395 164.057 100.817 164.289 99.9748 164.713C99.8628 163.737 99.6908 162.957 99.7028 162.169C99.8748 145.576 100.099 128.987 100.239 112.41H100.241ZM343.247 193.282C343.775 193.48 344.293 193.578 344.809 193.578C345.405 193.578 346.007 193.45 346.657 193.178C345.685 193.97 345.117 194.924 344.889 196.159C344.647 195.012 344.119 194.086 343.247 193.282ZM346.469 308.627C345.851 308.423 345.255 308.327 344.651 308.327C344.099 308.327 343.551 308.409 342.979 308.579C343.911 307.787 344.451 306.841 344.665 305.632C344.927 306.841 345.505 307.799 346.469 308.629V308.627ZM343.945 197.811C343.981 213.99 344.179 230.168 344.315 246.347C344.323 247.363 344.249 248.38 344.199 249.76C343.157 249.276 342.405 248.99 341.727 248.588C327.437 240.135 313.162 231.665 298.868 223.218C297.532 222.426 296.658 221.66 296.646 219.849C296.57 202.935 296.38 186.026 296.236 169.107C296.228 168.511 296.338 167.908 296.446 166.808C297.836 167.584 298.758 168.072 299.65 168.607C313.488 176.797 327.291 185.031 341.173 193.142C343.121 194.282 343.937 195.49 343.945 197.815V197.811ZM146.761 193.282C147.263 193.438 147.751 193.514 148.243 193.514C148.701 193.514 149.161 193.446 149.641 193.306C148.811 194.054 148.431 194.904 148.257 195.76C148.053 194.588 147.455 193.834 146.761 193.28V193.282ZM149.591 308.547C149.043 308.379 148.513 308.297 147.985 308.297C147.385 308.297 146.787 308.401 146.165 308.617C147.121 307.913 147.689 307.059 147.937 305.935C148.155 307.207 148.829 307.987 149.591 308.547ZM145.865 191.675C131.546 183.477 117.154 175.401 102.791 167.272C102.079 166.874 101.419 166.38 100.187 165.564C101.599 164.749 102.489 164.233 103.385 163.721C117.414 155.855 131.466 148.023 145.453 140.08C146.473 139.502 147.367 139.188 148.279 139.188C149.105 139.188 149.945 139.446 150.907 139.998C165.039 148.101 179.254 156.065 193.432 164.083C194.232 164.539 194.99 165.072 196.06 165.76C195.192 166.386 194.596 166.918 193.916 167.306C179.53 175.409 165.127 183.463 150.769 191.615C149.855 192.131 149.055 192.409 148.243 192.409C147.497 192.409 146.737 192.175 145.867 191.673L145.865 191.675ZM149.219 197.429C149.231 195.744 149.505 194.526 151.177 193.556C165.797 185.027 180.36 176.399 194.944 167.808C195.382 167.546 195.87 167.366 196.638 167C196.764 167.978 196.956 168.749 196.944 169.523C196.77 186.124 196.526 202.732 196.426 219.333C196.408 221.428 195.65 222.528 193.906 223.545C179.56 231.919 165.271 240.393 150.957 248.814C150.429 249.13 149.845 249.344 148.825 249.816C148.755 248.552 148.669 247.734 148.675 246.921C148.857 230.421 149.065 213.922 149.219 197.425V197.429ZM197.372 220.874C197.548 221.846 197.992 222.61 198.766 223.274C198.298 223.122 197.838 223.046 197.378 223.046C196.918 223.046 196.524 223.116 196.134 223.226C196.772 222.554 197.172 221.792 197.374 220.872L197.372 220.874ZM197.038 108.813L196.618 108.565C196.924 108.637 197.228 108.673 197.536 108.673C197.896 108.673 198.242 108.621 198.566 108.539C198.086 109.067 197.766 109.679 197.584 110.41L197.578 109.755L197.572 109.131L197.036 108.813H197.038ZM151.879 249.172C166.251 241.084 180.644 233.027 195.006 224.917C195.842 224.445 196.588 224.151 197.376 224.149C197.986 224.149 198.618 224.325 199.336 224.735C213.935 233.069 228.581 241.306 243.206 249.572C243.734 249.87 244.214 250.256 245.226 250.957C244.056 251.631 243.338 252.059 242.608 252.461C228.227 260.531 213.841 268.592 199.471 276.696C198.636 277.168 197.886 277.468 197.094 277.468C196.486 277.468 195.852 277.292 195.134 276.884C180.54 268.546 165.899 260.315 151.269 252.053C150.743 251.751 150.261 251.371 149.461 250.819C150.413 250.164 151.109 249.602 151.881 249.176L151.879 249.172ZM243.49 248.56C229.105 240.055 214.731 231.509 200.327 223.026C198.996 222.242 198.394 221.416 198.386 219.819C198.284 202.793 198.104 185.76 197.952 168.731C197.952 168.324 198.028 167.908 198.116 166.966C206.335 171.393 213.999 176.241 221.815 180.814C229.696 185.435 237.538 190.127 245.452 194.832C245.62 213.035 245.782 231.107 245.952 249.61C244.908 249.17 244.146 248.95 243.49 248.562V248.56ZM198.644 165.72C201.301 164.187 203.463 162.923 205.649 161.699C218.297 154.584 230.982 147.536 243.582 140.35C244.71 139.706 245.692 139.354 246.698 139.354C247.604 139.354 248.528 139.64 249.598 140.254C263.527 148.285 277.557 156.137 291.552 164.061C292.444 164.565 293.304 165.122 294.452 165.826C293.682 166.428 293.19 166.952 292.592 167.284C278.121 175.433 263.615 183.541 249.172 191.739C248.26 192.255 247.46 192.53 246.65 192.53C245.9 192.53 245.138 192.295 244.264 191.795C229.942 183.597 215.553 175.515 201.191 167.396C200.479 166.994 199.826 166.5 198.644 165.72ZM246.562 195.486L246.556 194.82L246.55 194.198L246.016 193.88L245.26 193.43C245.73 193.568 246.188 193.634 246.65 193.634C246.98 193.634 247.31 193.6 247.646 193.528C247.046 194.13 246.726 194.804 246.56 195.486H246.562ZM246.852 307.867L247.268 308.113C246.932 308.027 246.598 307.985 246.26 307.985C245.956 307.985 245.652 308.019 245.34 308.091C245.86 307.527 246.148 306.907 246.302 306.279L246.308 306.927L246.314 307.549L246.85 307.867H246.852ZM247.498 197.061C247.512 195.58 247.832 194.526 249.228 193.7C264.099 185.003 278.931 176.237 293.774 167.492C294.04 167.328 294.356 167.268 295.07 167.002C295.134 168.16 295.22 168.977 295.208 169.785C295.028 186.27 294.812 202.747 294.668 219.233C294.65 220.956 294.286 222.122 292.656 223.074C278.053 231.607 263.499 240.223 248.934 248.818C248.488 249.084 248 249.276 247.292 249.612C247.154 248.8 246.934 248.124 246.944 247.458C247.116 230.655 247.33 213.856 247.494 197.059L247.498 197.061ZM295.628 220.818C295.866 222.13 296.568 222.946 297.372 223.553C296.808 223.379 296.262 223.294 295.714 223.294C295.092 223.294 294.476 223.399 293.824 223.627C294.93 222.802 295.42 221.83 295.628 220.818ZM250.76 249.016C264.767 241.128 278.803 233.295 292.764 225.337C293.832 224.729 294.762 224.401 295.714 224.401C296.586 224.401 297.476 224.677 298.508 225.269C312.61 233.389 326.811 241.336 340.983 249.352C341.703 249.754 342.379 250.236 343.337 250.855C342.761 251.349 342.379 251.799 341.897 252.069C327.069 260.413 312.22 268.724 297.392 277.088C296.736 277.462 296.138 277.672 295.526 277.672C295.006 277.672 294.474 277.52 293.892 277.186C278.921 268.676 263.927 260.207 248.942 251.717C248.686 251.567 248.482 251.323 247.794 250.72C248.98 250.036 249.87 249.52 250.758 249.018L250.76 249.016ZM295.964 110.794C295.766 109.589 295.158 108.821 294.446 108.263C294.954 108.423 295.446 108.499 295.942 108.499C296.438 108.499 296.918 108.423 297.43 108.265C296.674 108.955 296.198 109.775 295.964 110.794ZM295.942 107.395C295.194 107.395 294.434 107.161 293.562 106.664C279.239 98.4659 264.851 90.3862 250.49 82.2566C249.782 81.8547 249.126 81.3709 247.878 80.5471C249.292 79.7333 250.178 79.2135 251.074 78.7096C265.105 70.8399 279.155 63.0102 293.142 55.0645C294.164 54.4827 295.056 54.1688 295.968 54.1688C296.792 54.1688 297.632 54.4267 298.596 54.9785C312.73 63.0802 326.943 71.0519 341.123 79.0675C341.925 79.5234 342.689 80.0493 343.761 80.733C342.893 81.3689 342.297 81.9027 341.619 82.2866C327.229 90.3842 312.828 98.4439 298.476 106.596C297.56 107.115 296.76 107.393 295.944 107.393L295.942 107.395ZM249.374 82.7964C263.945 91.4139 278.505 100.055 293.08 108.677C294.258 109.365 294.914 110.111 294.928 111.614C295.024 128.855 295.198 146.1 295.342 163.339C295.344 163.643 295.264 163.951 295.126 164.963C279.143 155.499 263.539 146.25 247.74 136.891C247.574 118.704 247.406 100.541 247.232 82.0207C248.132 82.3386 248.814 82.4666 249.374 82.7945V82.7964ZM246.634 136.903L246.64 137.525L247.176 137.842L248.22 138.46C247.706 138.318 247.204 138.25 246.7 138.25C246.132 138.25 245.568 138.336 244.974 138.518C245.926 137.678 246.398 136.741 246.624 135.775L246.634 136.903ZM245.29 23.1938C245.81 23.3818 246.32 23.4737 246.83 23.4737C247.498 23.4737 248.108 23.3158 248.66 23.0959C247.662 23.8476 247.096 24.7553 246.902 25.925C246.646 24.8433 246.126 23.9616 245.29 23.1938ZM245.714 133.864C245.696 135.951 245.176 137.283 243.226 138.408C228.955 146.7 214.759 155.121 200.539 163.501C199.919 163.865 199.25 164.157 198.336 164.629C198.182 163.769 197.958 163.101 197.962 162.439C198.138 145.632 198.354 128.817 198.508 112C198.52 110.366 198.97 109.309 200.461 108.441C215.067 99.8775 229.631 91.252 244.21 82.6525C244.652 82.3906 245.138 82.2146 246.1 81.7747C246.16 83.1664 246.24 84.0821 246.236 84.9998C246.052 101.289 245.828 117.572 245.712 133.866L245.714 133.864ZM243.614 82.1846C228.961 90.4142 214.303 98.6278 199.654 106.885C198.914 107.301 198.24 107.569 197.536 107.569C197.014 107.569 196.474 107.423 195.876 107.081C180.996 98.6138 166.091 90.2003 151.197 81.7687C150.851 81.5688 150.557 81.2809 149.781 80.6771C151.067 79.9313 151.959 79.4074 152.869 78.8956C166.875 71.0199 180.916 63.1902 194.874 55.2185C195.918 54.6187 196.826 54.3167 197.736 54.3167C198.646 54.3167 199.556 54.6187 200.609 55.2265C214.631 63.2901 228.743 71.1898 242.816 79.1535C243.62 79.6054 244.382 80.1392 245.476 80.833C244.7 81.4029 244.192 81.8527 243.614 82.1826V82.1846ZM196.474 109.763C196.64 127.911 196.806 146.058 196.974 164.251C194.538 163.729 154.583 140.4 149.451 136.561C149.291 118.564 149.127 100.443 148.957 81.6248C165.125 91.196 180.708 100.427 196.474 109.761V109.763ZM148.343 136.067L148.347 136.573L148.351 137.121L148.789 137.449C149.117 137.694 149.629 138.044 150.297 138.482C149.607 138.214 148.947 138.086 148.277 138.086C147.897 138.086 147.515 138.128 147.123 138.216C147.799 137.55 148.157 136.821 148.341 136.067H148.343ZM148.065 23.7977C147.817 23.6517 147.571 23.5038 147.323 23.3578C147.779 23.4878 148.227 23.5517 148.673 23.5517C149.031 23.5517 149.389 23.5117 149.755 23.4297C149.135 24.0616 148.793 24.7754 148.613 25.5751L148.605 24.7374L148.599 24.1155L148.063 23.7977H148.065ZM100.051 221.902C99.8808 203.703 99.7148 185.541 99.5388 167.072C100.343 167.32 100.947 167.382 101.427 167.672C116.086 176.335 130.736 185.035 145.401 193.692C146.591 194.402 147.221 195.17 147.227 196.657C147.329 213.898 147.499 231.135 147.639 248.376C147.641 248.68 147.563 248.988 147.425 249.978C131.44 240.509 115.824 231.257 100.049 221.902H100.051ZM99.2569 332.84C99.4229 315.835 99.6348 298.828 99.7988 281.82C99.8148 280.421 100.239 279.481 101.493 278.747C116.448 269.984 131.376 261.186 146.317 252.393C146.495 252.291 146.711 252.269 147.379 252.069C147.437 253.135 147.523 253.945 147.513 254.748C147.333 271.338 147.123 287.925 146.981 304.52C146.965 306.171 146.481 307.197 145.005 308.059C130.412 316.608 115.86 325.214 101.291 333.811C100.845 334.077 100.359 334.273 99.6748 334.609C99.5108 333.941 99.2529 333.391 99.2589 332.84H99.2569ZM192.894 337.844C178.694 345.814 164.477 353.752 150.315 361.791C149.425 362.293 148.655 362.547 147.883 362.547C147.111 362.547 146.325 362.291 145.423 361.775C131.206 353.642 116.916 345.62 102.659 337.558C101.871 337.114 101.149 336.551 100.135 335.883C101.205 335.199 101.949 334.665 102.743 334.219C116.932 326.23 131.148 318.29 145.293 310.234C146.271 309.676 147.129 309.402 147.985 309.402C148.867 309.402 149.745 309.694 150.749 310.268C164.873 318.36 179.07 326.333 193.234 334.341C194.022 334.785 194.742 335.351 195.892 336.125C194.646 336.838 193.776 337.354 192.894 337.846V337.844ZM196.528 334.565C195.822 334.357 195.216 334.299 194.742 334.021C180.082 325.356 165.453 316.668 150.795 308.013C149.599 307.309 148.979 306.529 148.969 305.054C148.863 287.823 148.697 270.602 148.557 253.369C148.553 253.059 148.651 252.747 148.779 251.949C149.905 252.525 150.741 252.903 151.523 253.361C165.633 261.72 179.712 270.104 193.852 278.407C195.466 279.355 196.218 280.347 196.222 282.33C196.29 298.927 196.476 315.531 196.628 332.124C196.628 332.852 196.568 333.579 196.528 334.567V334.565ZM197.212 281.027C197.002 279.939 196.502 279.075 195.638 278.321C196.128 278.489 196.61 278.571 197.094 278.571C197.742 278.571 198.344 278.417 198.882 278.208C197.844 279.041 197.396 280.017 197.212 281.027ZM197.8 334.761C197.736 333.591 197.648 332.772 197.652 331.958C197.84 315.481 198.052 298.997 198.198 282.508C198.208 280.793 198.552 279.611 200.189 278.647C214.799 270.138 229.357 261.522 243.936 252.935C244.376 252.673 244.868 252.487 245.58 252.145C245.716 252.959 245.928 253.633 245.924 254.302C245.754 271.102 245.536 287.899 245.376 304.694C245.362 306.175 245.02 307.237 243.628 308.055C228.759 316.76 213.929 325.524 199.086 334.269C198.82 334.427 198.504 334.495 197.802 334.761H197.8ZM291.376 337.666C277.263 345.606 263.117 353.496 249.064 361.531C248.024 362.123 247.124 362.413 246.23 362.413C245.336 362.413 244.38 362.099 243.316 361.485C229.275 353.436 215.157 345.518 201.069 337.548C200.259 337.09 199.487 336.567 198.43 335.905C199.138 335.315 199.603 334.787 200.181 334.473C214.847 326.224 229.522 318.008 244.182 309.752C244.91 309.338 245.574 309.091 246.258 309.091C246.798 309.091 247.354 309.244 247.966 309.59C262.859 318.064 277.785 326.483 292.692 334.927C293.044 335.127 293.35 335.419 294.182 336.053C292.962 336.758 292.174 337.216 291.374 337.666H291.376ZM247.416 306.917C247.25 288.656 247.08 270.544 246.912 251.699C263.067 261.27 278.647 270.502 294.428 279.843C294.596 297.986 294.764 316.134 294.938 335.083C278.685 325.45 263.085 316.202 247.418 306.919L247.416 306.917ZM295.53 279.831L295.524 279.207L294.988 278.889C294.858 278.811 294.728 278.735 294.598 278.659C294.908 278.735 295.216 278.773 295.526 278.773C295.856 278.773 296.184 278.731 296.518 278.645C295.988 279.251 295.696 279.905 295.536 280.577L295.528 279.831H295.53ZM295.924 332.096C296.106 315.495 296.314 298.891 296.464 282.284C296.484 280.563 296.876 279.407 298.504 278.451C312.944 270.016 327.315 261.484 341.715 252.993C342.321 252.635 342.979 252.371 344.047 251.871C344.121 253.109 344.207 253.837 344.201 254.56C344.017 271.162 343.787 287.765 343.669 304.372C343.653 306.289 343.013 307.405 341.353 308.373C327.005 316.742 312.71 325.204 298.394 333.635C297.788 333.993 297.128 334.263 296.182 334.727C296.072 333.661 295.916 332.878 295.926 332.096H295.924ZM390.553 337.366C376.08 345.514 361.578 353.616 347.127 361.813C346.217 362.331 345.419 362.609 344.607 362.609C343.857 362.609 343.095 362.373 342.221 361.869C327.897 353.68 313.508 345.598 299.148 337.476C298.44 337.072 297.782 336.577 296.6 335.801C299.26 334.273 301.418 333 303.604 331.772C316.254 324.666 328.931 317.618 341.533 310.43C342.663 309.784 343.647 309.432 344.655 309.432C345.559 309.432 346.483 309.718 347.545 310.332C361.386 318.32 375.324 326.116 389.231 333.985C390.217 334.545 391.189 335.121 392.457 335.863C391.639 336.517 391.153 337.034 390.555 337.368L390.553 337.366ZM393.167 334.891C391.939 334.251 391.023 333.829 390.155 333.311C376.218 325.068 362.32 316.764 348.337 308.591C346.373 307.445 345.605 306.213 345.601 303.906C345.557 287.719 345.359 271.525 345.219 255.34C345.211 254.324 345.301 253.305 345.353 251.903C346.581 252.545 347.501 252.973 348.365 253.481C362.296 261.728 376.204 270.03 390.189 278.2C392.151 279.349 392.905 280.589 392.913 282.894C392.961 299.079 393.155 315.265 393.295 331.466C393.307 332.472 393.225 333.483 393.169 334.891H393.167ZM346.195 250.941C346.741 250.422 347.079 249.906 347.557 249.64C362.398 241.286 377.266 232.969 392.097 224.601C392.745 224.241 393.333 224.051 393.923 224.051C394.465 224.051 395.009 224.213 395.605 224.553C410.594 233.069 425.6 241.55 440.595 250.05C440.865 250.198 441.081 250.44 441.711 250.951C440.663 251.635 439.924 252.171 439.124 252.617C425.014 260.555 410.876 268.446 396.815 276.474C395.753 277.078 394.831 277.392 393.901 277.392C392.971 277.392 392.109 277.104 391.063 276.506C377.036 268.442 362.908 260.533 348.821 252.561C348.005 252.101 347.229 251.585 346.195 250.943V250.941ZM393.847 281.173C393.587 279.963 393.017 279.005 392.065 278.18C392.695 278.393 393.297 278.495 393.899 278.495C394.389 278.495 394.881 278.427 395.391 278.285C394.429 279.105 394.007 280.063 393.845 281.175L393.847 281.173ZM394.331 331.958C394.501 315.463 394.713 298.961 394.867 282.466C394.879 280.765 395.195 279.575 396.849 278.607C411.376 270.132 425.85 261.552 440.342 253.013C440.867 252.705 441.439 252.469 442.505 251.949C442.541 253.513 442.595 254.54 442.587 255.562C442.403 271.643 442.169 287.717 442.087 303.8C442.071 306.175 441.403 307.569 439.27 308.813C425.08 317.032 410.984 325.414 396.853 333.739C396.233 334.103 395.565 334.369 394.561 334.843C394.465 333.705 394.323 332.83 394.333 331.956L394.331 331.958ZM488.242 337.53C473.862 345.606 459.463 353.66 445.105 361.769C444.271 362.239 443.527 362.531 442.745 362.531C442.129 362.531 441.491 362.351 440.765 361.935C426.176 353.608 411.522 345.374 396.903 337.102C396.373 336.8 395.899 336.419 395.105 335.871C395.977 335.263 396.593 334.761 397.271 334.375C411.734 326.246 426.218 318.124 440.669 309.968C441.501 309.502 442.241 309.216 443.017 309.216C443.637 309.216 444.279 309.398 445.009 309.814C459.603 318.144 474.246 326.375 488.87 334.641C489.406 334.947 489.88 335.333 490.868 336.015C489.684 336.702 488.966 337.126 488.24 337.528L488.242 337.53ZM444.157 197.401C444.169 195.54 444.643 194.346 446.355 193.344C460.699 184.959 474.984 176.483 489.29 168.044C489.91 167.67 490.582 167.382 491.454 166.944C491.63 167.65 491.898 168.204 491.89 168.765C491.722 185.794 491.488 202.815 491.362 219.84C491.352 221.794 490.31 222.592 488.884 223.421C477.446 230.112 466.027 236.834 454.597 243.53C451.167 245.545 447.703 247.51 443.797 249.754C443.717 248.526 443.611 247.706 443.621 246.903C443.803 230.403 444.023 213.906 444.157 197.405V197.401ZM454.893 258.421C466.109 265.069 477.31 271.751 488.564 278.317C490.41 279.381 491.182 280.559 491.186 282.75C491.24 298.939 491.43 315.125 491.572 331.312C491.576 332.328 491.488 333.339 491.416 334.995C475.382 325.484 459.795 316.244 444.083 306.943C443.919 288.718 443.755 270.586 443.585 251.719C447.857 254.252 451.373 256.34 454.893 258.423V258.421ZM442.969 305.837L442.979 306.949L442.985 307.573L443.521 307.891C443.729 308.015 443.935 308.137 444.143 308.259C443.765 308.159 443.391 308.111 443.017 308.111C442.541 308.111 442.093 308.193 441.677 308.317C442.317 307.613 442.737 306.805 442.969 305.837ZM442.125 194.834C442.293 213.14 442.457 231.195 442.623 249.134C442.329 249.302 442.241 249.366 442.153 249.392C442.085 249.422 441.997 249.452 441.929 249.452C441.905 249.452 441.885 249.448 441.867 249.44C441.299 249.168 440.719 248.916 440.178 248.606C425.184 239.721 410.187 230.831 395.107 221.892C394.941 203.655 394.779 185.535 394.607 166.684C410.754 176.245 426.336 185.475 442.125 194.834ZM394.003 221.902L394.009 222.524L394.545 222.842L394.955 223.084C394.611 222.992 394.269 222.946 393.925 222.946C393.639 222.946 393.355 222.976 393.067 223.04C393.567 222.484 393.845 221.878 393.997 221.264L394.003 221.902ZM393.621 169.283C393.441 186.088 393.235 202.877 393.069 219.681C393.051 221.164 392.717 222.214 391.327 223.04C376.456 231.735 361.626 240.508 346.781 249.25C346.517 249.404 346.201 249.474 345.497 249.74C345.431 248.574 345.339 247.762 345.349 246.949C345.533 230.467 345.755 213.98 345.877 197.499C345.891 195.582 346.497 194.46 348.155 193.488C362.58 185.063 376.954 176.555 391.349 168.09C391.889 167.772 392.463 167.524 393.265 167.134C393.405 167.946 393.625 168.615 393.621 169.285V169.283ZM345.031 139.176C345.723 139.176 346.431 139.388 347.237 139.846C361.734 148.121 376.298 156.305 390.831 164.523C391.361 164.823 391.855 165.2 392.665 165.734C391.869 166.332 391.303 166.866 390.641 167.24C376.082 175.425 361.508 183.581 346.967 191.795C346.195 192.229 345.511 192.472 344.807 192.472C344.205 192.472 343.591 192.293 342.901 191.899C328.209 183.535 313.476 175.236 298.76 166.912C298.318 166.662 297.924 166.33 297.094 165.74C298.124 165.072 298.79 164.583 299.504 164.185C313.882 156.105 328.273 148.045 342.623 139.932C343.485 139.444 344.249 139.174 345.031 139.174V139.176ZM344.121 134.623C344.105 136.645 343.181 137.596 341.605 138.516C328.801 145.98 316.03 153.502 303.24 161.008C301.174 162.221 299.086 163.405 296.468 164.913C296.424 163.339 296.368 162.311 296.382 161.288C296.564 145.002 296.782 128.719 296.896 112.428C296.914 110.546 297.446 109.383 299.134 108.389C313.482 100.019 327.773 91.5499 342.083 83.1164C342.703 82.7445 343.365 82.4566 344.271 82.0027C344.415 82.8464 344.657 83.5182 344.649 84.186C344.475 100.999 344.243 117.81 344.123 134.621L344.121 134.623ZM344.167 24.7514C344.337 42.8781 344.503 61.0228 344.671 79.2155C342.287 78.7516 302.722 55.6823 297.146 51.5575C296.988 33.5688 296.822 15.4421 296.654 -3.41043C312.904 6.22076 328.439 15.4381 344.167 24.7514ZM296.042 51.5675L296.046 52.1174L296.488 52.4453C296.822 52.6932 297.318 53.0311 297.95 53.447C297.27 53.1891 296.622 53.0651 295.966 53.0651C295.596 53.0651 295.228 53.1031 294.854 53.1851C295.522 52.5193 295.862 51.7795 296.036 51.0317L296.04 51.5695L296.042 51.5675ZM295.508 -2.96057C295.57 -1.75293 295.666 -0.845215 295.652 0.0665283C295.474 16.4557 295.266 32.833 295.11 49.2082C295.092 50.8857 294.84 52.1094 293.166 53.0871C278.475 61.6586 263.835 70.3421 249.17 78.9856C248.814 79.1955 248.424 79.3415 247.782 79.6394C247.63 78.8756 247.378 78.2198 247.39 77.572C247.56 60.6749 247.78 43.7698 247.93 26.8707C247.944 25.2972 248.554 24.3894 249.876 23.6117C264.463 15.0662 279.027 6.46069 293.604 -2.11081C294.12 -2.41272 294.684 -2.60068 295.508 -2.96057ZM201.897 -6.09164C216.095 -14.0673 230.314 -22.005 244.47 -30.0487C245.408 -30.5805 246.228 -30.8504 247.05 -30.8504C247.868 -30.8504 248.69 -30.5845 249.638 -30.0406C263.759 -21.947 277.961 -13.9874 292.13 -5.97171C292.928 -5.51584 293.686 -4.98795 294.78 -4.29214C293.81 -3.63235 293.108 -3.07449 292.346 -2.63663C277.967 5.44501 263.573 13.5007 249.208 21.6023C248.366 22.0742 247.618 22.372 246.83 22.372C246.224 22.372 245.592 22.1961 244.876 21.7902C230.282 13.4527 215.637 5.22107 201.011 -3.05652C200.482 -3.35245 200.004 -3.73236 198.996 -4.43015C200.275 -5.16193 201.077 -5.63776 201.897 -6.08963V-6.09164ZM198.506 -3.26447C199.896 -2.49469 200.819 -2.00485 201.717 -1.46701C215.547 6.71262 229.355 14.9562 243.236 23.0658C245.19 24.2075 245.986 25.4352 245.992 27.7425C246.03 43.9278 246.232 60.097 246.368 76.2843C246.376 77.29 246.294 78.3018 246.238 79.6833C245.194 79.1935 244.446 78.9016 243.766 78.4977C229.482 70.0442 215.203 61.5667 200.911 53.1311C199.564 52.3373 198.708 51.5615 198.702 49.7601C198.622 32.837 198.432 15.9279 198.286 -0.981171C198.282 -1.577 198.398 -2.17081 198.508 -3.26248L198.506 -3.26447ZM197.696 50.8358C197.95 52.0994 198.64 52.8912 199.427 53.481C198.85 53.299 198.294 53.2111 197.738 53.2111C197.144 53.2111 196.55 53.311 195.928 53.521C197.038 52.7512 197.508 51.8155 197.696 50.8358ZM197.26 -0.645233C197.082 16.0479 196.876 32.7411 196.712 49.4342C196.702 50.9117 196.408 51.9774 194.998 52.8032C180.136 61.5127 165.303 70.2821 150.459 79.0276C150.193 79.1855 149.881 79.2555 149.143 79.5394C149.079 78.3997 148.985 77.59 148.999 76.7802C149.185 60.297 149.395 43.8098 149.545 27.3306C149.563 25.6291 149.863 24.4334 151.513 23.4657C166.123 14.9442 180.672 6.32074 195.242 -2.26678C195.688 -2.52869 196.176 -2.72864 196.966 -3.12051C197.084 -2.16681 197.266 -1.40298 197.26 -0.643219V-0.645233ZM103.799 -6.17764C117.914 -14.1113 132.042 -22.019 146.139 -29.9847C147.067 -30.5145 147.897 -30.8924 148.795 -30.8924C149.399 -30.8924 150.035 -30.7205 150.755 -30.3106C165.355 -21.959 180.016 -13.7214 194.654 -5.44183C195.192 -5.13791 195.68 -4.75003 196.482 -4.2142C195.688 -3.61038 195.106 -3.04855 194.428 -2.67267C180.046 5.42297 165.637 13.4786 151.277 21.6223C150.345 22.1481 149.523 22.4481 148.677 22.4481C147.955 22.4481 147.213 22.2301 146.369 21.7462C131.954 13.5027 117.47 5.37302 103.023 -2.80661C102.399 -3.15649 101.825 -3.59839 100.663 -4.37216C102.033 -5.15994 102.911 -5.68579 103.805 -6.17764H103.799ZM100.311 -3.04651C108.385 1.32419 116.064 6.1568 123.88 10.7415C131.756 15.3621 139.6 20.0627 147.501 24.7454C147.667 42.9741 147.833 61.0248 147.997 79.4494C147.047 79.1015 146.361 78.9676 145.793 78.6317C131.304 70.0702 116.85 61.4747 102.367 52.9171C101.209 52.2354 100.435 51.5716 100.427 50.036C100.339 32.6851 100.175 15.3481 100.037 -1.99884C100.033 -2.19876 100.133 -2.39471 100.311 -3.04852V-3.04651Z" fill="#4F4747"/>
<path opacity="0.5" d="M1.43997 3.78555C1.36197 4.07547 1.29596 4.28943 1.24396 4.45337C1.13599 4.80527 1.04199 5.10916 1.04999 5.48706L1.18597 22.0403C1.31995 38.1656 1.45395 54.2888 1.53796 70.4221C1.55396 73.1573 3.14792 74.323 4.63986 75.2007C13.8116 80.6192 22.9753 86.0516 32.1409 91.484C41.0406 96.7585 49.9404 102.035 58.8521 107.299C59.446 107.651 60.082 107.853 60.754 108.067C61.08 108.171 61.436 108.283 61.83 108.427L62.112 108.529V108.759L61.5219 109.039C61.112 109.233 60.77 109.385 60.476 109.517C59.912 109.769 59.5001 109.957 59.1161 110.185L42.9526 119.706C30.149 127.252 17.3474 134.795 4.51984 142.285C1.72192 143.923 1.32199 146.128 1.30597 148.267C1.198 161.184 1.04797 174.106 0.899994 187.032C0.809998 194.816 0.719971 202.6 0.63797 210.383C0.625977 211.151 0.72998 211.883 0.84198 212.659C0.889984 212.997 0.941986 213.35 0.985962 213.73L1.01401 213.97L3.05176e-05 214.556L0.416016 214.83L0.431976 216.528L0.819946 258.011L1.06995 284.978L1.07797 285.753L1.74594 286.149C19.0334 296.402 36.1668 306.553 53.5942 316.876L60.89 321.199L61.088 321.317C60.8 321.403 60.586 321.459 60.42 321.503C60.082 321.593 59.816 321.663 59.526 321.827L46.9825 329.209C32.5089 337.728 18.0394 346.246 3.5499 354.737C1.64197 355.857 0.779999 357.402 0.753998 359.75C0.649994 370.623 0.528015 381.493 0.40802 392.364C0.294006 402.725 0.177979 413.084 0.0780029 423.445C0.0700073 424.121 0.253998 424.715 0.43399 425.289C0.503998 425.513 0.575989 425.747 0.63797 425.994L0.817993 426.728L0.0220032 427.238L1.79596 428.408C2.25595 428.712 2.66794 428.998 3.05392 429.266C3.72391 429.731 4.35587 430.169 5.02985 430.551L19.5034 438.723C32.2709 445.929 45.4745 453.379 58.4101 460.778C59.78 461.56 60.972 461.924 62.166 461.924C63.3599 461.924 64.5279 461.568 65.8798 460.802C79.4774 453.083 93.3429 445.311 106.75 437.795L119.03 430.909C119.71 430.529 120.386 430.137 121.17 429.683L122.782 428.754L123.946 428.086L124.534 428.454C124.964 428.724 125.356 428.974 125.726 429.21C126.506 429.709 127.184 430.141 127.882 430.537C132.796 433.316 137.711 436.092 142.629 438.865C155.097 445.901 167.988 453.175 180.616 460.414C182.198 461.328 183.572 461.754 184.94 461.754C186.308 461.754 187.624 461.346 189.162 460.472C202.173 453.033 215.465 445.571 228.32 438.355C232.874 435.8 237.426 433.242 241.978 430.683C242.968 430.123 243.948 429.557 245.446 428.69L246.308 428.192L247.146 428.69L247.142 428.358C247.656 428.696 248.088 428.992 248.472 429.254C249.182 429.737 249.736 430.113 250.316 430.443C255.332 433.28 260.345 436.11 265.361 438.941C278.069 446.115 291.208 453.53 304.088 460.894C305.396 461.648 306.562 462 307.75 462C308.938 462 310.172 461.626 311.58 460.826C323.677 453.964 335.805 447.154 347.93 440.344C353.884 437.001 359.838 433.658 365.788 430.309C366.392 429.971 366.878 429.551 367.442 429.064C367.71 428.832 368.004 428.578 368.346 428.304L368.892 427.866L368.908 428.054L369.112 427.958L369.666 428.248L369.67 428.138L370.01 428.372C370.346 428.604 370.634 428.812 370.896 428.998C371.412 429.37 371.86 429.689 372.356 429.971C377.957 433.14 383.559 436.303 389.161 439.467C401.613 446.497 414.488 453.766 427.112 460.972C428.2 461.594 429.232 461.896 430.268 461.896C431.706 461.896 432.96 461.294 433.89 460.768C446.369 453.72 458.873 446.706 471.374 439.693L487.738 430.509C488.452 430.113 489.162 429.699 490.156 429.122L491.036 428.61L491.768 428.184L492.306 428.502L492.334 427.854L492.918 427.516L492.366 427.136L492.406 426.2C492.438 425.465 492.472 424.833 492.504 424.265C492.562 423.211 492.606 422.376 492.602 421.538L492.456 405.798C492.316 391.089 492.17 375.877 492.12 360.915C492.114 357.758 490.966 355.811 488.158 354.191C477.198 347.797 466.089 341.203 455.343 334.825L446.135 329.363L438.329 324.736L432.082 321.031L432.27 320.923L436.084 318.738C439.465 316.8 442.625 314.991 445.763 313.147C451.841 309.586 457.917 306.019 463.993 302.453C472.18 297.646 480.368 292.839 488.564 288.047C490.464 286.939 492.322 285.589 492.34 282.394C492.438 269.23 492.588 256.064 492.736 242.898C492.828 234.812 492.92 226.727 493 218.641C493.01 217.957 492.818 217.349 492.632 216.761C492.558 216.528 492.48 216.284 492.414 216.02L491.996 214.35L490.458 215.122C490.112 215.296 489.792 215.45 489.49 215.596C488.82 215.92 488.24 216.2 487.664 216.546L472.684 225.391C460.043 232.861 446.971 240.583 434.08 248.12C432.306 249.158 431.3 250.412 430.882 252.201L430.872 251.157L430.866 250.38L430.198 249.984C410.486 238.301 391.033 226.779 370.876 214.842L368.772 213.596V213.864L368.512 213.69C368.15 213.452 367.84 213.239 367.56 213.047C367.026 212.679 366.592 212.383 366.138 212.127L351.18 203.679C338.233 196.371 324.845 188.816 311.72 181.324C310.516 180.638 309.392 180.306 308.282 180.306C307.79 180.306 307.294 180.37 306.784 180.504C307.794 179.48 308.506 178.101 308.522 176.011C308.622 162.133 308.782 148.255 308.942 134.375C309.024 127.268 309.106 120.16 309.18 113.052C309.19 112.352 309.038 111.69 308.892 111.05C308.822 110.746 308.748 110.424 308.69 110.079L308.522 109.095L309.134 108.647L308.774 108.417L309.23 108.505L309.214 106.818L309.036 87.5692L308.584 38.8273L308.576 38.0496L307.908 37.6537C294.916 29.96 282.031 22.3182 268.921 14.5464L248.596 2.49594L246.492 1.24829V1.5462L246.294 1.41821C245.834 1.12631 245.422 0.856415 245.042 0.606506C244.268 0.100647 243.61 -0.32724 242.928 -0.715149C237.866 -3.57831 232.806 -6.43344 227.744 -9.28662C215.317 -16.2966 202.467 -23.5465 189.882 -30.7584C188.46 -31.5721 187.216 -31.952 185.966 -31.952C184.716 -31.952 183.488 -31.5782 182.066 -30.7724C168.896 -23.2886 155.459 -15.7527 142.465 -8.46487L128.922 -0.865082C128.28 -0.5112 127.634 -0.139313 126.842 0.318542L125.29 1.21234L124.366 1.74014L124.2 1.64819L124.18 1.84613L124.118 1.88211L123.6 1.53622C123.232 1.29028 122.918 1.06833 122.634 0.870392C122.114 0.504486 121.684 0.206604 121.232 -0.0493164C116.21 -2.88849 111.188 -5.72568 106.165 -8.56284C93.1289 -15.9227 79.6494 -23.5345 66.4358 -31.0923C65.3638 -31.7041 64.3399 -32 63.3039 -32C61.814 -32 60.502 -31.3682 59.3061 -30.6864C47.0745 -23.7744 34.8189 -16.8944 22.5633 -10.0144L6.45782 -0.969055C5.75183 -0.581177 5.04382 -0.169281 4.17786 0.334564L2.5239 1.2923L0.593994 2.40198L1.63596 3.09576L1.44998 3.78354L1.43997 3.78555ZM2.68192 148.279C2.69791 146.108 3.17792 144.668 5.21185 143.477C23.4413 132.834 41.6126 122.083 59.816 111.372C60.366 111.046 60.986 110.818 62.108 110.287C62.172 111.876 62.2719 112.896 62.256 113.911C62.028 134.487 61.7639 155.067 61.586 175.649C61.564 177.809 61.064 179.226 59.0341 180.416C40.9207 190.997 22.8712 201.702 4.79987 212.361C4.12387 212.755 3.40192 213.045 2.35193 213.572C2.21194 212.355 1.99597 211.381 2.01196 210.397C2.22797 189.683 2.5079 168.973 2.6799 148.277L2.68192 148.279ZM306.05 249.24C306.71 249.488 307.356 249.608 308 249.608C308.744 249.608 309.496 249.448 310.306 249.108C309.092 250.098 308.384 251.287 308.1 252.831C307.796 251.397 307.138 250.244 306.05 249.238V249.24ZM310.072 393.236C309.3 392.982 308.556 392.86 307.804 392.86C307.116 392.86 306.432 392.962 305.716 393.176C306.88 392.188 307.554 391.009 307.82 389.495C308.148 391.007 308.868 392.202 310.072 393.236ZM306.922 254.894C306.968 275.092 307.216 295.287 307.386 315.485C307.396 316.752 307.302 318.024 307.24 319.745C305.938 319.142 305.002 318.784 304.156 318.284C286.318 307.729 268.497 297.156 250.65 286.611C248.982 285.623 247.892 284.668 247.874 282.404C247.78 261.29 247.542 240.181 247.362 219.059C247.352 218.315 247.488 217.561 247.624 216.188C249.358 217.157 250.51 217.765 251.624 218.433C268.899 228.656 286.13 238.935 303.46 249.062C305.892 250.484 306.91 251.991 306.922 254.894ZM60.758 249.24C61.384 249.436 61.994 249.53 62.6079 249.53C63.1799 249.53 63.7539 249.446 64.3539 249.272C63.3179 250.204 62.8439 251.265 62.6259 252.335C62.3699 250.872 61.626 249.93 60.758 249.24ZM64.2919 393.134C63.6079 392.924 62.9479 392.822 62.2859 392.822C61.5359 392.822 60.792 392.952 60.014 393.22C61.208 392.342 61.9179 391.275 62.2259 389.873C62.4979 391.461 63.3399 392.434 64.2919 393.132V393.134ZM59.642 247.233C41.7666 237 23.7993 226.917 5.86783 216.769C4.97986 216.274 4.1539 215.658 2.61594 214.64C4.3779 213.622 5.48984 212.979 6.60782 212.337C24.1232 202.518 41.6646 192.738 59.124 182.823C60.398 182.102 61.514 181.71 62.6519 181.71C63.6819 181.71 64.7318 182.032 65.9338 182.721C83.5752 192.836 101.321 202.78 119.022 212.789C120.022 213.356 120.968 214.024 122.304 214.884C121.222 215.666 120.478 216.33 119.626 216.811C101.667 226.927 83.6852 236.982 65.7618 247.159C64.6199 247.802 63.6239 248.15 62.6079 248.15C61.676 248.15 60.728 247.856 59.64 247.233H59.642ZM63.8279 254.419C63.8439 252.315 64.1859 250.794 66.2718 249.584C84.5212 238.935 102.705 228.166 120.908 217.439C121.456 217.113 122.064 216.887 123.022 216.432C123.178 217.651 123.418 218.615 123.404 219.583C123.186 240.309 122.882 261.039 122.758 281.765C122.736 284.38 121.788 285.753 119.612 287.025C101.705 297.48 83.8632 308.057 65.9958 318.572C65.3358 318.966 64.6078 319.234 63.3339 319.821C63.2479 318.244 63.1399 317.222 63.1479 316.208C63.3739 295.613 63.6359 275.013 63.8259 254.419H63.8279ZM123.94 283.684C124.16 284.898 124.714 285.851 125.68 286.681C125.096 286.491 124.522 286.397 123.946 286.397C123.4 286.397 122.878 286.485 122.392 286.621C123.188 285.783 123.688 284.832 123.94 283.684ZM123.524 143.789L123 143.479C123.382 143.569 123.762 143.615 124.146 143.615C124.596 143.615 125.026 143.551 125.432 143.447C124.834 144.107 124.432 144.87 124.206 145.782L124.198 144.962L124.192 144.185L123.522 143.789H123.524ZM67.1498 319.014C85.0912 308.917 103.061 298.86 120.99 288.733C122.034 288.145 122.966 287.775 123.948 287.775C124.708 287.775 125.498 287.995 126.394 288.507C144.619 298.91 162.903 309.195 181.16 319.512C181.82 319.883 182.418 320.365 183.682 321.241C182.222 322.081 181.324 322.617 180.414 323.118C162.461 333.194 144.501 343.257 126.564 353.372C125.522 353.961 124.586 354.335 123.596 354.335C122.836 354.335 122.046 354.115 121.15 353.606C102.933 343.197 84.6532 332.92 66.3898 322.607C65.7318 322.231 65.1318 321.755 64.1319 321.067C65.3198 320.249 66.1898 319.548 67.1518 319.016L67.1498 319.014ZM181.514 318.248C163.555 307.629 145.611 296.962 127.632 286.371C125.97 285.393 125.218 284.362 125.208 282.366C125.082 261.113 124.856 239.849 124.666 218.589C124.664 218.079 124.76 217.559 124.87 216.386C135.132 221.912 144.699 227.966 154.455 233.673C164.295 239.441 174.084 245.299 183.962 251.171C184.172 273.895 184.374 296.458 184.586 319.556C183.282 319.006 182.332 318.732 181.512 318.246L181.514 318.248ZM125.528 214.832C128.846 212.917 131.546 211.339 134.274 209.812C150.061 200.928 165.898 192.129 181.63 183.159C183.038 182.355 184.264 181.916 185.52 181.916C186.65 181.916 187.806 182.272 189.14 183.039C206.529 193.066 224.045 202.868 241.516 212.761C242.628 213.39 243.704 214.086 245.136 214.964C244.174 215.716 243.56 216.37 242.814 216.783C224.747 226.959 206.639 237.078 188.608 247.313C187.468 247.956 186.472 248.3 185.458 248.3C184.52 248.3 183.57 248.006 182.48 247.383C164.601 237.15 146.637 227.06 128.708 216.923C127.82 216.424 127.002 215.806 125.526 214.83L125.528 214.832ZM185.35 251.991L185.342 251.159L185.334 250.384L184.666 249.988L183.724 249.426C184.31 249.598 184.882 249.68 185.46 249.68C185.87 249.68 186.284 249.636 186.704 249.548C185.954 250.3 185.556 251.139 185.35 251.991ZM185.712 392.286L186.232 392.594C185.814 392.486 185.396 392.434 184.974 392.434C184.596 392.434 184.216 392.478 183.826 392.566C184.476 391.862 184.834 391.087 185.028 390.303L185.036 391.113L185.044 391.89L185.712 392.286ZM186.516 253.957C186.534 252.107 186.934 250.792 188.676 249.762C207.241 238.903 225.757 227.962 244.288 217.043C244.62 216.839 245.016 216.763 245.908 216.432C245.986 217.877 246.094 218.899 246.08 219.907C245.854 240.487 245.584 261.057 245.406 281.637C245.384 283.788 244.928 285.244 242.896 286.433C224.665 297.088 206.495 307.843 188.314 318.572C187.756 318.904 187.148 319.144 186.264 319.564C186.092 318.552 185.816 317.706 185.83 316.876C186.046 295.9 186.312 274.927 186.516 253.959V253.957ZM246.604 283.614C246.902 285.25 247.778 286.269 248.782 287.029C248.078 286.811 247.396 286.705 246.712 286.705C245.934 286.705 245.168 286.837 244.352 287.121C245.732 286.091 246.344 284.876 246.604 283.614ZM190.59 318.816C208.077 308.971 225.599 299.189 243.028 289.254C244.362 288.495 245.522 288.085 246.71 288.085C247.798 288.085 248.91 288.429 250.198 289.168C267.801 299.305 285.531 309.227 303.222 319.234C304.122 319.735 304.964 320.337 306.16 321.111C305.44 321.727 304.964 322.289 304.364 322.627C285.853 333.044 267.317 343.421 248.806 353.862C247.988 354.327 247.24 354.589 246.476 354.589C245.826 354.589 245.164 354.399 244.436 353.981C225.745 343.359 207.029 332.784 188.32 322.187C188 321.999 187.746 321.695 186.886 320.939C188.368 320.085 189.478 319.442 190.588 318.814L190.59 318.816ZM247.024 146.264C246.778 144.758 246.018 143.801 245.13 143.105C245.762 143.303 246.378 143.399 246.998 143.399C247.618 143.399 248.218 143.305 248.854 143.107C247.91 143.969 247.316 144.99 247.024 146.264ZM246.996 142.019C246.062 142.019 245.114 141.727 244.026 141.106C226.145 130.873 208.183 120.783 190.254 110.636C189.37 110.135 188.552 109.529 186.994 108.503C188.758 107.487 189.866 106.84 190.984 106.208C208.501 96.3826 226.041 86.6074 243.502 76.6883C244.778 75.9625 245.892 75.5686 247.03 75.5686C248.058 75.5686 249.106 75.8906 250.31 76.5804C267.953 86.6954 285.697 96.6465 303.4 106.654C304.402 107.221 305.356 107.879 306.692 108.733C305.61 109.527 304.866 110.193 304.018 110.672C286.053 120.781 268.075 130.843 250.16 141.02C249.018 141.669 248.018 142.017 247 142.017L246.996 142.019ZM188.86 111.31C207.051 122.069 225.229 132.858 243.422 143.619C244.892 144.479 245.712 145.41 245.728 147.286C245.846 168.809 246.064 190.337 246.246 211.859C246.248 212.239 246.148 212.625 245.976 213.886C226.022 202.072 206.541 190.527 186.82 178.843C186.612 156.137 186.402 133.464 186.186 110.342C187.31 110.738 188.16 110.9 188.86 111.31ZM185.44 178.857L185.448 179.634L186.116 180.03L187.418 180.802C186.776 180.624 186.15 180.54 185.52 180.54C184.81 180.54 184.106 180.648 183.366 180.876C184.556 179.828 185.144 178.657 185.426 177.451L185.44 178.859V178.857ZM183.762 36.9039C184.412 37.1378 185.048 37.2518 185.684 37.2518C186.516 37.2518 187.278 37.0558 187.968 36.7799C186.722 37.7177 186.016 38.8533 185.772 40.3129C185.452 38.9613 184.804 37.8636 183.76 36.9039H183.762ZM184.292 175.062C184.27 177.669 183.622 179.33 181.186 180.736C163.371 191.089 145.647 201.602 127.896 212.061C127.124 212.517 126.286 212.879 125.146 213.468C124.954 212.395 124.674 211.561 124.68 210.735C124.9 189.753 125.17 168.761 125.362 147.766C125.378 145.726 125.938 144.405 127.802 143.323C146.035 132.632 164.217 121.865 182.418 111.128C182.97 110.802 183.576 110.58 184.778 110.033C184.854 111.77 184.954 112.914 184.948 114.059C184.718 134.393 184.438 154.722 184.294 175.062H184.292ZM181.67 110.546C163.377 120.819 145.079 131.072 126.79 141.381C125.866 141.901 125.026 142.235 124.146 142.235C123.494 142.235 122.82 142.053 122.074 141.627C103.499 131.056 84.8892 120.554 66.2978 110.029C65.8658 109.779 65.4978 109.421 64.5298 108.665C66.1358 107.733 67.2478 107.079 68.3857 106.442C85.8712 96.6085 103.399 86.8353 120.824 76.8822C122.128 76.1345 123.26 75.7566 124.396 75.7566C125.532 75.7566 126.668 76.1325 127.984 76.8922C145.487 86.9593 163.105 96.8204 180.674 106.764C181.678 107.329 182.63 107.995 183.996 108.861C183.026 109.573 182.394 110.135 181.672 110.546H181.67ZM122.82 144.974C123.028 167.632 123.234 190.285 123.444 212.999C120.402 212.347 70.5237 183.225 64.1179 178.431C63.9179 155.963 63.7139 133.342 63.5019 109.849C83.6852 121.797 103.141 133.322 122.82 144.974ZM62.7339 177.813L62.7399 178.443L62.7459 179.124L63.2919 179.534C63.7019 179.84 64.3398 180.278 65.1738 180.824C64.3119 180.49 63.4879 180.33 62.6539 180.33C62.18 180.33 61.702 180.384 61.214 180.494C62.058 179.664 62.5059 178.751 62.7359 177.813H62.7339ZM62.3859 37.6557C62.076 37.4737 61.768 37.2898 61.46 37.1058C62.03 37.2698 62.5899 37.3498 63.1459 37.3498C63.5939 37.3498 64.0399 37.2998 64.4959 37.1978C63.7219 37.9876 63.2939 38.8793 63.0719 39.875L63.062 38.8293L63.0539 38.0516L62.3859 37.6557ZM2.44592 284.968C2.23395 262.248 2.02597 239.573 1.80795 216.518C2.81192 216.827 3.5639 216.905 4.16589 217.265C22.4673 228.08 40.7547 238.941 59.0641 249.75C60.548 250.636 61.336 251.595 61.344 253.453C61.47 274.977 61.684 296.496 61.858 318.018C61.86 318.398 61.7639 318.784 61.592 320.015C41.6366 308.193 22.1433 296.644 2.44794 284.966L2.44592 284.968ZM1.45398 423.463C1.66196 402.233 1.92593 381.002 2.12991 359.77C2.14792 358.022 2.67993 356.851 4.24387 355.933C22.9132 344.994 41.5486 334.009 60.204 323.033C60.428 322.907 60.696 322.879 61.53 322.629C61.602 323.958 61.71 324.968 61.696 325.974C61.472 346.684 61.208 367.39 61.03 388.108C61.01 390.171 60.404 391.451 58.5621 392.526C40.3447 403.199 22.1773 413.942 3.98987 424.675C3.43188 425.007 2.8259 425.251 1.97192 425.671C1.76794 424.837 1.44397 424.151 1.45197 423.463H1.45398ZM118.352 429.711C100.625 439.661 82.8753 449.57 65.1959 459.607C64.0859 460.235 63.1239 460.548 62.16 460.548C61.196 460.548 60.216 460.229 59.0901 459.585C41.3406 449.432 23.5032 439.417 5.70383 429.352C4.71988 428.796 3.8179 428.094 2.55194 427.258C3.88788 426.404 4.81787 425.739 5.80783 425.183C23.5212 415.208 41.2686 405.297 58.928 395.239C60.148 394.544 61.22 394.202 62.2879 394.202C63.3879 394.202 64.4839 394.566 65.7378 395.283C83.3692 405.385 101.093 415.338 118.774 425.335C119.758 425.889 120.656 426.594 122.092 427.562C120.538 428.454 119.45 429.098 118.35 429.711H118.352ZM122.888 425.617C122.008 425.359 121.25 425.285 120.658 424.937C102.357 414.118 84.0932 403.273 65.7938 392.466C64.3019 391.589 63.5259 390.613 63.5159 388.771C63.3839 367.26 63.1759 345.76 63.0019 324.248C62.9959 323.86 63.1179 323.472 63.2799 322.477C64.6859 323.196 65.7278 323.666 66.7058 324.238C84.3212 334.673 101.897 345.138 119.548 355.507C121.562 356.689 122.5 357.928 122.506 360.404C122.59 381.124 122.824 401.85 123.012 422.565C123.012 423.473 122.936 424.383 122.888 425.617ZM123.74 358.78C123.478 357.422 122.852 356.345 121.776 355.403C122.388 355.611 122.99 355.713 123.594 355.713C124.402 355.713 125.156 355.521 125.826 355.259C124.53 356.301 123.972 357.518 123.742 358.778L123.74 358.78ZM124.474 425.861C124.394 424.401 124.286 423.377 124.288 422.362C124.522 401.792 124.786 381.214 124.97 360.63C124.984 358.488 125.412 357.013 127.456 355.809C145.695 345.184 163.867 334.429 182.068 323.71C182.618 323.384 183.232 323.15 184.12 322.725C184.29 323.74 184.554 324.582 184.548 325.418C184.336 346.388 184.064 367.36 183.864 388.325C183.846 390.175 183.42 391.501 181.682 392.52C163.119 403.387 144.605 414.328 126.076 425.247C125.744 425.443 125.348 425.529 124.474 425.861ZM241.296 429.487C223.677 439.401 206.019 449.25 188.474 459.281C187.176 460.019 186.052 460.382 184.934 460.382C183.816 460.382 182.624 459.993 181.296 459.225C163.769 449.174 146.143 439.291 128.556 429.344C127.546 428.772 126.582 428.118 125.262 427.292C126.146 426.556 126.728 425.897 127.45 425.505C145.759 415.206 164.079 404.949 182.38 394.642C183.29 394.124 184.116 393.816 184.972 393.816C185.646 393.816 186.34 394.008 187.104 394.44C205.695 405.019 224.329 415.53 242.94 426.07C243.38 426.32 243.762 426.684 244.8 427.476C243.278 428.358 242.292 428.928 241.296 429.491V429.487ZM186.414 391.101C186.206 368.303 185.994 345.694 185.784 322.167C205.951 334.115 225.401 345.64 245.102 357.301C245.312 379.948 245.522 402.605 245.738 426.26C225.449 414.234 205.973 402.691 186.414 391.101ZM246.482 357.287L246.474 356.509L245.804 356.113C245.642 356.017 245.48 355.921 245.318 355.825C245.704 355.921 246.09 355.967 246.478 355.967C246.888 355.967 247.298 355.915 247.718 355.807C247.058 356.563 246.69 357.378 246.492 358.218L246.484 357.287H246.482ZM246.972 422.534C247.198 401.808 247.46 381.082 247.646 360.348C247.67 358.198 248.16 356.755 250.194 355.563C268.221 345.034 286.16 334.381 304.136 323.78C304.892 323.332 305.714 323.005 307.048 322.381C307.14 323.926 307.248 324.834 307.24 325.74C307.012 346.466 306.722 367.192 306.574 387.926C306.556 390.319 305.754 391.712 303.684 392.922C285.775 403.371 267.925 413.934 250.054 424.461C249.296 424.907 248.472 425.245 247.292 425.823C247.154 424.493 246.96 423.515 246.972 422.538V422.534ZM365.106 429.114C347.036 439.285 328.935 449.4 310.892 459.635C309.756 460.281 308.76 460.628 307.744 460.628C306.808 460.628 305.856 460.332 304.766 459.705C286.884 449.482 268.921 439.391 250.994 429.252C250.11 428.748 249.288 428.128 247.812 427.158C251.134 425.251 253.826 423.663 256.556 422.128C272.347 413.256 288.174 404.459 303.906 395.485C305.318 394.68 306.546 394.24 307.802 394.24C308.932 394.24 310.082 394.596 311.41 395.361C328.689 405.335 346.089 415.066 363.45 424.891C364.682 425.589 365.894 426.308 367.478 427.234C366.456 428.05 365.85 428.696 365.104 429.114H365.106ZM368.37 426.024C366.838 425.225 365.692 424.699 364.61 424.053C347.21 413.764 329.861 403.395 312.404 393.19C309.952 391.76 308.994 390.223 308.988 387.34C308.934 367.132 308.686 346.918 308.51 326.711C308.5 325.444 308.612 324.17 308.678 322.421C310.21 323.222 311.36 323.756 312.438 324.39C329.831 334.685 347.192 345.05 364.65 355.249C367.098 356.685 368.042 358.232 368.05 361.109C368.11 381.316 368.352 401.522 368.526 421.746C368.542 423.001 368.44 424.263 368.37 426.022V426.024ZM309.73 321.221C310.412 320.571 310.834 319.929 311.43 319.598C329.957 309.171 348.516 298.786 367.034 288.339C367.842 287.891 368.576 287.651 369.314 287.651C369.99 287.651 370.67 287.853 371.414 288.277C390.127 298.908 408.858 309.494 427.578 320.105C427.914 320.291 428.184 320.593 428.97 321.231C427.66 322.085 426.738 322.753 425.74 323.31C408.126 333.222 390.477 343.073 372.922 353.092C371.594 353.846 370.446 354.239 369.286 354.239C368.126 354.239 367.048 353.88 365.744 353.134C348.232 343.067 330.595 333.192 313.008 323.24C311.99 322.667 311.02 322.023 309.73 321.221ZM369.22 358.962C368.896 357.452 368.184 356.257 366.996 355.225C367.782 355.491 368.534 355.619 369.286 355.619C369.898 355.619 370.512 355.533 371.15 355.355C369.95 356.377 369.422 357.574 369.22 358.96V358.962ZM369.824 422.362C370.036 401.768 370.3 381.17 370.492 360.578C370.506 358.452 370.902 356.969 372.968 355.759C391.105 345.178 409.17 334.467 427.262 323.806C427.92 323.42 428.634 323.128 429.964 322.479C430.01 324.432 430.078 325.714 430.066 326.989C429.836 347.065 429.544 367.132 429.442 387.208C429.422 390.173 428.588 391.912 425.924 393.466C408.21 403.727 390.615 414.192 372.97 424.585C372.196 425.041 371.362 425.371 370.11 425.965C369.99 424.545 369.814 423.451 369.824 422.362ZM487.06 429.318C469.108 439.401 451.133 449.454 433.21 459.577C432.168 460.165 431.24 460.526 430.264 460.526C429.496 460.526 428.698 460.3 427.792 459.785C409.58 449.39 391.285 439.111 373.034 428.782C372.372 428.404 371.782 427.928 370.79 427.244C371.878 426.484 372.648 425.861 373.494 425.379C391.549 415.228 409.63 405.093 427.672 394.91C428.71 394.328 429.636 393.972 430.604 393.972C431.378 393.972 432.18 394.2 433.09 394.72C451.307 405.117 469.59 415.394 487.846 425.715C488.514 426.096 489.106 426.578 490.34 427.43C488.862 428.29 487.966 428.818 487.058 429.322L487.06 429.318ZM432.028 254.383C432.044 252.059 432.634 250.57 434.772 249.316C452.677 238.849 470.512 228.266 488.372 217.731C489.146 217.265 489.986 216.905 491.074 216.358C491.294 217.237 491.628 217.931 491.618 218.631C491.408 239.891 491.116 261.139 490.958 282.392C490.944 284.832 489.644 285.825 487.866 286.863C473.586 295.215 459.331 303.606 445.063 311.966C440.779 314.481 436.458 316.934 431.582 319.735C431.482 318.204 431.35 317.18 431.362 316.175C431.588 295.579 431.862 274.982 432.03 254.383H432.028ZM445.427 330.558C459.429 338.858 473.412 347.199 487.462 355.397C489.766 356.725 490.73 358.196 490.736 360.931C490.804 381.144 491.04 401.348 491.218 421.554C491.224 422.821 491.114 424.085 491.024 426.15C471.006 414.276 451.547 402.743 431.934 391.131C431.728 368.379 431.524 345.742 431.312 322.189C436.646 325.35 441.033 327.957 445.427 330.558ZM430.544 389.753L430.556 391.143L430.564 391.92L431.234 392.316C431.494 392.47 431.752 392.622 432.012 392.776C431.54 392.652 431.074 392.59 430.608 392.59C430.014 392.59 429.454 392.692 428.934 392.848C429.734 391.968 430.258 390.961 430.546 389.753H430.544ZM429.49 251.177C429.7 274.031 429.904 296.572 430.112 318.964C429.746 319.174 429.636 319.254 429.524 319.288C429.44 319.324 429.33 319.362 429.244 319.362C429.214 319.362 429.188 319.358 429.166 319.348C428.458 319.008 427.732 318.694 427.056 318.308C408.336 307.215 389.615 296.116 370.792 284.958C370.584 262.19 370.382 239.569 370.168 216.038C390.325 227.972 409.778 239.497 429.49 251.179V251.177ZM369.414 284.97L369.422 285.747L370.09 286.143L370.602 286.447C370.172 286.331 369.746 286.273 369.316 286.273C368.96 286.273 368.606 286.311 368.246 286.391C368.87 285.697 369.216 284.94 369.408 284.174L369.414 284.97ZM368.936 219.279C368.712 240.257 368.454 261.219 368.246 282.192C368.224 284.046 367.806 285.354 366.072 286.385C347.506 297.24 328.991 308.193 310.46 319.106C310.132 319.298 309.736 319.386 308.856 319.717C308.772 318.264 308.66 317.248 308.67 316.232C308.898 295.658 309.176 275.074 309.33 254.5C309.348 252.107 310.104 250.706 312.174 249.494C330.181 238.975 348.126 228.356 366.098 217.785C366.772 217.389 367.488 217.079 368.49 216.592C368.664 217.605 368.94 218.441 368.934 219.277L368.936 219.279ZM308.278 181.694C309.142 181.694 310.026 181.958 311.032 182.531C329.131 192.862 347.31 203.079 365.456 213.336C366.118 213.71 366.736 214.182 367.746 214.85C366.752 215.596 366.046 216.264 365.218 216.729C347.04 226.951 328.847 237.13 310.694 247.385C309.732 247.926 308.876 248.232 307.998 248.232C307.246 248.232 306.48 248.008 305.618 247.517C287.276 237.076 268.883 226.715 250.512 216.324C249.96 216.012 249.468 215.596 248.432 214.862C249.718 214.028 250.55 213.416 251.442 212.921C269.391 202.836 287.356 192.77 305.27 182.643C306.346 182.034 307.298 181.696 308.276 181.696L308.278 181.694ZM307.14 176.009C307.12 178.533 305.966 179.72 304 180.87C288.014 190.187 272.071 199.578 256.106 208.948C253.526 210.463 250.92 211.939 247.654 213.822C247.6 211.859 247.53 210.575 247.546 209.298C247.772 188.968 248.044 168.638 248.186 148.299C248.208 145.95 248.872 144.497 250.98 143.257C268.891 132.808 286.73 122.235 304.596 111.708C305.37 111.244 306.196 110.884 307.328 110.319C307.508 111.372 307.81 112.212 307.8 113.044C307.582 134.034 307.294 155.019 307.142 176.007L307.14 176.009ZM307.2 38.8474C307.412 61.4768 307.62 84.1281 307.83 106.84C304.854 106.26 255.46 77.4601 248.5 72.3116C248.304 49.8541 248.096 27.2247 247.886 3.68958C268.173 15.7141 287.564 27.2188 307.2 38.8474ZM247.12 72.3236L247.126 73.0114L247.678 73.4213C248.096 73.7312 248.714 74.153 249.502 74.6709C248.654 74.347 247.844 74.193 247.026 74.193C246.564 74.193 246.106 74.241 245.638 74.343C246.472 73.5132 246.898 72.5895 247.114 71.6538L247.12 72.3256V72.3236ZM246.452 4.25345C246.53 5.76099 246.648 6.89465 246.632 8.03232C246.412 28.4923 246.15 48.9364 245.956 69.3805C245.934 71.4758 245.618 73.0034 243.528 74.223C225.187 84.9219 206.913 95.7647 188.602 106.556C188.158 106.818 187.67 106.999 186.87 107.371C186.682 106.418 186.366 105.6 186.38 104.792C186.592 83.6983 186.868 62.5945 187.054 41.4986C187.07 39.5352 187.832 38.4015 189.484 37.4297C207.695 26.7628 225.876 16.018 244.074 5.31708C244.718 4.93921 245.424 4.70529 246.45 4.25543L246.452 4.25345ZM129.59 0.34256C147.315 -9.61255 165.067 -19.5237 182.738 -29.5667C183.91 -30.2305 184.932 -30.5664 185.958 -30.5664C186.98 -30.5664 188.006 -30.2325 189.188 -29.5547C206.817 -19.4497 224.547 -9.51257 242.236 0.492523C243.232 1.06036 244.178 1.72015 245.544 2.5899C244.334 3.41367 243.456 4.10947 242.506 4.65533C224.555 14.7444 206.585 24.8014 188.654 34.9145C187.604 35.5043 186.67 35.8742 185.686 35.8742C184.928 35.8742 184.142 35.6563 183.246 35.1484C165.029 24.7395 146.743 14.4624 128.484 4.12946C127.822 3.75955 127.226 3.28574 125.968 2.41397C127.566 1.50024 128.568 0.906403 129.592 0.34256H129.59ZM125.356 3.8735C127.09 4.83524 128.244 5.44705 129.368 6.11685C146.631 16.3279 163.869 26.6189 181.198 36.744C183.638 38.1696 184.63 39.7011 184.638 42.5822C184.686 62.7884 184.938 82.9725 185.106 103.181C185.116 104.436 185.014 105.698 184.944 107.425C183.64 106.814 182.708 106.45 181.856 105.944C164.023 95.3889 146.199 84.8059 128.356 74.277C126.672 73.2853 125.606 72.3176 125.598 70.0682C125.498 48.9404 125.262 27.8325 125.078 6.72269C125.072 5.97891 125.218 5.23712 125.356 3.8735ZM124.346 71.4118C124.662 72.9894 125.524 73.9771 126.506 74.7149C125.784 74.4869 125.09 74.377 124.396 74.377C123.656 74.377 122.914 74.5029 122.138 74.7629C123.524 73.8031 124.11 72.6335 124.346 71.4118ZM123.802 7.14258C123.58 27.9805 123.322 48.8224 123.118 69.6624C123.104 71.5078 122.738 72.8374 120.978 73.8691C102.425 84.74 83.9072 95.6908 65.3758 106.608C65.0438 106.804 64.6539 106.894 63.7319 107.245C63.6519 105.824 63.5359 104.81 63.5519 103.8C63.7839 83.2224 64.0479 62.6404 64.2339 42.0684C64.2559 39.943 64.6299 38.4515 66.6918 37.2418C84.9312 26.6049 103.095 15.838 121.282 5.11716C121.84 4.79123 122.448 4.54135 123.434 4.05148C123.582 5.24115 123.808 6.19485 123.8 7.14258H123.802ZM7.12375 0.234589C24.7472 -9.67053 42.3826 -19.5396 59.98 -29.4867C61.14 -30.1485 62.174 -30.6184 63.2939 -30.6184C64.0479 -30.6184 64.8439 -30.4045 65.7418 -29.8926C83.9672 -19.4677 102.271 -9.18265 120.544 1.15234C121.214 1.53223 121.826 2.01608 122.826 2.68387C121.834 3.43765 121.108 4.13748 120.262 4.60934C102.309 14.7164 84.3192 24.7715 66.3938 34.9385C65.2299 35.5963 64.2039 35.9702 63.1479 35.9702C62.2459 35.9702 61.32 35.6983 60.266 35.0945C42.2686 24.8034 24.1892 14.6544 6.15182 4.44336C5.37384 4.00751 4.65585 3.45566 3.20392 2.48795C4.91385 1.50421 6.01178 0.848419 7.12576 0.234589H7.12375ZM2.77191 4.14545C12.8516 9.60187 22.4393 15.6341 32.1949 21.3585C42.0266 27.1268 51.8183 32.9951 61.684 38.8413C61.8919 61.5967 62.1 84.1321 62.304 107.133C61.118 106.7 60.262 106.534 59.554 106.112C41.4647 95.4229 23.4232 84.694 5.33984 74.0111C3.89389 73.1593 2.92795 72.3316 2.91794 70.4141C2.80795 48.7545 2.60391 27.1108 2.42993 5.45508C2.42392 5.20517 2.55191 4.95923 2.77191 4.14346V4.14545Z" fill="#4F4747"/>
</g>
</svg>
