<svg width="461" height="352" viewBox="0 0 461 352" fill="none" xmlns="http://www.w3.org/2000/svg">
<g opacity="0.1">
<path d="M67.2448 -3.33444C67.1828 -3.10251 67.1288 -2.93057 67.0888 -2.79858C67.0009 -2.51669 66.9268 -2.27277 66.9328 -1.97086L67.0408 11.2893C67.1488 24.2075 67.2568 37.1218 67.3228 50.046C67.3348 52.2374 68.6128 53.1711 69.8068 53.8749C77.1545 58.2156 84.4943 62.5663 91.836 66.9191C98.9638 71.1438 106.094 75.3706 113.231 79.5894C113.707 79.8713 114.215 80.0332 114.755 80.2052C115.015 80.2872 115.301 80.3792 115.617 80.4951L115.843 80.5771V80.761L115.369 80.985C115.041 81.1409 114.767 81.2629 114.531 81.3669C114.079 81.5688 113.749 81.7188 113.441 81.9027L100.494 89.5285C90.2381 95.5727 79.9844 101.615 69.7088 107.615C67.4688 108.927 67.1468 110.694 67.1348 112.408C67.0488 122.755 66.9289 133.106 66.8089 143.459C66.7369 149.693 66.6649 155.929 66.5989 162.163C66.5889 162.779 66.6729 163.365 66.7629 163.987C66.8029 164.257 66.8428 164.541 66.8788 164.845L66.9008 165.036L66.0889 165.506L66.4208 165.726L66.4329 167.086L66.7429 200.314L66.9449 221.914L66.9509 222.536L67.4868 222.854C81.3344 231.065 95.0599 239.197 109.019 247.466L114.863 250.929L115.021 251.023C114.791 251.091 114.619 251.137 114.487 251.173C114.217 251.245 114.003 251.301 113.771 251.433L103.724 257.348C92.13 264.172 80.5404 270.996 68.9328 277.796C67.4048 278.693 66.7129 279.931 66.6929 281.81C66.6089 290.52 66.5128 299.227 66.4168 307.935C66.3249 316.234 66.2329 324.532 66.1529 332.832C66.1469 333.373 66.2949 333.849 66.4369 334.309C66.4929 334.489 66.5509 334.675 66.6009 334.875L66.7449 335.463L66.1069 335.871L67.5268 336.806C67.8968 337.05 68.2268 337.278 68.5348 337.492C69.0708 337.864 69.5768 338.216 70.1167 338.522L81.7104 345.068C91.938 350.84 102.514 356.807 112.875 362.735C113.971 363.361 114.927 363.653 115.883 363.653C116.839 363.653 117.775 363.367 118.859 362.755C129.751 356.571 140.858 350.346 151.598 344.324L161.436 338.808C161.98 338.504 162.522 338.19 163.15 337.826L164.442 337.082L165.374 336.547L165.844 336.84C166.188 337.056 166.504 337.258 166.798 337.446C167.424 337.846 167.965 338.194 168.525 338.51C172.461 340.735 176.399 342.959 180.337 345.18C190.325 350.814 200.65 356.643 210.766 362.443C212.032 363.175 213.134 363.517 214.23 363.517C215.326 363.517 216.38 363.191 217.612 362.491C228.033 356.531 238.681 350.554 248.979 344.774C252.627 342.727 256.273 340.679 259.918 338.628C260.712 338.18 261.496 337.726 262.696 337.032L263.386 336.632L264.058 337.03V336.764C264.468 337.036 264.814 337.272 265.122 337.482C265.69 337.87 266.136 338.17 266.598 338.436C270.616 340.707 274.632 342.975 278.65 345.244C288.829 350.99 299.353 356.931 309.671 362.829C310.719 363.433 311.651 363.715 312.605 363.715C313.559 363.715 314.545 363.415 315.673 362.773C325.364 357.276 335.078 351.822 344.792 346.368C349.561 343.69 354.329 341.011 359.095 338.328C359.579 338.058 359.969 337.72 360.421 337.33C360.635 337.144 360.871 336.942 361.145 336.722L361.583 336.373L361.595 336.523L361.759 336.445L362.203 336.676L362.207 336.589L362.479 336.776C362.747 336.962 362.979 337.128 363.189 337.278C363.603 337.576 363.961 337.832 364.359 338.058C368.845 340.597 373.333 343.131 377.821 345.664C387.794 351.296 398.108 357.119 408.221 362.891C409.093 363.389 409.919 363.631 410.749 363.631C411.901 363.631 412.905 363.149 413.651 362.727C423.647 357.081 433.663 351.462 443.678 345.846L456.786 338.49C457.358 338.174 457.926 337.842 458.724 337.378L459.43 336.968L460.016 336.628L460.446 336.884L460.468 336.367L460.936 336.095L460.494 335.791L460.526 335.041C460.552 334.451 460.58 333.945 460.604 333.491C460.65 332.648 460.686 331.978 460.682 331.306L460.564 318.698C460.452 306.915 460.336 294.731 460.294 282.746C460.29 280.219 459.37 278.657 457.12 277.36C448.34 272.237 439.44 266.955 430.835 261.846L423.459 257.47L417.207 253.763L412.201 250.794L412.353 250.708L415.407 248.956C418.117 247.404 420.647 245.955 423.161 244.477C428.029 241.626 432.897 238.769 437.765 235.91C444.322 232.061 450.882 228.21 457.446 224.371C458.968 223.483 460.456 222.402 460.47 219.843C460.55 209.298 460.668 198.751 460.788 188.204C460.862 181.728 460.934 175.252 460.998 168.773C461.006 168.226 460.852 167.74 460.704 167.268C460.644 167.082 460.582 166.884 460.53 166.674L460.194 165.336L458.962 165.954C458.684 166.094 458.428 166.218 458.186 166.334C457.648 166.594 457.184 166.818 456.722 167.096L444.722 174.182C434.597 180.164 424.125 186.35 413.799 192.389C412.379 193.22 411.571 194.224 411.237 195.658L411.229 194.822L411.223 194.2L410.687 193.882C394.898 184.525 379.314 175.293 363.169 165.732L361.483 164.735V164.949L361.275 164.811C360.985 164.619 360.737 164.449 360.513 164.295C360.085 164.001 359.737 163.763 359.375 163.559L347.394 156.793C337.022 150.939 326.298 144.886 315.785 138.886C314.821 138.336 313.921 138.07 313.031 138.07C312.637 138.07 312.241 138.122 311.831 138.228C312.641 137.409 313.211 136.303 313.223 134.629C313.303 123.513 313.431 112.396 313.559 101.279C313.625 95.5847 313.691 89.8924 313.749 84.1981C313.757 83.6382 313.635 83.1084 313.519 82.5945C313.463 82.3506 313.405 82.0927 313.357 81.8167L313.223 81.029L313.713 80.6691L313.425 80.4851L313.791 80.5571L313.779 79.2055L313.637 63.786L313.275 24.7414L313.269 24.1195L312.733 23.8017C302.325 17.6375 292.003 11.5172 281.504 5.29303L265.222 -4.36017L263.536 -5.35986V-5.12195L263.376 -5.22391C263.008 -5.45786 262.678 -5.6738 262.372 -5.87372C261.752 -6.2796 261.224 -6.62146 260.68 -6.93338C256.627 -9.22672 252.573 -11.5141 248.519 -13.7994C238.565 -19.4158 228.271 -25.2221 218.19 -30.9984C217.052 -31.6502 216.054 -31.9541 215.052 -31.9541C214.05 -31.9541 213.066 -31.6542 211.928 -31.0104C201.378 -25.0141 190.615 -18.9779 180.207 -13.1416L169.359 -7.05536C168.845 -6.77145 168.327 -6.47354 167.694 -6.10764L166.45 -5.39185L165.71 -4.97L165.578 -5.04395L165.562 -4.88599L165.512 -4.858L165.096 -5.13589C164.8 -5.33386 164.55 -5.50983 164.322 -5.66977C163.906 -5.9617 163.562 -6.20163 163.198 -6.40756C159.176 -8.68289 155.152 -10.9543 151.128 -13.2256C140.686 -19.1219 129.889 -25.2181 119.303 -31.2723C118.445 -31.7622 117.625 -32.0001 116.793 -32.0001C115.599 -32.0001 114.549 -31.4942 113.591 -30.9484C103.794 -25.412 93.976 -19.8996 84.1583 -14.3892L71.2567 -7.14532C70.6907 -6.83344 70.1227 -6.50351 69.4308 -6.10165L68.1048 -5.33383L66.5589 -4.44611L67.3928 -3.89026L67.2428 -3.33844L67.2448 -3.33444ZM68.2408 112.41C68.2528 110.67 68.6388 109.517 70.2667 108.563C84.8682 100.037 99.4238 91.4259 114.007 82.8464C114.447 82.5865 114.943 82.4026 115.843 81.9767C115.895 83.2503 115.975 84.0661 115.961 84.8798C115.777 101.361 115.567 117.846 115.423 134.333C115.405 136.063 115.005 137.199 113.379 138.152C98.8698 146.628 84.4123 155.203 69.9367 163.741C69.3948 164.057 68.8168 164.289 67.9748 164.713C67.8628 163.737 67.6908 162.957 67.7028 162.169C67.8748 145.576 68.0988 128.987 68.2388 112.41H68.2408ZM311.247 193.282C311.775 193.48 312.293 193.578 312.809 193.578C313.405 193.578 314.007 193.45 314.657 193.178C313.685 193.97 313.117 194.924 312.889 196.159C312.647 195.012 312.119 194.086 311.247 193.282ZM314.469 308.627C313.851 308.423 313.255 308.327 312.651 308.327C312.099 308.327 311.551 308.409 310.979 308.579C311.911 307.787 312.451 306.841 312.665 305.632C312.927 306.841 313.505 307.799 314.469 308.629V308.627ZM311.945 197.811C311.981 213.99 312.179 230.168 312.315 246.347C312.323 247.363 312.249 248.38 312.199 249.76C311.157 249.276 310.405 248.99 309.727 248.588C295.437 240.135 281.162 231.665 266.868 223.218C265.532 222.426 264.658 221.66 264.646 219.849C264.57 202.935 264.38 186.026 264.236 169.107C264.228 168.511 264.338 167.908 264.446 166.808C265.836 167.584 266.758 168.072 267.65 168.607C281.488 176.797 295.291 185.031 309.173 193.142C311.121 194.282 311.937 195.49 311.945 197.815V197.811ZM114.761 193.282C115.263 193.438 115.751 193.514 116.243 193.514C116.701 193.514 117.161 193.446 117.641 193.306C116.811 194.054 116.431 194.904 116.257 195.76C116.053 194.588 115.455 193.834 114.761 193.28V193.282ZM117.591 308.547C117.043 308.379 116.513 308.297 115.985 308.297C115.385 308.297 114.787 308.401 114.165 308.617C115.121 307.913 115.689 307.059 115.937 305.935C116.155 307.207 116.829 307.987 117.591 308.547ZM113.865 191.675C99.5457 183.477 85.1542 175.401 70.7907 167.272C70.0787 166.874 69.4188 166.38 68.1868 165.564C69.5988 164.749 70.4887 164.233 71.3847 163.721C85.4142 155.855 99.4658 148.023 113.453 140.08C114.473 139.502 115.367 139.188 116.279 139.188C117.105 139.188 117.945 139.446 118.907 139.998C133.039 148.101 147.254 156.065 161.432 164.083C162.232 164.539 162.99 165.072 164.06 165.76C163.192 166.386 162.596 166.918 161.916 167.306C147.53 175.409 133.127 183.463 118.769 191.615C117.855 192.131 117.055 192.409 116.243 192.409C115.497 192.409 114.737 192.175 113.867 191.673L113.865 191.675ZM117.219 197.429C117.231 195.744 117.505 194.526 119.177 193.556C133.797 185.027 148.36 176.399 162.944 167.808C163.382 167.546 163.87 167.366 164.638 167C164.764 167.978 164.956 168.749 164.944 169.523C164.77 186.124 164.526 202.732 164.426 219.333C164.408 221.428 163.65 222.528 161.906 223.545C147.56 231.919 133.271 240.393 118.957 248.814C118.429 249.13 117.845 249.344 116.825 249.816C116.755 248.552 116.669 247.734 116.675 246.921C116.857 230.421 117.065 213.922 117.219 197.425V197.429ZM165.372 220.874C165.548 221.846 165.992 222.61 166.766 223.274C166.298 223.122 165.838 223.046 165.378 223.046C164.918 223.046 164.524 223.116 164.134 223.226C164.772 222.554 165.172 221.792 165.374 220.872L165.372 220.874ZM165.038 108.813L164.618 108.565C164.924 108.637 165.228 108.673 165.536 108.673C165.896 108.673 166.242 108.621 166.566 108.539C166.086 109.067 165.766 109.679 165.584 110.41L165.578 109.755L165.572 109.131L165.036 108.813H165.038ZM119.879 249.172C134.251 241.084 148.644 233.027 163.006 224.917C163.842 224.445 164.588 224.151 165.376 224.149C165.986 224.149 166.618 224.325 167.336 224.735C181.935 233.069 196.581 241.306 211.206 249.572C211.734 249.87 212.214 250.256 213.226 250.957C212.056 251.631 211.338 252.059 210.608 252.461C196.227 260.531 181.841 268.592 167.471 276.696C166.636 277.168 165.886 277.468 165.094 277.468C164.486 277.468 163.852 277.292 163.134 276.884C148.54 268.546 133.899 260.315 119.269 252.053C118.743 251.751 118.261 251.371 117.461 250.819C118.413 250.164 119.109 249.602 119.881 249.176L119.879 249.172ZM211.49 248.56C197.105 240.055 182.731 231.509 168.327 223.026C166.996 222.242 166.394 221.416 166.386 219.819C166.284 202.793 166.104 185.76 165.952 168.731C165.952 168.324 166.028 167.908 166.116 166.966C174.335 171.393 181.999 176.241 189.815 180.814C197.696 185.435 205.538 190.127 213.452 194.832C213.62 213.035 213.782 231.107 213.952 249.61C212.908 249.17 212.146 248.95 211.49 248.562V248.56ZM166.644 165.72C169.301 164.187 171.463 162.923 173.649 161.699C186.297 154.584 198.982 147.536 211.582 140.35C212.71 139.706 213.692 139.354 214.698 139.354C215.604 139.354 216.528 139.64 217.598 140.254C231.527 148.285 245.557 156.137 259.552 164.061C260.444 164.565 261.304 165.122 262.452 165.826C261.682 166.428 261.19 166.952 260.592 167.284C246.121 175.433 231.615 183.541 217.172 191.739C216.26 192.255 215.46 192.53 214.65 192.53C213.9 192.53 213.138 192.295 212.264 191.795C197.942 183.597 183.553 175.515 169.191 167.396C168.479 166.994 167.826 166.5 166.644 165.72ZM214.562 195.486L214.556 194.82L214.55 194.198L214.016 193.88L213.26 193.43C213.73 193.568 214.188 193.634 214.65 193.634C214.98 193.634 215.31 193.6 215.646 193.528C215.046 194.13 214.726 194.804 214.56 195.486H214.562ZM214.852 307.867L215.268 308.113C214.932 308.027 214.598 307.985 214.26 307.985C213.956 307.985 213.652 308.019 213.34 308.091C213.86 307.527 214.148 306.907 214.302 306.279L214.308 306.927L214.314 307.549L214.85 307.867H214.852ZM215.498 197.061C215.512 195.58 215.832 194.526 217.228 193.7C232.099 185.003 246.931 176.237 261.774 167.492C262.04 167.328 262.356 167.268 263.07 167.002C263.134 168.16 263.22 168.977 263.208 169.785C263.028 186.27 262.812 202.747 262.668 219.233C262.65 220.956 262.286 222.122 260.656 223.074C246.053 231.607 231.499 240.223 216.934 248.818C216.488 249.084 216 249.276 215.292 249.612C215.154 248.8 214.934 248.124 214.944 247.458C215.116 230.655 215.33 213.856 215.494 197.059L215.498 197.061ZM263.628 220.818C263.866 222.13 264.568 222.946 265.372 223.553C264.808 223.379 264.262 223.294 263.714 223.294C263.092 223.294 262.476 223.399 261.824 223.627C262.93 222.802 263.42 221.83 263.628 220.818ZM218.76 249.016C232.767 241.128 246.803 233.295 260.764 225.337C261.832 224.729 262.762 224.401 263.714 224.401C264.586 224.401 265.476 224.677 266.508 225.269C280.61 233.389 294.811 241.336 308.983 249.352C309.703 249.754 310.379 250.236 311.337 250.855C310.761 251.349 310.379 251.799 309.897 252.069C295.069 260.413 280.22 268.724 265.392 277.088C264.736 277.462 264.138 277.672 263.526 277.672C263.006 277.672 262.474 277.52 261.892 277.186C246.921 268.676 231.927 260.207 216.942 251.717C216.686 251.567 216.482 251.323 215.794 250.72C216.98 250.036 217.87 249.52 218.758 249.018L218.76 249.016ZM263.964 110.794C263.766 109.589 263.158 108.821 262.446 108.263C262.954 108.423 263.446 108.499 263.942 108.499C264.438 108.499 264.918 108.423 265.43 108.265C264.674 108.955 264.198 109.775 263.964 110.794ZM263.942 107.395C263.194 107.395 262.434 107.161 261.562 106.664C247.239 98.4659 232.851 90.3862 218.49 82.2566C217.782 81.8547 217.126 81.3709 215.878 80.5471C217.292 79.7333 218.178 79.2135 219.074 78.7096C233.105 70.8399 247.155 63.0102 261.142 55.0645C262.164 54.4827 263.056 54.1688 263.968 54.1688C264.792 54.1688 265.632 54.4267 266.596 54.9785C280.73 63.0802 294.943 71.0519 309.123 79.0675C309.925 79.5234 310.689 80.0493 311.761 80.733C310.893 81.3689 310.297 81.9027 309.619 82.2866C295.229 90.3842 280.828 98.4439 266.476 106.596C265.56 107.115 264.76 107.393 263.944 107.393L263.942 107.395ZM217.374 82.7964C231.945 91.4139 246.505 100.055 261.08 108.677C262.258 109.365 262.914 110.111 262.928 111.614C263.024 128.855 263.198 146.1 263.342 163.339C263.344 163.643 263.264 163.951 263.126 164.963C247.143 155.499 231.539 146.25 215.74 136.891C215.574 118.704 215.406 100.541 215.232 82.0207C216.132 82.3386 216.814 82.4666 217.374 82.7945V82.7964ZM214.634 136.903L214.64 137.525L215.176 137.842L216.22 138.46C215.706 138.318 215.204 138.25 214.7 138.25C214.132 138.25 213.568 138.336 212.974 138.518C213.926 137.678 214.398 136.741 214.624 135.775L214.634 136.903ZM213.29 23.1938C213.81 23.3818 214.32 23.4737 214.83 23.4737C215.498 23.4737 216.108 23.3158 216.66 23.0959C215.662 23.8476 215.096 24.7553 214.902 25.925C214.646 24.8433 214.126 23.9616 213.29 23.1938ZM213.714 133.864C213.696 135.951 213.176 137.283 211.226 138.408C196.955 146.7 182.759 155.121 168.539 163.501C167.919 163.865 167.25 164.157 166.336 164.629C166.182 163.769 165.958 163.101 165.962 162.439C166.138 145.632 166.354 128.817 166.508 112C166.52 110.366 166.97 109.309 168.461 108.441C183.067 99.8775 197.631 91.252 212.21 82.6525C212.652 82.3906 213.138 82.2146 214.1 81.7747C214.16 83.1664 214.24 84.0821 214.236 84.9998C214.052 101.289 213.828 117.572 213.712 133.866L213.714 133.864ZM211.614 82.1846C196.961 90.4142 182.303 98.6278 167.654 106.885C166.914 107.301 166.24 107.569 165.536 107.569C165.014 107.569 164.474 107.423 163.876 107.081C148.996 98.6138 134.091 90.2003 119.197 81.7687C118.851 81.5688 118.557 81.2809 117.781 80.6771C119.067 79.9313 119.959 79.4074 120.869 78.8956C134.875 71.0199 148.916 63.1902 162.874 55.2185C163.918 54.6187 164.826 54.3167 165.736 54.3167C166.646 54.3167 167.556 54.6187 168.609 55.2265C182.631 63.2901 196.743 71.1898 210.816 79.1535C211.62 79.6054 212.382 80.1392 213.476 80.833C212.7 81.4029 212.192 81.8527 211.614 82.1826V82.1846ZM164.474 109.763C164.64 127.911 164.806 146.058 164.974 164.251C162.538 163.729 122.583 140.4 117.451 136.561C117.291 118.564 117.127 100.443 116.957 81.6248C133.125 91.196 148.708 100.427 164.474 109.761V109.763ZM116.343 136.067L116.347 136.573L116.351 137.121L116.789 137.449C117.117 137.694 117.629 138.044 118.297 138.482C117.607 138.214 116.947 138.086 116.277 138.086C115.897 138.086 115.515 138.128 115.123 138.216C115.799 137.55 116.157 136.821 116.341 136.067H116.343ZM116.065 23.7977C115.817 23.6517 115.571 23.5038 115.323 23.3578C115.779 23.4878 116.227 23.5517 116.673 23.5517C117.031 23.5517 117.389 23.5117 117.755 23.4297C117.135 24.0616 116.793 24.7754 116.613 25.5751L116.605 24.7374L116.599 24.1155L116.063 23.7977H116.065ZM68.0508 221.902C67.8808 203.703 67.7148 185.541 67.5388 167.072C68.3428 167.32 68.9468 167.382 69.4268 167.672C84.0863 176.335 98.7358 185.035 113.401 193.692C114.591 194.402 115.221 195.17 115.227 196.657C115.329 213.898 115.499 231.135 115.639 248.376C115.641 248.68 115.563 248.988 115.425 249.978C99.4398 240.509 83.8243 231.257 68.0488 221.902H68.0508ZM67.2569 332.84C67.4229 315.835 67.6348 298.828 67.7988 281.82C67.8148 280.421 68.2388 279.481 69.4928 278.747C84.4483 269.984 99.3758 261.186 114.317 252.393C114.495 252.291 114.711 252.269 115.379 252.069C115.437 253.135 115.523 253.945 115.513 254.748C115.333 271.338 115.123 287.925 114.981 304.52C114.965 306.171 114.481 307.197 113.005 308.059C98.4118 316.608 83.8603 325.214 69.2908 333.811C68.8448 334.077 68.3588 334.273 67.6748 334.609C67.5108 333.941 67.2529 333.391 67.2589 332.84H67.2569ZM160.894 337.844C146.694 345.814 132.477 353.752 118.315 361.791C117.425 362.293 116.655 362.547 115.883 362.547C115.111 362.547 114.325 362.291 113.423 361.775C99.2057 353.642 84.9163 345.62 70.6588 337.558C69.8708 337.114 69.1488 336.551 68.1348 335.883C69.2048 335.199 69.9488 334.665 70.7427 334.219C84.9323 326.23 99.1478 318.29 113.293 310.234C114.271 309.676 115.129 309.402 115.985 309.402C116.867 309.402 117.745 309.694 118.749 310.268C132.873 318.36 147.07 326.333 161.234 334.341C162.022 334.785 162.742 335.351 163.892 336.125C162.646 336.838 161.776 337.354 160.894 337.846V337.844ZM164.528 334.565C163.822 334.357 163.216 334.299 162.742 334.021C148.082 325.356 133.453 316.668 118.795 308.013C117.599 307.309 116.979 306.529 116.969 305.054C116.863 287.823 116.697 270.602 116.557 253.369C116.553 253.059 116.651 252.747 116.779 251.949C117.905 252.525 118.741 252.903 119.523 253.361C133.633 261.72 147.712 270.104 161.852 278.407C163.466 279.355 164.218 280.347 164.222 282.33C164.29 298.927 164.476 315.531 164.628 332.124C164.628 332.852 164.568 333.579 164.528 334.567V334.565ZM165.212 281.027C165.002 279.939 164.502 279.075 163.638 278.321C164.128 278.489 164.61 278.571 165.094 278.571C165.742 278.571 166.344 278.417 166.882 278.208C165.844 279.041 165.396 280.017 165.212 281.027ZM165.8 334.761C165.736 333.591 165.648 332.772 165.652 331.958C165.84 315.481 166.052 298.997 166.198 282.508C166.208 280.793 166.552 279.611 168.189 278.647C182.799 270.138 197.357 261.522 211.936 252.935C212.376 252.673 212.868 252.487 213.58 252.145C213.716 252.959 213.928 253.633 213.924 254.302C213.754 271.102 213.536 287.899 213.376 304.694C213.362 306.175 213.02 307.237 211.628 308.055C196.759 316.76 181.929 325.524 167.086 334.269C166.82 334.427 166.504 334.495 165.802 334.761H165.8ZM259.376 337.666C245.263 345.606 231.117 353.496 217.064 361.531C216.024 362.123 215.124 362.413 214.23 362.413C213.336 362.413 212.38 362.099 211.316 361.485C197.275 353.436 183.157 345.518 169.069 337.548C168.259 337.09 167.487 336.567 166.43 335.905C167.138 335.315 167.603 334.787 168.181 334.473C182.847 326.224 197.522 318.008 212.182 309.752C212.91 309.338 213.574 309.091 214.258 309.091C214.798 309.091 215.354 309.244 215.966 309.59C230.859 318.064 245.785 326.483 260.692 334.927C261.044 335.127 261.35 335.419 262.182 336.053C260.962 336.758 260.174 337.216 259.374 337.666H259.376ZM215.416 306.917C215.25 288.656 215.08 270.544 214.912 251.699C231.067 261.27 246.647 270.502 262.428 279.843C262.596 297.986 262.764 316.134 262.938 335.083C246.685 325.45 231.085 316.202 215.418 306.919L215.416 306.917ZM263.53 279.831L263.524 279.207L262.988 278.889C262.858 278.811 262.728 278.735 262.598 278.659C262.908 278.735 263.216 278.773 263.526 278.773C263.856 278.773 264.184 278.731 264.518 278.645C263.988 279.251 263.696 279.905 263.536 280.577L263.528 279.831H263.53ZM263.924 332.096C264.106 315.495 264.314 298.891 264.464 282.284C264.484 280.563 264.876 279.407 266.504 278.451C280.944 270.016 295.315 261.484 309.715 252.993C310.321 252.635 310.979 252.371 312.047 251.871C312.121 253.109 312.207 253.837 312.201 254.56C312.017 271.162 311.787 287.765 311.669 304.372C311.653 306.289 311.013 307.405 309.353 308.373C295.005 316.742 280.71 325.204 266.394 333.635C265.788 333.993 265.128 334.263 264.182 334.727C264.072 333.661 263.916 332.878 263.926 332.096H263.924ZM358.553 337.366C344.08 345.514 329.578 353.616 315.127 361.813C314.217 362.331 313.419 362.609 312.607 362.609C311.857 362.609 311.095 362.373 310.221 361.869C295.897 353.68 281.508 345.598 267.148 337.476C266.44 337.072 265.782 336.577 264.6 335.801C267.26 334.273 269.418 333 271.604 331.772C284.254 324.666 296.931 317.618 309.533 310.43C310.663 309.784 311.647 309.432 312.655 309.432C313.559 309.432 314.483 309.718 315.545 310.332C329.386 318.32 343.324 326.116 357.231 333.985C358.217 334.545 359.189 335.121 360.457 335.863C359.639 336.517 359.153 337.034 358.555 337.368L358.553 337.366ZM361.167 334.891C359.939 334.251 359.023 333.829 358.155 333.311C344.218 325.068 330.32 316.764 316.337 308.591C314.373 307.445 313.605 306.213 313.601 303.906C313.557 287.719 313.359 271.525 313.219 255.34C313.211 254.324 313.301 253.305 313.353 251.903C314.581 252.545 315.501 252.973 316.365 253.481C330.296 261.728 344.204 270.03 358.189 278.2C360.151 279.349 360.905 280.589 360.913 282.894C360.961 299.079 361.155 315.265 361.295 331.466C361.307 332.472 361.225 333.483 361.169 334.891H361.167ZM314.195 250.941C314.741 250.422 315.079 249.906 315.557 249.64C330.398 241.286 345.266 232.969 360.097 224.601C360.745 224.241 361.333 224.051 361.923 224.051C362.465 224.051 363.009 224.213 363.605 224.553C378.594 233.069 393.6 241.55 408.595 250.05C408.865 250.198 409.081 250.44 409.711 250.951C408.663 251.635 407.924 252.171 407.124 252.617C393.014 260.555 378.876 268.446 364.815 276.474C363.753 277.078 362.831 277.392 361.901 277.392C360.971 277.392 360.109 277.104 359.063 276.506C345.036 268.442 330.908 260.533 316.821 252.561C316.005 252.101 315.229 251.585 314.195 250.943V250.941ZM361.847 281.173C361.587 279.963 361.017 279.005 360.065 278.18C360.695 278.393 361.297 278.495 361.899 278.495C362.389 278.495 362.881 278.427 363.391 278.285C362.429 279.105 362.007 280.063 361.845 281.175L361.847 281.173ZM362.331 331.958C362.501 315.463 362.713 298.961 362.867 282.466C362.879 280.765 363.195 279.575 364.849 278.607C379.376 270.132 393.85 261.552 408.342 253.013C408.867 252.705 409.439 252.469 410.505 251.949C410.541 253.513 410.595 254.54 410.587 255.562C410.403 271.643 410.169 287.717 410.087 303.8C410.071 306.175 409.403 307.569 407.27 308.813C393.08 317.032 378.984 325.414 364.853 333.739C364.233 334.103 363.565 334.369 362.561 334.843C362.465 333.705 362.323 332.83 362.333 331.956L362.331 331.958ZM456.242 337.53C441.862 345.606 427.463 353.66 413.105 361.769C412.271 362.239 411.527 362.531 410.745 362.531C410.129 362.531 409.491 362.351 408.765 361.935C394.176 353.608 379.522 345.374 364.903 337.102C364.373 336.8 363.899 336.419 363.105 335.871C363.977 335.263 364.593 334.761 365.271 334.375C379.734 326.246 394.218 318.124 408.669 309.968C409.501 309.502 410.241 309.216 411.017 309.216C411.637 309.216 412.279 309.398 413.009 309.814C427.603 318.144 442.246 326.375 456.87 334.641C457.406 334.947 457.88 335.333 458.868 336.015C457.684 336.702 456.966 337.126 456.24 337.528L456.242 337.53ZM412.157 197.401C412.169 195.54 412.643 194.346 414.355 193.344C428.699 184.959 442.984 176.483 457.29 168.044C457.91 167.67 458.582 167.382 459.454 166.944C459.63 167.65 459.898 168.204 459.89 168.765C459.722 185.794 459.488 202.815 459.362 219.84C459.352 221.794 458.31 222.592 456.884 223.421C445.446 230.112 434.027 236.834 422.597 243.53C419.167 245.545 415.703 247.51 411.797 249.754C411.717 248.526 411.611 247.706 411.621 246.903C411.803 230.403 412.023 213.906 412.157 197.405V197.401ZM422.893 258.421C434.109 265.069 445.31 271.751 456.564 278.317C458.41 279.381 459.182 280.559 459.186 282.75C459.24 298.939 459.43 315.125 459.572 331.312C459.576 332.328 459.488 333.339 459.416 334.995C443.382 325.484 427.795 316.244 412.083 306.943C411.919 288.718 411.755 270.586 411.585 251.719C415.857 254.252 419.373 256.34 422.893 258.423V258.421ZM410.969 305.837L410.979 306.949L410.985 307.573L411.521 307.891C411.729 308.015 411.935 308.137 412.143 308.259C411.765 308.159 411.391 308.111 411.017 308.111C410.541 308.111 410.093 308.193 409.677 308.317C410.317 307.613 410.737 306.805 410.969 305.837ZM410.125 194.834C410.293 213.14 410.457 231.195 410.623 249.134C410.329 249.302 410.241 249.366 410.153 249.392C410.085 249.422 409.997 249.452 409.929 249.452C409.905 249.452 409.885 249.448 409.867 249.44C409.299 249.168 408.719 248.916 408.178 248.606C393.184 239.721 378.187 230.831 363.107 221.892C362.941 203.655 362.779 185.535 362.607 166.684C378.754 176.245 394.336 185.475 410.125 194.834ZM362.003 221.902L362.009 222.524L362.545 222.842L362.955 223.084C362.611 222.992 362.269 222.946 361.925 222.946C361.639 222.946 361.355 222.976 361.067 223.04C361.567 222.484 361.845 221.878 361.997 221.264L362.003 221.902ZM361.621 169.283C361.441 186.088 361.235 202.877 361.069 219.681C361.051 221.164 360.717 222.214 359.327 223.04C344.456 231.735 329.626 240.508 314.781 249.25C314.517 249.404 314.201 249.474 313.497 249.74C313.431 248.574 313.339 247.762 313.349 246.949C313.533 230.467 313.755 213.98 313.877 197.499C313.891 195.582 314.497 194.46 316.155 193.488C330.58 185.063 344.954 176.555 359.349 168.09C359.889 167.772 360.463 167.524 361.265 167.134C361.405 167.946 361.625 168.615 361.621 169.285V169.283ZM313.031 139.176C313.723 139.176 314.431 139.388 315.237 139.846C329.734 148.121 344.298 156.305 358.831 164.523C359.361 164.823 359.855 165.2 360.665 165.734C359.869 166.332 359.303 166.866 358.641 167.24C344.082 175.425 329.508 183.581 314.967 191.795C314.195 192.229 313.511 192.472 312.807 192.472C312.205 192.472 311.591 192.293 310.901 191.899C296.209 183.535 281.476 175.236 266.76 166.912C266.318 166.662 265.924 166.33 265.094 165.74C266.124 165.072 266.79 164.583 267.504 164.185C281.882 156.105 296.273 148.045 310.623 139.932C311.485 139.444 312.249 139.174 313.031 139.174V139.176ZM312.121 134.623C312.105 136.645 311.181 137.596 309.605 138.516C296.801 145.98 284.03 153.502 271.24 161.008C269.174 162.221 267.086 163.405 264.468 164.913C264.424 163.339 264.368 162.311 264.382 161.288C264.564 145.002 264.782 128.719 264.896 112.428C264.914 110.546 265.446 109.383 267.134 108.389C281.482 100.019 295.773 91.5499 310.083 83.1164C310.703 82.7445 311.365 82.4566 312.271 82.0027C312.415 82.8464 312.657 83.5182 312.649 84.186C312.475 100.999 312.243 117.81 312.123 134.621L312.121 134.623ZM312.167 24.7514C312.337 42.8781 312.503 61.0228 312.671 79.2155C310.287 78.7516 270.722 55.6823 265.146 51.5575C264.988 33.5688 264.822 15.4421 264.654 -3.41043C280.904 6.22076 296.439 15.4381 312.167 24.7514ZM264.042 51.5675L264.046 52.1174L264.488 52.4453C264.822 52.6932 265.318 53.0311 265.95 53.447C265.27 53.1891 264.622 53.0651 263.966 53.0651C263.596 53.0651 263.228 53.1031 262.854 53.1851C263.522 52.5193 263.862 51.7795 264.036 51.0317L264.04 51.5695L264.042 51.5675ZM263.508 -2.96057C263.57 -1.75293 263.666 -0.845215 263.652 0.0665283C263.474 16.4557 263.266 32.833 263.11 49.2082C263.092 50.8857 262.84 52.1094 261.166 53.0871C246.475 61.6586 231.835 70.3421 217.17 78.9856C216.814 79.1955 216.424 79.3415 215.782 79.6394C215.63 78.8756 215.378 78.2198 215.39 77.572C215.56 60.6749 215.78 43.7698 215.93 26.8707C215.944 25.2972 216.554 24.3894 217.876 23.6117C232.463 15.0662 247.027 6.46069 261.604 -2.11081C262.12 -2.41272 262.684 -2.60068 263.508 -2.96057ZM169.897 -6.09164C184.095 -14.0673 198.314 -22.005 212.47 -30.0487C213.408 -30.5805 214.228 -30.8504 215.05 -30.8504C215.868 -30.8504 216.69 -30.5845 217.638 -30.0406C231.759 -21.947 245.961 -13.9874 260.13 -5.97171C260.928 -5.51584 261.686 -4.98795 262.78 -4.29214C261.81 -3.63235 261.108 -3.07449 260.346 -2.63663C245.967 5.44501 231.573 13.5007 217.208 21.6023C216.366 22.0742 215.618 22.372 214.83 22.372C214.224 22.372 213.592 22.1961 212.876 21.7902C198.282 13.4527 183.637 5.22107 169.011 -3.05652C168.482 -3.35245 168.004 -3.73236 166.996 -4.43015C168.275 -5.16193 169.077 -5.63776 169.897 -6.08963V-6.09164ZM166.506 -3.26447C167.896 -2.49469 168.819 -2.00485 169.717 -1.46701C183.547 6.71262 197.355 14.9562 211.236 23.0658C213.19 24.2075 213.986 25.4352 213.992 27.7425C214.03 43.9278 214.232 60.097 214.368 76.2843C214.376 77.29 214.294 78.3018 214.238 79.6833C213.194 79.1935 212.446 78.9016 211.766 78.4977C197.482 70.0442 183.203 61.5667 168.911 53.1311C167.564 52.3373 166.708 51.5615 166.702 49.7601C166.622 32.837 166.432 15.9279 166.286 -0.981171C166.282 -1.577 166.398 -2.17081 166.508 -3.26248L166.506 -3.26447ZM165.696 50.8358C165.95 52.0994 166.64 52.8912 167.427 53.481C166.85 53.299 166.294 53.2111 165.738 53.2111C165.144 53.2111 164.55 53.311 163.928 53.521C165.038 52.7512 165.508 51.8155 165.696 50.8358ZM165.26 -0.645233C165.082 16.0479 164.876 32.7411 164.712 49.4342C164.702 50.9117 164.408 51.9774 162.998 52.8032C148.136 61.5127 133.303 70.2821 118.459 79.0276C118.193 79.1855 117.881 79.2555 117.143 79.5394C117.079 78.3997 116.985 77.59 116.999 76.7802C117.185 60.297 117.395 43.8098 117.545 27.3306C117.563 25.6291 117.863 24.4334 119.513 23.4657C134.123 14.9442 148.672 6.32074 163.242 -2.26678C163.688 -2.52869 164.176 -2.72864 164.966 -3.12051C165.084 -2.16681 165.266 -1.40298 165.26 -0.643219V-0.645233ZM71.7987 -6.17764C85.9142 -14.1113 100.042 -22.019 114.139 -29.9847C115.067 -30.5145 115.897 -30.8924 116.795 -30.8924C117.399 -30.8924 118.035 -30.7205 118.755 -30.3106C133.355 -21.959 148.016 -13.7214 162.654 -5.44183C163.192 -5.13791 163.68 -4.75003 164.482 -4.2142C163.688 -3.61038 163.106 -3.04855 162.428 -2.67267C148.046 5.42297 133.637 13.4786 119.277 21.6223C118.345 22.1481 117.523 22.4481 116.677 22.4481C115.955 22.4481 115.213 22.2301 114.369 21.7462C99.9537 13.5027 85.4702 5.37302 71.0227 -2.80661C70.3987 -3.15649 69.8248 -3.59839 68.6628 -4.37216C70.0328 -5.15994 70.9107 -5.68579 71.8047 -6.17764H71.7987ZM68.3108 -3.04651C76.3846 1.32419 84.0643 6.1568 91.88 10.7415C99.7557 15.3621 107.6 20.0627 115.501 24.7454C115.667 42.9741 115.833 61.0248 115.997 79.4494C115.047 79.1015 114.361 78.9676 113.793 78.6317C99.3038 70.0702 84.8502 61.4747 70.3667 52.9171C69.2087 52.2354 68.4348 51.5716 68.4268 50.036C68.3388 32.6851 68.1748 15.3481 68.0368 -1.99884C68.0328 -2.19876 68.1328 -2.39471 68.3108 -3.04852V-3.04651Z" fill="#4F4747"/>
<path opacity="0.5" d="M-30.56 3.78555C-30.638 4.07547 -30.704 4.28943 -30.756 4.45337C-30.864 4.80527 -30.958 5.10916 -30.95 5.48706L-30.814 22.0403C-30.6801 38.1656 -30.5461 54.2888 -30.462 70.4221C-30.446 73.1573 -28.8521 74.323 -27.3601 75.2007C-18.1884 80.6192 -9.02475 86.0516 0.14093 91.484C9.04065 96.7585 17.9404 102.035 26.8521 107.299C27.446 107.651 28.082 107.853 28.754 108.067C29.08 108.171 29.436 108.283 29.83 108.427L30.112 108.529V108.759L29.5219 109.039C29.112 109.233 28.77 109.385 28.476 109.517C27.912 109.769 27.5001 109.957 27.1161 110.185L10.9526 119.706C-1.85098 127.252 -14.6526 134.795 -27.4802 142.285C-30.2781 143.923 -30.678 146.128 -30.694 148.267C-30.802 161.184 -30.952 174.106 -31.1 187.032C-31.19 194.816 -31.28 202.6 -31.362 210.383C-31.374 211.151 -31.27 211.883 -31.158 212.659C-31.11 212.997 -31.058 213.35 -31.014 213.73L-30.986 213.97L-32 214.556L-31.584 214.83L-31.568 216.528L-31.1801 258.011L-30.9301 284.978L-30.922 285.753L-30.2541 286.149C-12.9666 296.402 4.16681 306.553 21.5942 316.876L28.89 321.199L29.088 321.317C28.8 321.403 28.586 321.459 28.42 321.503C28.082 321.593 27.816 321.663 27.526 321.827L14.9825 329.209C0.508911 337.728 -13.9606 346.246 -28.4501 354.737C-30.358 355.857 -31.22 357.402 -31.246 359.75C-31.35 370.623 -31.472 381.493 -31.592 392.364C-31.706 402.725 -31.822 413.084 -31.922 423.445C-31.93 424.121 -31.746 424.715 -31.566 425.289C-31.496 425.513 -31.424 425.747 -31.362 425.994L-31.182 426.728L-31.978 427.238L-30.204 428.408C-29.744 428.712 -29.3321 428.998 -28.9461 429.266C-28.2761 429.731 -27.6441 430.169 -26.9702 430.551L-12.4966 438.723C0.270935 445.929 13.4745 453.379 26.4101 460.778C27.78 461.56 28.972 461.924 30.166 461.924C31.3599 461.924 32.5279 461.568 33.8798 460.802C47.4774 453.083 61.3429 445.311 74.7505 437.795L87.0301 430.909C87.71 430.529 88.386 430.137 89.17 429.683L90.7819 428.754L91.9459 428.086L92.5339 428.454C92.9639 428.724 93.3558 428.974 93.7258 429.21C94.5058 429.709 95.1838 430.141 95.8817 430.537C100.796 433.316 105.711 436.092 110.629 438.865C123.097 445.901 135.988 453.175 148.616 460.414C150.198 461.328 151.572 461.754 152.94 461.754C154.308 461.754 155.624 461.346 157.162 460.472C170.173 453.033 183.465 445.571 196.32 438.355C200.874 435.8 205.426 433.242 209.978 430.683C210.968 430.123 211.948 429.557 213.446 428.69L214.308 428.192L215.146 428.69L215.142 428.358C215.656 428.696 216.088 428.992 216.472 429.254C217.182 429.737 217.736 430.113 218.316 430.443C223.332 433.28 228.345 436.11 233.361 438.941C246.069 446.115 259.208 453.53 272.088 460.894C273.396 461.648 274.562 462 275.75 462C276.938 462 278.172 461.626 279.58 460.826C291.677 453.964 303.805 447.154 315.93 440.344C321.884 437.001 327.838 433.658 333.788 430.309C334.392 429.971 334.878 429.551 335.442 429.064C335.71 428.832 336.004 428.578 336.346 428.304L336.892 427.866L336.908 428.054L337.112 427.958L337.666 428.248L337.67 428.138L338.01 428.372C338.346 428.604 338.634 428.812 338.896 428.998C339.412 429.37 339.86 429.689 340.356 429.971C345.957 433.14 351.559 436.303 357.161 439.467C369.613 446.497 382.488 453.766 395.112 460.972C396.2 461.594 397.232 461.896 398.268 461.896C399.706 461.896 400.96 461.294 401.89 460.768C414.369 453.72 426.873 446.706 439.374 439.693L455.738 430.509C456.452 430.113 457.162 429.699 458.156 429.122L459.036 428.61L459.768 428.184L460.306 428.502L460.334 427.854L460.918 427.516L460.366 427.136L460.406 426.2C460.438 425.465 460.472 424.833 460.504 424.265C460.562 423.211 460.606 422.376 460.602 421.538L460.456 405.798C460.316 391.089 460.17 375.877 460.12 360.915C460.114 357.758 458.966 355.811 456.158 354.191C445.198 347.797 434.089 341.203 423.343 334.825L414.135 329.363L406.329 324.736L400.082 321.031L400.27 320.923L404.084 318.738C407.465 316.8 410.625 314.991 413.763 313.147C419.841 309.586 425.917 306.019 431.993 302.453C440.18 297.646 448.368 292.839 456.564 288.047C458.464 286.939 460.322 285.589 460.34 282.394C460.438 269.23 460.588 256.064 460.736 242.898C460.828 234.812 460.92 226.727 461 218.641C461.01 217.957 460.818 217.349 460.632 216.761C460.558 216.528 460.48 216.284 460.414 216.02L459.996 214.35L458.458 215.122C458.112 215.296 457.792 215.45 457.49 215.596C456.82 215.92 456.24 216.2 455.664 216.546L440.684 225.391C428.043 232.861 414.971 240.583 402.08 248.12C400.306 249.158 399.3 250.412 398.882 252.201L398.872 251.157L398.866 250.38L398.198 249.984C378.486 238.301 359.033 226.779 338.876 214.842L336.772 213.596V213.864L336.512 213.69C336.15 213.452 335.84 213.239 335.56 213.047C335.026 212.679 334.592 212.383 334.138 212.127L319.18 203.679C306.233 196.371 292.845 188.816 279.72 181.324C278.516 180.638 277.392 180.306 276.282 180.306C275.79 180.306 275.294 180.37 274.784 180.504C275.794 179.48 276.506 178.101 276.522 176.011C276.622 162.133 276.782 148.255 276.942 134.375C277.024 127.268 277.106 120.16 277.18 113.052C277.19 112.352 277.038 111.69 276.892 111.05C276.822 110.746 276.748 110.424 276.69 110.079L276.522 109.095L277.134 108.647L276.774 108.417L277.23 108.505L277.214 106.818L277.036 87.5692L276.584 38.8273L276.576 38.0496L275.908 37.6537C262.916 29.96 250.031 22.3182 236.921 14.5464L216.596 2.49594L214.492 1.24829V1.5462L214.294 1.41821C213.834 1.12631 213.422 0.856415 213.042 0.606506C212.268 0.100647 211.61 -0.32724 210.928 -0.715149C205.866 -3.57831 200.806 -6.43344 195.744 -9.28662C183.317 -16.2966 170.467 -23.5465 157.882 -30.7584C156.46 -31.5721 155.216 -31.952 153.966 -31.952C152.716 -31.952 151.488 -31.5782 150.066 -30.7724C136.896 -23.2886 123.459 -15.7527 110.465 -8.46487L96.9217 -0.865082C96.2797 -0.5112 95.6338 -0.139313 94.8418 0.318542L93.2899 1.21234L92.3658 1.74014L92.1999 1.64819L92.1799 1.84613L92.1179 1.88211L91.5999 1.53622C91.2319 1.29028 90.9179 1.06833 90.6339 0.870392C90.114 0.504486 89.684 0.206604 89.232 -0.0493164C84.2101 -2.88849 79.1884 -5.72568 74.1645 -8.56284C61.1289 -15.9227 47.6494 -23.5345 34.4358 -31.0923C33.3638 -31.7041 32.3399 -32 31.3039 -32C29.814 -32 28.502 -31.3682 27.3061 -30.6864C15.0745 -23.7744 2.81888 -16.8944 -9.43671 -10.0144L-25.5422 -0.969055C-26.2482 -0.581177 -26.9562 -0.169281 -27.8221 0.334564L-29.4761 1.2923L-31.406 2.40198L-30.364 3.09576L-30.55 3.78354L-30.56 3.78555ZM-29.3181 148.279C-29.3021 146.108 -28.8221 144.668 -26.7881 143.477C-8.55875 132.834 9.61264 122.083 27.816 111.372C28.366 111.046 28.986 110.818 30.108 110.287C30.172 111.876 30.2719 112.896 30.256 113.911C30.028 134.487 29.7639 155.067 29.586 175.649C29.564 177.809 29.064 179.226 27.0341 180.416C8.92065 190.997 -9.12875 201.702 -27.2001 212.361C-27.8761 212.755 -28.5981 213.045 -29.6481 213.572C-29.7881 212.355 -30.004 211.381 -29.988 210.397C-29.772 189.683 -29.4921 168.973 -29.3201 148.277L-29.3181 148.279ZM274.05 249.24C274.71 249.488 275.356 249.608 276 249.608C276.744 249.608 277.496 249.448 278.306 249.108C277.092 250.098 276.384 251.287 276.1 252.831C275.796 251.397 275.138 250.244 274.05 249.238V249.24ZM278.072 393.236C277.3 392.982 276.556 392.86 275.804 392.86C275.116 392.86 274.432 392.962 273.716 393.176C274.88 392.188 275.554 391.009 275.82 389.495C276.148 391.007 276.868 392.202 278.072 393.236ZM274.922 254.894C274.968 275.092 275.216 295.287 275.386 315.485C275.396 316.752 275.302 318.024 275.24 319.745C273.938 319.142 273.002 318.784 272.156 318.284C254.318 307.729 236.497 297.156 218.65 286.611C216.982 285.623 215.892 284.668 215.874 282.404C215.78 261.29 215.542 240.181 215.362 219.059C215.352 218.315 215.488 217.561 215.624 216.188C217.358 217.157 218.51 217.765 219.624 218.433C236.899 228.656 254.13 238.935 271.46 249.062C273.892 250.484 274.91 251.991 274.922 254.894ZM28.758 249.24C29.384 249.436 29.994 249.53 30.6079 249.53C31.1799 249.53 31.7539 249.446 32.3539 249.272C31.3179 250.204 30.8439 251.265 30.6259 252.335C30.3699 250.872 29.626 249.93 28.758 249.24ZM32.2919 393.134C31.6079 392.924 30.9479 392.822 30.2859 392.822C29.5359 392.822 28.792 392.952 28.014 393.22C29.208 392.342 29.9179 391.275 30.2259 389.873C30.4979 391.461 31.3399 392.434 32.2919 393.132V393.134ZM27.642 247.233C9.76663 237 -8.20074 226.917 -26.1322 216.769C-27.0201 216.274 -27.8461 215.658 -29.3841 214.64C-27.6221 213.622 -26.5102 212.979 -25.3922 212.337C-7.87677 202.518 9.66461 192.738 27.124 182.823C28.398 182.102 29.514 181.71 30.6519 181.71C31.6819 181.71 32.7318 182.032 33.9338 182.721C51.5752 192.836 69.3206 202.78 87.022 212.789C88.022 213.356 88.968 214.024 90.304 214.884C89.222 215.666 88.478 216.33 87.626 216.811C69.6666 226.927 51.6852 236.982 33.7618 247.159C32.6199 247.802 31.6239 248.15 30.6079 248.15C29.676 248.15 28.728 247.856 27.64 247.233H27.642ZM31.8279 254.419C31.8439 252.315 32.1859 250.794 34.2718 249.584C52.5212 238.935 70.7046 228.166 88.908 217.439C89.456 217.113 90.0639 216.887 91.0219 216.432C91.1779 217.651 91.4179 218.615 91.4039 219.583C91.1859 240.309 90.882 261.039 90.758 281.765C90.736 284.38 89.788 285.753 87.6121 287.025C69.7047 297.48 51.8632 308.057 33.9958 318.572C33.3358 318.966 32.6078 319.234 31.3339 319.821C31.2479 318.244 31.1399 317.222 31.1479 316.208C31.3739 295.613 31.6359 275.013 31.8259 254.419H31.8279ZM91.9399 283.684C92.1599 284.898 92.7139 285.851 93.6798 286.681C93.0959 286.491 92.5219 286.397 91.9459 286.397C91.3999 286.397 90.8779 286.485 90.3919 286.621C91.1879 285.783 91.6879 284.832 91.9399 283.684ZM91.5239 143.789L90.9999 143.479C91.3819 143.569 91.7619 143.615 92.1459 143.615C92.5959 143.615 93.0258 143.551 93.4318 143.447C92.8339 144.107 92.4319 144.87 92.2059 145.782L92.1979 144.962L92.1919 144.185L91.5219 143.789H91.5239ZM35.1498 319.014C53.0912 308.917 71.0606 298.86 88.99 288.733C90.034 288.145 90.9659 287.775 91.9479 287.775C92.7079 287.775 93.4978 287.995 94.3938 288.507C112.619 298.91 130.903 309.195 149.16 319.512C149.82 319.883 150.418 320.365 151.682 321.241C150.222 322.081 149.324 322.617 148.414 323.118C130.461 333.194 112.501 343.257 94.5638 353.372C93.5219 353.961 92.5859 354.335 91.5959 354.335C90.8359 354.335 90.046 354.115 89.15 353.606C70.9326 343.197 52.6532 332.92 34.3898 322.607C33.7318 322.231 33.1318 321.755 32.1319 321.067C33.3198 320.249 34.1898 319.548 35.1518 319.016L35.1498 319.014ZM149.514 318.248C131.555 307.629 113.611 296.962 95.6318 286.371C93.9698 285.393 93.2179 284.362 93.2079 282.366C93.0819 261.113 92.8558 239.849 92.6659 218.589C92.6638 218.079 92.7599 217.559 92.8698 216.386C103.132 221.912 112.699 227.966 122.455 233.673C132.295 239.441 142.084 245.299 151.962 251.171C152.172 273.895 152.374 296.458 152.586 319.556C151.282 319.006 150.332 318.732 149.512 318.246L149.514 318.248ZM93.5278 214.832C96.8457 212.917 99.5456 211.339 102.274 209.812C118.061 200.928 133.898 192.129 149.63 183.159C151.038 182.355 152.264 181.916 153.52 181.916C154.65 181.916 155.806 182.272 157.14 183.039C174.529 193.066 192.045 202.868 209.516 212.761C210.628 213.39 211.704 214.086 213.136 214.964C212.174 215.716 211.56 216.37 210.814 216.783C192.747 226.959 174.639 237.078 156.608 247.313C155.468 247.956 154.472 248.3 153.458 248.3C152.52 248.3 151.57 248.006 150.48 247.383C132.601 237.15 114.637 227.06 96.7078 216.923C95.8198 216.424 95.0018 215.806 93.5258 214.83L93.5278 214.832ZM153.35 251.991L153.342 251.159L153.334 250.384L152.666 249.988L151.724 249.426C152.31 249.598 152.882 249.68 153.46 249.68C153.87 249.68 154.284 249.636 154.704 249.548C153.954 250.3 153.556 251.139 153.35 251.991ZM153.712 392.286L154.232 392.594C153.814 392.486 153.396 392.434 152.974 392.434C152.596 392.434 152.216 392.478 151.826 392.566C152.476 391.862 152.834 391.087 153.028 390.303L153.036 391.113L153.044 391.89L153.712 392.286ZM154.516 253.957C154.534 252.107 154.934 250.792 156.676 249.762C175.241 238.903 193.757 227.962 212.288 217.043C212.62 216.839 213.016 216.763 213.908 216.432C213.986 217.877 214.094 218.899 214.08 219.907C213.854 240.487 213.584 261.057 213.406 281.637C213.384 283.788 212.928 285.244 210.896 286.433C192.665 297.088 174.495 307.843 156.314 318.572C155.756 318.904 155.148 319.144 154.264 319.564C154.092 318.552 153.816 317.706 153.83 316.876C154.046 295.9 154.312 274.927 154.516 253.959V253.957ZM214.604 283.614C214.902 285.25 215.778 286.269 216.782 287.029C216.078 286.811 215.396 286.705 214.712 286.705C213.934 286.705 213.168 286.837 212.352 287.121C213.732 286.091 214.344 284.876 214.604 283.614ZM158.59 318.816C176.077 308.971 193.599 299.189 211.028 289.254C212.362 288.495 213.522 288.085 214.71 288.085C215.798 288.085 216.91 288.429 218.198 289.168C235.801 299.305 253.531 309.227 271.222 319.234C272.122 319.735 272.964 320.337 274.16 321.111C273.44 321.727 272.964 322.289 272.364 322.627C253.853 333.044 235.317 343.421 216.806 353.862C215.988 354.327 215.24 354.589 214.476 354.589C213.826 354.589 213.164 354.399 212.436 353.981C193.745 343.359 175.029 332.784 156.32 322.187C156 321.999 155.746 321.695 154.886 320.939C156.368 320.085 157.478 319.442 158.588 318.814L158.59 318.816ZM215.024 146.264C214.778 144.758 214.018 143.801 213.13 143.105C213.762 143.303 214.378 143.399 214.998 143.399C215.618 143.399 216.218 143.305 216.854 143.107C215.91 143.969 215.316 144.99 215.024 146.264ZM214.996 142.019C214.062 142.019 213.114 141.727 212.026 141.106C194.145 130.873 176.183 120.783 158.254 110.636C157.37 110.135 156.552 109.529 154.994 108.503C156.758 107.487 157.866 106.84 158.984 106.208C176.501 96.3826 194.041 86.6074 211.502 76.6883C212.778 75.9625 213.892 75.5686 215.03 75.5686C216.058 75.5686 217.106 75.8906 218.31 76.5804C235.953 86.6954 253.697 96.6465 271.4 106.654C272.402 107.221 273.356 107.879 274.692 108.733C273.61 109.527 272.866 110.193 272.018 110.672C254.053 120.781 236.075 130.843 218.16 141.02C217.018 141.669 216.018 142.017 215 142.017L214.996 142.019ZM156.86 111.31C175.051 122.069 193.229 132.858 211.422 143.619C212.892 144.479 213.712 145.41 213.728 147.286C213.846 168.809 214.064 190.337 214.246 211.859C214.248 212.239 214.148 212.625 213.976 213.886C194.022 202.072 174.541 190.527 154.82 178.843C154.612 156.137 154.402 133.464 154.186 110.342C155.31 110.738 156.16 110.9 156.86 111.31ZM153.44 178.857L153.448 179.634L154.116 180.03L155.418 180.802C154.776 180.624 154.15 180.54 153.52 180.54C152.81 180.54 152.106 180.648 151.366 180.876C152.556 179.828 153.144 178.657 153.426 177.451L153.44 178.859V178.857ZM151.762 36.9039C152.412 37.1378 153.048 37.2518 153.684 37.2518C154.516 37.2518 155.278 37.0558 155.968 36.7799C154.722 37.7177 154.016 38.8533 153.772 40.3129C153.452 38.9613 152.804 37.8636 151.76 36.9039H151.762ZM152.292 175.062C152.27 177.669 151.622 179.33 149.186 180.736C131.371 191.089 113.647 201.602 95.8958 212.061C95.1238 212.517 94.2858 212.879 93.1459 213.468C92.9539 212.395 92.6739 211.561 92.6799 210.735C92.8998 189.753 93.1699 168.761 93.3619 147.766C93.3779 145.726 93.9378 144.405 95.8018 143.323C114.035 132.632 132.217 121.865 150.418 111.128C150.97 110.802 151.576 110.58 152.778 110.033C152.854 111.77 152.954 112.914 152.948 114.059C152.718 134.393 152.438 154.722 152.294 175.062H152.292ZM149.67 110.546C131.377 120.819 113.079 131.072 94.7898 141.381C93.8658 141.901 93.0259 142.235 92.1459 142.235C91.4939 142.235 90.8199 142.053 90.0739 141.627C71.4986 131.056 52.8892 120.554 34.2978 110.029C33.8658 109.779 33.4978 109.421 32.5298 108.665C34.1358 107.733 35.2478 107.079 36.3857 106.442C53.8712 96.6085 71.3986 86.8353 88.824 76.8822C90.1279 76.1345 91.2599 75.7566 92.3959 75.7566C93.5319 75.7566 94.6678 76.1325 95.9838 76.8922C113.487 86.9593 131.105 96.8204 148.674 106.764C149.678 107.329 150.63 107.995 151.996 108.861C151.026 109.573 150.394 110.135 149.672 110.546H149.67ZM90.8199 144.974C91.0279 167.632 91.2339 190.285 91.4439 212.999C88.402 212.347 38.5237 183.225 32.1179 178.431C31.9179 155.963 31.7139 133.342 31.5019 109.849C51.6852 121.797 71.1406 133.322 90.8199 144.974ZM30.7339 177.813L30.7399 178.443L30.7459 179.124L31.2919 179.534C31.7019 179.84 32.3398 180.278 33.1738 180.824C32.3119 180.49 31.4879 180.33 30.6539 180.33C30.18 180.33 29.702 180.384 29.214 180.494C30.058 179.664 30.5059 178.751 30.7359 177.813H30.7339ZM30.3859 37.6557C30.076 37.4737 29.768 37.2898 29.46 37.1058C30.03 37.2698 30.5899 37.3498 31.1459 37.3498C31.5939 37.3498 32.0399 37.2998 32.4959 37.1978C31.7219 37.9876 31.2939 38.8793 31.0719 39.875L31.062 38.8293L31.0539 38.0516L30.3859 37.6557ZM-29.5541 284.968C-29.7661 262.248 -29.974 239.573 -30.192 216.518C-29.1881 216.827 -28.4361 216.905 -27.8341 217.265C-9.53271 228.08 8.75467 238.941 27.0641 249.75C28.548 250.636 29.336 251.595 29.344 253.453C29.47 274.977 29.684 296.496 29.858 318.018C29.86 318.398 29.7639 318.784 29.592 320.015C9.63663 308.193 -9.85672 296.644 -29.5521 284.966L-29.5541 284.968ZM-30.546 423.463C-30.338 402.233 -30.0741 381.002 -29.8701 359.77C-29.8521 358.022 -29.3201 356.851 -27.7561 355.933C-9.08676 344.994 9.54865 334.009 28.204 323.033C28.428 322.907 28.696 322.879 29.53 322.629C29.602 323.958 29.71 324.968 29.696 325.974C29.472 346.684 29.208 367.39 29.03 388.108C29.01 390.171 28.404 391.451 26.5621 392.526C8.3447 403.199 -9.82272 413.942 -28.0101 424.675C-28.5681 425.007 -29.1741 425.251 -30.0281 425.671C-30.2321 424.837 -30.556 424.151 -30.548 423.463H-30.546ZM86.3521 429.711C68.6247 439.661 50.8753 449.57 33.1959 459.607C32.0859 460.235 31.1239 460.548 30.16 460.548C29.196 460.548 28.216 460.229 27.0901 459.585C9.34064 449.432 -8.49677 439.417 -26.2962 429.352C-27.2801 428.796 -28.1821 428.094 -29.4481 427.258C-28.1121 426.404 -27.1821 425.739 -26.1922 425.183C-8.47876 415.208 9.26862 405.297 26.928 395.239C28.148 394.544 29.22 394.202 30.2879 394.202C31.3879 394.202 32.4839 394.566 33.7378 395.283C51.3692 405.385 69.0927 415.338 86.774 425.335C87.758 425.889 88.656 426.594 90.0919 427.562C88.538 428.454 87.45 429.098 86.3501 429.711H86.3521ZM90.8879 425.617C90.008 425.359 89.25 425.285 88.658 424.937C70.3566 414.118 52.0932 403.273 33.7938 392.466C32.3019 391.589 31.5259 390.613 31.5159 388.771C31.3839 367.26 31.1759 345.76 31.0019 324.248C30.9959 323.86 31.1179 323.472 31.2799 322.477C32.6859 323.196 33.7278 323.666 34.7058 324.238C52.3212 334.673 69.8966 345.138 87.548 355.507C89.562 356.689 90.5 357.928 90.506 360.404C90.59 381.124 90.8239 401.85 91.012 422.565C91.012 423.473 90.9359 424.383 90.8879 425.617ZM91.7399 358.78C91.4779 357.422 90.8519 356.345 89.7759 355.403C90.3879 355.611 90.9899 355.713 91.5939 355.713C92.4019 355.713 93.1559 355.521 93.8258 355.259C92.5299 356.301 91.9719 357.518 91.7419 358.778L91.7399 358.78ZM92.4739 425.861C92.3939 424.401 92.2859 423.377 92.2879 422.362C92.5219 401.792 92.7859 381.214 92.9698 360.63C92.9839 358.488 93.4119 357.013 95.4558 355.809C113.695 345.184 131.867 334.429 150.068 323.71C150.618 323.384 151.232 323.15 152.12 322.725C152.29 323.74 152.554 324.582 152.548 325.418C152.336 346.388 152.064 367.36 151.864 388.325C151.846 390.175 151.42 391.501 149.682 392.52C131.119 403.387 112.605 414.328 94.0758 425.247C93.7438 425.443 93.3478 425.529 92.4739 425.861ZM209.296 429.487C191.677 439.401 174.019 449.25 156.474 459.281C155.176 460.019 154.052 460.382 152.934 460.382C151.816 460.382 150.624 459.993 149.296 459.225C131.769 449.174 114.143 439.291 96.5558 429.344C95.5458 428.772 94.5818 428.118 93.2619 427.292C94.1458 426.556 94.7278 425.897 95.4498 425.505C113.759 415.206 132.079 404.949 150.38 394.642C151.29 394.124 152.116 393.816 152.972 393.816C153.646 393.816 154.34 394.008 155.104 394.44C173.695 405.019 192.329 415.53 210.94 426.07C211.38 426.32 211.762 426.684 212.8 427.476C211.278 428.358 210.292 428.928 209.296 429.491V429.487ZM154.414 391.101C154.206 368.303 153.994 345.694 153.784 322.167C173.951 334.115 193.401 345.64 213.102 357.301C213.312 379.948 213.522 402.605 213.738 426.26C193.449 414.234 173.973 402.691 154.414 391.101ZM214.482 357.287L214.474 356.509L213.804 356.113C213.642 356.017 213.48 355.921 213.318 355.825C213.704 355.921 214.09 355.967 214.478 355.967C214.888 355.967 215.298 355.915 215.718 355.807C215.058 356.563 214.69 357.378 214.492 358.218L214.484 357.287H214.482ZM214.972 422.534C215.198 401.808 215.46 381.082 215.646 360.348C215.67 358.198 216.16 356.755 218.194 355.563C236.221 345.034 254.16 334.381 272.136 323.78C272.892 323.332 273.714 323.005 275.048 322.381C275.14 323.926 275.248 324.834 275.24 325.74C275.012 346.466 274.722 367.192 274.574 387.926C274.556 390.319 273.754 391.712 271.684 392.922C253.775 403.371 235.925 413.934 218.054 424.461C217.296 424.907 216.472 425.245 215.292 425.823C215.154 424.493 214.96 423.515 214.972 422.538V422.534ZM333.106 429.114C315.036 439.285 296.935 449.4 278.892 459.635C277.756 460.281 276.76 460.628 275.744 460.628C274.808 460.628 273.856 460.332 272.766 459.705C254.884 449.482 236.921 439.391 218.994 429.252C218.11 428.748 217.288 428.128 215.812 427.158C219.134 425.251 221.826 423.663 224.556 422.128C240.347 413.256 256.174 404.459 271.906 395.485C273.318 394.68 274.546 394.24 275.802 394.24C276.932 394.24 278.082 394.596 279.41 395.361C296.689 405.335 314.089 415.066 331.45 424.891C332.682 425.589 333.894 426.308 335.478 427.234C334.456 428.05 333.85 428.696 333.104 429.114H333.106ZM336.37 426.024C334.838 425.225 333.692 424.699 332.61 424.053C315.21 413.764 297.861 403.395 280.404 393.19C277.952 391.76 276.994 390.223 276.988 387.34C276.934 367.132 276.686 346.918 276.51 326.711C276.5 325.444 276.612 324.17 276.678 322.421C278.21 323.222 279.36 323.756 280.438 324.39C297.831 334.685 315.192 345.05 332.65 355.249C335.098 356.685 336.042 358.232 336.05 361.109C336.11 381.316 336.352 401.522 336.526 421.746C336.542 423.001 336.44 424.263 336.37 426.022V426.024ZM277.73 321.221C278.412 320.571 278.834 319.929 279.43 319.598C297.957 309.171 316.516 298.786 335.034 288.339C335.842 287.891 336.576 287.651 337.314 287.651C337.99 287.651 338.67 287.853 339.414 288.277C358.127 298.908 376.858 309.494 395.578 320.105C395.914 320.291 396.184 320.593 396.97 321.231C395.66 322.085 394.738 322.753 393.74 323.31C376.126 333.222 358.477 343.073 340.922 353.092C339.594 353.846 338.446 354.239 337.286 354.239C336.126 354.239 335.048 353.88 333.744 353.134C316.232 343.067 298.595 333.192 281.008 323.24C279.99 322.667 279.02 322.023 277.73 321.221ZM337.22 358.962C336.896 357.452 336.184 356.257 334.996 355.225C335.782 355.491 336.534 355.619 337.286 355.619C337.898 355.619 338.512 355.533 339.15 355.355C337.95 356.377 337.422 357.574 337.22 358.96V358.962ZM337.824 422.362C338.036 401.768 338.3 381.17 338.492 360.578C338.506 358.452 338.902 356.969 340.968 355.759C359.105 345.178 377.17 334.467 395.262 323.806C395.92 323.42 396.634 323.128 397.964 322.479C398.01 324.432 398.078 325.714 398.066 326.989C397.836 347.065 397.544 367.132 397.442 387.208C397.422 390.173 396.588 391.912 393.924 393.466C376.21 403.727 358.615 414.192 340.97 424.585C340.196 425.041 339.362 425.371 338.11 425.965C337.99 424.545 337.814 423.451 337.824 422.362ZM455.06 429.318C437.108 439.401 419.133 449.454 401.21 459.577C400.168 460.165 399.24 460.526 398.264 460.526C397.496 460.526 396.698 460.3 395.792 459.785C377.58 449.39 359.285 439.111 341.034 428.782C340.372 428.404 339.782 427.928 338.79 427.244C339.878 426.484 340.648 425.861 341.494 425.379C359.549 415.228 377.63 405.093 395.672 394.91C396.71 394.328 397.636 393.972 398.604 393.972C399.378 393.972 400.18 394.2 401.09 394.72C419.307 405.117 437.59 415.394 455.846 425.715C456.514 426.096 457.106 426.578 458.34 427.43C456.862 428.29 455.966 428.818 455.058 429.322L455.06 429.318ZM400.028 254.383C400.044 252.059 400.634 250.57 402.772 249.316C420.677 238.849 438.512 228.266 456.372 217.731C457.146 217.265 457.986 216.905 459.074 216.358C459.294 217.237 459.628 217.931 459.618 218.631C459.408 239.891 459.116 261.139 458.958 282.392C458.944 284.832 457.644 285.825 455.866 286.863C441.586 295.215 427.331 303.606 413.063 311.966C408.779 314.481 404.458 316.934 399.582 319.735C399.482 318.204 399.35 317.18 399.362 316.175C399.588 295.579 399.862 274.982 400.03 254.383H400.028ZM413.427 330.558C427.429 338.858 441.412 347.199 455.462 355.397C457.766 356.725 458.73 358.196 458.736 360.931C458.804 381.144 459.04 401.348 459.218 421.554C459.224 422.821 459.114 424.085 459.024 426.15C439.006 414.276 419.547 402.743 399.934 391.131C399.728 368.379 399.524 345.742 399.312 322.189C404.646 325.35 409.033 327.957 413.427 330.558ZM398.544 389.753L398.556 391.143L398.564 391.92L399.234 392.316C399.494 392.47 399.752 392.622 400.012 392.776C399.54 392.652 399.074 392.59 398.608 392.59C398.014 392.59 397.454 392.692 396.934 392.848C397.734 391.968 398.258 390.961 398.546 389.753H398.544ZM397.49 251.177C397.7 274.031 397.904 296.572 398.112 318.964C397.746 319.174 397.636 319.254 397.524 319.288C397.44 319.324 397.33 319.362 397.244 319.362C397.214 319.362 397.188 319.358 397.166 319.348C396.458 319.008 395.732 318.694 395.056 318.308C376.336 307.215 357.615 296.116 338.792 284.958C338.584 262.19 338.382 239.569 338.168 216.038C358.325 227.972 377.778 239.497 397.49 251.179V251.177ZM337.414 284.97L337.422 285.747L338.09 286.143L338.602 286.447C338.172 286.331 337.746 286.273 337.316 286.273C336.96 286.273 336.606 286.311 336.246 286.391C336.87 285.697 337.216 284.94 337.408 284.174L337.414 284.97ZM336.936 219.279C336.712 240.257 336.454 261.219 336.246 282.192C336.224 284.046 335.806 285.354 334.072 286.385C315.506 297.24 296.991 308.193 278.46 319.106C278.132 319.298 277.736 319.386 276.856 319.717C276.772 318.264 276.66 317.248 276.67 316.232C276.898 295.658 277.176 275.074 277.33 254.5C277.348 252.107 278.104 250.706 280.174 249.494C298.181 238.975 316.126 228.356 334.098 217.785C334.772 217.389 335.488 217.079 336.49 216.592C336.664 217.605 336.94 218.441 336.934 219.277L336.936 219.279ZM276.278 181.694C277.142 181.694 278.026 181.958 279.032 182.531C297.131 192.862 315.31 203.079 333.456 213.336C334.118 213.71 334.736 214.182 335.746 214.85C334.752 215.596 334.046 216.264 333.218 216.729C315.04 226.951 296.847 237.13 278.694 247.385C277.732 247.926 276.876 248.232 275.998 248.232C275.246 248.232 274.48 248.008 273.618 247.517C255.276 237.076 236.883 226.715 218.512 216.324C217.96 216.012 217.468 215.596 216.432 214.862C217.718 214.028 218.55 213.416 219.442 212.921C237.391 202.836 255.356 192.77 273.27 182.643C274.346 182.034 275.298 181.696 276.276 181.696L276.278 181.694ZM275.14 176.009C275.12 178.533 273.966 179.72 272 180.87C256.014 190.187 240.071 199.578 224.106 208.948C221.526 210.463 218.92 211.939 215.654 213.822C215.6 211.859 215.53 210.575 215.546 209.298C215.772 188.968 216.044 168.638 216.186 148.299C216.208 145.95 216.872 144.497 218.98 143.257C236.891 132.808 254.73 122.235 272.596 111.708C273.37 111.244 274.196 110.884 275.328 110.319C275.508 111.372 275.81 112.212 275.8 113.044C275.582 134.034 275.294 155.019 275.142 176.007L275.14 176.009ZM275.2 38.8474C275.412 61.4768 275.62 84.1281 275.83 106.84C272.854 106.26 223.46 77.4601 216.5 72.3116C216.304 49.8541 216.096 27.2247 215.886 3.68958C236.173 15.7141 255.564 27.2188 275.2 38.8474ZM215.12 72.3236L215.126 73.0114L215.678 73.4213C216.096 73.7312 216.714 74.153 217.502 74.6709C216.654 74.347 215.844 74.193 215.026 74.193C214.564 74.193 214.106 74.241 213.638 74.343C214.472 73.5132 214.898 72.5895 215.114 71.6538L215.12 72.3256V72.3236ZM214.452 4.25345C214.53 5.76099 214.648 6.89465 214.632 8.03232C214.412 28.4923 214.15 48.9364 213.956 69.3805C213.934 71.4758 213.618 73.0034 211.528 74.223C193.187 84.9219 174.913 95.7647 156.602 106.556C156.158 106.818 155.67 106.999 154.87 107.371C154.682 106.418 154.366 105.6 154.38 104.792C154.592 83.6983 154.868 62.5945 155.054 41.4986C155.07 39.5352 155.832 38.4015 157.484 37.4297C175.695 26.7628 193.876 16.018 212.074 5.31708C212.718 4.93921 213.424 4.70529 214.45 4.25543L214.452 4.25345ZM97.5897 0.34256C115.315 -9.61255 133.067 -19.5237 150.738 -29.5667C151.91 -30.2305 152.932 -30.5664 153.958 -30.5664C154.98 -30.5664 156.006 -30.2325 157.188 -29.5547C174.817 -19.4497 192.547 -9.51257 210.236 0.492523C211.232 1.06036 212.178 1.72015 213.544 2.5899C212.334 3.41367 211.456 4.10947 210.506 4.65533C192.555 14.7444 174.585 24.8014 156.654 34.9145C155.604 35.5043 154.67 35.8742 153.686 35.8742C152.928 35.8742 152.142 35.6563 151.246 35.1484C133.029 24.7395 114.743 14.4624 96.4837 4.12946C95.8217 3.75955 95.2258 3.28574 93.9678 2.41397C95.5658 1.50024 96.5677 0.906403 97.5917 0.34256H97.5897ZM93.3559 3.8735C95.0898 4.83524 96.2437 5.44705 97.3677 6.11685C114.631 16.3279 131.869 26.6189 149.198 36.744C151.638 38.1696 152.63 39.7011 152.638 42.5822C152.686 62.7884 152.938 82.9725 153.106 103.181C153.116 104.436 153.014 105.698 152.944 107.425C151.64 106.814 150.708 106.45 149.856 105.944C132.023 95.3889 114.199 84.8059 96.3558 74.277C94.6718 73.2853 93.6058 72.3176 93.5978 70.0682C93.4979 48.9404 93.2618 27.8325 93.0779 6.72269C93.0718 5.97891 93.2179 5.23712 93.3559 3.8735ZM92.3459 71.4118C92.6619 72.9894 93.5239 73.9771 94.5058 74.7149C93.7838 74.4869 93.0899 74.377 92.3959 74.377C91.6559 74.377 90.9139 74.5029 90.1379 74.7629C91.5239 73.8031 92.1099 72.6335 92.3459 71.4118ZM91.8019 7.14258C91.5799 27.9805 91.3219 48.8224 91.1179 69.6624C91.1039 71.5078 90.7379 72.8374 88.978 73.8691C70.4246 84.74 51.9072 95.6908 33.3758 106.608C33.0438 106.804 32.6539 106.894 31.7319 107.245C31.6519 105.824 31.5359 104.81 31.5519 103.8C31.7839 83.2224 32.0479 62.6404 32.2339 42.0684C32.2559 39.943 32.6299 38.4515 34.6918 37.2418C52.9312 26.6049 71.0946 15.838 89.282 5.11716C89.84 4.79123 90.4479 4.54135 91.4339 4.05148C91.5819 5.24115 91.8079 6.19485 91.7999 7.14258H91.8019ZM-24.8763 0.234589C-7.25284 -9.67053 10.3826 -19.5396 27.98 -29.4867C29.14 -30.1485 30.174 -30.6184 31.2939 -30.6184C32.0479 -30.6184 32.8439 -30.4045 33.7418 -29.8926C51.9672 -19.4677 70.2706 -9.18265 88.544 1.15234C89.214 1.53223 89.826 2.01608 90.8259 2.68387C89.834 3.43765 89.108 4.13748 88.262 4.60934C70.3086 14.7164 52.3192 24.7715 34.3938 34.9385C33.2299 35.5963 32.2039 35.9702 31.1479 35.9702C30.2459 35.9702 29.32 35.6983 28.266 35.0945C10.2686 24.8034 -7.81079 14.6544 -25.8482 4.44336C-26.6262 4.00751 -27.3441 3.45566 -28.7961 2.48795C-27.0862 1.50421 -25.9882 0.848419 -24.8742 0.234589H-24.8763ZM-29.2281 4.14545C-19.1484 9.60187 -9.56073 15.6341 0.194946 21.3585C10.0266 27.1268 19.8183 32.9951 29.684 38.8413C29.8919 61.5967 30.1 84.1321 30.304 107.133C29.118 106.7 28.262 106.534 27.554 106.112C9.46466 95.4229 -8.57678 84.694 -26.6602 74.0111C-28.1061 73.1593 -29.0721 72.3316 -29.0821 70.4141C-29.192 48.7545 -29.3961 27.1108 -29.5701 5.45508C-29.5761 5.20517 -29.4481 4.95923 -29.2281 4.14346V4.14545Z" fill="#4F4747"/>
</g>
</svg>
