<svg width="113" height="127" viewBox="0 0 113 127" fill="none" xmlns="http://www.w3.org/2000/svg">
<path d="M71.5732 11.5605C71.9819 8.13042 73.073 4.8152 74.7832 1.80762C74.3777 5.23843 73.2864 8.55426 71.5732 11.5605Z" fill="#E9E9F1"/>
<path d="M47.1261 10.041C45.7487 6.86862 45.0245 3.4546 44.9961 0C46.3688 3.17379 47.0929 6.58688 47.1261 10.041Z" fill="#E9E9F1"/>
<path d="M25.1881 20.8665C22.3968 18.8047 20.0505 16.2076 18.2881 13.229C21.0741 15.2965 23.4194 17.8924 25.1881 20.8665Z" fill="#E9E9F1"/>
<path d="M11.6403 41.1472C8.18497 40.7425 4.84609 39.6551 1.82031 37.9492C5.27462 38.3587 8.61259 39.4457 11.6403 41.1472Z" fill="#E9E9F1"/>
<path d="M10.11 65.4302C6.9132 66.7898 3.4774 67.5087 0 67.5456C3.19266 66.173 6.63113 65.4535 10.11 65.4302Z" fill="#E9E9F1"/>
<path d="M87.8115 91.3618C90.5999 93.4268 92.9456 96.0232 94.7115 98.9993C91.9202 96.9375 89.5739 94.3404 87.8115 91.3618Z" fill="#E9E9F1"/>
<path d="M101.4 71.0913C104.854 71.4972 108.192 72.5809 111.22 74.2794C107.766 73.8782 104.427 72.7942 101.4 71.0913Z" fill="#E9E9F1"/>
<path d="M102.88 46.8083C106.078 45.4403 109.518 44.7211 113 44.6929C109.801 46.0563 106.361 46.7753 102.88 46.8083Z" fill="#E9E9F1"/>
<path d="M91.9814 25.0179C94.0591 22.2436 96.6778 19.913 99.6815 18.165C97.5986 20.9346 94.981 23.2643 91.9814 25.0179Z" fill="#E9E9F1"/>
<g opacity="0.5">
<path d="M93.6418 71.4687C83.5727 94.2222 61.4746 94.5003 61.4746 94.5003C58.7849 97.5592 53.7453 105.952 53.7453 105.952L27.5376 96.9137C27.5376 96.9137 28.8275 87.2104 28.6275 83.1583C28.6275 83.1583 11.4691 69.3333 17.7785 45.2788C22.1581 28.5736 42.2263 8.53147 69.6639 18.0262L69.9539 18.1255C97.4014 27.6103 100.631 55.6673 93.6418 71.4687Z" fill="#FF4B45"/>
</g>
<g opacity="0.7">
<path d="M90.4023 70.4754C81.1931 91.332 60.9849 91.5306 60.9849 91.5306C58.5251 94.3314 52.6656 105.564 52.6656 105.564L28.6678 97.301C28.6678 97.301 31.0875 84.8665 30.9076 81.1619C30.9076 81.1619 15.2189 68.509 20.9884 46.5202C24.9881 31.2353 43.3465 12.9311 68.4442 21.5916L68.7042 21.681C93.792 30.3514 96.7617 56.0149 90.4023 70.4754Z" fill="#FF4B45"/>
</g>
<path d="M38.6395 57.5851L32.0039 101.217L34.9702 101.662L41.6058 58.0302L38.6395 57.5851Z" fill="white"/>
<path d="M66.9733 66.7922L44.9482 105.115L47.5536 106.592L69.5786 68.2695L66.9733 66.7922Z" fill="white"/>
<path d="M50.8451 76.6728C50.3516 76.6778 49.8609 76.5971 49.3953 76.4345C46.9555 75.6002 45.6056 72.7299 45.0457 69.5319C44.6602 69.761 44.2322 69.9106 43.7873 69.9721C43.3424 70.0335 42.8896 70.0054 42.4559 69.8895C38.4562 68.509 39.6961 59.8982 39.7561 59.5307L40.756 59.6797C40.4261 61.9441 40.1261 68.0223 42.8058 68.946C43.1708 69.0198 43.5473 69.0164 43.9108 68.936C44.2744 68.8555 44.6168 68.6999 44.9157 68.4792C44.5682 65.8331 44.7793 63.1441 45.5356 60.5835C46.3455 58.2594 47.7054 57.2365 49.2753 57.7827C49.7397 57.9242 50.1551 58.1915 50.4749 58.5547C50.7946 58.9179 51.0059 59.3626 51.0851 59.8386C51.5751 62.391 49.2153 66.2545 46.7355 68.3799C46.5026 68.5845 46.259 68.7768 46.0056 68.9559C46.4855 72.0645 47.7154 74.8057 49.7352 75.5009C51.5651 76.1266 53.8149 74.9944 55.8247 73.1371C55.6294 72.6526 55.4821 72.1503 55.3847 71.6375C54.7348 68.2706 55.8647 63.99 57.8445 62.2818C58.1969 61.9438 58.6356 61.7078 59.1131 61.5993C59.5907 61.4908 60.089 61.5138 60.5543 61.666C62.0541 62.1825 62.4041 63.9304 61.5542 66.4531C60.5518 69.051 59.0238 71.4171 57.0646 73.4053C57.5104 74.2489 58.2603 74.8944 59.1644 75.2129C61.4542 75.9975 65.4538 71.1607 66.8037 69.2538L67.6236 69.8199C67.0837 70.5946 62.2441 77.368 58.8344 76.1862C57.7855 75.8162 56.9008 75.0921 56.3346 74.1402C54.8743 75.6173 52.9235 76.5173 50.8451 76.6728ZM59.6944 62.5202C59.2409 62.5391 58.8103 62.7229 58.4844 63.0366C56.7646 64.5065 55.7747 68.4494 56.3547 71.4587C56.4112 71.7679 56.488 72.0731 56.5846 72.3724C58.3251 70.5768 59.6852 68.4525 60.5843 66.1254C60.9042 65.2116 61.5042 63.0465 60.2343 62.6095C60.0612 62.5475 59.8783 62.5172 59.6944 62.5202ZM48.4653 58.6369C47.4654 58.6369 46.8355 59.8287 46.4655 60.9013C45.783 63.1523 45.5687 65.5176 45.8356 67.8535L46.0656 67.6648C48.2854 65.748 50.4952 62.1527 50.0652 60.0571C50.017 59.7518 49.8823 59.4664 49.677 59.2343C49.4716 59.0021 49.2039 58.8328 48.9053 58.7461C48.7649 58.6883 48.6166 58.6515 48.4653 58.6369Z" fill="white"/>
<path d="M57.0184 107.151L24.1982 95.8184L17.9204 113.755L50.7405 125.088L57.0184 107.151Z" fill="#455A64"/>
<path d="M47.046 123.789C43.9262 126.52 39.1567 128.278 32.0973 125.844C25.0379 123.411 22.4081 119.091 21.6582 115.029L47.046 123.789Z" fill="#455A64"/>
<path d="M47.0462 123.789C46.1133 124.594 45.0695 125.263 43.9465 125.775L21.9484 116.26C21.8284 115.833 21.7284 115.416 21.6484 114.999L47.0462 123.789Z" fill="#37474F"/>
<path d="M56.805 110.877L20.9482 102.078L21.4982 100.519L57.345 109.318L56.805 110.877Z" fill="#37474F"/>
<path d="M55.1449 115.615L19.2881 106.816L19.838 105.256L55.6949 114.056L55.1449 115.615Z" fill="#37474F"/>
<path d="M53.4847 120.352L17.6279 111.553L18.1779 109.983L54.0347 118.793L53.4847 120.352Z" fill="#37474F"/>
<g opacity="0.5">
<path d="M27.9571 42.6665C29.087 43.2823 32.8067 37.7007 41.9559 32.8242C46.0255 30.669 58.6744 30.5896 59.1444 26.6467C59.6143 22.7038 48.2553 23.0117 41.146 27.0738C29.797 33.6188 26.9172 42.1004 27.9571 42.6665Z" fill="white"/>
<path d="M86.7119 64.3973C86.9378 64.4756 87.1769 64.5089 87.4158 64.4953C87.6546 64.4818 87.8884 64.4217 88.1039 64.3184C88.3193 64.2151 88.5121 64.0707 88.6714 63.8933C88.8306 63.716 88.9531 63.5093 89.0319 63.285C89.1107 63.0607 89.1442 62.8231 89.1306 62.5859C89.1169 62.3487 89.0564 62.1165 88.9524 61.9025C88.8484 61.6886 88.7029 61.4971 88.5244 61.3389C88.3459 61.1808 88.1378 61.0591 87.9119 60.9808C87.4557 60.8228 86.955 60.8512 86.5199 61.0598C86.0848 61.2684 85.751 61.6401 85.5919 62.0932C85.4328 62.5462 85.4613 63.0435 85.6714 63.4756C85.8814 63.9078 86.2557 64.2393 86.7119 64.3973Z" fill="white"/>
<path d="M66.893 86.3463C67.7829 87.6871 75.5422 84.36 80.4418 78.8181C84.5014 74.2495 87.2412 67.635 85.8913 66.7411C84.5414 65.8473 80.4018 74.8057 77.402 77.5468C73.6424 81.0726 65.943 84.9261 66.893 86.3463Z" fill="white"/>
</g>
</svg>
