<svg width="45" height="64" viewBox="0 0 45 64" fill="none" xmlns="http://www.w3.org/2000/svg">
<path d="M20.5691 13.2083L19.6095 12.7109L19.3504 11.8236L19.1259 11.7822L19.0599 12.0432L18.6249 11.3662L17.9873 11.1589L17.2586 11.6609L16.9995 12.5129L17.5947 13.153L18.606 13.4708L19.8875 14.2061L20.5691 13.2083Z" fill="#EAC1A4"/>
<path d="M20.0258 12.1844L25.6699 15.9668L31.4443 10.0229L32.1337 16.7651L26.5053 20.3142L18.9956 13.9666L20.0258 12.1844Z" fill="#93AA9D"/>
<path d="M40.3739 61.5393L40.4697 62.4497L38.7454 63.5841L37.7388 62.7858L38.5522 61.7635L40.2781 60.629L40.3739 61.5393Z" fill="#22252D"/>
<path d="M40.3312 33.7141L40.6218 36.4773L38.0368 45.9734L40.438 61.2338L38.6697 61.8186L34.0087 46.919L33.269 42.5854L33.2957 33.4102L40.3312 33.7141Z" fill="#EAC1A4"/>
<path d="M26.7344 36.7936L30.4531 62.3652H32.1429L32.4476 45.9735L35.5224 34.4695L26.7344 36.7936Z" fill="#EAC1A4"/>
<path d="M32.1336 62.1624V63.0803L30.3056 63.9999L29.3916 63.0803L30.3056 62.1624H32.1336Z" fill="#22252D"/>
<path d="M30.8867 10.5449C31.0202 10.3346 31.1992 10.1565 31.4442 10.023C33.123 9.1142 35.9057 9.91398 37.729 9.91398C38.2677 15.3498 39.7564 20.5292 40.7175 25.8652C41.7383 31.5327 42.8878 37.1788 44.1662 42.7988C44.2384 43.1166 39.0953 42.9569 38.61 42.9646C33.6616 43.0444 27.1852 43.0275 22.4111 41.5937C25.4577 33.7509 26.5712 25.3141 28.9692 17.2671C29.3901 15.8548 29.891 14.4625 30.2695 13.0394C30.4894 12.2136 30.4548 11.2173 30.8867 10.5434V10.5449Z" fill="#4D78BC"/>
<path d="M33.1323 2.52405C31.8791 2.85256 30.8944 3.96397 30.7562 5.20125C30.0715 4.59029 29.7229 3.6508 29.8485 2.76198C29.9742 1.87316 30.5725 1.05803 31.4032 0.643555C32.179 1.03807 32.7821 1.73808 33.0396 2.544L33.1323 2.52251V2.52405Z" fill="#3B455A"/>
<path d="M30.5837 4.13289C31.2307 0.856997 35.4991 1.42344 36.724 4.07609C37.4197 5.58509 36.6911 7.72041 35.2981 8.76888C35.2683 9.05901 35.229 9.8588 34.9982 10.0522C34.7485 10.2625 33.9585 10.0614 33.6492 9.99388C33.5628 9.97546 33.4733 9.9509 33.412 9.89103C33.3335 9.81581 33.3209 9.61625 33.3194 9.39366C33.0917 9.37831 32.8592 9.33686 32.6237 9.26164C31.6312 8.94848 30.9119 8.06734 30.6151 7.1079C30.3183 6.14693 30.3905 5.11535 30.5853 4.13135L30.5837 4.13289Z" fill="#EAC1A4"/>
<path d="M36.8953 17.1366C36.8544 17.1351 36.8214 17.132 36.7979 17.1274C36.0457 17.0031 34.8364 16.7697 34.4862 16.0098C34.1282 15.23 34.7642 13.8162 34.8694 13.0072C35.0296 11.7761 35.0814 10.5342 35.1442 9.29688C35.1992 8.18086 34.7846 7.0802 34.1753 6.12691C33.566 5.17361 32.7698 4.34619 31.9845 3.52031C31.6579 3.17645 31.3203 2.80956 31.2213 2.35364C31.1114 1.85013 31.3203 1.31899 31.6673 0.926002C32.1997 0.321175 32.8326 0.0202975 33.6366 0.00187637C36.4602 -0.0625976 38.5819 1.5385 39.3828 4.18194C40.5308 7.97055 39.097 11.5842 39.3106 15.3544C39.3467 15.9976 39.5697 16.6316 39.945 17.1658C39.8445 17.0245 37.5046 17.1704 36.8953 17.1366Z" fill="#3B455A"/>
<path d="M35.0153 22.1978L33.8799 22.5539L32.9471 22.0826L32.743 22.2208L32.911 22.4695L32.0206 22.2914L31.3673 22.6215L31.2354 23.5548L31.7457 24.396L32.7273 24.4221L33.7527 23.8925L35.3294 23.4688L35.0153 22.1978Z" fill="#EAC1A4"/>
<path d="M38.0134 21.0219C38.4923 20.7118 38.8206 20.2712 38.863 19.6219C38.9022 19.0232 38.7562 18.4306 38.6478 17.8396C38.3055 15.9653 38.351 14.0264 38.7797 12.1674C39.2069 10.3176 41.4557 12.6433 41.7368 13.4769C42.0462 14.401 41.9598 15.408 42.0352 16.3644C42.1373 17.6477 42.1844 18.9357 42.1797 20.2221C42.1766 21.0372 42.3854 22.9607 41.4919 23.4258C41.25 23.5517 40.972 23.5962 40.7004 23.6377C40.2732 23.7037 35.1772 24.3208 35.0971 24.0782L34.3936 21.9491C35.4536 21.7403 37.0413 21.6497 38.0134 21.0188V21.0219Z" fill="#4D78BC"/>
<path d="M27.573 42.9492L0.833496 39.004L6.32682 4.79285L33.0664 8.73804L27.573 42.9492Z" fill="#3B455A"/>
<path opacity="0.26" d="M3.06494 37.8282L3.4654 37.888L26.9652 42.0742L31.5414 9.63L30.3965 9.7697L3.06494 37.8282Z" fill="black"/>
<path d="M26.4611 41.2805L2.41797 37.7329L7.49985 6.08081L31.5414 9.62995L26.4611 41.2805Z" fill="#F4F4F2"/>
<path d="M23.0851 5.30094L22.9233 5.27638L22.9406 5.17199C23.0992 4.18493 22.2684 3.24391 21.0875 3.07045L19.5312 2.84018C18.3487 2.66518 17.2619 3.32373 17.1049 4.3108L17.0876 4.41519L16.9259 4.39063C15.7433 4.21563 14.6566 4.87418 14.4996 5.86125L14.1792 7.85687L24.6209 9.39811L24.9413 7.40248C25.0999 6.41542 24.2692 5.4744 23.0882 5.30094H23.0851ZM21.3733 5.08909L18.6219 4.68383C18.3408 4.64238 18.1461 4.38756 18.1901 4.11891C18.234 3.84874 18.4994 3.66299 18.7805 3.70444L21.5319 4.1097C21.813 4.15115 22.0077 4.40598 21.9638 4.67462C21.9198 4.9448 21.6544 5.13054 21.3733 5.08909Z" fill="#F9F9F9"/>
<path opacity="0.12" d="M24.6175 9.39819L14.1758 7.85696L14.3265 6.91748L24.7683 8.45872L24.6175 9.39819Z" fill="black"/>
<path d="M26.7694 21.2429L8.70166 18.5765L8.77705 18.1113L26.8447 20.7778L26.7694 21.2429Z" fill="#E7EEFC"/>
<path d="M26.2181 24.6786L8.15039 22.0121L8.22577 21.547L26.2934 24.2135L26.2181 24.6786Z" fill="#E7EEFC"/>
<path d="M25.6668 28.1141L7.59912 25.4476L7.67293 24.981L25.7406 27.6474L25.6668 28.1141Z" fill="#E7EEFC"/>
<path d="M25.1155 31.5496L7.04785 28.8832L7.12166 28.4165L25.1893 31.083L25.1155 31.5496Z" fill="#E7EEFC"/>
<path d="M12.6289 36.3606L5.98763 35.3796L5.96094 35.5454L12.6022 36.5248L12.6289 36.3606Z" fill="#E7EEFC"/>
<path d="M22.436 34.8148C22.1329 34.652 21.7733 34.629 21.4529 34.7319C21.4121 34.7027 21.3697 34.6751 21.3241 34.652C20.8719 34.4095 20.2892 34.477 19.9076 34.8117C19.5339 35.1387 19.4067 35.6667 19.5951 36.1165C19.7867 36.574 20.2641 36.8657 20.7761 36.8503C20.897 36.8472 21.0148 36.8257 21.1247 36.7889C21.343 36.9393 21.61 37.0222 21.8879 37.0146C22.4753 36.9977 22.9527 36.5663 23.0516 36.0214C23.1191 35.5363 22.8851 35.0573 22.436 34.8163V34.8148ZM20.93 36.6415C20.5122 36.7198 20.0788 36.5371 19.8558 36.1902C19.6297 35.8371 19.6658 35.372 19.939 35.0527C20.2123 34.7349 20.6771 34.6121 21.0807 34.7534C21.1357 34.7733 21.1875 34.7963 21.2362 34.8224C21.1577 34.8639 21.0854 34.9145 21.0179 34.9744C20.6442 35.3014 20.5169 35.8295 20.7054 36.2792C20.7619 36.4143 20.8452 36.5356 20.9457 36.6385C20.9394 36.6385 20.9347 36.6415 20.9284 36.6415H20.93ZM21.745 35.8264C21.6853 36.1534 21.4655 36.4343 21.1592 36.5709C21.0854 36.508 21.021 36.4358 20.9692 36.3529C20.7431 35.9999 20.7792 35.5347 21.0525 35.2154C21.153 35.0988 21.2786 35.0082 21.4184 34.9483C21.6649 35.1663 21.7905 35.4933 21.745 35.8264ZM22.0418 36.8058C21.7968 36.8518 21.5487 36.8073 21.3383 36.6937C21.6508 36.5187 21.8769 36.2117 21.9413 35.8556C21.9916 35.4963 21.8754 35.1402 21.6288 34.8823C21.8141 34.8439 22.0104 34.8531 22.1942 34.9176C22.6559 35.0788 22.9197 35.5301 22.8569 35.9907C22.7831 36.3944 22.4674 36.726 22.0434 36.8058H22.0418Z" fill="#E7EEFC"/>
<path d="M10.2294 10.0966L10.5247 10.1395L10.1478 12.4852L9.85254 12.4422L10.2294 10.0966Z" fill="#333333"/>
<path d="M12.7231 10.4649L13.0183 10.5079L12.6414 12.8535L12.3195 12.8059L11.4526 10.7627L11.1527 12.634L10.8574 12.591L11.2343 10.2454L11.5563 10.2929L12.4216 12.3392L12.7231 10.4649Z" fill="#333333"/>
<path d="M14.8353 12.1152C14.9185 12.2211 14.9437 12.3715 14.9123 12.5619C14.8809 12.7538 14.7866 12.9011 14.6264 13.004C14.4663 13.1068 14.2543 13.1391 13.9904 13.0992C13.725 13.0608 13.5397 12.9794 13.4345 12.8566C13.3277 12.7338 13.2759 12.5711 13.2759 12.37L13.524 12.3638C13.5209 12.6524 13.681 12.8213 14.003 12.8689C14.3673 12.9226 14.5715 12.8106 14.6155 12.5342C14.6343 12.4145 14.6155 12.3209 14.5573 12.2533C14.4992 12.1858 14.3956 12.1198 14.2464 12.0553L14.0344 11.9616C13.8145 11.868 13.6638 11.7667 13.5853 11.6608C13.5067 11.5533 13.4816 11.4044 13.513 11.2125C13.5444 11.0206 13.6355 10.8733 13.791 10.7673C13.9449 10.663 14.1506 10.6292 14.4066 10.6676C14.6626 10.7059 14.84 10.7858 14.939 10.907C15.0379 11.0298 15.0881 11.191 15.0881 11.3937L14.84 11.3998C14.8432 11.1112 14.6955 10.9439 14.3987 10.9009C14.0517 10.8502 13.8569 10.9623 13.813 11.2386C13.7941 11.3584 13.8098 11.452 13.8617 11.5211C13.9135 11.5886 14.0108 11.6531 14.1522 11.713L14.3736 11.8081C14.5997 11.9079 14.7552 12.0108 14.8369 12.1167L14.8353 12.1152Z" fill="#333333"/>
<path d="M17.1159 11.1128L17.4111 11.1558L17.1583 12.7278C17.1347 12.8721 17.097 12.9918 17.0452 13.09C16.9934 13.1883 16.9353 13.2604 16.874 13.3096C16.8128 13.3587 16.7374 13.394 16.6494 13.414C16.5615 13.4354 16.4814 13.4447 16.4092 13.4431C16.3369 13.4416 16.2553 13.4339 16.161 13.4201C16.0668 13.4063 15.9852 13.3894 15.9161 13.371C15.847 13.3525 15.7747 13.3203 15.6978 13.2743C15.6208 13.2297 15.5611 13.1745 15.5187 13.11C15.4748 13.0455 15.4434 12.9596 15.4245 12.8506C15.4057 12.7431 15.4072 12.6172 15.4308 12.4729L15.6836 10.901L15.9789 10.944L15.7276 12.5067C15.6884 12.7554 15.7229 12.9289 15.8328 13.0286C15.8862 13.0762 15.9428 13.11 15.9977 13.1315C16.0543 13.153 16.1218 13.1699 16.2003 13.1806C16.2788 13.1929 16.3495 13.196 16.4092 13.1914C16.4688 13.1868 16.5332 13.1699 16.5992 13.1407C16.7343 13.0793 16.8222 12.9243 16.863 12.6725L17.1143 11.1098L17.1159 11.1128Z" fill="#333333"/>
<path d="M18.0708 11.254L18.812 11.363C18.958 11.3845 19.079 11.4229 19.1763 11.4797C19.2737 11.535 19.3428 11.6025 19.382 11.6808C19.4574 11.8282 19.4794 11.9893 19.4511 12.1643C19.3978 12.5005 19.2219 12.6939 18.9251 12.7446C18.9785 12.7968 19.0209 12.8751 19.0523 12.981L19.2863 13.8345L18.9706 13.7885L18.7539 12.9764C18.7303 12.8935 18.6942 12.8352 18.6455 12.7999C18.5968 12.7646 18.5246 12.7369 18.4288 12.7185L18.1446 12.6771L17.9891 13.6442L17.6938 13.6012L18.0708 11.2556V11.254ZM18.1807 12.4514L18.6125 12.5159C18.7759 12.5404 18.9015 12.5128 18.991 12.4345C19.0805 12.3562 19.1355 12.2518 19.1559 12.1198C19.1763 11.9878 19.1559 11.8727 19.0962 11.7729C19.035 11.6731 18.9235 11.6117 18.7602 11.5871L18.3283 11.5227L18.1791 12.4514H18.1807Z" fill="#333333"/>
<path d="M20.7152 11.6439L21.1078 11.7022L21.5318 14.166L21.2397 14.123L21.1157 13.3801L20.1844 13.2419L19.8326 13.9143L19.5405 13.8713L20.7152 11.6423V11.6439ZM20.8738 11.9248L20.2943 13.0301L21.0748 13.1452L20.8722 11.9248H20.8738Z" fill="#333333"/>
<path d="M23.8105 12.1014L24.1057 12.1443L23.7288 14.49L23.4069 14.4424L22.54 12.3992L22.2401 14.2704L21.9448 14.2275L22.3217 11.8818L22.6437 11.9294L23.509 13.9757L23.8105 12.1014Z" fill="#333333"/>
<path d="M25.6213 12.5587C25.414 12.528 25.2491 12.5603 25.1282 12.657C25.0214 12.7399 24.9397 12.8903 24.8847 13.1083C24.8612 13.1989 24.8376 13.3125 24.8172 13.4476C24.7952 13.5827 24.7811 13.6978 24.7748 13.7945C24.7685 13.8912 24.7717 13.9848 24.7858 14.0739C24.7999 14.1645 24.8266 14.2381 24.8643 14.2965C24.9491 14.4224 25.0952 14.5022 25.304 14.5329C25.648 14.5835 25.8537 14.4346 25.9212 14.0846L26.1599 14.1338C26.1065 14.3686 26.0092 14.5436 25.8678 14.6557C25.7281 14.7677 25.527 14.8046 25.2648 14.7662C24.8957 14.7125 24.6617 14.5651 24.5628 14.3272C24.511 14.2074 24.4827 14.0754 24.478 13.9296C24.4733 13.7838 24.4859 13.6103 24.5188 13.4077C24.5518 13.205 24.5926 13.0346 24.6429 12.898C24.6932 12.7614 24.7623 12.6432 24.8486 12.5434C25.0182 12.3469 25.2868 12.2763 25.6542 12.33C25.8977 12.3653 26.0704 12.4452 26.1725 12.5695C26.2746 12.6923 26.3217 12.855 26.317 13.0561L26.072 13.0623C26.072 12.7721 25.9181 12.6048 25.6166 12.5603L25.6213 12.5587Z" fill="#333333"/>
<path d="M26.9544 12.5651L28.2547 12.757L28.2186 12.9826L27.2135 12.8337L27.0832 13.6504L28.0192 13.7885L27.9831 14.0142L27.0471 13.876L26.9105 14.7311L27.9831 14.8892L27.9469 15.1149L26.5791 14.9138L26.956 12.5681L26.9544 12.5651Z" fill="#333333"/>
<path d="M14.3831 16.1693L13.9575 16.1063L13.8177 16.9767L13.5225 16.9338L13.8994 14.5881L14.6202 14.6941C15.1259 14.7693 15.3379 15.0517 15.2593 15.543C15.1808 16.0342 14.8887 16.243 14.3831 16.1693ZM13.9936 15.8807L14.4019 15.9406C14.7223 15.9881 14.9091 15.8408 14.9641 15.4984C15.0191 15.1561 14.8872 14.9627 14.5668 14.9151L14.1585 14.8552L13.9936 15.8807Z" fill="#333333"/>
<path d="M17.1739 17.1534C17.086 17.2593 16.9729 17.333 16.8332 17.3744C16.6934 17.4159 16.5301 17.4236 16.34 17.3959C16.1516 17.3683 15.9977 17.3146 15.8783 17.2363C15.759 17.158 15.6758 17.0551 15.6255 16.9277C15.5768 16.8003 15.5485 16.6668 15.5423 16.5255C15.536 16.3843 15.547 16.2323 15.5721 16.0681C15.5972 15.9038 15.6286 15.7657 15.6632 15.6536C15.6977 15.5415 15.7449 15.4341 15.8061 15.3343C15.8673 15.233 15.938 15.1532 16.0181 15.0933C16.1971 14.9613 16.4358 14.9183 16.7326 14.9613C17.108 15.0165 17.3467 15.1746 17.4488 15.4356C17.499 15.5615 17.5273 15.695 17.5336 15.8363C17.5398 15.9775 17.5273 16.1402 17.499 16.3229C17.4692 16.5056 17.4299 16.6637 17.3797 16.7972C17.3294 16.9308 17.2603 17.049 17.1724 17.1549L17.1739 17.1534ZM16.3997 17.1672C16.5159 17.1841 16.6227 17.1749 16.7216 17.138C16.8206 17.1012 16.9007 17.0398 16.9619 16.9523C17.0232 16.8663 17.0734 16.7681 17.1127 16.6591C17.1504 16.5501 17.1818 16.4227 17.2053 16.2768C17.2289 16.131 17.2399 16.0005 17.2367 15.8854C17.2352 15.7703 17.2179 15.6613 17.1865 15.56C17.119 15.3527 16.9556 15.2299 16.6965 15.1915C16.4892 15.1608 16.3228 15.2007 16.1971 15.3113C16.0417 15.4479 15.9349 15.7042 15.8752 16.0803C15.8155 16.4549 15.8375 16.7312 15.9412 16.9062C16.026 17.0475 16.1783 17.135 16.3997 17.1687V17.1672Z" fill="#333333"/>
<path d="M17.915 17.5817L18.2919 15.2361L18.5872 15.2791L18.2464 17.4006L19.1588 17.5357L19.1227 17.7613L17.915 17.5832V17.5817Z" fill="#333333"/>
<path d="M19.9082 15.474L20.2034 15.517L19.8265 17.8626L19.5312 17.8196L19.9082 15.474Z" fill="#333333"/>
<path d="M21.717 15.9314C21.5097 15.9007 21.3448 15.933 21.2239 16.0297C21.1171 16.1126 21.0354 16.263 20.9804 16.481C20.9569 16.5716 20.9333 16.6852 20.9129 16.8202C20.8909 16.9553 20.8768 17.0705 20.8705 17.1672C20.8642 17.2639 20.8674 17.3575 20.8815 17.4466C20.8956 17.5371 20.9223 17.6108 20.96 17.6692C21.0448 17.795 21.1909 17.8749 21.3998 17.9056C21.7437 17.9562 21.9494 17.8073 22.0169 17.4573L22.2556 17.5064C22.2022 17.7413 22.1049 17.9163 21.9635 18.0284C21.8238 18.1404 21.6228 18.1773 21.3605 18.1389C20.9914 18.0852 20.7574 17.9378 20.6585 17.6999C20.6067 17.5801 20.5784 17.4481 20.5737 17.3023C20.569 17.1564 20.5816 16.983 20.6145 16.7803C20.6475 16.5777 20.6883 16.4073 20.7386 16.2707C20.7889 16.1341 20.858 16.0159 20.9443 15.9161C21.1124 15.7196 21.3825 15.649 21.75 15.7027C21.9934 15.738 22.1661 15.8178 22.2682 15.9422C22.3703 16.065 22.4174 16.2277 22.4127 16.4288L22.1677 16.4349C22.1677 16.1448 22.0138 15.9775 21.7123 15.933L21.717 15.9314Z" fill="#333333"/>
<path d="M23.3895 18.3891L23.0943 18.3461L23.2246 17.5294L22.7158 15.8884L23.0173 15.9329L23.4162 17.2746L24.2171 16.1095L24.5187 16.154L23.5183 17.5724L23.388 18.3891H23.3895Z" fill="#333333"/>
</svg>
