<svg width="100" height="51" viewBox="0 0 100 51" fill="none" xmlns="http://www.w3.org/2000/svg">
<path d="M96.7933 42.7416L74.0974 43.4861H23.8941L2.23368 42.3821V37.6358L5.01048 33.6121L12.5625 30.9357L22.1455 33.6121L25.9469 37.2109L68.9348 37.6358L77.3557 31.4804L83.9375 29.0981L93.5857 31.6002L95.9389 35.929L97.3291 40.2868L96.7933 42.7416Z" fill="#263238"/>
<path opacity="0.6" d="M96.7933 42.7416L74.0974 43.4861H23.8941L2.23368 42.3821V37.6358L5.01048 33.6121L12.5625 30.9357L22.1455 33.6121L25.9469 37.2109L68.9348 37.6358L77.3557 31.4804L83.9375 29.0981L93.5857 31.6002L95.9389 35.929L97.3291 40.2868L96.7933 42.7416Z" fill="black"/>
<path d="M95.4719 39.1432C94.6537 37.1568 91.4461 33.8521 89.473 33.0242C87.5543 32.218 82.9999 32.0654 81.1463 33.0242C79.1913 34.0373 76.7186 38.1082 76.0488 40.2181C75.8027 40.9953 75.8751 42.8619 75.9547 44.0929L22.3737 44.6594C22.4859 43.1669 22.562 41.1078 22.2108 40.2472C21.3998 38.2644 18.185 34.9597 16.2119 34.1318C14.2931 33.3219 9.73871 33.173 7.8851 34.1318C5.93011 35.1413 3.4538 39.2158 2.78404 41.3257C2.62257 42.1296 2.569 42.9516 2.62475 43.7697C2.2136 43.4664 1.84786 43.1057 1.53864 42.6984L1.03542 42.0157C0.362793 41.1074 -0.000274658 40.0059 0 38.8745V37.1205C0.000320435 36.1537 0.264511 35.2055 0.763901 34.3787L2.05274 32.2543V17.8155C2.05219 17.1053 2.19505 16.4024 2.4727 15.7492L7.62082 3.60912C8.01276 2.68456 8.65988 1.89156 9.48598 1.32348C10.3121 0.755393 11.2828 0.435874 12.2838 0.402518C17.8121 0.21368 28.6586 -0.113153 33.0646 0.0393691C39.4726 0.257258 56.6547 2.01489 61.7775 2.54872C62.7233 2.64784 63.612 3.05028 64.3117 3.69627L79.5171 17.7138L94.6537 24.3195C95.2855 24.5982 95.8436 25.0212 96.2836 25.5545C96.7236 26.0879 97.0333 26.717 97.188 27.3917L98.6144 33.5652L99.0887 34.1862C99.7905 35.1089 100.106 36.2696 99.9684 37.4219L99.6752 39.8259C99.5361 40.9654 98.9626 42.0066 98.075 42.7311L97.8867 42.8836C97.2352 43.4172 96.445 43.7524 95.6095 43.8496C95.7399 42.3534 95.8485 40.0583 95.4719 39.1432Z" fill="#FF4B45"/>
<path d="M86.0079 50.9998C81.4591 50.9998 77.7716 47.301 77.7716 42.7382C77.7716 38.1754 81.4591 34.4766 86.0079 34.4766C90.5566 34.4766 94.2441 38.1754 94.2441 42.7382C94.2441 47.301 90.5566 50.9998 86.0079 50.9998Z" fill="#263238"/>
<path opacity="0.5" d="M86.0079 48.4942C82.8387 48.4942 80.2696 45.9172 80.2696 42.7383C80.2696 39.5594 82.8387 36.9824 86.0079 36.9824C89.177 36.9824 91.7461 39.5594 91.7461 42.7383C91.7461 45.9172 89.177 48.4942 86.0079 48.4942Z" fill="white"/>
<g opacity="0.5">
<path d="M88.1367 40.8466L88.5349 39.6482C88.5768 39.5201 88.6514 39.4052 88.7512 39.3149C88.851 39.2246 88.9726 39.162 89.104 39.1334C89.2353 39.1047 89.3718 39.111 89.5 39.1517C89.6282 39.1923 89.7435 39.2658 89.8346 39.3649C90.2823 39.8731 90.6244 40.4657 90.8411 41.1081C90.8817 41.2371 90.8879 41.3746 90.8593 41.5068C90.8306 41.6391 90.768 41.7615 90.6777 41.8621C90.5873 41.9626 90.4724 42.0377 90.3442 42.08C90.216 42.1222 90.0791 42.1302 89.9469 42.1031L88.716 41.8525C88.6085 41.8309 88.5069 41.7866 88.4178 41.7226C88.3288 41.6585 88.2544 41.5761 88.1996 41.4809C88.1448 41.3857 88.1108 41.2799 88.1 41.1706C88.0891 41.0612 88.1017 40.9507 88.1367 40.8466Z" fill="black"/>
<path d="M85.4281 39.9567L84.5955 39.0089C84.5055 38.9091 84.4433 38.7873 84.4149 38.6558C84.3865 38.5243 84.3929 38.3877 84.4336 38.2595C84.4742 38.1312 84.5477 38.0159 84.6466 37.9251C84.7455 37.8342 84.8664 37.7709 84.9973 37.7415C85.6634 37.6011 86.3514 37.6011 87.0175 37.7415C87.1478 37.7719 87.2679 37.8359 87.3659 37.9272C87.464 38.0184 87.5365 38.1338 87.5764 38.2619C87.6163 38.39 87.6221 38.5263 87.5933 38.6573C87.5645 38.7884 87.502 38.9096 87.4121 39.0089L86.5758 39.9567C86.5038 40.038 86.4154 40.1031 86.3165 40.1477C86.2176 40.1923 86.1104 40.2153 86.002 40.2153C85.8935 40.2153 85.7863 40.1923 85.6874 40.1477C85.5885 40.1031 85.5002 40.038 85.4281 39.9567Z" fill="black"/>
<path d="M83.3179 41.8413L82.0833 42.0918C81.9512 42.1194 81.8142 42.1116 81.686 42.0694C81.5578 42.0272 81.4429 41.952 81.3527 41.8512C81.2626 41.7505 81.2004 41.6279 81.1723 41.4955C81.1442 41.3631 81.1513 41.2256 81.1927 41.0968C81.4079 40.4546 81.7488 39.8619 82.1955 39.3537C82.2867 39.2546 82.402 39.1811 82.5302 39.1404C82.6584 39.0998 82.7949 39.0935 82.9262 39.1221C83.0576 39.1508 83.1792 39.2133 83.279 39.3036C83.3788 39.3939 83.4534 39.5088 83.4953 39.637L83.8971 40.8354C83.9316 40.9395 83.9436 41.0498 83.9325 41.159C83.9214 41.2682 83.8874 41.3737 83.8326 41.4688C83.7779 41.5638 83.7038 41.6461 83.615 41.7103C83.5263 41.7745 83.425 41.8192 83.3179 41.8413Z" fill="black"/>
<path d="M83.8971 44.634L83.4953 45.8324C83.4534 45.9605 83.3788 46.0754 83.279 46.1657C83.1792 46.256 83.0576 46.3186 82.9262 46.3472C82.7949 46.3758 82.6584 46.3695 82.5302 46.3289C82.402 46.2883 82.2867 46.2147 82.1955 46.1156C81.7488 45.6074 81.4079 45.0148 81.1927 44.3725C81.1513 44.2437 81.1442 44.1062 81.1723 43.9739C81.2004 43.8415 81.2626 43.7188 81.3527 43.6181C81.4429 43.5174 81.5578 43.4421 81.686 43.3999C81.8142 43.3577 81.9512 43.35 82.0833 43.3775L83.3179 43.6281C83.425 43.6502 83.5263 43.6948 83.615 43.759C83.7038 43.8232 83.7779 43.9055 83.8326 44.0005C83.8874 44.0956 83.9214 44.2012 83.9325 44.3103C83.9436 44.4195 83.9316 44.5298 83.8971 44.634Z" fill="black"/>
<path d="M86.5875 45.5236L87.413 46.4714C87.5029 46.5715 87.5651 46.6935 87.5932 46.8252C87.6214 46.9569 87.6147 47.0938 87.5736 47.2221C87.5326 47.3504 87.4587 47.4656 87.3594 47.5563C87.26 47.6469 87.1387 47.7099 87.0075 47.7388C86.3414 47.8792 85.6534 47.8792 84.9873 47.7388C84.8564 47.7094 84.7355 47.6461 84.6366 47.5552C84.5377 47.4644 84.4642 47.3491 84.4236 47.2208C84.3829 47.0926 84.3765 46.956 84.4049 46.8245C84.4333 46.693 84.4956 46.5712 84.5855 46.4714L85.4181 45.5236C85.4902 45.4386 85.5798 45.3703 85.6808 45.3235C85.7817 45.2767 85.8916 45.2524 86.0028 45.2524C86.1141 45.2524 86.2239 45.2767 86.3249 45.3235C86.4259 45.3703 86.5155 45.4386 86.5875 45.5236Z" fill="black"/>
<path d="M88.7014 43.628L89.9324 43.3774C90.0657 43.3493 90.2042 43.357 90.3336 43.3998C90.4631 43.4425 90.579 43.5187 90.6697 43.6208C90.7604 43.7228 90.8227 43.847 90.8502 43.9809C90.8778 44.1148 90.8696 44.2536 90.8266 44.3833C90.6099 45.0257 90.2678 45.6183 89.8201 46.1264C89.729 46.2256 89.6137 46.2991 89.4855 46.3397C89.3573 46.3803 89.2208 46.3866 89.0894 46.358C88.9581 46.3294 88.8365 46.2668 88.7367 46.1765C88.6369 46.0862 88.5623 45.9713 88.5204 45.8432L88.1222 44.6448C88.0853 44.54 88.0713 44.4285 88.0813 44.3178C88.0912 44.2071 88.1248 44.0998 88.1798 44.0034C88.2347 43.9069 88.3098 43.8234 88.3998 43.7586C88.4898 43.6938 88.5927 43.6493 88.7014 43.628Z" fill="black"/>
</g>
<g opacity="0.5">
<path d="M86.7542 42.3826C86.5403 42.3826 86.3668 42.2086 86.3668 41.994C86.3668 41.7794 86.5403 41.6055 86.7542 41.6055C86.9682 41.6055 87.1416 41.7794 87.1416 41.994C87.1416 42.2086 86.9682 42.3826 86.7542 42.3826Z" fill="white"/>
<path d="M84.8786 41.994C84.8786 42.0709 84.9013 42.146 84.9439 42.2099C84.9864 42.2738 85.0469 42.3236 85.1177 42.353C85.1885 42.3824 85.2664 42.3901 85.3415 42.3751C85.4167 42.3601 85.4857 42.3231 85.5399 42.2688C85.594 42.2145 85.6309 42.1452 85.6459 42.0698C85.6608 41.9945 85.6532 41.9163 85.6238 41.8453C85.5945 41.7743 85.5449 41.7137 85.4812 41.671C85.4175 41.6283 85.3426 41.6055 85.2659 41.6055C85.1632 41.6055 85.0647 41.6464 84.992 41.7193C84.9194 41.7921 84.8786 41.891 84.8786 41.994Z" fill="white"/>
<path d="M86.3668 43.4867C86.3668 43.5636 86.3896 43.6387 86.4321 43.7026C86.4747 43.7665 86.5352 43.8163 86.606 43.8457C86.6768 43.8751 86.7547 43.8828 86.8298 43.8678C86.9049 43.8528 86.974 43.8158 87.0281 43.7615C87.0823 43.7071 87.1192 43.6379 87.1342 43.5625C87.1491 43.4871 87.1414 43.409 87.1121 43.338C87.0828 43.267 87.0331 43.2063 86.9694 43.1636C86.9057 43.1209 86.8308 43.0981 86.7542 43.0981C86.6515 43.0981 86.553 43.1391 86.4803 43.212C86.4077 43.2848 86.3668 43.3837 86.3668 43.4867Z" fill="white"/>
<path d="M84.8786 43.4867C84.8786 43.5636 84.9013 43.6387 84.9439 43.7026C84.9864 43.7665 85.0469 43.8163 85.1177 43.8457C85.1885 43.8751 85.2664 43.8828 85.3415 43.8678C85.4167 43.8528 85.4857 43.8158 85.5399 43.7615C85.594 43.7071 85.6309 43.6379 85.6459 43.5625C85.6608 43.4871 85.6532 43.409 85.6238 43.338C85.5945 43.267 85.5449 43.2063 85.4812 43.1636C85.4175 43.1209 85.3426 43.0981 85.2659 43.0981C85.1632 43.0981 85.0647 43.1391 84.992 43.212C84.9194 43.2848 84.8786 43.3837 84.8786 43.4867Z" fill="white"/>
</g>
<path d="M12.2042 50.9998C7.65539 50.9998 3.96789 47.301 3.96789 42.7382C3.96789 38.1754 7.65539 34.4766 12.2042 34.4766C16.7529 34.4766 20.4404 38.1754 20.4404 42.7382C20.4404 47.301 16.7529 50.9998 12.2042 50.9998Z" fill="#263238"/>
<path opacity="0.5" d="M12.2042 48.4942C9.03502 48.4942 6.46592 45.9172 6.46592 42.7383C6.46592 39.5594 9.03502 36.9824 12.2042 36.9824C15.3733 36.9824 17.9424 39.5594 17.9424 42.7383C17.9424 45.9172 15.3733 48.4942 12.2042 48.4942Z" fill="white"/>
<g opacity="0.5">
<path d="M14.3184 40.8466L14.7166 39.6482C14.7585 39.5201 14.833 39.4052 14.9328 39.3149C15.0326 39.2246 15.1542 39.162 15.2856 39.1334C15.4169 39.1047 15.5535 39.111 15.6816 39.1517C15.8098 39.1923 15.9252 39.2658 16.0163 39.3649C16.4639 39.8731 16.8061 40.4657 17.0227 41.1081C17.0633 41.2371 17.0696 41.3746 17.0409 41.5068C17.0122 41.6391 16.9496 41.7615 16.8593 41.8621C16.769 41.9626 16.654 42.0377 16.5258 42.08C16.3977 42.1222 16.2607 42.1302 16.1285 42.1031L14.8976 41.8525C14.7902 41.8309 14.6885 41.7866 14.5995 41.7226C14.5104 41.6585 14.436 41.5761 14.3812 41.4809C14.3264 41.3857 14.2924 41.2799 14.2816 41.1706C14.2708 41.0612 14.2833 40.9507 14.3184 40.8466Z" fill="black"/>
<path d="M11.6242 39.9567L10.7915 39.0089C10.7016 38.9091 10.6393 38.7873 10.6109 38.6558C10.5825 38.5243 10.589 38.3877 10.6296 38.2595C10.6703 38.1312 10.7437 38.0159 10.8426 37.9251C10.9416 37.8342 11.0625 37.7709 11.1934 37.7415C11.8595 37.6011 12.5474 37.6011 13.2135 37.7415C13.3447 37.7704 13.4661 37.8333 13.5654 37.924C13.6648 38.0147 13.7387 38.1299 13.7797 38.2582C13.8207 38.3865 13.8275 38.5234 13.7993 38.6551C13.7711 38.7868 13.7089 38.9088 13.619 39.0089L12.7827 39.9567C12.7107 40.0399 12.6217 40.1065 12.5217 40.1522C12.4218 40.1979 12.3133 40.2215 12.2035 40.2215C12.0936 40.2215 11.9851 40.1979 11.8852 40.1522C11.7852 40.1065 11.6962 40.0399 11.6242 39.9567Z" fill="black"/>
<path d="M9.51373 41.8417L8.27921 42.0922C8.15012 42.1154 8.01728 42.1051 7.89326 42.0623C7.76924 42.0196 7.65813 41.9459 7.57043 41.8481C7.48273 41.7503 7.42133 41.6317 7.39205 41.5035C7.36277 41.3753 7.36656 41.2417 7.40308 41.1154C7.61822 40.4731 7.95918 39.8805 8.40591 39.3723C8.49702 39.2731 8.61238 39.1996 8.74055 39.159C8.86872 39.1184 9.00525 39.1121 9.13661 39.1407C9.26796 39.1693 9.38956 39.2319 9.48937 39.3222C9.58918 39.4125 9.66372 39.5274 9.70561 39.6555L10.1075 40.8539C10.1388 40.958 10.1481 41.0675 10.1346 41.1753C10.1212 41.2832 10.0853 41.387 10.0294 41.4801C9.9734 41.5732 9.8986 41.6535 9.80978 41.7157C9.72097 41.778 9.62011 41.8209 9.51373 41.8417Z" fill="black"/>
<path d="M10.0938 44.6338L9.69194 45.8322C9.65005 45.9603 9.57551 46.0752 9.4757 46.1655C9.37589 46.2559 9.25427 46.3184 9.12292 46.3471C8.99157 46.3757 8.85504 46.3694 8.72687 46.3287C8.5987 46.2881 8.48335 46.2146 8.39224 46.1155C7.95192 45.6092 7.616 45.0205 7.40388 44.3832C7.36242 44.2544 7.35538 44.117 7.38346 43.9846C7.41154 43.8522 7.47376 43.7295 7.56391 43.6288C7.65405 43.5281 7.76897 43.4529 7.89717 43.4107C8.02537 43.3684 8.16237 43.3607 8.29448 43.3882L9.52902 43.6388C9.63363 43.6628 9.73212 43.7084 9.81825 43.7726C9.90439 43.8368 9.97628 43.9183 10.0294 44.0118C10.0825 44.1054 10.1156 44.209 10.1267 44.316C10.1378 44.4231 10.1266 44.5313 10.0938 44.6338Z" fill="black"/>
<path d="M12.7827 45.5236L13.619 46.4714C13.7089 46.5715 13.7711 46.6935 13.7993 46.8252C13.8275 46.957 13.8207 47.0938 13.7797 47.2221C13.7387 47.3504 13.6648 47.4656 13.5654 47.5563C13.4661 47.647 13.3447 47.7099 13.2135 47.7388C12.5474 47.8792 11.8595 47.8792 11.1934 47.7388C11.0625 47.7094 10.9416 47.6461 10.8426 47.5552C10.7437 47.4644 10.6703 47.3491 10.6296 47.2209C10.589 47.0926 10.5825 46.956 10.6109 46.8245C10.6393 46.693 10.7016 46.5712 10.7915 46.4714L11.6242 45.5236C11.6962 45.4405 11.7852 45.3738 11.8852 45.3281C11.9851 45.2824 12.0936 45.2588 12.2035 45.2588C12.3133 45.2588 12.4218 45.2824 12.5217 45.3281C12.6217 45.3738 12.7107 45.4405 12.7827 45.5236Z" fill="black"/>
<path d="M14.8976 43.6282L16.1285 43.3776C16.2607 43.3505 16.3977 43.3584 16.5258 43.4007C16.654 43.443 16.769 43.5181 16.8593 43.6186C16.9496 43.7191 17.0122 43.8416 17.0409 43.9738C17.0696 44.1061 17.0633 44.2435 17.0227 44.3726C16.8061 45.015 16.4639 45.6076 16.0163 46.1157C15.9252 46.2149 15.8098 46.2884 15.6816 46.329C15.5535 46.3696 15.4169 46.3759 15.2856 46.3473C15.1542 46.3187 15.0326 46.2561 14.9328 46.1658C14.833 46.0755 14.7585 45.9606 14.7166 45.8325L14.3184 44.6341C14.2833 44.5299 14.2708 44.4195 14.2816 44.3101C14.2924 44.2007 14.3264 44.0949 14.3812 43.9997C14.436 43.9046 14.5104 43.8222 14.5995 43.7581C14.6885 43.694 14.7902 43.6497 14.8976 43.6282Z" fill="black"/>
</g>
<g opacity="0.5">
<path d="M12.5631 41.994C12.5631 42.0709 12.5859 42.146 12.6284 42.2099C12.671 42.2738 12.7315 42.3236 12.8023 42.353C12.8731 42.3824 12.9509 42.3901 13.0261 42.3751C13.1012 42.3601 13.1703 42.3231 13.2244 42.2688C13.2786 42.2145 13.3155 42.1452 13.3304 42.0698C13.3454 41.9945 13.3377 41.9163 13.3084 41.8453C13.2791 41.7743 13.2294 41.7137 13.1657 41.671C13.102 41.6283 13.0271 41.6055 12.9505 41.6055C12.8478 41.6055 12.7492 41.6464 12.6766 41.7193C12.6039 41.7921 12.5631 41.891 12.5631 41.994Z" fill="white"/>
<path d="M11.4622 42.3826C11.2483 42.3826 11.0749 42.2086 11.0749 41.994C11.0749 41.7794 11.2483 41.6055 11.4622 41.6055C11.6762 41.6055 11.8496 41.7794 11.8496 41.994C11.8496 42.2086 11.6762 42.3826 11.4622 42.3826Z" fill="white"/>
<path d="M12.5631 43.4867C12.5631 43.5636 12.5859 43.6387 12.6284 43.7026C12.671 43.7665 12.7315 43.8163 12.8023 43.8457C12.8731 43.8751 12.9509 43.8828 13.0261 43.8678C13.1012 43.8528 13.1703 43.8158 13.2244 43.7615C13.2786 43.7071 13.3155 43.6379 13.3304 43.5625C13.3454 43.4871 13.3377 43.409 13.3084 43.338C13.2791 43.267 13.2294 43.2063 13.1657 43.1636C13.102 43.1209 13.0271 43.0981 12.9505 43.0981C12.8478 43.0981 12.7492 43.1391 12.6766 43.212C12.6039 43.2848 12.5631 43.3837 12.5631 43.4867Z" fill="white"/>
<path d="M11.0749 43.4867C11.0749 43.5636 11.0976 43.6387 11.1401 43.7026C11.1827 43.7665 11.2432 43.8163 11.314 43.8457C11.3848 43.8751 11.4627 43.8828 11.5378 43.8678C11.6129 43.8528 11.682 43.8158 11.7362 43.7615C11.7903 43.7071 11.8272 43.6379 11.8422 43.5625C11.8571 43.4871 11.8494 43.409 11.8201 43.338C11.7908 43.267 11.7412 43.2063 11.6775 43.1636C11.6138 43.1209 11.5388 43.0981 11.4622 43.0981C11.3595 43.0981 11.261 43.1391 11.1883 43.212C11.1157 43.2848 11.0749 43.3837 11.0749 43.4867Z" fill="white"/>
</g>
<path d="M64.7829 6.04605C64.5025 5.78794 64.3347 5.42951 64.3157 5.04826C64.2967 4.66702 64.4281 4.29362 64.6815 4.00879L79.5538 17.7104L79.9883 17.8992C79.9593 17.9355 79.9376 17.9718 79.905 18.0082C79.6452 18.2917 79.2838 18.4602 78.9003 18.4765C78.5167 18.4928 78.1423 18.3557 77.8595 18.0953L64.7829 6.04605Z" fill="#263238"/>
<path opacity="0.5" d="M96.6268 34.4765C96.6499 34.4766 96.6728 34.4718 96.694 34.4625C96.7152 34.4532 96.7343 34.4396 96.75 34.4225C96.7656 34.4054 96.7776 34.3853 96.785 34.3633C96.7925 34.3413 96.7953 34.318 96.7933 34.2949L96.1018 27.2353C96.0993 27.2105 96.0912 27.1866 96.0783 27.1654C96.0653 27.1441 96.0478 27.126 96.0269 27.1124C96.0061 27.0989 95.9825 27.0901 95.9579 27.0869C95.9333 27.0836 95.9082 27.086 95.8846 27.0937L95.2547 27.3043C94.8742 27.4247 94.552 27.683 94.3512 28.0288C94.1504 28.3746 94.0852 28.7831 94.1686 29.1745L95.0374 33.2055C95.1146 33.5692 95.3152 33.8948 95.6051 34.1266C95.895 34.3584 96.2561 34.4821 96.6268 34.4765Z" fill="white"/>
<g opacity="0.2">
<path d="M92.7059 29.8137C92.7074 29.7422 92.6948 29.6711 92.6688 29.6044C92.6428 29.5378 92.604 29.4769 92.5546 29.4253C92.5052 29.3737 92.4461 29.3324 92.3808 29.3037C92.3154 29.275 92.2451 29.2595 92.1738 29.2581L6.12917 27.584C5.98568 27.583 5.84747 27.6382 5.74399 27.7379C5.64052 27.8377 5.57998 27.974 5.57526 28.1178C5.57332 28.2626 5.62857 28.4024 5.72895 28.5065C5.82934 28.6106 5.96671 28.6706 6.11106 28.6734L92.152 30.3476C92.2235 30.3495 92.2946 30.3372 92.3612 30.3113C92.4279 30.2854 92.4888 30.2465 92.5403 30.1969C92.5918 30.1472 92.633 30.0877 92.6614 30.022C92.6899 29.9562 92.705 29.8854 92.7059 29.8137Z" fill="white"/>
</g>
<path d="M38.3901 19.6129L22.3773 19.3333C21.9684 19.3263 21.5658 19.2319 21.1962 19.0564C20.8266 18.881 20.4986 18.6284 20.234 18.3156C19.9695 18.0028 19.7745 17.637 19.6622 17.2427C19.5498 16.8483 19.5226 16.4344 19.5824 16.0286L21.1609 5.22131C21.2069 4.91501 21.3592 4.63484 21.591 4.43021C21.8229 4.22557 22.1193 4.10962 22.428 4.10281C25.2048 4.03744 27.9888 3.99023 30.2009 3.99023C31.287 3.99023 32.2029 3.99024 32.9378 4.02655C34.386 4.07739 36.6704 4.24081 39.3458 4.46596C39.6573 4.49139 39.9493 4.62823 40.1686 4.85154C40.3879 5.07484 40.5199 5.36974 40.5405 5.68251L41.29 16.5298C41.3175 16.927 41.2627 17.3257 41.129 17.7007C40.9953 18.0756 40.7856 18.4187 40.5132 18.7084C40.2407 18.998 39.9114 19.228 39.546 19.3836C39.1806 19.5393 38.787 19.6174 38.3901 19.6129Z" fill="#263238"/>
<path d="M6.25984 17.0857L11.3283 5.1744C11.423 4.94921 11.5801 4.75598 11.7809 4.6176C11.9818 4.47922 12.218 4.40149 12.4615 4.39363C13.3485 4.36458 14.478 4.32463 15.7524 4.28832C15.9438 4.28196 16.1343 4.31789 16.3104 4.39358C16.4865 4.46926 16.6438 4.58285 16.7712 4.72629C16.8987 4.86973 16.9932 5.03952 17.0479 5.22364C17.1027 5.40776 17.1165 5.60171 17.0883 5.79176L15.4772 16.6862C15.3701 17.377 15.0183 18.0058 14.4863 18.4574C13.9543 18.909 13.2778 19.153 12.5809 19.1447L7.64281 19.0612C7.31589 19.0634 6.99725 18.958 6.7357 18.7613C6.47416 18.5645 6.28412 18.2872 6.19468 17.9718C6.1236 17.6768 6.14639 17.367 6.25984 17.0857Z" fill="#263238"/>
<path d="M46.0326 5.06556C51.8975 5.61755 57.8494 6.2349 60.3836 6.51816C61.204 6.60339 61.9748 6.95243 62.5812 7.51318L71.4619 15.6949C71.8418 16.0495 72.1057 16.5113 72.2187 17.0194C72.3317 17.5274 72.2885 18.0579 72.0948 18.5409C71.9011 19.0238 71.566 19.4366 71.1338 19.7246C70.7015 20.0127 70.1923 20.1625 69.6734 20.1544L48.1505 19.7912C47.4312 19.7793 46.7426 19.4968 46.221 18.9998C45.6994 18.5028 45.3828 17.8275 45.3339 17.1076L44.6098 6.47095C44.5953 6.2808 44.6224 6.08975 44.6891 5.91116C44.7557 5.73257 44.8605 5.57073 44.9959 5.43693C45.1314 5.30312 45.2943 5.20057 45.4734 5.13643C45.6524 5.07229 45.8433 5.04811 46.0326 5.06556Z" fill="#263238"/>
<path d="M21.4585 22.4239L25.1983 22.4966C25.3404 22.4994 25.4758 22.5581 25.5753 22.6599C25.6748 22.7618 25.7305 22.8987 25.7305 23.0413C25.7305 23.1138 25.7161 23.1855 25.6881 23.2523C25.6602 23.3191 25.6192 23.3796 25.5676 23.4304C25.516 23.4811 25.4549 23.521 25.3877 23.5477C25.3206 23.5744 25.2488 23.5875 25.1766 23.586L21.4368 23.5134C21.2946 23.5105 21.1593 23.4519 21.0598 23.35C20.9603 23.2482 20.9045 23.1113 20.9046 22.9687C20.9045 22.8962 20.9189 22.8245 20.9469 22.7577C20.9749 22.6909 21.0159 22.6303 21.0674 22.5796C21.119 22.5289 21.1802 22.489 21.2473 22.4622C21.3145 22.4355 21.3863 22.4225 21.4585 22.4239Z" fill="#263238"/>
<path d="M47.6946 23.4877C47.6946 23.4152 47.709 23.3435 47.737 23.2767C47.7649 23.2099 47.8059 23.1493 47.8575 23.0986C47.9091 23.0479 47.9702 23.008 48.0374 22.9813C48.1045 22.9546 48.1763 22.9415 48.2485 22.943L51.9883 23.0156C52.1305 23.0185 52.2658 23.0771 52.3653 23.179C52.4648 23.2808 52.5205 23.4177 52.5205 23.5603C52.5205 23.6328 52.5061 23.7045 52.4782 23.7713C52.4502 23.8381 52.4092 23.8987 52.3576 23.9494C52.306 24.0001 52.2449 24.04 52.1778 24.0668C52.1106 24.0935 52.0388 24.1065 51.9666 24.1051L48.2268 24.0324C48.0844 24.0305 47.9485 23.9722 47.8487 23.8701C47.749 23.7681 47.6936 23.6306 47.6946 23.4877Z" fill="#263238"/>
<g opacity="0.2">
<path d="M95.4727 39.1436C95.0738 38.2912 94.5544 37.501 93.9304 36.7976L98.4594 36.8848C98.7652 36.8893 99.0651 36.8003 99.3193 36.6297C99.5734 36.4591 99.7698 36.215 99.8822 35.9297C99.9938 36.419 100.021 36.9238 99.9619 37.4222L99.6686 39.8263C99.5296 40.9657 98.9561 42.0069 98.0684 42.7315L97.8802 42.884C97.2287 43.4176 96.4385 43.7528 95.603 43.85C95.7406 42.3538 95.8492 40.0587 95.4727 39.1436Z" fill="black"/>
<path d="M22.3774 44.6595C22.4897 43.167 22.5657 41.1079 22.2145 40.2473C21.6316 38.8164 19.7925 36.6993 18.0765 35.3193L77.9424 36.485C77.1647 37.6484 76.5301 38.9019 76.0526 40.2182C75.8064 40.9953 75.8788 42.8619 75.9584 44.093L22.3774 44.6595Z" fill="black"/>
<path d="M2.79582 41.3261C2.63435 42.13 2.58078 42.9519 2.63652 43.7701C2.22538 43.4668 1.85963 43.106 1.55042 42.6988L1.0472 42.0161C0.374569 41.1078 0.0114965 40.0063 0.0117755 38.8748V37.1208C0.0120955 36.1541 0.276281 35.2059 0.775673 34.379L1.24994 33.6128C1.27398 33.986 1.43552 34.337 1.70316 34.5974C1.9708 34.8578 2.32542 35.0091 2.69807 35.0218L6.64062 35.0981C4.96097 36.8985 3.65413 39.0154 2.79582 41.3261Z" fill="black"/>
</g>
<g opacity="0.2">
<path d="M72.6748 39.5753C72.6748 39.3827 72.5985 39.1979 72.4627 39.0617C72.3269 38.9255 72.1428 38.849 71.9507 38.849L25.8675 37.9375C25.6754 37.9375 25.4912 38.014 25.3555 38.1502C25.2197 38.2864 25.1434 38.4712 25.1434 38.6638C25.1434 38.8564 25.2197 39.0412 25.3555 39.1774C25.4912 39.3136 25.6754 39.3901 25.8675 39.3901L71.9725 40.2871C72.1582 40.2815 72.3347 40.2045 72.4655 40.072C72.5962 39.9395 72.6712 39.7617 72.6748 39.5753Z" fill="white"/>
</g>
<path opacity="0.6" d="M68.931 13.3486L71.4653 15.68C71.8509 16.0338 72.1196 16.4971 72.2357 17.0081C72.3517 17.5192 72.3096 18.0536 72.1147 18.5399C71.9199 19.0263 71.5818 19.4414 71.1455 19.7298C70.7092 20.0182 70.1956 20.1662 69.6732 20.154H68.9238L68.931 13.3486Z" fill="black"/>
<path d="M65.4708 13.9552H66.7488C67.056 13.9552 67.3507 14.0776 67.5679 14.2955C67.7852 14.5134 67.9073 14.809 67.9073 15.1172V16.9039L70.036 17.3179C70.1648 17.3425 70.2809 17.4115 70.3642 17.513C70.4475 17.6145 70.4928 17.7421 70.4922 17.8735V18.3783C70.4927 18.4704 70.4707 18.5611 70.4281 18.6427C70.3855 18.7242 70.3236 18.7941 70.2478 18.846C70.1721 18.898 70.0848 18.9306 69.9936 18.9408C69.9023 18.9511 69.81 18.9387 69.7247 18.9049L67.6937 18.1168C67.5647 18.3102 67.3809 18.4603 67.1659 18.5477C66.951 18.6351 66.7149 18.6558 66.4881 18.6071L65.2825 18.3384C65.1002 18.2966 64.9373 18.1942 64.8203 18.0478C64.7033 17.9015 64.6391 17.7198 64.6381 17.5322V14.7795C64.6381 14.6703 64.6597 14.5622 64.7017 14.4615C64.7437 14.3608 64.8052 14.2694 64.8826 14.1927C64.9601 14.116 65.052 14.0555 65.1529 14.0148C65.2539 13.974 65.3619 13.9537 65.4708 13.9552Z" fill="#FF4B45"/>
</svg>
