<svg width="23" height="22" viewBox="0 0 23 22" fill="none" xmlns="http://www.w3.org/2000/svg">
<path d="M17.6877 12.7417H16.0206C15.8226 12.7417 15.629 12.8006 15.4644 12.9107L13.416 14.2817C13.086 14.5017 12.701 14.6026 12.3252 14.6026C12.0043 14.6026 11.6835 14.5292 11.3902 14.3642C10.9666 14.1404 10.6509 13.7367 10.4852 13.2799C10.3343 12.8639 10.0573 12.4738 9.66002 12.2788C9.26137 12.0832 8.90125 11.8295 8.59433 11.5226C7.806 10.7342 7.37516 9.62508 7.37516 8.38758V4.81258V4.58341C7.37516 4.07715 6.96476 3.66675 6.4585 3.66675C3.9835 3.66675 2.3335 4.90425 2.3335 7.79175V12.7417C2.3335 15.6292 3.9835 16.8667 6.4585 16.8667H9.896V19.4792H7.2835C6.90766 19.4792 6.596 19.7909 6.596 20.1667C6.596 20.5426 6.90766 20.8542 7.2835 20.8542H13.8835C14.2593 20.8542 14.571 20.5426 14.571 20.1667C14.571 19.7909 14.2593 19.4792 13.8835 19.4792H11.271V16.8667H14.7085C16.8774 16.8667 18.4127 15.9164 18.7593 13.7382C18.8461 13.1928 18.3858 12.7417 17.8335 12.7417H17.6877Z" fill="#4D78BC"/>
<path d="M17.6875 1.83325H11.7292C10.3633 1.83325 9.33667 2.52992 8.93333 3.66659C8.81417 4.01492 8.75 4.39992 8.75 4.81242V8.38742C8.75 9.27659 9.04333 10.0283 9.56583 10.5508C10.0883 11.0733 10.84 11.3666 11.7292 11.3666V12.6408C11.7292 13.1083 12.2608 13.3924 12.655 13.1358L15.3042 11.3666H17.6875C18.1 11.3666 18.485 11.3024 18.8333 11.1833C19.97 10.7799 20.6667 9.75325 20.6667 8.38742V4.81242C20.6667 3.02492 19.475 1.83325 17.6875 1.83325ZM12.0683 7.33325C11.6833 7.33325 11.3808 7.02159 11.3808 6.64575C11.3808 6.26992 11.6833 5.95825 12.0683 5.95825C12.4533 5.95825 12.7558 6.26992 12.7558 6.64575C12.7558 7.02159 12.4533 7.33325 12.0683 7.33325ZM14.6533 7.33325C14.2683 7.33325 13.9658 7.02159 13.9658 6.64575C13.9658 6.26992 14.2775 5.95825 14.6533 5.95825C15.0292 5.95825 15.3408 6.26992 15.3408 6.64575C15.3408 7.02159 15.0292 7.33325 14.6533 7.33325ZM17.2292 7.33325C16.8442 7.33325 16.5417 7.02159 16.5417 6.64575C16.5417 6.26992 16.8533 5.95825 17.2292 5.95825C17.605 5.95825 17.9167 6.26992 17.9167 6.64575C17.9167 7.02159 17.605 7.33325 17.2292 7.33325Z" fill="#4D78BC"/>
<path d="M20.6667 4.81242V8.38742C20.6667 9.75325 19.97 10.7799 18.8333 11.1833C18.485 11.3024 18.1 11.3666 17.6875 11.3666H15.3042L12.655 13.1358C12.2608 13.3924 11.7292 13.1083 11.7292 12.6408V11.3666C10.84 11.3666 10.0883 11.0733 9.56583 10.5508C9.04333 10.0283 8.75 9.27659 8.75 8.38742V4.81242C8.75 4.39992 8.81417 4.01492 8.93333 3.66659C9.33667 2.52992 10.3633 1.83325 11.7292 1.83325H17.6875C19.475 1.83325 20.6667 3.02492 20.6667 4.81242Z" fill="#4D78BC"/>
</svg>
