<svg width="200" height="54" viewBox="0 0 200 54" fill="none" xmlns="http://www.w3.org/2000/svg">
<path d="M84.5702 20.7929C84.5702 20.7929 80.0981 19.0274 76.5489 25.2069C72.9129 31.5125 77.4875 35.7136 81.1077 33.2229C81.1077 33.2229 83.955 39.1816 89.6338 37.755C95.3126 36.3284 96.2354 31.7883 96.2354 31.7883C96.2354 31.7883 101.283 32.1351 101.417 28.3754C101.551 24.6157 97.8602 21.2816 97.8602 21.2816C97.8602 21.2816 97.6393 11.91 91.5504 11.9888C85.4614 12.0676 84.5702 20.7929 84.5702 20.7929Z" fill="#455A64"/>
<path d="M88.7666 53.9998L90.0128 26.1133L91.3221 53.9998H88.7666Z" fill="#263238"/>
<path d="M89.6496 36.5968L85.7139 28.7778L90.2885 35.3751L89.6496 36.5968Z" fill="#263238"/>
<path d="M9.35792 20.7929C9.35792 20.7929 4.87798 19.0274 1.32872 25.2069C-2.2994 31.5125 2.2673 35.7136 5.88754 33.2229C5.88754 33.2229 8.73483 39.1816 14.4215 37.755C20.1082 36.3284 21.0231 31.7883 21.0231 31.7883C21.0231 31.7883 26.0631 32.1351 26.205 28.3754C26.347 24.6157 22.64 21.2816 22.64 21.2816C22.64 21.2816 22.4192 11.91 16.3302 11.9888C10.2413 12.0676 9.35792 20.7929 9.35792 20.7929Z" fill="#455A64"/>
<path d="M13.5459 53.9998L14.8 26.1133L16.1092 53.9998H13.5459Z" fill="#263238"/>
<path d="M14.4298 36.5968L10.502 28.7778L15.0687 35.3751L14.4298 36.5968Z" fill="#263238"/>
<path d="M62.9831 22.8897C62.9831 22.8897 54.6068 41.6015 68.3543 41.5858C82.1017 41.57 73.1734 22.2434 73.1734 22.2434C73.1734 22.2434 76.3283 20.8404 72.6449 10.4204C68.9616 0.000400648 67.2974 -0.00748189 65.7594 0.000400101C63.827 0.000400101 62.0287 4.5168 63.3932 11.4451C63.3538 11.4372 58.5268 20.0995 62.9831 22.8897Z" fill="#37474F"/>
<path d="M69.5847 53.9842L68.2281 25.814L66.9346 53.9842H69.5847Z" fill="#263238"/>
<path d="M68.7808 37.6291L63.7803 31.7964L67.7081 38.4015L68.7808 37.6291Z" fill="#263238"/>
<path d="M186.963 22.8897C186.963 22.8897 178.586 41.6015 192.334 41.5858C206.081 41.57 197.145 22.2434 197.145 22.2434C197.145 22.2434 200.3 20.8404 196.624 10.4204C192.949 0.000400648 191.277 -0.00748189 189.739 0.000400101C187.806 0.000400101 186.008 4.5168 187.373 11.4451C187.333 11.4372 182.506 20.0995 186.963 22.8897Z" fill="#37474F"/>
<path d="M193.564 53.9842L192.208 25.814L190.914 53.9842H193.564Z" fill="#263238"/>
<path d="M192.759 37.6291L187.759 31.7964L191.687 38.4015L192.759 37.6291Z" fill="#263238"/>
</svg>
