<svg width="360" height="360" viewBox="0 0 360 360" fill="none" xmlns="http://www.w3.org/2000/svg">
<path fill-rule="evenodd" clip-rule="evenodd" d="M180 352C274.993 352 352 274.993 352 180C352 85.007 274.993 8 180 8C85.007 8 8 85.007 8 180C8 274.993 85.007 352 180 352ZM180 360C279.411 360 360 279.411 360 180C360 80.5887 279.411 0 180 0C80.5887 0 0 80.5887 0 180C0 279.411 80.5887 360 180 360ZM180 334C265.052 334 334 265.052 334 180C334 94.9482 265.052 26 180 26C94.9482 26 26 94.9482 26 180C26 265.052 94.9482 334 180 334ZM180 342C269.47 342 342 269.47 342 180C342 90.5299 269.47 18 180 18C90.5299 18 18 90.5299 18 180C18 269.47 90.5299 342 180 342ZM316 180C316 255.111 255.111 316 180 316C104.889 316 44 255.111 44 180C44 104.889 104.889 44 180 44C255.111 44 316 104.889 316 180ZM324 180C324 259.529 259.529 324 180 324C100.471 324 36 259.529 36 180C36 100.471 100.471 36 180 36C259.529 36 324 100.471 324 180ZM180 298C245.17 298 298 245.17 298 180C298 114.83 245.17 62 180 62C114.83 62 62 114.83 62 180C62 245.17 114.83 298 180 298ZM180 306C249.588 306 306 249.588 306 180C306 110.412 249.588 54 180 54C110.412 54 54 110.412 54 180C54 249.588 110.412 306 180 306ZM280 180C280 235.228 235.228 280 180 280C124.772 280 80 235.228 80 180C80 124.772 124.772 80 180 80C235.228 80 280 124.772 280 180ZM288 180C288 239.647 239.647 288 180 288C120.353 288 72 239.647 72 180C72 120.353 120.353 72 180 72C239.647 72 288 120.353 288 180ZM180 262C225.287 262 262 225.287 262 180C262 134.713 225.287 98 180 98C134.713 98 98 134.713 98 180C98 225.287 134.713 262 180 262ZM180 270C229.706 270 270 229.706 270 180C270 130.294 229.706 90 180 90C130.294 90 90 130.294 90 180C90 229.706 130.294 270 180 270ZM180 252C219.764 252 252 219.764 252 180C252 140.236 219.764 108 180 108C140.236 108 108 140.236 108 180C108 219.764 140.236 252 180 252Z" fill="url(#paint0_linear_914_262)"/>
<defs>
<linearGradient id="paint0_linear_914_262" x1="180" y1="0" x2="180" y2="360" gradientUnits="userSpaceOnUse">
<stop offset="0.0754169" stop-color="white"/>
<stop offset="0.53" stop-color="#F4F4F4"/>
<stop offset="1" stop-color="white"/>
</linearGradient>
</defs>
</svg>
