<svg width="172" height="49" viewBox="0 0 172 49" fill="none" xmlns="http://www.w3.org/2000/svg">
<path d="M162.249 31.911V19.3545H170.706V21.1534H164.457V24.6265H170.296V26.4432H164.457V30.0943H170.706V31.911H162.249Z" fill="white" stroke="white"/>
<path d="M155.9 32.089C154.595 32.089 153.473 31.8278 152.536 31.3054C151.61 30.771 150.898 30.023 150.399 29.0612C149.901 28.0876 149.651 26.9417 149.651 25.6237C149.651 24.3058 149.901 23.1659 150.399 22.2041C150.898 21.2423 151.61 20.5002 152.536 19.9778C153.473 19.4434 154.595 19.1763 155.9 19.1763C156.779 19.1763 157.568 19.3009 158.268 19.5503C158.98 19.7996 159.592 20.1677 160.102 20.6546L159.354 22.4712C158.796 22.02 158.256 21.6995 157.734 21.5095C157.224 21.3076 156.636 21.2067 155.972 21.2067C154.702 21.2067 153.728 21.5926 153.052 22.3644C152.387 23.1243 152.055 24.2108 152.055 25.6237C152.055 27.0367 152.387 28.1291 153.052 28.9009C153.728 29.6727 154.702 30.0586 155.972 30.0586C156.636 30.0586 157.224 29.9636 157.734 29.7736C158.256 29.5718 158.796 29.2393 159.354 28.7762L160.102 30.5929C159.592 31.0679 158.98 31.436 158.268 31.6972C157.568 31.9584 156.779 32.089 155.9 32.089Z" fill="white" stroke="white"/>
<path d="M136.622 31.911V19.3545H138.349L145.631 28.7764H145.168V19.3545H147.304V31.911H145.577L138.313 22.4892H138.758V31.911H136.622Z" fill="white" stroke="white"/>
<path d="M121.88 31.911L127.559 19.3545H129.482L135.232 31.911H132.9L131.369 28.3845L132.295 29.0079H124.764L125.725 28.3845L124.194 31.911H121.88ZM128.503 21.8124L125.992 27.7611L125.53 27.209H131.512L131.138 27.7611L128.574 21.8124H128.503Z" fill="white" stroke="white"/>
<path d="M110.994 31.911V19.3545H116.478C117.854 19.3545 118.917 19.681 119.664 20.3341C120.424 20.9871 120.804 21.8955 120.804 23.0591C120.804 23.8309 120.632 24.4899 120.288 25.0361C119.955 25.5823 119.475 26.0038 118.845 26.3007C118.216 26.5856 117.475 26.7281 116.62 26.7281L116.869 26.3897H117.475C117.973 26.3897 118.418 26.5203 118.81 26.7816C119.202 27.0428 119.522 27.4405 119.771 27.9749L121.605 31.911H119.077L117.225 27.8324C117.059 27.4168 116.804 27.1437 116.46 27.0131C116.127 26.8825 115.724 26.8172 115.249 26.8172H113.291V31.911H110.994ZM113.291 25.1252H116.104C116.911 25.1252 117.522 24.9589 117.937 24.6265C118.365 24.2821 118.578 23.7834 118.578 23.1304C118.578 22.4773 118.365 21.9845 117.937 21.6521C117.522 21.3196 116.911 21.1534 116.104 21.1534H113.291V25.1252Z" fill="white" stroke="white"/>
<path d="M103.05 32.0891C101.257 32.0891 99.9221 31.6439 99.0438 30.7533C98.1774 29.8509 97.7441 28.5211 97.7441 26.7637V19.3545H100.041V26.7459C100.041 27.8621 100.278 28.7051 100.753 29.2751C101.24 29.845 102.005 30.13 103.05 30.13C104.047 30.13 104.794 29.845 105.293 29.2751C105.803 28.7051 106.058 27.8621 106.058 26.7459V19.3545H108.319V26.7637C108.319 28.5211 107.874 29.8509 106.984 30.7533C106.106 31.6439 104.794 32.0891 103.05 32.0891Z" fill="white" stroke="white"/>
<path d="M90.7201 32.089C89.7112 32.089 88.7795 31.9644 87.925 31.715C87.0823 31.4538 86.3582 31.0976 85.7529 30.6464L86.4651 28.8475C86.8686 29.1325 87.29 29.3759 87.7291 29.5777C88.1683 29.7677 88.6371 29.9161 89.1356 30.023C89.6341 30.118 90.1623 30.1655 90.7201 30.1655C91.6577 30.1655 92.3343 30.0111 92.7497 29.7024C93.1651 29.3937 93.3728 28.99 93.3728 28.4913C93.3728 28.0519 93.2304 27.7195 92.9455 27.4939C92.6607 27.2564 92.1503 27.0605 91.4144 26.9061L89.4026 26.4965C88.2513 26.259 87.3908 25.8612 86.8211 25.3032C86.2514 24.7451 85.9666 23.997 85.9666 23.059C85.9666 22.2753 86.1743 21.5926 86.5897 21.0108C87.0051 20.429 87.5867 19.9778 88.3344 19.6572C89.0822 19.3366 89.9545 19.1763 90.9515 19.1763C91.8417 19.1763 92.6666 19.3069 93.4262 19.5681C94.1858 19.8175 94.8208 20.1796 95.3312 20.6546L94.6191 22.3644C94.1087 21.9369 93.5508 21.6223 92.9455 21.4204C92.3402 21.2067 91.6637 21.0998 90.9159 21.0998C90.0732 21.0998 89.4145 21.2661 88.9397 21.5985C88.4769 21.9191 88.2454 22.3644 88.2454 22.9343C88.2454 23.3737 88.3878 23.7239 88.6727 23.9852C88.9694 24.2464 89.4679 24.4482 90.1682 24.5907L92.1622 24.9826C93.3491 25.22 94.2274 25.6119 94.7971 26.1581C95.3668 26.6924 95.6517 27.4167 95.6517 28.331C95.6517 29.079 95.4499 29.738 95.0463 30.308C94.6428 30.866 94.0731 31.3054 93.3372 31.6259C92.6013 31.9347 91.729 32.089 90.7201 32.089Z" fill="white" stroke="white"/>
<path d="M72.9014 31.911V19.3545H74.6283L81.9099 28.7764H81.447V19.3545H83.5834V31.911H81.8565L74.5927 22.4892H75.0378V31.911H72.9014Z" fill="white" stroke="white"/>
<path d="M67.8418 31.911V19.3545H70.1384V31.911H67.8418Z" fill="white" stroke="white"/>
<path d="M51.0996 31.911V19.3545H56.6721C58.0489 19.3545 59.0993 19.687 59.8233 20.3519C60.5473 21.0168 60.9093 21.9311 60.9093 23.0947C60.9093 24.2465 60.5473 25.1608 59.8233 25.8376C59.0993 26.5144 58.0489 26.8528 56.6721 26.8528H53.3963V31.911H51.0996ZM53.3963 25.0361H56.405C57.1647 25.0361 57.7344 24.8699 58.1142 24.5374C58.494 24.1931 58.6839 23.7122 58.6839 23.0947C58.6839 22.4773 58.494 22.0023 58.1142 21.6699C57.7344 21.3255 57.1647 21.1534 56.405 21.1534H53.3963V25.0361Z" fill="#E7EEFC" stroke="#E7EEFC"/>
<path d="M36.3584 31.911L42.0377 19.3545H43.9605L49.711 31.911H47.3787L45.8476 28.3845L46.7734 29.0079H39.2426L40.2039 28.3845L38.6728 31.911H36.3584ZM42.9813 21.8124L40.471 27.7611L40.0081 27.209H45.9901L45.6162 27.7611L43.0525 21.8124H42.9813Z" fill="#E7EEFC" stroke="#E7EEFC"/>
<path d="M27.3848 31.911V19.3545H35.8414V21.1534H29.5924V24.6265H35.4319V26.4432H29.5924V30.0943H35.8414V31.911H27.3848Z" fill="#E7EEFC" stroke="#E7EEFC"/>
<path d="M13.5977 31.911V19.3545H15.8943V24.5908H22.3214V19.3545H24.618V31.911H22.3214V26.4966H15.8943V31.911H13.5977Z" fill="#E7EEFC" stroke="#E7EEFC"/>
<path d="M7.24902 32.089C5.94343 32.089 4.82181 31.8278 3.88416 31.3054C2.95838 30.771 2.24624 30.023 1.74775 29.0612C1.24925 28.0876 1 26.9417 1 25.6237C1 24.3058 1.24925 23.1659 1.74775 22.2041C2.24624 21.2423 2.95838 20.5002 3.88416 19.9778C4.82181 19.4434 5.94343 19.1763 7.24902 19.1763C8.12732 19.1763 8.91661 19.3009 9.61688 19.5503C10.329 19.7996 10.9403 20.1677 11.4506 20.6546L10.7029 22.4712C10.145 22.02 9.60501 21.6995 9.08277 21.5095C8.57241 21.3076 7.98489 21.2067 7.32023 21.2067C6.05025 21.2067 5.07699 21.5926 4.40046 22.3644C3.7358 23.1243 3.40347 24.2108 3.40347 25.6237C3.40347 27.0367 3.7358 28.1291 4.40046 28.9009C5.07699 29.6727 6.05025 30.0586 7.32023 30.0586C7.98489 30.0586 8.57241 29.9636 9.08277 29.7736C9.60501 29.5718 10.145 29.2393 10.7029 28.7762L11.4506 30.5929C10.9403 31.0679 10.329 31.436 9.61688 31.6972C8.91661 31.9584 8.12732 32.089 7.24902 32.089Z" fill="#E7EEFC" stroke="#E7EEFC"/>
<path d="M143.932 45.6904V37.2539H150.188V39.2164H146.396V40.4251H149.901V42.3876H146.396V43.7279H150.188V45.6904H143.932Z" fill="#E7EEFC" stroke="#E7EEFC" stroke-width="0.5"/>
<path d="M133.28 45.6904V39.3361H130.84V37.2539H138.304V39.3361H135.864V45.6904H133.28Z" fill="#E7EEFC" stroke="#E7EEFC" stroke-width="0.5"/>
<path d="M117.139 41.4662C117.139 40.5967 117.314 39.8348 117.665 39.1806C118.024 38.5264 118.53 38.0198 119.184 37.6608C119.838 37.2938 120.612 37.1104 121.505 37.1104C122.406 37.1104 123.183 37.2938 123.837 37.6608C124.491 38.0198 124.998 38.5264 125.356 39.1806C125.715 39.8348 125.895 40.5967 125.895 41.4662C125.895 42.3358 125.715 43.0977 125.356 43.7519C124.998 44.4061 124.491 44.9166 123.837 45.2836C123.183 45.6506 122.406 45.8341 121.505 45.8341C120.612 45.8341 119.838 45.6506 119.184 45.2836C118.53 44.9166 118.024 44.4061 117.665 43.7519C117.314 43.0897 117.139 42.3278 117.139 41.4662ZM119.842 41.4662C119.842 42.1683 119.974 42.7148 120.237 43.1057C120.508 43.4966 120.931 43.692 121.505 43.692C122.079 43.692 122.502 43.4966 122.773 43.1057C123.052 42.7068 123.191 42.1603 123.191 41.4662C123.191 40.7722 123.052 40.2297 122.773 39.8388C122.502 39.4478 122.079 39.2524 121.505 39.2524C120.931 39.2524 120.508 39.4478 120.237 39.8388C119.974 40.2217 119.842 40.7642 119.842 41.4662Z" fill="#E7EEFC" stroke="#E7EEFC" stroke-width="0.5"/>
<path d="M107.368 45.834C106.068 45.834 105.091 45.5189 104.437 44.8887C103.783 44.2504 103.456 43.2931 103.456 42.0167V37.2539H106.04V42.0526C106.04 42.5871 106.143 42.9939 106.351 43.2732C106.566 43.5524 106.905 43.692 107.368 43.692C107.83 43.692 108.165 43.5524 108.372 43.2732C108.588 42.9939 108.695 42.5871 108.695 42.0526V37.2539H111.231V42.0167C111.231 43.2931 110.912 44.2504 110.274 44.8887C109.644 45.5189 108.675 45.834 107.368 45.834Z" fill="#E7EEFC" stroke="#E7EEFC" stroke-width="0.5"/>
<path d="M95.3647 48.0001C95.0696 47.8644 94.7785 47.6809 94.4914 47.4496C94.2123 47.2262 93.9532 46.9669 93.7139 46.6718C93.4827 46.3846 93.2873 46.1532 93.1278 45.8341L94.1903 45.7384L95.2482 45.3941C95.4316 45.793 95.5162 45.6187 95.891 45.9537C96.2658 46.2968 96.6605 46.568 97.0752 46.7675L95.3647 48.0001ZM88.7617 41.4662C88.7617 40.5967 88.9372 39.8348 89.288 39.1806C89.6469 38.5264 90.1533 38.0198 90.8072 37.6608C91.4611 37.2938 92.2346 37.1104 93.1278 37.1104C94.0289 37.1104 94.8064 37.2938 95.4604 37.6608C96.1143 38.0198 96.6207 38.5264 96.9795 39.1806C97.3384 39.8348 97.5178 40.5967 97.5178 41.4662C97.5178 42.3358 97.3384 43.0977 96.9795 43.7519C96.6207 44.4061 96.1143 44.9166 95.4604 45.2836C94.8064 45.6506 94.0289 45.8341 93.1278 45.8341C92.2346 45.8341 91.4611 45.6506 90.8072 45.2836C90.1533 44.9166 89.6469 44.4061 89.288 43.7519C88.9372 43.0897 88.7617 42.3278 88.7617 41.4662ZM91.4651 41.4662C91.4651 42.1683 91.5967 42.7148 91.8598 43.1057C92.131 43.4966 92.5536 43.692 93.1278 43.692C93.702 43.692 94.1246 43.4966 94.3958 43.1057C94.6749 42.7068 94.8144 42.1603 94.8144 41.4662C94.8144 40.7722 94.6749 40.2297 94.3958 39.8388C94.1246 39.4478 93.702 39.2524 93.1278 39.2524C92.5536 39.2524 92.131 39.4478 91.8598 39.8388C91.5967 40.2217 91.4651 40.7642 91.4651 41.4662Z" fill="#E7EEFC"/>
<path d="M93.1278 45.8341C93.2873 46.1532 93.4827 46.3846 93.7139 46.6718C93.9532 46.9669 94.2123 47.2262 94.4914 47.4496C94.7785 47.6809 95.0696 47.8644 95.3647 48.0001L97.0752 46.7675C96.6605 46.568 96.2658 46.2968 95.891 45.9537C95.5162 45.6187 95.4316 45.793 95.2482 45.3941L94.1903 45.7384L93.1278 45.8341ZM93.1278 45.8341C94.0289 45.8341 94.8064 45.6506 95.4604 45.2836C96.1143 44.9166 96.6207 44.4061 96.9795 43.7519C97.3384 43.0977 97.5178 42.3358 97.5178 41.4662C97.5178 40.5967 97.3384 39.8348 96.9795 39.1806C96.6207 38.5264 96.1143 38.0198 95.4604 37.6608C94.8064 37.2938 94.0289 37.1104 93.1278 37.1104C92.2346 37.1104 91.4611 37.2938 90.8072 37.6608C90.1533 38.0198 89.6469 38.5264 89.288 39.1806C88.9372 39.8348 88.7617 40.5967 88.7617 41.4662C88.7617 42.3278 88.9372 43.0897 89.288 43.7519C89.6469 44.4061 90.1533 44.9166 90.8072 45.2836C91.4611 45.6506 92.2346 45.8341 93.1278 45.8341ZM91.4651 41.4662C91.4651 42.1683 91.5967 42.7148 91.8598 43.1057C92.131 43.4966 92.5536 43.692 93.1278 43.692C93.702 43.692 94.1246 43.4966 94.3958 43.1057C94.6749 42.7068 94.8144 42.1603 94.8144 41.4662C94.8144 40.7722 94.6749 40.2297 94.3958 39.8388C94.1246 39.4478 93.702 39.2524 93.1278 39.2524C92.5536 39.2524 92.131 39.4478 91.8598 39.8388C91.5967 40.2217 91.4651 40.7642 91.4651 41.4662Z" stroke="#E7EEFC" stroke-width="0.5"/>
<path d="M85.1426 42.0888C85.1426 41.8387 85.0029 41.636 84.8306 41.636H67.3593C67.187 41.636 67.0473 41.8387 67.0473 42.0888C67.0473 42.3389 67.187 42.5416 67.3593 42.5416H84.8306C85.0029 42.5416 85.1426 42.3389 85.1426 42.0888Z" fill="url(#paint0_linear_2042_4334)"/>
<path d="M153.905 42.0888C153.905 41.8387 154.045 41.636 154.217 41.636H171.689C171.861 41.636 172.001 41.8387 172.001 42.0888C172.001 42.3389 171.861 42.5416 171.689 42.5416H154.217C154.045 42.5416 153.905 42.3389 153.905 42.0888Z" fill="url(#paint1_linear_2042_4334)"/>
<path d="M143.754 4.76929L143.755 4.76952C147.45 5.35562 151.107 6.49847 154.61 7.79235C155.81 8.24271 156.994 8.73639 158.179 9.23132L158.228 9.25175C159.396 9.73969 160.566 10.2283 161.751 10.6756L161.787 10.5815L161.751 10.6756C161.996 10.7682 162.243 10.8586 162.489 10.9476L162.489 10.9476C164.375 11.6255 166.415 12.276 168.362 12.8435C163.153 11.9266 156.461 11.4063 150.728 11.1113C147.487 10.9446 144.55 10.8498 142.359 10.7962L142.509 10.7912C143.524 10.7574 144.545 10.736 145.569 10.7145C148.357 10.6562 151.163 10.5974 153.923 10.2855L153.912 10.1855L153.923 10.2855C153.939 10.2837 153.957 10.2818 153.977 10.2797C154.092 10.2676 154.257 10.2501 154.409 10.2084C154.58 10.1617 154.779 10.0723 154.841 9.87936M143.754 4.76929L127.154 6.58755C128.936 6.10301 130.745 5.73036 132.571 5.4866L132.557 5.38687C132.558 5.38687 132.558 5.38686 132.558 5.38685C134.389 5.13969 136.237 5.03489 138.084 5.06688L138.086 5.06696C138.255 5.07343 138.424 5.07928 138.593 5.08514C138.885 5.09523 139.177 5.10535 139.468 5.11873C142.228 5.2449 144.965 5.85073 147.633 6.55061L147.607 6.64796L147.633 6.55062C147.812 6.59767 147.993 6.64461 148.175 6.69185C150.075 7.1858 152.097 7.71153 153.81 8.72263L153.759 8.80932L153.81 8.72265C153.829 8.73349 153.849 8.74549 153.872 8.75857C154.028 8.84991 154.275 8.99373 154.479 9.16156C154.596 9.25748 154.705 9.36616 154.776 9.4832C154.848 9.60105 154.887 9.73781 154.841 9.87936M143.754 4.76929L143.055 4.6489L143.072 4.54973L143.055 4.6489C143.014 4.6419 142.973 4.63483 142.933 4.62779C142.74 4.59423 142.55 4.5611 142.358 4.53658L142.357 4.53644C142.2 4.51474 142.044 4.49258 141.887 4.47044C141.576 4.42635 141.265 4.38238 140.953 4.34247C140.952 4.34241 140.952 4.34235 140.951 4.34229L139.536 4.20223C139.536 4.2022 139.535 4.20216 139.535 4.20212C139.22 4.18155 138.905 4.16457 138.589 4.14756C138.43 4.13902 138.272 4.13046 138.113 4.12144C136.215 4.04775 134.311 4.13631 132.425 4.36243C130.539 4.58985 128.673 4.96461 126.841 5.44492C125.009 5.92999 123.212 6.52328 121.447 7.18873C121.355 7.224 121.263 7.25901 121.171 7.29399C120.822 7.4274 120.474 7.56017 120.131 7.70333L120.13 7.70344C119.98 7.76547 119.83 7.82606 119.681 7.88648C119.394 8.00267 119.108 8.11824 118.825 8.24222L118.824 8.24243C118.673 8.30753 118.523 8.37179 118.372 8.43596C118.09 8.55647 117.808 8.67663 117.528 8.80129C117.528 8.80131 117.527 8.80133 117.527 8.80135L116.245 9.3743C115.396 9.75501 114.55 10.1252 113.692 10.4367M143.754 4.76929L88.7783 13.5292C89.6778 13.2394 90.5952 13.009 91.5191 12.8136L91.5192 12.8135C92.443 12.6177 93.374 12.461 94.3075 12.3283L94.3078 12.3283C95.2406 12.1929 96.1771 12.0925 97.114 12.0041C98.0508 11.9159 98.9875 11.8433 99.9224 11.7722L99.9225 11.7722L102.73 11.5556C102.73 11.5556 102.731 11.5556 102.731 11.5556C103.681 11.4979 104.626 11.4871 105.564 11.48C105.628 11.4795 105.692 11.4791 105.755 11.4786C106.628 11.4723 107.496 11.466 108.355 11.4299C108.817 11.413 109.275 11.3794 109.73 11.34L109.733 11.3397L109.733 11.3397C109.81 11.3307 109.889 11.3227 109.969 11.3145C110.116 11.2996 110.266 11.2843 110.412 11.2628C110.412 11.2627 110.412 11.2627 110.412 11.2626L110.748 11.2181L110.751 11.2176L110.751 11.2176L111.08 11.1618L111.081 11.1616C111.521 11.082 111.96 10.9822 112.396 10.8574C112.83 10.7344 113.263 10.5953 113.692 10.4367M154.841 9.87936L154.745 9.84897L154.841 9.87963C154.841 9.87954 154.841 9.87945 154.841 9.87936ZM119.258 9.24638C119.546 9.12133 119.837 9.00447 120.127 8.88824C120.268 8.83182 120.408 8.77555 120.548 8.71856C120.878 8.58181 121.213 8.45506 121.545 8.32894C121.646 8.29091 121.746 8.25293 121.846 8.21475L121.846 8.21466C123.581 7.55664 125.341 6.9707 127.128 6.49041L116.696 10.36L117.977 9.79412L117.977 9.79408C118.248 9.67475 118.521 9.55905 118.794 9.44369C118.949 9.37802 119.104 9.31245 119.258 9.24638ZM119.258 9.24638C119.258 9.24641 119.258 9.24644 119.258 9.24647L119.298 9.33873L119.258 9.24626C119.258 9.2463 119.258 9.24634 119.258 9.24638ZM81.8574 18.1275L81.9334 18.1873L81.8571 18.1279M81.8574 18.1275C81.8573 18.1277 81.8572 18.1278 81.8571 18.1279M81.8574 18.1275L81.8544 18.1251C81.8543 18.1252 81.8543 18.1253 81.8542 18.1253C81.8672 18.1087 81.8803 18.0921 81.8934 18.0756C81.8813 18.0929 81.8693 18.1102 81.8574 18.1275ZM81.8571 18.1279C81.8567 18.1285 81.8563 18.1291 81.8559 18.1297L81.8526 18.1275L81.8541 18.1256L81.8571 18.1279ZM105.56 12.5229C104.624 12.5106 103.698 12.5081 102.779 12.5404L116.695 10.3601C115.835 10.7371 114.964 11.1105 114.06 11.4304L114.06 11.4305C113.158 11.7518 112.223 12.0203 111.258 12.176C111.258 12.176 111.258 12.176 111.258 12.176L110.896 12.232L110.537 12.2753L110.536 12.2754C110.377 12.2964 110.221 12.3101 110.062 12.3239C109.982 12.3309 109.901 12.338 109.82 12.3461C109.341 12.3817 108.864 12.4092 108.391 12.4203L108.39 12.4203C107.567 12.4456 106.751 12.4361 105.939 12.4266C105.813 12.4251 105.687 12.4236 105.561 12.4223L105.56 12.5229ZM105.56 12.5229C105.686 12.5242 105.811 12.5257 105.937 12.5272C106.749 12.5367 107.567 12.5463 108.393 12.5209L105.56 12.5229ZM113.692 10.4367C113.692 10.4367 113.692 10.4367 113.692 10.4366L113.657 10.3423L113.692 10.4368C113.692 10.4368 113.692 10.4368 113.692 10.4367ZM99.9737 12.5805C99.9737 12.5805 99.9738 12.5805 99.9738 12.5804L99.9785 12.681L99.9737 12.5805ZM88.9065 13.9446C88.9065 13.9446 88.9066 13.9446 88.9066 13.9446C88.9067 13.9445 88.9068 13.9445 88.9069 13.9445L88.9329 14.0416L88.9065 13.9446ZM142.371 4.43675C142.215 4.41516 142.059 4.39305 141.902 4.37094C141.59 4.32672 141.278 4.2825 140.964 4.24247L142.371 4.43675Z" fill="#E7EEFC" stroke="#E7EEFC" stroke-width="0.201312"/>
<defs>
<linearGradient id="paint0_linear_2042_4334" x1="85.1426" y1="42.0888" x2="67.0473" y2="42.0888" gradientUnits="userSpaceOnUse">
<stop stop-color="white"/>
<stop offset="1" stop-color="white" stop-opacity="0"/>
</linearGradient>
<linearGradient id="paint1_linear_2042_4334" x1="153.905" y1="42.0888" x2="172.001" y2="42.0888" gradientUnits="userSpaceOnUse">
<stop stop-color="white"/>
<stop offset="1" stop-color="white" stop-opacity="0"/>
</linearGradient>
</defs>
</svg>
