<svg width="140" height="53" viewBox="0 0 140 53" fill="none" xmlns="http://www.w3.org/2000/svg">
<path d="M106.516 16.6313L106.339 16.0225C106.339 16.0225 108.602 13.6053 109.252 13.3086C109.902 13.0119 113.877 13.7562 114.1 14.1066C114.324 14.4571 114.232 15.9816 114.178 16.2502C114.124 16.5187 110.581 17.1224 109.984 17.148C109.388 17.1736 106.516 16.6313 106.516 16.6313Z" fill="#FFC727"/>
<path d="M106.338 16.0225L106.516 16.6312C106.516 16.6312 105.01 17.7644 104.953 17.8309C104.897 17.8974 104.989 18.2197 104.989 18.2197H103.463V16.0225C103.69 16.1494 103.929 16.2515 104.178 16.3269C104.396 16.3652 106.338 16.0225 106.338 16.0225Z" fill="#FFC727"/>
<g opacity="0.1">
<path d="M106.516 16.6313L106.339 16.0225C106.339 16.0225 108.602 13.6053 109.252 13.3086C109.902 13.0119 113.877 13.7562 114.1 14.1066C114.324 14.4571 114.232 15.9816 114.178 16.2502C114.124 16.5187 110.581 17.1224 109.984 17.148C109.388 17.1736 106.516 16.6313 106.516 16.6313Z" fill="black"/>
<path d="M106.338 16.0225L106.516 16.6312C106.516 16.6312 105.01 17.7644 104.953 17.8309C104.897 17.8974 104.989 18.2197 104.989 18.2197H103.463V16.0225C103.69 16.1494 103.929 16.2515 104.178 16.3269C104.396 16.3652 106.338 16.0225 106.338 16.0225Z" fill="black"/>
</g>
<path d="M78.3581 39.8698C78.1962 45.753 75.853 52.9458 70.627 52.9458C70.1131 52.9458 63.1194 53.0788 62.6621 52.9279C58.4509 51.5364 55.9561 43.8908 56.4289 37.1508C56.7988 31.902 58.4843 26.0214 62.8779 25.3154C63.1708 25.2693 70.5293 25.3154 70.8428 25.3154C76.1228 25.3154 78.5354 33.5518 78.3581 39.8698Z" fill="#263238"/>
<path d="M69.9746 39.8699C69.8101 45.753 67.4669 52.9458 62.2434 52.9458C57.02 52.9458 54.628 44.6224 55.1547 37.1508C55.5478 31.5516 57.3617 25.3154 62.4644 25.3154C67.7367 25.3154 70.1493 33.5519 69.9746 39.8699Z" fill="#37474F"/>
<path d="M67.7982 39.691C67.6646 44.2134 65.9175 49.7614 62.0558 49.7614C58.1941 49.7614 56.447 43.3513 56.8503 37.5986C57.1535 33.286 58.5076 28.4849 62.2793 28.4849C66.177 28.4925 67.9447 34.831 67.7982 39.691Z" fill="#C7C7C7"/>
<path d="M61.0438 29.4593C61.1234 31.2984 61.4009 37.1534 61.8017 37.1534C62.1409 37.1534 63.1301 31.6258 63.4795 29.6281C63.0587 29.4081 62.5905 29.2931 62.1152 29.293C61.7514 29.2915 61.3898 29.3476 61.0438 29.4593Z" fill="#263238"/>
<path d="M62.526 37.5116C62.7393 37.6702 64.6303 35.0304 66.0049 33.0506C65.7161 32.2233 65.2982 31.4464 64.7665 30.7485C63.8749 33.0123 62.2357 37.2967 62.526 37.5116Z" fill="#263238"/>
<path d="M62.8838 38.192C62.9814 38.4324 65.0138 37.5065 66.8457 36.6163C66.7536 35.8786 66.6154 35.1474 66.432 34.4268C64.7543 35.9743 62.7656 37.9004 62.8838 38.192Z" fill="#263238"/>
<path d="M63.0637 39.0181C63.0457 39.2943 65.1037 39.6831 66.9716 39.9798L66.987 39.655C67.005 39.0667 66.987 38.4579 66.9536 37.8389C65.0934 38.2226 63.0971 38.7085 63.0637 39.0181Z" fill="#263238"/>
<path d="M66.4032 43.8116C66.6192 42.9897 66.7772 42.1538 66.876 41.31C65.0774 40.4812 62.9911 39.5885 62.8344 39.875C62.6777 40.1615 64.8359 42.3075 66.4032 43.8116Z" fill="#263238"/>
<path d="M64.1784 48.0192C64.9066 47.3075 65.4711 46.447 65.833 45.4971C64.6819 43.5403 62.7113 40.2969 62.4055 40.5041C62.0998 40.7113 63.6773 46.2977 64.1784 48.0192Z" fill="#263238"/>
<path d="M60.1468 48.3879C60.6416 48.7587 61.2438 48.9597 61.8631 48.9608C62.1018 48.9622 62.3398 48.9356 62.5723 48.8816C62.5106 47.3468 62.228 40.9751 61.8015 40.9751C61.4752 40.97 60.5117 46.3032 60.1468 48.3879Z" fill="#263238"/>
<path d="M57.9244 44.6683C58.1602 45.5171 58.512 46.3296 58.9701 47.083C59.8643 44.8039 61.3031 41.008 61.0256 40.8034C60.8303 40.6576 59.2322 42.8215 57.9244 44.6683Z" fill="#263238"/>
<path d="M57.3025 41.3098C57.3624 41.9821 57.4585 42.6507 57.5903 43.3127C59.0548 41.9365 60.5604 40.4325 60.4525 40.1664C60.3703 39.9465 58.8595 40.5885 57.3025 41.3098Z" fill="#263238"/>
<path d="M57.2315 38.3452C57.2058 38.9642 57.2032 39.5884 57.2315 40.2074C58.7731 39.8825 60.2299 39.5065 60.2479 39.2379C60.2659 38.9693 58.7885 38.6496 57.2315 38.3452Z" fill="#263238"/>
<path d="M57.3106 37.1662C58.8136 37.8773 60.3192 38.5091 60.4503 38.261C60.5813 38.0129 59.0217 36.3017 57.642 34.8667C57.4886 35.6265 57.378 36.3942 57.3106 37.1662Z" fill="#263238"/>
<path d="M58.0736 33.199C59.1861 35.1123 60.7483 37.6856 61.0206 37.4989C61.293 37.3121 60.0674 32.5033 59.5253 30.4902C58.8583 31.2834 58.364 32.2058 58.0736 33.199Z" fill="#263238"/>
<path d="M137.517 39.8698C137.355 45.753 135.011 52.9458 129.785 52.9458C129.272 52.9458 122.278 53.0788 121.821 52.9279C117.609 51.5364 115.115 43.8908 115.587 37.1508C115.957 31.902 117.643 26.0214 122.036 25.3154C122.329 25.2693 129.688 25.3154 130.001 25.3154C135.281 25.3154 137.691 33.5518 137.517 39.8698Z" fill="#263238"/>
<path d="M129.132 39.8699C128.97 45.753 126.626 52.9458 121.403 52.9458C116.18 52.9458 113.787 44.6224 114.312 37.1508C114.707 31.5516 116.521 25.3154 121.621 25.3154C126.896 25.3154 129.309 33.5519 129.132 39.8699Z" fill="#37474F"/>
<path d="M126.957 39.691C126.823 44.2134 125.076 49.7614 121.214 49.7614C117.353 49.7614 115.605 43.3513 116.009 37.5986C116.312 33.286 117.666 28.4849 121.438 28.4849C125.335 28.4925 127.101 34.831 126.957 39.691Z" fill="#C7C7C7"/>
<path d="M120.202 29.4593C120.281 31.2985 120.559 37.1535 120.973 37.1535C121.312 37.1535 122.301 31.6259 122.65 29.6282C122.23 29.4082 121.761 29.2932 121.286 29.2931C120.918 29.29 120.552 29.3462 120.202 29.4593Z" fill="#263238"/>
<path d="M121.685 37.5116C121.898 37.6702 123.789 35.0304 125.164 33.0506C124.874 32.2237 124.456 31.447 123.926 30.7485C123.034 33.0123 121.387 37.2967 121.685 37.5116Z" fill="#263238"/>
<path d="M122.042 38.192C122.14 38.4324 124.172 37.5065 126.004 36.6163C125.912 35.8786 125.774 35.1474 125.59 34.4268C123.912 35.9743 121.924 37.9004 122.042 38.192Z" fill="#263238"/>
<path d="M122.233 39.0181C122.215 39.2943 124.273 39.6831 126.141 39.9798C126.141 39.8698 126.141 39.765 126.154 39.655C126.174 39.0667 126.154 38.4579 126.123 37.8389C124.253 38.2226 122.256 38.7085 122.233 39.0181Z" fill="#263238"/>
<path d="M125.559 43.8116C125.775 42.9897 125.933 42.1538 126.032 41.31C124.234 40.4812 122.147 39.5885 121.991 39.875C121.834 40.1615 123.995 42.3075 125.559 43.8116Z" fill="#263238"/>
<path d="M123.337 48.0192C124.063 47.3067 124.625 46.4463 124.984 45.4971C123.833 43.5403 121.863 40.2969 121.557 40.5041C121.251 40.7113 122.836 46.2977 123.337 48.0192Z" fill="#263238"/>
<path d="M119.306 48.3879C119.801 48.7587 120.403 48.9597 121.022 48.9608C121.261 48.9622 121.499 48.9356 121.731 48.8816C121.67 47.3468 121.387 40.9751 120.961 40.9751C120.634 40.97 119.671 46.3032 119.306 48.3879Z" fill="#263238"/>
<path d="M117.081 44.6683C117.316 45.5171 117.668 46.3296 118.126 47.083C119.021 44.8039 120.459 41.008 120.182 40.8034C119.989 40.6576 118.391 42.8215 117.081 44.6683Z" fill="#263238"/>
<path d="M116.462 41.3098C116.522 41.9821 116.618 42.6507 116.75 43.3127C118.214 41.9365 119.717 40.4325 119.612 40.1664C119.53 39.9465 118.019 40.5885 116.462 41.3098Z" fill="#263238"/>
<path d="M116.39 38.3452C116.364 38.9642 116.361 39.5884 116.39 40.2074C117.931 39.8825 119.388 39.5065 119.406 39.2379C119.424 38.9693 117.947 38.6496 116.39 38.3452Z" fill="#263238"/>
<path d="M116.47 37.1662C117.973 37.8773 119.478 38.5091 119.609 38.261C119.74 38.0129 118.181 36.3017 116.801 34.8667C116.648 35.6265 116.537 36.3942 116.47 37.1662Z" fill="#263238"/>
<path d="M117.233 33.199C118.345 35.1123 119.907 37.6856 120.18 37.4989C120.452 37.3121 119.227 32.5033 118.684 30.4902C118.017 31.2834 117.523 32.2058 117.233 33.199Z" fill="#263238"/>
<path d="M24.5419 39.8698C24.3801 45.753 22.0368 52.9458 16.8108 52.9458C16.2969 52.9458 9.30323 53.0788 8.84589 52.9279C4.63476 51.5364 2.13993 43.8908 2.61269 37.1508C2.98267 31.902 4.66817 26.0214 9.06172 25.3154C9.35462 25.2693 16.7132 25.3154 17.0266 25.3154C22.3066 25.3154 24.7166 33.5518 24.5419 39.8698Z" fill="#263238"/>
<path d="M16.155 39.8699C15.9931 45.753 13.6499 52.9458 8.42642 52.9458C3.20297 52.9458 0.810933 44.6224 1.33508 37.1508C1.73075 31.5516 3.5447 25.3154 8.64482 25.3154C13.9197 25.3154 16.3323 33.5519 16.155 39.8699Z" fill="#37474F"/>
<path d="M13.9888 39.691C13.8552 44.2134 12.108 49.7614 8.24634 49.7614C4.38464 49.7614 2.63749 43.3513 3.04088 37.5986C3.34406 33.286 4.6981 28.4849 8.46987 28.4849C12.3598 28.4925 14.125 34.831 13.9888 39.691Z" fill="#C7C7C7"/>
<path d="M7.2272 29.4593C7.30685 31.2985 7.58434 37.1535 7.998 37.1535C8.33715 37.1535 9.32635 31.6259 9.67578 29.6282C9.25414 29.4079 8.78506 29.2929 8.3089 29.2931C7.9417 29.2902 7.57643 29.3463 7.2272 29.4593Z" fill="#263238"/>
<path d="M8.70863 37.5116C8.92189 37.6702 10.8129 35.0304 12.1875 33.0506C11.8967 32.2242 11.4789 31.4476 10.9491 30.7485C10.0575 33.0123 8.4183 37.2967 8.70863 37.5116Z" fill="#263238"/>
<path d="M9.06544 38.192C9.16051 38.4324 11.1954 37.5065 13.0273 36.6163C12.9352 35.8786 12.7971 35.1474 12.6137 34.4268C10.9359 35.9743 8.94725 37.9004 9.06544 38.192Z" fill="#263238"/>
<path d="M9.25648 39.0181C9.23849 39.2943 11.2965 39.6831 13.1644 39.9798C13.1644 39.8698 13.1644 39.765 13.1773 39.655C13.1978 39.0667 13.1773 38.4579 13.1464 37.8389C11.276 38.2226 9.2796 38.7085 9.25648 39.0181Z" fill="#263238"/>
<path d="M12.5839 43.8116C12.7999 42.9897 12.9579 42.1538 13.0566 41.31C11.2581 40.4812 9.17182 39.5885 9.01509 39.875C8.85836 40.1615 11.0192 42.3075 12.5839 43.8116Z" fill="#263238"/>
<path d="M10.361 48.0192C11.0892 47.3075 11.6537 46.447 12.0156 45.4971C10.8646 43.5403 8.89388 40.2969 8.58813 40.5041C8.28238 40.7113 9.85996 46.2977 10.361 48.0192Z" fill="#263238"/>
<path d="M6.33041 48.3879C6.82519 48.7587 7.42742 48.9597 8.04672 48.9608C8.2854 48.9622 8.52342 48.9356 8.75586 48.8816C8.6942 47.3468 8.41157 40.9751 7.98506 40.9751C7.65876 40.97 6.69526 46.3032 6.33041 48.3879Z" fill="#263238"/>
<path d="M4.10412 44.6683C4.33988 45.5171 4.69173 46.3296 5.14982 47.083C6.04395 44.8039 7.48277 41.008 7.20529 40.8034C7.01002 40.6576 5.41448 42.8215 4.10412 44.6683Z" fill="#263238"/>
<path d="M3.48539 41.3098C3.544 41.9822 3.64007 42.6509 3.77315 43.3127C5.23767 41.9365 6.74073 40.4325 6.63539 40.1664C6.55317 39.9465 5.0424 40.5885 3.48539 41.3098Z" fill="#263238"/>
<path d="M3.41313 38.3452C3.38744 38.9642 3.38487 39.5884 3.41313 40.2074C4.95473 39.8825 6.41154 39.5065 6.42952 39.2379C6.44751 38.9693 4.97015 38.6496 3.41313 38.3452Z" fill="#263238"/>
<path d="M3.49318 37.1662C4.99624 37.8773 6.50186 38.5091 6.6329 38.261C6.76393 38.0129 5.20435 36.3017 3.82462 34.8667C3.67124 35.6265 3.56059 36.3942 3.49318 37.1662Z" fill="#263238"/>
<path d="M4.25619 33.199C5.36871 35.1123 6.93087 37.6856 7.20322 37.4989C7.47557 37.3121 6.25 32.5033 5.70787 30.4902C5.0409 31.2834 4.54658 32.2058 4.25619 33.199Z" fill="#263238"/>
<path d="M55.0828 48.6205H19.8548C19.8548 48.6205 16.6354 43.4024 16.453 42.5761C16.2706 41.75 17.067 25.1339 8.44435 25.1339C0.931641 25.1339 1.26566 41.8165 1.26566 41.8165L0.34584 40.4147L0.137726 37.9771L0.723526 36.5344C0.723526 36.5344 -0.378708 26.3028 0.137726 24.8934C0.65416 23.484 5.24298 17.5804 5.55386 17.2709C5.86475 16.9614 10.9341 16.1019 11.2784 15.795C11.6226 15.488 25.8079 3.84452 32.1105 2.47093C38.413 1.09734 52.1975 0 61.0437 0C69.8899 0 90.1259 2.37884 91.7806 2.92879C93.4352 3.47874 108.612 17.6699 108.612 17.6699C108.612 17.6699 124.799 19.7418 126.962 20.2278C129.126 20.7138 137.378 26.1698 137.723 26.8553C138.067 27.5408 139.138 35.1992 139.138 35.1992C139.138 35.1992 139.966 37.0895 139.999 37.5345C140.033 37.9796 139 45.2619 138.861 45.638C138.722 46.014 137.206 47.7329 136.862 47.871C136.518 48.0091 79.0727 48.7637 78.3687 48.6384C77.6647 48.513 74.3528 47.541 73.8004 47.1727C73.248 46.8043 72.1843 25.3155 62.2924 25.3155C53.7031 25.3155 54.3917 41.7193 55.0828 48.6205Z" fill="#FFC727"/>
<path opacity="0.1" d="M103.145 48.4031C119.008 48.2036 136.67 47.9402 136.862 47.866C137.207 47.7278 138.725 46.0115 138.861 45.6355C138.998 45.2595 140.036 37.9772 139.997 37.5321C139.958 37.087 139.139 35.1942 139.139 35.1942C139.139 35.1942 138.07 27.5358 137.726 26.8503C137.381 26.1648 129.136 20.7114 126.963 20.2254C124.789 19.7394 108.613 17.6675 108.613 17.6675C108.613 17.6675 123.258 20.9288 124.029 21.5811C124.799 22.2333 130.452 28.3851 131.11 29.2982C131.767 30.2114 131.865 37.1254 132.073 37.6958C132.281 38.2662 133.661 41.8421 133.8 42.4586C133.939 43.075 133.317 45.5511 133.111 45.7532C132.906 45.9552 104.476 48.2957 103.145 48.4031Z" fill="black"/>
<path opacity="0.1" d="M55.0853 48.6207C54.4532 42.3564 53.8314 28.2624 60.1494 25.7173C56.9223 26.3005 52.4157 31.5672 52.2307 45.3261L19.8572 48.6207H55.0853Z" fill="black"/>
<g opacity="0.6">
<path d="M20.6846 39.727C20.3956 36.3993 19.6789 33.1223 18.552 29.9763C18.2649 29.191 17.9338 28.4225 17.5603 27.6742C17.1878 26.9206 16.7584 26.1964 16.2756 25.5076C15.7989 24.8094 15.2428 24.1682 14.6184 23.5969C14.3064 23.3095 13.9751 23.0437 13.6266 22.8014C13.2708 22.5665 12.8961 22.3612 12.5064 22.1875C11.7269 21.8314 10.8841 21.6332 10.027 21.6043C9.17016 21.5502 8.31163 21.6793 7.50905 21.9829C5.89551 22.6044 4.66737 23.9115 3.79894 25.3363C2.94676 26.7826 2.2959 28.3376 1.86423 29.9584C1.42204 31.5675 1.11946 33.2114 0.959816 34.8721C1.17024 33.221 1.5218 31.5908 2.01068 29.9993C2.46668 28.4046 3.13645 26.8783 4.00191 25.4616C4.88833 24.088 6.07536 22.8091 7.61696 22.2412C8.38248 21.955 9.20097 21.8363 10.0167 21.8933C10.8363 21.9266 11.6413 22.1205 12.3856 22.4637C12.7595 22.6292 13.1195 22.8243 13.4622 23.0469C13.7998 23.2816 14.1216 23.5379 14.4257 23.8143C15.0356 24.3687 15.5796 24.9909 16.0469 25.6688C16.9827 27.037 17.7496 28.5125 18.3311 30.0632C18.9251 31.6175 19.411 33.2105 19.7853 34.8312C20.1784 36.4447 20.4786 38.0793 20.6846 39.727Z" fill="white"/>
<path d="M74.1113 39.7266C73.8285 36.4743 73.1379 33.2699 72.0559 30.1883C71.5153 28.6406 70.7926 27.162 69.9028 25.7836C69.444 25.0971 68.9228 24.454 68.3458 23.8626C67.754 23.2793 67.0849 22.7793 66.3571 22.3764C65.6112 21.9981 64.8071 21.7465 63.9779 21.6321C63.1476 21.5388 62.3073 21.5872 61.4934 21.7753C59.8567 22.159 58.4487 23.2052 57.4184 24.4816C56.4028 25.7735 55.5966 27.2157 55.0289 28.7558C54.454 30.2827 54.0331 31.8627 53.7725 33.4726C54.0824 31.8766 54.5515 30.3154 55.1728 28.8121C55.7594 27.3014 56.5795 25.8912 57.6034 24.6325C58.6311 23.4098 59.9903 22.4046 61.5601 22.049C62.3414 21.8741 63.1467 21.8326 63.9419 21.9263C64.7334 22.0422 65.5005 22.2858 66.2132 22.6476C66.9156 23.035 67.5628 23.5141 68.1376 24.0723C68.704 24.6465 69.2157 25.2716 69.6664 25.9396C70.5476 27.2986 71.2741 28.751 71.8323 30.2701C72.4014 31.7915 72.87 33.3483 73.2352 34.9306C73.6183 36.5115 73.9108 38.1127 74.1113 39.7266Z" fill="white"/>
<path d="M54.5996 27.5975C52.3514 26.9504 50.1084 26.2827 47.8551 25.6535L35.2654 24.459L22.6757 23.3463H22.6911L18.5802 21.9292L14.4487 20.5352L18.5596 22.0111L22.6705 23.4665H22.686L35.2757 24.6534L47.8654 25.7635C50.0776 26.3902 52.3412 26.9836 54.5996 27.5975Z" fill="white"/>
<path d="M106.816 17.6777L113.651 20.5809L120.496 23.4637L120.462 23.4356L123.186 28.5283L123.252 28.4183C116.654 28.4772 110.054 28.5027 103.469 28.5897H103.515L95.6527 23.9855L85.8533 21.0823L76.0461 18.2123L85.8019 21.1948L95.5885 24.1339H95.5705L103.402 28.7636L103.425 28.7764H103.451C110.049 28.7381 116.647 28.6383 123.234 28.5692H123.36L123.301 28.4618L120.552 23.3793V23.3588H120.532L113.679 20.5068L106.816 17.6777Z" fill="white"/>
</g>
<g opacity="0.3">
<path d="M107.325 17.6699L121.117 20.9338L122.839 21.3533C123.124 21.4224 123.407 21.5016 123.692 21.5758L123.89 21.6423C123.923 21.6511 123.954 21.6631 123.985 21.6781L124.059 21.7421C124.165 21.8357 124.264 21.9366 124.355 22.0439C125.126 22.9238 125.827 23.8728 126.549 24.8013C127.978 26.6763 129.375 28.5665 130.791 30.4568C129.447 28.5205 128.083 26.5995 126.68 24.7067C125.976 23.7603 125.272 22.819 124.496 21.9186C124.399 21.7992 124.292 21.6888 124.175 21.5886L124.08 21.5119C124.044 21.4941 124.008 21.4795 123.969 21.4684L123.748 21.3917C123.463 21.3149 123.176 21.2305 122.89 21.1614L121.169 20.7317C118.87 20.1912 116.567 19.6651 114.26 19.1535C111.953 18.6419 109.641 18.1474 107.325 17.6699Z" fill="black"/>
<path d="M62.8247 18.2202L67.0204 19.5375L71.2239 20.8318L79.6153 23.4588C81.0156 23.8962 82.4159 24.331 83.8007 24.8017C84.4878 25.0459 85.153 25.3471 85.7894 25.7021L87.7524 26.692L91.6732 28.6743L95.6094 30.6286L91.7194 28.5822L87.8115 26.5666L85.8588 25.5614C85.2196 25.1966 84.55 24.8876 83.8573 24.638C82.4698 24.1545 81.0747 23.7069 79.677 23.2618L71.265 20.7039L67.0513 19.4454L62.8247 18.2202Z" fill="black"/>
<path d="M52.2305 44.2517L48.1812 44.1647L44.1294 44.1085L36.0308 43.9857L27.9297 43.909L23.8805 43.8476L22.8682 43.8297L22.3543 43.8117C22.2747 43.8117 22.1796 43.8118 22.1128 43.7939C22.046 43.7759 21.9843 43.7069 21.9227 43.6557C21.4756 43.1569 21.0774 42.6095 20.6765 42.0698C21.0645 42.6198 21.4473 43.1748 21.8867 43.689C21.9483 43.7427 21.992 43.8322 22.0897 43.8476C22.1747 43.8617 22.2605 43.8702 22.3466 43.8731L22.8605 43.9038L23.8728 43.9473L27.922 44.0471L36.0231 44.1903L44.1242 44.244L48.1735 44.2671L52.2305 44.2517Z" fill="black"/>
<path d="M23.8344 17.2402C23.4078 19.2865 22.9916 21.3329 22.5857 23.3792V23.4073L23.395 28.2673L24.2249 33.1273C24.7799 36.3673 25.3631 39.6073 25.9746 42.8473C25.4762 39.5937 24.9623 36.3426 24.4125 33.0966L23.5877 28.2366L22.7398 23.3766V23.4022C23.1149 21.3576 23.4798 19.3036 23.8344 17.2402Z" fill="black"/>
<path d="M46.1831 17.647C46.697 20.343 47.2203 23.0356 47.753 25.7248V25.7095C47.7855 28.6442 47.8309 31.5781 47.8891 34.5112L47.9842 38.9235L48.1152 43.3231V38.921L48.0767 34.5188C48.0459 31.5841 47.9996 28.6502 47.9379 25.7171V25.6992C47.3676 23.0083 46.7826 20.3242 46.1831 17.647Z" fill="black"/>
<path d="M15.8936 15.2222C15.6032 16.0944 15.3412 16.9743 15.0765 17.8542C14.8119 18.7342 14.5626 19.6192 14.3365 20.5093V20.5324V20.5528C14.4804 21.2025 14.6192 21.8497 14.7759 22.4943C14.9326 23.1388 15.0842 23.7732 15.2564 24.4255C15.1536 23.7681 15.038 23.1158 14.9146 22.4636C14.7913 21.8113 14.6577 21.1642 14.5292 20.5145V20.5605C14.7862 19.678 15.0123 18.7879 15.2512 17.9028C15.4902 17.0178 15.6983 16.12 15.8936 15.2222Z" fill="black"/>
<path d="M52.9688 33.4726L48.7859 33.1555L44.603 32.8715L36.2347 32.3037L27.8638 31.8049L23.6758 31.5542L19.4878 31.3394L23.6707 31.6565L27.8536 31.9405L36.2219 32.5083L44.5927 33.0097L48.7782 33.2578L52.9688 33.4726Z" fill="black"/>
<path d="M29.1123 18.4606C29.0301 18.7982 28.9633 19.141 28.8862 19.4837L28.9427 19.4402C28.2901 19.3661 27.6349 19.2868 26.9798 19.2279C26.3246 19.1691 25.672 19.1026 25.0142 19.054L25.099 19.1691L25.2969 18.2278L25.2069 18.2917C25.9315 18.3352 26.6586 18.3787 27.3857 18.3941C26.6663 18.2866 25.9443 18.2048 25.2198 18.1255H25.1478L25.1324 18.1997L24.914 19.1359L24.8883 19.2407H24.9988C25.654 19.3098 26.3092 19.3635 26.9643 19.4121C27.6195 19.4607 28.2773 19.5016 28.935 19.5426H28.9838V19.4965C29.0301 19.1538 29.0763 18.8084 29.1123 18.4606Z" fill="black"/>
<path d="M135.518 32.4062C135.775 33.7594 136.099 35.0946 136.415 36.4298L136.543 36.9414L136.574 37.0642L136.589 37.1256C136.589 37.1563 136.589 37.1256 136.615 37.1256C136.615 37.1997 136.602 37.2969 136.597 37.3814C136.571 37.7292 136.535 38.0745 136.517 38.425C136.471 39.1233 136.43 39.8216 136.415 40.5097C136.517 39.8293 136.595 39.1565 136.672 38.4864C136.71 38.1538 136.736 37.8136 136.767 37.4786L136.79 37.2228C136.799 37.1789 136.799 37.1336 136.79 37.0898L136.774 37.0284L136.746 36.9005L136.628 36.3889C136.273 35.0511 135.932 33.7184 135.518 32.4062Z" fill="black"/>
<path d="M84.0547 32.4062C83.7772 33.0892 83.5408 33.7798 83.2839 34.4705C83.027 35.1611 82.8009 35.8594 82.585 36.5603V36.5782V36.591C82.585 37.1153 82.585 37.6371 82.6133 38.159C82.6416 38.6808 82.6493 39.2051 82.6827 39.727C82.7186 39.2154 82.7392 38.6833 82.7546 38.159C82.77 37.6346 82.7752 37.1153 82.7803 36.591V36.6217C83.0244 35.9285 83.2351 35.2251 83.4612 34.5267C83.6873 33.8284 83.8748 33.1199 84.0547 32.4062Z" fill="black"/>
<path d="M139.981 37.8389L136.084 41.6962H136.104L122.158 42.1489C119.846 42.2231 117.513 42.3203 115.19 42.3766L108.217 42.3612L80.3216 42.4277L74.6562 41.0618L80.3088 42.4968L108.207 42.5633L115.18 42.5505C117.505 42.484 119.828 42.3791 122.15 42.2947L136.086 41.7499H136.102L139.981 37.8389Z" fill="black"/>
</g>
<path d="M42.6194 17.1224C42.1595 17.5905 23.9943 16.5265 23.5807 16.4804C23.167 16.4344 16.2221 15.1068 15.9009 14.7871C15.5798 14.4674 26.949 6.31791 27.9048 5.90353C28.8606 5.48915 39.3897 4.80619 40.8388 5.39195C41.9719 5.84725 43.1487 16.5827 42.6194 17.1224Z" fill="#263238"/>
<path d="M41.4396 16.6262C41.0182 17.0534 24.4229 16.0814 24.0452 16.0405C23.6675 15.9995 17.3213 14.7845 17.0284 14.5057C16.7355 14.2269 27.1104 6.76554 27.9943 6.38953C28.8781 6.01352 38.4874 5.38427 39.8132 5.91887C40.8461 6.32302 41.9226 16.1325 41.4396 16.6262Z" fill="#37474F"/>
<g opacity="0.1">
<path d="M29.9186 6.0828L41.4189 13.1221C41.2211 11.0553 40.8511 8.57163 40.4323 7.11875L38.1353 5.71446C35.3917 5.68797 32.6487 5.81093 29.9186 6.0828Z" fill="white"/>
<path d="M20.9105 11.3188L29.0938 16.3297C30.5892 16.409 32.2593 16.4909 33.8779 16.5599L22.9197 9.85059C22.244 10.3366 21.5606 10.8354 20.9105 11.3188Z" fill="white"/>
<path d="M17.5473 13.9277L19.5566 15.1581C20.037 15.2629 20.5432 15.3678 21.0391 15.4701L17.9559 13.585C17.8043 13.7103 17.6655 13.8254 17.5473 13.9277Z" fill="white"/>
</g>
<path d="M28.7773 6.21559C28.4536 6.26675 24.6973 15.9177 24.7692 16.107C24.8411 16.2962 24.0267 16.1402 24.096 16.0916C24.1654 16.043 28.207 6.73484 28.0888 6.34348C28.0271 6.13629 28.7773 6.21559 28.7773 6.21559Z" fill="#263238"/>
<path d="M107.325 17.6701C106.865 17.6701 63.9469 18.2201 62.8241 18.2201C61.7013 18.2201 46.2185 17.4757 46.0284 17.3734C45.8383 17.2711 44.3224 6.07777 44.7823 5.1646C44.9082 4.90881 65.7069 3.84473 68.2582 3.84473C70.8096 3.84473 91.7342 4.75278 92.839 4.94462C93.9438 5.13646 108.085 17.6599 107.325 17.6701Z" fill="#263238"/>
<path d="M105.989 17.1301C105.557 17.1301 65.2265 17.6417 64.1731 17.6417C63.1197 17.6417 48.1379 16.9434 47.9606 16.8462C47.7833 16.749 46.771 6.84991 47.2052 5.99302C47.3234 5.75769 67.2974 4.75244 69.6946 4.75244C72.0918 4.75244 91.7548 5.60422 92.7929 5.7756C93.8309 5.94698 106.703 17.1224 105.989 17.1301Z" fill="#37474F"/>
<path opacity="0.1" d="M75.4804 4.94189L95.6008 17.2607C99.3109 17.2172 102.42 17.1763 104.244 17.1533L84.9741 5.35116C81.8678 5.20792 78.3709 5.057 75.4804 4.94189ZM62.4976 5.04165L82.7233 17.4372L78.4017 17.4909L58.4226 5.25907L62.4976 5.04165ZM54.5326 17.2275C52.6776 17.1379 50.9356 17.0484 49.7126 16.9717L47.7753 15.7848C47.6828 15.0584 47.5672 14.0224 47.4618 12.8944L54.5326 17.2275ZM52.3282 5.58648L71.8808 17.5574H70.9275L51.4443 5.62997L52.3282 5.58648ZM89.085 5.55067L102.808 13.9508C103.561 14.6261 104.234 15.2297 104.766 15.7413L88.0213 5.49184L89.085 5.55067Z" fill="white"/>
<path d="M90.3546 28.843C90.9558 29.439 89.8946 33.1454 88.9748 33.4216C88.055 33.6979 81.755 32.8256 81.0664 32.6415C80.3778 32.4573 73.2942 30.3521 72.6955 29.7127C72.0969 29.0732 71.5471 23.8065 72.1817 23.4407C72.8163 23.0749 83.4508 25.8196 84.5993 26.1418C85.7477 26.4641 89.8484 28.3391 90.3546 28.843Z" fill="white"/>
<path d="M138.242 30.7382C137.985 31.214 136.274 32.9815 135.929 33.2245C135.585 33.4675 133.514 33.8128 133.273 33.6772C133.031 33.5417 131.731 30.6896 131.757 30.2087C131.782 29.7278 134.514 24.5149 135.004 24.6197C135.495 24.7246 138.108 26.3361 138.247 26.8502C138.385 27.3643 138.506 30.2266 138.242 30.7382Z" fill="white"/>
<path d="M138.088 30.5772C138.114 30.92 137.199 31.9815 137.089 32.1119C137.515 31.6915 137.901 31.2325 138.242 30.7409C138.499 30.2293 138.383 27.3619 138.242 26.8503C138.101 26.3388 135.483 24.7196 135.002 24.6147C135.516 24.8475 137.615 26.5485 137.728 26.9706C137.841 27.3926 138.06 30.2114 138.088 30.5772Z" fill="#DBDBDB"/>
<path d="M130.791 30.4567C130.184 30.247 117.718 29.8735 115.269 29.8735C112.821 29.8735 96.7137 30.2495 95.6089 30.6281C94.5041 31.0067 96.9886 37.5344 97.9547 38.0102C98.9208 38.486 114.442 39.7265 115.511 39.7265C116.58 39.7265 128.697 38.023 129.421 37.5421C130.146 37.0612 131.79 30.7995 130.791 30.4567Z" fill="#263238"/>
<path d="M96.1354 34.6468C96.1868 34.7798 96.2356 34.9026 96.2896 35.0433L130.636 34.4243C130.672 34.2913 130.701 34.1557 130.731 34.0176L96.1354 34.6468Z" fill="#FFC727"/>
<path d="M129.136 45.3179H96.6776C95.989 45.3179 99.5038 43.2256 100.061 43.1897C100.619 43.1539 126.066 43.1897 126.582 43.1897C127.098 43.1897 129.722 45.3179 129.136 45.3179Z" fill="#263238"/>
<path d="M137.355 43.9397C137.006 43.9986 133.401 44.0676 132.803 43.9397C132.204 43.8118 130.824 40.6759 130.917 40.2078C131.009 39.7397 133.689 38.1615 134.033 38.0438C134.378 37.9261 136.808 37.8033 137.068 38.0438C137.327 38.2842 137.679 43.8886 137.355 43.9397Z" fill="#455A64"/>
<path d="M90.6785 39.7265C91.1076 40.2816 88.1477 43.6299 87.0224 44.0417C85.897 44.4535 78.9932 44.4663 78.7363 44.3972C78.4793 44.3282 78.4793 40.8827 78.6104 40.3558C78.7414 39.8288 80.0364 37.9079 80.3216 37.7365C80.6068 37.5651 86.7963 38.0895 87.6339 38.3069C88.4715 38.5243 90.4833 39.4759 90.6785 39.7265Z" fill="#455A64"/>
<path d="M39.8651 16.0585L40.0449 15.4498C40.0449 15.4498 37.7788 13.0325 37.1313 12.7358C36.4838 12.4391 32.5065 13.1835 32.2804 13.5339C32.0543 13.8843 32.1494 15.4088 32.2033 15.6774C32.2573 15.946 35.8004 16.5496 36.399 16.5752C36.9977 16.6008 39.8651 16.0585 39.8651 16.0585Z" fill="#FFC727"/>
<path d="M40.0447 15.4497L39.8648 16.0585C39.8648 16.0585 41.373 17.1916 41.427 17.2581C41.4809 17.3246 41.391 17.6469 41.391 17.6469H42.9326V15.4497C42.7061 15.5762 42.4666 15.6782 42.2183 15.7541C41.9948 15.7925 40.0447 15.4497 40.0447 15.4497Z" fill="#FFC727"/>
</svg>
