<svg width="182" height="65" viewBox="0 0 182 65" fill="none" xmlns="http://www.w3.org/2000/svg">
<path d="M153.303 58.5585C161.178 56.7238 166.072 48.8602 164.236 40.9947C162.399 33.1292 154.526 28.2402 146.651 30.0749C138.776 31.9097 133.881 39.7732 135.718 47.6387C137.555 55.5043 145.428 60.3932 153.303 58.5585Z" fill="#263238" stroke="#263238" stroke-miterlimit="10"/>
<path d="M57.7844 54.6592C63.5024 48.9481 63.5024 39.6886 57.7844 33.9776C52.0665 28.2665 42.7958 28.2665 37.0779 33.9776C31.3599 39.6886 31.3599 48.9481 37.0779 54.6592C42.7958 60.3702 52.0665 60.3702 57.7844 54.6592Z" fill="#263238" stroke="#263238" stroke-miterlimit="10"/>
<path d="M140.101 16.6043C140.101 16.6043 136.216 14.1779 118.477 8.35228C100.739 2.52669 89.3142 0.581177 71.8219 1.07302C54.3295 1.56486 30.7528 8.11182 26.381 9.81687C22.0093 11.5219 20.0614 12.0028 21.0354 13.2106C22.0093 14.4183 27.3495 18.7957 26.6218 20.7358C25.8941 22.6758 13.999 33.3706 13.2549 35.0483C12.5108 36.7261 15.6897 42.5735 16.1712 44.0326C16.6527 45.4918 19.3337 45.9727 21.5169 46.2186C23.7 46.4645 179.227 46.2186 179.227 46.2186C179.227 46.2186 181.416 43.5517 180.929 40.1526C180.442 36.7534 179.922 32.2722 177.728 29.4031C175.955 27.075 174.123 24.6213 169.521 24.1349C166.605 23.8234 140.834 16.8502 140.101 16.6043Z" fill="#FFC727"/>
<mask id="mask0_940_1558" style="mask-type:luminance" maskUnits="userSpaceOnUse" x="13" y="1" width="168" height="46">
<path d="M140.101 16.6043C140.101 16.6043 136.216 14.1779 118.477 8.35228C100.739 2.52669 89.3142 0.581177 71.8219 1.07302C54.3295 1.56486 30.7528 8.11182 26.381 9.81687C22.0093 11.5219 20.0614 12.0028 21.0354 13.2106C22.0093 14.4183 27.3495 18.7957 26.6218 20.7358C25.8941 22.6758 13.999 33.3706 13.2549 35.0483C12.5108 36.7261 15.6897 42.5735 16.1712 44.0326C16.6527 45.4918 19.3337 45.9727 21.5169 46.2186C23.7 46.4645 179.227 46.2186 179.227 46.2186C179.227 46.2186 181.416 43.5517 180.929 40.1526C180.442 36.7534 179.922 32.2722 177.728 29.4031C175.955 27.075 174.123 24.6213 169.521 24.1349C166.605 23.8234 140.834 16.8502 140.101 16.6043Z" fill="white"/>
</mask>
<g mask="url(#mask0_940_1558)">
<path d="M140.101 16.6043C140.101 16.6043 136.216 14.1779 118.477 8.35228C100.739 2.52669 89.3142 0.581177 71.8219 1.07302C54.3295 1.56486 30.7528 8.11182 26.381 9.81687C22.0093 11.5219 20.0614 12.0028 21.0354 13.2106C22.0093 14.4183 27.3495 18.7957 26.6218 20.7358C25.8941 22.6758 13.999 33.3706 13.2549 35.0483C12.5108 36.7261 15.6897 42.5735 16.1712 44.0326C16.6527 45.4918 19.3337 45.9727 21.5169 46.2186C23.7 46.4645 179.227 46.2186 179.227 46.2186C179.227 46.2186 181.416 43.5517 180.929 40.1526C180.442 36.7534 179.922 32.2722 177.728 29.4031C175.955 27.075 174.123 24.6213 169.521 24.1349C166.605 23.8234 140.834 16.8502 140.101 16.6043Z" fill="#FFC727"/>
<mask id="mask1_940_1558" style="mask-type:luminance" maskUnits="userSpaceOnUse" x="13" y="1" width="168" height="46">
<path d="M140.101 16.6043C140.101 16.6043 136.216 14.1779 118.477 8.35228C100.739 2.52669 89.3142 0.581177 71.8219 1.07302C54.3295 1.56486 30.7528 8.11182 26.381 9.81687C22.0093 11.5219 20.0614 12.0028 21.0354 13.2106C22.0093 14.4183 27.3495 18.7957 26.6218 20.7358C25.8941 22.6758 13.999 33.3706 13.2549 35.0483C12.5108 36.7261 15.6897 42.5735 16.1712 44.0326C16.6527 45.4918 19.3337 45.9727 21.5169 46.2186C23.7 46.4645 179.227 46.2186 179.227 46.2186C179.227 46.2186 181.416 43.5517 180.929 40.1526C180.442 36.7534 179.922 32.2722 177.728 29.4031C175.955 27.075 174.123 24.6213 169.521 24.1349C166.605 23.8234 140.834 16.8502 140.101 16.6043Z" fill="white"/>
</mask>
<g mask="url(#mask1_940_1558)">
<path opacity="0.15" d="M140.101 16.6043C140.101 16.6043 136.216 14.1779 118.477 8.35228C100.739 2.52669 89.3142 0.581177 71.8219 1.07302C54.3295 1.56486 30.7528 8.11182 26.381 9.81687C22.0093 11.5219 20.0614 12.0028 21.0354 13.2106C22.0093 14.4183 27.3495 18.7957 26.6218 20.7358C25.8941 22.6758 13.999 33.3706 13.2549 35.0483C12.5108 36.7261 15.6897 42.5735 16.1712 44.0326C16.6527 45.4918 19.3337 45.9727 21.5169 46.2186C23.7 46.4645 179.227 46.2186 179.227 46.2186C179.227 46.2186 181.416 43.5517 180.929 40.1526C180.442 36.7534 179.922 32.2722 177.728 29.4031C175.955 27.075 174.123 24.6213 169.521 24.1349C166.605 23.8234 140.834 16.8502 140.101 16.6043Z" fill="black"/>
</g>
</g>
<path d="M140.101 16.6043C140.101 16.6043 136.216 14.1779 118.477 8.35228C100.739 2.52669 89.3142 0.581177 71.8219 1.07302C54.3295 1.56486 30.7528 8.11182 26.381 9.81687C22.0093 11.5219 20.0614 12.0028 21.0354 13.2106C22.0093 14.4183 27.3495 18.7957 26.6218 20.7358C25.8941 22.6758 13.999 33.3706 13.2549 35.0483C12.5108 36.7261 15.6897 42.5735 16.1712 44.0326C16.6527 45.4918 19.3337 45.9727 21.5169 46.2186C23.7 46.4645 179.227 46.2186 179.227 46.2186C179.227 46.2186 181.416 43.5517 180.929 40.1526C180.442 36.7534 179.922 32.2722 177.728 29.4031C175.955 27.075 174.123 24.6213 169.521 24.1349C166.605 23.8234 140.834 16.8502 140.101 16.6043Z" stroke="#263238" stroke-miterlimit="10"/>
<path d="M179.227 33.5947H169.991V36.0211H179.227V33.5947Z" fill="#263238" stroke="#263238" stroke-miterlimit="10"/>
<path d="M165.56 29.3975H167.031C167.973 29.3956 168.893 29.6757 169.674 30.2018C170.454 30.7279 171.058 31.4757 171.409 32.3485L172.891 36.0209H168.076L165.56 29.3975Z" fill="white" stroke="#263238" stroke-miterlimit="10"/>
<path d="M179.113 31.8789C179.058 32.0319 179.009 32.1849 178.965 32.3489L177.975 36.0213H180.284C180.028 34.6059 179.636 33.2186 179.113 31.8789Z" fill="white" stroke="#263238" stroke-miterlimit="10"/>
<path d="M140.101 16.6043C140.101 16.6043 136.216 14.1779 118.478 8.3523C114.423 7.02432 110.708 5.89855 107.168 4.95312H94.6603L91.9902 5.68542L127.954 16.6152L140.101 16.6043Z" fill="#263238" stroke="#263238" stroke-miterlimit="10"/>
<path d="M9.12988 12.7129V29.1076C9.12988 29.1076 19.1208 20.9102 17.8843 18.5767C16.6477 16.2432 9.12988 12.7129 9.12988 12.7129Z" fill="#8F8F8F" stroke="#263238" stroke-miterlimit="10"/>
<path d="M127.954 16.6043C127.954 16.6043 124.064 14.1779 106.325 8.35228C88.5868 2.52669 77.1677 0.581177 59.6699 1.07302C42.172 1.56486 18.6008 8.11182 14.2564 9.81687C9.91203 11.5219 7.93682 12.0028 8.91075 13.2106C9.88467 14.4183 15.2303 18.7957 14.4972 20.7358C13.764 22.6758 1.8361 33.3706 1.10839 35.0483C0.380677 36.7261 3.53773 42.5735 4.02469 44.0326C4.51166 45.4918 7.18175 45.9727 9.37035 46.2186C11.559 46.4645 167.075 46.2186 167.075 46.2186C167.075 46.2186 169.264 43.5517 168.777 40.1526C168.29 36.7534 167.748 32.2776 165.56 29.3976C163.787 27.0696 161.949 24.6158 157.353 24.1295C154.458 23.8234 128.682 16.8502 127.954 16.6043Z" fill="#FFC727"/>
<mask id="mask2_940_1558" style="mask-type:luminance" maskUnits="userSpaceOnUse" x="1" y="1" width="168" height="46">
<path d="M127.954 16.6043C127.954 16.6043 124.064 14.1779 106.325 8.35228C88.5868 2.52669 77.1677 0.581177 59.6699 1.07302C42.172 1.56486 18.6008 8.11182 14.2564 9.81687C9.91203 11.5219 7.93682 12.0028 8.91075 13.2106C9.88467 14.4183 15.2303 18.7957 14.4972 20.7358C13.764 22.6758 1.8361 33.3706 1.10839 35.0483C0.380677 36.7261 3.53773 42.5735 4.02469 44.0326C4.51166 45.4918 7.18175 45.9727 9.37035 46.2186C11.559 46.4645 167.075 46.2186 167.075 46.2186C167.075 46.2186 169.264 43.5517 168.777 40.1526C168.29 36.7534 167.748 32.2776 165.56 29.3976C163.787 27.0696 161.949 24.6158 157.353 24.1295C154.458 23.8234 128.682 16.8502 127.954 16.6043Z" fill="white"/>
</mask>
<g mask="url(#mask2_940_1558)">
<path opacity="0.15" d="M165.559 29.3973C163.787 27.0693 161.948 24.6155 157.352 24.1292C156.586 24.0472 154.217 23.5007 151.137 22.7356C136.451 22.5881 128.271 28.5175 106.33 30.5285C77.7583 33.1408 57.9897 26.0091 34.1778 23.1509C24.247 21.965 16.2312 23.4242 10.2509 25.5227C6.5029 29.3044 1.56213 33.9769 1.10253 35.048C0.374817 36.7476 3.53188 42.5732 4.01884 44.0323C4.5058 45.4915 7.17589 45.9724 9.3645 46.2183C11.5531 46.4642 167.07 46.2183 167.07 46.2183C167.07 46.2183 169.258 43.5514 168.771 40.1523C168.284 36.7531 167.748 32.2773 165.559 29.3973Z" fill="black"/>
</g>
<path d="M127.954 16.6043C127.954 16.6043 124.064 14.1779 106.325 8.35228C88.5868 2.52669 77.1677 0.581177 59.6699 1.07302C42.172 1.56486 18.6008 8.11182 14.2564 9.81687C9.91203 11.5219 7.93682 12.0028 8.91075 13.2106C9.88467 14.4183 15.2303 18.7957 14.4972 20.7358C13.764 22.6758 1.8361 33.3706 1.10839 35.0483C0.380677 36.7261 3.53773 42.5735 4.02469 44.0326C4.51166 45.4918 7.18175 45.9727 9.37035 46.2186C11.559 46.4645 167.075 46.2186 167.075 46.2186C167.075 46.2186 169.264 43.5517 168.777 40.1526C168.29 36.7534 167.748 32.2776 165.56 29.3976C163.787 27.0696 161.949 24.6158 157.353 24.1295C154.458 23.8234 128.682 16.8502 127.954 16.6043Z" stroke="#263238" stroke-miterlimit="10"/>
<path d="M36.0547 7.65256L45.7776 17.9102H117.246V15.5821C117.246 15.5821 102.599 9.83852 87.1531 6.83829C71.707 3.83806 67.8496 4.10583 60.8898 4.23699C53.9301 4.36815 36.0547 7.65256 36.0547 7.65256Z" fill="#8F8F8F"/>
<mask id="mask3_940_1558" style="mask-type:luminance" maskUnits="userSpaceOnUse" x="36" y="4" width="82" height="14">
<path d="M36.0547 7.65256L45.7776 17.9102H117.246V15.5821C117.246 15.5821 102.599 9.83852 87.1531 6.83829C71.707 3.83806 67.8496 4.10583 60.8898 4.23699C53.9301 4.36815 36.0547 7.65256 36.0547 7.65256Z" fill="white"/>
</mask>
<g mask="url(#mask3_940_1558)">
<path d="M70.9024 13.4234C61.805 11.3486 52.288 12.1331 43.6543 15.6694L45.7772 17.91H117.246V15.582C117.246 15.582 114.877 14.653 111.036 13.3469C102.998 16.4291 87.0543 16.9756 70.9024 13.4234Z" fill="#263238" stroke="#263238" stroke-miterlimit="10"/>
</g>
<path d="M36.0547 7.65256L45.7776 17.9102H117.246V15.5821C117.246 15.5821 102.599 9.83852 87.1531 6.83829C71.707 3.83806 67.8496 4.10583 60.8898 4.23699C53.9301 4.36815 36.0547 7.65256 36.0547 7.65256Z" stroke="#263238" stroke-width="4" stroke-miterlimit="10"/>
<path d="M68.3701 19.2764V41.5677" stroke="#263238" stroke-miterlimit="10"/>
<path d="M34.202 58.5735C42.079 56.7471 46.982 48.8886 45.1534 41.0212C43.3247 33.1537 35.4568 28.2566 27.5798 30.083C19.7029 31.9095 14.7998 39.768 16.6285 47.6354C18.4572 55.5028 26.3251 60.4 34.202 58.5735Z" fill="#263238" stroke="#263238" stroke-miterlimit="10"/>
<path d="M30.9063 33.7637C28.8159 33.7637 26.7726 34.383 25.0347 35.5433C23.2969 36.7035 21.9427 38.3526 21.1435 40.2818C20.3443 42.2111 20.136 44.3337 20.545 46.3812C20.954 48.4286 21.9619 50.3089 23.4412 51.7841C24.9204 53.2593 26.8046 54.263 28.8551 54.6684C30.9057 55.0737 33.0306 54.8624 34.9609 54.0611C36.8912 53.2599 38.5402 51.9048 39.6991 50.1673C40.8581 48.4297 41.475 46.3878 41.4718 44.3C41.466 41.5045 40.3504 38.8255 38.3698 36.8503C36.3892 34.8751 33.7051 33.7651 30.9063 33.7637ZM38.0192 42.2015L31.8638 43.3546L33.6092 37.4252C34.6562 37.8375 35.5959 38.4815 36.3578 39.3088C37.1198 40.1361 37.6841 41.1251 38.0083 42.2015H38.0192ZM31.4534 43.7863V44.8465H30.3974V43.7863H31.4534ZM28.8107 37.2284L29.9652 43.3764L24.0231 41.6277C24.4306 40.5837 25.0696 39.6454 25.8921 38.8835C26.7147 38.1216 27.6995 37.5557 28.7724 37.2284H28.8107ZM23.8262 46.4313L29.9816 45.2782L28.2252 51.2077C27.1733 50.8005 26.2286 50.1584 25.4633 49.3306C24.698 48.5027 24.1324 47.511 23.8097 46.4313H23.8262ZM33.0402 51.4044L31.8857 45.2618L37.8113 47.0325C37.3966 48.0755 36.7502 49.011 35.9209 49.7683C35.0916 50.5256 34.101 51.085 33.0238 51.4044H33.0402Z" fill="white" stroke="#263238" stroke-miterlimit="10"/>
<path d="M34.184 44.3004C34.184 43.6519 33.9914 43.018 33.6307 42.4787C33.27 41.9395 32.7573 41.5193 32.1574 41.2711C31.5575 41.0229 30.8974 40.958 30.2606 41.0845C29.6238 41.211 29.0388 41.5233 28.5797 41.9819C28.1206 42.4404 27.8079 43.0247 27.6812 43.6607C27.5546 44.2968 27.6196 44.9561 27.8681 45.5552C28.1165 46.1544 28.5373 46.6665 29.0772 47.0268C29.6171 47.3871 30.2518 47.5794 30.9011 47.5794C31.7717 47.5794 32.6068 47.2339 33.2224 46.619C33.8381 46.0041 34.184 45.1701 34.184 44.3004Z" fill="white" stroke="#263238" stroke-miterlimit="10"/>
<path d="M144.295 54.6592C150.013 48.9481 150.013 39.6886 144.295 33.9776C138.577 28.2665 129.307 28.2665 123.589 33.9776C117.871 39.6886 117.871 48.9481 123.589 54.6592C129.307 60.3702 138.577 60.3702 144.295 54.6592Z" fill="#263238" stroke="#263238" stroke-miterlimit="10"/>
<path d="M133.94 33.7637C131.85 33.7637 129.807 34.383 128.069 35.5433C126.331 36.7035 124.977 38.3526 124.178 40.2818C123.378 42.2111 123.17 44.3337 123.579 46.3812C123.988 48.4286 124.996 50.3089 126.475 51.7841C127.955 53.2593 129.839 54.263 131.889 54.6684C133.94 55.0737 136.065 54.8624 137.995 54.0611C139.925 53.2599 141.574 51.9048 142.733 50.1673C143.892 48.4297 144.509 46.3878 144.506 44.3C144.5 41.5045 143.385 38.8255 141.404 36.8503C139.423 34.8751 136.739 33.7651 133.94 33.7637ZM141.053 42.2015L134.903 43.3546L136.649 37.4252C137.694 37.8379 138.633 38.4821 139.393 39.3095C140.153 40.1368 140.715 41.1256 141.037 42.2015H141.053ZM134.488 43.7863V44.8465H133.426V43.7863H134.488ZM131.839 37.2284L132.994 43.3764L127.057 41.6277C127.466 40.5815 128.107 39.6418 128.933 38.8796C129.758 38.1174 130.747 37.5528 131.823 37.2284H131.839ZM126.86 46.4313L133.016 45.2782L131.265 51.2077C130.212 50.8008 129.267 50.159 128.5 49.3311C127.734 48.5033 127.167 47.5114 126.844 46.4313H126.86ZM136.074 51.4044L134.92 45.2618L140.84 47.0325C140.427 48.0754 139.781 49.0108 138.953 49.7681C138.124 50.5255 137.135 51.085 136.058 51.4044H136.074Z" fill="white" stroke="#263238" stroke-miterlimit="10"/>
<path d="M137.217 44.3004C137.217 43.6519 137.025 43.018 136.664 42.4787C136.303 41.9395 135.79 41.5193 135.191 41.2711C134.591 41.0229 133.931 40.958 133.294 41.0845C132.657 41.211 132.072 41.5233 131.613 41.9819C131.154 42.4404 130.841 43.0247 130.714 43.6607C130.588 44.2968 130.653 44.9561 130.901 45.5552C131.15 46.1544 131.571 46.6665 132.11 47.0268C132.65 47.3871 133.285 47.5794 133.934 47.5794C134.805 47.5794 135.64 47.2339 136.256 46.619C136.871 46.0041 137.217 45.1701 137.217 44.3004Z" fill="white" stroke="#263238" stroke-miterlimit="10"/>
<path d="M165.56 29.3972C165.56 29.3972 154.66 28.8507 154.173 29.3972C153.686 29.9437 157.817 34.3156 159.278 35.2938C160.433 36.0644 165.872 35.9168 168.071 35.8403C167.628 33.4904 166.911 31.146 165.56 29.3972Z" fill="white" stroke="#263238" stroke-miterlimit="10"/>
<path d="M70.1586 4.30794C69.4418 4.25875 68.7688 4.22596 68.1122 4.2041L66.2793 17.8664H71.138L70.1586 4.30794Z" fill="#263238" stroke="#263238" stroke-miterlimit="10"/>
</svg>
