<svg width="20" height="20" viewBox="0 0 20 20" fill="none" xmlns="http://www.w3.org/2000/svg">
<path d="M9.99984 1.66675C5.39984 1.66675 1.6665 5.40008 1.6665 10.0001C1.6665 14.6001 5.39984 18.3334 9.99984 18.3334C14.5998 18.3334 18.3332 14.6001 18.3332 10.0001C18.3332 5.40008 14.5998 1.66675 9.99984 1.66675ZM7.27484 6.38341C7.94984 6.38341 8.50817 6.93341 8.50817 7.61675C8.50817 8.29175 7.95817 8.85008 7.27484 8.85008C6.59984 8.85008 6.0415 8.30008 6.0415 7.61675C6.0415 6.93341 6.5915 6.38341 7.27484 6.38341ZM7.37484 13.1667C7.24984 13.2917 7.0915 13.3501 6.93317 13.3501C6.77484 13.3501 6.6165 13.2917 6.4915 13.1667C6.24984 12.9251 6.24984 12.5251 6.4915 12.2834L11.9498 6.82508C12.1915 6.58341 12.5915 6.58341 12.8332 6.82508C13.0748 7.06675 13.0748 7.46675 12.8332 7.70841L7.37484 13.1667ZM12.7248 13.6167C12.0498 13.6167 11.4915 13.0667 11.4915 12.3834C11.4915 11.7084 12.0415 11.1501 12.7248 11.1501C13.3998 11.1501 13.9582 11.7001 13.9582 12.3834C13.9582 13.0667 13.4082 13.6167 12.7248 13.6167Z" fill="#E7EEFC"/>
</svg>
