<svg width="431" height="333" viewBox="0 0 431 333" fill="none" xmlns="http://www.w3.org/2000/svg">
<path d="M243.374 255.266C243.374 255.266 239.914 231.526 240.207 217.719C240.5 203.912 240.189 188.369 240.189 188.369H241.781C241.781 188.369 240.701 215.782 241.873 232.321C243.044 248.842 246.138 255.275 246.138 255.275H243.374" fill="#E0E0E0"/>
<path d="M253.677 161.659C253.357 160.846 252.964 160.005 252.222 159.539C251.216 158.9 249.889 159.165 248.754 159.567C243.941 161.266 239.677 170.23 237.728 174.945L244.115 196.446C255.654 185.755 257.649 171.738 253.668 161.659H253.677Z" fill="#E0E0E0"/>
<path d="M251.848 160.407C251.848 160.407 251.82 160.508 251.756 160.691C251.674 160.901 251.573 161.157 251.445 161.477C251.162 162.153 250.768 163.14 250.301 164.355C249.359 166.795 248.16 170.212 247.089 174.059C246.018 177.906 245.286 181.452 244.829 184.029C244.6 185.317 244.426 186.359 244.316 187.09C244.261 187.428 244.215 187.702 244.179 187.921C244.142 188.113 244.124 188.214 244.115 188.214C244.115 188.214 244.115 188.113 244.124 187.921C244.151 187.702 244.179 187.419 244.215 187.081C244.298 186.349 244.435 185.299 244.646 184.001C245.057 181.415 245.762 177.851 246.833 173.995C247.904 170.139 249.139 166.722 250.127 164.291C250.622 163.076 251.043 162.098 251.354 161.44C251.5 161.129 251.619 160.874 251.711 160.672C251.793 160.499 251.848 160.407 251.848 160.417V160.407Z" fill="#EBEBEB"/>
<path d="M241.278 201.6C235.284 198.292 231.752 192.079 231.423 185.253C231.194 180.483 232.658 175.795 234.323 171.318C234.47 170.925 234.635 170.514 235.001 170.303C235.504 170.02 236.135 170.276 236.629 170.559C240.985 173.036 243.621 177.751 245.021 182.557C245.954 185.755 246.439 189.118 246.009 192.426C245.579 195.734 243.685 199.316 241.269 201.609" fill="#EBEBEB"/>
<path d="M241.278 201.6C241.278 201.6 241.26 201.5 241.251 201.308C241.251 201.089 241.242 200.815 241.233 200.486C241.233 199.773 241.205 198.731 241.141 197.452C241.022 194.893 240.693 191.366 240.025 187.519C239.357 183.663 238.551 180.218 237.956 177.723C237.663 176.508 237.426 175.503 237.252 174.772C237.178 174.443 237.114 174.178 237.069 173.968C237.032 173.785 237.014 173.685 237.023 173.685C237.023 173.685 237.069 173.776 237.124 173.959C237.188 174.169 237.261 174.434 237.352 174.754C237.554 175.439 237.819 176.444 238.139 177.687C238.78 180.172 239.613 183.617 240.281 187.483C240.94 191.348 241.251 194.884 241.315 197.452C241.352 198.731 241.352 199.773 241.315 200.495C241.306 200.833 241.288 201.107 241.278 201.317C241.269 201.509 241.26 201.6 241.251 201.6H241.278Z" fill="#E0E0E0"/>
<path d="M248.041 237.923C253.934 239.22 258.793 243.369 264.475 245.388C268.236 246.723 272.491 247.198 275.502 249.829C274.779 248.011 273.068 246.805 271.412 245.763C266.736 242.848 261.721 240.454 256.514 238.663C253.842 237.74 250.932 236.972 248.205 237.731" fill="#EBEBEB"/>
<path d="M239.512 243.168C232.127 243.049 224.349 236.771 217.001 236.397C224.697 233.92 235.705 235.94 239.512 243.168Z" fill="#EBEBEB"/>
<path d="M242.403 225.477C246.155 224.125 250.273 224.061 254.208 224.673C258.143 225.285 261.949 226.547 265.729 227.798C265.353 225.24 263.276 223.312 261.327 221.612C259.863 220.333 258.381 219.044 256.697 218.057C255.013 217.07 253.091 216.412 251.151 216.495C248.8 216.595 246.567 217.801 245.03 219.574C243.492 221.347 242.66 223.129 242.403 225.468" fill="#EBEBEB"/>
<path d="M227.25 217.336C222.601 213.37 215.564 213.763 209.452 213.9C218.84 218.386 228.97 224.536 237.059 231.079C237.307 226.766 233.125 222.343 227.259 217.336H227.25Z" fill="#455A64"/>
<path d="M227.25 217.336C222.601 213.37 215.564 213.763 209.452 213.9C218.84 218.386 228.97 224.536 237.059 231.079C237.307 226.766 233.125 222.343 227.259 217.336H227.25Z" fill="#EBEBEB"/>
<path d="M244.49 211.863C246.823 210.309 249.193 208.82 251.637 207.714C254.08 206.608 256.368 204.835 258.728 203.556C261.794 201.902 264.448 199.599 267.257 197.543C270.066 195.487 273.159 193.632 276.6 193.093C273.791 192.517 270.862 192.828 268.099 193.586C265.335 194.336 262.709 195.524 260.092 196.693C256.468 198.329 252.781 199.992 249.816 202.642C246.851 205.292 244.17 207.906 244.49 211.863Z" fill="#EBEBEB"/>
<path d="M264.347 243.168C264.347 243.168 264.264 243.141 264.109 243.067C263.935 242.976 263.724 242.866 263.468 242.739C262.91 242.446 262.114 242.007 261.107 241.505C260.613 241.24 260.055 240.966 259.46 240.692C258.865 240.399 258.225 240.107 257.539 239.814C256.175 239.23 254.656 238.626 252.991 238.233C251.334 237.831 249.687 237.74 248.251 238.115C247.528 238.288 246.85 238.462 246.247 238.709C245.643 238.955 245.094 239.239 244.627 239.54C243.684 240.134 243.016 240.765 242.595 241.222C242.165 241.679 241.964 241.962 241.937 241.944C241.937 241.944 241.973 241.861 242.065 241.724C242.156 241.587 242.303 241.395 242.513 241.149C242.925 240.664 243.574 240.006 244.526 239.385C245.002 239.074 245.551 238.773 246.164 238.508C246.777 238.243 247.473 238.06 248.196 237.877C249.66 237.475 251.371 237.566 253.046 237.978C254.729 238.38 256.267 239.001 257.63 239.595C258.316 239.897 258.957 240.198 259.543 240.5C260.137 240.792 260.686 241.075 261.181 241.35C262.178 241.88 262.965 242.336 263.505 242.665C263.752 242.812 263.953 242.94 264.127 243.04C264.264 243.131 264.338 243.177 264.338 243.186L264.347 243.168Z" fill="#E0E0E0"/>
<path d="M234.003 239.513C234.003 239.513 234.177 239.54 234.47 239.65C234.763 239.75 235.174 239.924 235.669 240.171C236.666 240.664 237.966 241.496 239.201 242.665C240.428 243.844 241.315 245.114 241.846 246.083C242.111 246.567 242.304 246.969 242.413 247.262C242.532 247.545 242.587 247.709 242.569 247.719C242.523 247.737 242.249 247.115 241.681 246.174C241.114 245.242 240.217 244.008 239.018 242.848C237.81 241.697 236.547 240.847 235.586 240.326C234.625 239.796 233.994 239.549 234.003 239.503V239.513Z" fill="#E0E0E0"/>
<path d="M217.669 216.97C217.669 216.97 217.779 216.997 217.98 217.061C218.209 217.143 218.502 217.244 218.868 217.372C219.261 217.518 219.728 217.692 220.268 217.884C220.808 218.085 221.403 218.386 222.071 218.679C224.733 219.885 228.266 221.913 231.688 224.792C233.372 226.254 234.9 227.744 236.172 229.196C237.444 230.659 238.514 232.029 239.356 233.226C240.198 234.414 240.839 235.41 241.278 236.096C241.488 236.425 241.653 236.681 241.781 236.891C241.891 237.073 241.955 237.174 241.946 237.174C241.946 237.174 241.864 237.092 241.736 236.918C241.607 236.745 241.415 236.489 241.186 236.151C240.72 235.483 240.061 234.506 239.201 233.327C238.35 232.148 237.261 230.796 235.989 229.352C234.708 227.917 233.189 226.437 231.514 224.984C228.119 222.124 224.624 220.077 221.988 218.834C221.329 218.532 220.744 218.222 220.204 218.002C219.673 217.792 219.216 217.6 218.831 217.445C218.474 217.299 218.191 217.18 217.962 217.089C217.761 217.006 217.66 216.952 217.669 216.942V216.97Z" fill="#E0E0E0"/>
<path d="M253.476 221.329C253.476 221.329 253.265 221.32 252.89 221.256C252.689 221.219 252.46 221.173 252.213 221.128C251.948 221.073 251.646 221.073 251.307 221.036C249.98 220.936 248.04 221.045 246.228 222.032C245.313 222.498 244.545 223.12 243.922 223.741C243.282 224.362 242.806 225.011 242.44 225.578C241.699 226.711 241.47 227.524 241.424 227.515C241.406 227.515 241.452 227.305 241.571 226.939C241.708 226.583 241.918 226.062 242.275 225.477C242.623 224.892 243.099 224.216 243.749 223.577C244.38 222.928 245.167 222.279 246.11 221.804C247.976 220.79 249.98 220.707 251.325 220.853C251.664 220.899 251.975 220.917 252.24 220.981C252.488 221.045 252.716 221.1 252.918 221.155C253.284 221.256 253.485 221.31 253.485 221.329H253.476Z" fill="#E0E0E0"/>
<path d="M260.897 198.347C260.897 198.347 260.806 198.411 260.614 198.521C260.403 198.64 260.129 198.786 259.79 198.969C259.076 199.352 258.042 199.919 256.789 200.659C255.544 201.408 254.071 202.322 252.515 203.437C250.96 204.552 249.285 205.859 247.739 207.43C246.979 208.225 246.274 209.057 245.789 209.952C245.304 210.884 244.847 211.78 244.417 212.639C243.566 214.357 242.87 215.938 242.367 217.299C241.864 218.661 241.553 219.794 241.37 220.58C241.177 221.366 241.113 221.814 241.086 221.814C241.086 221.814 241.086 221.704 241.113 221.485C241.141 221.274 241.187 220.955 241.269 220.562C241.425 219.758 241.708 218.615 242.193 217.235C242.678 215.856 243.355 214.256 244.206 212.529C244.627 211.661 245.085 210.766 245.57 209.834C246.082 208.892 246.787 208.052 247.565 207.248C249.129 205.648 250.813 204.351 252.387 203.236C253.961 202.13 255.453 201.226 256.715 200.495C257.987 199.773 259.031 199.233 259.763 198.877C260.11 198.713 260.394 198.576 260.614 198.475C260.806 198.384 260.916 198.338 260.916 198.347H260.897Z" fill="#E0E0E0"/>
<path d="M240.199 220.671C240.199 220.671 240.126 220.452 240.052 220.05C239.97 219.593 239.86 219.026 239.732 218.35C239.448 216.915 239.018 214.942 238.332 212.812C237.655 210.692 236.831 208.837 236.227 207.503C235.943 206.873 235.696 206.343 235.504 205.922C235.339 205.548 235.248 205.338 235.266 205.328C235.284 205.328 235.394 205.511 235.595 205.877C235.788 206.233 236.071 206.763 236.392 207.421C237.041 208.737 237.902 210.583 238.579 212.721C239.265 214.859 239.677 216.851 239.906 218.304C240.025 219.026 240.107 219.62 240.144 220.022C240.19 220.434 240.208 220.653 240.19 220.662L240.199 220.671Z" fill="#E0E0E0"/>
<path d="M239.658 203.894C239.475 201.107 238.56 198.402 237.261 195.935C233.673 189.164 226.939 184.156 219.426 182.648C224.935 190.845 230.434 199.032 235.943 207.229L238.075 211.615C239.53 209.23 239.85 206.681 239.667 203.894H239.658Z" fill="#E0E0E0"/>
<path d="M263.35 252.333H224.953V259.132H263.35V252.333Z" fill="#EBEBEB"/>
<path d="M227.817 257.779L231.084 278.861H256.578L260.486 257.779H227.817Z" fill="#EBEBEB"/>
<path d="M263.331 259.132C263.331 259.205 254.675 259.269 243.987 259.269C233.299 259.269 224.642 259.205 224.642 259.132C224.642 259.059 233.299 258.995 243.987 258.995C254.675 258.995 263.331 259.059 263.331 259.132Z" fill="#E0E0E0"/>
<path d="M431 279.125C431 279.252 334.505 279.362 215.509 279.362C96.5129 279.362 0 279.252 0 279.125C0 278.997 96.4671 278.887 215.509 278.887C334.551 278.887 431 278.997 431 279.125Z" fill="#4F4747"/>
<path d="M199.157 155.765C199.157 155.765 201.985 110.698 202.772 106.504C203.357 103.333 269.362 104.439 269.49 106.504C269.618 108.569 266.562 155.455 266.562 155.455C263.322 156.67 199.157 155.765 199.157 155.765Z" fill="#455A64"/>
<path d="M241.342 153.079C226.573 153.079 209.333 152.878 202.36 152.796C203.385 136.677 204.867 114.892 205.535 108.578C208.244 108.103 215.665 107.518 231.203 107.518C246.741 107.518 261.336 108.13 266.406 108.761C266.086 115.578 264.74 136.923 263.716 152.759C261.025 152.914 254.958 153.079 241.342 153.079Z" fill="#E0E0E0"/>
<path d="M266.552 155.455H177.076V158.9H266.552V155.455Z" fill="#455A64"/>
<path d="M238.002 115.02H216.068C215.128 115.02 214.366 115.781 214.366 116.72V135.197C214.366 136.136 215.128 136.896 216.068 136.896H238.002C238.942 136.896 239.704 136.136 239.704 135.197V116.72C239.704 115.781 238.942 115.02 238.002 115.02Z" fill="white"/>
<path d="M250.676 125.949H228.742C227.802 125.949 227.04 126.71 227.04 127.648V146.125C227.04 147.064 227.802 147.825 228.742 147.825H250.676C251.616 147.825 252.378 147.064 252.378 146.125V127.648C252.378 126.71 251.616 125.949 250.676 125.949Z" fill="white"/>
<path d="M196.155 142.918C196.155 142.918 195.789 140.706 193.941 140.268C192.092 139.829 189.585 140.268 189.585 140.268H170.625C170.625 140.268 170.991 154.048 171.585 154.633C172.18 155.227 189.219 155.373 189.512 154.633C189.804 153.893 189.512 150.95 189.512 150.95C189.512 150.95 197.034 148.666 196.155 142.918ZM189.786 148.775C189.466 148.812 189.548 141.73 189.548 141.73C189.548 141.73 194.243 140.651 194.444 143.091C194.755 146.929 190.116 148.739 189.795 148.775H189.786Z" fill="#E0E0E0"/>
<path d="M179.739 140.926C184.772 140.926 188.853 140.611 188.853 140.222C188.853 139.833 184.772 139.518 179.739 139.518C174.705 139.518 170.625 139.833 170.625 140.222C170.625 140.611 174.705 140.926 179.739 140.926Z" fill="#E0E0E0"/>
<path d="M180.709 157.785C189.669 157.785 196.933 157.02 196.933 156.076C196.933 155.132 189.669 154.367 180.709 154.367C171.748 154.367 164.484 155.132 164.484 156.076C164.484 157.02 171.748 157.785 180.709 157.785Z" fill="#E0E0E0"/>
<path d="M168.831 156.816C168.831 156.816 169.865 158.068 171.046 158.287C172.226 158.507 190.518 158.58 191.031 158.287C191.543 157.995 192.879 157.2 192.879 157.2L168.831 156.807V156.816Z" fill="#E0E0E0"/>
<path d="M188.908 155.519C188.917 155.573 187.993 155.857 186.446 156.14C184.909 156.423 182.74 156.679 180.343 156.697C177.945 156.706 175.777 156.478 174.239 156.213C172.693 155.948 171.759 155.674 171.769 155.619C171.787 155.546 172.739 155.701 174.285 155.875C175.832 156.058 177.973 156.231 180.343 156.213C182.713 156.195 184.854 156.003 186.392 155.802C187.938 155.61 188.89 155.445 188.899 155.509L188.908 155.519Z" fill="#4F4747"/>
<path d="M380.094 37.8339C381.046 36.381 381.064 34.3798 380.14 32.9178C379.216 31.4466 377.404 30.5968 375.684 30.8161C373.588 27.7458 369.168 26.5123 365.783 28.0565L330.232 44.0384C331.147 49.4571 333.325 60.4041 335.53 65.4298C337.736 70.4556 341.387 75.0793 346.41 77.3089C352.011 79.8035 358.453 79.0542 364.529 78.2592C367.549 77.8663 370.742 77.3911 373.057 75.4174C375.125 73.6447 376.132 70.9673 377.056 68.4087C378.74 63.7394 380.424 59.07 382.108 54.4006C383.142 51.5314 384.185 48.589 384.157 45.5461C384.121 42.4941 382.785 39.2777 380.094 37.8339Z" fill="#4F4747"/>
<path d="M370.614 40.6299L356.046 34.0964L352.157 34.3797C343.436 34.0325 337.003 43.3621 336.637 50.4164C336.226 58.2475 336.043 67.8238 337.031 73.6445C339.026 85.3591 348.909 86.7663 348.909 86.7663L348.771 96.4889L370.019 86.3825L374.366 44.7876C374.384 42.6402 372.755 40.8401 370.623 40.639L370.614 40.6299Z" fill="#AE7461"/>
<path d="M339.886 59.6456C339.868 60.4406 340.527 61.1168 341.36 61.1442C342.192 61.1807 342.879 60.5685 342.897 59.7735C342.915 58.9785 342.256 58.3023 341.424 58.2657C340.591 58.2292 339.904 58.8414 339.886 59.6364V59.6456Z" fill="#4F4747"/>
<path d="M339.117 54.4462C339.31 54.6381 340.435 53.7883 342.064 53.77C343.684 53.7334 344.883 54.5559 345.057 54.3548C345.139 54.2635 344.947 53.9162 344.425 53.5416C343.913 53.176 343.034 52.8196 342.028 52.8288C341.021 52.8471 340.17 53.2309 339.685 53.6147C339.191 53.9985 339.026 54.364 339.117 54.4462Z" fill="#4F4747"/>
<path d="M348.964 67.5777C348.964 67.4863 347.958 67.3218 346.319 67.1299C345.908 67.0933 345.514 67.0111 345.441 66.7278C345.34 66.4263 345.505 65.9785 345.706 65.5033C346.081 64.4981 346.484 63.4473 346.896 62.3416C348.543 57.8365 349.742 54.1356 349.559 54.0716C349.376 54.0077 347.893 57.6081 346.237 62.104C345.843 63.2188 345.459 64.2697 345.102 65.284C344.947 65.7592 344.69 66.2892 344.901 66.9106C345.02 67.2213 345.322 67.4406 345.587 67.5045C345.853 67.5868 346.091 67.5868 346.292 67.5959C347.939 67.669 348.955 67.6599 348.964 67.5685V67.5777Z" fill="#4F4747"/>
<path d="M348.89 86.7481C348.89 86.7481 356.806 87.1685 364.584 82.3801C364.584 82.3801 360.622 91.7649 348.845 90.7963L348.881 86.7481H348.89Z" fill="#E7EEFC"/>
<path d="M339.922 48.8082C340.197 49.2011 341.442 48.927 342.888 49.0275C344.343 49.0823 345.551 49.5027 345.862 49.1372C345.999 48.9636 345.844 48.5798 345.331 48.1868C344.828 47.7939 343.968 47.4375 342.97 47.3827C341.972 47.3278 341.076 47.5837 340.545 47.9218C339.996 48.2599 339.804 48.6163 339.922 48.8082Z" fill="#4F4747"/>
<path d="M355.973 60.4588C355.973 61.2538 355.314 61.9209 354.482 61.9392C353.649 61.9666 352.972 61.336 352.962 60.541C352.962 59.746 353.621 59.079 354.454 59.0607C355.287 59.0333 355.964 59.6638 355.973 60.4588Z" fill="#4F4747"/>
<path d="M359.799 54.775C359.606 54.9669 358.49 54.0897 356.861 54.0531C355.241 53.9892 354.033 54.7933 353.859 54.5923C353.777 54.5009 353.978 54.1536 354.5 53.7881C355.021 53.4226 355.9 53.0845 356.907 53.1119C357.913 53.1485 358.755 53.5414 359.231 53.9343C359.716 54.3273 359.881 54.6928 359.789 54.775H359.799Z" fill="#4F4747"/>
<path d="M360.302 49.5576C359.973 49.914 358.728 49.5028 357.227 49.448C355.726 49.3474 354.445 49.6216 354.161 49.2286C354.033 49.0368 354.244 48.6712 354.811 48.3423C355.369 48.0133 356.294 47.7483 357.328 47.8031C358.362 47.8579 359.25 48.2143 359.762 48.6073C360.284 49.0002 360.448 49.384 360.302 49.5576Z" fill="#4F4747"/>
<path d="M371.484 64.3699C371.484 63.4926 372.463 61.4274 373.333 61.2812C375.639 60.8974 379.803 61.0345 379.904 66.892C380.041 74.8969 369.608 73.3983 370.688 73.1333C370.862 73.0876 371.521 67.3854 371.493 64.3699H371.484Z" fill="#AE7461"/>
<path d="M374.101 70.1907C374.101 70.1907 374.238 70.2821 374.476 70.3917C374.705 70.4922 375.107 70.5562 375.519 70.3917C376.361 70.0628 377.048 68.7103 377.066 67.2665C377.066 66.5355 376.91 65.8501 376.636 65.2744C376.38 64.6896 375.995 64.2875 375.565 64.2236C375.144 64.1322 374.842 64.3972 374.751 64.6165C374.65 64.8449 374.705 65.0003 374.659 65.0186C374.641 65.0368 374.485 64.8906 374.54 64.5525C374.568 64.388 374.659 64.2053 374.851 64.0408C375.043 63.8854 375.318 63.7941 375.62 63.8215C376.242 63.8489 376.801 64.4155 377.103 65.0368C377.432 65.6674 377.633 66.4441 377.624 67.2574C377.606 68.8748 376.801 70.3917 375.647 70.7481C375.089 70.9035 374.613 70.7481 374.366 70.5562C374.119 70.3643 374.073 70.1816 374.101 70.1724V70.1907Z" fill="#E7EEFC"/>
<path d="M371.493 26.7223C370.441 24.5202 367.86 23.3779 365.417 23.3414C362.973 23.2957 360.622 24.1546 358.325 24.9953C355.937 22.6469 352.285 21.6509 349.028 22.4642C345.77 23.2774 343.025 25.8634 342.018 29.0616C338.34 26.8685 333.16 27.6178 330.26 30.7795C327.359 33.932 327.048 39.1497 329.546 42.622C326.544 43.8373 325.035 47.8122 326.48 50.7089C327.926 53.6055 332.007 54.8026 334.789 53.1395C337.571 51.4856 338.45 47.3279 336.583 44.678C340.078 46.3867 344.892 44.0658 345.724 40.2645C349.284 42.0829 353.603 42.3387 357.355 40.9681C361.107 39.5883 364.227 36.5911 365.746 32.8994L368.931 32.5065C371.337 32.1045 372.536 28.9337 371.484 26.7315L371.493 26.7223Z" fill="#4F4747"/>
<path d="M376.224 51.1109C376.334 48.9818 376.846 46.8436 376.572 44.7327C376.16 41.5619 373.991 38.8206 371.374 36.9839C368.748 35.1473 365.682 34.069 362.653 33.009L355.415 38.6653C356.65 40.8309 357.913 43.0331 359.743 44.7327C361.573 46.4324 364.081 47.5837 366.552 47.1908C365.399 49.6214 366.606 52.8927 369.068 53.9984C368.006 55.3782 367.256 57.0961 367.403 58.8323C367.549 60.5684 368.739 62.2772 370.441 62.6701C372.06 63.0447 373.79 62.1493 374.778 60.8151C375.766 59.4719 376.123 57.7723 376.206 56.1092C376.288 54.4461 376.141 52.7831 376.224 51.12V51.1109Z" fill="#4F4747"/>
<path d="M371.557 29.8932C371.557 29.8932 371.612 30.1399 371.539 30.5968C371.456 31.0446 371.264 31.7117 370.779 32.4336C370.303 33.1464 369.507 33.9231 368.354 34.3526C367.22 34.7821 365.765 34.846 364.374 34.2521L364.822 33.9962C364.584 36.1619 363.184 38.3916 361.098 39.8354C359.204 41.2061 356.98 41.8549 355.003 41.9828C353.009 42.1382 351.215 41.9006 349.76 41.6082C348.296 41.3157 347.143 40.9776 346.347 40.7218C345.56 40.4659 345.13 40.2923 345.148 40.2466C345.175 40.1278 346.951 40.6487 349.842 41.1239C351.288 41.3432 353.036 41.5168 354.948 41.3432C356.852 41.1787 358.911 40.5573 360.695 39.2688C362.653 37.9073 363.934 35.8786 364.191 33.9139L364.246 33.4845L364.639 33.6581C365.838 34.2064 367.146 34.1789 368.18 33.8408C369.224 33.4936 369.983 32.8357 370.468 32.2051C371.447 30.8984 371.466 29.8567 371.566 29.8841L371.557 29.8932Z" fill="#455A64"/>
<path d="M354.885 68.8106C354.803 68.701 354.72 68.5822 354.583 68.5456C354.4 68.4908 354.208 68.6005 354.043 68.701C352.551 69.6605 351.06 70.62 349.568 71.5795L350.968 73.3157C351.865 74.4305 353.503 74.7961 354.675 73.9828C354.675 73.9828 354.693 73.9736 354.702 73.9645C355.553 73.3614 356.056 72.2831 355.956 71.2505C355.873 70.355 355.397 69.5417 354.867 68.8198L354.885 68.8106Z" fill="#E7EEFC"/>
<path d="M352.597 74.4214C352.579 74.3117 353.466 74.5128 354.482 73.8091C354.729 73.6355 354.976 73.3979 355.205 73.1238C355.425 72.8771 355.535 72.5207 355.571 72.1277C355.617 71.3419 355.452 70.4098 355.086 69.5508C354.912 69.1487 354.638 68.6644 354.4 68.7924C354.025 68.8837 353.631 69.1305 353.283 69.3406C352.588 69.7884 351.92 70.2362 351.38 70.5469C350.318 71.2596 349.604 71.6526 349.568 71.5886C349.549 71.5429 350.163 71.0677 351.188 70.2727C351.764 69.8706 352.386 69.4412 353.045 68.9751C353.421 68.7467 353.778 68.4817 354.299 68.3355C354.427 68.2989 354.629 68.2898 354.793 68.3812C354.94 68.4634 355.05 68.573 355.132 68.6827C355.306 68.902 355.416 69.1305 355.516 69.3681C355.91 70.3184 356.075 71.2688 356.001 72.1734C355.956 72.6212 355.791 73.069 355.498 73.3888C355.233 73.6721 354.949 73.9188 354.665 74.1016C354.089 74.4671 353.521 74.5402 353.155 74.5402C352.78 74.531 352.588 74.4671 352.588 74.4397L352.597 74.4214Z" fill="#4F4747"/>
<path d="M298.168 92.0207C298.168 92.0207 299.778 96.425 301.169 98.3074C302.551 100.19 304.033 100.601 304.793 103.854C305.552 107.107 306.532 110.57 306.532 110.57C306.532 110.57 313.001 116.089 312.681 116.199C312.37 116.309 306.129 126.351 306.129 126.351L295.194 115.605L281.01 106.358L275.447 95.5752L275.968 94.7254L275.428 92.6237C275.428 92.6237 276.673 90.3028 278.475 92.176C278.475 92.176 278.347 89.325 281.211 91.4084C284.076 93.501 289.173 98.8191 289.594 98.9196C290.015 99.0202 295.304 101.396 295.304 101.396L297.939 101.268C297.939 101.268 296.036 99.8151 295.596 97.7135C295.157 95.6118 293.885 94.2594 295.139 92.6694C296.393 91.0795 298.186 92.0115 298.186 92.0115L298.168 92.0207Z" fill="#AE7461"/>
<path d="M298.223 108.46C298.223 108.46 297.921 108.313 297.399 108.048C296.859 107.802 296.063 107.482 295.029 107.217C292.952 106.696 289.951 106.349 286.565 106.349H286.482L286.418 106.303C285.924 105.928 285.412 105.535 284.881 105.133C284.625 104.941 284.369 104.74 284.122 104.549L284.057 104.503L284.039 104.43C283.701 103.169 283.371 101.962 283.06 100.811C282.923 100.272 282.676 99.7694 282.291 99.4861C281.916 99.1937 281.385 99.1937 280.974 99.3307L281.093 99.1663C280.873 102.785 280.516 105.143 280.37 105.115C280.333 105.106 280.425 104.53 280.48 103.489C280.544 102.447 280.626 100.957 280.699 99.148V99.0201L280.818 98.9744C281.34 98.7733 281.999 98.7733 282.52 99.1388C283.033 99.5044 283.316 100.098 283.472 100.692C283.792 101.835 284.122 103.032 284.469 104.284L284.387 104.165C284.634 104.357 284.89 104.549 285.146 104.74C285.668 105.143 286.19 105.535 286.684 105.91L286.537 105.864C289.969 105.874 292.989 106.285 295.084 106.897C296.127 107.208 296.933 107.573 297.454 107.875C297.967 108.204 298.214 108.423 298.195 108.441L298.223 108.46Z" fill="#E7EEFC"/>
<path d="M286.904 100.939C286.813 101.031 284.882 99.1026 282.612 96.6444C280.333 94.1772 278.567 92.112 278.659 92.0297C278.75 91.9383 280.681 93.8665 282.951 96.3337C285.23 98.7919 286.996 100.866 286.904 100.948V100.939Z" fill="#E7EEFC"/>
<path d="M280.205 99.0844C280.141 99.1118 279.949 98.7828 279.665 98.2528C279.382 97.7228 279.007 96.9826 278.439 96.2973C277.881 95.6119 277.204 95.155 276.664 94.9357C276.133 94.7073 275.749 94.689 275.749 94.6159C275.749 94.561 276.142 94.4605 276.764 94.6159C277.387 94.7712 278.183 95.2373 278.796 95.9866C279.409 96.7359 279.748 97.54 279.958 98.1066C280.169 98.6823 280.251 99.057 280.196 99.0752L280.205 99.0844Z" fill="#E7EEFC"/>
<path d="M290.5 100.217C290.528 100.354 289.018 100.592 287.636 101.752C286.236 102.885 285.723 104.329 285.586 104.274C285.531 104.256 285.586 103.872 285.842 103.306C286.098 102.739 286.592 102.008 287.334 101.396C288.075 100.784 288.89 100.427 289.494 100.29C290.098 100.144 290.491 100.171 290.5 100.226V100.217Z" fill="#E7EEFC"/>
<path d="M362.113 89.654C362.113 89.654 355.213 88.9687 350.263 95.4839C346.42 100.537 328.777 128.489 328.777 128.489L308.426 110.79L298.223 121.307C298.223 121.307 323.396 148.236 328.777 151.516C334.304 154.897 338.898 152.677 342.54 148.437C346.182 144.197 352.862 131.496 352.862 131.496L362.113 89.6449V89.654Z" fill="#3865DC"/>
<path d="M321.356 260.932C321.063 261.114 331.321 280.258 332.19 280.788C333.06 281.327 337.992 281.19 338.55 282.752C339.108 284.315 334.268 314.067 332.547 316.352C330.827 318.645 328.274 319.98 328.274 319.98C328.274 319.98 322.417 298.862 320.779 292.886C319.141 286.91 307.2 274.099 307.2 274.099L321.347 260.922L321.356 260.932Z" fill="#AE7461"/>
<path d="M333.133 281.044C333.599 281.117 339.474 281.345 343.372 284.598C347.27 287.851 358.471 306.163 358.471 306.163L356.842 307.561C356.842 307.561 347.444 294.695 346.255 294.111C345.065 293.526 342.219 293.654 340.728 301.978C339.236 310.294 343.381 314.488 339.959 319.376C336.537 324.274 320.386 334.043 319.672 332.909C318.958 331.776 327.917 318.636 327.917 318.636C327.917 318.636 331.641 317.293 332.666 312.505C333.7 307.717 333.142 281.053 333.142 281.053L333.133 281.044Z" fill="#4F4747"/>
<path d="M312.837 245.882C312.645 246.174 330.031 259.204 331.047 259.323C332.063 259.442 336.483 257.249 337.645 258.428C338.807 259.606 346.988 288.619 346.393 291.424C345.798 294.229 344.05 296.514 344.05 296.514C344.05 296.514 329.821 279.828 325.813 275.104C321.805 270.371 305.571 263.792 305.571 263.792L312.837 245.891V245.882Z" fill="#AE7461"/>
<path d="M332.008 259.159C332.465 259.031 337.882 256.755 342.787 258.071C347.692 259.387 365.582 271.266 365.582 271.266L364.694 273.222C364.694 273.222 350.73 265.509 349.412 265.482C348.086 265.455 345.56 266.77 347.72 274.94C349.879 283.109 355.406 285.165 354.372 291.04C353.338 296.916 342.824 312.587 341.689 311.856C340.554 311.125 343.135 295.435 343.135 295.435C343.135 295.435 345.944 292.648 344.855 287.869C343.766 283.09 331.999 259.15 331.999 259.15L332.008 259.159Z" fill="#4F4747"/>
<path d="M386.198 177.376L341.085 174.361L338.797 187.126C336.153 186.962 286.702 195.259 277.13 198.293C268.373 201.07 265.875 209.815 269.243 219.94C272.555 229.909 301.453 287.395 307.419 288.93C313.395 290.474 330.525 273.35 330.525 273.35L306.495 226.821C306.495 226.821 365.81 226.519 374.348 225.669C384.734 224.628 393.317 207.805 390.774 195.716C388.376 184.321 386.189 177.376 386.189 177.376H386.198Z" fill="#4F4747"/>
<path d="M272.088 131.423C264.237 123.226 250.941 109.108 250.941 109.108L257.008 100.674L289.74 138.258C289.74 138.258 295.606 147.459 295.166 148.035C294.727 148.611 287.068 154.102 287.068 154.102L281.989 144.901C279.29 139.994 275.959 135.471 272.079 131.432L272.088 131.423Z" fill="white"/>
<path d="M272.088 131.422C272.088 131.422 272.217 131.532 272.445 131.76C272.674 131.989 273.013 132.336 273.443 132.793C274.303 133.716 275.529 135.105 276.975 136.978C278.421 138.86 280.086 141.236 281.742 144.142C283.371 147.066 285.211 150.374 287.233 154.011L286.958 153.947C288.221 153.024 289.539 152.064 290.902 151.068C292.229 150.072 293.712 149.031 294.984 147.916C294.984 147.943 294.984 147.889 294.956 147.779C294.938 147.687 294.892 147.587 294.855 147.486C294.773 147.285 294.682 147.084 294.59 146.883C294.398 146.481 294.187 146.079 293.968 145.677C293.529 144.873 293.062 144.078 292.586 143.265C291.625 141.647 290.619 140.012 289.566 138.358L289.585 138.385C285.265 133.423 280.562 128.032 275.676 122.44C268.959 114.719 262.59 107.39 256.852 100.802L257.191 100.784C255.05 103.744 253.027 106.559 251.106 109.209L251.087 108.962C257.429 115.705 262.691 121.298 266.387 125.227C268.199 127.173 269.636 128.708 270.624 129.778C271.091 130.289 271.457 130.691 271.732 130.984C271.979 131.258 272.098 131.413 272.098 131.413C272.098 131.413 271.951 131.285 271.695 131.029C271.42 130.746 271.036 130.362 270.551 129.86C269.535 128.809 268.08 127.301 266.232 125.382C262.508 121.48 257.209 115.925 250.813 109.227L250.703 109.108L250.795 108.971C252.698 106.312 254.72 103.497 256.843 100.528L256.999 100.308L257.182 100.519C262.929 107.098 269.307 114.426 276.032 122.129C280.91 127.731 285.604 133.131 289.923 138.093H289.932V138.12C290.985 139.783 291.991 141.419 292.952 143.046C293.428 143.859 293.895 144.663 294.334 145.476C294.553 145.878 294.764 146.289 294.965 146.701C295.066 146.911 295.157 147.121 295.249 147.331C295.286 147.441 295.331 147.55 295.359 147.678C295.377 147.742 295.395 147.797 295.395 147.889C295.423 147.916 295.359 148.163 295.304 148.181C294.59 148.857 293.895 149.323 293.199 149.862C292.504 150.383 291.808 150.886 291.131 151.388C289.768 152.375 288.441 153.325 287.169 154.248L286.995 154.376L286.894 154.194C284.899 150.548 283.078 147.231 281.477 144.297C279.848 141.392 278.21 139.007 276.801 137.115C275.383 135.224 274.184 133.816 273.351 132.875C272.949 132.418 272.628 132.062 272.4 131.806C272.189 131.569 272.088 131.431 272.088 131.431V131.422Z" fill="#4F4747"/>
<path d="M288.834 134.109C288.834 134.109 272.07 123.683 270.167 124.003C268.273 124.323 267.952 126.214 267.952 126.214C267.952 126.214 263.542 125.593 264.786 129.056L266.269 130.966C266.269 130.966 265.28 134.164 267.751 135.645C267.751 135.645 266.928 137.536 268.492 139.09C268.492 139.09 267.669 141.466 270.46 143.193C273.251 144.92 281.633 147.131 283.939 145.733C286.236 144.335 288.834 134.109 288.834 134.109Z" fill="#AE7461"/>
<path d="M275.978 130.883C275.914 130.993 274.075 130.006 271.869 128.672C269.664 127.338 267.943 126.159 268.016 126.059C268.09 125.949 269.929 126.945 272.126 128.27C274.322 129.604 276.042 130.774 275.978 130.883Z" fill="#E7EEFC"/>
<path d="M268.245 132.967C268.154 133.058 267.577 132.647 266.964 132.035C266.351 131.432 265.93 130.856 266.021 130.765C266.113 130.673 266.689 131.084 267.303 131.697C267.916 132.3 268.337 132.876 268.245 132.967Z" fill="#E7EEFC"/>
<path d="M269.133 137.225C269.042 137.316 268.593 137.024 268.145 136.576C267.687 136.128 267.394 135.681 267.495 135.589C267.586 135.498 268.035 135.79 268.483 136.238C268.941 136.686 269.234 137.134 269.133 137.225Z" fill="#E7EEFC"/>
<path d="M269.892 140.743C269.792 140.825 269.435 140.569 269.06 140.213C268.684 139.857 268.41 139.519 268.492 139.409C268.565 139.308 268.996 139.491 269.389 139.866C269.792 140.25 269.993 140.661 269.892 140.743Z" fill="#E7EEFC"/>
<path d="M296.237 218.021C296.32 217.92 298.836 219.766 301.865 222.151C304.894 224.536 307.282 226.555 307.2 226.656C307.118 226.756 304.601 224.911 301.572 222.526C298.543 220.141 296.155 218.121 296.237 218.021Z" fill="#455A64"/>
<path d="M303.265 215.243C303.384 215.197 304.482 217.646 305.525 220.79C306.569 223.933 307.154 226.556 307.036 226.583C306.907 226.62 306.12 224.061 305.077 220.936C304.043 217.811 303.146 215.289 303.265 215.243Z" fill="#455A64"/>
<path d="M348.452 94.4969C347.793 94.9446 347.253 95.5294 346.869 96.2239C343.794 101.661 329.83 126.963 331.093 135.26C332.237 142.79 335.668 166.255 336.949 174.973C337.269 177.193 338.999 178.966 341.223 179.295C353.475 181.095 387.049 179.03 388.752 176.234C392.915 169.371 390.316 140.981 386.876 119.233C383.426 97.4758 379.875 88.667 367.769 85.4688C363.761 84.4088 351.984 92.1211 348.47 94.506L348.452 94.4969Z" fill="#3865DC"/>
<path opacity="0.3" d="M336.501 170.523C336.501 170.523 342.961 170.093 353.393 158.297C363.825 146.5 370.175 123.984 370.175 123.984L335.585 166.347L336.501 170.514V170.523Z" fill="#333333"/>
<path d="M289.301 133.405C290.07 133.789 324.706 143.384 324.706 143.384C324.77 142.598 325.676 140.085 327.506 140.057C329.263 140.03 329.592 142.451 329.592 142.451C329.592 142.451 339.209 123.39 340.481 119.315C341.753 115.239 347.198 88.2921 363.276 89.6902C379.354 91.0883 373.333 116.034 371.521 120.96C369.791 125.656 350.932 163.066 336.51 167.626C329.812 169.737 287.874 155.592 282.896 151.132C277.918 146.673 289.301 133.405 289.301 133.405Z" fill="#3865DC"/>
<path d="M289.301 133.405C289.301 133.405 289.155 133.606 288.853 133.99C288.551 134.374 288.112 134.94 287.544 135.699C286.446 137.234 284.772 139.491 283.216 142.726C282.493 144.334 281.679 146.244 281.761 148.409C281.834 149.469 282.292 150.575 283.253 151.251C284.186 151.955 285.293 152.512 286.428 153.088C291.031 155.299 296.475 157.364 302.551 159.484C308.637 161.577 315.353 163.715 322.683 165.57C324.513 166.036 326.389 166.457 328.302 166.831C330.214 167.197 332.172 167.535 334.167 167.608C335.174 167.644 336.144 167.608 337.068 167.178L337.773 166.904L338.45 166.557L339.127 166.21L339.777 165.808C341.524 164.729 343.144 163.395 344.681 161.952C347.747 159.028 350.52 155.665 353.164 152.092C355.8 148.51 358.298 144.727 360.704 140.779C363.111 136.832 365.426 132.738 367.632 128.508C368.73 126.388 369.809 124.24 370.798 122.038C371.301 120.951 371.658 119.808 371.978 118.63C372.298 117.46 372.582 116.272 372.82 115.075C373.735 110.47 374.202 105.782 373.616 101.241C373.296 98.9927 372.701 96.763 371.548 94.8533C370.413 92.9435 368.675 91.4083 366.616 90.6682C364.575 89.9098 362.324 89.663 360.201 89.992C358.069 90.3118 356.065 91.2073 354.345 92.4409C350.913 94.9812 348.543 98.5815 346.685 102.2C344.828 105.846 343.474 109.629 342.348 113.357C341.781 115.221 341.305 117.076 340.802 118.913C340.243 120.759 339.429 122.44 338.688 124.121C335.622 130.792 332.548 136.914 329.738 142.525L329.5 142.991L329.409 142.47C329.29 141.803 329.034 141.118 328.585 140.661C328.137 140.186 327.432 140.112 326.856 140.35C326.27 140.588 325.831 141.09 325.511 141.638C325.19 142.178 324.943 142.799 324.87 143.393L324.843 143.585L324.669 143.539C313.596 140.423 304.748 137.929 298.653 136.211C295.624 135.333 293.291 134.648 291.69 134.182C290.912 133.944 290.317 133.762 289.896 133.634C289.502 133.497 289.301 133.414 289.301 133.414C289.878 133.579 292.76 134.383 298.699 136.046C304.803 137.727 313.66 140.176 324.751 143.238L324.55 143.375C324.641 142.689 324.888 142.077 325.227 141.483C325.566 140.907 326.051 140.341 326.728 140.058C327.066 139.93 327.441 139.866 327.817 139.921C328.192 139.975 328.549 140.167 328.823 140.432C329.363 140.981 329.619 141.693 329.757 142.433L329.427 142.379C332.218 136.768 335.275 130.637 338.322 123.966C339.054 122.294 339.877 120.594 340.408 118.812C340.902 116.994 341.387 115.121 341.945 113.248C343.062 109.501 344.425 105.7 346.292 102.017C348.168 98.3713 350.556 94.7071 354.079 92.0937C355.845 90.8235 357.923 89.8915 360.137 89.5625C362.352 89.2244 364.658 89.4711 366.79 90.257C368.94 91.0337 370.779 92.6511 371.951 94.634C373.149 96.626 373.763 98.9013 374.083 101.195C374.678 105.809 374.211 110.543 373.287 115.185C373.04 116.391 372.756 117.588 372.436 118.767C372.115 119.945 371.74 121.124 371.228 122.239C370.23 124.46 369.151 126.607 368.043 128.736C365.829 132.976 363.514 137.079 361.098 141.035C358.682 144.992 356.175 148.784 353.53 152.375C350.877 155.957 348.086 159.338 344.983 162.281C343.428 163.743 341.781 165.086 340.005 166.192L339.337 166.603L338.642 166.959L337.947 167.306L337.214 167.58C336.967 167.672 336.739 167.772 336.482 167.845C336.217 167.891 335.961 167.964 335.695 167.992C335.174 168.037 334.661 168.056 334.149 168.028C332.108 167.955 330.141 167.608 328.219 167.233C326.298 166.849 324.413 166.42 322.582 165.954C315.234 164.081 308.518 161.924 302.433 159.804C296.356 157.666 290.912 155.573 286.3 153.335C285.156 152.75 284.058 152.183 283.088 151.452C282.081 150.74 281.587 149.533 281.523 148.428C281.459 147.313 281.688 146.262 281.971 145.303C282.264 144.343 282.639 143.466 283.033 142.644C284.634 139.4 286.327 137.152 287.453 135.635C288.029 134.886 288.487 134.319 288.798 133.954C289.109 133.579 289.283 133.405 289.283 133.405H289.301Z" fill="#4F4747"/>
<path d="M324.074 149.616C323.946 149.616 323.9 148.227 324.147 146.536C324.385 144.846 324.815 143.53 324.943 143.557C325.072 143.585 324.852 144.937 324.623 146.6C324.385 148.263 324.211 149.625 324.074 149.616Z" fill="#4F4747"/>
<path d="M329.372 150.804C329.235 150.785 329.363 148.912 329.409 146.591C329.464 144.27 329.427 142.388 329.564 142.378C329.693 142.369 329.94 144.252 329.885 146.6C329.839 148.94 329.5 150.822 329.372 150.804Z" fill="#4F4747"/>
<path d="M339.475 178.683C339.475 178.683 339.457 183.499 339.338 184.147C339.219 184.805 388.084 184.997 387.589 182.238C387.086 179.487 386.336 175.978 386.336 175.978L339.475 178.674V178.683Z" fill="#3865DC"/>
<path d="M388.312 176.874C388.312 176.874 388.157 176.965 387.855 177.084C387.498 177.221 387.049 177.394 386.51 177.595C385.933 177.833 385.192 178.052 384.341 178.29C383.911 178.418 383.453 178.546 382.968 178.683C382.474 178.793 381.952 178.911 381.413 179.03C377.048 180.035 370.853 180.62 364.026 180.547C357.2 180.483 351.041 179.944 346.594 179.569C344.425 179.368 342.641 179.204 341.332 179.076C340.756 179.012 340.28 178.957 339.905 178.92C339.575 178.884 339.411 178.847 339.411 178.838C339.411 178.82 339.584 178.82 339.914 178.838C340.298 178.856 340.774 178.875 341.351 178.902C342.668 178.984 344.453 179.103 346.631 179.24C351.087 179.533 357.236 180.017 364.035 180.081C370.834 180.154 376.993 179.633 381.348 178.71C381.888 178.601 382.41 178.5 382.904 178.4C383.389 178.272 383.847 178.153 384.277 178.043C385.137 177.824 385.869 177.641 386.464 177.431C387.013 177.257 387.47 177.12 387.836 177.001C388.147 176.91 388.321 176.864 388.331 176.883L388.312 176.874Z" fill="#4F4747"/>
<path d="M392.238 228.182H397.307C399.979 228.182 402.23 226.19 402.551 223.54C403.548 215.27 405.543 192.252 405.561 192.024L401.947 191.713C401.928 191.942 399.943 214.905 398.945 223.11C398.845 223.933 398.14 224.554 397.307 224.554H392.238V228.182Z" fill="#E0E0E0"/>
<path d="M392.238 228.182C392.238 228.182 392.247 228.09 392.256 227.935C392.256 227.752 392.265 227.524 392.274 227.232C392.284 226.592 392.302 225.706 392.32 224.563L392.238 224.646C393.061 224.646 394.004 224.664 395.065 224.673C395.596 224.673 396.163 224.673 396.749 224.682C397.042 224.682 397.344 224.709 397.682 224.646C398.012 224.582 398.323 224.417 398.57 224.17C398.817 223.924 399 223.604 399.073 223.238C399.128 222.891 399.147 222.562 399.183 222.206C399.256 221.511 399.33 220.789 399.403 220.04C399.549 218.551 399.705 216.961 399.879 215.279C400.528 208.563 401.315 200.485 402.166 191.722L401.938 191.914C402.789 191.987 403.704 192.07 404.619 192.143C404.939 192.17 405.259 192.197 405.552 192.225L405.36 191.996C404.216 204.232 403.182 215.261 402.441 223.266C402.304 225.249 401.05 226.793 399.668 227.487C398.268 228.246 396.841 228.036 395.752 228.09C394.663 228.109 393.803 228.127 393.18 228.136C392.906 228.136 392.677 228.145 392.503 228.154C392.348 228.154 392.265 228.164 392.256 228.173C392.256 228.173 392.32 228.182 392.467 228.191C392.64 228.191 392.86 228.2 393.125 228.209C393.748 228.218 394.617 228.237 395.715 228.255C396.282 228.255 396.914 228.282 397.6 228.255C398.296 228.228 399.046 228.063 399.778 227.698C401.233 226.994 402.578 225.377 402.743 223.302C403.521 215.298 404.6 204.268 405.79 192.033L405.808 191.823L405.589 191.805C405.296 191.777 404.976 191.75 404.655 191.722C403.74 191.64 402.825 191.567 401.974 191.494L401.764 191.476L401.745 191.686C400.922 200.44 400.162 208.527 399.54 215.243C399.384 216.915 399.238 218.505 399.101 220.004C399.037 220.753 398.964 221.475 398.909 222.169C398.872 222.516 398.854 222.873 398.808 223.184C398.753 223.485 398.607 223.768 398.396 223.978C398.186 224.189 397.92 224.335 397.637 224.39C397.362 224.445 397.051 224.417 396.758 224.426C396.173 224.426 395.605 224.426 395.074 224.435C394.013 224.445 393.07 224.454 392.247 224.463H392.165V224.545C392.183 225.706 392.201 226.619 392.21 227.268C392.21 227.551 392.229 227.78 392.229 227.953C392.229 228.109 392.238 228.182 392.247 228.173L392.238 228.182Z" fill="#4F4747"/>
<path d="M311.382 232.614H392.43C395.45 232.614 397.893 230.585 397.893 228.091C397.893 225.596 395.45 223.567 392.43 223.567H311.382C308.362 223.567 305.919 225.596 305.919 228.091C305.919 230.585 308.362 232.614 311.382 232.614Z" fill="#455A64"/>
<path d="M409.762 194.738L420.825 108.103C421.209 105.115 419.086 102.383 416.094 101.999C413.102 101.615 410.366 103.735 409.981 106.723L398.918 193.358C398.534 196.346 400.657 199.078 403.649 199.462C406.641 199.846 409.377 197.726 409.762 194.738Z" fill="#455A64"/>
<path d="M311.913 229.233L299.843 317.759H304.647L322.674 232.614L311.913 229.233Z" fill="#455A64"/>
<path d="M391.487 229.233L403.228 317.759H398.424L380.726 232.614L391.487 229.233Z" fill="#455A64"/>
<path d="M311.382 232.614C311.382 232.732 329.784 232.833 352.469 232.833C375.153 232.833 393.565 232.732 393.565 232.614C393.565 232.495 375.172 232.395 352.469 232.395C329.766 232.395 311.382 232.495 311.382 232.614Z" fill="#4F4747"/>
<path d="M117.953 156.113C117.953 156.113 123.26 182.649 122.217 185.883C121.174 189.127 111.072 187.61 111.191 186.852C111.31 186.094 109.827 154.587 109.827 154.587L117.953 156.104V156.113Z" fill="#3865DC"/>
<path d="M202.296 272.829L209.397 297.903C209.397 297.903 237.013 298.634 238.77 303.148L190.875 319.12L178.202 280.513L202.286 272.838L202.296 272.829Z" fill="#4F4747"/>
<path d="M190.647 319.185L189.64 316.105L236.437 301.53C236.437 301.53 238.276 301.978 238.871 303.385L190.647 319.176V319.185Z" fill="#455A64"/>
<path d="M209.653 297.985C209.717 298.223 208.573 298.716 207.649 299.849C206.697 300.964 206.432 302.179 206.185 302.152C205.947 302.179 205.846 300.644 206.99 299.292C208.116 297.93 209.644 297.747 209.662 297.985H209.653Z" fill="#455A64"/>
<path d="M215.418 298.451C215.546 298.661 214.649 299.392 214.164 300.653C213.643 301.896 213.789 303.047 213.551 303.111C213.341 303.221 212.727 301.887 213.359 300.333C213.972 298.771 215.336 298.223 215.418 298.451Z" fill="#455A64"/>
<path d="M220.277 303.605C220.076 303.723 219.362 302.645 219.554 301.156C219.737 299.666 220.689 298.789 220.854 298.953C221.046 299.109 220.552 300.032 220.414 301.256C220.25 302.481 220.506 303.495 220.277 303.595V303.605Z" fill="#455A64"/>
<path d="M207.384 292.411C207.357 292.658 206.158 292.685 204.849 293.206C203.531 293.699 202.634 294.485 202.442 294.321C202.25 294.193 202.982 292.987 204.538 292.402C206.085 291.799 207.439 292.192 207.384 292.42V292.411Z" fill="#455A64"/>
<path d="M181.935 206.16C182.676 206.507 211.831 282.798 208.555 286.755C205.279 290.711 180.032 295.965 177.973 294.567C175.905 293.169 152.607 217.207 152.607 217.207L181.935 206.151V206.16Z" fill="#4F4747"/>
<path d="M147.565 109.474L133.546 117.533L142.111 125.602L153 116.784L147.565 109.474Z" fill="#FFBF9D"/>
<path d="M147.245 107.025C147.327 106.824 150.905 98.9652 153.147 95.8858C155.389 92.8063 154.986 89.8549 156.853 89.334C158.72 88.8132 159.479 91.3078 158.985 94.0673C158.491 96.8178 156.24 98.5266 157.1 99.3672C157.96 100.208 172.812 95.5111 172.812 95.5111C172.812 95.5111 174.477 93.2998 176.28 94.6887C176.28 94.6887 178.65 93.7658 178.751 95.6208C178.861 97.6037 174.413 98.3347 174.413 98.3347L172.812 102.428L167.962 104.996C167.962 104.996 167.99 107.125 166.681 108.761C165.372 110.396 164.375 111.365 164.174 111.429C163.972 111.493 159.827 114.856 157.585 115.733C155.343 116.61 152.031 117.378 152.031 117.378L146.796 110.095C146.796 110.095 146.513 108.88 147.254 107.025H147.245Z" fill="#FFBF9D"/>
<path d="M167.944 105.27C167.944 105.27 168.411 103.342 167.981 101.825C167.551 100.308 164.924 93.7107 164.211 93.6833C163.497 93.6559 162.234 93.4366 162.206 95.3282C162.179 97.2197 164 101.432 164.009 101.533C164.028 101.633 163.506 102.977 163.643 104.622" fill="#FFBF9D"/>
<path d="M163.643 104.622C163.643 104.622 163.661 104.265 163.716 103.644C163.744 103.333 163.799 102.949 163.899 102.52C163.945 102.301 164.009 102.072 164.082 101.825L164.137 101.634C164.174 101.542 164.119 101.405 164.101 101.369C164.055 101.241 164 101.113 163.954 100.976C163.561 99.9065 163.085 98.6363 162.709 97.2016C162.536 96.4797 162.353 95.7121 162.444 94.9537C162.49 94.579 162.627 94.2135 162.929 94.0399C163.231 93.8571 163.652 93.8662 164.11 93.9028C164.183 93.8571 164.32 94.0399 164.439 94.2044C164.558 94.3688 164.668 94.5516 164.769 94.7344C164.97 95.0999 165.162 95.4745 165.336 95.8401C165.693 96.5802 166.013 97.3021 166.306 97.9875C166.892 99.3673 167.404 100.638 167.77 101.698C168.118 102.748 168.045 103.69 168.017 104.311C167.972 104.942 167.908 105.289 167.944 105.289C167.972 105.289 168.091 104.96 168.191 104.329C168.274 103.699 168.402 102.748 168.072 101.615C167.734 100.519 167.258 99.2485 166.681 97.8413C166.388 97.1377 166.077 96.4066 165.73 95.6664C165.556 95.2918 165.363 94.9171 165.153 94.5333C165.043 94.3414 164.933 94.1587 164.805 93.9668C164.741 93.8754 164.668 93.784 164.576 93.6835C164.54 93.6378 164.476 93.583 164.403 93.5373C164.357 93.5099 164.284 93.4916 164.22 93.4824H164.137C163.698 93.455 163.167 93.4093 162.7 93.6835C162.234 93.9759 162.078 94.4785 162.023 94.8988C161.922 95.767 162.133 96.562 162.325 97.293C162.728 98.7551 163.231 100.025 163.67 101.085C163.725 101.213 163.78 101.341 163.835 101.469C163.863 101.56 163.881 101.542 163.872 101.579L163.826 101.762C163.762 102.008 163.716 102.255 163.67 102.474C163.597 102.922 163.561 103.315 163.561 103.635C163.561 104.274 163.634 104.622 163.652 104.622H163.643Z" fill="#FF9A6C"/>
<path d="M151.811 109.383C151.848 109.456 152.589 108.889 154.062 108.469C154.794 108.277 155.728 108.158 156.762 108.314C157.786 108.451 158.921 108.88 159.9 109.584L160.321 109.894L160.239 109.401C160.01 108.103 159.763 106.696 159.498 105.225V105.207C159.461 105.06 159.424 104.914 159.388 104.759C159.196 103.891 159.068 103.004 159.223 102.218C159.342 101.451 160.129 100.903 160.843 101.049C161.017 101.076 161.181 101.149 161.3 101.241C161.419 101.323 161.465 101.478 161.547 101.652C161.685 101.99 161.804 102.337 161.923 102.666C162.142 103.324 162.344 103.946 162.536 104.512C162.883 105.581 163.176 106.486 163.405 107.199C163.616 107.829 163.753 108.176 163.789 108.167C163.817 108.158 163.734 107.802 163.57 107.153C163.405 106.504 163.158 105.572 162.838 104.43C162.673 103.854 162.49 103.233 162.279 102.557C162.17 102.218 162.06 101.871 161.923 101.515C161.886 101.423 161.84 101.332 161.804 101.241C161.749 101.14 161.666 101.04 161.584 100.957C161.401 100.802 161.172 100.711 160.943 100.665C160.486 100.583 159.974 100.683 159.58 100.967C159.196 101.241 158.903 101.67 158.821 102.136C158.647 103.041 158.784 103.946 158.976 104.85C159.013 105.015 159.058 105.17 159.095 105.325V105.307C159.36 106.778 159.617 108.186 159.864 109.483L160.202 109.3C159.113 108.533 157.933 108.122 156.844 107.994C155.755 107.857 154.776 108.021 154.026 108.25C153.65 108.368 153.321 108.496 153.046 108.642C152.763 108.77 152.543 108.889 152.369 109.017C152.012 109.246 151.838 109.383 151.848 109.401L151.811 109.383Z" fill="#FF9A6C"/>
<path d="M167.797 100.546C167.834 100.61 168.959 100.034 170.671 99.0932L170.717 99.0658L170.744 99.0018C170.982 98.4718 171.357 97.8687 171.778 97.2473C172.208 96.635 172.675 95.9588 173.233 95.3649C173.663 94.9262 174.167 94.5698 174.707 94.4511C175.238 94.3323 175.787 94.5059 176.134 94.7983L176.098 94.5881C175.558 95.6847 175.119 96.6076 174.817 97.2564C174.524 97.9052 174.368 98.2982 174.405 98.3073C174.441 98.3256 174.67 97.9783 175.027 97.3478C175.384 96.7264 175.878 95.8218 176.446 94.7435L176.51 94.6247L176.409 94.5333C175.96 94.1221 175.292 93.921 174.615 94.049C173.947 94.186 173.38 94.5973 172.913 95.0724C172.3 95.7212 171.851 96.3883 171.421 97.028C171 97.6768 170.643 98.2707 170.405 98.883L170.479 98.7916C168.813 99.7968 167.751 100.473 167.788 100.528L167.797 100.546Z" fill="#FF9A6C"/>
<path d="M142.752 111.767C142.752 111.767 144.692 110.186 145.58 110.908C146.467 111.621 154.785 120.841 154.264 122.066C153.742 123.29 152.278 124.935 152.278 124.935L142.752 111.776V111.767Z" fill="white"/>
<path d="M141.608 110.287L120.955 122.221C120.955 122.221 102.379 84.1804 94.7925 78.8257C87.2066 73.471 80.3618 73.5349 80.3618 73.5349C81.8717 74.0101 104.218 147.231 109.315 150.411C114.421 153.591 120.625 155.391 122.446 154.23C124.267 153.079 153.797 125.62 153.797 125.62L141.608 110.278V110.287Z" fill="#3865DC"/>
<path d="M45.8635 228.41H40.794C38.122 228.41 35.8709 226.418 35.5506 223.768C34.5532 215.499 32.5583 192.481 32.54 192.252L36.1546 191.942C36.1729 192.17 38.1586 215.133 39.156 223.339C39.2567 224.161 39.9613 224.783 40.794 224.783H45.8635V228.41Z" fill="#E0E0E0"/>
<path d="M45.8634 228.41C45.8634 228.41 45.8542 228.319 45.8451 228.164C45.8451 227.981 45.8359 227.752 45.8268 227.46C45.8176 226.82 45.7993 225.934 45.781 224.792L45.8634 224.874C45.0398 224.874 44.0973 224.892 43.0358 224.901C42.5051 224.901 41.9377 224.901 41.3521 224.911C41.0593 224.911 40.7573 224.938 40.4187 224.874C40.0893 224.81 39.7781 224.646 39.5219 224.399C39.2749 224.152 39.0918 223.832 39.0186 223.467C38.9637 223.12 38.9454 222.791 38.9088 222.434C38.8356 221.74 38.7624 221.018 38.6892 220.269C38.5428 218.779 38.3872 217.189 38.2134 215.508C37.5637 208.792 36.7767 200.714 35.9257 191.951L36.1545 192.143C35.3034 192.216 34.3884 192.298 33.4733 192.371C33.153 192.399 32.8327 192.426 32.5399 192.453L32.7321 192.225C33.8759 204.46 34.91 215.49 35.6512 223.494C35.7884 225.477 37.0421 227.021 38.4238 227.716C39.8239 228.474 41.2514 228.264 42.3404 228.319C43.4293 228.337 44.2895 228.356 44.9117 228.365C45.1862 228.365 45.415 228.374 45.5889 228.383C45.7444 228.383 45.8268 228.392 45.8359 228.401C45.8359 228.401 45.7719 228.41 45.6255 228.419C45.4516 228.419 45.232 228.429 44.9666 228.438C44.3444 228.447 43.4751 228.465 42.377 228.483C41.8096 228.483 41.1782 228.511 40.4919 228.483C39.7965 228.456 39.0461 228.292 38.314 227.926C36.8591 227.222 35.5139 225.605 35.3492 223.531C34.5714 215.526 33.4916 204.497 32.302 192.262L32.2837 192.051L32.5033 192.033C32.7961 192.006 33.1164 191.978 33.4367 191.951C34.3518 191.869 35.2668 191.795 36.1179 191.722L36.3283 191.704L36.3466 191.914C37.1702 200.668 37.9297 208.755 38.552 215.471C38.7075 217.144 38.8539 218.734 38.9912 220.232C39.0552 220.981 39.1284 221.703 39.1834 222.398C39.22 222.745 39.2383 223.101 39.284 223.412C39.3389 223.714 39.4853 223.997 39.6958 224.207C39.9063 224.417 40.1716 224.563 40.4553 224.618C40.7298 224.673 41.041 224.646 41.3338 224.655C41.9194 224.655 42.4868 224.655 43.0175 224.664C44.079 224.673 45.0215 224.682 45.8451 224.691H45.9274V224.774C45.9091 225.934 45.8908 226.848 45.8817 227.497C45.8817 227.78 45.8634 228.008 45.8634 228.182C45.8634 228.337 45.8542 228.41 45.8451 228.401L45.8634 228.41Z" fill="#4F4747"/>
<path d="M126.719 232.833H45.6803C42.6605 232.833 40.2173 230.805 40.2173 228.31C40.2173 225.815 42.6605 223.787 45.6803 223.787H126.728C129.748 223.787 132.191 225.815 132.191 228.31C132.191 230.805 129.748 232.833 126.728 232.833H126.719Z" fill="#455A64"/>
<path d="M28.3396 194.957L17.2764 108.322C16.8921 105.334 19.015 102.602 22.0073 102.218C24.9996 101.834 27.7357 103.954 28.12 106.942L39.1833 193.577C39.5676 196.565 37.4446 199.297 34.4523 199.681C31.46 200.065 28.724 197.945 28.3396 194.957Z" fill="#455A64"/>
<path d="M126.189 229.461L138.268 317.978H133.463L115.427 232.833L126.189 229.461Z" fill="#455A64"/>
<path d="M46.6231 229.461L34.8735 317.978H39.6777L57.3844 232.833L46.6231 229.461Z" fill="#455A64"/>
<path d="M126.719 232.833C126.719 232.952 108.317 233.052 85.6326 233.052C62.9479 233.052 44.5366 232.952 44.5366 232.833C44.5366 232.714 62.9296 232.614 85.6326 232.614C108.336 232.614 126.719 232.714 126.719 232.833Z" fill="#4F4747"/>
<path d="M63.8539 68.5182C63.8539 68.5182 64.769 64.991 65.8487 64.8722C66.9285 64.7534 91.3153 74.211 92.2029 75.6913C93.0905 77.1716 99.4686 93.4002 99.8438 94.9719C102.626 106.54 110.056 137.846 108.162 151.434C106.277 165.022 111.95 181.488 108.912 182.064C105.874 182.639 94.6278 182.383 91.5806 177.796C88.5334 173.209 70.8817 76.5685 69.0241 74.476C67.1664 72.3834 63.8447 68.5182 63.8447 68.5182H63.8539Z" fill="white"/>
<path d="M96.5312 180.52C96.5312 180.52 171.192 188.415 179.739 195.049C188.277 201.683 188.844 210.756 187.261 218.021C185.678 225.285 161.566 293.8 159.671 294.75C157.777 295.701 126.756 284.068 126.756 284.068L147.336 226.254C147.336 226.254 100.64 226.638 86.7216 223.485C76.3721 221.137 56.6705 208.006 53.1841 183.992L96.522 180.52H96.5312Z" fill="#4F4747"/>
<path d="M59.9741 74.2018C59.0681 74.2841 46.2754 83.6594 44.4361 95.4654C42.5968 107.271 53.5502 150.648 51.6926 159.256C49.835 167.864 42.0569 211.761 48.0872 217.006C54.1176 222.261 95.3051 222.443 95.3051 222.443C95.3051 222.443 102.443 161.97 99.3406 138.979C95.36 109.464 95.2776 115.358 89.8055 99.8515C84.3699 84.4635 65.2815 65.0093 64.3756 65.1007C63.4696 65.1829 59.9832 74.2018 59.9832 74.2018H59.9741Z" fill="#3865DC"/>
<path d="M95.3596 117.606C95.3596 117.606 95.2223 117.442 95.0119 117.122C94.7739 116.747 94.472 116.272 94.0968 115.687C93.2915 114.435 92.1202 112.644 90.647 110.442C87.6913 106.038 83.5185 100.016 78.8425 93.4094C78.4307 92.8337 78.0281 92.258 77.6255 91.7006L77.5522 91.6001L77.598 91.4813C78.0098 90.3665 78.4216 89.27 78.815 88.2009L78.9066 88.4841C77.4516 87.6252 76.0515 86.7937 74.6972 85.9895C73.3155 85.222 72.0893 84.2808 70.9637 83.4127C68.7035 81.6583 66.7452 80.0317 65.1072 78.6794C63.4784 77.3178 62.1882 76.2213 61.3097 75.4537C60.8979 75.0882 60.5685 74.7958 60.3031 74.5674C60.0743 74.3572 59.9645 74.2476 59.9737 74.2384C59.9828 74.2293 60.1109 74.3207 60.358 74.5034C60.6325 74.7227 60.9803 74.9968 61.4103 75.3349C62.362 76.1025 63.6797 77.1534 65.2994 78.4509C66.9557 79.7759 68.9414 81.3658 71.2108 83.0929C72.3546 83.961 73.5351 84.8565 74.9168 85.6058C76.2803 86.4007 77.6987 87.2323 79.1536 88.0912L79.3183 88.1826L79.2543 88.3654C78.8608 89.4345 78.4582 90.531 78.0464 91.6549L78.0189 91.4356C78.4216 92.0022 78.8242 92.5687 79.236 93.1535C83.912 99.7601 88.039 105.828 90.9306 110.278C92.3765 112.507 93.502 114.335 94.2615 115.614C94.6458 116.254 94.9112 116.756 95.1034 117.104C95.2864 117.451 95.3779 117.633 95.3687 117.643L95.3596 117.606Z" fill="#4F4747"/>
<path opacity="0.3" d="M59.3608 130.5C59.3608 130.5 72.6294 158.488 80.3526 163.377C88.0759 168.266 100.091 170.559 100.091 170.559L100.054 158.488L59.3608 130.509V130.5Z" fill="#333333"/>
<path d="M162.672 132.09C163.148 132.693 164.027 132.793 164.631 132.318L187.16 114.581C187.764 114.106 187.864 113.229 187.389 112.626C186.913 112.023 186.034 111.922 185.43 112.397L162.901 130.134C162.297 130.609 162.197 131.487 162.672 132.09Z" fill="#4F4747"/>
<path d="M145.817 136.494C146.009 136.082 148.992 131.651 150.886 130.234C152.79 128.809 161.062 124.742 162.133 124.295C163.194 123.847 169.252 125.135 169.252 125.135L165.866 127.822C164.667 128.361 162.947 128.105 162.947 128.105L160.595 130.015L165.162 129.257C165.162 129.257 172.629 124.724 173.846 125.41C175.063 126.095 174.349 128.462 173.361 129.503L172.51 130.554C172.51 130.554 173.58 133.615 172.144 134.739C170.707 135.863 168.19 137.681 168.19 137.681C168.19 137.681 168.291 141.73 166.141 142.771C166.141 142.771 166.58 145.129 165.061 145.814C163.533 146.499 150.648 148.007 150.648 148.007L144.014 151.626L139.814 138.687L145.808 136.484L145.817 136.494Z" fill="#FFBF9D"/>
<path d="M172.336 130.508C172.437 130.609 171.576 131.568 170.259 132.418C168.941 133.277 167.724 133.679 167.669 133.551C167.605 133.414 168.694 132.811 169.966 131.98C171.247 131.157 172.226 130.399 172.327 130.508H172.336Z" fill="#FF9A6C"/>
<path d="M146.082 134.191C146.082 134.191 141.754 133.935 141.287 134.282C140.82 134.62 142.33 152.97 143.346 153.545C144.362 154.121 147.904 152.878 148.627 152.449C149.35 152.019 149.761 139.537 146.082 134.2V134.191Z" fill="white"/>
<path d="M53.4859 85.5783C52.9826 85.9895 42.3311 89.1603 46.3483 106.75C50.3746 124.341 63.7164 133.899 72.739 146.161C81.7617 158.424 87.8103 159 95.3597 159.137C102.909 159.274 137.984 157.108 142.358 154.376C146.101 152.037 145.762 139.719 143.282 135.516C142.87 134.812 142.394 134.337 141.864 134.173C138.203 133.04 104.071 135.598 102.653 134.675C101.225 133.752 80.9198 100.135 76.2346 93.3819C71.5494 86.6292 56.1487 83.4218 53.4859 85.5692V85.5783Z" fill="#3865DC"/>
<path d="M53.4859 85.5783C53.4859 85.5783 53.6689 85.3956 54.1173 85.2128C54.5748 85.0392 55.2886 84.893 56.2311 84.8747C58.1161 84.8199 60.9163 85.1306 64.3661 86.1266C66.0864 86.6291 67.9715 87.3053 69.9297 88.2739C71.8697 89.2517 73.9469 90.5035 75.6581 92.4316C76.5 93.4093 77.168 94.5424 77.9275 95.6663C78.6596 96.8086 79.4191 97.9782 80.1969 99.1935C81.7342 101.624 83.3539 104.201 85.0559 106.906C88.4508 112.315 92.166 118.246 96.1558 124.615C97.1715 126.196 98.1964 127.804 99.2396 129.439C100.301 131.057 101.353 132.747 102.561 134.292C102.644 134.383 102.699 134.447 102.781 134.502C102.854 134.52 102.946 134.557 103.074 134.566C103.303 134.602 103.559 134.611 103.806 134.63C104.3 134.657 104.803 134.657 105.316 134.666C106.331 134.666 107.347 134.648 108.381 134.62C110.44 134.547 112.526 134.474 114.631 134.401C118.859 134.228 123.187 134.045 127.607 133.871C129.821 133.789 132.054 133.716 134.314 133.67C136.575 133.652 138.853 133.57 141.177 133.807C141.47 133.844 141.772 133.889 142.074 133.999C142.385 134.127 142.632 134.328 142.852 134.557C143.282 135.004 143.575 135.543 143.822 136.073C144.316 137.161 144.618 138.303 144.847 139.454C145.304 141.766 145.451 144.151 145.341 146.545C145.277 147.742 145.149 148.939 144.883 150.127C144.618 151.306 144.252 152.494 143.52 153.536C143.163 154.038 142.669 154.522 142.074 154.769C141.498 155.034 140.912 155.208 140.317 155.372C139.137 155.692 137.929 155.911 136.73 156.122C131.899 156.935 127.094 157.419 122.364 157.858C117.623 158.287 112.957 158.616 108.354 158.89C103.751 159.137 99.2396 159.411 94.7923 159.338C92.5778 159.274 90.3634 159.183 88.2221 158.671C86.09 158.178 84.0676 157.3 82.2741 156.14C78.6779 153.81 75.896 150.648 73.4619 147.477C72.2266 145.887 71.0919 144.297 69.8382 142.817C68.6212 141.309 67.3675 139.875 66.123 138.467C61.1542 132.848 56.3592 127.685 52.9094 122.266C51.1799 119.58 49.6883 116.893 48.6085 114.216C47.9954 112.909 47.6111 111.548 47.1444 110.278C46.7601 108.971 46.4215 107.701 46.1287 106.467C45.0763 101.505 45.0214 96.9639 46.1836 93.5464C47.2817 90.0832 49.3955 88.0089 50.9237 86.949C51.6923 86.4007 52.3512 86.09 52.7813 85.8798C53.2205 85.6788 53.4493 85.5783 53.4493 85.5783C53.4859 85.6331 52.5159 85.9529 50.9877 87.0312C49.487 88.1094 47.4189 90.1837 46.3666 93.6012C45.241 96.9822 45.3142 101.478 46.394 106.403C46.6869 107.628 47.0346 108.898 47.4189 110.186C47.8856 111.456 48.2791 112.8 48.883 114.097C49.9628 116.756 51.4544 119.415 53.1839 122.084C56.6337 127.457 61.4196 132.601 66.4067 138.212C67.6512 139.619 68.914 141.053 70.1402 142.57C71.3939 144.051 72.556 145.668 73.7822 147.24C76.2071 150.383 78.9798 153.508 82.5029 155.793C84.2598 156.926 86.2272 157.775 88.3136 158.26C90.4 158.762 92.587 158.854 94.7923 158.909C99.203 158.973 103.723 158.689 108.308 158.443C112.902 158.168 117.569 157.83 122.299 157.401C127.03 156.962 131.825 156.478 136.63 155.674C137.828 155.464 139.018 155.244 140.18 154.934C141.342 154.623 142.495 154.276 143.117 153.28C143.776 152.339 144.142 151.187 144.398 150.045C144.655 148.894 144.783 147.715 144.847 146.545C144.957 144.197 144.81 141.839 144.362 139.573C144.133 138.44 143.84 137.325 143.364 136.293C142.898 135.278 142.248 134.273 141.077 134.292C138.826 134.063 136.529 134.136 134.278 134.154C132.027 134.191 129.785 134.264 127.579 134.346C123.16 134.52 118.831 134.694 114.604 134.867C112.49 134.94 110.403 135.004 108.345 135.077C107.311 135.105 106.286 135.114 105.27 135.114C104.757 135.114 104.254 135.105 103.742 135.077C103.486 135.059 103.229 135.05 102.964 135.004C102.845 135.004 102.689 134.959 102.525 134.885C102.397 134.812 102.278 134.684 102.204 134.584C100.951 132.967 99.9259 131.303 98.8552 129.677C97.8121 128.041 96.7872 126.424 95.7806 124.843C91.8092 118.465 88.1123 112.525 84.7265 107.107C83.0336 104.402 81.4231 101.816 79.8949 99.3763C79.1171 98.161 78.3667 96.9822 77.6438 95.84C76.8935 94.716 76.2163 93.5738 75.411 92.6235C73.7548 90.732 71.6958 89.471 69.7833 88.4932C67.8525 87.5155 65.9766 86.8302 64.2746 86.3185C60.8522 85.295 58.0704 84.9569 56.1945 84.9844C55.252 84.9935 54.5473 85.1214 54.0898 85.2768C53.6414 85.4412 53.4493 85.6149 53.4401 85.5966L53.4859 85.5783Z" fill="#4F4747"/>
<path d="M171.402 209.861C171.402 209.861 171.064 210.071 170.432 210.382C169.792 210.683 168.867 211.131 167.742 211.698C165.482 212.822 162.398 214.485 159.149 216.568C155.901 218.652 153.11 220.753 151.133 222.343C150.145 223.138 149.358 223.787 148.809 224.244C148.26 224.692 147.949 224.939 147.931 224.911C147.912 224.884 148.178 224.6 148.69 224.107C149.193 223.604 149.953 222.919 150.923 222.088C152.845 220.434 155.626 218.268 158.893 216.175C162.16 214.083 165.28 212.456 167.596 211.405C168.749 210.875 169.7 210.473 170.359 210.226C171.018 209.97 171.393 209.843 171.411 209.879L171.402 209.861Z" fill="#455A64"/>
<path d="M165.408 218.953C165.427 219.026 164.402 219.327 162.764 219.839C161.126 220.36 158.884 221.109 156.45 222.069C154.016 223.028 151.856 224.015 150.31 224.755C148.763 225.496 147.812 225.971 147.775 225.907C147.748 225.852 148.644 225.276 150.154 224.454C151.673 223.631 153.824 222.599 156.267 221.63C158.719 220.662 160.998 219.958 162.663 219.519C164.329 219.081 165.381 218.898 165.399 218.953H165.408Z" fill="#455A64"/>
<path d="M165.161 276.776L152.286 301.156C152.286 301.156 172.903 321.834 170.963 326.568L122.61 303.924L141.104 265.116L165.161 276.776Z" fill="#4F4747"/>
<path d="M122.382 303.806L123.855 300.717L170.341 323.635C170.341 323.635 171.421 325.317 170.853 326.824L122.382 303.797V303.806Z" fill="#455A64"/>
<path d="M152.415 301.411C152.296 301.649 151.052 301.183 149.523 301.384C147.986 301.548 146.888 302.28 146.714 302.078C146.512 301.923 147.556 300.68 149.413 300.47C151.271 300.242 152.571 301.219 152.415 301.411Z" fill="#455A64"/>
<path d="M156.496 305.971C156.441 306.227 155.215 306.136 153.925 306.748C152.616 307.324 151.893 308.311 151.664 308.183C151.426 308.11 151.93 306.648 153.549 305.916C155.16 305.167 156.606 305.743 156.496 305.971Z" fill="#455A64"/>
<path d="M156.45 313.455C156.212 313.4 156.45 312.057 157.686 311.052C158.912 310.038 160.275 310.065 160.285 310.312C160.321 310.568 159.269 310.924 158.262 311.765C157.237 312.578 156.688 313.547 156.441 313.455H156.45Z" fill="#455A64"/>
<path d="M154.748 295.49C154.547 295.655 153.613 294.805 152.232 294.257C150.859 293.672 149.596 293.617 149.568 293.361C149.513 293.124 150.959 292.74 152.579 293.416C154.208 294.083 154.959 295.372 154.748 295.5V295.49Z" fill="#455A64"/>
<path d="M121.293 131.706C121.165 131.706 120.964 129.696 121.192 127.219C121.421 124.734 121.989 122.796 122.108 122.824C122.245 122.851 121.888 124.816 121.659 127.265C121.43 129.705 121.421 131.706 121.284 131.706H121.293Z" fill="#4F4747"/>
<path d="M122.913 133.296C122.785 133.314 122.373 131.039 122.254 128.197C122.126 125.355 122.336 123.061 122.464 123.061C122.602 123.061 122.602 125.355 122.73 128.169C122.849 130.984 123.05 133.268 122.913 133.287V133.296Z" fill="#4F4747"/>
<path d="M100.942 85.9895C100.942 85.9895 101.033 86.1357 101.162 86.4373C101.308 86.7845 101.491 87.2231 101.711 87.7531C102.177 88.8953 102.809 90.5766 103.541 92.6692C105.005 96.8451 106.78 102.712 108.198 109.327C109.617 115.943 110.422 122.02 110.797 126.424C110.989 128.626 111.108 130.417 111.145 131.651C111.163 132.226 111.172 132.692 111.191 133.076C111.191 133.405 111.191 133.57 111.172 133.579C111.154 133.579 111.127 133.414 111.09 133.085C111.054 132.711 111.008 132.236 110.962 131.669C110.861 130.435 110.697 128.654 110.459 126.461C109.992 122.065 109.141 116.016 107.723 109.428C106.304 102.839 104.584 96.9822 103.211 92.7788C102.525 90.6772 101.949 88.9867 101.528 87.8262C101.345 87.2871 101.189 86.8393 101.07 86.4829C100.969 86.1723 100.924 86.0078 100.942 85.9986V85.9895Z" fill="#4F4747"/>
<path d="M187.49 218.651C187.49 218.651 187.453 218.852 187.334 219.218C187.197 219.629 187.014 220.168 186.794 220.826C186.291 222.27 185.604 224.271 184.763 226.711C183.042 231.736 180.7 238.581 178.11 246.138C175.52 253.731 173.123 260.593 171.32 265.528C170.423 267.995 169.673 269.987 169.142 271.358C168.886 272.006 168.676 272.527 168.52 272.929C168.374 273.286 168.291 273.468 168.273 273.468C168.255 273.468 168.31 273.267 168.429 272.902C168.566 272.491 168.749 271.952 168.968 271.294C169.472 269.85 170.158 267.849 171 265.409C172.72 260.383 175.063 253.539 177.652 245.973C180.242 238.38 182.64 231.526 184.442 226.583C185.339 224.116 186.089 222.114 186.62 220.753C186.876 220.104 187.087 219.583 187.242 219.181C187.389 218.825 187.471 218.642 187.49 218.642V218.651Z" fill="#455A64"/>
<path d="M208.536 287.476C208.536 287.476 208.17 287.696 207.484 288.016C206.797 288.335 205.782 288.765 204.51 289.258C201.975 290.245 198.388 291.424 194.334 292.347C190.28 293.261 186.538 293.745 183.82 293.946C182.466 294.047 181.358 294.101 180.599 294.111C179.839 294.12 179.418 294.111 179.418 294.074C179.418 294.038 179.839 293.992 180.59 293.919C181.349 293.855 182.438 293.754 183.783 293.608C186.483 293.316 190.189 292.786 194.224 291.872C198.251 290.958 201.829 289.834 204.382 288.929C205.663 288.482 206.688 288.098 207.401 287.833C208.115 287.568 208.509 287.431 208.527 287.467L208.536 287.476Z" fill="#455A64"/>
<path d="M62.7005 36.8748C61.7855 36.9661 60.8338 36.8565 60.0011 36.4635C59.1684 36.0615 58.4729 35.3487 58.1984 34.4715C57.933 33.5942 58.1343 32.5525 58.8023 31.9219C57.4389 31.6844 56.4231 30.2223 56.6794 28.8607C56.9447 27.5083 58.4363 26.5214 59.7815 26.8046C59.7815 25.2055 60.2573 23.6063 61.1175 22.2539L68.2001 26.1559L62.6822 36.8748H62.7005Z" fill="#4F4747"/>
<path d="M100.338 27.3166C102.799 27.6639 105.398 26.1104 106.249 23.7711C106.505 23.0674 106.615 22.2816 106.377 21.5779C106.139 20.8652 105.499 20.2712 104.748 20.2347C105.746 19.5493 106.505 18.4802 106.688 17.2831C106.871 16.086 106.441 14.7884 105.499 14.0299C104.556 13.2715 103.11 13.1435 102.113 13.8289C102.14 12.5222 101.335 11.2337 100.155 10.6763L94.8198 11.9008L100.329 27.3166H100.338Z" fill="#4F4747"/>
<path d="M91.617 75.2255L91.5163 67.632C91.5163 67.632 103.476 65.5121 103.522 54.3641C103.55 48.9819 102.689 37.8887 101.802 27.8555C100.841 17.073 91.7542 8.83076 80.9106 8.92214H79.8308C68.2185 9.69885 62.3895 19.9788 63.4876 31.5472L67.0747 65.1831L91.2143 79.502L91.617 75.2255Z" fill="#FFBF9D"/>
<path d="M91.617 67.5863C91.617 67.5863 84.5801 68.2351 77.0308 64.6165C77.0308 64.6165 80.4714 71.5248 91.5987 70.4374V67.5955L91.617 67.5863Z" fill="#FF9A6C"/>
<path d="M98.4074 39.2408C98.444 40.0815 97.7576 40.8034 96.8791 40.8582C96.0005 40.9131 95.2592 40.2734 95.2226 39.4327C95.186 38.592 95.8724 37.8701 96.7418 37.8153C97.6203 37.7605 98.3616 38.4001 98.3982 39.2408H98.4074Z" fill="#4F4747"/>
<path d="M99.4418 33.3289C99.2496 33.5391 98.0324 32.6527 96.3119 32.671C94.6005 32.671 93.3468 33.5574 93.1546 33.3472C93.0631 33.2558 93.2644 32.8812 93.8043 32.4791C94.3443 32.077 95.2595 31.6841 96.3302 31.6841C97.401 31.6841 98.2978 32.0679 98.8195 32.4608C99.3503 32.8629 99.5333 33.2375 99.4326 33.3289H99.4418Z" fill="#4F4747"/>
<path d="M83.5924 39.2408C83.629 40.0815 82.9427 40.8034 82.0641 40.8582C81.1855 40.9131 80.4443 40.2734 80.4076 39.4327C80.371 38.592 81.0574 37.8701 81.9268 37.8153C82.8054 37.7605 83.5467 38.4001 83.5833 39.2408H83.5924Z" fill="#4F4747"/>
<path d="M82.5859 33.7857C82.3937 33.9959 81.1766 33.1095 79.456 33.1278C77.7447 33.1278 76.4909 34.0142 76.2987 33.804C76.2072 33.7126 76.3994 33.3379 76.9485 32.9359C77.4884 32.5338 78.4036 32.1409 79.4743 32.1409C80.5451 32.1409 81.442 32.5247 81.9636 32.9176C82.4944 33.3197 82.6774 33.6943 82.5768 33.7857H82.5859Z" fill="#4F4747"/>
<path d="M88.9084 46.4418C88.9084 46.3413 89.9608 46.1494 91.6905 45.9209C92.1298 45.8752 92.5416 45.7838 92.6148 45.4823C92.7155 45.1625 92.5324 44.6964 92.3128 44.1847C91.8918 43.1338 91.4525 42.019 90.995 40.8676C89.1555 36.1432 87.8285 32.2504 88.0115 32.1773C88.2037 32.1042 89.851 35.8782 91.6813 40.6117C92.1206 41.7814 92.5507 42.8871 92.9534 43.9562C93.1273 44.4497 93.411 45.0163 93.1914 45.6742C93.0724 46.0032 92.7521 46.2407 92.4775 46.323C92.1938 46.4144 91.9467 46.4144 91.7362 46.4327C89.9974 46.5423 88.9175 46.5606 88.9084 46.4601V46.4418Z" fill="#4F4747"/>
<path d="M82.9703 27.0696C82.8055 27.5356 81.0942 27.3254 79.0808 27.5904C77.0674 27.8097 75.4476 28.4128 75.173 27.9925C75.054 27.7915 75.3286 27.3528 75.9875 26.8959C76.6373 26.439 77.6714 26.0004 78.8794 25.8633C80.0875 25.7263 81.1948 25.8999 81.927 26.1923C82.6682 26.4847 83.0435 26.8502 82.9703 27.0696Z" fill="#4F4747"/>
<path d="M98.7736 28.3763C98.4716 28.7692 97.291 28.3763 95.8725 28.3671C94.454 28.3123 93.246 28.6504 92.9714 28.2484C92.8524 28.0473 93.0355 27.6635 93.5571 27.2889C94.0696 26.9142 94.939 26.6126 95.9091 26.6309C96.8883 26.6583 97.7394 26.9964 98.2336 27.3985C98.737 27.7915 98.9109 28.1935 98.7736 28.3854V28.3763Z" fill="#4F4747"/>
<path d="M100.685 22.7566C100.685 22.7566 97.6838 15.8028 94.298 14.1945C90.1985 12.2573 88.4781 16.7439 84.5799 15.684C80.6817 14.6331 76.7743 12.769 72.8212 15.8028C68.4929 19.1198 70.5518 21.4133 70.323 26.3568C69.3988 46.4233 65.7751 52.1161 64.6496 42.686C64.5306 41.6534 61.6481 40.8493 61.1815 36.4814C60.5867 30.8161 60.3121 23.9353 61.5475 19.8965C62.5907 16.4972 64.5032 14.1397 67.953 11.5263C73.3977 7.40519 80.9288 7.25899 86.044 7.72501C91.1593 8.20017 101.07 13.9935 100.667 22.7383L100.685 22.7566Z" fill="#4F4747"/>
<path d="M65.3647 42.3844C65.2823 40.6665 63.7814 39.314 62.07 39.4968C59.9926 39.707 57.6864 40.9132 57.8511 45.2081C58.1531 52.8292 65.7582 50.9468 65.7582 50.7274C65.7582 50.5812 65.5202 45.5736 65.3647 42.3844Z" fill="#FFBF9D"/>
<path d="M63.9915 47.9221C63.9915 47.9221 63.8634 48.0226 63.6438 48.1323C63.4333 48.2419 63.058 48.3242 62.6554 48.1962C61.8409 47.9312 61.1087 46.6793 61.0172 45.3086C60.9715 44.6141 61.0904 43.9471 61.3101 43.3896C61.5206 42.8231 61.8683 42.421 62.271 42.3296C62.6737 42.22 62.9665 42.4484 63.0672 42.6586C63.177 42.8688 63.1313 43.0241 63.177 43.0333C63.1953 43.0515 63.3326 42.8962 63.2594 42.5855C63.2228 42.4393 63.1221 42.2565 62.9391 42.1195C62.7469 41.9732 62.4815 41.9093 62.1978 41.955C61.6121 42.0189 61.0996 42.5764 60.8525 43.1886C60.5779 43.8008 60.4224 44.5502 60.4773 45.3269C60.5871 46.8621 61.429 48.2693 62.5456 48.5435C63.0855 48.6623 63.5248 48.4795 63.7536 48.2968C63.9824 48.0957 64.019 47.9312 63.9915 47.913V47.9221Z" fill="#FF9A6C"/>
<path d="M104.089 8.02645C103.385 6.09839 101.527 4.75515 99.5324 4.26171C97.5376 3.77741 95.4329 4.05154 93.4563 4.5998C93.557 1.83107 90.4457 -0.17923 87.6731 0.0126627C84.9004 0.204555 82.4937 1.89504 80.2518 3.52155C76.8111 1.57521 71.8331 3.27483 70.3141 6.92078C68.2643 5.87908 65.6655 6.02529 63.7439 7.28629C61.8222 8.53816 60.6509 10.8591 60.779 13.1527C58.9855 13.5639 57.4756 15.0168 56.9998 16.7895C56.5239 18.5623 57.1004 20.5817 58.4456 21.8336C57.2011 22.6925 56.5971 24.383 57.0364 25.8359C57.4756 27.2796 58.9123 28.367 60.4221 28.3853L65.7662 23.2956C68.8042 23.7251 71.9155 21.0751 71.9612 18.0049C74.3038 18.8181 77.1131 18.0688 78.7328 16.1956C79.291 17.5937 80.5812 18.6902 82.0545 19.0009C83.5278 19.3207 85.1566 18.8547 86.2364 17.8038C86.5018 19.8415 88.0391 21.6599 90.0065 22.2722C91.9739 22.8844 94.2707 22.2539 95.6525 20.7279C97.6199 22.2448 100.759 21.9524 102.406 20.0974C104.053 18.2333 103.971 15.0991 102.232 13.3263C104.062 12.4034 104.794 9.95451 104.099 8.02645H104.089Z" fill="#4F4747"/>
<path d="M71.6135 19.2933C71.6135 19.2933 71.6318 19.5309 71.4946 19.9239C71.3482 20.3168 71.0553 20.8742 70.4788 21.4042C69.9115 21.916 69.0147 22.3911 67.9349 22.3911C66.8735 22.3911 65.6656 21.9525 64.8328 20.9747L65.2721 20.9473C64.9152 21.5139 64.4211 22.0165 63.8263 22.3911C62.5543 23.1953 61.0078 23.3689 59.7725 22.9577C58.5188 22.5556 57.6678 21.6418 57.2011 20.8103C56.7253 19.9696 56.6063 19.1745 56.5972 18.6445C56.5972 18.1145 56.6978 17.8313 56.7253 17.8313C56.8351 17.813 56.5697 19.0558 57.5305 20.6092C58.0064 21.3494 58.8025 22.1444 59.9189 22.4642C61.017 22.8023 62.3987 22.6379 63.5243 21.9251C64.055 21.587 64.4943 21.1484 64.8054 20.664L65.0067 20.3534L65.2446 20.6366C65.9492 21.4773 67.0016 21.9068 67.9349 21.9251C68.8775 21.9616 69.6827 21.587 70.2409 21.1484C71.3665 20.2346 71.522 19.2659 71.6135 19.3116V19.2933Z" fill="#455A64"/>
<path d="M89.577 50.9647C88.1676 50.2245 86.7491 49.4843 85.3398 48.7441C85.2025 48.671 85.0561 48.5979 84.9005 48.5888C84.5344 48.5797 84.269 48.9269 84.1226 49.2559C83.5369 50.5717 83.8663 52.244 84.9096 53.2401C85.9529 54.2361 87.6368 54.492 88.9364 53.8523C89.5129 53.569 90.1627 52.6004 90.3732 51.9973C90.5837 51.4033 90.2359 51.2571 89.577 50.9647Z" fill="#FF9A6C"/>
<path d="M88.4697 53.8523C88.5155 53.8705 87.7467 54.4554 86.3557 54.2086C85.6876 54.0807 84.8914 53.6969 84.3332 52.9384C83.7932 52.1891 83.537 51.1108 83.8024 50.06C83.8756 49.8041 83.9579 49.5482 84.0861 49.3198C84.2142 49.0913 84.324 48.872 84.5802 48.671C84.8548 48.4517 85.2483 48.5065 85.4588 48.607C85.6968 48.7075 85.8798 48.8172 86.072 48.9269C86.7858 49.3289 87.4539 49.7127 88.0853 50.06C89.2202 50.7179 89.9065 51.1565 89.8699 51.2114C89.8333 51.2662 89.092 50.9372 87.9206 50.3524C87.2891 50.0326 86.6028 49.6853 85.8706 49.3106C85.4954 49.1096 85.047 48.8446 84.8548 49.0456C84.5986 49.2741 84.3698 49.7493 84.2599 50.1788C84.0311 51.0834 84.2416 52.0246 84.6901 52.6826C85.1477 53.3497 85.834 53.7243 86.438 53.8797C87.6735 54.1995 88.4606 53.7609 88.4789 53.8523H88.4697Z" fill="#4F4747"/>
<path d="M325.94 167.288L73.6084 168.266L76.6556 158.479H318.812L325.94 167.288Z" fill="#AE7461"/>
<path d="M104.529 161.778C104.529 161.778 94.3347 328.359 97.3179 329.264C100.301 330.177 106.267 331.338 107.548 329.264C108.829 327.198 125.585 163.88 125.585 163.88L104.529 161.778Z" fill="#AE7461"/>
<path d="M302.889 161.778C302.889 161.778 313.083 328.359 310.1 329.264C307.117 330.177 301.151 331.338 299.87 329.264C298.589 327.198 281.833 163.88 281.833 163.88L302.889 161.778Z" fill="#AE7461"/>
<path d="M315.417 167.471C315.417 167.599 261.4 167.891 194.774 168.11C128.129 168.33 74.1211 168.403 74.1211 168.275C74.1211 168.147 128.129 167.854 194.774 167.635C261.4 167.416 315.417 167.343 315.417 167.471Z" fill="#4F4747"/>
</svg>
