<svg width="488" height="323" viewBox="0 0 488 323" fill="none" xmlns="http://www.w3.org/2000/svg">
<path d="M422.4 153.254C423.397 153.722 424.442 153.944 425.478 153.96C425.842 153.96 426.199 154.015 426.547 154.118L419.987 168.251C419.504 169.289 419.955 170.524 420.992 171.008L435.686 177.836L436.462 176.165C436.644 175.777 436.739 175.365 436.762 174.937C436.802 174.081 437.008 173.226 437.388 172.402C439.026 168.869 443.283 167.379 446.78 169.178C449.859 170.762 451.299 174.517 450.056 177.757C449.621 178.898 448.917 179.841 448.054 180.569C447.667 180.894 447.35 181.282 447.136 181.742L446.59 182.914L461.451 189.886C462.725 190.48 464.245 189.925 464.838 188.65L470.931 175.547L471.944 176.022C472.063 176.078 472.173 176.133 472.284 176.197C473.115 177.702 474.413 178.961 476.083 179.738C480.284 181.694 485.27 179.864 487.216 175.658C489.171 171.451 487.343 166.46 483.141 164.512C481.764 163.87 480.308 163.64 478.9 163.759C478.678 163.711 478.456 163.64 478.251 163.537L476.945 162.935L483.734 148.303C484.328 147.028 483.774 145.507 482.5 144.913L441.851 126.011C440.814 125.528 439.58 125.979 439.097 127.017L432.181 141.91C431.959 141.728 431.753 141.53 431.579 141.3C430.614 140.12 429.285 139.193 427.639 138.749C424.371 137.862 420.833 139.296 419.077 142.211C416.655 146.228 418.27 151.329 422.377 153.239L422.4 153.254Z" fill="#E7EEFC"/>
<path d="M447.263 311.536C447.912 310.965 448.41 310.284 448.751 309.547C448.869 309.286 449.02 309.048 449.202 308.834L457.241 318.024C457.835 318.697 458.863 318.768 459.536 318.174L469.087 309.801L468.138 308.715C467.916 308.462 467.655 308.264 467.354 308.113C466.753 307.812 466.207 307.392 465.74 306.862C463.73 304.564 464.015 301.039 466.413 299.098C468.525 297.387 471.667 297.553 473.598 299.471C474.278 300.144 474.729 300.952 474.974 301.8C475.085 302.18 475.267 302.528 475.52 302.829L476.185 303.59L485.895 295.137C486.725 294.408 486.805 293.149 486.084 292.317L478.638 283.785L479.295 283.207C479.366 283.143 479.445 283.08 479.524 283.017C480.862 282.898 482.175 282.367 483.267 281.416C485.997 279.024 486.274 274.865 483.885 272.132C481.495 269.399 477.341 269.121 474.611 271.514C473.716 272.298 473.091 273.273 472.727 274.318C472.624 274.461 472.498 274.595 472.363 274.714L471.516 275.459L463.2 265.945C462.472 265.113 461.214 265.026 460.383 265.755L433.945 288.926C433.273 289.521 433.201 290.55 433.795 291.224L442.27 300.912C442.072 301.015 441.858 301.095 441.645 301.158C440.489 301.475 439.413 302.132 438.566 303.178C436.889 305.238 436.794 308.232 438.329 310.419C440.434 313.429 444.604 313.889 447.271 311.552L447.263 311.536Z" fill="#E7EEFC"/>
<path d="M353.01 37.6093C351.681 37.237 350.344 37.1736 349.062 37.3637C348.611 37.4271 348.16 37.443 347.709 37.3875L352.915 18.6045C353.295 17.2181 352.488 15.7922 351.111 15.404L331.59 9.97744L330.972 12.1956C330.83 12.7105 330.79 13.2413 330.854 13.7721C330.972 14.8336 330.901 15.9348 330.601 17.028C329.295 21.7257 324.349 24.4271 319.673 22.922C315.55 21.599 313.01 17.2577 313.88 13.0116C314.189 11.5143 314.861 10.2072 315.771 9.13771C316.183 8.66239 316.492 8.10785 316.658 7.50578L317.085 5.95307L297.326 0.391839C295.633 -0.0755584 293.876 0.91469 293.401 2.60999L288.55 20.0225L287.205 19.6502C287.055 19.6106 286.897 19.563 286.746 19.5076C285.417 17.8202 283.557 16.5289 281.334 15.911C275.755 14.3583 269.971 17.6301 268.427 23.223C266.877 28.808 270.145 34.599 275.731 36.1437C277.559 36.6508 279.403 36.6428 281.112 36.1992C281.397 36.215 281.682 36.2626 281.959 36.3339L283.692 36.8171L278.303 56.2577C277.836 57.953 278.825 59.7117 280.519 60.187L334.541 75.1991C335.926 75.5794 337.35 74.7713 337.738 73.3929L343.23 53.5959C343.538 53.7702 343.831 53.9841 344.1 54.2217C345.533 55.4892 347.36 56.3527 349.481 56.5666C353.691 56.9944 357.766 54.5069 359.341 50.538C361.509 45.0877 358.47 39.1224 353.018 37.6014L353.01 37.6093Z" fill="#E7EEFC"/>
<path d="M206.769 201.531C211.177 201.222 214.983 202.418 218.67 204.137C220.316 204.906 222.255 205.46 224.067 205.46L228.886 205.349L228.941 151.709C228.941 146.647 224.811 142.536 219.723 142.536L168.794 142.726V141.625C168.794 139.47 169.348 137.363 170.29 135.43C172.759 130.344 173.771 124.434 172.711 118.199C170.598 105.825 160.28 96.1763 147.737 94.8058C130.487 92.9283 115.887 106.324 115.887 123.111C115.887 127.191 116.758 131.065 118.317 134.574C119.124 136.388 119.591 138.337 119.591 140.318L119.891 142.726H58.5096C53.4215 142.726 49.2908 146.829 49.2908 151.9V204.343H44.9149C42.8812 204.343 40.8871 203.82 39.0592 202.925C34.256 200.588 28.3687 199.622 22.4734 200.636C10.7779 202.64 1.65412 212.416 0.364287 224.291C-1.40824 240.634 11.2448 254.465 27.1184 254.465C30.9721 254.465 34.6358 253.642 37.9514 252.16C39.6685 251.4 41.5044 250.956 43.3798 250.956H48.998L49.1088 315.108C49.1088 319.236 52.4719 322.579 56.6183 322.579H220.902C225.048 322.579 228.293 317.366 228.293 313.247V254.941H221.646C220.11 254.941 218.591 255.242 217.167 255.82C214.302 256.969 211.177 257.618 207.901 257.618C193.815 257.618 182.468 245.981 183.03 231.84C183.528 219.379 194.282 202.402 206.777 201.539L206.769 201.531Z" fill="#F9F9F9"/>
<path d="M206.769 201.531C206.769 201.531 206.627 201.555 206.334 201.586C206.049 201.626 205.614 201.658 205.044 201.785C203.912 201.998 202.235 202.458 200.225 203.504C196.213 205.547 190.959 210.229 186.994 218.04C185.071 221.93 183.33 226.604 183.101 231.959C183.03 234.629 183.378 237.426 184.233 240.206C185.095 242.979 186.496 245.712 188.45 248.168C190.405 250.624 192.905 252.794 195.857 254.418C198.8 256.042 202.187 257.104 205.756 257.397C209.325 257.745 213.076 257.238 216.629 255.9C218.377 255.131 220.356 254.735 222.326 254.822C224.289 254.822 226.275 254.822 228.285 254.822H228.411V254.949C228.411 264.17 228.419 273.978 228.427 284.324C228.427 289.497 228.427 294.804 228.427 300.247C228.427 302.964 228.427 305.721 228.427 308.502C228.427 309.896 228.427 311.29 228.427 312.7C228.443 313.397 228.395 314.134 228.285 314.839C228.142 315.544 227.968 316.241 227.699 316.915C227.185 318.261 226.425 319.529 225.412 320.583C224.423 321.644 223.094 322.476 221.606 322.706C220.846 322.793 220.134 322.753 219.398 322.761C218.67 322.761 217.934 322.761 217.206 322.761C215.742 322.761 214.263 322.761 212.783 322.761C206.856 322.761 200.802 322.761 194.638 322.761C182.31 322.761 169.522 322.761 156.323 322.769C129.925 322.769 101.873 322.777 72.4999 322.785C68.8282 322.785 65.1328 322.785 61.4216 322.785C59.5541 322.769 57.7262 322.824 55.8191 322.745C53.9121 322.555 52.0842 321.628 50.8102 320.179C49.5203 318.745 48.8398 316.788 48.8873 314.863C48.8873 312.977 48.8873 311.084 48.8794 309.183C48.8794 305.388 48.8635 301.578 48.8556 297.743C48.824 282.422 48.8002 266.816 48.7686 250.956L48.9743 251.162C47.8111 251.162 46.64 251.162 45.4688 251.162C44.2977 251.178 43.1186 251.107 41.9712 251.241C40.8159 251.376 39.6844 251.677 38.5924 252.105C37.5162 252.564 36.4004 253.048 35.253 253.396C30.6714 254.878 25.6387 255.06 20.8671 253.927C16.1192 252.747 11.5771 250.354 8.08746 246.789C6.26745 245.078 4.82727 243.01 3.53744 240.872C2.98352 239.755 2.33465 238.669 1.939 237.473C1.72534 236.887 1.4563 236.308 1.28221 235.706L0.783687 233.884C-0.656493 227.903 -0.118403 221.463 2.45335 215.917C4.97762 210.356 9.42477 205.753 14.7898 202.997C17.4724 201.61 20.3844 200.723 23.3518 200.287C26.3192 199.883 29.3499 199.955 32.2777 200.493C33.7416 200.763 35.1818 201.159 36.5824 201.658C37.2788 201.911 37.9672 202.189 38.6398 202.505C39.3204 202.822 39.9534 203.131 40.6498 203.369C43.3798 204.446 46.363 204.05 49.2829 204.129L49.0772 204.335C49.0772 192.991 49.0772 181.789 49.0772 170.738C49.0772 165.217 49.0772 159.727 49.0772 154.284C49.1009 152.93 48.9901 151.559 49.2434 150.181C49.4808 148.818 50.0505 147.519 50.8655 146.402C52.4798 144.16 55.099 142.694 57.837 142.536C79.2497 142.536 99.9741 142.52 119.875 142.512L119.693 142.718C119.591 141.894 119.488 141.102 119.393 140.31V140.286C119.393 138.813 119.132 137.347 118.657 135.953C118.427 135.256 118.119 134.59 117.826 133.901C117.541 133.212 117.288 132.515 117.058 131.802C116.14 128.974 115.689 126.019 115.689 123.088L115.808 120.893C115.832 120.529 115.832 120.164 115.887 119.8L116.061 118.722C116.196 118.01 116.259 117.281 116.449 116.576L117.027 114.476C117.114 114.12 117.24 113.787 117.375 113.454L117.771 112.448C118.032 111.775 118.285 111.102 118.641 110.476L119.638 108.574L120.817 106.784C122.471 104.471 124.378 102.324 126.625 100.637L127.44 99.9712L128.319 99.3928C128.904 99.0126 129.482 98.6165 130.083 98.26C131.334 97.6421 132.528 96.9212 133.85 96.4776C136.406 95.4002 139.128 94.8615 141.826 94.5604C143.187 94.505 144.541 94.3545 145.894 94.4971C146.566 94.5446 147.247 94.5525 147.911 94.6238C148.576 94.7268 149.241 94.8219 149.906 94.9249C155.168 95.9547 160.058 98.4105 163.88 101.92C167.702 105.421 170.567 109.858 171.991 114.666C173.487 119.451 173.613 124.529 172.577 129.235C172.054 131.588 171.208 133.846 170.171 135.953C169.696 137.014 169.34 138.123 169.134 139.256C168.913 140.389 168.905 141.53 168.921 142.686L168.77 142.536C182.587 142.488 195.524 142.449 207.513 142.409C210.512 142.401 213.448 142.393 216.328 142.385C217.048 142.385 217.76 142.385 218.472 142.385C219.185 142.385 219.889 142.378 220.609 142.425C222.033 142.56 223.394 143.035 224.589 143.764C226.995 145.206 228.585 147.741 228.934 150.387C229.1 151.718 229.005 153.017 229.028 154.3C229.028 155.583 229.028 156.851 229.028 158.111C228.989 178.161 228.957 194.1 228.934 205.31V205.373H228.878C226.939 205.397 225.127 205.492 223.442 205.452C221.748 205.334 220.237 204.85 218.931 204.272C216.352 203.044 214.104 202.284 212.276 201.911C210.441 201.531 209.048 201.468 208.138 201.468C207.679 201.468 207.339 201.476 207.109 201.483C206.88 201.491 206.769 201.491 206.769 201.491C206.769 201.491 207.22 201.436 208.138 201.428C209.056 201.428 210.456 201.476 212.292 201.848C214.128 202.212 216.383 202.973 218.979 204.185C220.285 204.755 221.788 205.231 223.458 205.341C225.135 205.373 226.947 205.278 228.886 205.246L228.831 205.31C228.831 194.1 228.831 178.161 228.831 158.111C228.831 156.859 228.831 155.591 228.831 154.3C228.807 153.017 228.894 151.702 228.736 150.418C228.387 147.844 226.837 145.372 224.494 143.97C223.331 143.265 222.002 142.797 220.617 142.671C219.928 142.623 219.216 142.623 218.504 142.631C217.792 142.631 217.08 142.631 216.36 142.639C213.479 142.655 210.544 142.663 207.544 142.679C195.556 142.726 182.61 142.782 168.802 142.845H168.66V142.694C168.652 141.554 168.652 140.365 168.881 139.209C169.095 138.052 169.451 136.919 169.934 135.834C170.97 133.727 171.793 131.509 172.315 129.172C173.344 124.521 173.218 119.491 171.73 114.762C170.313 110.008 167.481 105.62 163.698 102.166C159.916 98.6957 155.081 96.2795 149.882 95.2576C149.225 95.1625 148.568 95.0595 147.911 94.9565C147.255 94.8852 146.582 94.8773 145.917 94.8298C144.58 94.6951 143.243 94.8298 141.898 94.8932C139.231 95.1942 136.54 95.7171 134.016 96.7865C132.718 97.2222 131.531 97.9352 130.297 98.5452C129.704 98.8938 129.142 99.2899 128.556 99.6622L127.694 100.233L126.886 100.89C124.663 102.562 122.787 104.685 121.149 106.966L119.986 108.733L119.005 110.618C118.649 111.236 118.404 111.902 118.143 112.567L117.747 113.557C117.612 113.89 117.486 114.223 117.399 114.571L116.829 116.639C116.639 117.328 116.576 118.049 116.441 118.754L116.267 119.824C116.212 120.18 116.22 120.545 116.196 120.901L116.077 123.064C116.077 125.963 116.528 128.878 117.43 131.667C117.66 132.364 117.913 133.053 118.19 133.735C118.475 134.408 118.791 135.097 119.029 135.81C119.511 137.236 119.788 138.741 119.781 140.262V140.239C119.875 141.031 119.978 141.823 120.081 142.647L120.105 142.861H119.891C99.9978 142.877 79.2814 142.892 57.8765 142.9C55.2573 143.051 52.7409 144.453 51.1979 146.6C50.4145 147.662 49.8764 148.905 49.6469 150.212C49.4095 151.512 49.5203 152.882 49.4887 154.245C49.4887 159.687 49.4887 165.169 49.4887 170.699C49.4887 181.742 49.4887 192.951 49.4887 204.296V204.502H49.2829C47.8269 204.502 46.363 204.502 44.8991 204.502C43.4114 204.502 41.9238 204.217 40.5152 203.717C39.811 203.48 39.1305 203.139 38.4737 202.838C37.809 202.529 37.1364 202.26 36.4479 202.006C35.071 201.507 33.6546 201.127 32.2065 200.858C29.3182 200.327 26.335 200.256 23.4151 200.652C20.4952 201.087 17.6306 201.959 14.9877 203.321C9.70173 206.031 5.3258 210.57 2.83318 216.044C0.300992 221.502 -0.22127 227.856 1.19517 233.742L1.68578 235.532C1.85986 236.126 2.121 236.689 2.33465 237.267C2.7303 238.439 3.36335 239.509 3.90936 240.61C5.18336 242.717 6.5998 244.753 8.38815 246.441C11.8224 249.95 16.2933 252.311 20.9699 253.468C25.6703 254.585 30.6318 254.41 35.1343 252.953C36.2738 252.604 37.3421 252.137 38.4499 251.669C39.5657 251.226 40.7368 250.917 41.9317 250.782C43.1345 250.647 44.3135 250.719 45.4767 250.695C46.6479 250.695 47.819 250.695 48.9822 250.695H49.188V250.901C49.2117 266.753 49.2434 282.367 49.2671 297.688C49.2671 301.514 49.2829 305.333 49.2829 309.127C49.2829 311.021 49.2829 312.914 49.2908 314.807C49.2434 316.661 49.8922 318.491 51.1188 319.862C52.3216 321.24 54.0545 322.119 55.8666 322.302C57.6945 322.373 59.5858 322.325 61.4295 322.341C65.1407 322.341 68.8361 322.341 72.5078 322.341C101.881 322.341 129.933 322.349 156.331 322.357C169.53 322.357 182.318 322.357 194.646 322.365C200.81 322.365 206.864 322.365 212.791 322.365C214.271 322.365 215.75 322.365 217.214 322.365C217.95 322.365 218.678 322.365 219.406 322.365C220.134 322.365 220.878 322.389 221.566 322.31C222.959 322.096 224.225 321.311 225.191 320.282C226.172 319.26 226.916 318.032 227.414 316.717C227.683 316.067 227.849 315.386 227.992 314.704C228.103 314.015 228.142 313.334 228.134 312.621C228.134 311.211 228.134 309.817 228.134 308.422C228.134 305.642 228.134 302.885 228.134 300.168C228.134 294.733 228.134 289.417 228.134 284.244C228.134 273.898 228.142 264.091 228.15 254.87L228.277 254.996C226.267 254.996 224.273 254.996 222.318 254.996C220.356 254.917 218.457 255.29 216.708 256.05C213.123 257.397 209.333 257.904 205.732 257.547C202.132 257.246 198.713 256.169 195.746 254.529C192.779 252.889 190.254 250.695 188.292 248.215C186.322 245.736 184.913 242.979 184.058 240.182C183.196 237.386 182.856 234.566 182.935 231.88C183.18 226.485 184.937 221.795 186.875 217.906C190.864 210.079 196.158 205.405 200.193 203.369C202.219 202.331 203.904 201.88 205.036 201.682C205.606 201.563 206.041 201.539 206.326 201.507C206.619 201.476 206.761 201.468 206.761 201.468L206.769 201.531Z" fill="#4F4747"/>
<path d="M421.981 203.725C418.001 203.725 414.218 204.581 410.8 206.102C409.597 206.632 408.347 207.013 407.057 207.203V150.822C407.057 146.671 403.694 143.304 399.547 143.304H340.943V149.959C340.943 151.495 341.252 153.016 341.821 154.442C342.977 157.31 343.626 160.439 343.626 163.719C343.626 177.82 331.93 189.18 317.718 188.618C305.2 188.119 294.778 177.987 293.908 165.478C293.599 161.065 294.462 156.898 296.187 153.215C296.962 151.567 297.405 149.792 297.405 147.97V143.304L238.033 143.114C232.945 143.114 228.815 147.249 228.815 152.343L228.759 204.636H224.708C224.249 204.636 223.782 204.62 223.315 204.589C218.306 200.929 212.134 198.758 205.455 198.758C188.703 198.758 175.125 212.352 175.125 229.123C175.125 245.894 188.703 259.488 205.455 259.488C210.931 259.488 216.067 258.022 220.506 255.479C221.313 255.305 222.136 255.21 222.967 255.21H228.158V313.571C228.158 318.665 232.289 322.8 237.377 322.8H399.531C403.678 322.8 407.041 319.434 407.041 315.282V255.86C408.038 256.113 409.011 256.47 409.945 256.929C414.907 259.345 420.675 260.336 426.76 259.298C438.836 257.23 448.26 247.138 449.59 234.874C451.425 218.001 438.353 203.717 421.965 203.717L421.981 203.725Z" fill="#E7EEFC"/>
<path d="M421.981 203.725C421.981 203.725 422.574 203.749 423.745 203.805C424.331 203.836 425.059 203.836 425.913 204.011C426.341 204.082 426.808 204.153 427.306 204.232C427.813 204.288 428.327 204.43 428.881 204.589C429.435 204.739 430.02 204.906 430.638 205.072C431.247 205.278 431.872 205.547 432.537 205.801C432.869 205.936 433.209 206.054 433.55 206.205C433.882 206.379 434.214 206.554 434.562 206.736C435.243 207.108 435.995 207.433 436.683 207.932C439.548 209.706 442.57 212.345 445.039 216.02C447.477 219.68 449.479 224.402 449.763 229.852C449.795 230.533 449.851 231.215 449.858 231.912C449.819 232.601 449.787 233.306 449.748 234.011C449.724 234.368 449.724 234.724 449.669 235.081C449.613 235.437 449.566 235.794 449.51 236.15C449.455 236.507 449.4 236.871 449.344 237.227C449.257 237.584 449.178 237.94 449.091 238.305C448.41 241.18 447.239 244.064 445.538 246.766C443.837 249.459 441.621 251.994 438.907 254.085C436.193 256.169 432.996 257.817 429.482 258.815C428.612 259.084 427.702 259.219 426.8 259.433C425.882 259.575 424.964 259.71 424.022 259.765C422.147 259.908 420.232 259.861 418.317 259.599C416.402 259.354 414.487 258.87 412.612 258.205C410.72 257.563 409.003 256.454 407.033 256.01L407.191 255.884C407.191 265.01 407.199 274.698 407.207 284.91C407.207 290.012 407.207 295.248 407.207 300.611C407.207 303.289 407.207 306.006 407.207 308.747C407.207 310.118 407.207 311.496 407.207 312.882C407.207 313.58 407.207 314.269 407.207 314.966C407.215 315.314 407.183 315.671 407.167 316.027C407.112 316.376 407.088 316.74 406.985 317.081C406.36 319.885 403.986 322.246 401.098 322.817C400.386 322.951 399.634 322.991 398.922 322.975C398.202 322.975 397.482 322.975 396.762 322.975C395.314 322.975 393.866 322.975 392.41 322.975C386.57 322.975 380.619 322.975 374.558 322.975C362.435 322.975 349.869 322.975 336.899 322.983C310.968 322.983 283.431 322.991 254.603 322.999C251.003 322.999 247.379 322.999 243.739 322.999C241.919 322.999 240.091 322.999 238.263 322.999C237.353 323.007 236.403 322.983 235.485 322.809C234.567 322.603 233.681 322.278 232.85 321.834C231.212 320.915 229.827 319.521 228.981 317.826C228.538 316.986 228.261 316.067 228.102 315.14C227.92 314.205 227.968 313.247 227.96 312.328C227.96 308.604 227.96 304.865 227.96 301.11C227.96 286.082 227.96 270.769 227.96 255.218L228.166 255.424C226.963 255.424 225.705 255.424 224.423 255.424C223.782 255.424 223.117 255.416 222.484 255.432C221.843 255.464 221.194 255.551 220.561 255.686L220.617 255.662C216.898 257.793 212.664 259.171 208.28 259.567C203.896 259.94 199.378 259.409 195.152 257.872C190.935 256.351 187.002 253.887 183.789 250.655C180.6 247.399 178.116 243.415 176.612 239.065C175.568 235.944 174.974 232.672 174.942 229.393C174.95 226.113 175.441 222.849 176.414 219.736C177.395 216.622 178.954 213.715 180.853 211.093C181.779 209.754 182.895 208.582 184.003 207.401L185.799 205.769C186.401 205.238 187.081 204.787 187.714 204.296C190.341 202.434 193.237 200.961 196.284 199.97C199.354 199.036 202.543 198.592 205.724 198.56C212.094 198.584 218.385 200.699 223.45 204.423L223.347 204.383C225.135 204.47 226.971 204.407 228.767 204.43L228.561 204.636C228.577 193.466 228.585 182.431 228.601 171.562C228.601 166.128 228.617 160.725 228.617 155.37V153.365C228.617 152.7 228.617 152.027 228.672 151.345C228.815 149.991 229.266 148.676 229.962 147.511C231.347 145.174 233.768 143.495 236.427 143.067C237.764 142.837 239.086 142.948 240.391 142.932C241.705 142.932 243.011 142.94 244.316 142.948C246.928 142.956 249.523 142.964 252.111 142.972C257.286 142.988 262.414 143.003 267.494 143.027C277.654 143.059 287.632 143.098 297.397 143.13H297.579V143.312C297.579 144.715 297.579 146.109 297.579 147.495C297.619 148.897 297.421 150.323 296.994 151.654C296.788 152.32 296.503 152.969 296.218 153.595C295.933 154.213 295.68 154.855 295.451 155.496C295 156.78 294.636 158.095 294.406 159.434C293.433 164.773 294.359 170.334 296.796 175C298.014 177.337 299.565 179.484 301.433 181.306C303.292 183.128 305.413 184.641 307.692 185.806C312.242 188.198 317.481 188.903 322.395 188.198C327.317 187.469 331.898 185.228 335.435 181.964C337.176 180.308 338.775 178.494 339.938 176.426C341.141 174.39 342.106 172.22 342.644 169.954C343.855 165.454 343.697 160.701 342.351 156.415C342.043 155.338 341.544 154.332 341.236 153.231C340.927 152.137 340.777 151.012 340.785 149.895C340.785 147.677 340.785 145.483 340.785 143.312V143.162H340.935C356.342 143.162 370.672 143.178 383.824 143.186C387.108 143.186 390.32 143.186 393.462 143.186C395.029 143.186 396.58 143.186 398.115 143.186C398.882 143.186 399.642 143.17 400.41 143.241C401.177 143.328 401.913 143.542 402.609 143.835C403.994 144.453 405.173 145.475 405.965 146.727C406.764 147.97 407.152 149.436 407.16 150.87C407.16 153.706 407.16 156.463 407.16 159.133C407.136 180.538 407.12 196.817 407.104 207.203L407.049 207.156C409.684 206.815 411.678 205.524 413.553 205.009C415.405 204.415 416.988 204.121 418.246 203.955C419.504 203.789 420.446 203.741 421.063 203.733C421.68 203.717 421.989 203.733 421.989 203.733C421.989 203.733 421.688 203.741 421.063 203.765C420.446 203.789 419.504 203.844 418.254 204.018C417.003 204.201 415.429 204.494 413.577 205.096C411.71 205.611 409.723 206.91 407.065 207.266H407.009V207.219C407.001 196.841 406.977 180.554 406.954 159.148C406.954 156.471 406.954 153.714 406.954 150.886C406.954 149.491 406.566 148.073 405.791 146.861C405.023 145.649 403.876 144.659 402.538 144.065C401.866 143.78 401.146 143.574 400.402 143.487C399.666 143.415 398.898 143.439 398.131 143.439C396.603 143.439 395.052 143.439 393.478 143.439C390.336 143.439 387.124 143.439 383.84 143.439C370.688 143.439 356.365 143.455 340.951 143.463L341.101 143.312C341.101 145.483 341.101 147.677 341.101 149.895C341.101 150.989 341.244 152.09 341.544 153.151C341.837 154.205 342.343 155.235 342.66 156.328C344.021 160.661 344.187 165.478 342.969 170.033C342.423 172.331 341.449 174.533 340.231 176.593C339.044 178.684 337.429 180.522 335.673 182.201C332.088 185.513 327.443 187.786 322.458 188.531C317.481 189.252 312.171 188.531 307.55 186.115C305.239 184.934 303.087 183.398 301.203 181.552C299.312 179.714 297.737 177.535 296.503 175.159C294.026 170.421 293.085 164.781 294.074 159.362C294.311 158.008 294.675 156.669 295.134 155.37C295.371 154.72 295.625 154.07 295.917 153.445C296.21 152.819 296.471 152.201 296.677 151.543C297.097 150.244 297.286 148.881 297.247 147.503C297.247 146.109 297.247 144.715 297.247 143.32L297.429 143.502C287.664 143.471 277.694 143.447 267.525 143.415C262.445 143.399 257.317 143.384 252.142 143.368C249.555 143.368 246.959 143.352 244.348 143.344C243.042 143.344 241.737 143.336 240.423 143.336C239.11 143.352 237.788 143.249 236.522 143.471C233.974 143.883 231.647 145.491 230.326 147.733C229.661 148.85 229.234 150.109 229.092 151.409C229.044 152.058 229.028 152.716 229.036 153.389V155.393C229.036 160.749 229.02 166.143 229.02 171.586C229.012 182.455 228.997 193.49 228.989 204.66V204.866H228.783C226.971 204.85 225.182 204.914 223.331 204.819H223.275L223.228 204.779C218.227 201.103 212.023 199.02 205.732 198.996C202.591 199.028 199.449 199.463 196.418 200.39C193.404 201.357 190.555 202.814 187.959 204.652C187.334 205.143 186.662 205.579 186.068 206.11L184.296 207.718C183.204 208.883 182.104 210.039 181.194 211.362C179.326 213.953 177.791 216.812 176.818 219.886C175.852 222.96 175.378 226.176 175.37 229.416C175.393 232.656 175.987 235.881 177.016 238.962C178.495 243.256 180.948 247.177 184.098 250.394C187.271 253.586 191.148 256.018 195.311 257.516C199.473 259.029 203.936 259.552 208.256 259.187C212.585 258.799 216.755 257.436 220.427 255.337L220.458 255.321H220.49C221.147 255.171 221.812 255.084 222.476 255.052C223.149 255.028 223.79 255.052 224.439 255.044C225.728 255.044 226.987 255.044 228.182 255.044H228.387V255.25C228.387 270.801 228.387 286.114 228.387 301.142C228.387 304.897 228.387 308.636 228.387 312.36C228.395 313.294 228.348 314.213 228.522 315.108C228.68 316.004 228.941 316.883 229.361 317.683C230.168 319.307 231.489 320.646 233.064 321.525C233.855 321.953 234.71 322.262 235.588 322.46C236.474 322.626 237.361 322.658 238.287 322.642C240.114 322.642 241.942 322.642 243.762 322.642C247.402 322.642 251.027 322.642 254.627 322.642C283.446 322.642 310.984 322.65 336.923 322.658C349.893 322.658 362.459 322.658 374.581 322.666C380.643 322.666 386.593 322.666 392.433 322.666C393.889 322.666 395.345 322.666 396.785 322.666C397.506 322.666 398.226 322.666 398.946 322.666C399.674 322.682 400.362 322.642 401.051 322.516C403.812 321.969 406.091 319.711 406.701 317.018C406.867 316.344 406.914 315.671 406.906 314.974C406.906 314.277 406.906 313.58 406.906 312.89C406.906 311.504 406.906 310.126 406.906 308.755C406.906 306.014 406.906 303.297 406.906 300.619C406.906 295.256 406.906 290.02 406.906 284.918C406.906 274.706 406.914 265.018 406.922 255.892V255.733L407.08 255.773C409.098 256.24 410.823 257.357 412.683 257.983C414.534 258.648 416.434 259.124 418.333 259.377C420.232 259.639 422.131 259.686 423.991 259.552C424.924 259.496 425.834 259.361 426.744 259.227C427.639 259.021 428.541 258.878 429.411 258.617C432.893 257.634 436.066 256.003 438.764 253.935C441.463 251.867 443.662 249.356 445.356 246.678C447.049 244.001 448.22 241.133 448.901 238.281C448.988 237.925 449.067 237.568 449.154 237.212C449.21 236.855 449.265 236.499 449.32 236.142C449.376 235.786 449.431 235.429 449.479 235.081C449.534 234.732 449.526 234.376 449.558 234.019C449.597 233.314 449.637 232.617 449.676 231.928C449.676 231.238 449.613 230.557 449.589 229.884C449.32 224.473 447.342 219.767 444.921 216.123C442.476 212.455 439.476 209.825 436.62 208.043C435.939 207.544 435.188 207.219 434.507 206.847C434.167 206.664 433.827 206.49 433.502 206.316C433.162 206.165 432.822 206.039 432.497 205.904C431.832 205.65 431.215 205.381 430.614 205.167C429.997 204.993 429.411 204.834 428.857 204.676C428.311 204.518 427.789 204.375 427.29 204.312C426.792 204.232 426.333 204.153 425.906 204.082C425.051 203.908 424.323 203.892 423.745 203.86C422.582 203.789 421.989 203.749 421.989 203.749L421.981 203.725Z" fill="#4F4747"/>
<path d="M224.384 214.127C224.384 214.127 227.043 212.757 229.393 213.271C231.743 213.786 240.273 219.356 240.273 219.356L247.15 218.072L251.201 237.505L224.376 248.667V214.127H224.384Z" fill="#AE7461"/>
<path d="M204.538 220.9C204.538 220.9 210.686 220.124 212.91 219.007C215.133 217.89 220.443 213.176 221.559 213.263C222.675 213.351 226.694 214.119 226.694 214.119L225.064 219.007C225.064 219.007 233.112 223.895 235.51 225.693C237.907 227.491 245.44 235.548 245.781 237.521C246.121 239.493 245.528 241.806 244.586 242.575C243.644 243.343 240.218 241.806 240.218 241.806C240.218 241.806 240.732 243.605 239.45 245.324C238.168 247.035 235.169 246.441 235.169 246.441C235.169 246.441 234.916 249.269 233.539 249.784C232.17 250.299 229.084 248.754 229.084 248.754C229.084 248.754 228.15 251.154 227.035 251.408C225.919 251.661 222.746 249.776 222.746 249.776C222.746 249.776 209.048 239.921 205.97 238.463C202.892 237.006 201.95 236.918 201.95 236.918L204.538 220.9Z" fill="#FFBE9D"/>
<path d="M229.092 248.754C229.028 248.754 228.989 248.508 228.846 248.152C228.704 247.788 228.459 247.304 228.158 246.781C227.549 245.736 227.003 244.896 227.098 244.825C227.185 244.761 227.881 245.49 228.514 246.576C228.831 247.114 229.044 247.653 229.123 248.073C229.211 248.493 229.139 248.762 229.092 248.754Z" fill="#EB996E"/>
<path d="M234.782 247.082C234.671 247.138 233.998 245.91 233.057 244.492C232.123 243.066 231.118 242.115 231.189 242.02C231.252 241.925 232.431 242.789 233.397 244.254C234.37 245.712 234.877 247.027 234.782 247.075V247.082Z" fill="#EB996E"/>
<path d="M240.281 242.139C240.162 242.171 239.775 240.689 238.833 239.089C237.899 237.481 236.799 236.42 236.879 236.332C236.934 236.245 238.216 237.204 239.181 238.883C240.162 240.555 240.376 242.131 240.273 242.147L240.281 242.139Z" fill="#EB996E"/>
<path d="M236.269 231.444C236.38 231.421 236.673 232.443 236.728 233.742C236.791 235.041 236.586 236.087 236.475 236.071C236.356 236.063 236.372 235.025 236.316 233.758C236.261 232.49 236.158 231.46 236.269 231.444Z" fill="#EB996E"/>
<path d="M216.336 223.728C216.336 223.728 218.473 216.876 219.248 216.012C220.016 215.157 227.177 213.271 227.177 213.271L229.393 219.015L227.802 220.694L224.376 220.472C224.376 220.472 222.239 226.129 216.328 223.728H216.336Z" fill="#AE7461"/>
<path d="M203.2 237.283C203.2 237.283 202.219 238.036 203.2 239.834C204.181 241.632 206.832 240.349 207.687 239.834C207.687 239.834 206.405 242.836 208.027 243.779C209.657 244.722 211.62 244.468 211.62 244.468C211.62 244.468 211.533 246.266 213.843 247.471C216.154 248.667 216.755 247.471 216.755 247.471C216.755 247.471 217.009 250.473 219.667 250.727C222.318 250.98 223.252 250.069 223.252 250.069L222.065 248.295C222.065 248.295 223.608 245.149 222.405 243.779C221.21 242.408 219.24 242.583 219.24 242.583C219.24 242.583 219.762 239.794 218.235 239.026C215.402 237.584 214.184 240.27 214.184 240.27C214.184 240.27 214.01 237.22 211.786 237.283C209.562 237.354 208.36 238.725 208.36 238.725L203.184 237.283H203.2Z" fill="#AE7461"/>
<path d="M214.2 240.27C214.302 240.317 213.883 241.363 213.179 242.551C212.482 243.747 211.77 244.619 211.675 244.555C211.58 244.492 212.126 243.525 212.823 242.345C213.519 241.165 214.097 240.214 214.2 240.27Z" fill="#6F4439"/>
<path d="M219.303 242.963C219.406 243.011 218.963 244.128 218.14 245.332C217.317 246.544 216.439 247.36 216.36 247.28C216.273 247.201 217.001 246.282 217.8 245.102C218.607 243.922 219.2 242.908 219.303 242.963Z" fill="#6F4439"/>
<path d="M166.278 275.308H153.292L149.969 322.579H162.986C165.201 315.378 170.741 277.859 170.741 277.859L166.278 275.308Z" fill="#4F4747"/>
<path d="M92.7335 275.308C92.7335 275.308 84.4248 294.82 85.2557 302.711C86.0865 310.609 90.7553 322.579 90.7553 322.579H155.065C155.065 322.579 156.861 315.98 158.246 306.228C159.631 296.476 163.374 275.308 163.374 275.308H92.7335Z" fill="#4F4747"/>
<path d="M177.72 87.0267C175.552 84.2857 172.862 81.6397 172.308 78.1858C171.793 75.009 173.186 71.5313 171.762 68.6398C170.013 65.0907 164.98 64.3936 162.796 61.0901C161.736 59.4899 161.491 57.4619 160.446 55.8537C158.666 53.1127 155.018 52.2333 151.758 52.4156C148.497 52.6057 145.316 53.6197 142.056 53.6831C137.577 53.7781 133.043 52.0987 128.699 53.1681C123.903 54.3564 120.809 58.3967 117.533 62.3022L113.292 66.8098C112.422 67.5703 111.512 68.2754 110.515 68.8457C108.774 69.8598 106.811 70.5173 105.292 71.8403C102.048 74.6684 102.024 80.4118 105.26 83.2558C101.771 84.1827 99.1277 87.6605 99.1672 91.2729C99.183 93.2613 99.919 95.1626 100.417 97.0876C100.916 99.0127 101.177 101.144 100.291 102.926C99.4125 104.709 97.0228 105.841 95.3452 104.788C95.8279 107.386 97.5609 109.723 99.9031 110.951C98.9219 111.862 97.5925 112.385 96.2552 112.369C99.4679 121.052 109.098 126.003 118.333 126.494C127.567 126.985 136.58 123.896 145.316 120.854L170.504 115.562C172.711 115.166 173.748 112.551 173.819 110.301C173.89 108.06 173.439 105.699 174.334 103.639C175.568 100.819 178.979 99.4484 180.26 96.6519C181.716 93.4673 179.904 89.7598 177.728 87.0108L177.72 87.0267Z" fill="#4F4747"/>
<path d="M117.787 106.951C116.252 101.239 114.74 95.4795 114.21 89.5935C113.68 83.6995 114.17 77.6154 116.513 72.181C116.869 71.3571 119.812 65.8592 120.699 65.9939C121.332 66.089 119.425 71.262 119.717 71.8324C122.519 77.2669 123.025 83.6599 122.218 89.7281C121.411 95.7964 119.868 101.207 117.779 106.958" fill="#4F4747"/>
<path d="M118.364 84.3809C118.649 69.543 127.504 57.3431 142.309 58.0324L143.67 58.175C157.4 59.6247 167.726 71.3809 167.386 85.2048C167.069 98.0621 166.555 112.266 165.756 119.095C164.094 133.236 149.716 133.941 149.716 133.941C149.684 133.941 149.328 157.303 149.328 157.303L115.666 133.949L118.372 84.3809H118.364Z" fill="#FFBE9D"/>
<path d="M149.716 133.941C149.716 133.941 140.743 133.521 131.872 126.55C131.872 126.55 135.188 138.52 149.431 138.734L149.708 133.949L149.716 133.941Z" fill="#EB996E"/>
<path d="M162.488 96.1766C162.417 97.2461 161.443 98.07 160.328 98.0145C159.212 97.9591 158.365 97.0401 158.436 95.9707C158.508 94.9012 159.481 94.0773 160.597 94.1328C161.712 94.1882 162.567 95.1072 162.488 96.1766Z" fill="#4F4747"/>
<path d="M163.746 90.758C163.469 90.9957 162.06 89.6965 159.884 89.4747C157.716 89.2212 156.007 90.1718 155.793 89.8787C155.69 89.7519 155.999 89.3004 156.743 88.8647C157.479 88.4369 158.697 88.0646 160.05 88.2151C161.404 88.3656 162.488 88.9835 163.089 89.5618C163.706 90.148 163.88 90.6471 163.746 90.7501V90.758Z" fill="#4F4747"/>
<path d="M142.824 96.1766C142.753 97.2461 141.779 98.07 140.663 98.0145C139.548 97.9591 138.701 97.0401 138.772 95.9707C138.843 94.9012 139.817 94.0773 140.933 94.1328C142.048 94.1882 142.895 95.1072 142.824 96.1766Z" fill="#4F4747"/>
<path d="M142.365 89.3955C142.088 89.6331 140.671 88.3339 138.503 88.1121C136.335 87.8586 134.626 88.8093 134.412 88.5161C134.309 88.3894 134.61 87.9378 135.362 87.5021C136.098 87.0664 137.316 86.702 138.669 86.8525C140.023 87.003 141.107 87.621 141.708 88.1993C142.317 88.7855 142.499 89.2846 142.365 89.3876V89.3955Z" fill="#4F4747"/>
<path d="M148.402 106.935C148.402 106.808 149.779 106.721 152.003 106.673C152.565 106.673 153.103 106.618 153.237 106.253C153.411 105.865 153.237 105.239 153.039 104.566C152.66 103.164 152.264 101.698 151.845 100.161C150.199 93.8952 149.067 88.7697 149.32 88.7063C149.574 88.6429 151.109 93.6654 152.755 99.9317C153.15 101.477 153.522 102.95 153.878 104.352C154.021 105.002 154.306 105.762 153.934 106.562C153.744 106.959 153.301 107.22 152.937 107.275C152.573 107.347 152.256 107.323 151.979 107.307C149.763 107.196 148.394 107.062 148.402 106.935Z" fill="#4F4747"/>
<path d="M141.851 107.767C142.207 107.782 141.961 110.143 143.805 112.036C145.641 113.93 148.189 113.93 148.173 114.263C148.189 114.413 147.564 114.659 146.503 114.579C145.459 114.508 143.971 114.009 142.848 112.852C141.724 111.696 141.336 110.27 141.36 109.288C141.376 108.289 141.7 107.735 141.858 107.767H141.851Z" fill="#4F4747"/>
<path d="M143.18 80.5545C142.903 81.1249 140.767 80.6179 138.179 80.6495C135.599 80.6337 133.463 81.1645 133.178 80.602C133.051 80.3327 133.471 79.8098 134.365 79.3266C135.251 78.8433 136.62 78.4393 138.171 78.4314C139.722 78.4314 141.099 78.8196 141.985 79.2949C142.879 79.7702 143.307 80.2851 143.18 80.5545Z" fill="#4F4747"/>
<path d="M163.612 83.4303C163.176 83.8818 161.736 83.2164 159.94 83.0025C158.152 82.7252 156.577 82.9866 156.284 82.4321C156.157 82.1627 156.45 81.6953 157.162 81.2992C157.867 80.9031 159.006 80.6338 160.241 80.8081C161.475 80.9744 162.496 81.5369 163.073 82.1152C163.659 82.6935 163.809 83.2243 163.619 83.4461L163.612 83.4303Z" fill="#4F4747"/>
<path d="M118.42 94.9804C118.19 94.8536 109.003 91.0749 108.291 100.787C107.579 110.5 117.47 109.208 117.502 108.931C117.541 108.654 118.412 94.9725 118.412 94.9725L118.42 94.9804Z" fill="#FFBE9D"/>
<path d="M114.812 105.041C114.772 105.01 114.638 105.144 114.337 105.255C114.052 105.366 113.561 105.414 113.071 105.192C112.074 104.74 111.33 103.045 111.409 101.294C111.449 100.407 111.694 99.5831 112.058 98.9097C112.406 98.2205 112.905 97.761 113.427 97.7055C113.949 97.6263 114.289 97.9591 114.392 98.2442C114.503 98.5215 114.424 98.7116 114.479 98.7354C114.503 98.7592 114.701 98.5849 114.653 98.1809C114.63 97.9828 114.527 97.7452 114.313 97.5471C114.092 97.3411 113.759 97.2223 113.395 97.2302C112.644 97.2302 111.916 97.864 111.52 98.6087C111.077 99.3454 110.784 100.28 110.736 101.27C110.657 103.235 111.52 105.136 112.897 105.643C113.569 105.873 114.147 105.707 114.464 105.501C114.78 105.279 114.851 105.073 114.82 105.049L114.812 105.041Z" fill="#EB996E"/>
<path d="M162.147 68.6953C163.778 67.9269 159.386 62.532 155.635 60.5277C149.969 57.5015 141.162 55.2913 135.686 56.4796C129.087 57.8976 123.5 60.7812 119.868 66.4771C116.236 72.173 114.574 78.9701 114.329 85.7196C114.258 87.7794 114.329 89.9341 115.318 91.7483C116.537 93.9823 119.053 95.5033 118.744 98.4582C118.633 99.5356 118.871 100.653 119.559 101.492C121.213 103.497 123.5 101.865 124.616 100.146C126.998 96.4777 127.528 91.9463 127.995 87.5971C128.327 84.5076 128.659 81.3467 127.979 78.3126C127.607 76.6648 126.942 75.0804 126.665 73.4168C126.388 71.7532 126.554 69.8836 127.662 68.6082C127.844 68.4022 128.137 68.1408 128.501 67.8635C131.405 65.6295 135.298 65.1542 138.669 66.596C144.011 68.8854 153.158 72.379 155.722 70.6758C159.402 68.2279 160.351 66.5405 160.351 66.5405L162.147 68.7032V68.6953Z" fill="#4F4747"/>
<path d="M136.279 55.1962C141.732 53.7544 147.793 54.2376 152.62 57.1529C155.184 58.6977 157.431 61.0505 158.056 63.9817C158.681 66.9128 157.225 70.3747 154.385 71.3254L154.187 71.4363C149.953 72.5691 147.302 71.8324 143.259 70.1371C139.864 68.7111 136.913 66.3662 133.502 64.9482C129.886 63.4509 125.81 63.0627 121.973 63.8708C125.961 59.8781 130.819 56.638 136.264 55.1962H136.279Z" fill="#4F4747"/>
<path d="M138.733 53.5088C138.733 53.5088 139.089 53.5088 139.722 53.6038C140.347 53.7227 141.257 53.9207 142.333 54.3168C143.409 54.7129 144.652 55.3071 145.91 56.1626C147.168 57.0103 148.45 58.1273 149.471 59.577C150.499 61.0267 151.069 62.6428 151.433 64.1084C151.789 65.5819 151.947 66.9445 152.027 68.0852C152.106 69.226 152.114 70.1529 152.098 70.7866C152.082 71.4204 152.05 71.7769 152.027 71.7769C151.995 71.7769 151.971 71.4283 151.939 70.7866C151.9 70.1529 151.852 69.2339 151.742 68.109C151.623 66.9841 151.441 65.6453 151.069 64.2035C150.689 62.7696 150.127 61.201 149.138 59.8147C148.157 58.4204 146.915 57.3272 145.696 56.4716C144.477 55.6239 143.275 55.006 142.23 54.5862C140.133 53.7464 138.717 53.5801 138.733 53.5009V53.5088Z" fill="#4D78BC"/>
<path d="M147.667 52.9701C147.667 52.9701 147.975 53.0255 148.505 53.1998C148.767 53.3028 149.107 53.3741 149.463 53.5563C149.835 53.7464 150.238 53.9524 150.674 54.1742C152.399 55.1882 154.535 57.2163 155.706 60.0999C156.023 60.8049 156.221 61.5337 156.419 62.2388C156.553 62.9518 156.703 63.641 156.735 64.3144C156.822 64.9798 156.775 65.6136 156.775 66.2077C156.703 66.7939 156.68 67.3564 156.553 67.8476C156.434 68.3387 156.355 68.7903 156.197 69.1626C156.055 69.5349 155.96 69.8677 155.809 70.1133C155.54 70.6123 155.382 70.8738 155.358 70.8579C155.271 70.8183 155.944 69.7488 156.268 67.7921C156.371 67.3089 156.379 66.7622 156.434 66.1919C156.419 65.6136 156.458 64.9956 156.363 64.346C156.324 63.6964 156.165 63.031 156.031 62.3339C155.825 61.6526 155.643 60.9475 155.327 60.2583C154.187 57.4618 152.169 55.4734 150.523 54.4198C150.104 54.1821 149.716 53.9683 149.368 53.7623C149.028 53.5563 148.703 53.4692 148.45 53.3424C147.944 53.1206 147.659 52.9859 147.667 52.9622V52.9701Z" fill="#4D78BC"/>
<path d="M153.997 154.958C153.997 156.289 160.667 185.64 163.223 192.849C165.779 200.058 173.866 272.346 172.798 277.487C171.738 282.636 168.968 282.43 168.968 282.43C168.968 282.43 103.622 278.311 96.5953 278.929C89.5685 279.547 86.5931 279.341 84.8918 271.308C83.1905 263.275 84.9393 221.534 83.4517 211.441C81.964 201.349 81.9482 196.461 81.3705 181.465C80.872 168.473 83.8236 158.047 89.9958 150.529C96.168 143.011 109.834 135.398 109.834 135.398L114.685 128.324L148.98 146.489L149.763 142.354L151.844 148.786L153.989 154.958H153.997Z" fill="#4D78BC"/>
<g opacity="0.3">
<path d="M168.739 244.397C168.169 242.939 166.317 242.575 164.758 242.401C150.222 240.785 135.1 237.156 124.481 227.087C120.326 223.15 117.05 218.389 113.901 213.612C107.001 203.171 100.52 192.46 94.0391 181.758L89.0063 183.667C92.0924 198.782 95.1311 209.722 100.156 222.112C105.189 234.518 109.09 246.52 121.83 250.584C130.067 253.206 145.711 251.194 154.329 250.521C157.929 250.235 161.546 249.887 165.004 248.849C166.048 248.532 167.108 248.136 167.892 247.376C168.675 246.615 169.134 245.419 168.731 244.405L168.739 244.397Z" fill="#333333"/>
</g>
<path d="M87.2341 179.714C87.6139 180.387 116.694 242.567 129.68 245.126C142.665 247.685 183.022 248.279 190.895 246.789C198.769 245.3 206.476 243.906 206.476 243.906C206.476 243.906 212.182 230.343 206.975 218.793L196.134 219.134C196.134 219.134 165.993 217.51 161.736 216.337C157.478 215.165 153.799 211.172 149.969 211.386L127.045 157.968C127.045 157.968 112.144 144.12 101.501 148.382C90.8582 152.644 84.1242 174.153 87.242 179.706L87.2341 179.714Z" fill="#4D78BC"/>
<path d="M196.965 246.06C196.965 246.06 197.012 245.68 197.178 245.015C197.352 244.349 197.566 243.383 197.788 242.187C198.017 240.99 198.215 239.549 198.365 237.94C198.492 236.332 198.547 234.558 198.476 232.696C198.318 228.973 197.653 225.646 197.004 223.293C196.68 222.112 196.387 221.17 196.158 220.528C195.936 219.878 195.833 219.514 195.857 219.506C195.881 219.498 196.039 219.839 196.308 220.472C196.585 221.106 196.917 222.041 197.281 223.213C198.009 225.558 198.729 228.917 198.888 232.68C198.959 234.558 198.888 236.348 198.745 237.972C198.579 239.588 198.349 241.038 198.08 242.242C197.819 243.446 197.558 244.405 197.337 245.054C197.123 245.712 196.996 246.068 196.965 246.053V246.06Z" fill="#4F4747"/>
<path d="M127.037 157.976C127.037 157.976 127.195 158.293 127.472 158.927C127.749 159.568 128.161 160.495 128.699 161.715C129.767 164.179 131.334 167.783 133.336 172.41C137.34 181.686 143.093 195.027 150.12 211.33L149.961 211.235C151.773 211.148 153.475 211.94 155.042 212.796C156.624 213.667 158.151 214.682 159.837 215.45C161.499 216.298 163.382 216.488 165.289 216.717C167.196 216.947 169.151 217.114 171.121 217.28C179.034 217.937 187.414 218.452 196.134 218.936H196.118C199.529 218.825 203.216 218.706 206.959 218.587H207.094L207.149 218.706C208.819 222.54 209.523 226.85 209.317 231.159C209.135 235.477 208.249 239.826 206.659 243.985L206.619 244.088L206.508 244.112C204.324 244.516 201.974 244.951 199.616 245.387C197.084 245.854 194.567 246.322 192.075 246.781C189.574 247.273 187.018 247.455 184.526 247.558C179.509 247.787 174.571 247.803 169.712 247.78C164.854 247.756 160.09 247.637 155.421 247.471C150.753 247.304 146.187 247.067 141.74 246.726C139.516 246.567 137.316 246.354 135.156 246.116C132.996 245.831 130.867 245.641 128.786 245.054C127.765 244.674 126.863 244.088 126.024 243.462C125.185 242.828 124.41 242.123 123.682 241.402C122.21 239.953 120.897 238.416 119.654 236.855C114.74 230.597 110.887 224.259 107.436 218.46C100.623 206.799 95.7014 197.031 92.3225 190.282C90.6449 186.899 89.3709 184.261 88.5163 182.463C87.6617 180.664 87.2344 179.714 87.2344 179.714C87.2344 179.714 87.361 179.944 87.5905 180.395C87.8199 180.863 88.1523 181.536 88.5875 182.423C89.4738 184.214 90.7794 186.828 92.4649 190.203C95.8834 196.928 100.845 206.672 107.69 218.302C111.148 224.085 115.017 230.415 119.923 236.633C121.158 238.178 122.471 239.707 123.927 241.141C124.655 241.854 125.415 242.551 126.238 243.169C127.061 243.787 127.939 244.349 128.905 244.706C130.883 245.252 133.059 245.458 135.196 245.736C137.356 245.965 139.54 246.179 141.763 246.338C146.203 246.67 150.768 246.908 155.429 247.067C160.09 247.233 164.854 247.344 169.704 247.368C174.555 247.391 179.493 247.368 184.494 247.138C187.002 247.035 189.503 246.853 191.988 246.362C194.488 245.902 197.005 245.435 199.537 244.967C201.895 244.532 204.245 244.096 206.429 243.692L206.279 243.811C207.845 239.723 208.732 235.397 208.914 231.135C209.112 226.873 208.423 222.627 206.785 218.864L206.975 218.983C203.232 219.102 199.545 219.213 196.134 219.324H196.126H196.118C187.39 218.833 179.01 218.302 171.089 217.636C169.111 217.462 167.164 217.288 165.241 217.058C164.284 216.947 163.334 216.828 162.393 216.646C161.435 216.504 160.541 216.131 159.686 215.751C157.969 214.967 156.442 213.945 154.875 213.073C153.324 212.218 151.671 211.465 149.969 211.544H149.858L149.811 211.449C142.84 195.122 137.126 181.766 133.162 172.473C131.192 167.831 129.656 164.218 128.604 161.747C128.09 160.519 127.694 159.584 127.425 158.935C127.164 158.301 127.037 157.968 127.037 157.968V157.976Z" fill="#4F4747"/>
<path d="M123.998 153.785C123.998 153.785 123.595 153.413 122.867 152.74C122.147 152.066 121.039 151.155 119.543 150.228C118.048 149.301 116.141 148.398 113.893 147.78C111.654 147.162 109.082 146.877 106.416 147.123C103.749 147.408 101.288 148.2 99.2147 149.246C97.1415 150.292 95.4402 151.559 94.1661 152.763C92.8842 153.967 91.9742 155.084 91.4045 155.885C90.8268 156.685 90.534 157.152 90.5024 157.136C90.4866 157.136 90.5499 157.009 90.6765 156.78C90.811 156.558 90.9851 156.209 91.27 155.797C91.808 154.958 92.6864 153.809 93.9683 152.557C95.2423 151.306 96.9436 149.999 99.0485 148.913C101.145 147.828 103.662 147.004 106.384 146.719C109.106 146.465 111.733 146.766 114.004 147.416C116.283 148.066 118.214 149.008 119.702 149.983C121.197 150.957 122.289 151.908 122.986 152.629C123.35 152.969 123.587 153.278 123.761 153.476C123.935 153.674 124.014 153.785 124.006 153.793L123.998 153.785Z" fill="#4F4747"/>
<path d="M149.882 211.441C149.985 211.481 149.328 213.501 148.418 215.949C147.5 218.405 146.669 220.354 146.566 220.314C146.463 220.274 147.12 218.254 148.03 215.806C148.948 213.358 149.779 211.402 149.882 211.441Z" fill="#4F4747"/>
<path d="M202.559 221.685C202.559 221.685 202.67 221.629 202.86 221.7C203.042 221.764 203.287 221.954 203.445 222.271C203.595 222.572 203.698 223.063 203.414 223.507C203.144 223.911 202.63 224.227 202.037 224.14C201.427 224.029 201.079 223.499 201 223.031C200.921 222.54 201.119 222.096 201.396 221.859C201.681 221.613 201.989 221.589 202.171 221.605C202.361 221.621 202.456 221.677 202.448 221.7C202.464 221.78 201.989 221.669 201.593 222.073C201.411 222.271 201.285 222.611 201.372 222.96C201.443 223.309 201.728 223.673 202.108 223.736C202.488 223.8 202.899 223.578 203.097 223.293C203.303 223.015 203.271 222.651 203.176 222.39C202.97 221.819 202.543 221.74 202.559 221.692V221.685Z" fill="#4F4747"/>
<path d="M149.803 148.549C149.803 148.549 149.526 148.422 149.019 148.145C148.481 147.836 147.761 147.424 146.859 146.909L147.009 146.846C146.582 149.008 146.171 152.201 145.443 156.019L145.395 156.273L145.174 156.13C141.993 154.118 138.17 151.829 134.095 149.357C131.057 147.535 128.216 145.697 125.597 144.105C122.969 142.528 120.564 141.166 118.538 140.033C116.544 138.924 114.914 138.013 113.735 137.355C113.197 137.054 112.77 136.808 112.429 136.618C112.136 136.444 111.978 136.349 111.986 136.341C111.986 136.325 112.16 136.396 112.469 136.547C112.817 136.721 113.26 136.935 113.806 137.212C114.961 137.799 116.631 138.67 118.673 139.771C120.714 140.872 123.136 142.211 125.787 143.78C128.406 145.388 131.286 147.147 134.301 149C138.376 151.464 142.19 153.785 145.356 155.821L145.087 155.932C145.846 152.145 146.313 148.953 146.804 146.79L146.835 146.648L146.954 146.719C147.832 147.273 148.545 147.709 149.067 148.042C149.549 148.351 149.803 148.525 149.795 148.541L149.803 148.549Z" fill="#4F4747"/>
<g opacity="0.3">
<path d="M116.813 138.908C122.779 143.36 128.746 147.812 134.712 152.256C138.653 155.195 142.681 158.182 147.357 159.687C147.27 155.536 147.183 151.385 147.096 147.234L145.268 155.972L116.813 138.908Z" fill="#333333"/>
</g>
<path d="M301.124 76.5301C298.006 76.9499 294.762 74.7159 294.034 71.6501C293.306 68.5922 295.197 65.1303 298.173 64.0925C296.194 62.1358 295.64 58.8799 296.875 56.3845C298.101 53.889 301.021 52.3363 303.775 52.7166C303.838 49.9676 305.421 47.3059 307.811 45.9433C310.201 44.5807 313.295 44.5807 315.692 45.9354C318.675 43.2736 323.566 43.0834 326.747 45.4996C329.406 44.953 332.341 46.3235 333.639 48.7001C334.937 51.0846 334.494 54.293 332.595 56.2339" fill="#4F4747"/>
<path d="M300.214 77.449C301.069 63.2766 312.654 52.1304 326.834 51.8452L328.243 51.8135C343.459 52.3918 351.467 65.6532 350.463 80.8634L351.365 135.129L314.395 148.414L314.07 128.871C314.07 128.871 299.415 126.898 298.941 112.274C298.711 105.216 299.415 90.6391 300.207 77.449H300.214Z" fill="#AE7461"/>
<path d="M313.959 128.847C313.959 128.847 323.297 129.219 332.983 122.85C332.983 122.85 328.694 133.465 314.094 132.443L313.959 128.847Z" fill="#6F4439"/>
<path d="M304.314 90.6707C304.298 91.7719 305.216 92.6988 306.371 92.7384C307.518 92.778 308.468 91.9145 308.484 90.8133C308.5 89.7122 307.582 88.7853 306.434 88.7457C305.287 88.7061 304.337 89.5696 304.322 90.6707H304.314Z" fill="#4F4747"/>
<path d="M303.499 84.5392C303.76 84.8085 305.319 83.6044 307.566 83.5648C309.806 83.4935 311.475 84.6184 311.713 84.3332C311.831 84.2065 311.554 83.7232 310.826 83.2162C310.106 82.7092 308.896 82.226 307.495 82.2656C306.094 82.3052 304.931 82.8439 304.266 83.3826C303.586 83.9292 303.364 84.4204 303.491 84.5471L303.499 84.5392Z" fill="#4F4747"/>
<path d="M324.769 90.6707C324.753 91.7719 325.671 92.6988 326.826 92.7384C327.974 92.778 328.923 91.9145 328.939 90.8133C328.955 89.7122 328.037 88.7853 326.889 88.7457C325.742 88.7061 324.793 89.5696 324.777 90.6707H324.769Z" fill="#4F4747"/>
<path d="M325.568 84.5075C325.829 84.7768 327.388 83.5727 329.635 83.5331C331.875 83.4618 333.545 84.5867 333.782 84.3015C333.901 84.1747 333.632 83.6915 332.896 83.1845C332.176 82.6775 330.965 82.1942 329.564 82.2338C328.164 82.2735 327 82.8122 326.336 83.3508C325.655 83.8975 325.434 84.3886 325.56 84.5154L325.568 84.5075Z" fill="#4F4747"/>
<path d="M317.766 101.342C317.773 101.215 316.373 101.001 314.11 100.755C313.532 100.708 312.994 100.605 312.883 100.217C312.741 99.8048 312.97 99.179 313.231 98.5056C313.746 97.1034 314.276 95.6379 314.838 94.101C317.069 87.8347 318.668 82.6854 318.414 82.5983C318.161 82.5111 316.151 87.5178 313.928 93.7921C313.39 95.3368 312.883 96.8103 312.393 98.2204C312.187 98.878 311.831 99.6226 312.139 100.478C312.306 100.906 312.733 101.207 313.097 101.294C313.469 101.397 313.785 101.397 314.07 101.413C316.349 101.492 317.758 101.468 317.766 101.342Z" fill="#4F4747"/>
<path d="M324.729 76.8786C325.038 77.441 326.945 76.7835 329.311 76.6567C331.677 76.4745 333.679 76.8865 333.885 76.2844C333.972 75.9992 333.545 75.5001 332.682 75.0565C331.827 74.6208 330.53 74.2881 329.113 74.3831C327.697 74.4782 326.47 74.9614 325.703 75.5081C324.927 76.0547 324.587 76.6013 324.729 76.8706V76.8786Z" fill="#4F4747"/>
<path d="M303.063 76.5934C303.546 77.0924 305.389 76.53 307.613 76.4587C309.837 76.324 311.736 76.7201 312.155 76.1735C312.337 75.9121 312.036 75.4051 311.198 74.9377C310.375 74.4703 309.006 74.1059 307.478 74.1772C305.951 74.2485 304.63 74.7396 303.87 75.2783C303.095 75.817 302.849 76.3478 303.063 76.5934Z" fill="#4F4747"/>
<path d="M301.481 70.7153C301.481 70.7153 305.144 61.4782 309.512 59.2522C314.798 56.5587 317.22 62.3734 322.276 60.8524C327.333 59.3235 332.381 56.7409 337.659 60.5672C343.436 64.7579 340.832 67.8396 341.315 74.3198C343.278 100.597 348.223 107.933 349.339 95.519C349.458 94.1564 353.201 92.9998 353.644 87.2564C354.213 79.8018 354.316 70.7707 352.552 65.5264C351.064 61.1059 348.469 58.0876 343.855 54.7921C336.575 49.5873 326.723 49.6745 320.045 50.4825C313.366 51.2906 300.626 59.2601 301.473 70.7153H301.481Z" fill="#4F4747"/>
<path d="M348.405 95.1387C348.453 92.881 350.36 91.0589 352.607 91.2253C355.337 91.4312 358.4 92.9127 358.336 98.5531C358.218 108.559 348.215 106.38 348.2 106.087C348.192 105.889 348.318 99.3215 348.405 95.1308V95.1387Z" fill="#AE7461"/>
<path d="M350.415 102.356C350.463 102.324 350.589 102.482 350.882 102.617C351.167 102.752 351.658 102.847 352.18 102.657C353.24 102.284 354.15 100.613 354.214 98.8146C354.253 97.9035 354.071 97.0321 353.755 96.3112C353.462 95.5745 352.995 95.0596 352.465 94.9566C351.935 94.8298 351.555 95.1388 351.428 95.424C351.294 95.7012 351.349 95.8993 351.301 95.9231C351.27 95.9468 351.088 95.7488 351.175 95.3368C351.222 95.1388 351.341 94.9011 351.578 94.711C351.824 94.5209 352.172 94.4258 352.544 94.4654C353.311 94.5288 354 95.2418 354.34 96.034C354.728 96.8262 354.949 97.8085 354.91 98.8304C354.823 100.843 353.77 102.72 352.322 103.124C351.618 103.298 351.032 103.077 350.732 102.839C350.423 102.585 350.376 102.364 350.407 102.348L350.415 102.356Z" fill="#6F4439"/>
<path d="M347.82 75.7775C346.538 76.6885 345.193 77.6312 343.634 77.8213C342.075 78.0115 340.271 77.148 339.978 75.6032C339.843 74.9061 340.002 74.098 339.535 73.5672C338.973 72.9335 337.976 73.1553 337.137 73.2662C334.241 73.6306 331.226 71.6422 330.427 68.8299C329.707 69.9548 327.982 69.939 326.842 69.2418C325.711 68.5447 324.959 67.3722 324.065 66.382C323.17 65.3918 321.92 64.5203 320.599 64.7342C319.863 64.8531 319.182 65.3046 318.438 65.2571C317.125 65.1699 316.452 63.641 316.231 62.3418C316.009 61.0426 315.819 59.5295 314.696 58.8403C313.651 58.2065 312.33 58.6105 311.127 58.8165C309.924 59.0225 308.357 58.769 308.025 57.5886C307.851 56.9707 308.104 56.3132 308.436 55.7665C309.94 53.287 313.311 52.1304 316.017 53.1602C316.927 49.8409 319.958 47.2029 323.376 46.7751C326.795 46.3473 330.379 48.1377 332.089 51.1322C334.162 49.1755 337.208 48.304 340.002 48.8823C342.795 49.4606 345.248 51.4649 346.372 54.0871C348.785 53.3979 351.578 54.2851 353.153 56.2339C354.736 58.1907 355.013 61.106 353.834 63.3241C355.646 64.3144 357.22 66.0651 357.3 68.1328C357.379 70.2004 355.408 72.3076 353.398 71.8006C354.237 73.393 353.628 75.5953 352.085 76.5301C350.542 77.4649 348.318 76.9816 347.297 75.4923" fill="#4F4747"/>
<path d="M315.329 56.1151C315.329 56.1151 315.329 56.1785 315.329 56.2973C315.344 56.4161 315.352 56.5984 315.4 56.8281C315.503 57.2876 315.701 57.9689 316.167 58.7373C316.634 59.4978 317.354 60.3692 318.431 61.0584C319.491 61.7476 320.931 62.2626 322.545 62.1437L322.371 61.9219C322.078 62.7854 322.181 63.8074 322.624 64.6788C323.044 65.566 323.693 66.3424 324.381 67.1029C324.729 67.4673 325.038 67.8951 325.521 68.2278C325.988 68.5447 326.549 68.7269 327.111 68.7824C328.243 68.9012 329.501 68.5289 330.3 67.5624L329.928 67.4594C330.221 69.4399 331.392 71.4045 333.212 72.5849C334.178 73.2504 335.357 73.6465 336.512 73.591C337.667 73.5593 338.735 73.1949 339.733 72.8146L339.463 72.7037C340.025 73.9317 340.872 74.9774 341.893 75.7379C342.89 76.4984 344.211 76.9341 345.39 76.6172C347.741 76.0706 349.26 74.0742 349.537 72.2205L349.315 72.3314C350.494 72.9493 351.753 72.981 352.757 72.7671C353.778 72.5611 354.57 72.1017 355.131 71.6501C355.693 71.1906 356.026 70.7232 356.223 70.4064C356.405 70.0736 356.477 69.8914 356.469 69.8835C356.421 69.8439 356.152 70.6519 355.029 71.5154C354.467 71.9274 353.691 72.3552 352.718 72.5295C351.752 72.7117 350.566 72.6562 349.466 72.0621L349.276 71.9591L349.244 72.173C348.959 73.9 347.495 75.7616 345.319 76.2449C344.251 76.5221 343.088 76.134 342.146 75.4131C341.196 74.6922 340.389 73.6861 339.867 72.5295L339.788 72.3473L339.598 72.4186C338.617 72.7909 337.588 73.1315 336.52 73.1553C335.452 73.2028 334.391 72.8463 333.473 72.2126C331.756 71.1035 330.656 69.2577 330.371 67.3881L330.3 66.9128L329.999 67.2851C329.327 68.109 328.195 68.4655 327.182 68.3625C326.676 68.315 326.177 68.1565 325.766 67.8793C325.37 67.6178 325.046 67.19 324.69 66.8256C324.001 66.081 323.368 65.3284 322.973 64.5045C322.553 63.6885 322.458 62.7933 322.704 62.0091L322.783 61.7714L322.53 61.7952C321.01 61.9298 319.617 61.4624 318.589 60.8208C317.536 60.1791 316.816 59.3552 316.341 58.6264C315.4 57.137 315.408 56.0755 315.337 56.0993L315.329 56.1151Z" fill="#455A64"/>
<path d="M325.497 102.118C325.141 102.158 325.552 104.518 323.835 106.546C322.118 108.582 319.562 108.757 319.602 109.089C319.602 109.24 320.242 109.446 321.303 109.288C322.347 109.137 323.803 108.535 324.856 107.291C325.9 106.047 326.193 104.582 326.098 103.607C326.011 102.609 325.647 102.071 325.489 102.11L325.497 102.118Z" fill="#4F4747"/>
<path d="M243.905 215.878C245.171 215.371 286.991 210.34 286.991 210.34L303.957 195.962L302.367 237.592L248.969 242.749L243.905 215.878Z" fill="#3865DC"/>
<path opacity="0.3" d="M296.456 202.323C295.949 202.577 291.755 206.308 291.755 206.308L293.037 238.368L296.456 202.323Z" fill="#333333"/>
<path d="M367.705 277.717H297.065C297.065 277.717 300.808 297.672 302.193 306.862C303.577 316.059 305.603 322.579 305.603 322.579H369.58C369.58 322.579 374.36 310.989 375.191 303.542C376.022 296.096 367.713 277.709 367.713 277.709L367.705 277.717Z" fill="#4F4747"/>
<path d="M291.802 280.125C291.802 280.125 289.832 302.869 291.802 322.587H316.27V304.422L291.802 280.125Z" fill="#4F4747"/>
<path d="M305.397 168.631L313.01 151.939L313.951 141.633C313.951 141.633 328.551 132.451 335.475 128.982C342.399 125.512 351.729 122.375 351.729 122.375V132.103L305.397 168.631Z" fill="#EBEBEB"/>
<path d="M369.026 253.864C369.026 253.864 373.157 198.236 373.442 194.1C373.442 194.1 375.887 164.377 370.609 153.064C365.339 141.744 353.541 131.802 353.541 131.802L352.457 125.86L329.414 140.397L318.763 149.674C318.763 149.674 312.717 156.067 308.713 162.191C305.69 166.381 302.327 171.768 300.832 178.542C300.286 181.021 293.947 210.634 293.757 231.27C293.757 231.27 292.784 249.277 291.747 259.48C290.465 272.108 288.503 300.881 288.93 317.937L363.59 315.655C382.044 312.835 378.799 311.005 378.799 311.005L369.026 253.88V253.864Z" fill="#3865DC"/>
<path d="M351.728 132.111C351.728 132.111 351.554 132.198 351.214 132.348C350.85 132.499 350.343 132.713 349.687 132.982C349.038 133.299 348.246 133.711 347.313 134.194C346.419 134.749 345.358 135.319 344.258 136.103C339.779 139.114 333.868 144.216 327.854 151.282L327.815 151.329H327.752C325.481 151.757 323.075 152.201 320.59 152.66L320.749 152.478C320.638 155.813 320.519 159.307 320.392 162.927V163.006L320.329 163.062C316.745 166.46 313.097 170.311 309.797 174.62C308.46 176.387 307.225 178.201 306.188 180.086L305.801 180.791L305.5 181.528C305.294 182.011 305.104 182.502 304.962 183.017C304.645 184.031 304.329 185.037 304.068 186.051C302.96 190.092 302.05 194.037 301.195 197.792C299.494 205.31 298.078 212.107 296.906 217.811C294.564 229.234 293.243 236.316 293.243 236.316C293.243 236.316 293.259 235.865 293.401 235.017C293.528 234.17 293.749 232.918 294.034 231.318C294.612 228.109 295.482 223.475 296.622 217.755C297.761 212.036 299.146 205.231 300.823 197.705C301.67 193.942 302.572 189.997 303.68 185.941C303.941 184.927 304.258 183.913 304.574 182.891C304.717 182.376 304.914 181.869 305.128 181.362L305.437 180.601L305.832 179.888C306.885 177.979 308.127 176.149 309.472 174.375C312.796 170.041 316.452 166.183 320.06 162.769L319.997 162.911C320.123 159.291 320.25 155.797 320.369 152.462V152.312L320.527 152.288C323.02 151.836 325.417 151.401 327.696 150.997L327.593 151.06C333.663 143.978 339.621 138.908 344.155 135.937C345.271 135.161 346.347 134.598 347.249 134.06C348.191 133.584 348.99 133.188 349.655 132.887C350.32 132.634 350.834 132.436 351.206 132.293C351.554 132.166 351.744 132.111 351.744 132.111H351.728Z" fill="#4F4747"/>
<path d="M326.668 176.062L327.562 250.291L316.27 322.587H346.031C346.031 322.587 359.555 267.696 362.712 256.161C365.774 244.959 370.356 188.579 370.759 185.814C370.918 184.729 374.146 165.256 364.643 156.075" fill="#3865DC"/>
<path d="M364.651 156.067C364.651 156.067 364.864 156.273 365.276 156.685C365.679 157.105 366.249 157.754 366.898 158.689C368.204 160.543 369.731 163.601 370.617 167.839C371.511 172.061 371.82 177.401 371.179 183.501C370.736 186.543 370.506 189.791 370.182 193.253C369.865 196.715 369.533 200.367 369.185 204.209C368.473 211.893 367.673 220.306 366.708 229.337C366.209 233.853 365.695 238.519 365.062 243.32C364.413 248.112 363.78 253.08 362.443 258.031C357.473 277.859 351.998 299.677 346.245 322.627L346.205 322.785H346.047C345.034 322.785 343.934 322.785 342.834 322.785C333.805 322.785 324.927 322.785 316.278 322.785H316.041L316.08 322.547C320.258 295.882 324.112 271.276 327.404 250.259V250.291C327.158 227.816 326.961 209.263 326.826 196.318C326.771 189.854 326.723 184.792 326.692 181.338C326.684 179.619 326.676 178.304 326.668 177.409C326.668 176.521 326.676 176.062 326.676 176.062C326.676 176.062 326.699 176.521 326.715 177.409C326.731 178.304 326.755 179.619 326.786 181.338C326.842 184.792 326.913 189.854 327.016 196.318C327.19 209.263 327.435 227.816 327.736 250.291V250.307V250.323C324.468 271.34 320.63 295.953 316.484 322.619L316.286 322.381C324.935 322.381 333.805 322.381 342.842 322.381H346.055L345.857 322.539C351.626 299.597 357.109 277.772 362.095 257.944C363.432 253.016 364.065 248.073 364.722 243.28C365.363 238.487 365.885 233.821 366.391 229.306C367.373 220.282 368.196 211.861 368.924 204.185C369.28 200.343 369.62 196.691 369.944 193.229C370.285 189.783 370.522 186.487 370.973 183.469C371.63 177.393 371.345 172.077 370.482 167.863C369.628 163.64 368.124 160.59 366.85 158.729C366.209 157.794 365.656 157.136 365.26 156.709C364.864 156.289 364.666 156.059 364.666 156.059L364.651 156.067Z" fill="#4F4747"/>
<path d="M342.407 257.595C342.391 257.642 341.505 257.405 340.104 256.929C338.704 256.454 336.797 255.725 334.731 254.806C332.666 253.887 330.846 252.961 329.556 252.24C328.266 251.519 327.491 251.028 327.522 250.98C327.554 250.925 328.369 251.329 329.691 251.978C331.012 252.628 332.848 253.515 334.897 254.426C336.955 255.337 338.838 256.106 340.207 256.652C341.576 257.199 342.423 257.539 342.407 257.595Z" fill="#4F4747"/>
<path d="M291.455 262.514C291.455 262.514 291.447 262.451 291.455 262.316C291.455 262.166 291.471 261.976 291.478 261.746C291.51 261.215 291.55 260.486 291.597 259.56C291.724 257.627 291.89 254.894 292.104 251.535C292.563 244.761 293.211 235.405 294.121 225.083C295.031 214.761 296.084 205.437 296.946 198.703C297.374 195.336 297.746 192.611 298.023 190.733C298.157 189.822 298.268 189.101 298.347 188.571C298.387 188.341 298.418 188.159 298.442 188.008C298.466 187.881 298.482 187.818 298.489 187.818C298.497 187.818 298.489 187.881 298.489 188.016C298.474 188.167 298.458 188.357 298.434 188.579C298.371 189.109 298.292 189.83 298.189 190.749C297.959 192.666 297.643 195.392 297.247 198.735C296.464 205.476 295.459 214.8 294.541 225.123C293.631 235.437 292.934 244.793 292.396 251.558C292.127 254.917 291.914 257.642 291.755 259.575C291.676 260.494 291.605 261.223 291.558 261.754C291.534 261.984 291.51 262.166 291.494 262.316C291.478 262.443 291.471 262.507 291.463 262.507L291.455 262.514Z" fill="#4F4747"/>
<path d="M351.728 146.703C351.602 146.751 350.874 143.851 348.927 140.793C347.012 137.712 344.725 135.802 344.82 135.699C344.852 135.66 345.461 136.088 346.332 136.919C347.202 137.751 348.302 139.011 349.283 140.571C350.257 142.132 350.921 143.669 351.293 144.81C351.665 145.95 351.784 146.687 351.736 146.703H351.728Z" fill="#4F4747"/>
<path d="M299.21 238.923C299.21 238.923 299.305 239.105 299.281 239.462C299.257 239.81 299.099 240.341 298.632 240.808C298.197 241.276 297.326 241.608 296.488 241.299C296.076 241.157 295.68 240.887 295.388 240.507C295.087 240.127 294.929 239.612 294.944 239.113C294.952 238.471 295.15 237.861 295.514 237.386C295.696 237.148 295.934 236.95 296.211 236.839C296.495 236.736 296.701 236.681 296.939 236.61H296.97L296.994 236.602C297.532 236.618 298.054 236.728 298.426 237.014C298.806 237.283 298.996 237.663 299.091 237.956C299.273 238.566 299.241 238.923 299.21 238.923C299.162 238.931 299.115 238.574 298.893 238.028C298.774 237.766 298.584 237.457 298.26 237.251C297.936 237.037 297.485 236.95 296.994 236.958H297.049C296.836 237.029 296.559 237.109 296.369 237.188C296.171 237.283 295.981 237.434 295.839 237.632C295.538 238.028 295.372 238.566 295.364 239.113C295.324 239.984 295.941 240.689 296.63 240.935C297.326 241.212 298.031 240.975 298.45 240.594C298.885 240.214 299.067 239.755 299.138 239.438C299.21 239.121 299.194 238.923 299.225 238.923H299.21Z" fill="#4F4747"/>
<path d="M298.102 265.168C298.102 265.168 298.197 265.351 298.173 265.707C298.149 266.056 297.991 266.586 297.524 267.054C297.089 267.521 296.218 267.854 295.38 267.545C294.968 267.402 294.572 267.133 294.28 266.753C293.979 266.373 293.821 265.858 293.837 265.359C293.844 264.717 294.042 264.107 294.406 263.632C294.588 263.394 294.826 263.196 295.103 263.085C295.387 262.982 295.593 262.927 295.831 262.855H295.862L295.886 262.847C296.424 262.863 296.946 262.974 297.318 263.259C297.698 263.529 297.888 263.909 297.983 264.202C298.165 264.812 298.133 265.168 298.102 265.168C298.054 265.176 298.007 264.82 297.785 264.281C297.666 264.02 297.477 263.711 297.152 263.505C296.828 263.291 296.377 263.204 295.886 263.212H295.941C295.728 263.283 295.451 263.362 295.261 263.441C295.063 263.537 294.873 263.687 294.731 263.885C294.43 264.281 294.264 264.82 294.256 265.366C294.216 266.238 294.834 266.943 295.522 267.189C296.218 267.466 296.923 267.228 297.342 266.848C297.777 266.468 297.959 266.008 298.03 265.691C298.102 265.374 298.086 265.176 298.118 265.176L298.102 265.168Z" fill="#4F4747"/>
<path d="M361.295 151.67C361.256 151.741 360.275 151.108 358.534 150.442C357.671 150.102 356.603 149.793 355.4 149.547C354.197 149.325 352.852 149.183 351.436 149.191C350.019 149.222 348.682 149.404 347.479 149.658C346.284 149.935 345.232 150.276 344.369 150.64C342.652 151.353 341.687 152.011 341.647 151.939C341.631 151.916 341.861 151.741 342.304 151.448C342.518 151.298 342.795 151.124 343.127 150.949C343.459 150.775 343.823 150.553 344.267 150.371C345.121 149.967 346.189 149.595 347.4 149.286C348.619 149.008 349.988 148.81 351.436 148.779C352.884 148.771 354.253 148.929 355.479 149.175C356.698 149.444 357.782 149.785 358.645 150.173C359.088 150.339 359.46 150.553 359.8 150.719C360.14 150.886 360.417 151.052 360.631 151.195C361.074 151.48 361.311 151.646 361.295 151.67Z" fill="#4F4747"/>
<g opacity="0.3">
<path d="M296.1 221.106C299.32 216.409 300.507 211.98 302.232 206.546C304.788 198.473 305.508 189.355 309.52 181.9C311.886 177.512 314.672 173.004 318.779 170.192C322.79 167.443 323.384 163.957 323.305 154.514C326.169 154.546 329.2 152.328 329.564 151.939C331.519 149.84 332.935 146.497 333.078 145.34C331.068 147.527 327.712 151.163 327.712 151.163C327.712 151.163 320.44 152.518 320.543 152.47C320.361 156.099 320.361 159.283 320.179 162.919C320.179 162.919 306.228 177.741 305.144 180.72C304.06 183.699 296.092 221.098 296.092 221.098L296.1 221.106Z" fill="#333333"/>
</g>
<g opacity="0.3">
<path d="M347.906 313.627C365.584 280.125 371.084 236.071 370.031 194.108C370.031 194.108 364.959 245.11 363.242 253.872C361.541 262.562 347.906 313.635 347.906 313.635V313.627Z" fill="#333333"/>
</g>
<path d="M350.605 126.716C350.605 126.716 350.478 126.835 350.209 127.017C349.901 127.223 349.513 127.492 349.03 127.817C347.954 128.522 346.466 129.504 344.654 130.693C340.903 133.117 335.792 136.412 330.142 140.056C327.958 141.451 325.853 142.797 323.882 144.057H323.898C323.218 144.58 322.545 145.095 321.896 145.594C321.232 146.085 320.662 146.576 320.108 147.123C319.008 148.184 318.035 149.214 317.156 150.149L316.998 150.315L316.911 150.109C315.961 147.915 315.186 146.125 314.624 144.826C314.379 144.231 314.181 143.748 314.023 143.376C313.888 143.043 313.825 142.869 313.841 142.861C313.857 142.861 313.944 143.019 314.102 143.344C314.276 143.709 314.498 144.176 314.774 144.754C315.368 146.038 316.183 147.812 317.18 149.983L316.935 149.943C317.797 148.992 318.763 147.947 319.863 146.869C320.393 146.331 321.018 145.784 321.675 145.293C322.316 144.786 322.98 144.271 323.661 143.732V143.724C325.631 142.465 327.728 141.11 329.912 139.708C335.586 136.103 340.721 132.84 344.496 130.447C346.34 129.298 347.843 128.364 348.943 127.682C349.442 127.381 349.845 127.136 350.162 126.946C350.447 126.779 350.597 126.7 350.605 126.716Z" fill="#4F4747"/>
<path d="M277.623 90.1398L267.74 88.9831C263.759 93.0313 258.64 96.0654 252.721 97.523C235.7 101.714 218.52 91.2964 214.334 74.2562C210.148 57.216 220.554 40.0174 237.575 35.8266C254.596 31.6359 271.775 42.0533 275.961 59.0935C277.71 66.2074 276.903 73.3452 274.141 79.556V79.5401L277.623 90.1318V90.1398Z" fill="white"/>
<path d="M277.623 90.14C277.623 90.14 277.536 89.8944 277.378 89.4428C277.22 88.9754 276.99 88.2942 276.689 87.4148C276.088 85.6245 275.21 83.0023 274.062 79.58L274.236 79.6117V79.6275C274.189 79.6671 274.126 79.675 274.086 79.6434C274.046 79.6117 274.039 79.5641 274.054 79.5245C275.708 75.7299 277.164 70.3984 276.626 64.0846C276.492 62.516 276.246 60.892 275.835 59.2522C275.352 57.6282 274.909 55.9329 274.149 54.293C272.733 50.9816 270.668 47.7098 267.882 44.8183C265.113 41.9347 261.631 39.4472 257.635 37.7281C253.639 36.0011 249.128 35.0505 244.475 35.1456C235.177 35.2486 225.373 40.0334 219.486 48.4307C216.511 52.7007 214.524 57.5965 213.939 62.5715C213.298 67.5386 213.86 72.5215 215.395 77.0212C216.914 81.5288 219.494 85.4819 222.572 88.6586C225.666 91.8353 229.29 94.2277 233.033 95.7884C236.776 97.3648 240.63 98.1174 244.262 98.2283C244.713 98.2283 245.164 98.2362 245.615 98.2442C246.066 98.26 246.509 98.26 246.944 98.2046C247.823 98.1253 248.685 98.054 249.532 97.9748C251.201 97.6421 252.832 97.4044 254.343 96.9212C260.428 95.0912 264.828 91.7957 267.676 88.92C267.7 88.8962 267.724 88.8883 267.756 88.8962C270.945 89.2923 273.398 89.6013 275.067 89.8073C275.898 89.9102 276.523 89.9974 276.966 90.0528C277.394 90.1083 277.623 90.1479 277.623 90.1479C277.623 90.1479 277.417 90.1321 276.998 90.0924C276.563 90.0449 275.938 89.9815 275.123 89.8944C273.429 89.7122 270.952 89.4428 267.724 89.0864L267.803 89.0626C264.962 91.9858 260.547 95.3368 254.422 97.2143C252.903 97.7134 251.257 97.959 249.571 98.2996C248.717 98.3788 247.846 98.4581 246.96 98.5452C246.517 98.6007 246.066 98.6086 245.615 98.5927C245.164 98.5927 244.705 98.5927 244.246 98.5769C240.574 98.4739 236.681 97.7292 232.883 96.1448C229.092 94.5684 225.413 92.1601 222.279 88.9517C219.153 85.7433 216.534 81.7427 214.991 77.1717C213.432 72.6245 212.855 67.5703 213.496 62.5319C214.089 57.4777 216.099 52.5185 219.114 48.1852C219.454 47.6306 219.874 47.1474 220.285 46.6483L221.512 45.159L222.865 43.7964C223.308 43.3369 223.759 42.8854 224.265 42.4972C224.756 42.0932 225.247 41.6891 225.729 41.2851C226.204 40.8652 226.766 40.5642 227.272 40.1998C227.802 39.8592 228.301 39.4789 228.847 39.1699C229.401 38.8768 229.947 38.5758 230.493 38.2827C234.9 35.9932 239.743 34.7812 244.459 34.7178C249.176 34.6227 253.749 35.5971 257.793 37.3558C261.845 39.1066 265.358 41.6337 268.151 44.5569C270.96 47.4801 273.042 50.8073 274.458 54.1583C275.218 55.822 275.661 57.5331 276.143 59.1729C276.547 60.8366 276.792 62.4764 276.919 64.0608C277.433 70.438 275.938 75.8012 274.236 79.6037L274.07 79.5008V79.4849C274.118 79.4453 274.181 79.4374 274.221 79.4691C274.236 79.4849 274.244 79.5008 274.252 79.5166C275.36 82.9785 276.207 85.6403 276.784 87.4544C277.061 88.3338 277.275 88.9992 277.425 89.4745C277.568 89.9261 277.631 90.14 277.631 90.14H277.623Z" fill="#4F4747"/>
<path d="M230.532 67.4118L234.33 63.2052L242.386 69.6775L254.351 55.9249L258.26 59.7354L242.204 77.4252L230.532 67.4118Z" fill="#4F4747"/>
<path d="M190.548 92.8887C191.98 92.7065 194.085 92.4451 196.823 92.1044C196.846 92.1044 196.87 92.1044 196.886 92.1282C199.331 94.5999 203.106 97.4201 208.32 98.9886C209.61 99.4085 211.011 99.6065 212.443 99.8917C213.171 99.9551 213.907 100.018 214.667 100.09C215.039 100.137 215.426 100.137 215.806 100.129C216.186 100.129 216.574 100.121 216.969 100.114C220.079 100.018 223.387 99.3689 226.6 98.0221C227.423 97.6736 228.238 97.2854 229.045 96.8497C228.799 96.7546 228.554 96.6675 228.309 96.5645C224.598 95.0197 220.989 92.659 217.911 89.5139C214.849 86.3689 212.277 82.4475 210.765 77.9716C209.238 73.5115 208.669 68.5603 209.302 63.617C209.879 58.6657 211.85 53.8016 214.809 49.5555C215.141 49.0168 215.553 48.5335 215.956 48.0503L217.159 46.5926L217.674 46.0698C217.381 46.0539 217.08 46.0381 216.787 46.0302C212.799 45.951 208.922 46.7669 205.503 48.2404C202.077 49.7139 199.094 51.8449 196.712 54.3166C194.33 56.7882 192.55 59.6005 191.339 62.4366C190.69 63.8388 190.31 65.2964 189.891 66.6907C189.543 68.1008 189.329 69.4872 189.21 70.8339C188.743 76.2446 189.994 80.8156 191.41 84.0715C191.426 84.1032 191.41 84.1428 191.386 84.1745C190.413 87.0819 189.661 89.3159 189.147 90.8369C188.894 91.5974 188.696 92.1757 188.554 92.5798C188.419 92.9759 188.34 93.1818 188.34 93.1818C188.34 93.1818 188.538 93.1501 188.902 93.1026C189.281 93.0551 189.82 92.9838 190.532 92.8966L190.548 92.8887Z" fill="#E7EEFC"/>
<path d="M190.547 92.889C190.547 92.889 190.365 92.9286 189.993 92.984C189.614 93.0395 189.068 93.1187 188.355 93.2217H188.284L188.308 93.1583C188.917 91.3046 189.938 88.2308 191.291 84.1352L191.323 84.0876C191.323 84.0876 191.323 84.1352 191.307 84.0876L191.252 83.9609L191.141 83.6995C191.07 83.5252 190.998 83.3509 190.927 83.1687C190.785 82.8122 190.65 82.4399 190.516 82.0596C190.247 81.2991 190.009 80.499 189.796 79.6593C189.376 77.9798 189.075 76.1419 189.004 74.1852C188.925 72.2284 189.052 70.145 189.447 68.006C189.629 66.9286 189.97 65.8592 190.294 64.7818C190.611 63.6885 191.07 62.6032 191.56 61.5417C193.538 57.248 196.886 53.1127 201.459 50.1816C205.994 47.2425 211.739 45.5313 217.689 45.8641L218.14 45.8878L217.824 46.2047C217.665 46.3632 217.483 46.5454 217.309 46.7276L217.325 46.7117C213.693 50.8074 210.924 55.9963 209.816 61.7001C208.336 69.5191 209.911 77.5758 213.717 83.7708C217.507 90.0212 223.236 94.4338 229.116 96.6757L229.503 96.8262L229.139 97.0005C227.699 97.6897 226.314 98.4106 224.858 98.8621C223.418 99.3454 221.978 99.6939 220.554 99.9237C217.721 100.391 214.943 100.336 212.443 100.035H212.435C211.525 99.8524 210.623 99.7019 209.752 99.5038C208.874 99.3216 208.051 99.0364 207.252 98.7671C205.661 98.2046 204.205 97.5392 202.915 96.8103C200.32 95.3527 198.35 93.6891 196.886 92.2077C196.878 92.1285 196.712 92.2077 196.593 92.2077C196.466 92.2235 196.348 92.2394 196.221 92.2552C195.976 92.2869 195.738 92.3107 195.517 92.3424C195.058 92.3978 194.63 92.4453 194.235 92.4929C193.444 92.58 192.779 92.6592 192.225 92.7226C191.695 92.7781 191.283 92.8256 190.99 92.8573C190.714 92.889 190.571 92.889 190.571 92.889C190.571 92.889 190.714 92.8573 190.99 92.8177C191.283 92.7781 191.695 92.7147 192.217 92.6434C192.763 92.5721 193.436 92.477 194.219 92.374C194.615 92.3186 195.042 92.2631 195.501 92.2077C195.73 92.176 195.968 92.1443 196.205 92.1126C196.324 92.0968 196.45 92.0809 196.577 92.0651L196.767 92.0413C196.807 92.0413 196.807 92.0255 196.886 92.0413C196.917 92.0413 196.949 92.0651 196.973 92.0888L197.004 92.1205C198.476 93.5782 200.447 95.2101 203.034 96.6361C205.614 98.0699 208.795 99.2424 212.498 99.7732H212.482C213.756 99.8762 215.046 100.027 216.384 99.9871C217.729 99.9791 219.106 99.8603 220.514 99.6306C221.915 99.3929 223.339 99.0443 224.763 98.5611C226.196 98.1096 227.565 97.3886 228.981 96.7074L229.005 97.0242C223.054 94.7744 217.238 90.3143 213.392 83.9926C209.523 77.7104 207.924 69.5587 209.42 61.6367C210.544 55.8378 213.361 50.6014 217.024 46.4661H217.032V46.4503C217.214 46.2681 217.388 46.0938 217.547 45.9354L217.681 46.276C211.818 45.9433 206.152 47.6228 201.673 50.5143C197.163 53.3979 193.847 57.4619 191.877 61.7001C191.378 62.7696 190.935 63.8153 190.611 64.9006C190.278 65.9859 189.946 67.0316 189.764 68.0852C189.36 70.2004 189.226 72.2601 189.297 74.1931C189.36 76.134 189.645 77.956 190.049 79.6196C190.255 80.4515 190.484 81.2516 190.745 82.0042C190.88 82.3765 191.006 82.7488 191.149 83.1053C191.22 83.2796 191.291 83.4618 191.362 83.6361L191.473 83.8975L191.529 84.0243C191.529 84.0243 191.584 84.2223 191.489 84.2698L191.521 84.2223C190.12 88.3259 189.083 91.3996 188.427 93.2138L188.379 93.1504C189.091 93.0632 189.637 92.9999 190.025 92.9603C190.397 92.9207 190.579 92.9127 190.579 92.9127L190.547 92.889Z" fill="#4F4747"/>
</svg>
